<?xml version="1.0" encoding="utf-8" standalone="no"?>
<!DOCTYPE svg PUBLIC "-//W3C//DTD SVG 1.1//EN"
  "http://www.w3.org/Graphics/SVG/1.1/DTD/svg11.dtd">
<svg xmlns:xlink="http://www.w3.org/1999/xlink" width="288pt" height="576pt" viewBox="0 0 288 576" xmlns="http://www.w3.org/2000/svg" version="1.1">
 <metadata>
  <rdf:RDF xmlns:dc="http://purl.org/dc/elements/1.1/" xmlns:cc="http://creativecommons.org/ns#" xmlns:rdf="http://www.w3.org/1999/02/22-rdf-syntax-ns#">
   <cc:Work>
    <dc:type rdf:resource="http://purl.org/dc/dcmitype/StillImage"/>
    <dc:date>2025-09-29T12:01:43.830302</dc:date>
    <dc:format>image/svg+xml</dc:format>
    <dc:creator>
     <cc:Agent>
      <dc:title>Matplotlib v3.10.6, https://matplotlib.org/</dc:title>
     </cc:Agent>
    </dc:creator>
   </cc:Work>
  </rdf:RDF>
 </metadata>
 <defs>
  <style type="text/css">*{stroke-linejoin: round; stroke-linecap: butt}</style>
 </defs>
 <g id="figure_1">
  <g id="patch_1">
   <path d="M 0 576 
L 288 576 
L 288 0 
L 0 0 
z
" style="fill: #ffffff"/>
  </g>
  <g id="axes_1">
   <g id="patch_2">
    <path d="M 36 512.64 
L 259.2 512.64 
L 259.2 69.12 
L 36 69.12 
z
" style="fill: #ffffff"/>
   </g>
   <g id="patch_3">
    <path d="M 36 507.177931 
L 74.942403 507.177931 
L 74.942403 489.69931 
L 36 489.69931 
z
" clip-path="url(#p1140cf01d3)" style="fill: #d32f2f"/>
   </g>
   <g id="patch_4">
    <path d="M 36 485.329655 
L 76.383279 485.329655 
L 76.383279 467.851034 
L 36 467.851034 
z
" clip-path="url(#p1140cf01d3)" style="fill: #d32f2f"/>
   </g>
   <g id="patch_5">
    <path d="M 36 463.481379 
L 76.855652 463.481379 
L 76.855652 446.002759 
L 36 446.002759 
z
" clip-path="url(#p1140cf01d3)" style="fill: #d32f2f"/>
   </g>
   <g id="patch_6">
    <path d="M 36 441.633103 
L 76.881954 441.633103 
L 76.881954 424.154483 
L 36 424.154483 
z
" clip-path="url(#p1140cf01d3)" style="fill: #d32f2f"/>
   </g>
   <g id="patch_7">
    <path d="M 36 419.784828 
L 77.839247 419.784828 
L 77.839247 402.306207 
L 36 402.306207 
z
" clip-path="url(#p1140cf01d3)" style="fill: #d32f2f"/>
   </g>
   <g id="patch_8">
    <path d="M 36 397.936552 
L 81.102049 397.936552 
L 81.102049 380.457931 
L 36 380.457931 
z
" clip-path="url(#p1140cf01d3)" style="fill: #d32f2f"/>
   </g>
   <g id="patch_9">
    <path d="M 36 376.088276 
L 82.277744 376.088276 
L 82.277744 358.609655 
L 36 358.609655 
z
" clip-path="url(#p1140cf01d3)" style="fill: #d32f2f"/>
   </g>
   <g id="patch_10">
    <path d="M 36 354.24 
L 87.574869 354.24 
L 87.574869 336.761379 
L 36 336.761379 
z
" clip-path="url(#p1140cf01d3)" style="fill: #d32f2f"/>
   </g>
   <g id="patch_11">
    <path d="M 36 332.391724 
L 88.113456 332.391724 
L 88.113456 314.913103 
L 36 314.913103 
z
" clip-path="url(#p1140cf01d3)" style="fill: #d32f2f"/>
   </g>
   <g id="patch_12">
    <path d="M 36 310.543448 
L 91.60845 310.543448 
L 91.60845 293.064828 
L 36 293.064828 
z
" clip-path="url(#p1140cf01d3)" style="fill: #d32f2f"/>
   </g>
   <g id="patch_13">
    <path d="M 36 288.695172 
L 98.897721 288.695172 
L 98.897721 271.216552 
L 36 271.216552 
z
" clip-path="url(#p1140cf01d3)" style="fill: #d32f2f"/>
   </g>
   <g id="patch_14">
    <path d="M 36 266.846897 
L 101.745025 266.846897 
L 101.745025 249.368276 
L 36 249.368276 
z
" clip-path="url(#p1140cf01d3)" style="fill: #d32f2f"/>
   </g>
   <g id="patch_15">
    <path d="M 36 244.998621 
L 107.439441 244.998621 
L 107.439441 227.52 
L 36 227.52 
z
" clip-path="url(#p1140cf01d3)" style="fill: #d32f2f"/>
   </g>
   <g id="patch_16">
    <path d="M 36 223.150345 
L 112.617367 223.150345 
L 112.617367 205.671724 
L 36 205.671724 
z
" clip-path="url(#p1140cf01d3)" style="fill: #d32f2f"/>
   </g>
   <g id="patch_17">
    <path d="M 36 201.302069 
L 116.303793 201.302069 
L 116.303793 183.823448 
L 36 183.823448 
z
" clip-path="url(#p1140cf01d3)" style="fill: #d32f2f"/>
   </g>
   <g id="patch_18">
    <path d="M 36 179.453793 
L 141.96741 179.453793 
L 141.96741 161.975172 
L 36 161.975172 
z
" clip-path="url(#p1140cf01d3)" style="fill: #d32f2f"/>
   </g>
   <g id="patch_19">
    <path d="M 36 157.605517 
L 145.368 157.605517 
L 145.368 140.126897 
L 36 140.126897 
z
" clip-path="url(#p1140cf01d3)" style="fill: #d32f2f"/>
   </g>
   <g id="patch_20">
    <path d="M 36 135.757241 
L 174.82004 135.757241 
L 174.82004 118.278621 
L 36 118.278621 
z
" clip-path="url(#p1140cf01d3)" style="fill: #d32f2f"/>
   </g>
   <g id="patch_21">
    <path d="M 36 113.908966 
L 211.229212 113.908966 
L 211.229212 96.430345 
L 36 96.430345 
z
" clip-path="url(#p1140cf01d3)" style="fill: #d32f2f"/>
   </g>
   <g id="patch_22">
    <path d="M 36 92.06069 
L 243.616831 92.06069 
L 243.616831 74.582069 
L 36 74.582069 
z
" clip-path="url(#p1140cf01d3)" style="fill: #d32f2f"/>
   </g>
   <g id="matplotlib.axis_1">
    <g id="xtick_1">
     <g id="line2d_1">
      <defs>
       <path id="md9d3efb155" d="M 0 0 
L 0 3.5 
" style="stroke: #000000; stroke-width: 0.8"/>
      </defs>
      <g>
       <use xlink:href="#md9d3efb155" x="36" y="512.64" style="stroke: #000000; stroke-width: 0.8"/>
      </g>
     </g>
     <g id="text_1">
      <!-- 0 -->
      <g transform="translate(32.81875 527.238438) scale(0.1 -0.1)">
       <defs>
        <path id="DejaVuSans-30" d="M 2034 4250 
Q 1547 4250 1301 3770 
Q 1056 3291 1056 2328 
Q 1056 1369 1301 889 
Q 1547 409 2034 409 
Q 2525 409 2770 889 
Q 3016 1369 3016 2328 
Q 3016 3291 2770 3770 
Q 2525 4250 2034 4250 
z
M 2034 4750 
Q 2819 4750 3233 4129 
Q 3647 3509 3647 2328 
Q 3647 1150 3233 529 
Q 2819 -91 2034 -91 
Q 1250 -91 836 529 
Q 422 1150 422 2328 
Q 422 3509 836 4129 
Q 1250 4750 2034 4750 
z
" transform="scale(0.015625)"/>
       </defs>
       <use xlink:href="#DejaVuSans-30"/>
      </g>
     </g>
    </g>
    <g id="xtick_2">
     <g id="line2d_2">
      <g>
       <use xlink:href="#md9d3efb155" x="80.64" y="512.64" style="stroke: #000000; stroke-width: 0.8"/>
      </g>
     </g>
     <g id="text_2">
      <!-- 20 -->
      <g transform="translate(74.2775 527.238438) scale(0.1 -0.1)">
       <defs>
        <path id="DejaVuSans-32" d="M 1228 531 
L 3431 531 
L 3431 0 
L 469 0 
L 469 531 
Q 828 903 1448 1529 
Q 2069 2156 2228 2338 
Q 2531 2678 2651 2914 
Q 2772 3150 2772 3378 
Q 2772 3750 2511 3984 
Q 2250 4219 1831 4219 
Q 1534 4219 1204 4116 
Q 875 4013 500 3803 
L 500 4441 
Q 881 4594 1212 4672 
Q 1544 4750 1819 4750 
Q 2544 4750 2975 4387 
Q 3406 4025 3406 3419 
Q 3406 3131 3298 2873 
Q 3191 2616 2906 2266 
Q 2828 2175 2409 1742 
Q 1991 1309 1228 531 
z
" transform="scale(0.015625)"/>
       </defs>
       <use xlink:href="#DejaVuSans-32"/>
       <use xlink:href="#DejaVuSans-30" transform="translate(63.623047 0)"/>
      </g>
     </g>
    </g>
    <g id="xtick_3">
     <g id="line2d_3">
      <g>
       <use xlink:href="#md9d3efb155" x="125.28" y="512.64" style="stroke: #000000; stroke-width: 0.8"/>
      </g>
     </g>
     <g id="text_3">
      <!-- 40 -->
      <g transform="translate(118.9175 527.238438) scale(0.1 -0.1)">
       <defs>
        <path id="DejaVuSans-34" d="M 2419 4116 
L 825 1625 
L 2419 1625 
L 2419 4116 
z
M 2253 4666 
L 3047 4666 
L 3047 1625 
L 3713 1625 
L 3713 1100 
L 3047 1100 
L 3047 0 
L 2419 0 
L 2419 1100 
L 313 1100 
L 313 1709 
L 2253 4666 
z
" transform="scale(0.015625)"/>
       </defs>
       <use xlink:href="#DejaVuSans-34"/>
       <use xlink:href="#DejaVuSans-30" transform="translate(63.623047 0)"/>
      </g>
     </g>
    </g>
    <g id="xtick_4">
     <g id="line2d_4">
      <g>
       <use xlink:href="#md9d3efb155" x="169.92" y="512.64" style="stroke: #000000; stroke-width: 0.8"/>
      </g>
     </g>
     <g id="text_4">
      <!-- 60 -->
      <g transform="translate(163.5575 527.238438) scale(0.1 -0.1)">
       <defs>
        <path id="DejaVuSans-36" d="M 2113 2584 
Q 1688 2584 1439 2293 
Q 1191 2003 1191 1497 
Q 1191 994 1439 701 
Q 1688 409 2113 409 
Q 2538 409 2786 701 
Q 3034 994 3034 1497 
Q 3034 2003 2786 2293 
Q 2538 2584 2113 2584 
z
M 3366 4563 
L 3366 3988 
Q 3128 4100 2886 4159 
Q 2644 4219 2406 4219 
Q 1781 4219 1451 3797 
Q 1122 3375 1075 2522 
Q 1259 2794 1537 2939 
Q 1816 3084 2150 3084 
Q 2853 3084 3261 2657 
Q 3669 2231 3669 1497 
Q 3669 778 3244 343 
Q 2819 -91 2113 -91 
Q 1303 -91 875 529 
Q 447 1150 447 2328 
Q 447 3434 972 4092 
Q 1497 4750 2381 4750 
Q 2619 4750 2861 4703 
Q 3103 4656 3366 4563 
z
" transform="scale(0.015625)"/>
       </defs>
       <use xlink:href="#DejaVuSans-36"/>
       <use xlink:href="#DejaVuSans-30" transform="translate(63.623047 0)"/>
      </g>
     </g>
    </g>
    <g id="xtick_5">
     <g id="line2d_5">
      <g>
       <use xlink:href="#md9d3efb155" x="214.56" y="512.64" style="stroke: #000000; stroke-width: 0.8"/>
      </g>
     </g>
     <g id="text_5">
      <!-- 80 -->
      <g transform="translate(208.1975 527.238438) scale(0.1 -0.1)">
       <defs>
        <path id="DejaVuSans-38" d="M 2034 2216 
Q 1584 2216 1326 1975 
Q 1069 1734 1069 1313 
Q 1069 891 1326 650 
Q 1584 409 2034 409 
Q 2484 409 2743 651 
Q 3003 894 3003 1313 
Q 3003 1734 2745 1975 
Q 2488 2216 2034 2216 
z
M 1403 2484 
Q 997 2584 770 2862 
Q 544 3141 544 3541 
Q 544 4100 942 4425 
Q 1341 4750 2034 4750 
Q 2731 4750 3128 4425 
Q 3525 4100 3525 3541 
Q 3525 3141 3298 2862 
Q 3072 2584 2669 2484 
Q 3125 2378 3379 2068 
Q 3634 1759 3634 1313 
Q 3634 634 3220 271 
Q 2806 -91 2034 -91 
Q 1263 -91 848 271 
Q 434 634 434 1313 
Q 434 1759 690 2068 
Q 947 2378 1403 2484 
z
M 1172 3481 
Q 1172 3119 1398 2916 
Q 1625 2713 2034 2713 
Q 2441 2713 2670 2916 
Q 2900 3119 2900 3481 
Q 2900 3844 2670 4047 
Q 2441 4250 2034 4250 
Q 1625 4250 1398 4047 
Q 1172 3844 1172 3481 
z
" transform="scale(0.015625)"/>
       </defs>
       <use xlink:href="#DejaVuSans-38"/>
       <use xlink:href="#DejaVuSans-30" transform="translate(63.623047 0)"/>
      </g>
     </g>
    </g>
    <g id="xtick_6">
     <g id="line2d_6">
      <g>
       <use xlink:href="#md9d3efb155" x="259.2" y="512.64" style="stroke: #000000; stroke-width: 0.8"/>
      </g>
     </g>
     <g id="text_6">
      <!-- 100 -->
      <g transform="translate(249.65625 527.238438) scale(0.1 -0.1)">
       <defs>
        <path id="DejaVuSans-31" d="M 794 531 
L 1825 531 
L 1825 4091 
L 703 3866 
L 703 4441 
L 1819 4666 
L 2450 4666 
L 2450 531 
L 3481 531 
L 3481 0 
L 794 0 
L 794 531 
z
" transform="scale(0.015625)"/>
       </defs>
       <use xlink:href="#DejaVuSans-31"/>
       <use xlink:href="#DejaVuSans-30" transform="translate(63.623047 0)"/>
       <use xlink:href="#DejaVuSans-30" transform="translate(127.246094 0)"/>
      </g>
     </g>
    </g>
    <g id="text_7">
     <!-- Score -->
     <g transform="translate(133.597656 540.916563) scale(0.1 -0.1)">
      <defs>
       <path id="DejaVuSans-53" d="M 3425 4513 
L 3425 3897 
Q 3066 4069 2747 4153 
Q 2428 4238 2131 4238 
Q 1616 4238 1336 4038 
Q 1056 3838 1056 3469 
Q 1056 3159 1242 3001 
Q 1428 2844 1947 2747 
L 2328 2669 
Q 3034 2534 3370 2195 
Q 3706 1856 3706 1288 
Q 3706 609 3251 259 
Q 2797 -91 1919 -91 
Q 1588 -91 1214 -16 
Q 841 59 441 206 
L 441 856 
Q 825 641 1194 531 
Q 1563 422 1919 422 
Q 2459 422 2753 634 
Q 3047 847 3047 1241 
Q 3047 1584 2836 1778 
Q 2625 1972 2144 2069 
L 1759 2144 
Q 1053 2284 737 2584 
Q 422 2884 422 3419 
Q 422 4038 858 4394 
Q 1294 4750 2059 4750 
Q 2388 4750 2728 4690 
Q 3069 4631 3425 4513 
z
" transform="scale(0.015625)"/>
       <path id="DejaVuSans-63" d="M 3122 3366 
L 3122 2828 
Q 2878 2963 2633 3030 
Q 2388 3097 2138 3097 
Q 1578 3097 1268 2742 
Q 959 2388 959 1747 
Q 959 1106 1268 751 
Q 1578 397 2138 397 
Q 2388 397 2633 464 
Q 2878 531 3122 666 
L 3122 134 
Q 2881 22 2623 -34 
Q 2366 -91 2075 -91 
Q 1284 -91 818 406 
Q 353 903 353 1747 
Q 353 2603 823 3093 
Q 1294 3584 2113 3584 
Q 2378 3584 2631 3529 
Q 2884 3475 3122 3366 
z
" transform="scale(0.015625)"/>
       <path id="DejaVuSans-6f" d="M 1959 3097 
Q 1497 3097 1228 2736 
Q 959 2375 959 1747 
Q 959 1119 1226 758 
Q 1494 397 1959 397 
Q 2419 397 2687 759 
Q 2956 1122 2956 1747 
Q 2956 2369 2687 2733 
Q 2419 3097 1959 3097 
z
M 1959 3584 
Q 2709 3584 3137 3096 
Q 3566 2609 3566 1747 
Q 3566 888 3137 398 
Q 2709 -91 1959 -91 
Q 1206 -91 779 398 
Q 353 888 353 1747 
Q 353 2609 779 3096 
Q 1206 3584 1959 3584 
z
" transform="scale(0.015625)"/>
       <path id="DejaVuSans-72" d="M 2631 2963 
Q 2534 3019 2420 3045 
Q 2306 3072 2169 3072 
Q 1681 3072 1420 2755 
Q 1159 2438 1159 1844 
L 1159 0 
L 581 0 
L 581 3500 
L 1159 3500 
L 1159 2956 
Q 1341 3275 1631 3429 
Q 1922 3584 2338 3584 
Q 2397 3584 2469 3576 
Q 2541 3569 2628 3553 
L 2631 2963 
z
" transform="scale(0.015625)"/>
       <path id="DejaVuSans-65" d="M 3597 1894 
L 3597 1613 
L 953 1613 
Q 991 1019 1311 708 
Q 1631 397 2203 397 
Q 2534 397 2845 478 
Q 3156 559 3463 722 
L 3463 178 
Q 3153 47 2828 -22 
Q 2503 -91 2169 -91 
Q 1331 -91 842 396 
Q 353 884 353 1716 
Q 353 2575 817 3079 
Q 1281 3584 2069 3584 
Q 2775 3584 3186 3129 
Q 3597 2675 3597 1894 
z
M 3022 2063 
Q 3016 2534 2758 2815 
Q 2500 3097 2075 3097 
Q 1594 3097 1305 2825 
Q 1016 2553 972 2059 
L 3022 2063 
z
" transform="scale(0.015625)"/>
      </defs>
      <use xlink:href="#DejaVuSans-53"/>
      <use xlink:href="#DejaVuSans-63" transform="translate(63.476562 0)"/>
      <use xlink:href="#DejaVuSans-6f" transform="translate(118.457031 0)"/>
      <use xlink:href="#DejaVuSans-72" transform="translate(179.638672 0)"/>
      <use xlink:href="#DejaVuSans-65" transform="translate(218.501953 0)"/>
     </g>
    </g>
   </g>
   <g id="matplotlib.axis_2">
    <g id="ytick_1">
     <g id="line2d_7">
      <defs>
       <path id="m5a20e60e7a" d="M 0 0 
L -3.5 0 
" style="stroke: #000000; stroke-width: 0.8"/>
      </defs>
      <g>
       <use xlink:href="#m5a20e60e7a" x="36" y="498.438621" style="stroke: #000000; stroke-width: 0.8"/>
      </g>
     </g>
     <g id="text_8">
      <!-- Defense Response to Virus -->
      <g transform="translate(-104.879688 502.237839) scale(0.1 -0.1)">
       <defs>
        <path id="DejaVuSans-44" d="M 1259 4147 
L 1259 519 
L 2022 519 
Q 2988 519 3436 956 
Q 3884 1394 3884 2338 
Q 3884 3275 3436 3711 
Q 2988 4147 2022 4147 
L 1259 4147 
z
M 628 4666 
L 1925 4666 
Q 3281 4666 3915 4102 
Q 4550 3538 4550 2338 
Q 4550 1131 3912 565 
Q 3275 0 1925 0 
L 628 0 
L 628 4666 
z
" transform="scale(0.015625)"/>
        <path id="DejaVuSans-66" d="M 2375 4863 
L 2375 4384 
L 1825 4384 
Q 1516 4384 1395 4259 
Q 1275 4134 1275 3809 
L 1275 3500 
L 2222 3500 
L 2222 3053 
L 1275 3053 
L 1275 0 
L 697 0 
L 697 3053 
L 147 3053 
L 147 3500 
L 697 3500 
L 697 3744 
Q 697 4328 969 4595 
Q 1241 4863 1831 4863 
L 2375 4863 
z
" transform="scale(0.015625)"/>
        <path id="DejaVuSans-6e" d="M 3513 2113 
L 3513 0 
L 2938 0 
L 2938 2094 
Q 2938 2591 2744 2837 
Q 2550 3084 2163 3084 
Q 1697 3084 1428 2787 
Q 1159 2491 1159 1978 
L 1159 0 
L 581 0 
L 581 3500 
L 1159 3500 
L 1159 2956 
Q 1366 3272 1645 3428 
Q 1925 3584 2291 3584 
Q 2894 3584 3203 3211 
Q 3513 2838 3513 2113 
z
" transform="scale(0.015625)"/>
        <path id="DejaVuSans-73" d="M 2834 3397 
L 2834 2853 
Q 2591 2978 2328 3040 
Q 2066 3103 1784 3103 
Q 1356 3103 1142 2972 
Q 928 2841 928 2578 
Q 928 2378 1081 2264 
Q 1234 2150 1697 2047 
L 1894 2003 
Q 2506 1872 2764 1633 
Q 3022 1394 3022 966 
Q 3022 478 2636 193 
Q 2250 -91 1575 -91 
Q 1294 -91 989 -36 
Q 684 19 347 128 
L 347 722 
Q 666 556 975 473 
Q 1284 391 1588 391 
Q 1994 391 2212 530 
Q 2431 669 2431 922 
Q 2431 1156 2273 1281 
Q 2116 1406 1581 1522 
L 1381 1569 
Q 847 1681 609 1914 
Q 372 2147 372 2553 
Q 372 3047 722 3315 
Q 1072 3584 1716 3584 
Q 2034 3584 2315 3537 
Q 2597 3491 2834 3397 
z
" transform="scale(0.015625)"/>
        <path id="DejaVuSans-20" transform="scale(0.015625)"/>
        <path id="DejaVuSans-52" d="M 2841 2188 
Q 3044 2119 3236 1894 
Q 3428 1669 3622 1275 
L 4263 0 
L 3584 0 
L 2988 1197 
Q 2756 1666 2539 1819 
Q 2322 1972 1947 1972 
L 1259 1972 
L 1259 0 
L 628 0 
L 628 4666 
L 2053 4666 
Q 2853 4666 3247 4331 
Q 3641 3997 3641 3322 
Q 3641 2881 3436 2590 
Q 3231 2300 2841 2188 
z
M 1259 4147 
L 1259 2491 
L 2053 2491 
Q 2509 2491 2742 2702 
Q 2975 2913 2975 3322 
Q 2975 3731 2742 3939 
Q 2509 4147 2053 4147 
L 1259 4147 
z
" transform="scale(0.015625)"/>
        <path id="DejaVuSans-70" d="M 1159 525 
L 1159 -1331 
L 581 -1331 
L 581 3500 
L 1159 3500 
L 1159 2969 
Q 1341 3281 1617 3432 
Q 1894 3584 2278 3584 
Q 2916 3584 3314 3078 
Q 3713 2572 3713 1747 
Q 3713 922 3314 415 
Q 2916 -91 2278 -91 
Q 1894 -91 1617 61 
Q 1341 213 1159 525 
z
M 3116 1747 
Q 3116 2381 2855 2742 
Q 2594 3103 2138 3103 
Q 1681 3103 1420 2742 
Q 1159 2381 1159 1747 
Q 1159 1113 1420 752 
Q 1681 391 2138 391 
Q 2594 391 2855 752 
Q 3116 1113 3116 1747 
z
" transform="scale(0.015625)"/>
        <path id="DejaVuSans-74" d="M 1172 4494 
L 1172 3500 
L 2356 3500 
L 2356 3053 
L 1172 3053 
L 1172 1153 
Q 1172 725 1289 603 
Q 1406 481 1766 481 
L 2356 481 
L 2356 0 
L 1766 0 
Q 1100 0 847 248 
Q 594 497 594 1153 
L 594 3053 
L 172 3053 
L 172 3500 
L 594 3500 
L 594 4494 
L 1172 4494 
z
" transform="scale(0.015625)"/>
        <path id="DejaVuSans-56" d="M 1831 0 
L 50 4666 
L 709 4666 
L 2188 738 
L 3669 4666 
L 4325 4666 
L 2547 0 
L 1831 0 
z
" transform="scale(0.015625)"/>
        <path id="DejaVuSans-69" d="M 603 3500 
L 1178 3500 
L 1178 0 
L 603 0 
L 603 3500 
z
M 603 4863 
L 1178 4863 
L 1178 4134 
L 603 4134 
L 603 4863 
z
" transform="scale(0.015625)"/>
        <path id="DejaVuSans-75" d="M 544 1381 
L 544 3500 
L 1119 3500 
L 1119 1403 
Q 1119 906 1312 657 
Q 1506 409 1894 409 
Q 2359 409 2629 706 
Q 2900 1003 2900 1516 
L 2900 3500 
L 3475 3500 
L 3475 0 
L 2900 0 
L 2900 538 
Q 2691 219 2414 64 
Q 2138 -91 1772 -91 
Q 1169 -91 856 284 
Q 544 659 544 1381 
z
M 1991 3584 
L 1991 3584 
z
" transform="scale(0.015625)"/>
       </defs>
       <use xlink:href="#DejaVuSans-44"/>
       <use xlink:href="#DejaVuSans-65" transform="translate(77.001953 0)"/>
       <use xlink:href="#DejaVuSans-66" transform="translate(138.525391 0)"/>
       <use xlink:href="#DejaVuSans-65" transform="translate(173.730469 0)"/>
       <use xlink:href="#DejaVuSans-6e" transform="translate(235.253906 0)"/>
       <use xlink:href="#DejaVuSans-73" transform="translate(298.632812 0)"/>
       <use xlink:href="#DejaVuSans-65" transform="translate(350.732422 0)"/>
       <use xlink:href="#DejaVuSans-20" transform="translate(412.255859 0)"/>
       <use xlink:href="#DejaVuSans-52" transform="translate(444.042969 0)"/>
       <use xlink:href="#DejaVuSans-65" transform="translate(509.025391 0)"/>
       <use xlink:href="#DejaVuSans-73" transform="translate(570.548828 0)"/>
       <use xlink:href="#DejaVuSans-70" transform="translate(622.648438 0)"/>
       <use xlink:href="#DejaVuSans-6f" transform="translate(686.125 0)"/>
       <use xlink:href="#DejaVuSans-6e" transform="translate(747.306641 0)"/>
       <use xlink:href="#DejaVuSans-73" transform="translate(810.685547 0)"/>
       <use xlink:href="#DejaVuSans-65" transform="translate(862.785156 0)"/>
       <use xlink:href="#DejaVuSans-20" transform="translate(924.308594 0)"/>
       <use xlink:href="#DejaVuSans-74" transform="translate(956.095703 0)"/>
       <use xlink:href="#DejaVuSans-6f" transform="translate(995.304688 0)"/>
       <use xlink:href="#DejaVuSans-20" transform="translate(1056.486328 0)"/>
       <use xlink:href="#DejaVuSans-56" transform="translate(1088.273438 0)"/>
       <use xlink:href="#DejaVuSans-69" transform="translate(1154.431641 0)"/>
       <use xlink:href="#DejaVuSans-72" transform="translate(1182.214844 0)"/>
       <use xlink:href="#DejaVuSans-75" transform="translate(1223.328125 0)"/>
       <use xlink:href="#DejaVuSans-73" transform="translate(1286.707031 0)"/>
      </g>
     </g>
    </g>
    <g id="ytick_2">
     <g id="line2d_8">
      <g>
       <use xlink:href="#m5a20e60e7a" x="36" y="476.590345" style="stroke: #000000; stroke-width: 0.8"/>
      </g>
     </g>
     <g id="text_9">
      <!-- Response to Endoplasmic Reticulum Stress -->
      <g transform="translate(-186.153125 480.389564) scale(0.1 -0.1)">
       <defs>
        <path id="DejaVuSans-45" d="M 628 4666 
L 3578 4666 
L 3578 4134 
L 1259 4134 
L 1259 2753 
L 3481 2753 
L 3481 2222 
L 1259 2222 
L 1259 531 
L 3634 531 
L 3634 0 
L 628 0 
L 628 4666 
z
" transform="scale(0.015625)"/>
        <path id="DejaVuSans-64" d="M 2906 2969 
L 2906 4863 
L 3481 4863 
L 3481 0 
L 2906 0 
L 2906 525 
Q 2725 213 2448 61 
Q 2172 -91 1784 -91 
Q 1150 -91 751 415 
Q 353 922 353 1747 
Q 353 2572 751 3078 
Q 1150 3584 1784 3584 
Q 2172 3584 2448 3432 
Q 2725 3281 2906 2969 
z
M 947 1747 
Q 947 1113 1208 752 
Q 1469 391 1925 391 
Q 2381 391 2643 752 
Q 2906 1113 2906 1747 
Q 2906 2381 2643 2742 
Q 2381 3103 1925 3103 
Q 1469 3103 1208 2742 
Q 947 2381 947 1747 
z
" transform="scale(0.015625)"/>
        <path id="DejaVuSans-6c" d="M 603 4863 
L 1178 4863 
L 1178 0 
L 603 0 
L 603 4863 
z
" transform="scale(0.015625)"/>
        <path id="DejaVuSans-61" d="M 2194 1759 
Q 1497 1759 1228 1600 
Q 959 1441 959 1056 
Q 959 750 1161 570 
Q 1363 391 1709 391 
Q 2188 391 2477 730 
Q 2766 1069 2766 1631 
L 2766 1759 
L 2194 1759 
z
M 3341 1997 
L 3341 0 
L 2766 0 
L 2766 531 
Q 2569 213 2275 61 
Q 1981 -91 1556 -91 
Q 1019 -91 701 211 
Q 384 513 384 1019 
Q 384 1609 779 1909 
Q 1175 2209 1959 2209 
L 2766 2209 
L 2766 2266 
Q 2766 2663 2505 2880 
Q 2244 3097 1772 3097 
Q 1472 3097 1187 3025 
Q 903 2953 641 2809 
L 641 3341 
Q 956 3463 1253 3523 
Q 1550 3584 1831 3584 
Q 2591 3584 2966 3190 
Q 3341 2797 3341 1997 
z
" transform="scale(0.015625)"/>
        <path id="DejaVuSans-6d" d="M 3328 2828 
Q 3544 3216 3844 3400 
Q 4144 3584 4550 3584 
Q 5097 3584 5394 3201 
Q 5691 2819 5691 2113 
L 5691 0 
L 5113 0 
L 5113 2094 
Q 5113 2597 4934 2840 
Q 4756 3084 4391 3084 
Q 3944 3084 3684 2787 
Q 3425 2491 3425 1978 
L 3425 0 
L 2847 0 
L 2847 2094 
Q 2847 2600 2669 2842 
Q 2491 3084 2119 3084 
Q 1678 3084 1418 2786 
Q 1159 2488 1159 1978 
L 1159 0 
L 581 0 
L 581 3500 
L 1159 3500 
L 1159 2956 
Q 1356 3278 1631 3431 
Q 1906 3584 2284 3584 
Q 2666 3584 2933 3390 
Q 3200 3197 3328 2828 
z
" transform="scale(0.015625)"/>
       </defs>
       <use xlink:href="#DejaVuSans-52"/>
       <use xlink:href="#DejaVuSans-65" transform="translate(64.982422 0)"/>
       <use xlink:href="#DejaVuSans-73" transform="translate(126.505859 0)"/>
       <use xlink:href="#DejaVuSans-70" transform="translate(178.605469 0)"/>
       <use xlink:href="#DejaVuSans-6f" transform="translate(242.082031 0)"/>
       <use xlink:href="#DejaVuSans-6e" transform="translate(303.263672 0)"/>
       <use xlink:href="#DejaVuSans-73" transform="translate(366.642578 0)"/>
       <use xlink:href="#DejaVuSans-65" transform="translate(418.742188 0)"/>
       <use xlink:href="#DejaVuSans-20" transform="translate(480.265625 0)"/>
       <use xlink:href="#DejaVuSans-74" transform="translate(512.052734 0)"/>
       <use xlink:href="#DejaVuSans-6f" transform="translate(551.261719 0)"/>
       <use xlink:href="#DejaVuSans-20" transform="translate(612.443359 0)"/>
       <use xlink:href="#DejaVuSans-45" transform="translate(644.230469 0)"/>
       <use xlink:href="#DejaVuSans-6e" transform="translate(707.414062 0)"/>
       <use xlink:href="#DejaVuSans-64" transform="translate(770.792969 0)"/>
       <use xlink:href="#DejaVuSans-6f" transform="translate(834.269531 0)"/>
       <use xlink:href="#DejaVuSans-70" transform="translate(895.451172 0)"/>
       <use xlink:href="#DejaVuSans-6c" transform="translate(958.927734 0)"/>
       <use xlink:href="#DejaVuSans-61" transform="translate(986.710938 0)"/>
       <use xlink:href="#DejaVuSans-73" transform="translate(1047.990234 0)"/>
       <use xlink:href="#DejaVuSans-6d" transform="translate(1100.089844 0)"/>
       <use xlink:href="#DejaVuSans-69" transform="translate(1197.501953 0)"/>
       <use xlink:href="#DejaVuSans-63" transform="translate(1225.285156 0)"/>
       <use xlink:href="#DejaVuSans-20" transform="translate(1280.265625 0)"/>
       <use xlink:href="#DejaVuSans-52" transform="translate(1312.052734 0)"/>
       <use xlink:href="#DejaVuSans-65" transform="translate(1377.035156 0)"/>
       <use xlink:href="#DejaVuSans-74" transform="translate(1438.558594 0)"/>
       <use xlink:href="#DejaVuSans-69" transform="translate(1477.767578 0)"/>
       <use xlink:href="#DejaVuSans-63" transform="translate(1505.550781 0)"/>
       <use xlink:href="#DejaVuSans-75" transform="translate(1560.53125 0)"/>
       <use xlink:href="#DejaVuSans-6c" transform="translate(1623.910156 0)"/>
       <use xlink:href="#DejaVuSans-75" transform="translate(1651.693359 0)"/>
       <use xlink:href="#DejaVuSans-6d" transform="translate(1715.072266 0)"/>
       <use xlink:href="#DejaVuSans-20" transform="translate(1812.484375 0)"/>
       <use xlink:href="#DejaVuSans-53" transform="translate(1844.271484 0)"/>
       <use xlink:href="#DejaVuSans-74" transform="translate(1907.748047 0)"/>
       <use xlink:href="#DejaVuSans-72" transform="translate(1946.957031 0)"/>
       <use xlink:href="#DejaVuSans-65" transform="translate(1985.820312 0)"/>
       <use xlink:href="#DejaVuSans-73" transform="translate(2047.34375 0)"/>
       <use xlink:href="#DejaVuSans-73" transform="translate(2099.443359 0)"/>
      </g>
     </g>
    </g>
    <g id="ytick_3">
     <g id="line2d_9">
      <g>
       <use xlink:href="#m5a20e60e7a" x="36" y="454.742069" style="stroke: #000000; stroke-width: 0.8"/>
      </g>
     </g>
     <g id="text_10">
      <!-- Cellular Response to Lipopolysaccharide -->
      <g transform="translate(-172.820312 458.541288) scale(0.1 -0.1)">
       <defs>
        <path id="DejaVuSans-43" d="M 4122 4306 
L 4122 3641 
Q 3803 3938 3442 4084 
Q 3081 4231 2675 4231 
Q 1875 4231 1450 3742 
Q 1025 3253 1025 2328 
Q 1025 1406 1450 917 
Q 1875 428 2675 428 
Q 3081 428 3442 575 
Q 3803 722 4122 1019 
L 4122 359 
Q 3791 134 3420 21 
Q 3050 -91 2638 -91 
Q 1578 -91 968 557 
Q 359 1206 359 2328 
Q 359 3453 968 4101 
Q 1578 4750 2638 4750 
Q 3056 4750 3426 4639 
Q 3797 4528 4122 4306 
z
" transform="scale(0.015625)"/>
        <path id="DejaVuSans-4c" d="M 628 4666 
L 1259 4666 
L 1259 531 
L 3531 531 
L 3531 0 
L 628 0 
L 628 4666 
z
" transform="scale(0.015625)"/>
        <path id="DejaVuSans-79" d="M 2059 -325 
Q 1816 -950 1584 -1140 
Q 1353 -1331 966 -1331 
L 506 -1331 
L 506 -850 
L 844 -850 
Q 1081 -850 1212 -737 
Q 1344 -625 1503 -206 
L 1606 56 
L 191 3500 
L 800 3500 
L 1894 763 
L 2988 3500 
L 3597 3500 
L 2059 -325 
z
" transform="scale(0.015625)"/>
        <path id="DejaVuSans-68" d="M 3513 2113 
L 3513 0 
L 2938 0 
L 2938 2094 
Q 2938 2591 2744 2837 
Q 2550 3084 2163 3084 
Q 1697 3084 1428 2787 
Q 1159 2491 1159 1978 
L 1159 0 
L 581 0 
L 581 4863 
L 1159 4863 
L 1159 2956 
Q 1366 3272 1645 3428 
Q 1925 3584 2291 3584 
Q 2894 3584 3203 3211 
Q 3513 2838 3513 2113 
z
" transform="scale(0.015625)"/>
       </defs>
       <use xlink:href="#DejaVuSans-43"/>
       <use xlink:href="#DejaVuSans-65" transform="translate(69.824219 0)"/>
       <use xlink:href="#DejaVuSans-6c" transform="translate(131.347656 0)"/>
       <use xlink:href="#DejaVuSans-6c" transform="translate(159.130859 0)"/>
       <use xlink:href="#DejaVuSans-75" transform="translate(186.914062 0)"/>
       <use xlink:href="#DejaVuSans-6c" transform="translate(250.292969 0)"/>
       <use xlink:href="#DejaVuSans-61" transform="translate(278.076172 0)"/>
       <use xlink:href="#DejaVuSans-72" transform="translate(339.355469 0)"/>
       <use xlink:href="#DejaVuSans-20" transform="translate(380.46875 0)"/>
       <use xlink:href="#DejaVuSans-52" transform="translate(412.255859 0)"/>
       <use xlink:href="#DejaVuSans-65" transform="translate(477.238281 0)"/>
       <use xlink:href="#DejaVuSans-73" transform="translate(538.761719 0)"/>
       <use xlink:href="#DejaVuSans-70" transform="translate(590.861328 0)"/>
       <use xlink:href="#DejaVuSans-6f" transform="translate(654.337891 0)"/>
       <use xlink:href="#DejaVuSans-6e" transform="translate(715.519531 0)"/>
       <use xlink:href="#DejaVuSans-73" transform="translate(778.898438 0)"/>
       <use xlink:href="#DejaVuSans-65" transform="translate(830.998047 0)"/>
       <use xlink:href="#DejaVuSans-20" transform="translate(892.521484 0)"/>
       <use xlink:href="#DejaVuSans-74" transform="translate(924.308594 0)"/>
       <use xlink:href="#DejaVuSans-6f" transform="translate(963.517578 0)"/>
       <use xlink:href="#DejaVuSans-20" transform="translate(1024.699219 0)"/>
       <use xlink:href="#DejaVuSans-4c" transform="translate(1056.486328 0)"/>
       <use xlink:href="#DejaVuSans-69" transform="translate(1112.199219 0)"/>
       <use xlink:href="#DejaVuSans-70" transform="translate(1139.982422 0)"/>
       <use xlink:href="#DejaVuSans-6f" transform="translate(1203.458984 0)"/>
       <use xlink:href="#DejaVuSans-70" transform="translate(1264.640625 0)"/>
       <use xlink:href="#DejaVuSans-6f" transform="translate(1328.117188 0)"/>
       <use xlink:href="#DejaVuSans-6c" transform="translate(1389.298828 0)"/>
       <use xlink:href="#DejaVuSans-79" transform="translate(1417.082031 0)"/>
       <use xlink:href="#DejaVuSans-73" transform="translate(1476.261719 0)"/>
       <use xlink:href="#DejaVuSans-61" transform="translate(1528.361328 0)"/>
       <use xlink:href="#DejaVuSans-63" transform="translate(1589.640625 0)"/>
       <use xlink:href="#DejaVuSans-63" transform="translate(1644.621094 0)"/>
       <use xlink:href="#DejaVuSans-68" transform="translate(1699.601562 0)"/>
       <use xlink:href="#DejaVuSans-61" transform="translate(1762.980469 0)"/>
       <use xlink:href="#DejaVuSans-72" transform="translate(1824.259766 0)"/>
       <use xlink:href="#DejaVuSans-69" transform="translate(1865.373047 0)"/>
       <use xlink:href="#DejaVuSans-64" transform="translate(1893.15625 0)"/>
       <use xlink:href="#DejaVuSans-65" transform="translate(1956.632812 0)"/>
      </g>
     </g>
    </g>
    <g id="ytick_4">
     <g id="line2d_10">
      <g>
       <use xlink:href="#m5a20e60e7a" x="36" y="432.893793" style="stroke: #000000; stroke-width: 0.8"/>
      </g>
     </g>
     <g id="text_11">
      <!-- Antigen Processing and Presentation of Exogenous Peptide Antigen Via MHC Class I, TAP-independent -->
      <g transform="translate(-479.020313 436.693012) scale(0.1 -0.1)">
       <defs>
        <path id="DejaVuSans-41" d="M 2188 4044 
L 1331 1722 
L 3047 1722 
L 2188 4044 
z
M 1831 4666 
L 2547 4666 
L 4325 0 
L 3669 0 
L 3244 1197 
L 1141 1197 
L 716 0 
L 50 0 
L 1831 4666 
z
" transform="scale(0.015625)"/>
        <path id="DejaVuSans-67" d="M 2906 1791 
Q 2906 2416 2648 2759 
Q 2391 3103 1925 3103 
Q 1463 3103 1205 2759 
Q 947 2416 947 1791 
Q 947 1169 1205 825 
Q 1463 481 1925 481 
Q 2391 481 2648 825 
Q 2906 1169 2906 1791 
z
M 3481 434 
Q 3481 -459 3084 -895 
Q 2688 -1331 1869 -1331 
Q 1566 -1331 1297 -1286 
Q 1028 -1241 775 -1147 
L 775 -588 
Q 1028 -725 1275 -790 
Q 1522 -856 1778 -856 
Q 2344 -856 2625 -561 
Q 2906 -266 2906 331 
L 2906 616 
Q 2728 306 2450 153 
Q 2172 0 1784 0 
Q 1141 0 747 490 
Q 353 981 353 1791 
Q 353 2603 747 3093 
Q 1141 3584 1784 3584 
Q 2172 3584 2450 3431 
Q 2728 3278 2906 2969 
L 2906 3500 
L 3481 3500 
L 3481 434 
z
" transform="scale(0.015625)"/>
        <path id="DejaVuSans-50" d="M 1259 4147 
L 1259 2394 
L 2053 2394 
Q 2494 2394 2734 2622 
Q 2975 2850 2975 3272 
Q 2975 3691 2734 3919 
Q 2494 4147 2053 4147 
L 1259 4147 
z
M 628 4666 
L 2053 4666 
Q 2838 4666 3239 4311 
Q 3641 3956 3641 3272 
Q 3641 2581 3239 2228 
Q 2838 1875 2053 1875 
L 1259 1875 
L 1259 0 
L 628 0 
L 628 4666 
z
" transform="scale(0.015625)"/>
        <path id="DejaVuSans-78" d="M 3513 3500 
L 2247 1797 
L 3578 0 
L 2900 0 
L 1881 1375 
L 863 0 
L 184 0 
L 1544 1831 
L 300 3500 
L 978 3500 
L 1906 2253 
L 2834 3500 
L 3513 3500 
z
" transform="scale(0.015625)"/>
        <path id="DejaVuSans-4d" d="M 628 4666 
L 1569 4666 
L 2759 1491 
L 3956 4666 
L 4897 4666 
L 4897 0 
L 4281 0 
L 4281 4097 
L 3078 897 
L 2444 897 
L 1241 4097 
L 1241 0 
L 628 0 
L 628 4666 
z
" transform="scale(0.015625)"/>
        <path id="DejaVuSans-48" d="M 628 4666 
L 1259 4666 
L 1259 2753 
L 3553 2753 
L 3553 4666 
L 4184 4666 
L 4184 0 
L 3553 0 
L 3553 2222 
L 1259 2222 
L 1259 0 
L 628 0 
L 628 4666 
z
" transform="scale(0.015625)"/>
        <path id="DejaVuSans-49" d="M 628 4666 
L 1259 4666 
L 1259 0 
L 628 0 
L 628 4666 
z
" transform="scale(0.015625)"/>
        <path id="DejaVuSans-2c" d="M 750 794 
L 1409 794 
L 1409 256 
L 897 -744 
L 494 -744 
L 750 256 
L 750 794 
z
" transform="scale(0.015625)"/>
        <path id="DejaVuSans-54" d="M -19 4666 
L 3928 4666 
L 3928 4134 
L 2272 4134 
L 2272 0 
L 1638 0 
L 1638 4134 
L -19 4134 
L -19 4666 
z
" transform="scale(0.015625)"/>
        <path id="DejaVuSans-2d" d="M 313 2009 
L 1997 2009 
L 1997 1497 
L 313 1497 
L 313 2009 
z
" transform="scale(0.015625)"/>
       </defs>
       <use xlink:href="#DejaVuSans-41"/>
       <use xlink:href="#DejaVuSans-6e" transform="translate(68.408203 0)"/>
       <use xlink:href="#DejaVuSans-74" transform="translate(131.787109 0)"/>
       <use xlink:href="#DejaVuSans-69" transform="translate(170.996094 0)"/>
       <use xlink:href="#DejaVuSans-67" transform="translate(198.779297 0)"/>
       <use xlink:href="#DejaVuSans-65" transform="translate(262.255859 0)"/>
       <use xlink:href="#DejaVuSans-6e" transform="translate(323.779297 0)"/>
       <use xlink:href="#DejaVuSans-20" transform="translate(387.158203 0)"/>
       <use xlink:href="#DejaVuSans-50" transform="translate(418.945312 0)"/>
       <use xlink:href="#DejaVuSans-72" transform="translate(477.498047 0)"/>
       <use xlink:href="#DejaVuSans-6f" transform="translate(516.361328 0)"/>
       <use xlink:href="#DejaVuSans-63" transform="translate(577.542969 0)"/>
       <use xlink:href="#DejaVuSans-65" transform="translate(632.523438 0)"/>
       <use xlink:href="#DejaVuSans-73" transform="translate(694.046875 0)"/>
       <use xlink:href="#DejaVuSans-73" transform="translate(746.146484 0)"/>
       <use xlink:href="#DejaVuSans-69" transform="translate(798.246094 0)"/>
       <use xlink:href="#DejaVuSans-6e" transform="translate(826.029297 0)"/>
       <use xlink:href="#DejaVuSans-67" transform="translate(889.408203 0)"/>
       <use xlink:href="#DejaVuSans-20" transform="translate(952.884766 0)"/>
       <use xlink:href="#DejaVuSans-61" transform="translate(984.671875 0)"/>
       <use xlink:href="#DejaVuSans-6e" transform="translate(1045.951172 0)"/>
       <use xlink:href="#DejaVuSans-64" transform="translate(1109.330078 0)"/>
       <use xlink:href="#DejaVuSans-20" transform="translate(1172.806641 0)"/>
       <use xlink:href="#DejaVuSans-50" transform="translate(1204.59375 0)"/>
       <use xlink:href="#DejaVuSans-72" transform="translate(1263.146484 0)"/>
       <use xlink:href="#DejaVuSans-65" transform="translate(1302.009766 0)"/>
       <use xlink:href="#DejaVuSans-73" transform="translate(1363.533203 0)"/>
       <use xlink:href="#DejaVuSans-65" transform="translate(1415.632812 0)"/>
       <use xlink:href="#DejaVuSans-6e" transform="translate(1477.15625 0)"/>
       <use xlink:href="#DejaVuSans-74" transform="translate(1540.535156 0)"/>
       <use xlink:href="#DejaVuSans-61" transform="translate(1579.744141 0)"/>
       <use xlink:href="#DejaVuSans-74" transform="translate(1641.023438 0)"/>
       <use xlink:href="#DejaVuSans-69" transform="translate(1680.232422 0)"/>
       <use xlink:href="#DejaVuSans-6f" transform="translate(1708.015625 0)"/>
       <use xlink:href="#DejaVuSans-6e" transform="translate(1769.197266 0)"/>
       <use xlink:href="#DejaVuSans-20" transform="translate(1832.576172 0)"/>
       <use xlink:href="#DejaVuSans-6f" transform="translate(1864.363281 0)"/>
       <use xlink:href="#DejaVuSans-66" transform="translate(1925.544922 0)"/>
       <use xlink:href="#DejaVuSans-20" transform="translate(1960.75 0)"/>
       <use xlink:href="#DejaVuSans-45" transform="translate(1992.537109 0)"/>
       <use xlink:href="#DejaVuSans-78" transform="translate(2055.720703 0)"/>
       <use xlink:href="#DejaVuSans-6f" transform="translate(2111.775391 0)"/>
       <use xlink:href="#DejaVuSans-67" transform="translate(2172.957031 0)"/>
       <use xlink:href="#DejaVuSans-65" transform="translate(2236.433594 0)"/>
       <use xlink:href="#DejaVuSans-6e" transform="translate(2297.957031 0)"/>
       <use xlink:href="#DejaVuSans-6f" transform="translate(2361.335938 0)"/>
       <use xlink:href="#DejaVuSans-75" transform="translate(2422.517578 0)"/>
       <use xlink:href="#DejaVuSans-73" transform="translate(2485.896484 0)"/>
       <use xlink:href="#DejaVuSans-20" transform="translate(2537.996094 0)"/>
       <use xlink:href="#DejaVuSans-50" transform="translate(2569.783203 0)"/>
       <use xlink:href="#DejaVuSans-65" transform="translate(2626.460938 0)"/>
       <use xlink:href="#DejaVuSans-70" transform="translate(2687.984375 0)"/>
       <use xlink:href="#DejaVuSans-74" transform="translate(2751.460938 0)"/>
       <use xlink:href="#DejaVuSans-69" transform="translate(2790.669922 0)"/>
       <use xlink:href="#DejaVuSans-64" transform="translate(2818.453125 0)"/>
       <use xlink:href="#DejaVuSans-65" transform="translate(2881.929688 0)"/>
       <use xlink:href="#DejaVuSans-20" transform="translate(2943.453125 0)"/>
       <use xlink:href="#DejaVuSans-41" transform="translate(2975.240234 0)"/>
       <use xlink:href="#DejaVuSans-6e" transform="translate(3043.648438 0)"/>
       <use xlink:href="#DejaVuSans-74" transform="translate(3107.027344 0)"/>
       <use xlink:href="#DejaVuSans-69" transform="translate(3146.236328 0)"/>
       <use xlink:href="#DejaVuSans-67" transform="translate(3174.019531 0)"/>
       <use xlink:href="#DejaVuSans-65" transform="translate(3237.496094 0)"/>
       <use xlink:href="#DejaVuSans-6e" transform="translate(3299.019531 0)"/>
       <use xlink:href="#DejaVuSans-20" transform="translate(3362.398438 0)"/>
       <use xlink:href="#DejaVuSans-56" transform="translate(3394.185547 0)"/>
       <use xlink:href="#DejaVuSans-69" transform="translate(3460.34375 0)"/>
       <use xlink:href="#DejaVuSans-61" transform="translate(3488.126953 0)"/>
       <use xlink:href="#DejaVuSans-20" transform="translate(3549.40625 0)"/>
       <use xlink:href="#DejaVuSans-4d" transform="translate(3581.193359 0)"/>
       <use xlink:href="#DejaVuSans-48" transform="translate(3667.472656 0)"/>
       <use xlink:href="#DejaVuSans-43" transform="translate(3742.667969 0)"/>
       <use xlink:href="#DejaVuSans-20" transform="translate(3812.492188 0)"/>
       <use xlink:href="#DejaVuSans-43" transform="translate(3844.279297 0)"/>
       <use xlink:href="#DejaVuSans-6c" transform="translate(3914.103516 0)"/>
       <use xlink:href="#DejaVuSans-61" transform="translate(3941.886719 0)"/>
       <use xlink:href="#DejaVuSans-73" transform="translate(4003.166016 0)"/>
       <use xlink:href="#DejaVuSans-73" transform="translate(4055.265625 0)"/>
       <use xlink:href="#DejaVuSans-20" transform="translate(4107.365234 0)"/>
       <use xlink:href="#DejaVuSans-49" transform="translate(4139.152344 0)"/>
       <use xlink:href="#DejaVuSans-2c" transform="translate(4168.644531 0)"/>
       <use xlink:href="#DejaVuSans-20" transform="translate(4200.431641 0)"/>
       <use xlink:href="#DejaVuSans-54" transform="translate(4232.21875 0)"/>
       <use xlink:href="#DejaVuSans-41" transform="translate(4285.552734 0)"/>
       <use xlink:href="#DejaVuSans-50" transform="translate(4353.960938 0)"/>
       <use xlink:href="#DejaVuSans-2d" transform="translate(4412.013672 0)"/>
       <use xlink:href="#DejaVuSans-69" transform="translate(4448.097656 0)"/>
       <use xlink:href="#DejaVuSans-6e" transform="translate(4475.880859 0)"/>
       <use xlink:href="#DejaVuSans-64" transform="translate(4539.259766 0)"/>
       <use xlink:href="#DejaVuSans-65" transform="translate(4602.736328 0)"/>
       <use xlink:href="#DejaVuSans-70" transform="translate(4664.259766 0)"/>
       <use xlink:href="#DejaVuSans-65" transform="translate(4727.736328 0)"/>
       <use xlink:href="#DejaVuSans-6e" transform="translate(4789.259766 0)"/>
       <use xlink:href="#DejaVuSans-64" transform="translate(4852.638672 0)"/>
       <use xlink:href="#DejaVuSans-65" transform="translate(4916.115234 0)"/>
       <use xlink:href="#DejaVuSans-6e" transform="translate(4977.638672 0)"/>
       <use xlink:href="#DejaVuSans-74" transform="translate(5041.017578 0)"/>
      </g>
     </g>
    </g>
    <g id="ytick_5">
     <g id="line2d_11">
      <g>
       <use xlink:href="#m5a20e60e7a" x="36" y="411.045517" style="stroke: #000000; stroke-width: 0.8"/>
      </g>
     </g>
     <g id="text_12">
      <!-- Positive Regulation of Inflammatory Response -->
      <g transform="translate(-200.714063 414.844736) scale(0.1 -0.1)">
       <defs>
        <path id="DejaVuSans-76" d="M 191 3500 
L 800 3500 
L 1894 563 
L 2988 3500 
L 3597 3500 
L 2284 0 
L 1503 0 
L 191 3500 
z
" transform="scale(0.015625)"/>
       </defs>
       <use xlink:href="#DejaVuSans-50"/>
       <use xlink:href="#DejaVuSans-6f" transform="translate(56.677734 0)"/>
       <use xlink:href="#DejaVuSans-73" transform="translate(117.859375 0)"/>
       <use xlink:href="#DejaVuSans-69" transform="translate(169.958984 0)"/>
       <use xlink:href="#DejaVuSans-74" transform="translate(197.742188 0)"/>
       <use xlink:href="#DejaVuSans-69" transform="translate(236.951172 0)"/>
       <use xlink:href="#DejaVuSans-76" transform="translate(264.734375 0)"/>
       <use xlink:href="#DejaVuSans-65" transform="translate(323.914062 0)"/>
       <use xlink:href="#DejaVuSans-20" transform="translate(385.4375 0)"/>
       <use xlink:href="#DejaVuSans-52" transform="translate(417.224609 0)"/>
       <use xlink:href="#DejaVuSans-65" transform="translate(482.207031 0)"/>
       <use xlink:href="#DejaVuSans-67" transform="translate(543.730469 0)"/>
       <use xlink:href="#DejaVuSans-75" transform="translate(607.207031 0)"/>
       <use xlink:href="#DejaVuSans-6c" transform="translate(670.585938 0)"/>
       <use xlink:href="#DejaVuSans-61" transform="translate(698.369141 0)"/>
       <use xlink:href="#DejaVuSans-74" transform="translate(759.648438 0)"/>
       <use xlink:href="#DejaVuSans-69" transform="translate(798.857422 0)"/>
       <use xlink:href="#DejaVuSans-6f" transform="translate(826.640625 0)"/>
       <use xlink:href="#DejaVuSans-6e" transform="translate(887.822266 0)"/>
       <use xlink:href="#DejaVuSans-20" transform="translate(951.201172 0)"/>
       <use xlink:href="#DejaVuSans-6f" transform="translate(982.988281 0)"/>
       <use xlink:href="#DejaVuSans-66" transform="translate(1044.169922 0)"/>
       <use xlink:href="#DejaVuSans-20" transform="translate(1079.375 0)"/>
       <use xlink:href="#DejaVuSans-49" transform="translate(1111.162109 0)"/>
       <use xlink:href="#DejaVuSans-6e" transform="translate(1140.654297 0)"/>
       <use xlink:href="#DejaVuSans-66" transform="translate(1204.033203 0)"/>
       <use xlink:href="#DejaVuSans-6c" transform="translate(1239.238281 0)"/>
       <use xlink:href="#DejaVuSans-61" transform="translate(1267.021484 0)"/>
       <use xlink:href="#DejaVuSans-6d" transform="translate(1328.300781 0)"/>
       <use xlink:href="#DejaVuSans-6d" transform="translate(1425.712891 0)"/>
       <use xlink:href="#DejaVuSans-61" transform="translate(1523.125 0)"/>
       <use xlink:href="#DejaVuSans-74" transform="translate(1584.404297 0)"/>
       <use xlink:href="#DejaVuSans-6f" transform="translate(1623.613281 0)"/>
       <use xlink:href="#DejaVuSans-72" transform="translate(1684.794922 0)"/>
       <use xlink:href="#DejaVuSans-79" transform="translate(1725.908203 0)"/>
       <use xlink:href="#DejaVuSans-20" transform="translate(1785.087891 0)"/>
       <use xlink:href="#DejaVuSans-52" transform="translate(1816.875 0)"/>
       <use xlink:href="#DejaVuSans-65" transform="translate(1881.857422 0)"/>
       <use xlink:href="#DejaVuSans-73" transform="translate(1943.380859 0)"/>
       <use xlink:href="#DejaVuSans-70" transform="translate(1995.480469 0)"/>
       <use xlink:href="#DejaVuSans-6f" transform="translate(2058.957031 0)"/>
       <use xlink:href="#DejaVuSans-6e" transform="translate(2120.138672 0)"/>
       <use xlink:href="#DejaVuSans-73" transform="translate(2183.517578 0)"/>
       <use xlink:href="#DejaVuSans-65" transform="translate(2235.617188 0)"/>
      </g>
     </g>
    </g>
    <g id="ytick_6">
     <g id="line2d_12">
      <g>
       <use xlink:href="#m5a20e60e7a" x="36" y="389.197241" style="stroke: #000000; stroke-width: 0.8"/>
      </g>
     </g>
     <g id="text_13">
      <!-- Antigen Processing and Presentation of Peptide Antigen Via MHC Class I -->
      <g transform="translate(-330.135938 392.99646) scale(0.1 -0.1)">
       <use xlink:href="#DejaVuSans-41"/>
       <use xlink:href="#DejaVuSans-6e" transform="translate(68.408203 0)"/>
       <use xlink:href="#DejaVuSans-74" transform="translate(131.787109 0)"/>
       <use xlink:href="#DejaVuSans-69" transform="translate(170.996094 0)"/>
       <use xlink:href="#DejaVuSans-67" transform="translate(198.779297 0)"/>
       <use xlink:href="#DejaVuSans-65" transform="translate(262.255859 0)"/>
       <use xlink:href="#DejaVuSans-6e" transform="translate(323.779297 0)"/>
       <use xlink:href="#DejaVuSans-20" transform="translate(387.158203 0)"/>
       <use xlink:href="#DejaVuSans-50" transform="translate(418.945312 0)"/>
       <use xlink:href="#DejaVuSans-72" transform="translate(477.498047 0)"/>
       <use xlink:href="#DejaVuSans-6f" transform="translate(516.361328 0)"/>
       <use xlink:href="#DejaVuSans-63" transform="translate(577.542969 0)"/>
       <use xlink:href="#DejaVuSans-65" transform="translate(632.523438 0)"/>
       <use xlink:href="#DejaVuSans-73" transform="translate(694.046875 0)"/>
       <use xlink:href="#DejaVuSans-73" transform="translate(746.146484 0)"/>
       <use xlink:href="#DejaVuSans-69" transform="translate(798.246094 0)"/>
       <use xlink:href="#DejaVuSans-6e" transform="translate(826.029297 0)"/>
       <use xlink:href="#DejaVuSans-67" transform="translate(889.408203 0)"/>
       <use xlink:href="#DejaVuSans-20" transform="translate(952.884766 0)"/>
       <use xlink:href="#DejaVuSans-61" transform="translate(984.671875 0)"/>
       <use xlink:href="#DejaVuSans-6e" transform="translate(1045.951172 0)"/>
       <use xlink:href="#DejaVuSans-64" transform="translate(1109.330078 0)"/>
       <use xlink:href="#DejaVuSans-20" transform="translate(1172.806641 0)"/>
       <use xlink:href="#DejaVuSans-50" transform="translate(1204.59375 0)"/>
       <use xlink:href="#DejaVuSans-72" transform="translate(1263.146484 0)"/>
       <use xlink:href="#DejaVuSans-65" transform="translate(1302.009766 0)"/>
       <use xlink:href="#DejaVuSans-73" transform="translate(1363.533203 0)"/>
       <use xlink:href="#DejaVuSans-65" transform="translate(1415.632812 0)"/>
       <use xlink:href="#DejaVuSans-6e" transform="translate(1477.15625 0)"/>
       <use xlink:href="#DejaVuSans-74" transform="translate(1540.535156 0)"/>
       <use xlink:href="#DejaVuSans-61" transform="translate(1579.744141 0)"/>
       <use xlink:href="#DejaVuSans-74" transform="translate(1641.023438 0)"/>
       <use xlink:href="#DejaVuSans-69" transform="translate(1680.232422 0)"/>
       <use xlink:href="#DejaVuSans-6f" transform="translate(1708.015625 0)"/>
       <use xlink:href="#DejaVuSans-6e" transform="translate(1769.197266 0)"/>
       <use xlink:href="#DejaVuSans-20" transform="translate(1832.576172 0)"/>
       <use xlink:href="#DejaVuSans-6f" transform="translate(1864.363281 0)"/>
       <use xlink:href="#DejaVuSans-66" transform="translate(1925.544922 0)"/>
       <use xlink:href="#DejaVuSans-20" transform="translate(1960.75 0)"/>
       <use xlink:href="#DejaVuSans-50" transform="translate(1992.537109 0)"/>
       <use xlink:href="#DejaVuSans-65" transform="translate(2049.214844 0)"/>
       <use xlink:href="#DejaVuSans-70" transform="translate(2110.738281 0)"/>
       <use xlink:href="#DejaVuSans-74" transform="translate(2174.214844 0)"/>
       <use xlink:href="#DejaVuSans-69" transform="translate(2213.423828 0)"/>
       <use xlink:href="#DejaVuSans-64" transform="translate(2241.207031 0)"/>
       <use xlink:href="#DejaVuSans-65" transform="translate(2304.683594 0)"/>
       <use xlink:href="#DejaVuSans-20" transform="translate(2366.207031 0)"/>
       <use xlink:href="#DejaVuSans-41" transform="translate(2397.994141 0)"/>
       <use xlink:href="#DejaVuSans-6e" transform="translate(2466.402344 0)"/>
       <use xlink:href="#DejaVuSans-74" transform="translate(2529.78125 0)"/>
       <use xlink:href="#DejaVuSans-69" transform="translate(2568.990234 0)"/>
       <use xlink:href="#DejaVuSans-67" transform="translate(2596.773438 0)"/>
       <use xlink:href="#DejaVuSans-65" transform="translate(2660.25 0)"/>
       <use xlink:href="#DejaVuSans-6e" transform="translate(2721.773438 0)"/>
       <use xlink:href="#DejaVuSans-20" transform="translate(2785.152344 0)"/>
       <use xlink:href="#DejaVuSans-56" transform="translate(2816.939453 0)"/>
       <use xlink:href="#DejaVuSans-69" transform="translate(2883.097656 0)"/>
       <use xlink:href="#DejaVuSans-61" transform="translate(2910.880859 0)"/>
       <use xlink:href="#DejaVuSans-20" transform="translate(2972.160156 0)"/>
       <use xlink:href="#DejaVuSans-4d" transform="translate(3003.947266 0)"/>
       <use xlink:href="#DejaVuSans-48" transform="translate(3090.226562 0)"/>
       <use xlink:href="#DejaVuSans-43" transform="translate(3165.421875 0)"/>
       <use xlink:href="#DejaVuSans-20" transform="translate(3235.246094 0)"/>
       <use xlink:href="#DejaVuSans-43" transform="translate(3267.033203 0)"/>
       <use xlink:href="#DejaVuSans-6c" transform="translate(3336.857422 0)"/>
       <use xlink:href="#DejaVuSans-61" transform="translate(3364.640625 0)"/>
       <use xlink:href="#DejaVuSans-73" transform="translate(3425.919922 0)"/>
       <use xlink:href="#DejaVuSans-73" transform="translate(3478.019531 0)"/>
       <use xlink:href="#DejaVuSans-20" transform="translate(3530.119141 0)"/>
       <use xlink:href="#DejaVuSans-49" transform="translate(3561.90625 0)"/>
      </g>
     </g>
    </g>
    <g id="ytick_7">
     <g id="line2d_13">
      <g>
       <use xlink:href="#m5a20e60e7a" x="36" y="367.348966" style="stroke: #000000; stroke-width: 0.8"/>
      </g>
     </g>
     <g id="text_14">
      <!-- Cell Surface Receptor Signaling Pathway -->
      <g transform="translate(-173.676563 371.148184) scale(0.1 -0.1)">
       <defs>
        <path id="DejaVuSans-77" d="M 269 3500 
L 844 3500 
L 1563 769 
L 2278 3500 
L 2956 3500 
L 3675 769 
L 4391 3500 
L 4966 3500 
L 4050 0 
L 3372 0 
L 2619 2869 
L 1863 0 
L 1184 0 
L 269 3500 
z
" transform="scale(0.015625)"/>
       </defs>
       <use xlink:href="#DejaVuSans-43"/>
       <use xlink:href="#DejaVuSans-65" transform="translate(69.824219 0)"/>
       <use xlink:href="#DejaVuSans-6c" transform="translate(131.347656 0)"/>
       <use xlink:href="#DejaVuSans-6c" transform="translate(159.130859 0)"/>
       <use xlink:href="#DejaVuSans-20" transform="translate(186.914062 0)"/>
       <use xlink:href="#DejaVuSans-53" transform="translate(218.701172 0)"/>
       <use xlink:href="#DejaVuSans-75" transform="translate(282.177734 0)"/>
       <use xlink:href="#DejaVuSans-72" transform="translate(345.556641 0)"/>
       <use xlink:href="#DejaVuSans-66" transform="translate(386.669922 0)"/>
       <use xlink:href="#DejaVuSans-61" transform="translate(421.875 0)"/>
       <use xlink:href="#DejaVuSans-63" transform="translate(483.154297 0)"/>
       <use xlink:href="#DejaVuSans-65" transform="translate(538.134766 0)"/>
       <use xlink:href="#DejaVuSans-20" transform="translate(599.658203 0)"/>
       <use xlink:href="#DejaVuSans-52" transform="translate(631.445312 0)"/>
       <use xlink:href="#DejaVuSans-65" transform="translate(696.427734 0)"/>
       <use xlink:href="#DejaVuSans-63" transform="translate(757.951172 0)"/>
       <use xlink:href="#DejaVuSans-65" transform="translate(812.931641 0)"/>
       <use xlink:href="#DejaVuSans-70" transform="translate(874.455078 0)"/>
       <use xlink:href="#DejaVuSans-74" transform="translate(937.931641 0)"/>
       <use xlink:href="#DejaVuSans-6f" transform="translate(977.140625 0)"/>
       <use xlink:href="#DejaVuSans-72" transform="translate(1038.322266 0)"/>
       <use xlink:href="#DejaVuSans-20" transform="translate(1079.435547 0)"/>
       <use xlink:href="#DejaVuSans-53" transform="translate(1111.222656 0)"/>
       <use xlink:href="#DejaVuSans-69" transform="translate(1174.699219 0)"/>
       <use xlink:href="#DejaVuSans-67" transform="translate(1202.482422 0)"/>
       <use xlink:href="#DejaVuSans-6e" transform="translate(1265.958984 0)"/>
       <use xlink:href="#DejaVuSans-61" transform="translate(1329.337891 0)"/>
       <use xlink:href="#DejaVuSans-6c" transform="translate(1390.617188 0)"/>
       <use xlink:href="#DejaVuSans-69" transform="translate(1418.400391 0)"/>
       <use xlink:href="#DejaVuSans-6e" transform="translate(1446.183594 0)"/>
       <use xlink:href="#DejaVuSans-67" transform="translate(1509.5625 0)"/>
       <use xlink:href="#DejaVuSans-20" transform="translate(1573.039062 0)"/>
       <use xlink:href="#DejaVuSans-50" transform="translate(1604.826172 0)"/>
       <use xlink:href="#DejaVuSans-61" transform="translate(1660.628906 0)"/>
       <use xlink:href="#DejaVuSans-74" transform="translate(1721.908203 0)"/>
       <use xlink:href="#DejaVuSans-68" transform="translate(1761.117188 0)"/>
       <use xlink:href="#DejaVuSans-77" transform="translate(1824.496094 0)"/>
       <use xlink:href="#DejaVuSans-61" transform="translate(1906.283203 0)"/>
       <use xlink:href="#DejaVuSans-79" transform="translate(1967.5625 0)"/>
      </g>
     </g>
    </g>
    <g id="ytick_8">
     <g id="line2d_14">
      <g>
       <use xlink:href="#m5a20e60e7a" x="36" y="345.50069" style="stroke: #000000; stroke-width: 0.8"/>
      </g>
     </g>
     <g id="text_15">
      <!-- Regulation of Immune Response -->
      <g transform="translate(-132.859375 349.299908) scale(0.1 -0.1)">
       <use xlink:href="#DejaVuSans-52"/>
       <use xlink:href="#DejaVuSans-65" transform="translate(64.982422 0)"/>
       <use xlink:href="#DejaVuSans-67" transform="translate(126.505859 0)"/>
       <use xlink:href="#DejaVuSans-75" transform="translate(189.982422 0)"/>
       <use xlink:href="#DejaVuSans-6c" transform="translate(253.361328 0)"/>
       <use xlink:href="#DejaVuSans-61" transform="translate(281.144531 0)"/>
       <use xlink:href="#DejaVuSans-74" transform="translate(342.423828 0)"/>
       <use xlink:href="#DejaVuSans-69" transform="translate(381.632812 0)"/>
       <use xlink:href="#DejaVuSans-6f" transform="translate(409.416016 0)"/>
       <use xlink:href="#DejaVuSans-6e" transform="translate(470.597656 0)"/>
       <use xlink:href="#DejaVuSans-20" transform="translate(533.976562 0)"/>
       <use xlink:href="#DejaVuSans-6f" transform="translate(565.763672 0)"/>
       <use xlink:href="#DejaVuSans-66" transform="translate(626.945312 0)"/>
       <use xlink:href="#DejaVuSans-20" transform="translate(662.150391 0)"/>
       <use xlink:href="#DejaVuSans-49" transform="translate(693.9375 0)"/>
       <use xlink:href="#DejaVuSans-6d" transform="translate(723.429688 0)"/>
       <use xlink:href="#DejaVuSans-6d" transform="translate(820.841797 0)"/>
       <use xlink:href="#DejaVuSans-75" transform="translate(918.253906 0)"/>
       <use xlink:href="#DejaVuSans-6e" transform="translate(981.632812 0)"/>
       <use xlink:href="#DejaVuSans-65" transform="translate(1045.011719 0)"/>
       <use xlink:href="#DejaVuSans-20" transform="translate(1106.535156 0)"/>
       <use xlink:href="#DejaVuSans-52" transform="translate(1138.322266 0)"/>
       <use xlink:href="#DejaVuSans-65" transform="translate(1203.304688 0)"/>
       <use xlink:href="#DejaVuSans-73" transform="translate(1264.828125 0)"/>
       <use xlink:href="#DejaVuSans-70" transform="translate(1316.927734 0)"/>
       <use xlink:href="#DejaVuSans-6f" transform="translate(1380.404297 0)"/>
       <use xlink:href="#DejaVuSans-6e" transform="translate(1441.585938 0)"/>
       <use xlink:href="#DejaVuSans-73" transform="translate(1504.964844 0)"/>
       <use xlink:href="#DejaVuSans-65" transform="translate(1557.064453 0)"/>
      </g>
     </g>
    </g>
    <g id="ytick_9">
     <g id="line2d_15">
      <g>
       <use xlink:href="#m5a20e60e7a" x="36" y="323.652414" style="stroke: #000000; stroke-width: 0.8"/>
      </g>
     </g>
     <g id="text_16">
      <!-- Leukocyte Migration -->
      <g transform="translate(-72.251563 327.451633) scale(0.1 -0.1)">
       <defs>
        <path id="DejaVuSans-6b" d="M 581 4863 
L 1159 4863 
L 1159 1991 
L 2875 3500 
L 3609 3500 
L 1753 1863 
L 3688 0 
L 2938 0 
L 1159 1709 
L 1159 0 
L 581 0 
L 581 4863 
z
" transform="scale(0.015625)"/>
       </defs>
       <use xlink:href="#DejaVuSans-4c"/>
       <use xlink:href="#DejaVuSans-65" transform="translate(53.962891 0)"/>
       <use xlink:href="#DejaVuSans-75" transform="translate(115.486328 0)"/>
       <use xlink:href="#DejaVuSans-6b" transform="translate(178.865234 0)"/>
       <use xlink:href="#DejaVuSans-6f" transform="translate(233.150391 0)"/>
       <use xlink:href="#DejaVuSans-63" transform="translate(294.332031 0)"/>
       <use xlink:href="#DejaVuSans-79" transform="translate(349.3125 0)"/>
       <use xlink:href="#DejaVuSans-74" transform="translate(408.492188 0)"/>
       <use xlink:href="#DejaVuSans-65" transform="translate(447.701172 0)"/>
       <use xlink:href="#DejaVuSans-20" transform="translate(509.224609 0)"/>
       <use xlink:href="#DejaVuSans-4d" transform="translate(541.011719 0)"/>
       <use xlink:href="#DejaVuSans-69" transform="translate(627.291016 0)"/>
       <use xlink:href="#DejaVuSans-67" transform="translate(655.074219 0)"/>
       <use xlink:href="#DejaVuSans-72" transform="translate(718.550781 0)"/>
       <use xlink:href="#DejaVuSans-61" transform="translate(759.664062 0)"/>
       <use xlink:href="#DejaVuSans-74" transform="translate(820.943359 0)"/>
       <use xlink:href="#DejaVuSans-69" transform="translate(860.152344 0)"/>
       <use xlink:href="#DejaVuSans-6f" transform="translate(887.935547 0)"/>
       <use xlink:href="#DejaVuSans-6e" transform="translate(949.117188 0)"/>
      </g>
     </g>
    </g>
    <g id="ytick_10">
     <g id="line2d_16">
      <g>
       <use xlink:href="#m5a20e60e7a" x="36" y="301.804138" style="stroke: #000000; stroke-width: 0.8"/>
      </g>
     </g>
     <g id="text_17">
      <!-- Apoptotic Process -->
      <g transform="translate(-60 305.603357) scale(0.1 -0.1)">
       <use xlink:href="#DejaVuSans-41"/>
       <use xlink:href="#DejaVuSans-70" transform="translate(68.408203 0)"/>
       <use xlink:href="#DejaVuSans-6f" transform="translate(131.884766 0)"/>
       <use xlink:href="#DejaVuSans-70" transform="translate(193.066406 0)"/>
       <use xlink:href="#DejaVuSans-74" transform="translate(256.542969 0)"/>
       <use xlink:href="#DejaVuSans-6f" transform="translate(295.751953 0)"/>
       <use xlink:href="#DejaVuSans-74" transform="translate(356.933594 0)"/>
       <use xlink:href="#DejaVuSans-69" transform="translate(396.142578 0)"/>
       <use xlink:href="#DejaVuSans-63" transform="translate(423.925781 0)"/>
       <use xlink:href="#DejaVuSans-20" transform="translate(478.90625 0)"/>
       <use xlink:href="#DejaVuSans-50" transform="translate(510.693359 0)"/>
       <use xlink:href="#DejaVuSans-72" transform="translate(569.246094 0)"/>
       <use xlink:href="#DejaVuSans-6f" transform="translate(608.109375 0)"/>
       <use xlink:href="#DejaVuSans-63" transform="translate(669.291016 0)"/>
       <use xlink:href="#DejaVuSans-65" transform="translate(724.271484 0)"/>
       <use xlink:href="#DejaVuSans-73" transform="translate(785.794922 0)"/>
       <use xlink:href="#DejaVuSans-73" transform="translate(837.894531 0)"/>
      </g>
     </g>
    </g>
    <g id="ytick_11">
     <g id="line2d_17">
      <g>
       <use xlink:href="#m5a20e60e7a" x="36" y="279.955862" style="stroke: #000000; stroke-width: 0.8"/>
      </g>
     </g>
     <g id="text_18">
      <!-- Type I Interferon Signaling Pathway -->
      <g transform="translate(-147.489063 283.755081) scale(0.1 -0.1)">
       <use xlink:href="#DejaVuSans-54"/>
       <use xlink:href="#DejaVuSans-79" transform="translate(45.458984 0)"/>
       <use xlink:href="#DejaVuSans-70" transform="translate(104.638672 0)"/>
       <use xlink:href="#DejaVuSans-65" transform="translate(168.115234 0)"/>
       <use xlink:href="#DejaVuSans-20" transform="translate(229.638672 0)"/>
       <use xlink:href="#DejaVuSans-49" transform="translate(261.425781 0)"/>
       <use xlink:href="#DejaVuSans-20" transform="translate(290.917969 0)"/>
       <use xlink:href="#DejaVuSans-49" transform="translate(322.705078 0)"/>
       <use xlink:href="#DejaVuSans-6e" transform="translate(352.197266 0)"/>
       <use xlink:href="#DejaVuSans-74" transform="translate(415.576172 0)"/>
       <use xlink:href="#DejaVuSans-65" transform="translate(454.785156 0)"/>
       <use xlink:href="#DejaVuSans-72" transform="translate(516.308594 0)"/>
       <use xlink:href="#DejaVuSans-66" transform="translate(557.421875 0)"/>
       <use xlink:href="#DejaVuSans-65" transform="translate(592.626953 0)"/>
       <use xlink:href="#DejaVuSans-72" transform="translate(654.150391 0)"/>
       <use xlink:href="#DejaVuSans-6f" transform="translate(693.013672 0)"/>
       <use xlink:href="#DejaVuSans-6e" transform="translate(754.195312 0)"/>
       <use xlink:href="#DejaVuSans-20" transform="translate(817.574219 0)"/>
       <use xlink:href="#DejaVuSans-53" transform="translate(849.361328 0)"/>
       <use xlink:href="#DejaVuSans-69" transform="translate(912.837891 0)"/>
       <use xlink:href="#DejaVuSans-67" transform="translate(940.621094 0)"/>
       <use xlink:href="#DejaVuSans-6e" transform="translate(1004.097656 0)"/>
       <use xlink:href="#DejaVuSans-61" transform="translate(1067.476562 0)"/>
       <use xlink:href="#DejaVuSans-6c" transform="translate(1128.755859 0)"/>
       <use xlink:href="#DejaVuSans-69" transform="translate(1156.539062 0)"/>
       <use xlink:href="#DejaVuSans-6e" transform="translate(1184.322266 0)"/>
       <use xlink:href="#DejaVuSans-67" transform="translate(1247.701172 0)"/>
       <use xlink:href="#DejaVuSans-20" transform="translate(1311.177734 0)"/>
       <use xlink:href="#DejaVuSans-50" transform="translate(1342.964844 0)"/>
       <use xlink:href="#DejaVuSans-61" transform="translate(1398.767578 0)"/>
       <use xlink:href="#DejaVuSans-74" transform="translate(1460.046875 0)"/>
       <use xlink:href="#DejaVuSans-68" transform="translate(1499.255859 0)"/>
       <use xlink:href="#DejaVuSans-77" transform="translate(1562.634766 0)"/>
       <use xlink:href="#DejaVuSans-61" transform="translate(1644.421875 0)"/>
       <use xlink:href="#DejaVuSans-79" transform="translate(1705.701172 0)"/>
      </g>
     </g>
    </g>
    <g id="ytick_12">
     <g id="line2d_18">
      <g>
       <use xlink:href="#m5a20e60e7a" x="36" y="258.107586" style="stroke: #000000; stroke-width: 0.8"/>
      </g>
     </g>
     <g id="text_19">
      <!-- Innate Immune Response -->
      <g transform="translate(-98.470313 261.906805) scale(0.1 -0.1)">
       <use xlink:href="#DejaVuSans-49"/>
       <use xlink:href="#DejaVuSans-6e" transform="translate(29.492188 0)"/>
       <use xlink:href="#DejaVuSans-6e" transform="translate(92.871094 0)"/>
       <use xlink:href="#DejaVuSans-61" transform="translate(156.25 0)"/>
       <use xlink:href="#DejaVuSans-74" transform="translate(217.529297 0)"/>
       <use xlink:href="#DejaVuSans-65" transform="translate(256.738281 0)"/>
       <use xlink:href="#DejaVuSans-20" transform="translate(318.261719 0)"/>
       <use xlink:href="#DejaVuSans-49" transform="translate(350.048828 0)"/>
       <use xlink:href="#DejaVuSans-6d" transform="translate(379.541016 0)"/>
       <use xlink:href="#DejaVuSans-6d" transform="translate(476.953125 0)"/>
       <use xlink:href="#DejaVuSans-75" transform="translate(574.365234 0)"/>
       <use xlink:href="#DejaVuSans-6e" transform="translate(637.744141 0)"/>
       <use xlink:href="#DejaVuSans-65" transform="translate(701.123047 0)"/>
       <use xlink:href="#DejaVuSans-20" transform="translate(762.646484 0)"/>
       <use xlink:href="#DejaVuSans-52" transform="translate(794.433594 0)"/>
       <use xlink:href="#DejaVuSans-65" transform="translate(859.416016 0)"/>
       <use xlink:href="#DejaVuSans-73" transform="translate(920.939453 0)"/>
       <use xlink:href="#DejaVuSans-70" transform="translate(973.039062 0)"/>
       <use xlink:href="#DejaVuSans-6f" transform="translate(1036.515625 0)"/>
       <use xlink:href="#DejaVuSans-6e" transform="translate(1097.697266 0)"/>
       <use xlink:href="#DejaVuSans-73" transform="translate(1161.076172 0)"/>
       <use xlink:href="#DejaVuSans-65" transform="translate(1213.175781 0)"/>
      </g>
     </g>
    </g>
    <g id="ytick_13">
     <g id="line2d_19">
      <g>
       <use xlink:href="#m5a20e60e7a" x="36" y="236.25931" style="stroke: #000000; stroke-width: 0.8"/>
      </g>
     </g>
     <g id="text_20">
      <!-- Neutrophil Chemotaxis -->
      <g transform="translate(-85.604688 240.058529) scale(0.1 -0.1)">
       <defs>
        <path id="DejaVuSans-4e" d="M 628 4666 
L 1478 4666 
L 3547 763 
L 3547 4666 
L 4159 4666 
L 4159 0 
L 3309 0 
L 1241 3903 
L 1241 0 
L 628 0 
L 628 4666 
z
" transform="scale(0.015625)"/>
       </defs>
       <use xlink:href="#DejaVuSans-4e"/>
       <use xlink:href="#DejaVuSans-65" transform="translate(74.804688 0)"/>
       <use xlink:href="#DejaVuSans-75" transform="translate(136.328125 0)"/>
       <use xlink:href="#DejaVuSans-74" transform="translate(199.707031 0)"/>
       <use xlink:href="#DejaVuSans-72" transform="translate(238.916016 0)"/>
       <use xlink:href="#DejaVuSans-6f" transform="translate(277.779297 0)"/>
       <use xlink:href="#DejaVuSans-70" transform="translate(338.960938 0)"/>
       <use xlink:href="#DejaVuSans-68" transform="translate(402.4375 0)"/>
       <use xlink:href="#DejaVuSans-69" transform="translate(465.816406 0)"/>
       <use xlink:href="#DejaVuSans-6c" transform="translate(493.599609 0)"/>
       <use xlink:href="#DejaVuSans-20" transform="translate(521.382812 0)"/>
       <use xlink:href="#DejaVuSans-43" transform="translate(553.169922 0)"/>
       <use xlink:href="#DejaVuSans-68" transform="translate(622.994141 0)"/>
       <use xlink:href="#DejaVuSans-65" transform="translate(686.373047 0)"/>
       <use xlink:href="#DejaVuSans-6d" transform="translate(747.896484 0)"/>
       <use xlink:href="#DejaVuSans-6f" transform="translate(845.308594 0)"/>
       <use xlink:href="#DejaVuSans-74" transform="translate(906.490234 0)"/>
       <use xlink:href="#DejaVuSans-61" transform="translate(945.699219 0)"/>
       <use xlink:href="#DejaVuSans-78" transform="translate(1006.978516 0)"/>
       <use xlink:href="#DejaVuSans-69" transform="translate(1066.158203 0)"/>
       <use xlink:href="#DejaVuSans-73" transform="translate(1093.941406 0)"/>
      </g>
     </g>
    </g>
    <g id="ytick_14">
     <g id="line2d_20">
      <g>
       <use xlink:href="#m5a20e60e7a" x="36" y="214.411034" style="stroke: #000000; stroke-width: 0.8"/>
      </g>
     </g>
     <g id="text_21">
      <!-- Chemotaxis -->
      <g transform="translate(-30.2875 218.210253) scale(0.1 -0.1)">
       <use xlink:href="#DejaVuSans-43"/>
       <use xlink:href="#DejaVuSans-68" transform="translate(69.824219 0)"/>
       <use xlink:href="#DejaVuSans-65" transform="translate(133.203125 0)"/>
       <use xlink:href="#DejaVuSans-6d" transform="translate(194.726562 0)"/>
       <use xlink:href="#DejaVuSans-6f" transform="translate(292.138672 0)"/>
       <use xlink:href="#DejaVuSans-74" transform="translate(353.320312 0)"/>
       <use xlink:href="#DejaVuSans-61" transform="translate(392.529297 0)"/>
       <use xlink:href="#DejaVuSans-78" transform="translate(453.808594 0)"/>
       <use xlink:href="#DejaVuSans-69" transform="translate(512.988281 0)"/>
       <use xlink:href="#DejaVuSans-73" transform="translate(540.771484 0)"/>
      </g>
     </g>
    </g>
    <g id="ytick_15">
     <g id="line2d_21">
      <g>
       <use xlink:href="#m5a20e60e7a" x="36" y="192.562759" style="stroke: #000000; stroke-width: 0.8"/>
      </g>
     </g>
     <g id="text_22">
      <!-- Immune System Process -->
      <g transform="translate(-93.835938 196.361977) scale(0.1 -0.1)">
       <use xlink:href="#DejaVuSans-49"/>
       <use xlink:href="#DejaVuSans-6d" transform="translate(29.492188 0)"/>
       <use xlink:href="#DejaVuSans-6d" transform="translate(126.904297 0)"/>
       <use xlink:href="#DejaVuSans-75" transform="translate(224.316406 0)"/>
       <use xlink:href="#DejaVuSans-6e" transform="translate(287.695312 0)"/>
       <use xlink:href="#DejaVuSans-65" transform="translate(351.074219 0)"/>
       <use xlink:href="#DejaVuSans-20" transform="translate(412.597656 0)"/>
       <use xlink:href="#DejaVuSans-53" transform="translate(444.384766 0)"/>
       <use xlink:href="#DejaVuSans-79" transform="translate(507.861328 0)"/>
       <use xlink:href="#DejaVuSans-73" transform="translate(567.041016 0)"/>
       <use xlink:href="#DejaVuSans-74" transform="translate(619.140625 0)"/>
       <use xlink:href="#DejaVuSans-65" transform="translate(658.349609 0)"/>
       <use xlink:href="#DejaVuSans-6d" transform="translate(719.873047 0)"/>
       <use xlink:href="#DejaVuSans-20" transform="translate(817.285156 0)"/>
       <use xlink:href="#DejaVuSans-50" transform="translate(849.072266 0)"/>
       <use xlink:href="#DejaVuSans-72" transform="translate(907.625 0)"/>
       <use xlink:href="#DejaVuSans-6f" transform="translate(946.488281 0)"/>
       <use xlink:href="#DejaVuSans-63" transform="translate(1007.669922 0)"/>
       <use xlink:href="#DejaVuSans-65" transform="translate(1062.650391 0)"/>
       <use xlink:href="#DejaVuSans-73" transform="translate(1124.173828 0)"/>
       <use xlink:href="#DejaVuSans-73" transform="translate(1176.273438 0)"/>
      </g>
     </g>
    </g>
    <g id="ytick_16">
     <g id="line2d_22">
      <g>
       <use xlink:href="#m5a20e60e7a" x="36" y="170.714483" style="stroke: #000000; stroke-width: 0.8"/>
      </g>
     </g>
     <g id="text_23">
      <!-- Response to Lipopolysaccharide -->
      <g transform="translate(-131.595313 174.513702) scale(0.1 -0.1)">
       <use xlink:href="#DejaVuSans-52"/>
       <use xlink:href="#DejaVuSans-65" transform="translate(64.982422 0)"/>
       <use xlink:href="#DejaVuSans-73" transform="translate(126.505859 0)"/>
       <use xlink:href="#DejaVuSans-70" transform="translate(178.605469 0)"/>
       <use xlink:href="#DejaVuSans-6f" transform="translate(242.082031 0)"/>
       <use xlink:href="#DejaVuSans-6e" transform="translate(303.263672 0)"/>
       <use xlink:href="#DejaVuSans-73" transform="translate(366.642578 0)"/>
       <use xlink:href="#DejaVuSans-65" transform="translate(418.742188 0)"/>
       <use xlink:href="#DejaVuSans-20" transform="translate(480.265625 0)"/>
       <use xlink:href="#DejaVuSans-74" transform="translate(512.052734 0)"/>
       <use xlink:href="#DejaVuSans-6f" transform="translate(551.261719 0)"/>
       <use xlink:href="#DejaVuSans-20" transform="translate(612.443359 0)"/>
       <use xlink:href="#DejaVuSans-4c" transform="translate(644.230469 0)"/>
       <use xlink:href="#DejaVuSans-69" transform="translate(699.943359 0)"/>
       <use xlink:href="#DejaVuSans-70" transform="translate(727.726562 0)"/>
       <use xlink:href="#DejaVuSans-6f" transform="translate(791.203125 0)"/>
       <use xlink:href="#DejaVuSans-70" transform="translate(852.384766 0)"/>
       <use xlink:href="#DejaVuSans-6f" transform="translate(915.861328 0)"/>
       <use xlink:href="#DejaVuSans-6c" transform="translate(977.042969 0)"/>
       <use xlink:href="#DejaVuSans-79" transform="translate(1004.826172 0)"/>
       <use xlink:href="#DejaVuSans-73" transform="translate(1064.005859 0)"/>
       <use xlink:href="#DejaVuSans-61" transform="translate(1116.105469 0)"/>
       <use xlink:href="#DejaVuSans-63" transform="translate(1177.384766 0)"/>
       <use xlink:href="#DejaVuSans-63" transform="translate(1232.365234 0)"/>
       <use xlink:href="#DejaVuSans-68" transform="translate(1287.345703 0)"/>
       <use xlink:href="#DejaVuSans-61" transform="translate(1350.724609 0)"/>
       <use xlink:href="#DejaVuSans-72" transform="translate(1412.003906 0)"/>
       <use xlink:href="#DejaVuSans-69" transform="translate(1453.117188 0)"/>
       <use xlink:href="#DejaVuSans-64" transform="translate(1480.900391 0)"/>
       <use xlink:href="#DejaVuSans-65" transform="translate(1544.376953 0)"/>
      </g>
     </g>
    </g>
    <g id="ytick_17">
     <g id="line2d_23">
      <g>
       <use xlink:href="#m5a20e60e7a" x="36" y="148.866207" style="stroke: #000000; stroke-width: 0.8"/>
      </g>
     </g>
     <g id="text_24">
      <!-- Cytokine-mediated Signaling Pathway -->
      <g transform="translate(-160.907813 152.665426) scale(0.1 -0.1)">
       <use xlink:href="#DejaVuSans-43"/>
       <use xlink:href="#DejaVuSans-79" transform="translate(69.824219 0)"/>
       <use xlink:href="#DejaVuSans-74" transform="translate(129.003906 0)"/>
       <use xlink:href="#DejaVuSans-6f" transform="translate(168.212891 0)"/>
       <use xlink:href="#DejaVuSans-6b" transform="translate(229.394531 0)"/>
       <use xlink:href="#DejaVuSans-69" transform="translate(287.304688 0)"/>
       <use xlink:href="#DejaVuSans-6e" transform="translate(315.087891 0)"/>
       <use xlink:href="#DejaVuSans-65" transform="translate(378.466797 0)"/>
       <use xlink:href="#DejaVuSans-2d" transform="translate(439.990234 0)"/>
       <use xlink:href="#DejaVuSans-6d" transform="translate(476.074219 0)"/>
       <use xlink:href="#DejaVuSans-65" transform="translate(573.486328 0)"/>
       <use xlink:href="#DejaVuSans-64" transform="translate(635.009766 0)"/>
       <use xlink:href="#DejaVuSans-69" transform="translate(698.486328 0)"/>
       <use xlink:href="#DejaVuSans-61" transform="translate(726.269531 0)"/>
       <use xlink:href="#DejaVuSans-74" transform="translate(787.548828 0)"/>
       <use xlink:href="#DejaVuSans-65" transform="translate(826.757812 0)"/>
       <use xlink:href="#DejaVuSans-64" transform="translate(888.28125 0)"/>
       <use xlink:href="#DejaVuSans-20" transform="translate(951.757812 0)"/>
       <use xlink:href="#DejaVuSans-53" transform="translate(983.544922 0)"/>
       <use xlink:href="#DejaVuSans-69" transform="translate(1047.021484 0)"/>
       <use xlink:href="#DejaVuSans-67" transform="translate(1074.804688 0)"/>
       <use xlink:href="#DejaVuSans-6e" transform="translate(1138.28125 0)"/>
       <use xlink:href="#DejaVuSans-61" transform="translate(1201.660156 0)"/>
       <use xlink:href="#DejaVuSans-6c" transform="translate(1262.939453 0)"/>
       <use xlink:href="#DejaVuSans-69" transform="translate(1290.722656 0)"/>
       <use xlink:href="#DejaVuSans-6e" transform="translate(1318.505859 0)"/>
       <use xlink:href="#DejaVuSans-67" transform="translate(1381.884766 0)"/>
       <use xlink:href="#DejaVuSans-20" transform="translate(1445.361328 0)"/>
       <use xlink:href="#DejaVuSans-50" transform="translate(1477.148438 0)"/>
       <use xlink:href="#DejaVuSans-61" transform="translate(1532.951172 0)"/>
       <use xlink:href="#DejaVuSans-74" transform="translate(1594.230469 0)"/>
       <use xlink:href="#DejaVuSans-68" transform="translate(1633.439453 0)"/>
       <use xlink:href="#DejaVuSans-77" transform="translate(1696.818359 0)"/>
       <use xlink:href="#DejaVuSans-61" transform="translate(1778.605469 0)"/>
       <use xlink:href="#DejaVuSans-79" transform="translate(1839.884766 0)"/>
      </g>
     </g>
    </g>
    <g id="ytick_18">
     <g id="line2d_24">
      <g>
       <use xlink:href="#m5a20e60e7a" x="36" y="127.017931" style="stroke: #000000; stroke-width: 0.8"/>
      </g>
     </g>
     <g id="text_25">
      <!-- Immune Response -->
      <g transform="translate(-63.465625 130.81715) scale(0.1 -0.1)">
       <use xlink:href="#DejaVuSans-49"/>
       <use xlink:href="#DejaVuSans-6d" transform="translate(29.492188 0)"/>
       <use xlink:href="#DejaVuSans-6d" transform="translate(126.904297 0)"/>
       <use xlink:href="#DejaVuSans-75" transform="translate(224.316406 0)"/>
       <use xlink:href="#DejaVuSans-6e" transform="translate(287.695312 0)"/>
       <use xlink:href="#DejaVuSans-65" transform="translate(351.074219 0)"/>
       <use xlink:href="#DejaVuSans-20" transform="translate(412.597656 0)"/>
       <use xlink:href="#DejaVuSans-52" transform="translate(444.384766 0)"/>
       <use xlink:href="#DejaVuSans-65" transform="translate(509.367188 0)"/>
       <use xlink:href="#DejaVuSans-73" transform="translate(570.890625 0)"/>
       <use xlink:href="#DejaVuSans-70" transform="translate(622.990234 0)"/>
       <use xlink:href="#DejaVuSans-6f" transform="translate(686.466797 0)"/>
       <use xlink:href="#DejaVuSans-6e" transform="translate(747.648438 0)"/>
       <use xlink:href="#DejaVuSans-73" transform="translate(811.027344 0)"/>
       <use xlink:href="#DejaVuSans-65" transform="translate(863.126953 0)"/>
      </g>
     </g>
    </g>
    <g id="ytick_19">
     <g id="line2d_25">
      <g>
       <use xlink:href="#m5a20e60e7a" x="36" y="105.169655" style="stroke: #000000; stroke-width: 0.8"/>
      </g>
     </g>
     <g id="text_26">
      <!-- Inflammatory Response -->
      <g transform="translate(-89.598438 108.968874) scale(0.1 -0.1)">
       <use xlink:href="#DejaVuSans-49"/>
       <use xlink:href="#DejaVuSans-6e" transform="translate(29.492188 0)"/>
       <use xlink:href="#DejaVuSans-66" transform="translate(92.871094 0)"/>
       <use xlink:href="#DejaVuSans-6c" transform="translate(128.076172 0)"/>
       <use xlink:href="#DejaVuSans-61" transform="translate(155.859375 0)"/>
       <use xlink:href="#DejaVuSans-6d" transform="translate(217.138672 0)"/>
       <use xlink:href="#DejaVuSans-6d" transform="translate(314.550781 0)"/>
       <use xlink:href="#DejaVuSans-61" transform="translate(411.962891 0)"/>
       <use xlink:href="#DejaVuSans-74" transform="translate(473.242188 0)"/>
       <use xlink:href="#DejaVuSans-6f" transform="translate(512.451172 0)"/>
       <use xlink:href="#DejaVuSans-72" transform="translate(573.632812 0)"/>
       <use xlink:href="#DejaVuSans-79" transform="translate(614.746094 0)"/>
       <use xlink:href="#DejaVuSans-20" transform="translate(673.925781 0)"/>
       <use xlink:href="#DejaVuSans-52" transform="translate(705.712891 0)"/>
       <use xlink:href="#DejaVuSans-65" transform="translate(770.695312 0)"/>
       <use xlink:href="#DejaVuSans-73" transform="translate(832.21875 0)"/>
       <use xlink:href="#DejaVuSans-70" transform="translate(884.318359 0)"/>
       <use xlink:href="#DejaVuSans-6f" transform="translate(947.794922 0)"/>
       <use xlink:href="#DejaVuSans-6e" transform="translate(1008.976562 0)"/>
       <use xlink:href="#DejaVuSans-73" transform="translate(1072.355469 0)"/>
       <use xlink:href="#DejaVuSans-65" transform="translate(1124.455078 0)"/>
      </g>
     </g>
    </g>
    <g id="ytick_20">
     <g id="line2d_26">
      <g>
       <use xlink:href="#m5a20e60e7a" x="36" y="83.321379" style="stroke: #000000; stroke-width: 0.8"/>
      </g>
     </g>
     <g id="text_27">
      <!-- Neutrophil Degranulation -->
      <g transform="translate(-97.49375 87.120598) scale(0.1 -0.1)">
       <use xlink:href="#DejaVuSans-4e"/>
       <use xlink:href="#DejaVuSans-65" transform="translate(74.804688 0)"/>
       <use xlink:href="#DejaVuSans-75" transform="translate(136.328125 0)"/>
       <use xlink:href="#DejaVuSans-74" transform="translate(199.707031 0)"/>
       <use xlink:href="#DejaVuSans-72" transform="translate(238.916016 0)"/>
       <use xlink:href="#DejaVuSans-6f" transform="translate(277.779297 0)"/>
       <use xlink:href="#DejaVuSans-70" transform="translate(338.960938 0)"/>
       <use xlink:href="#DejaVuSans-68" transform="translate(402.4375 0)"/>
       <use xlink:href="#DejaVuSans-69" transform="translate(465.816406 0)"/>
       <use xlink:href="#DejaVuSans-6c" transform="translate(493.599609 0)"/>
       <use xlink:href="#DejaVuSans-20" transform="translate(521.382812 0)"/>
       <use xlink:href="#DejaVuSans-44" transform="translate(553.169922 0)"/>
       <use xlink:href="#DejaVuSans-65" transform="translate(630.171875 0)"/>
       <use xlink:href="#DejaVuSans-67" transform="translate(691.695312 0)"/>
       <use xlink:href="#DejaVuSans-72" transform="translate(755.171875 0)"/>
       <use xlink:href="#DejaVuSans-61" transform="translate(796.285156 0)"/>
       <use xlink:href="#DejaVuSans-6e" transform="translate(857.564453 0)"/>
       <use xlink:href="#DejaVuSans-75" transform="translate(920.943359 0)"/>
       <use xlink:href="#DejaVuSans-6c" transform="translate(984.322266 0)"/>
       <use xlink:href="#DejaVuSans-61" transform="translate(1012.105469 0)"/>
       <use xlink:href="#DejaVuSans-74" transform="translate(1073.384766 0)"/>
       <use xlink:href="#DejaVuSans-69" transform="translate(1112.59375 0)"/>
       <use xlink:href="#DejaVuSans-6f" transform="translate(1140.376953 0)"/>
       <use xlink:href="#DejaVuSans-6e" transform="translate(1201.558594 0)"/>
      </g>
     </g>
    </g>
   </g>
   <g id="patch_23">
    <path d="M 36 512.64 
L 36 69.12 
" style="fill: none; stroke: #000000; stroke-width: 0.8; stroke-linejoin: miter; stroke-linecap: square"/>
   </g>
   <g id="patch_24">
    <path d="M 36 512.64 
L 259.2 512.64 
" style="fill: none; stroke: #000000; stroke-width: 0.8; stroke-linejoin: miter; stroke-linecap: square"/>
   </g>
   <g id="text_28">
    <!-- 11/185 -->
    <g transform="translate(77.174403 501.197996) scale(0.1 -0.1)">
     <defs>
      <path id="DejaVuSans-2f" d="M 1625 4666 
L 2156 4666 
L 531 -594 
L 0 -594 
L 1625 4666 
z
" transform="scale(0.015625)"/>
      <path id="DejaVuSans-35" d="M 691 4666 
L 3169 4666 
L 3169 4134 
L 1269 4134 
L 1269 2991 
Q 1406 3038 1543 3061 
Q 1681 3084 1819 3084 
Q 2600 3084 3056 2656 
Q 3513 2228 3513 1497 
Q 3513 744 3044 326 
Q 2575 -91 1722 -91 
Q 1428 -91 1123 -41 
Q 819 9 494 109 
L 494 744 
Q 775 591 1075 516 
Q 1375 441 1709 441 
Q 2250 441 2565 725 
Q 2881 1009 2881 1497 
Q 2881 1984 2565 2268 
Q 2250 2553 1709 2553 
Q 1456 2553 1204 2497 
Q 953 2441 691 2322 
L 691 4666 
z
" transform="scale(0.015625)"/>
     </defs>
     <use xlink:href="#DejaVuSans-31"/>
     <use xlink:href="#DejaVuSans-31" transform="translate(63.623047 0)"/>
     <use xlink:href="#DejaVuSans-2f" transform="translate(127.246094 0)"/>
     <use xlink:href="#DejaVuSans-31" transform="translate(160.9375 0)"/>
     <use xlink:href="#DejaVuSans-38" transform="translate(224.560547 0)"/>
     <use xlink:href="#DejaVuSans-35" transform="translate(288.183594 0)"/>
    </g>
   </g>
   <g id="text_29">
    <!-- 8/83 -->
    <g transform="translate(78.615279 479.34972) scale(0.1 -0.1)">
     <defs>
      <path id="DejaVuSans-33" d="M 2597 2516 
Q 3050 2419 3304 2112 
Q 3559 1806 3559 1356 
Q 3559 666 3084 287 
Q 2609 -91 1734 -91 
Q 1441 -91 1130 -33 
Q 819 25 488 141 
L 488 750 
Q 750 597 1062 519 
Q 1375 441 1716 441 
Q 2309 441 2620 675 
Q 2931 909 2931 1356 
Q 2931 1769 2642 2001 
Q 2353 2234 1838 2234 
L 1294 2234 
L 1294 2753 
L 1863 2753 
Q 2328 2753 2575 2939 
Q 2822 3125 2822 3475 
Q 2822 3834 2567 4026 
Q 2313 4219 1838 4219 
Q 1578 4219 1281 4162 
Q 984 4106 628 3988 
L 628 4550 
Q 988 4650 1302 4700 
Q 1616 4750 1894 4750 
Q 2613 4750 3031 4423 
Q 3450 4097 3450 3541 
Q 3450 3153 3228 2886 
Q 3006 2619 2597 2516 
z
" transform="scale(0.015625)"/>
     </defs>
     <use xlink:href="#DejaVuSans-38"/>
     <use xlink:href="#DejaVuSans-2f" transform="translate(63.623047 0)"/>
     <use xlink:href="#DejaVuSans-38" transform="translate(97.314453 0)"/>
     <use xlink:href="#DejaVuSans-33" transform="translate(160.9375 0)"/>
    </g>
   </g>
   <g id="text_30">
    <!-- 10/140 -->
    <g transform="translate(79.087652 457.501444) scale(0.1 -0.1)">
     <use xlink:href="#DejaVuSans-31"/>
     <use xlink:href="#DejaVuSans-30" transform="translate(63.623047 0)"/>
     <use xlink:href="#DejaVuSans-2f" transform="translate(127.246094 0)"/>
     <use xlink:href="#DejaVuSans-31" transform="translate(160.9375 0)"/>
     <use xlink:href="#DejaVuSans-34" transform="translate(224.560547 0)"/>
     <use xlink:href="#DejaVuSans-30" transform="translate(288.183594 0)"/>
    </g>
   </g>
   <g id="text_31">
    <!-- 4/9 -->
    <g transform="translate(79.113954 435.653168) scale(0.1 -0.1)">
     <defs>
      <path id="DejaVuSans-39" d="M 703 97 
L 703 672 
Q 941 559 1184 500 
Q 1428 441 1663 441 
Q 2288 441 2617 861 
Q 2947 1281 2994 2138 
Q 2813 1869 2534 1725 
Q 2256 1581 1919 1581 
Q 1219 1581 811 2004 
Q 403 2428 403 3163 
Q 403 3881 828 4315 
Q 1253 4750 1959 4750 
Q 2769 4750 3195 4129 
Q 3622 3509 3622 2328 
Q 3622 1225 3098 567 
Q 2575 -91 1691 -91 
Q 1453 -91 1209 -44 
Q 966 3 703 97 
z
M 1959 2075 
Q 2384 2075 2632 2365 
Q 2881 2656 2881 3163 
Q 2881 3666 2632 3958 
Q 2384 4250 1959 4250 
Q 1534 4250 1286 3958 
Q 1038 3666 1038 3163 
Q 1038 2656 1286 2365 
Q 1534 2075 1959 2075 
z
" transform="scale(0.015625)"/>
     </defs>
     <use xlink:href="#DejaVuSans-34"/>
     <use xlink:href="#DejaVuSans-2f" transform="translate(63.623047 0)"/>
     <use xlink:href="#DejaVuSans-39" transform="translate(97.314453 0)"/>
    </g>
   </g>
   <g id="text_32">
    <!-- 8/78 -->
    <g transform="translate(80.071247 413.804892) scale(0.1 -0.1)">
     <defs>
      <path id="DejaVuSans-37" d="M 525 4666 
L 3525 4666 
L 3525 4397 
L 1831 0 
L 1172 0 
L 2766 4134 
L 525 4134 
L 525 4666 
z
" transform="scale(0.015625)"/>
     </defs>
     <use xlink:href="#DejaVuSans-38"/>
     <use xlink:href="#DejaVuSans-2f" transform="translate(63.623047 0)"/>
     <use xlink:href="#DejaVuSans-37" transform="translate(97.314453 0)"/>
     <use xlink:href="#DejaVuSans-38" transform="translate(160.9375 0)"/>
    </g>
   </g>
   <g id="text_33">
    <!-- 6/29 -->
    <g transform="translate(83.334049 391.956616) scale(0.1 -0.1)">
     <use xlink:href="#DejaVuSans-36"/>
     <use xlink:href="#DejaVuSans-2f" transform="translate(63.623047 0)"/>
     <use xlink:href="#DejaVuSans-32" transform="translate(97.314453 0)"/>
     <use xlink:href="#DejaVuSans-39" transform="translate(160.9375 0)"/>
    </g>
   </g>
   <g id="text_34">
    <!-- 15/288 -->
    <g transform="translate(84.509744 370.108341) scale(0.1 -0.1)">
     <use xlink:href="#DejaVuSans-31"/>
     <use xlink:href="#DejaVuSans-35" transform="translate(63.623047 0)"/>
     <use xlink:href="#DejaVuSans-2f" transform="translate(127.246094 0)"/>
     <use xlink:href="#DejaVuSans-32" transform="translate(160.9375 0)"/>
     <use xlink:href="#DejaVuSans-38" transform="translate(224.560547 0)"/>
     <use xlink:href="#DejaVuSans-38" transform="translate(288.183594 0)"/>
    </g>
   </g>
   <g id="text_35">
    <!-- 14/217 -->
    <g transform="translate(89.806869 348.260065) scale(0.1 -0.1)">
     <use xlink:href="#DejaVuSans-31"/>
     <use xlink:href="#DejaVuSans-34" transform="translate(63.623047 0)"/>
     <use xlink:href="#DejaVuSans-2f" transform="translate(127.246094 0)"/>
     <use xlink:href="#DejaVuSans-32" transform="translate(160.9375 0)"/>
     <use xlink:href="#DejaVuSans-31" transform="translate(224.560547 0)"/>
     <use xlink:href="#DejaVuSans-37" transform="translate(288.183594 0)"/>
    </g>
   </g>
   <g id="text_36">
    <!-- 14/214 -->
    <g transform="translate(90.345456 326.411789) scale(0.1 -0.1)">
     <use xlink:href="#DejaVuSans-31"/>
     <use xlink:href="#DejaVuSans-34" transform="translate(63.623047 0)"/>
     <use xlink:href="#DejaVuSans-2f" transform="translate(127.246094 0)"/>
     <use xlink:href="#DejaVuSans-32" transform="translate(160.9375 0)"/>
     <use xlink:href="#DejaVuSans-31" transform="translate(224.560547 0)"/>
     <use xlink:href="#DejaVuSans-34" transform="translate(288.183594 0)"/>
    </g>
   </g>
   <g id="text_37">
    <!-- 26/696 -->
    <g transform="translate(93.84045 304.563513) scale(0.1 -0.1)">
     <use xlink:href="#DejaVuSans-32"/>
     <use xlink:href="#DejaVuSans-36" transform="translate(63.623047 0)"/>
     <use xlink:href="#DejaVuSans-2f" transform="translate(127.246094 0)"/>
     <use xlink:href="#DejaVuSans-36" transform="translate(160.9375 0)"/>
     <use xlink:href="#DejaVuSans-39" transform="translate(224.560547 0)"/>
     <use xlink:href="#DejaVuSans-36" transform="translate(288.183594 0)"/>
    </g>
   </g>
   <g id="text_38">
    <!-- 10/66 -->
    <g transform="translate(101.129721 282.715237) scale(0.1 -0.1)">
     <use xlink:href="#DejaVuSans-31"/>
     <use xlink:href="#DejaVuSans-30" transform="translate(63.623047 0)"/>
     <use xlink:href="#DejaVuSans-2f" transform="translate(127.246094 0)"/>
     <use xlink:href="#DejaVuSans-36" transform="translate(160.9375 0)"/>
     <use xlink:href="#DejaVuSans-36" transform="translate(224.560547 0)"/>
    </g>
   </g>
   <g id="text_39">
    <!-- 25/551 -->
    <g transform="translate(103.977025 260.866961) scale(0.1 -0.1)">
     <use xlink:href="#DejaVuSans-32"/>
     <use xlink:href="#DejaVuSans-35" transform="translate(63.623047 0)"/>
     <use xlink:href="#DejaVuSans-2f" transform="translate(127.246094 0)"/>
     <use xlink:href="#DejaVuSans-35" transform="translate(160.9375 0)"/>
     <use xlink:href="#DejaVuSans-35" transform="translate(224.560547 0)"/>
     <use xlink:href="#DejaVuSans-31" transform="translate(288.183594 0)"/>
    </g>
   </g>
   <g id="text_40">
    <!-- 11/67 -->
    <g transform="translate(109.671441 239.018685) scale(0.1 -0.1)">
     <use xlink:href="#DejaVuSans-31"/>
     <use xlink:href="#DejaVuSans-31" transform="translate(63.623047 0)"/>
     <use xlink:href="#DejaVuSans-2f" transform="translate(127.246094 0)"/>
     <use xlink:href="#DejaVuSans-36" transform="translate(160.9375 0)"/>
     <use xlink:href="#DejaVuSans-37" transform="translate(224.560547 0)"/>
    </g>
   </g>
   <g id="text_41">
    <!-- 16/166 -->
    <g transform="translate(114.849367 217.170409) scale(0.1 -0.1)">
     <use xlink:href="#DejaVuSans-31"/>
     <use xlink:href="#DejaVuSans-36" transform="translate(63.623047 0)"/>
     <use xlink:href="#DejaVuSans-2f" transform="translate(127.246094 0)"/>
     <use xlink:href="#DejaVuSans-31" transform="translate(160.9375 0)"/>
     <use xlink:href="#DejaVuSans-36" transform="translate(224.560547 0)"/>
     <use xlink:href="#DejaVuSans-36" transform="translate(288.183594 0)"/>
    </g>
   </g>
   <g id="text_42">
    <!-- 28/561 -->
    <g transform="translate(118.535793 195.322134) scale(0.1 -0.1)">
     <use xlink:href="#DejaVuSans-32"/>
     <use xlink:href="#DejaVuSans-38" transform="translate(63.623047 0)"/>
     <use xlink:href="#DejaVuSans-2f" transform="translate(127.246094 0)"/>
     <use xlink:href="#DejaVuSans-35" transform="translate(160.9375 0)"/>
     <use xlink:href="#DejaVuSans-36" transform="translate(224.560547 0)"/>
     <use xlink:href="#DejaVuSans-31" transform="translate(288.183594 0)"/>
    </g>
   </g>
   <g id="text_43">
    <!-- 21/196 -->
    <g transform="translate(144.19941 173.473858) scale(0.1 -0.1)">
     <use xlink:href="#DejaVuSans-32"/>
     <use xlink:href="#DejaVuSans-31" transform="translate(63.623047 0)"/>
     <use xlink:href="#DejaVuSans-2f" transform="translate(127.246094 0)"/>
     <use xlink:href="#DejaVuSans-31" transform="translate(160.9375 0)"/>
     <use xlink:href="#DejaVuSans-39" transform="translate(224.560547 0)"/>
     <use xlink:href="#DejaVuSans-36" transform="translate(288.183594 0)"/>
    </g>
   </g>
   <g id="text_44">
    <!-- 26/321 -->
    <g transform="translate(147.6 151.625582) scale(0.1 -0.1)">
     <use xlink:href="#DejaVuSans-32"/>
     <use xlink:href="#DejaVuSans-36" transform="translate(63.623047 0)"/>
     <use xlink:href="#DejaVuSans-2f" transform="translate(127.246094 0)"/>
     <use xlink:href="#DejaVuSans-33" transform="translate(160.9375 0)"/>
     <use xlink:href="#DejaVuSans-32" transform="translate(224.560547 0)"/>
     <use xlink:href="#DejaVuSans-31" transform="translate(288.183594 0)"/>
    </g>
   </g>
   <g id="text_45">
    <!-- 36/502 -->
    <g transform="translate(177.05204 129.777306) scale(0.1 -0.1)">
     <use xlink:href="#DejaVuSans-33"/>
     <use xlink:href="#DejaVuSans-36" transform="translate(63.623047 0)"/>
     <use xlink:href="#DejaVuSans-2f" transform="translate(127.246094 0)"/>
     <use xlink:href="#DejaVuSans-35" transform="translate(160.9375 0)"/>
     <use xlink:href="#DejaVuSans-30" transform="translate(224.560547 0)"/>
     <use xlink:href="#DejaVuSans-32" transform="translate(288.183594 0)"/>
    </g>
   </g>
   <g id="text_46">
    <!-- 38/408 -->
    <g transform="translate(213.461212 107.92903) scale(0.1 -0.1)">
     <use xlink:href="#DejaVuSans-33"/>
     <use xlink:href="#DejaVuSans-38" transform="translate(63.623047 0)"/>
     <use xlink:href="#DejaVuSans-2f" transform="translate(127.246094 0)"/>
     <use xlink:href="#DejaVuSans-34" transform="translate(160.9375 0)"/>
     <use xlink:href="#DejaVuSans-30" transform="translate(224.560547 0)"/>
     <use xlink:href="#DejaVuSans-38" transform="translate(288.183594 0)"/>
    </g>
   </g>
   <g id="text_47">
    <!-- 45/486 -->
    <g transform="translate(245.848831 86.080754) scale(0.1 -0.1)">
     <use xlink:href="#DejaVuSans-34"/>
     <use xlink:href="#DejaVuSans-35" transform="translate(63.623047 0)"/>
     <use xlink:href="#DejaVuSans-2f" transform="translate(127.246094 0)"/>
     <use xlink:href="#DejaVuSans-34" transform="translate(160.9375 0)"/>
     <use xlink:href="#DejaVuSans-38" transform="translate(224.560547 0)"/>
     <use xlink:href="#DejaVuSans-36" transform="translate(288.183594 0)"/>
    </g>
   </g>
   <g id="text_48">
    <!-- GO - Biological Process -->
    <g transform="translate(78.673125 63.12) scale(0.12 -0.12)">
     <defs>
      <path id="DejaVuSans-47" d="M 3809 666 
L 3809 1919 
L 2778 1919 
L 2778 2438 
L 4434 2438 
L 4434 434 
Q 4069 175 3628 42 
Q 3188 -91 2688 -91 
Q 1594 -91 976 548 
Q 359 1188 359 2328 
Q 359 3472 976 4111 
Q 1594 4750 2688 4750 
Q 3144 4750 3555 4637 
Q 3966 4525 4313 4306 
L 4313 3634 
Q 3963 3931 3569 4081 
Q 3175 4231 2741 4231 
Q 1884 4231 1454 3753 
Q 1025 3275 1025 2328 
Q 1025 1384 1454 906 
Q 1884 428 2741 428 
Q 3075 428 3337 486 
Q 3600 544 3809 666 
z
" transform="scale(0.015625)"/>
      <path id="DejaVuSans-4f" d="M 2522 4238 
Q 1834 4238 1429 3725 
Q 1025 3213 1025 2328 
Q 1025 1447 1429 934 
Q 1834 422 2522 422 
Q 3209 422 3611 934 
Q 4013 1447 4013 2328 
Q 4013 3213 3611 3725 
Q 3209 4238 2522 4238 
z
M 2522 4750 
Q 3503 4750 4090 4092 
Q 4678 3434 4678 2328 
Q 4678 1225 4090 567 
Q 3503 -91 2522 -91 
Q 1538 -91 948 565 
Q 359 1222 359 2328 
Q 359 3434 948 4092 
Q 1538 4750 2522 4750 
z
" transform="scale(0.015625)"/>
      <path id="DejaVuSans-42" d="M 1259 2228 
L 1259 519 
L 2272 519 
Q 2781 519 3026 730 
Q 3272 941 3272 1375 
Q 3272 1813 3026 2020 
Q 2781 2228 2272 2228 
L 1259 2228 
z
M 1259 4147 
L 1259 2741 
L 2194 2741 
Q 2656 2741 2882 2914 
Q 3109 3088 3109 3444 
Q 3109 3797 2882 3972 
Q 2656 4147 2194 4147 
L 1259 4147 
z
M 628 4666 
L 2241 4666 
Q 2963 4666 3353 4366 
Q 3744 4066 3744 3513 
Q 3744 3084 3544 2831 
Q 3344 2578 2956 2516 
Q 3422 2416 3680 2098 
Q 3938 1781 3938 1306 
Q 3938 681 3513 340 
Q 3088 0 2303 0 
L 628 0 
L 628 4666 
z
" transform="scale(0.015625)"/>
     </defs>
     <use xlink:href="#DejaVuSans-47"/>
     <use xlink:href="#DejaVuSans-4f" transform="translate(77.490234 0)"/>
     <use xlink:href="#DejaVuSans-20" transform="translate(156.201172 0)"/>
     <use xlink:href="#DejaVuSans-2d" transform="translate(187.988281 0)"/>
     <use xlink:href="#DejaVuSans-20" transform="translate(224.072266 0)"/>
     <use xlink:href="#DejaVuSans-42" transform="translate(255.859375 0)"/>
     <use xlink:href="#DejaVuSans-69" transform="translate(324.462891 0)"/>
     <use xlink:href="#DejaVuSans-6f" transform="translate(352.246094 0)"/>
     <use xlink:href="#DejaVuSans-6c" transform="translate(413.427734 0)"/>
     <use xlink:href="#DejaVuSans-6f" transform="translate(441.210938 0)"/>
     <use xlink:href="#DejaVuSans-67" transform="translate(502.392578 0)"/>
     <use xlink:href="#DejaVuSans-69" transform="translate(565.869141 0)"/>
     <use xlink:href="#DejaVuSans-63" transform="translate(593.652344 0)"/>
     <use xlink:href="#DejaVuSans-61" transform="translate(648.632812 0)"/>
     <use xlink:href="#DejaVuSans-6c" transform="translate(709.912109 0)"/>
     <use xlink:href="#DejaVuSans-20" transform="translate(737.695312 0)"/>
     <use xlink:href="#DejaVuSans-50" transform="translate(769.482422 0)"/>
     <use xlink:href="#DejaVuSans-72" transform="translate(828.035156 0)"/>
     <use xlink:href="#DejaVuSans-6f" transform="translate(866.898438 0)"/>
     <use xlink:href="#DejaVuSans-63" transform="translate(928.080078 0)"/>
     <use xlink:href="#DejaVuSans-65" transform="translate(983.060547 0)"/>
     <use xlink:href="#DejaVuSans-73" transform="translate(1044.583984 0)"/>
     <use xlink:href="#DejaVuSans-73" transform="translate(1096.683594 0)"/>
    </g>
   </g>
  </g>
 </g>
 <defs>
  <clipPath id="p1140cf01d3">
   <rect x="36" y="69.12" width="223.2" height="443.52"/>
  </clipPath>
 </defs>
</svg>
