<?xml version="1.0" encoding="utf-8" standalone="no"?>
<!DOCTYPE svg PUBLIC "-//W3C//DTD SVG 1.1//EN"
  "http://www.w3.org/Graphics/SVG/1.1/DTD/svg11.dtd">
<svg xmlns:xlink="http://www.w3.org/1999/xlink" width="144pt" height="144pt" viewBox="0 0 144 144" xmlns="http://www.w3.org/2000/svg" version="1.1">
 <metadata>
  <rdf:RDF xmlns:dc="http://purl.org/dc/elements/1.1/" xmlns:cc="http://creativecommons.org/ns#" xmlns:rdf="http://www.w3.org/1999/02/22-rdf-syntax-ns#">
   <cc:Work>
    <dc:type rdf:resource="http://purl.org/dc/dcmitype/StillImage"/>
    <dc:date>2025-09-29T11:59:43.480000</dc:date>
    <dc:format>image/svg+xml</dc:format>
    <dc:creator>
     <cc:Agent>
      <dc:title>Matplotlib v3.10.6, https://matplotlib.org/</dc:title>
     </cc:Agent>
    </dc:creator>
   </cc:Work>
  </rdf:RDF>
 </metadata>
 <defs>
  <style type="text/css">*{stroke-linejoin: round; stroke-linecap: butt}</style>
 </defs>
 <g id="figure_1">
  <g id="patch_1">
   <path d="M 0 144 
L 144 144 
L 144 0 
L 0 0 
z
" style="fill: #ffffff"/>
  </g>
  <g id="axes_1">
   <g id="patch_2">
    <path d="M 18 128.16 
L 129.6 128.16 
L 129.6 17.28 
L 18 17.28 
z
" style="fill: #ffffff"/>
   </g>
   <g id="matplotlib.axis_1">
    <g id="xtick_1">
     <g id="line2d_1">
      <defs>
       <path id="m7e6535ecb8" d="M 0 0 
L 0 3.5 
" style="stroke: #000000; stroke-width: 0.8"/>
      </defs>
      <g>
       <use xlink:href="#m7e6535ecb8" x="31.750472" y="72.72" style="stroke: #000000; stroke-width: 0.8"/>
      </g>
     </g>
    </g>
    <g id="xtick_2">
     <g id="line2d_2">
      <g>
       <use xlink:href="#m7e6535ecb8" x="122.9874" y="72.72" style="stroke: #000000; stroke-width: 0.8"/>
      </g>
     </g>
    </g>
   </g>
   <g id="matplotlib.axis_2">
    <g id="ytick_1">
     <g id="line2d_3">
      <defs>
       <path id="m0dcb4f8021" d="M 0 0 
L -3.5 0 
" style="stroke: #000000; stroke-width: 0.8"/>
      </defs>
      <g>
       <use xlink:href="#m0dcb4f8021" x="18" y="128.16" style="stroke: #000000; stroke-width: 0.8"/>
      </g>
     </g>
     <g id="text_1">
      <!-- −4 -->
      <g transform="translate(-3.742188 131.959219) scale(0.1 -0.1)">
       <defs>
        <path id="DejaVuSans-2212" d="M 678 2272 
L 4684 2272 
L 4684 1741 
L 678 1741 
L 678 2272 
z
" transform="scale(0.015625)"/>
        <path id="DejaVuSans-34" d="M 2419 4116 
L 825 1625 
L 2419 1625 
L 2419 4116 
z
M 2253 4666 
L 3047 4666 
L 3047 1625 
L 3713 1625 
L 3713 1100 
L 3047 1100 
L 3047 0 
L 2419 0 
L 2419 1100 
L 313 1100 
L 313 1709 
L 2253 4666 
z
" transform="scale(0.015625)"/>
       </defs>
       <use xlink:href="#DejaVuSans-2212"/>
       <use xlink:href="#DejaVuSans-34" transform="translate(83.789062 0)"/>
      </g>
     </g>
    </g>
    <g id="ytick_2">
     <g id="line2d_4">
      <g>
       <use xlink:href="#m0dcb4f8021" x="18" y="100.44" style="stroke: #000000; stroke-width: 0.8"/>
      </g>
     </g>
     <g id="text_2">
      <!-- −2 -->
      <g transform="translate(-3.742188 104.239219) scale(0.1 -0.1)">
       <defs>
        <path id="DejaVuSans-32" d="M 1228 531 
L 3431 531 
L 3431 0 
L 469 0 
L 469 531 
Q 828 903 1448 1529 
Q 2069 2156 2228 2338 
Q 2531 2678 2651 2914 
Q 2772 3150 2772 3378 
Q 2772 3750 2511 3984 
Q 2250 4219 1831 4219 
Q 1534 4219 1204 4116 
Q 875 4013 500 3803 
L 500 4441 
Q 881 4594 1212 4672 
Q 1544 4750 1819 4750 
Q 2544 4750 2975 4387 
Q 3406 4025 3406 3419 
Q 3406 3131 3298 2873 
Q 3191 2616 2906 2266 
Q 2828 2175 2409 1742 
Q 1991 1309 1228 531 
z
" transform="scale(0.015625)"/>
       </defs>
       <use xlink:href="#DejaVuSans-2212"/>
       <use xlink:href="#DejaVuSans-32" transform="translate(83.789062 0)"/>
      </g>
     </g>
    </g>
    <g id="ytick_3">
     <g id="line2d_5">
      <g>
       <use xlink:href="#m0dcb4f8021" x="18" y="72.72" style="stroke: #000000; stroke-width: 0.8"/>
      </g>
     </g>
     <g id="text_3">
      <!-- 0 -->
      <g transform="translate(4.6375 76.519219) scale(0.1 -0.1)">
       <defs>
        <path id="DejaVuSans-30" d="M 2034 4250 
Q 1547 4250 1301 3770 
Q 1056 3291 1056 2328 
Q 1056 1369 1301 889 
Q 1547 409 2034 409 
Q 2525 409 2770 889 
Q 3016 1369 3016 2328 
Q 3016 3291 2770 3770 
Q 2525 4250 2034 4250 
z
M 2034 4750 
Q 2819 4750 3233 4129 
Q 3647 3509 3647 2328 
Q 3647 1150 3233 529 
Q 2819 -91 2034 -91 
Q 1250 -91 836 529 
Q 422 1150 422 2328 
Q 422 3509 836 4129 
Q 1250 4750 2034 4750 
z
" transform="scale(0.015625)"/>
       </defs>
       <use xlink:href="#DejaVuSans-30"/>
      </g>
     </g>
    </g>
    <g id="ytick_4">
     <g id="line2d_6">
      <g>
       <use xlink:href="#m0dcb4f8021" x="18" y="45" style="stroke: #000000; stroke-width: 0.8"/>
      </g>
     </g>
     <g id="text_4">
      <!-- 2 -->
      <g transform="translate(4.6375 48.799219) scale(0.1 -0.1)">
       <use xlink:href="#DejaVuSans-32"/>
      </g>
     </g>
    </g>
    <g id="ytick_5">
     <g id="line2d_7">
      <g>
       <use xlink:href="#m0dcb4f8021" x="18" y="17.28" style="stroke: #000000; stroke-width: 0.8"/>
      </g>
     </g>
     <g id="text_5">
      <!-- 4 -->
      <g transform="translate(4.6375 21.079219) scale(0.1 -0.1)">
       <use xlink:href="#DejaVuSans-34"/>
      </g>
     </g>
    </g>
   </g>
   <g id="line2d_8">
    <path d="M 84.972984 70.548147 
L 62.234606 84.280882 
L 83.037454 69.260572 
L 101.883063 49.620864 
L 98.396564 57.381214 
L 89.491087 88.487692 
L 112.70468 71.070708 
L 81.702295 59.952655 
L 86.321965 86.254475 
L 47.206764 77.098133 
L 69.785298 69.449882 
L 56.172866 68.102559 
L 96.460281 63.702455 
L 73.074578 88.487692 
L 67.773893 68.680437 
L 116.095986 31.968731 
L 76.63 53.193336 
L 76.891486 87.715865 
L 71.455544 82.219482 
L 92.636343 72.103934 
L 92.544715 46.256321 
" clip-path="url(#peffed203c0)" style="fill: none"/>
    <defs>
     <path id="m6339e6c8c1" d="M 0 -4.242641 
L -4.242641 -0 
L -0 4.242641 
L 0 -4.242641 
"/>
    </defs>
    <g clip-path="url(#peffed203c0)">
     <use xlink:href="#m6339e6c8c1" x="84.972984" y="70.548147" style="fill: #d32f2f"/>
     <use xlink:href="#m6339e6c8c1" x="62.234606" y="84.280882" style="fill: #d32f2f"/>
     <use xlink:href="#m6339e6c8c1" x="83.037454" y="69.260572" style="fill: #d32f2f"/>
     <use xlink:href="#m6339e6c8c1" x="101.883063" y="49.620864" style="fill: #d32f2f"/>
     <use xlink:href="#m6339e6c8c1" x="98.396564" y="57.381214" style="fill: #d32f2f"/>
     <use xlink:href="#m6339e6c8c1" x="89.491087" y="88.487692" style="fill: #d32f2f"/>
     <use xlink:href="#m6339e6c8c1" x="112.70468" y="71.070708" style="fill: #d32f2f"/>
     <use xlink:href="#m6339e6c8c1" x="81.702295" y="59.952655" style="fill: #d32f2f"/>
     <use xlink:href="#m6339e6c8c1" x="86.321965" y="86.254475" style="fill: #d32f2f"/>
     <use xlink:href="#m6339e6c8c1" x="47.206764" y="77.098133" style="fill: #d32f2f"/>
     <use xlink:href="#m6339e6c8c1" x="69.785298" y="69.449882" style="fill: #d32f2f"/>
     <use xlink:href="#m6339e6c8c1" x="56.172866" y="68.102559" style="fill: #d32f2f"/>
     <use xlink:href="#m6339e6c8c1" x="96.460281" y="63.702455" style="fill: #d32f2f"/>
     <use xlink:href="#m6339e6c8c1" x="73.074578" y="88.487692" style="fill: #d32f2f"/>
     <use xlink:href="#m6339e6c8c1" x="67.773893" y="68.680437" style="fill: #d32f2f"/>
     <use xlink:href="#m6339e6c8c1" x="116.095986" y="31.968731" style="fill: #d32f2f"/>
     <use xlink:href="#m6339e6c8c1" x="76.63" y="53.193336" style="fill: #d32f2f"/>
     <use xlink:href="#m6339e6c8c1" x="76.891486" y="87.715865" style="fill: #d32f2f"/>
     <use xlink:href="#m6339e6c8c1" x="71.455544" y="82.219482" style="fill: #d32f2f"/>
     <use xlink:href="#m6339e6c8c1" x="92.636343" y="72.103934" style="fill: #d32f2f"/>
     <use xlink:href="#m6339e6c8c1" x="92.544715" y="46.256321" style="fill: #d32f2f"/>
    </g>
    <defs>
     <path id="m88258458a1" d="M 0 -4.242641 
L 4.242641 0 
L -0 4.242641 
L 0 -4.242641 
"/>
    </defs>
    <g clip-path="url(#peffed203c0)">
     <use xlink:href="#m88258458a1" x="84.972984" y="70.548147" style="fill: #ffffff"/>
     <use xlink:href="#m88258458a1" x="62.234606" y="84.280882" style="fill: #ffffff"/>
     <use xlink:href="#m88258458a1" x="83.037454" y="69.260572" style="fill: #ffffff"/>
     <use xlink:href="#m88258458a1" x="101.883063" y="49.620864" style="fill: #ffffff"/>
     <use xlink:href="#m88258458a1" x="98.396564" y="57.381214" style="fill: #ffffff"/>
     <use xlink:href="#m88258458a1" x="89.491087" y="88.487692" style="fill: #ffffff"/>
     <use xlink:href="#m88258458a1" x="112.70468" y="71.070708" style="fill: #ffffff"/>
     <use xlink:href="#m88258458a1" x="81.702295" y="59.952655" style="fill: #ffffff"/>
     <use xlink:href="#m88258458a1" x="86.321965" y="86.254475" style="fill: #ffffff"/>
     <use xlink:href="#m88258458a1" x="47.206764" y="77.098133" style="fill: #ffffff"/>
     <use xlink:href="#m88258458a1" x="69.785298" y="69.449882" style="fill: #ffffff"/>
     <use xlink:href="#m88258458a1" x="56.172866" y="68.102559" style="fill: #ffffff"/>
     <use xlink:href="#m88258458a1" x="96.460281" y="63.702455" style="fill: #ffffff"/>
     <use xlink:href="#m88258458a1" x="73.074578" y="88.487692" style="fill: #ffffff"/>
     <use xlink:href="#m88258458a1" x="67.773893" y="68.680437" style="fill: #ffffff"/>
     <use xlink:href="#m88258458a1" x="116.095986" y="31.968731" style="fill: #ffffff"/>
     <use xlink:href="#m88258458a1" x="76.63" y="53.193336" style="fill: #ffffff"/>
     <use xlink:href="#m88258458a1" x="76.891486" y="87.715865" style="fill: #ffffff"/>
     <use xlink:href="#m88258458a1" x="71.455544" y="82.219482" style="fill: #ffffff"/>
     <use xlink:href="#m88258458a1" x="92.636343" y="72.103934" style="fill: #ffffff"/>
     <use xlink:href="#m88258458a1" x="92.544715" y="46.256321" style="fill: #ffffff"/>
    </g>
   </g>
   <g id="line2d_9">
    <path d="M 84.972984 70.548147 
L 62.234606 84.280882 
L 83.037454 69.260572 
L 101.883063 49.620864 
L 98.396564 57.381214 
L 89.491087 88.487692 
L 112.70468 71.070708 
L 81.702295 59.952655 
L 86.321965 86.254475 
L 47.206764 77.098133 
L 69.785298 69.449882 
L 56.172866 68.102559 
L 96.460281 63.702455 
L 73.074578 88.487692 
L 67.773893 68.680437 
L 116.095986 31.968731 
L 76.63 53.193336 
L 76.891486 87.715865 
L 71.455544 82.219482 
L 92.636343 72.103934 
L 92.544715 46.256321 
" clip-path="url(#peffed203c0)" style="fill: none"/>
    <defs>
     <path id="m4af8d8738d" d="M -0 4.242641 
L 4.242641 0 
L 0 -4.242641 
L -4.242641 -0 
z
" style="stroke: #d32f2f; stroke-linejoin: miter"/>
    </defs>
    <g clip-path="url(#peffed203c0)">
     <use xlink:href="#m4af8d8738d" x="84.972984" y="70.548147" style="fill-opacity: 0; stroke: #d32f2f; stroke-linejoin: miter"/>
     <use xlink:href="#m4af8d8738d" x="62.234606" y="84.280882" style="fill-opacity: 0; stroke: #d32f2f; stroke-linejoin: miter"/>
     <use xlink:href="#m4af8d8738d" x="83.037454" y="69.260572" style="fill-opacity: 0; stroke: #d32f2f; stroke-linejoin: miter"/>
     <use xlink:href="#m4af8d8738d" x="101.883063" y="49.620864" style="fill-opacity: 0; stroke: #d32f2f; stroke-linejoin: miter"/>
     <use xlink:href="#m4af8d8738d" x="98.396564" y="57.381214" style="fill-opacity: 0; stroke: #d32f2f; stroke-linejoin: miter"/>
     <use xlink:href="#m4af8d8738d" x="89.491087" y="88.487692" style="fill-opacity: 0; stroke: #d32f2f; stroke-linejoin: miter"/>
     <use xlink:href="#m4af8d8738d" x="112.70468" y="71.070708" style="fill-opacity: 0; stroke: #d32f2f; stroke-linejoin: miter"/>
     <use xlink:href="#m4af8d8738d" x="81.702295" y="59.952655" style="fill-opacity: 0; stroke: #d32f2f; stroke-linejoin: miter"/>
     <use xlink:href="#m4af8d8738d" x="86.321965" y="86.254475" style="fill-opacity: 0; stroke: #d32f2f; stroke-linejoin: miter"/>
     <use xlink:href="#m4af8d8738d" x="47.206764" y="77.098133" style="fill-opacity: 0; stroke: #d32f2f; stroke-linejoin: miter"/>
     <use xlink:href="#m4af8d8738d" x="69.785298" y="69.449882" style="fill-opacity: 0; stroke: #d32f2f; stroke-linejoin: miter"/>
     <use xlink:href="#m4af8d8738d" x="56.172866" y="68.102559" style="fill-opacity: 0; stroke: #d32f2f; stroke-linejoin: miter"/>
     <use xlink:href="#m4af8d8738d" x="96.460281" y="63.702455" style="fill-opacity: 0; stroke: #d32f2f; stroke-linejoin: miter"/>
     <use xlink:href="#m4af8d8738d" x="73.074578" y="88.487692" style="fill-opacity: 0; stroke: #d32f2f; stroke-linejoin: miter"/>
     <use xlink:href="#m4af8d8738d" x="67.773893" y="68.680437" style="fill-opacity: 0; stroke: #d32f2f; stroke-linejoin: miter"/>
     <use xlink:href="#m4af8d8738d" x="116.095986" y="31.968731" style="fill-opacity: 0; stroke: #d32f2f; stroke-linejoin: miter"/>
     <use xlink:href="#m4af8d8738d" x="76.63" y="53.193336" style="fill-opacity: 0; stroke: #d32f2f; stroke-linejoin: miter"/>
     <use xlink:href="#m4af8d8738d" x="76.891486" y="87.715865" style="fill-opacity: 0; stroke: #d32f2f; stroke-linejoin: miter"/>
     <use xlink:href="#m4af8d8738d" x="71.455544" y="82.219482" style="fill-opacity: 0; stroke: #d32f2f; stroke-linejoin: miter"/>
     <use xlink:href="#m4af8d8738d" x="92.636343" y="72.103934" style="fill-opacity: 0; stroke: #d32f2f; stroke-linejoin: miter"/>
     <use xlink:href="#m4af8d8738d" x="92.544715" y="46.256321" style="fill-opacity: 0; stroke: #d32f2f; stroke-linejoin: miter"/>
    </g>
   </g>
   <g id="line2d_10">
    <path d="M 75.90936 78.772572 
L 91.114748 62.636546 
L 85.594596 78.969713 
L 90.61033 86.00326 
L 107.129036 55.128627 
L 93.72966 85.077887 
L 59.430353 79.2485 
L 83.15138 69.980913 
L 124.527273 68.434762 
L 93.67246 50.926345 
L 69.082456 74.126121 
L 23.072727 88.487692 
L 73.063164 70.861049 
L 29.984833 87.10294 
L 79.702914 88.487692 
L 60.746439 84.079949 
L 61.48878 86.045369 
L 84.282878 81.91596 
L 84.020512 70.910378 
L 92.766531 88.487692 
" clip-path="url(#peffed203c0)" style="fill: none"/>
    <defs>
     <path id="mf4c27017c5" d="M -0 4.242641 
L 4.242641 0 
L 0 -4.242641 
L -0 4.242641 
"/>
    </defs>
    <g clip-path="url(#peffed203c0)">
     <use xlink:href="#mf4c27017c5" x="75.90936" y="78.772572" style="fill: #1976d2"/>
     <use xlink:href="#mf4c27017c5" x="91.114748" y="62.636546" style="fill: #1976d2"/>
     <use xlink:href="#mf4c27017c5" x="85.594596" y="78.969713" style="fill: #1976d2"/>
     <use xlink:href="#mf4c27017c5" x="90.61033" y="86.00326" style="fill: #1976d2"/>
     <use xlink:href="#mf4c27017c5" x="107.129036" y="55.128627" style="fill: #1976d2"/>
     <use xlink:href="#mf4c27017c5" x="93.72966" y="85.077887" style="fill: #1976d2"/>
     <use xlink:href="#mf4c27017c5" x="59.430353" y="79.2485" style="fill: #1976d2"/>
     <use xlink:href="#mf4c27017c5" x="83.15138" y="69.980913" style="fill: #1976d2"/>
     <use xlink:href="#mf4c27017c5" x="124.527273" y="68.434762" style="fill: #1976d2"/>
     <use xlink:href="#mf4c27017c5" x="93.67246" y="50.926345" style="fill: #1976d2"/>
     <use xlink:href="#mf4c27017c5" x="69.082456" y="74.126121" style="fill: #1976d2"/>
     <use xlink:href="#mf4c27017c5" x="23.072727" y="88.487692" style="fill: #1976d2"/>
     <use xlink:href="#mf4c27017c5" x="73.063164" y="70.861049" style="fill: #1976d2"/>
     <use xlink:href="#mf4c27017c5" x="29.984833" y="87.10294" style="fill: #1976d2"/>
     <use xlink:href="#mf4c27017c5" x="79.702914" y="88.487692" style="fill: #1976d2"/>
     <use xlink:href="#mf4c27017c5" x="60.746439" y="84.079949" style="fill: #1976d2"/>
     <use xlink:href="#mf4c27017c5" x="61.48878" y="86.045369" style="fill: #1976d2"/>
     <use xlink:href="#mf4c27017c5" x="84.282878" y="81.91596" style="fill: #1976d2"/>
     <use xlink:href="#mf4c27017c5" x="84.020512" y="70.910378" style="fill: #1976d2"/>
     <use xlink:href="#mf4c27017c5" x="92.766531" y="88.487692" style="fill: #1976d2"/>
    </g>
    <defs>
     <path id="m749c3a1d4a" d="M -0 4.242641 
L -4.242641 -0 
L 0 -4.242641 
L -0 4.242641 
"/>
    </defs>
    <g clip-path="url(#peffed203c0)">
     <use xlink:href="#m749c3a1d4a" x="75.90936" y="78.772572" style="fill: #ffffff"/>
     <use xlink:href="#m749c3a1d4a" x="91.114748" y="62.636546" style="fill: #ffffff"/>
     <use xlink:href="#m749c3a1d4a" x="85.594596" y="78.969713" style="fill: #ffffff"/>
     <use xlink:href="#m749c3a1d4a" x="90.61033" y="86.00326" style="fill: #ffffff"/>
     <use xlink:href="#m749c3a1d4a" x="107.129036" y="55.128627" style="fill: #ffffff"/>
     <use xlink:href="#m749c3a1d4a" x="93.72966" y="85.077887" style="fill: #ffffff"/>
     <use xlink:href="#m749c3a1d4a" x="59.430353" y="79.2485" style="fill: #ffffff"/>
     <use xlink:href="#m749c3a1d4a" x="83.15138" y="69.980913" style="fill: #ffffff"/>
     <use xlink:href="#m749c3a1d4a" x="124.527273" y="68.434762" style="fill: #ffffff"/>
     <use xlink:href="#m749c3a1d4a" x="93.67246" y="50.926345" style="fill: #ffffff"/>
     <use xlink:href="#m749c3a1d4a" x="69.082456" y="74.126121" style="fill: #ffffff"/>
     <use xlink:href="#m749c3a1d4a" x="23.072727" y="88.487692" style="fill: #ffffff"/>
     <use xlink:href="#m749c3a1d4a" x="73.063164" y="70.861049" style="fill: #ffffff"/>
     <use xlink:href="#m749c3a1d4a" x="29.984833" y="87.10294" style="fill: #ffffff"/>
     <use xlink:href="#m749c3a1d4a" x="79.702914" y="88.487692" style="fill: #ffffff"/>
     <use xlink:href="#m749c3a1d4a" x="60.746439" y="84.079949" style="fill: #ffffff"/>
     <use xlink:href="#m749c3a1d4a" x="61.48878" y="86.045369" style="fill: #ffffff"/>
     <use xlink:href="#m749c3a1d4a" x="84.282878" y="81.91596" style="fill: #ffffff"/>
     <use xlink:href="#m749c3a1d4a" x="84.020512" y="70.910378" style="fill: #ffffff"/>
     <use xlink:href="#m749c3a1d4a" x="92.766531" y="88.487692" style="fill: #ffffff"/>
    </g>
   </g>
   <g id="line2d_11">
    <path d="M 75.90936 78.772572 
L 91.114748 62.636546 
L 85.594596 78.969713 
L 90.61033 86.00326 
L 107.129036 55.128627 
L 93.72966 85.077887 
L 59.430353 79.2485 
L 83.15138 69.980913 
L 124.527273 68.434762 
L 93.67246 50.926345 
L 69.082456 74.126121 
L 23.072727 88.487692 
L 73.063164 70.861049 
L 29.984833 87.10294 
L 79.702914 88.487692 
L 60.746439 84.079949 
L 61.48878 86.045369 
L 84.282878 81.91596 
L 84.020512 70.910378 
L 92.766531 88.487692 
" clip-path="url(#peffed203c0)" style="fill: none"/>
    <defs>
     <path id="m68bb8c6679" d="M -0 4.242641 
L 4.242641 0 
L 0 -4.242641 
L -4.242641 -0 
z
" style="stroke: #1976d2; stroke-linejoin: miter"/>
    </defs>
    <g clip-path="url(#peffed203c0)">
     <use xlink:href="#m68bb8c6679" x="75.90936" y="78.772572" style="fill-opacity: 0; stroke: #1976d2; stroke-linejoin: miter"/>
     <use xlink:href="#m68bb8c6679" x="91.114748" y="62.636546" style="fill-opacity: 0; stroke: #1976d2; stroke-linejoin: miter"/>
     <use xlink:href="#m68bb8c6679" x="85.594596" y="78.969713" style="fill-opacity: 0; stroke: #1976d2; stroke-linejoin: miter"/>
     <use xlink:href="#m68bb8c6679" x="90.61033" y="86.00326" style="fill-opacity: 0; stroke: #1976d2; stroke-linejoin: miter"/>
     <use xlink:href="#m68bb8c6679" x="107.129036" y="55.128627" style="fill-opacity: 0; stroke: #1976d2; stroke-linejoin: miter"/>
     <use xlink:href="#m68bb8c6679" x="93.72966" y="85.077887" style="fill-opacity: 0; stroke: #1976d2; stroke-linejoin: miter"/>
     <use xlink:href="#m68bb8c6679" x="59.430353" y="79.2485" style="fill-opacity: 0; stroke: #1976d2; stroke-linejoin: miter"/>
     <use xlink:href="#m68bb8c6679" x="83.15138" y="69.980913" style="fill-opacity: 0; stroke: #1976d2; stroke-linejoin: miter"/>
     <use xlink:href="#m68bb8c6679" x="124.527273" y="68.434762" style="fill-opacity: 0; stroke: #1976d2; stroke-linejoin: miter"/>
     <use xlink:href="#m68bb8c6679" x="93.67246" y="50.926345" style="fill-opacity: 0; stroke: #1976d2; stroke-linejoin: miter"/>
     <use xlink:href="#m68bb8c6679" x="69.082456" y="74.126121" style="fill-opacity: 0; stroke: #1976d2; stroke-linejoin: miter"/>
     <use xlink:href="#m68bb8c6679" x="23.072727" y="88.487692" style="fill-opacity: 0; stroke: #1976d2; stroke-linejoin: miter"/>
     <use xlink:href="#m68bb8c6679" x="73.063164" y="70.861049" style="fill-opacity: 0; stroke: #1976d2; stroke-linejoin: miter"/>
     <use xlink:href="#m68bb8c6679" x="29.984833" y="87.10294" style="fill-opacity: 0; stroke: #1976d2; stroke-linejoin: miter"/>
     <use xlink:href="#m68bb8c6679" x="79.702914" y="88.487692" style="fill-opacity: 0; stroke: #1976d2; stroke-linejoin: miter"/>
     <use xlink:href="#m68bb8c6679" x="60.746439" y="84.079949" style="fill-opacity: 0; stroke: #1976d2; stroke-linejoin: miter"/>
     <use xlink:href="#m68bb8c6679" x="61.48878" y="86.045369" style="fill-opacity: 0; stroke: #1976d2; stroke-linejoin: miter"/>
     <use xlink:href="#m68bb8c6679" x="84.282878" y="81.91596" style="fill-opacity: 0; stroke: #1976d2; stroke-linejoin: miter"/>
     <use xlink:href="#m68bb8c6679" x="84.020512" y="70.910378" style="fill-opacity: 0; stroke: #1976d2; stroke-linejoin: miter"/>
     <use xlink:href="#m68bb8c6679" x="92.766531" y="88.487692" style="fill-opacity: 0; stroke: #1976d2; stroke-linejoin: miter"/>
    </g>
   </g>
   <g id="patch_3">
    <path d="M 18 128.16 
L 18 17.28 
" style="fill: none; stroke: #000000; stroke-width: 0.8; stroke-linejoin: miter; stroke-linecap: square"/>
   </g>
   <g id="patch_4">
    <path d="M 18 72.72 
L 129.6 72.72 
" style="fill: none; stroke: #000000; stroke-width: 0.8; stroke-linejoin: miter; stroke-linecap: square"/>
   </g>
   <g id="text_6">
    <!-- CCL2: 0.43 -->
    <g transform="translate(40.9725 11.28) scale(0.12 -0.12)">
     <defs>
      <path id="DejaVuSans-43" d="M 4122 4306 
L 4122 3641 
Q 3803 3938 3442 4084 
Q 3081 4231 2675 4231 
Q 1875 4231 1450 3742 
Q 1025 3253 1025 2328 
Q 1025 1406 1450 917 
Q 1875 428 2675 428 
Q 3081 428 3442 575 
Q 3803 722 4122 1019 
L 4122 359 
Q 3791 134 3420 21 
Q 3050 -91 2638 -91 
Q 1578 -91 968 557 
Q 359 1206 359 2328 
Q 359 3453 968 4101 
Q 1578 4750 2638 4750 
Q 3056 4750 3426 4639 
Q 3797 4528 4122 4306 
z
" transform="scale(0.015625)"/>
      <path id="DejaVuSans-4c" d="M 628 4666 
L 1259 4666 
L 1259 531 
L 3531 531 
L 3531 0 
L 628 0 
L 628 4666 
z
" transform="scale(0.015625)"/>
      <path id="DejaVuSans-3a" d="M 750 794 
L 1409 794 
L 1409 0 
L 750 0 
L 750 794 
z
M 750 3309 
L 1409 3309 
L 1409 2516 
L 750 2516 
L 750 3309 
z
" transform="scale(0.015625)"/>
      <path id="DejaVuSans-20" transform="scale(0.015625)"/>
      <path id="DejaVuSans-2e" d="M 684 794 
L 1344 794 
L 1344 0 
L 684 0 
L 684 794 
z
" transform="scale(0.015625)"/>
      <path id="DejaVuSans-33" d="M 2597 2516 
Q 3050 2419 3304 2112 
Q 3559 1806 3559 1356 
Q 3559 666 3084 287 
Q 2609 -91 1734 -91 
Q 1441 -91 1130 -33 
Q 819 25 488 141 
L 488 750 
Q 750 597 1062 519 
Q 1375 441 1716 441 
Q 2309 441 2620 675 
Q 2931 909 2931 1356 
Q 2931 1769 2642 2001 
Q 2353 2234 1838 2234 
L 1294 2234 
L 1294 2753 
L 1863 2753 
Q 2328 2753 2575 2939 
Q 2822 3125 2822 3475 
Q 2822 3834 2567 4026 
Q 2313 4219 1838 4219 
Q 1578 4219 1281 4162 
Q 984 4106 628 3988 
L 628 4550 
Q 988 4650 1302 4700 
Q 1616 4750 1894 4750 
Q 2613 4750 3031 4423 
Q 3450 4097 3450 3541 
Q 3450 3153 3228 2886 
Q 3006 2619 2597 2516 
z
" transform="scale(0.015625)"/>
     </defs>
     <use xlink:href="#DejaVuSans-43"/>
     <use xlink:href="#DejaVuSans-43" transform="translate(69.824219 0)"/>
     <use xlink:href="#DejaVuSans-4c" transform="translate(139.648438 0)"/>
     <use xlink:href="#DejaVuSans-32" transform="translate(195.361328 0)"/>
     <use xlink:href="#DejaVuSans-3a" transform="translate(258.984375 0)"/>
     <use xlink:href="#DejaVuSans-20" transform="translate(292.675781 0)"/>
     <use xlink:href="#DejaVuSans-30" transform="translate(324.462891 0)"/>
     <use xlink:href="#DejaVuSans-2e" transform="translate(388.085938 0)"/>
     <use xlink:href="#DejaVuSans-34" transform="translate(419.873047 0)"/>
     <use xlink:href="#DejaVuSans-33" transform="translate(483.496094 0)"/>
    </g>
   </g>
  </g>
 </g>
 <defs>
  <clipPath id="peffed203c0">
   <rect x="18" y="17.28" width="111.6" height="110.88"/>
  </clipPath>
 </defs>
</svg>
