<?xml version="1.0" encoding="utf-8" standalone="no"?>
<!DOCTYPE svg PUBLIC "-//W3C//DTD SVG 1.1//EN"
  "http://www.w3.org/Graphics/SVG/1.1/DTD/svg11.dtd">
<svg xmlns:xlink="http://www.w3.org/1999/xlink" width="144pt" height="144pt" viewBox="0 0 144 144" xmlns="http://www.w3.org/2000/svg" version="1.1">
 <metadata>
  <rdf:RDF xmlns:dc="http://purl.org/dc/elements/1.1/" xmlns:cc="http://creativecommons.org/ns#" xmlns:rdf="http://www.w3.org/1999/02/22-rdf-syntax-ns#">
   <cc:Work>
    <dc:type rdf:resource="http://purl.org/dc/dcmitype/StillImage"/>
    <dc:date>2025-09-29T11:59:43.783236</dc:date>
    <dc:format>image/svg+xml</dc:format>
    <dc:creator>
     <cc:Agent>
      <dc:title>Matplotlib v3.10.6, https://matplotlib.org/</dc:title>
     </cc:Agent>
    </dc:creator>
   </cc:Work>
  </rdf:RDF>
 </metadata>
 <defs>
  <style type="text/css">*{stroke-linejoin: round; stroke-linecap: butt}</style>
 </defs>
 <g id="figure_1">
  <g id="patch_1">
   <path d="M 0 144 
L 144 144 
L 144 0 
L 0 0 
z
" style="fill: #ffffff"/>
  </g>
  <g id="axes_1">
   <g id="patch_2">
    <path d="M 18 128.16 
L 129.6 128.16 
L 129.6 17.28 
L 18 17.28 
z
" style="fill: #ffffff"/>
   </g>
   <g id="matplotlib.axis_1">
    <g id="xtick_1">
     <g id="line2d_1">
      <defs>
       <path id="m51755bdf6c" d="M 0 0 
L 0 3.5 
" style="stroke: #000000; stroke-width: 0.8"/>
      </defs>
      <g>
       <use xlink:href="#m51755bdf6c" x="31.750472" y="72.72" style="stroke: #000000; stroke-width: 0.8"/>
      </g>
     </g>
    </g>
    <g id="xtick_2">
     <g id="line2d_2">
      <g>
       <use xlink:href="#m51755bdf6c" x="122.9874" y="72.72" style="stroke: #000000; stroke-width: 0.8"/>
      </g>
     </g>
    </g>
   </g>
   <g id="matplotlib.axis_2">
    <g id="ytick_1">
     <g id="line2d_3">
      <defs>
       <path id="m969a1a9b6c" d="M 0 0 
L -3.5 0 
" style="stroke: #000000; stroke-width: 0.8"/>
      </defs>
      <g>
       <use xlink:href="#m969a1a9b6c" x="18" y="128.16" style="stroke: #000000; stroke-width: 0.8"/>
      </g>
     </g>
     <g id="text_1">
      <!-- −4 -->
      <g transform="translate(-3.742188 131.959219) scale(0.1 -0.1)">
       <defs>
        <path id="DejaVuSans-2212" d="M 678 2272 
L 4684 2272 
L 4684 1741 
L 678 1741 
L 678 2272 
z
" transform="scale(0.015625)"/>
        <path id="DejaVuSans-34" d="M 2419 4116 
L 825 1625 
L 2419 1625 
L 2419 4116 
z
M 2253 4666 
L 3047 4666 
L 3047 1625 
L 3713 1625 
L 3713 1100 
L 3047 1100 
L 3047 0 
L 2419 0 
L 2419 1100 
L 313 1100 
L 313 1709 
L 2253 4666 
z
" transform="scale(0.015625)"/>
       </defs>
       <use xlink:href="#DejaVuSans-2212"/>
       <use xlink:href="#DejaVuSans-34" transform="translate(83.789062 0)"/>
      </g>
     </g>
    </g>
    <g id="ytick_2">
     <g id="line2d_4">
      <g>
       <use xlink:href="#m969a1a9b6c" x="18" y="100.44" style="stroke: #000000; stroke-width: 0.8"/>
      </g>
     </g>
     <g id="text_2">
      <!-- −2 -->
      <g transform="translate(-3.742188 104.239219) scale(0.1 -0.1)">
       <defs>
        <path id="DejaVuSans-32" d="M 1228 531 
L 3431 531 
L 3431 0 
L 469 0 
L 469 531 
Q 828 903 1448 1529 
Q 2069 2156 2228 2338 
Q 2531 2678 2651 2914 
Q 2772 3150 2772 3378 
Q 2772 3750 2511 3984 
Q 2250 4219 1831 4219 
Q 1534 4219 1204 4116 
Q 875 4013 500 3803 
L 500 4441 
Q 881 4594 1212 4672 
Q 1544 4750 1819 4750 
Q 2544 4750 2975 4387 
Q 3406 4025 3406 3419 
Q 3406 3131 3298 2873 
Q 3191 2616 2906 2266 
Q 2828 2175 2409 1742 
Q 1991 1309 1228 531 
z
" transform="scale(0.015625)"/>
       </defs>
       <use xlink:href="#DejaVuSans-2212"/>
       <use xlink:href="#DejaVuSans-32" transform="translate(83.789062 0)"/>
      </g>
     </g>
    </g>
    <g id="ytick_3">
     <g id="line2d_5">
      <g>
       <use xlink:href="#m969a1a9b6c" x="18" y="72.72" style="stroke: #000000; stroke-width: 0.8"/>
      </g>
     </g>
     <g id="text_3">
      <!-- 0 -->
      <g transform="translate(4.6375 76.519219) scale(0.1 -0.1)">
       <defs>
        <path id="DejaVuSans-30" d="M 2034 4250 
Q 1547 4250 1301 3770 
Q 1056 3291 1056 2328 
Q 1056 1369 1301 889 
Q 1547 409 2034 409 
Q 2525 409 2770 889 
Q 3016 1369 3016 2328 
Q 3016 3291 2770 3770 
Q 2525 4250 2034 4250 
z
M 2034 4750 
Q 2819 4750 3233 4129 
Q 3647 3509 3647 2328 
Q 3647 1150 3233 529 
Q 2819 -91 2034 -91 
Q 1250 -91 836 529 
Q 422 1150 422 2328 
Q 422 3509 836 4129 
Q 1250 4750 2034 4750 
z
" transform="scale(0.015625)"/>
       </defs>
       <use xlink:href="#DejaVuSans-30"/>
      </g>
     </g>
    </g>
    <g id="ytick_4">
     <g id="line2d_6">
      <g>
       <use xlink:href="#m969a1a9b6c" x="18" y="45" style="stroke: #000000; stroke-width: 0.8"/>
      </g>
     </g>
     <g id="text_4">
      <!-- 2 -->
      <g transform="translate(4.6375 48.799219) scale(0.1 -0.1)">
       <use xlink:href="#DejaVuSans-32"/>
      </g>
     </g>
    </g>
    <g id="ytick_5">
     <g id="line2d_7">
      <g>
       <use xlink:href="#m969a1a9b6c" x="18" y="17.28" style="stroke: #000000; stroke-width: 0.8"/>
      </g>
     </g>
     <g id="text_5">
      <!-- 4 -->
      <g transform="translate(4.6375 21.079219) scale(0.1 -0.1)">
       <use xlink:href="#DejaVuSans-34"/>
      </g>
     </g>
    </g>
   </g>
   <g id="line2d_8">
    <path d="M 84.972984 76.75722 
L 62.234606 76.025408 
L 83.037454 82.758366 
L 101.883063 67.344249 
L 98.396564 60.26831 
L 89.491087 83.801233 
L 112.70468 38.672767 
L 81.702295 49.673584 
L 86.321965 74.427749 
L 47.206764 61.621683 
L 69.785298 65.440956 
L 56.172866 84.569234 
L 96.460281 64.880636 
L 73.074578 85.882185 
L 67.773893 81.078832 
L 116.095986 51.134075 
L 76.63 54.361493 
L 76.891486 83.88812 
L 71.455544 64.766594 
L 92.636343 26.564559 
L 92.544715 68.473761 
" clip-path="url(#pb3421bd3fb)" style="fill: none"/>
    <defs>
     <path id="m9eb5bbbfaf" d="M 0 -4.242641 
L -4.242641 -0 
L -0 4.242641 
L 0 -4.242641 
"/>
    </defs>
    <g clip-path="url(#pb3421bd3fb)">
     <use xlink:href="#m9eb5bbbfaf" x="84.972984" y="76.75722" style="fill: #d32f2f"/>
     <use xlink:href="#m9eb5bbbfaf" x="62.234606" y="76.025408" style="fill: #d32f2f"/>
     <use xlink:href="#m9eb5bbbfaf" x="83.037454" y="82.758366" style="fill: #d32f2f"/>
     <use xlink:href="#m9eb5bbbfaf" x="101.883063" y="67.344249" style="fill: #d32f2f"/>
     <use xlink:href="#m9eb5bbbfaf" x="98.396564" y="60.26831" style="fill: #d32f2f"/>
     <use xlink:href="#m9eb5bbbfaf" x="89.491087" y="83.801233" style="fill: #d32f2f"/>
     <use xlink:href="#m9eb5bbbfaf" x="112.70468" y="38.672767" style="fill: #d32f2f"/>
     <use xlink:href="#m9eb5bbbfaf" x="81.702295" y="49.673584" style="fill: #d32f2f"/>
     <use xlink:href="#m9eb5bbbfaf" x="86.321965" y="74.427749" style="fill: #d32f2f"/>
     <use xlink:href="#m9eb5bbbfaf" x="47.206764" y="61.621683" style="fill: #d32f2f"/>
     <use xlink:href="#m9eb5bbbfaf" x="69.785298" y="65.440956" style="fill: #d32f2f"/>
     <use xlink:href="#m9eb5bbbfaf" x="56.172866" y="84.569234" style="fill: #d32f2f"/>
     <use xlink:href="#m9eb5bbbfaf" x="96.460281" y="64.880636" style="fill: #d32f2f"/>
     <use xlink:href="#m9eb5bbbfaf" x="73.074578" y="85.882185" style="fill: #d32f2f"/>
     <use xlink:href="#m9eb5bbbfaf" x="67.773893" y="81.078832" style="fill: #d32f2f"/>
     <use xlink:href="#m9eb5bbbfaf" x="116.095986" y="51.134075" style="fill: #d32f2f"/>
     <use xlink:href="#m9eb5bbbfaf" x="76.63" y="54.361493" style="fill: #d32f2f"/>
     <use xlink:href="#m9eb5bbbfaf" x="76.891486" y="83.88812" style="fill: #d32f2f"/>
     <use xlink:href="#m9eb5bbbfaf" x="71.455544" y="64.766594" style="fill: #d32f2f"/>
     <use xlink:href="#m9eb5bbbfaf" x="92.636343" y="26.564559" style="fill: #d32f2f"/>
     <use xlink:href="#m9eb5bbbfaf" x="92.544715" y="68.473761" style="fill: #d32f2f"/>
    </g>
    <defs>
     <path id="m11ca44b7d7" d="M 0 -4.242641 
L 4.242641 0 
L -0 4.242641 
L 0 -4.242641 
"/>
    </defs>
    <g clip-path="url(#pb3421bd3fb)">
     <use xlink:href="#m11ca44b7d7" x="84.972984" y="76.75722" style="fill: #ffffff"/>
     <use xlink:href="#m11ca44b7d7" x="62.234606" y="76.025408" style="fill: #ffffff"/>
     <use xlink:href="#m11ca44b7d7" x="83.037454" y="82.758366" style="fill: #ffffff"/>
     <use xlink:href="#m11ca44b7d7" x="101.883063" y="67.344249" style="fill: #ffffff"/>
     <use xlink:href="#m11ca44b7d7" x="98.396564" y="60.26831" style="fill: #ffffff"/>
     <use xlink:href="#m11ca44b7d7" x="89.491087" y="83.801233" style="fill: #ffffff"/>
     <use xlink:href="#m11ca44b7d7" x="112.70468" y="38.672767" style="fill: #ffffff"/>
     <use xlink:href="#m11ca44b7d7" x="81.702295" y="49.673584" style="fill: #ffffff"/>
     <use xlink:href="#m11ca44b7d7" x="86.321965" y="74.427749" style="fill: #ffffff"/>
     <use xlink:href="#m11ca44b7d7" x="47.206764" y="61.621683" style="fill: #ffffff"/>
     <use xlink:href="#m11ca44b7d7" x="69.785298" y="65.440956" style="fill: #ffffff"/>
     <use xlink:href="#m11ca44b7d7" x="56.172866" y="84.569234" style="fill: #ffffff"/>
     <use xlink:href="#m11ca44b7d7" x="96.460281" y="64.880636" style="fill: #ffffff"/>
     <use xlink:href="#m11ca44b7d7" x="73.074578" y="85.882185" style="fill: #ffffff"/>
     <use xlink:href="#m11ca44b7d7" x="67.773893" y="81.078832" style="fill: #ffffff"/>
     <use xlink:href="#m11ca44b7d7" x="116.095986" y="51.134075" style="fill: #ffffff"/>
     <use xlink:href="#m11ca44b7d7" x="76.63" y="54.361493" style="fill: #ffffff"/>
     <use xlink:href="#m11ca44b7d7" x="76.891486" y="83.88812" style="fill: #ffffff"/>
     <use xlink:href="#m11ca44b7d7" x="71.455544" y="64.766594" style="fill: #ffffff"/>
     <use xlink:href="#m11ca44b7d7" x="92.636343" y="26.564559" style="fill: #ffffff"/>
     <use xlink:href="#m11ca44b7d7" x="92.544715" y="68.473761" style="fill: #ffffff"/>
    </g>
   </g>
   <g id="line2d_9">
    <path d="M 84.972984 76.75722 
L 62.234606 76.025408 
L 83.037454 82.758366 
L 101.883063 67.344249 
L 98.396564 60.26831 
L 89.491087 83.801233 
L 112.70468 38.672767 
L 81.702295 49.673584 
L 86.321965 74.427749 
L 47.206764 61.621683 
L 69.785298 65.440956 
L 56.172866 84.569234 
L 96.460281 64.880636 
L 73.074578 85.882185 
L 67.773893 81.078832 
L 116.095986 51.134075 
L 76.63 54.361493 
L 76.891486 83.88812 
L 71.455544 64.766594 
L 92.636343 26.564559 
L 92.544715 68.473761 
" clip-path="url(#pb3421bd3fb)" style="fill: none"/>
    <defs>
     <path id="mf3ca312a9f" d="M -0 4.242641 
L 4.242641 0 
L 0 -4.242641 
L -4.242641 -0 
z
" style="stroke: #d32f2f; stroke-linejoin: miter"/>
    </defs>
    <g clip-path="url(#pb3421bd3fb)">
     <use xlink:href="#mf3ca312a9f" x="84.972984" y="76.75722" style="fill-opacity: 0; stroke: #d32f2f; stroke-linejoin: miter"/>
     <use xlink:href="#mf3ca312a9f" x="62.234606" y="76.025408" style="fill-opacity: 0; stroke: #d32f2f; stroke-linejoin: miter"/>
     <use xlink:href="#mf3ca312a9f" x="83.037454" y="82.758366" style="fill-opacity: 0; stroke: #d32f2f; stroke-linejoin: miter"/>
     <use xlink:href="#mf3ca312a9f" x="101.883063" y="67.344249" style="fill-opacity: 0; stroke: #d32f2f; stroke-linejoin: miter"/>
     <use xlink:href="#mf3ca312a9f" x="98.396564" y="60.26831" style="fill-opacity: 0; stroke: #d32f2f; stroke-linejoin: miter"/>
     <use xlink:href="#mf3ca312a9f" x="89.491087" y="83.801233" style="fill-opacity: 0; stroke: #d32f2f; stroke-linejoin: miter"/>
     <use xlink:href="#mf3ca312a9f" x="112.70468" y="38.672767" style="fill-opacity: 0; stroke: #d32f2f; stroke-linejoin: miter"/>
     <use xlink:href="#mf3ca312a9f" x="81.702295" y="49.673584" style="fill-opacity: 0; stroke: #d32f2f; stroke-linejoin: miter"/>
     <use xlink:href="#mf3ca312a9f" x="86.321965" y="74.427749" style="fill-opacity: 0; stroke: #d32f2f; stroke-linejoin: miter"/>
     <use xlink:href="#mf3ca312a9f" x="47.206764" y="61.621683" style="fill-opacity: 0; stroke: #d32f2f; stroke-linejoin: miter"/>
     <use xlink:href="#mf3ca312a9f" x="69.785298" y="65.440956" style="fill-opacity: 0; stroke: #d32f2f; stroke-linejoin: miter"/>
     <use xlink:href="#mf3ca312a9f" x="56.172866" y="84.569234" style="fill-opacity: 0; stroke: #d32f2f; stroke-linejoin: miter"/>
     <use xlink:href="#mf3ca312a9f" x="96.460281" y="64.880636" style="fill-opacity: 0; stroke: #d32f2f; stroke-linejoin: miter"/>
     <use xlink:href="#mf3ca312a9f" x="73.074578" y="85.882185" style="fill-opacity: 0; stroke: #d32f2f; stroke-linejoin: miter"/>
     <use xlink:href="#mf3ca312a9f" x="67.773893" y="81.078832" style="fill-opacity: 0; stroke: #d32f2f; stroke-linejoin: miter"/>
     <use xlink:href="#mf3ca312a9f" x="116.095986" y="51.134075" style="fill-opacity: 0; stroke: #d32f2f; stroke-linejoin: miter"/>
     <use xlink:href="#mf3ca312a9f" x="76.63" y="54.361493" style="fill-opacity: 0; stroke: #d32f2f; stroke-linejoin: miter"/>
     <use xlink:href="#mf3ca312a9f" x="76.891486" y="83.88812" style="fill-opacity: 0; stroke: #d32f2f; stroke-linejoin: miter"/>
     <use xlink:href="#mf3ca312a9f" x="71.455544" y="64.766594" style="fill-opacity: 0; stroke: #d32f2f; stroke-linejoin: miter"/>
     <use xlink:href="#mf3ca312a9f" x="92.636343" y="26.564559" style="fill-opacity: 0; stroke: #d32f2f; stroke-linejoin: miter"/>
     <use xlink:href="#mf3ca312a9f" x="92.544715" y="68.473761" style="fill-opacity: 0; stroke: #d32f2f; stroke-linejoin: miter"/>
    </g>
   </g>
   <g id="line2d_10">
    <path d="M 75.90936 84.122835 
L 91.114748 81.909667 
L 85.594596 85.423628 
L 90.61033 80.643164 
L 107.129036 70.461246 
L 93.72966 82.394517 
L 59.430353 74.102809 
L 83.15138 85.292409 
L 124.527273 76.977386 
L 93.67246 69.417043 
L 69.082456 77.381507 
L 23.072727 84.235268 
L 73.063164 85.882185 
L 29.984833 80.445815 
L 79.702914 84.042005 
L 60.746439 81.581502 
L 61.48878 82.731344 
L 84.282878 60.211791 
L 84.020512 85.882185 
L 92.766531 65.990682 
" clip-path="url(#pb3421bd3fb)" style="fill: none"/>
    <defs>
     <path id="m44da97d140" d="M -0 4.242641 
L 4.242641 0 
L 0 -4.242641 
L -0 4.242641 
"/>
    </defs>
    <g clip-path="url(#pb3421bd3fb)">
     <use xlink:href="#m44da97d140" x="75.90936" y="84.122835" style="fill: #1976d2"/>
     <use xlink:href="#m44da97d140" x="91.114748" y="81.909667" style="fill: #1976d2"/>
     <use xlink:href="#m44da97d140" x="85.594596" y="85.423628" style="fill: #1976d2"/>
     <use xlink:href="#m44da97d140" x="90.61033" y="80.643164" style="fill: #1976d2"/>
     <use xlink:href="#m44da97d140" x="107.129036" y="70.461246" style="fill: #1976d2"/>
     <use xlink:href="#m44da97d140" x="93.72966" y="82.394517" style="fill: #1976d2"/>
     <use xlink:href="#m44da97d140" x="59.430353" y="74.102809" style="fill: #1976d2"/>
     <use xlink:href="#m44da97d140" x="83.15138" y="85.292409" style="fill: #1976d2"/>
     <use xlink:href="#m44da97d140" x="124.527273" y="76.977386" style="fill: #1976d2"/>
     <use xlink:href="#m44da97d140" x="93.67246" y="69.417043" style="fill: #1976d2"/>
     <use xlink:href="#m44da97d140" x="69.082456" y="77.381507" style="fill: #1976d2"/>
     <use xlink:href="#m44da97d140" x="23.072727" y="84.235268" style="fill: #1976d2"/>
     <use xlink:href="#m44da97d140" x="73.063164" y="85.882185" style="fill: #1976d2"/>
     <use xlink:href="#m44da97d140" x="29.984833" y="80.445815" style="fill: #1976d2"/>
     <use xlink:href="#m44da97d140" x="79.702914" y="84.042005" style="fill: #1976d2"/>
     <use xlink:href="#m44da97d140" x="60.746439" y="81.581502" style="fill: #1976d2"/>
     <use xlink:href="#m44da97d140" x="61.48878" y="82.731344" style="fill: #1976d2"/>
     <use xlink:href="#m44da97d140" x="84.282878" y="60.211791" style="fill: #1976d2"/>
     <use xlink:href="#m44da97d140" x="84.020512" y="85.882185" style="fill: #1976d2"/>
     <use xlink:href="#m44da97d140" x="92.766531" y="65.990682" style="fill: #1976d2"/>
    </g>
    <defs>
     <path id="m7c996e441f" d="M -0 4.242641 
L -4.242641 -0 
L 0 -4.242641 
L -0 4.242641 
"/>
    </defs>
    <g clip-path="url(#pb3421bd3fb)">
     <use xlink:href="#m7c996e441f" x="75.90936" y="84.122835" style="fill: #ffffff"/>
     <use xlink:href="#m7c996e441f" x="91.114748" y="81.909667" style="fill: #ffffff"/>
     <use xlink:href="#m7c996e441f" x="85.594596" y="85.423628" style="fill: #ffffff"/>
     <use xlink:href="#m7c996e441f" x="90.61033" y="80.643164" style="fill: #ffffff"/>
     <use xlink:href="#m7c996e441f" x="107.129036" y="70.461246" style="fill: #ffffff"/>
     <use xlink:href="#m7c996e441f" x="93.72966" y="82.394517" style="fill: #ffffff"/>
     <use xlink:href="#m7c996e441f" x="59.430353" y="74.102809" style="fill: #ffffff"/>
     <use xlink:href="#m7c996e441f" x="83.15138" y="85.292409" style="fill: #ffffff"/>
     <use xlink:href="#m7c996e441f" x="124.527273" y="76.977386" style="fill: #ffffff"/>
     <use xlink:href="#m7c996e441f" x="93.67246" y="69.417043" style="fill: #ffffff"/>
     <use xlink:href="#m7c996e441f" x="69.082456" y="77.381507" style="fill: #ffffff"/>
     <use xlink:href="#m7c996e441f" x="23.072727" y="84.235268" style="fill: #ffffff"/>
     <use xlink:href="#m7c996e441f" x="73.063164" y="85.882185" style="fill: #ffffff"/>
     <use xlink:href="#m7c996e441f" x="29.984833" y="80.445815" style="fill: #ffffff"/>
     <use xlink:href="#m7c996e441f" x="79.702914" y="84.042005" style="fill: #ffffff"/>
     <use xlink:href="#m7c996e441f" x="60.746439" y="81.581502" style="fill: #ffffff"/>
     <use xlink:href="#m7c996e441f" x="61.48878" y="82.731344" style="fill: #ffffff"/>
     <use xlink:href="#m7c996e441f" x="84.282878" y="60.211791" style="fill: #ffffff"/>
     <use xlink:href="#m7c996e441f" x="84.020512" y="85.882185" style="fill: #ffffff"/>
     <use xlink:href="#m7c996e441f" x="92.766531" y="65.990682" style="fill: #ffffff"/>
    </g>
   </g>
   <g id="line2d_11">
    <path d="M 75.90936 84.122835 
L 91.114748 81.909667 
L 85.594596 85.423628 
L 90.61033 80.643164 
L 107.129036 70.461246 
L 93.72966 82.394517 
L 59.430353 74.102809 
L 83.15138 85.292409 
L 124.527273 76.977386 
L 93.67246 69.417043 
L 69.082456 77.381507 
L 23.072727 84.235268 
L 73.063164 85.882185 
L 29.984833 80.445815 
L 79.702914 84.042005 
L 60.746439 81.581502 
L 61.48878 82.731344 
L 84.282878 60.211791 
L 84.020512 85.882185 
L 92.766531 65.990682 
" clip-path="url(#pb3421bd3fb)" style="fill: none"/>
    <defs>
     <path id="md4d3f15c2c" d="M -0 4.242641 
L 4.242641 0 
L 0 -4.242641 
L -4.242641 -0 
z
" style="stroke: #1976d2; stroke-linejoin: miter"/>
    </defs>
    <g clip-path="url(#pb3421bd3fb)">
     <use xlink:href="#md4d3f15c2c" x="75.90936" y="84.122835" style="fill-opacity: 0; stroke: #1976d2; stroke-linejoin: miter"/>
     <use xlink:href="#md4d3f15c2c" x="91.114748" y="81.909667" style="fill-opacity: 0; stroke: #1976d2; stroke-linejoin: miter"/>
     <use xlink:href="#md4d3f15c2c" x="85.594596" y="85.423628" style="fill-opacity: 0; stroke: #1976d2; stroke-linejoin: miter"/>
     <use xlink:href="#md4d3f15c2c" x="90.61033" y="80.643164" style="fill-opacity: 0; stroke: #1976d2; stroke-linejoin: miter"/>
     <use xlink:href="#md4d3f15c2c" x="107.129036" y="70.461246" style="fill-opacity: 0; stroke: #1976d2; stroke-linejoin: miter"/>
     <use xlink:href="#md4d3f15c2c" x="93.72966" y="82.394517" style="fill-opacity: 0; stroke: #1976d2; stroke-linejoin: miter"/>
     <use xlink:href="#md4d3f15c2c" x="59.430353" y="74.102809" style="fill-opacity: 0; stroke: #1976d2; stroke-linejoin: miter"/>
     <use xlink:href="#md4d3f15c2c" x="83.15138" y="85.292409" style="fill-opacity: 0; stroke: #1976d2; stroke-linejoin: miter"/>
     <use xlink:href="#md4d3f15c2c" x="124.527273" y="76.977386" style="fill-opacity: 0; stroke: #1976d2; stroke-linejoin: miter"/>
     <use xlink:href="#md4d3f15c2c" x="93.67246" y="69.417043" style="fill-opacity: 0; stroke: #1976d2; stroke-linejoin: miter"/>
     <use xlink:href="#md4d3f15c2c" x="69.082456" y="77.381507" style="fill-opacity: 0; stroke: #1976d2; stroke-linejoin: miter"/>
     <use xlink:href="#md4d3f15c2c" x="23.072727" y="84.235268" style="fill-opacity: 0; stroke: #1976d2; stroke-linejoin: miter"/>
     <use xlink:href="#md4d3f15c2c" x="73.063164" y="85.882185" style="fill-opacity: 0; stroke: #1976d2; stroke-linejoin: miter"/>
     <use xlink:href="#md4d3f15c2c" x="29.984833" y="80.445815" style="fill-opacity: 0; stroke: #1976d2; stroke-linejoin: miter"/>
     <use xlink:href="#md4d3f15c2c" x="79.702914" y="84.042005" style="fill-opacity: 0; stroke: #1976d2; stroke-linejoin: miter"/>
     <use xlink:href="#md4d3f15c2c" x="60.746439" y="81.581502" style="fill-opacity: 0; stroke: #1976d2; stroke-linejoin: miter"/>
     <use xlink:href="#md4d3f15c2c" x="61.48878" y="82.731344" style="fill-opacity: 0; stroke: #1976d2; stroke-linejoin: miter"/>
     <use xlink:href="#md4d3f15c2c" x="84.282878" y="60.211791" style="fill-opacity: 0; stroke: #1976d2; stroke-linejoin: miter"/>
     <use xlink:href="#md4d3f15c2c" x="84.020512" y="85.882185" style="fill-opacity: 0; stroke: #1976d2; stroke-linejoin: miter"/>
     <use xlink:href="#md4d3f15c2c" x="92.766531" y="65.990682" style="fill-opacity: 0; stroke: #1976d2; stroke-linejoin: miter"/>
    </g>
   </g>
   <g id="patch_3">
    <path d="M 18 128.16 
L 18 17.28 
" style="fill: none; stroke: #000000; stroke-width: 0.8; stroke-linejoin: miter; stroke-linecap: square"/>
   </g>
   <g id="patch_4">
    <path d="M 18 72.72 
L 129.6 72.72 
" style="fill: none; stroke: #000000; stroke-width: 0.8; stroke-linejoin: miter; stroke-linecap: square"/>
   </g>
   <g id="text_6">
    <!-- CCL3L1: 0.36 -->
    <g transform="translate(33.811875 11.28) scale(0.12 -0.12)">
     <defs>
      <path id="DejaVuSans-43" d="M 4122 4306 
L 4122 3641 
Q 3803 3938 3442 4084 
Q 3081 4231 2675 4231 
Q 1875 4231 1450 3742 
Q 1025 3253 1025 2328 
Q 1025 1406 1450 917 
Q 1875 428 2675 428 
Q 3081 428 3442 575 
Q 3803 722 4122 1019 
L 4122 359 
Q 3791 134 3420 21 
Q 3050 -91 2638 -91 
Q 1578 -91 968 557 
Q 359 1206 359 2328 
Q 359 3453 968 4101 
Q 1578 4750 2638 4750 
Q 3056 4750 3426 4639 
Q 3797 4528 4122 4306 
z
" transform="scale(0.015625)"/>
      <path id="DejaVuSans-4c" d="M 628 4666 
L 1259 4666 
L 1259 531 
L 3531 531 
L 3531 0 
L 628 0 
L 628 4666 
z
" transform="scale(0.015625)"/>
      <path id="DejaVuSans-33" d="M 2597 2516 
Q 3050 2419 3304 2112 
Q 3559 1806 3559 1356 
Q 3559 666 3084 287 
Q 2609 -91 1734 -91 
Q 1441 -91 1130 -33 
Q 819 25 488 141 
L 488 750 
Q 750 597 1062 519 
Q 1375 441 1716 441 
Q 2309 441 2620 675 
Q 2931 909 2931 1356 
Q 2931 1769 2642 2001 
Q 2353 2234 1838 2234 
L 1294 2234 
L 1294 2753 
L 1863 2753 
Q 2328 2753 2575 2939 
Q 2822 3125 2822 3475 
Q 2822 3834 2567 4026 
Q 2313 4219 1838 4219 
Q 1578 4219 1281 4162 
Q 984 4106 628 3988 
L 628 4550 
Q 988 4650 1302 4700 
Q 1616 4750 1894 4750 
Q 2613 4750 3031 4423 
Q 3450 4097 3450 3541 
Q 3450 3153 3228 2886 
Q 3006 2619 2597 2516 
z
" transform="scale(0.015625)"/>
      <path id="DejaVuSans-31" d="M 794 531 
L 1825 531 
L 1825 4091 
L 703 3866 
L 703 4441 
L 1819 4666 
L 2450 4666 
L 2450 531 
L 3481 531 
L 3481 0 
L 794 0 
L 794 531 
z
" transform="scale(0.015625)"/>
      <path id="DejaVuSans-3a" d="M 750 794 
L 1409 794 
L 1409 0 
L 750 0 
L 750 794 
z
M 750 3309 
L 1409 3309 
L 1409 2516 
L 750 2516 
L 750 3309 
z
" transform="scale(0.015625)"/>
      <path id="DejaVuSans-20" transform="scale(0.015625)"/>
      <path id="DejaVuSans-2e" d="M 684 794 
L 1344 794 
L 1344 0 
L 684 0 
L 684 794 
z
" transform="scale(0.015625)"/>
      <path id="DejaVuSans-36" d="M 2113 2584 
Q 1688 2584 1439 2293 
Q 1191 2003 1191 1497 
Q 1191 994 1439 701 
Q 1688 409 2113 409 
Q 2538 409 2786 701 
Q 3034 994 3034 1497 
Q 3034 2003 2786 2293 
Q 2538 2584 2113 2584 
z
M 3366 4563 
L 3366 3988 
Q 3128 4100 2886 4159 
Q 2644 4219 2406 4219 
Q 1781 4219 1451 3797 
Q 1122 3375 1075 2522 
Q 1259 2794 1537 2939 
Q 1816 3084 2150 3084 
Q 2853 3084 3261 2657 
Q 3669 2231 3669 1497 
Q 3669 778 3244 343 
Q 2819 -91 2113 -91 
Q 1303 -91 875 529 
Q 447 1150 447 2328 
Q 447 3434 972 4092 
Q 1497 4750 2381 4750 
Q 2619 4750 2861 4703 
Q 3103 4656 3366 4563 
z
" transform="scale(0.015625)"/>
     </defs>
     <use xlink:href="#DejaVuSans-43"/>
     <use xlink:href="#DejaVuSans-43" transform="translate(69.824219 0)"/>
     <use xlink:href="#DejaVuSans-4c" transform="translate(139.648438 0)"/>
     <use xlink:href="#DejaVuSans-33" transform="translate(195.361328 0)"/>
     <use xlink:href="#DejaVuSans-4c" transform="translate(258.984375 0)"/>
     <use xlink:href="#DejaVuSans-31" transform="translate(314.697266 0)"/>
     <use xlink:href="#DejaVuSans-3a" transform="translate(378.320312 0)"/>
     <use xlink:href="#DejaVuSans-20" transform="translate(412.011719 0)"/>
     <use xlink:href="#DejaVuSans-30" transform="translate(443.798828 0)"/>
     <use xlink:href="#DejaVuSans-2e" transform="translate(507.421875 0)"/>
     <use xlink:href="#DejaVuSans-33" transform="translate(539.208984 0)"/>
     <use xlink:href="#DejaVuSans-36" transform="translate(602.832031 0)"/>
    </g>
   </g>
  </g>
 </g>
 <defs>
  <clipPath id="pb3421bd3fb">
   <rect x="18" y="17.28" width="111.6" height="110.88"/>
  </clipPath>
 </defs>
</svg>
