<?xml version="1.0" encoding="utf-8" standalone="no"?>
<!DOCTYPE svg PUBLIC "-//W3C//DTD SVG 1.1//EN"
  "http://www.w3.org/Graphics/SVG/1.1/DTD/svg11.dtd">
<svg xmlns:xlink="http://www.w3.org/1999/xlink" width="144pt" height="144pt" viewBox="0 0 144 144" xmlns="http://www.w3.org/2000/svg" version="1.1">
 <metadata>
  <rdf:RDF xmlns:dc="http://purl.org/dc/elements/1.1/" xmlns:cc="http://creativecommons.org/ns#" xmlns:rdf="http://www.w3.org/1999/02/22-rdf-syntax-ns#">
   <cc:Work>
    <dc:type rdf:resource="http://purl.org/dc/dcmitype/StillImage"/>
    <dc:date>2025-09-29T11:59:43.249081</dc:date>
    <dc:format>image/svg+xml</dc:format>
    <dc:creator>
     <cc:Agent>
      <dc:title>Matplotlib v3.10.6, https://matplotlib.org/</dc:title>
     </cc:Agent>
    </dc:creator>
   </cc:Work>
  </rdf:RDF>
 </metadata>
 <defs>
  <style type="text/css">*{stroke-linejoin: round; stroke-linecap: butt}</style>
 </defs>
 <g id="figure_1">
  <g id="patch_1">
   <path d="M 0 144 
L 144 144 
L 144 0 
L 0 0 
z
" style="fill: #ffffff"/>
  </g>
  <g id="axes_1">
   <g id="patch_2">
    <path d="M 18 128.16 
L 129.6 128.16 
L 129.6 17.28 
L 18 17.28 
z
" style="fill: #ffffff"/>
   </g>
   <g id="matplotlib.axis_1">
    <g id="xtick_1">
     <g id="line2d_1">
      <defs>
       <path id="m60f93f8065" d="M 0 0 
L 0 3.5 
" style="stroke: #000000; stroke-width: 0.8"/>
      </defs>
      <g>
       <use xlink:href="#m60f93f8065" x="31.750472" y="72.72" style="stroke: #000000; stroke-width: 0.8"/>
      </g>
     </g>
    </g>
    <g id="xtick_2">
     <g id="line2d_2">
      <g>
       <use xlink:href="#m60f93f8065" x="122.9874" y="72.72" style="stroke: #000000; stroke-width: 0.8"/>
      </g>
     </g>
    </g>
   </g>
   <g id="matplotlib.axis_2">
    <g id="ytick_1">
     <g id="line2d_3">
      <defs>
       <path id="mddb0833942" d="M 0 0 
L -3.5 0 
" style="stroke: #000000; stroke-width: 0.8"/>
      </defs>
      <g>
       <use xlink:href="#mddb0833942" x="18" y="128.16" style="stroke: #000000; stroke-width: 0.8"/>
      </g>
     </g>
     <g id="text_1">
      <!-- −4 -->
      <g transform="translate(-3.742188 131.959219) scale(0.1 -0.1)">
       <defs>
        <path id="DejaVuSans-2212" d="M 678 2272 
L 4684 2272 
L 4684 1741 
L 678 1741 
L 678 2272 
z
" transform="scale(0.015625)"/>
        <path id="DejaVuSans-34" d="M 2419 4116 
L 825 1625 
L 2419 1625 
L 2419 4116 
z
M 2253 4666 
L 3047 4666 
L 3047 1625 
L 3713 1625 
L 3713 1100 
L 3047 1100 
L 3047 0 
L 2419 0 
L 2419 1100 
L 313 1100 
L 313 1709 
L 2253 4666 
z
" transform="scale(0.015625)"/>
       </defs>
       <use xlink:href="#DejaVuSans-2212"/>
       <use xlink:href="#DejaVuSans-34" transform="translate(83.789062 0)"/>
      </g>
     </g>
    </g>
    <g id="ytick_2">
     <g id="line2d_4">
      <g>
       <use xlink:href="#mddb0833942" x="18" y="100.44" style="stroke: #000000; stroke-width: 0.8"/>
      </g>
     </g>
     <g id="text_2">
      <!-- −2 -->
      <g transform="translate(-3.742188 104.239219) scale(0.1 -0.1)">
       <defs>
        <path id="DejaVuSans-32" d="M 1228 531 
L 3431 531 
L 3431 0 
L 469 0 
L 469 531 
Q 828 903 1448 1529 
Q 2069 2156 2228 2338 
Q 2531 2678 2651 2914 
Q 2772 3150 2772 3378 
Q 2772 3750 2511 3984 
Q 2250 4219 1831 4219 
Q 1534 4219 1204 4116 
Q 875 4013 500 3803 
L 500 4441 
Q 881 4594 1212 4672 
Q 1544 4750 1819 4750 
Q 2544 4750 2975 4387 
Q 3406 4025 3406 3419 
Q 3406 3131 3298 2873 
Q 3191 2616 2906 2266 
Q 2828 2175 2409 1742 
Q 1991 1309 1228 531 
z
" transform="scale(0.015625)"/>
       </defs>
       <use xlink:href="#DejaVuSans-2212"/>
       <use xlink:href="#DejaVuSans-32" transform="translate(83.789062 0)"/>
      </g>
     </g>
    </g>
    <g id="ytick_3">
     <g id="line2d_5">
      <g>
       <use xlink:href="#mddb0833942" x="18" y="72.72" style="stroke: #000000; stroke-width: 0.8"/>
      </g>
     </g>
     <g id="text_3">
      <!-- 0 -->
      <g transform="translate(4.6375 76.519219) scale(0.1 -0.1)">
       <defs>
        <path id="DejaVuSans-30" d="M 2034 4250 
Q 1547 4250 1301 3770 
Q 1056 3291 1056 2328 
Q 1056 1369 1301 889 
Q 1547 409 2034 409 
Q 2525 409 2770 889 
Q 3016 1369 3016 2328 
Q 3016 3291 2770 3770 
Q 2525 4250 2034 4250 
z
M 2034 4750 
Q 2819 4750 3233 4129 
Q 3647 3509 3647 2328 
Q 3647 1150 3233 529 
Q 2819 -91 2034 -91 
Q 1250 -91 836 529 
Q 422 1150 422 2328 
Q 422 3509 836 4129 
Q 1250 4750 2034 4750 
z
" transform="scale(0.015625)"/>
       </defs>
       <use xlink:href="#DejaVuSans-30"/>
      </g>
     </g>
    </g>
    <g id="ytick_4">
     <g id="line2d_6">
      <g>
       <use xlink:href="#mddb0833942" x="18" y="45" style="stroke: #000000; stroke-width: 0.8"/>
      </g>
     </g>
     <g id="text_4">
      <!-- 2 -->
      <g transform="translate(4.6375 48.799219) scale(0.1 -0.1)">
       <use xlink:href="#DejaVuSans-32"/>
      </g>
     </g>
    </g>
    <g id="ytick_5">
     <g id="line2d_7">
      <g>
       <use xlink:href="#mddb0833942" x="18" y="17.28" style="stroke: #000000; stroke-width: 0.8"/>
      </g>
     </g>
     <g id="text_5">
      <!-- 4 -->
      <g transform="translate(4.6375 21.079219) scale(0.1 -0.1)">
       <use xlink:href="#DejaVuSans-34"/>
      </g>
     </g>
    </g>
   </g>
   <g id="line2d_8">
    <path d="M 84.972984 72.670703 
L 62.234606 87.206962 
L 83.037454 75.59107 
L 101.883063 68.275978 
L 98.396564 60.59943 
L 89.491087 78.636199 
L 112.70468 66.130868 
L 81.702295 61.385593 
L 86.321965 82.526033 
L 47.206764 90.473959 
L 69.785298 74.232307 
L 56.172866 89.615722 
L 96.460281 63.02617 
L 73.074578 63.559903 
L 67.773893 76.782331 
L 116.095986 53.190761 
L 76.63 79.074808 
L 76.891486 81.979799 
L 71.455544 82.569533 
L 92.636343 53.43136 
L 92.544715 83.02758 
" clip-path="url(#p4564f01b5e)" style="fill: none"/>
    <defs>
     <path id="mb6f5a85c88" d="M 0 -4.242641 
L -4.242641 -0 
L -0 4.242641 
L 0 -4.242641 
"/>
    </defs>
    <g clip-path="url(#p4564f01b5e)">
     <use xlink:href="#mb6f5a85c88" x="84.972984" y="72.670703" style="fill: #d32f2f"/>
     <use xlink:href="#mb6f5a85c88" x="62.234606" y="87.206962" style="fill: #d32f2f"/>
     <use xlink:href="#mb6f5a85c88" x="83.037454" y="75.59107" style="fill: #d32f2f"/>
     <use xlink:href="#mb6f5a85c88" x="101.883063" y="68.275978" style="fill: #d32f2f"/>
     <use xlink:href="#mb6f5a85c88" x="98.396564" y="60.59943" style="fill: #d32f2f"/>
     <use xlink:href="#mb6f5a85c88" x="89.491087" y="78.636199" style="fill: #d32f2f"/>
     <use xlink:href="#mb6f5a85c88" x="112.70468" y="66.130868" style="fill: #d32f2f"/>
     <use xlink:href="#mb6f5a85c88" x="81.702295" y="61.385593" style="fill: #d32f2f"/>
     <use xlink:href="#mb6f5a85c88" x="86.321965" y="82.526033" style="fill: #d32f2f"/>
     <use xlink:href="#mb6f5a85c88" x="47.206764" y="90.473959" style="fill: #d32f2f"/>
     <use xlink:href="#mb6f5a85c88" x="69.785298" y="74.232307" style="fill: #d32f2f"/>
     <use xlink:href="#mb6f5a85c88" x="56.172866" y="89.615722" style="fill: #d32f2f"/>
     <use xlink:href="#mb6f5a85c88" x="96.460281" y="63.02617" style="fill: #d32f2f"/>
     <use xlink:href="#mb6f5a85c88" x="73.074578" y="63.559903" style="fill: #d32f2f"/>
     <use xlink:href="#mb6f5a85c88" x="67.773893" y="76.782331" style="fill: #d32f2f"/>
     <use xlink:href="#mb6f5a85c88" x="116.095986" y="53.190761" style="fill: #d32f2f"/>
     <use xlink:href="#mb6f5a85c88" x="76.63" y="79.074808" style="fill: #d32f2f"/>
     <use xlink:href="#mb6f5a85c88" x="76.891486" y="81.979799" style="fill: #d32f2f"/>
     <use xlink:href="#mb6f5a85c88" x="71.455544" y="82.569533" style="fill: #d32f2f"/>
     <use xlink:href="#mb6f5a85c88" x="92.636343" y="53.43136" style="fill: #d32f2f"/>
     <use xlink:href="#mb6f5a85c88" x="92.544715" y="83.02758" style="fill: #d32f2f"/>
    </g>
    <defs>
     <path id="m345d4afccd" d="M 0 -4.242641 
L 4.242641 0 
L -0 4.242641 
L 0 -4.242641 
"/>
    </defs>
    <g clip-path="url(#p4564f01b5e)">
     <use xlink:href="#m345d4afccd" x="84.972984" y="72.670703" style="fill: #ffffff"/>
     <use xlink:href="#m345d4afccd" x="62.234606" y="87.206962" style="fill: #ffffff"/>
     <use xlink:href="#m345d4afccd" x="83.037454" y="75.59107" style="fill: #ffffff"/>
     <use xlink:href="#m345d4afccd" x="101.883063" y="68.275978" style="fill: #ffffff"/>
     <use xlink:href="#m345d4afccd" x="98.396564" y="60.59943" style="fill: #ffffff"/>
     <use xlink:href="#m345d4afccd" x="89.491087" y="78.636199" style="fill: #ffffff"/>
     <use xlink:href="#m345d4afccd" x="112.70468" y="66.130868" style="fill: #ffffff"/>
     <use xlink:href="#m345d4afccd" x="81.702295" y="61.385593" style="fill: #ffffff"/>
     <use xlink:href="#m345d4afccd" x="86.321965" y="82.526033" style="fill: #ffffff"/>
     <use xlink:href="#m345d4afccd" x="47.206764" y="90.473959" style="fill: #ffffff"/>
     <use xlink:href="#m345d4afccd" x="69.785298" y="74.232307" style="fill: #ffffff"/>
     <use xlink:href="#m345d4afccd" x="56.172866" y="89.615722" style="fill: #ffffff"/>
     <use xlink:href="#m345d4afccd" x="96.460281" y="63.02617" style="fill: #ffffff"/>
     <use xlink:href="#m345d4afccd" x="73.074578" y="63.559903" style="fill: #ffffff"/>
     <use xlink:href="#m345d4afccd" x="67.773893" y="76.782331" style="fill: #ffffff"/>
     <use xlink:href="#m345d4afccd" x="116.095986" y="53.190761" style="fill: #ffffff"/>
     <use xlink:href="#m345d4afccd" x="76.63" y="79.074808" style="fill: #ffffff"/>
     <use xlink:href="#m345d4afccd" x="76.891486" y="81.979799" style="fill: #ffffff"/>
     <use xlink:href="#m345d4afccd" x="71.455544" y="82.569533" style="fill: #ffffff"/>
     <use xlink:href="#m345d4afccd" x="92.636343" y="53.43136" style="fill: #ffffff"/>
     <use xlink:href="#m345d4afccd" x="92.544715" y="83.02758" style="fill: #ffffff"/>
    </g>
   </g>
   <g id="line2d_9">
    <path d="M 84.972984 72.670703 
L 62.234606 87.206962 
L 83.037454 75.59107 
L 101.883063 68.275978 
L 98.396564 60.59943 
L 89.491087 78.636199 
L 112.70468 66.130868 
L 81.702295 61.385593 
L 86.321965 82.526033 
L 47.206764 90.473959 
L 69.785298 74.232307 
L 56.172866 89.615722 
L 96.460281 63.02617 
L 73.074578 63.559903 
L 67.773893 76.782331 
L 116.095986 53.190761 
L 76.63 79.074808 
L 76.891486 81.979799 
L 71.455544 82.569533 
L 92.636343 53.43136 
L 92.544715 83.02758 
" clip-path="url(#p4564f01b5e)" style="fill: none"/>
    <defs>
     <path id="m9caa11e146" d="M -0 4.242641 
L 4.242641 0 
L 0 -4.242641 
L -4.242641 -0 
z
" style="stroke: #d32f2f; stroke-linejoin: miter"/>
    </defs>
    <g clip-path="url(#p4564f01b5e)">
     <use xlink:href="#m9caa11e146" x="84.972984" y="72.670703" style="fill-opacity: 0; stroke: #d32f2f; stroke-linejoin: miter"/>
     <use xlink:href="#m9caa11e146" x="62.234606" y="87.206962" style="fill-opacity: 0; stroke: #d32f2f; stroke-linejoin: miter"/>
     <use xlink:href="#m9caa11e146" x="83.037454" y="75.59107" style="fill-opacity: 0; stroke: #d32f2f; stroke-linejoin: miter"/>
     <use xlink:href="#m9caa11e146" x="101.883063" y="68.275978" style="fill-opacity: 0; stroke: #d32f2f; stroke-linejoin: miter"/>
     <use xlink:href="#m9caa11e146" x="98.396564" y="60.59943" style="fill-opacity: 0; stroke: #d32f2f; stroke-linejoin: miter"/>
     <use xlink:href="#m9caa11e146" x="89.491087" y="78.636199" style="fill-opacity: 0; stroke: #d32f2f; stroke-linejoin: miter"/>
     <use xlink:href="#m9caa11e146" x="112.70468" y="66.130868" style="fill-opacity: 0; stroke: #d32f2f; stroke-linejoin: miter"/>
     <use xlink:href="#m9caa11e146" x="81.702295" y="61.385593" style="fill-opacity: 0; stroke: #d32f2f; stroke-linejoin: miter"/>
     <use xlink:href="#m9caa11e146" x="86.321965" y="82.526033" style="fill-opacity: 0; stroke: #d32f2f; stroke-linejoin: miter"/>
     <use xlink:href="#m9caa11e146" x="47.206764" y="90.473959" style="fill-opacity: 0; stroke: #d32f2f; stroke-linejoin: miter"/>
     <use xlink:href="#m9caa11e146" x="69.785298" y="74.232307" style="fill-opacity: 0; stroke: #d32f2f; stroke-linejoin: miter"/>
     <use xlink:href="#m9caa11e146" x="56.172866" y="89.615722" style="fill-opacity: 0; stroke: #d32f2f; stroke-linejoin: miter"/>
     <use xlink:href="#m9caa11e146" x="96.460281" y="63.02617" style="fill-opacity: 0; stroke: #d32f2f; stroke-linejoin: miter"/>
     <use xlink:href="#m9caa11e146" x="73.074578" y="63.559903" style="fill-opacity: 0; stroke: #d32f2f; stroke-linejoin: miter"/>
     <use xlink:href="#m9caa11e146" x="67.773893" y="76.782331" style="fill-opacity: 0; stroke: #d32f2f; stroke-linejoin: miter"/>
     <use xlink:href="#m9caa11e146" x="116.095986" y="53.190761" style="fill-opacity: 0; stroke: #d32f2f; stroke-linejoin: miter"/>
     <use xlink:href="#m9caa11e146" x="76.63" y="79.074808" style="fill-opacity: 0; stroke: #d32f2f; stroke-linejoin: miter"/>
     <use xlink:href="#m9caa11e146" x="76.891486" y="81.979799" style="fill-opacity: 0; stroke: #d32f2f; stroke-linejoin: miter"/>
     <use xlink:href="#m9caa11e146" x="71.455544" y="82.569533" style="fill-opacity: 0; stroke: #d32f2f; stroke-linejoin: miter"/>
     <use xlink:href="#m9caa11e146" x="92.636343" y="53.43136" style="fill-opacity: 0; stroke: #d32f2f; stroke-linejoin: miter"/>
     <use xlink:href="#m9caa11e146" x="92.544715" y="83.02758" style="fill-opacity: 0; stroke: #d32f2f; stroke-linejoin: miter"/>
    </g>
   </g>
   <g id="line2d_10">
    <path d="M 75.90936 68.931417 
L 91.114748 63.677085 
L 85.594596 84.07912 
L 90.61033 54.194165 
L 107.129036 71.162519 
L 93.72966 82.826731 
L 59.430353 84.382777 
L 83.15138 70.902236 
L 124.527273 49.915646 
L 93.67246 40.793341 
L 69.082456 80.855205 
L 23.072727 111.367391 
L 73.063164 61.819155 
L 29.984833 94.837938 
L 79.702914 79.911602 
L 60.746439 78.35103 
L 61.48878 67.96161 
L 84.282878 52.54716 
L 84.020512 75.116954 
L 92.766531 63.89985 
" clip-path="url(#p4564f01b5e)" style="fill: none"/>
    <defs>
     <path id="m003c493970" d="M -0 4.242641 
L 4.242641 0 
L 0 -4.242641 
L -0 4.242641 
"/>
    </defs>
    <g clip-path="url(#p4564f01b5e)">
     <use xlink:href="#m003c493970" x="75.90936" y="68.931417" style="fill: #1976d2"/>
     <use xlink:href="#m003c493970" x="91.114748" y="63.677085" style="fill: #1976d2"/>
     <use xlink:href="#m003c493970" x="85.594596" y="84.07912" style="fill: #1976d2"/>
     <use xlink:href="#m003c493970" x="90.61033" y="54.194165" style="fill: #1976d2"/>
     <use xlink:href="#m003c493970" x="107.129036" y="71.162519" style="fill: #1976d2"/>
     <use xlink:href="#m003c493970" x="93.72966" y="82.826731" style="fill: #1976d2"/>
     <use xlink:href="#m003c493970" x="59.430353" y="84.382777" style="fill: #1976d2"/>
     <use xlink:href="#m003c493970" x="83.15138" y="70.902236" style="fill: #1976d2"/>
     <use xlink:href="#m003c493970" x="124.527273" y="49.915646" style="fill: #1976d2"/>
     <use xlink:href="#m003c493970" x="93.67246" y="40.793341" style="fill: #1976d2"/>
     <use xlink:href="#m003c493970" x="69.082456" y="80.855205" style="fill: #1976d2"/>
     <use xlink:href="#m003c493970" x="23.072727" y="111.367391" style="fill: #1976d2"/>
     <use xlink:href="#m003c493970" x="73.063164" y="61.819155" style="fill: #1976d2"/>
     <use xlink:href="#m003c493970" x="29.984833" y="94.837938" style="fill: #1976d2"/>
     <use xlink:href="#m003c493970" x="79.702914" y="79.911602" style="fill: #1976d2"/>
     <use xlink:href="#m003c493970" x="60.746439" y="78.35103" style="fill: #1976d2"/>
     <use xlink:href="#m003c493970" x="61.48878" y="67.96161" style="fill: #1976d2"/>
     <use xlink:href="#m003c493970" x="84.282878" y="52.54716" style="fill: #1976d2"/>
     <use xlink:href="#m003c493970" x="84.020512" y="75.116954" style="fill: #1976d2"/>
     <use xlink:href="#m003c493970" x="92.766531" y="63.89985" style="fill: #1976d2"/>
    </g>
    <defs>
     <path id="mdb3724983e" d="M -0 4.242641 
L -4.242641 -0 
L 0 -4.242641 
L -0 4.242641 
"/>
    </defs>
    <g clip-path="url(#p4564f01b5e)">
     <use xlink:href="#mdb3724983e" x="75.90936" y="68.931417" style="fill: #ffffff"/>
     <use xlink:href="#mdb3724983e" x="91.114748" y="63.677085" style="fill: #ffffff"/>
     <use xlink:href="#mdb3724983e" x="85.594596" y="84.07912" style="fill: #ffffff"/>
     <use xlink:href="#mdb3724983e" x="90.61033" y="54.194165" style="fill: #ffffff"/>
     <use xlink:href="#mdb3724983e" x="107.129036" y="71.162519" style="fill: #ffffff"/>
     <use xlink:href="#mdb3724983e" x="93.72966" y="82.826731" style="fill: #ffffff"/>
     <use xlink:href="#mdb3724983e" x="59.430353" y="84.382777" style="fill: #ffffff"/>
     <use xlink:href="#mdb3724983e" x="83.15138" y="70.902236" style="fill: #ffffff"/>
     <use xlink:href="#mdb3724983e" x="124.527273" y="49.915646" style="fill: #ffffff"/>
     <use xlink:href="#mdb3724983e" x="93.67246" y="40.793341" style="fill: #ffffff"/>
     <use xlink:href="#mdb3724983e" x="69.082456" y="80.855205" style="fill: #ffffff"/>
     <use xlink:href="#mdb3724983e" x="23.072727" y="111.367391" style="fill: #ffffff"/>
     <use xlink:href="#mdb3724983e" x="73.063164" y="61.819155" style="fill: #ffffff"/>
     <use xlink:href="#mdb3724983e" x="29.984833" y="94.837938" style="fill: #ffffff"/>
     <use xlink:href="#mdb3724983e" x="79.702914" y="79.911602" style="fill: #ffffff"/>
     <use xlink:href="#mdb3724983e" x="60.746439" y="78.35103" style="fill: #ffffff"/>
     <use xlink:href="#mdb3724983e" x="61.48878" y="67.96161" style="fill: #ffffff"/>
     <use xlink:href="#mdb3724983e" x="84.282878" y="52.54716" style="fill: #ffffff"/>
     <use xlink:href="#mdb3724983e" x="84.020512" y="75.116954" style="fill: #ffffff"/>
     <use xlink:href="#mdb3724983e" x="92.766531" y="63.89985" style="fill: #ffffff"/>
    </g>
   </g>
   <g id="line2d_11">
    <path d="M 75.90936 68.931417 
L 91.114748 63.677085 
L 85.594596 84.07912 
L 90.61033 54.194165 
L 107.129036 71.162519 
L 93.72966 82.826731 
L 59.430353 84.382777 
L 83.15138 70.902236 
L 124.527273 49.915646 
L 93.67246 40.793341 
L 69.082456 80.855205 
L 23.072727 111.367391 
L 73.063164 61.819155 
L 29.984833 94.837938 
L 79.702914 79.911602 
L 60.746439 78.35103 
L 61.48878 67.96161 
L 84.282878 52.54716 
L 84.020512 75.116954 
L 92.766531 63.89985 
" clip-path="url(#p4564f01b5e)" style="fill: none"/>
    <defs>
     <path id="med9238583d" d="M -0 4.242641 
L 4.242641 0 
L 0 -4.242641 
L -4.242641 -0 
z
" style="stroke: #1976d2; stroke-linejoin: miter"/>
    </defs>
    <g clip-path="url(#p4564f01b5e)">
     <use xlink:href="#med9238583d" x="75.90936" y="68.931417" style="fill-opacity: 0; stroke: #1976d2; stroke-linejoin: miter"/>
     <use xlink:href="#med9238583d" x="91.114748" y="63.677085" style="fill-opacity: 0; stroke: #1976d2; stroke-linejoin: miter"/>
     <use xlink:href="#med9238583d" x="85.594596" y="84.07912" style="fill-opacity: 0; stroke: #1976d2; stroke-linejoin: miter"/>
     <use xlink:href="#med9238583d" x="90.61033" y="54.194165" style="fill-opacity: 0; stroke: #1976d2; stroke-linejoin: miter"/>
     <use xlink:href="#med9238583d" x="107.129036" y="71.162519" style="fill-opacity: 0; stroke: #1976d2; stroke-linejoin: miter"/>
     <use xlink:href="#med9238583d" x="93.72966" y="82.826731" style="fill-opacity: 0; stroke: #1976d2; stroke-linejoin: miter"/>
     <use xlink:href="#med9238583d" x="59.430353" y="84.382777" style="fill-opacity: 0; stroke: #1976d2; stroke-linejoin: miter"/>
     <use xlink:href="#med9238583d" x="83.15138" y="70.902236" style="fill-opacity: 0; stroke: #1976d2; stroke-linejoin: miter"/>
     <use xlink:href="#med9238583d" x="124.527273" y="49.915646" style="fill-opacity: 0; stroke: #1976d2; stroke-linejoin: miter"/>
     <use xlink:href="#med9238583d" x="93.67246" y="40.793341" style="fill-opacity: 0; stroke: #1976d2; stroke-linejoin: miter"/>
     <use xlink:href="#med9238583d" x="69.082456" y="80.855205" style="fill-opacity: 0; stroke: #1976d2; stroke-linejoin: miter"/>
     <use xlink:href="#med9238583d" x="23.072727" y="111.367391" style="fill-opacity: 0; stroke: #1976d2; stroke-linejoin: miter"/>
     <use xlink:href="#med9238583d" x="73.063164" y="61.819155" style="fill-opacity: 0; stroke: #1976d2; stroke-linejoin: miter"/>
     <use xlink:href="#med9238583d" x="29.984833" y="94.837938" style="fill-opacity: 0; stroke: #1976d2; stroke-linejoin: miter"/>
     <use xlink:href="#med9238583d" x="79.702914" y="79.911602" style="fill-opacity: 0; stroke: #1976d2; stroke-linejoin: miter"/>
     <use xlink:href="#med9238583d" x="60.746439" y="78.35103" style="fill-opacity: 0; stroke: #1976d2; stroke-linejoin: miter"/>
     <use xlink:href="#med9238583d" x="61.48878" y="67.96161" style="fill-opacity: 0; stroke: #1976d2; stroke-linejoin: miter"/>
     <use xlink:href="#med9238583d" x="84.282878" y="52.54716" style="fill-opacity: 0; stroke: #1976d2; stroke-linejoin: miter"/>
     <use xlink:href="#med9238583d" x="84.020512" y="75.116954" style="fill-opacity: 0; stroke: #1976d2; stroke-linejoin: miter"/>
     <use xlink:href="#med9238583d" x="92.766531" y="63.89985" style="fill-opacity: 0; stroke: #1976d2; stroke-linejoin: miter"/>
    </g>
   </g>
   <g id="patch_3">
    <path d="M 18 128.16 
L 18 17.28 
" style="fill: none; stroke: #000000; stroke-width: 0.8; stroke-linejoin: miter; stroke-linecap: square"/>
   </g>
   <g id="patch_4">
    <path d="M 18 72.72 
L 129.6 72.72 
" style="fill: none; stroke: #000000; stroke-width: 0.8; stroke-linejoin: miter; stroke-linecap: square"/>
   </g>
   <g id="text_6">
    <!-- CCL5: 0.61 -->
    <g transform="translate(40.9725 11.28) scale(0.12 -0.12)">
     <defs>
      <path id="DejaVuSans-43" d="M 4122 4306 
L 4122 3641 
Q 3803 3938 3442 4084 
Q 3081 4231 2675 4231 
Q 1875 4231 1450 3742 
Q 1025 3253 1025 2328 
Q 1025 1406 1450 917 
Q 1875 428 2675 428 
Q 3081 428 3442 575 
Q 3803 722 4122 1019 
L 4122 359 
Q 3791 134 3420 21 
Q 3050 -91 2638 -91 
Q 1578 -91 968 557 
Q 359 1206 359 2328 
Q 359 3453 968 4101 
Q 1578 4750 2638 4750 
Q 3056 4750 3426 4639 
Q 3797 4528 4122 4306 
z
" transform="scale(0.015625)"/>
      <path id="DejaVuSans-4c" d="M 628 4666 
L 1259 4666 
L 1259 531 
L 3531 531 
L 3531 0 
L 628 0 
L 628 4666 
z
" transform="scale(0.015625)"/>
      <path id="DejaVuSans-35" d="M 691 4666 
L 3169 4666 
L 3169 4134 
L 1269 4134 
L 1269 2991 
Q 1406 3038 1543 3061 
Q 1681 3084 1819 3084 
Q 2600 3084 3056 2656 
Q 3513 2228 3513 1497 
Q 3513 744 3044 326 
Q 2575 -91 1722 -91 
Q 1428 -91 1123 -41 
Q 819 9 494 109 
L 494 744 
Q 775 591 1075 516 
Q 1375 441 1709 441 
Q 2250 441 2565 725 
Q 2881 1009 2881 1497 
Q 2881 1984 2565 2268 
Q 2250 2553 1709 2553 
Q 1456 2553 1204 2497 
Q 953 2441 691 2322 
L 691 4666 
z
" transform="scale(0.015625)"/>
      <path id="DejaVuSans-3a" d="M 750 794 
L 1409 794 
L 1409 0 
L 750 0 
L 750 794 
z
M 750 3309 
L 1409 3309 
L 1409 2516 
L 750 2516 
L 750 3309 
z
" transform="scale(0.015625)"/>
      <path id="DejaVuSans-20" transform="scale(0.015625)"/>
      <path id="DejaVuSans-2e" d="M 684 794 
L 1344 794 
L 1344 0 
L 684 0 
L 684 794 
z
" transform="scale(0.015625)"/>
      <path id="DejaVuSans-36" d="M 2113 2584 
Q 1688 2584 1439 2293 
Q 1191 2003 1191 1497 
Q 1191 994 1439 701 
Q 1688 409 2113 409 
Q 2538 409 2786 701 
Q 3034 994 3034 1497 
Q 3034 2003 2786 2293 
Q 2538 2584 2113 2584 
z
M 3366 4563 
L 3366 3988 
Q 3128 4100 2886 4159 
Q 2644 4219 2406 4219 
Q 1781 4219 1451 3797 
Q 1122 3375 1075 2522 
Q 1259 2794 1537 2939 
Q 1816 3084 2150 3084 
Q 2853 3084 3261 2657 
Q 3669 2231 3669 1497 
Q 3669 778 3244 343 
Q 2819 -91 2113 -91 
Q 1303 -91 875 529 
Q 447 1150 447 2328 
Q 447 3434 972 4092 
Q 1497 4750 2381 4750 
Q 2619 4750 2861 4703 
Q 3103 4656 3366 4563 
z
" transform="scale(0.015625)"/>
      <path id="DejaVuSans-31" d="M 794 531 
L 1825 531 
L 1825 4091 
L 703 3866 
L 703 4441 
L 1819 4666 
L 2450 4666 
L 2450 531 
L 3481 531 
L 3481 0 
L 794 0 
L 794 531 
z
" transform="scale(0.015625)"/>
     </defs>
     <use xlink:href="#DejaVuSans-43"/>
     <use xlink:href="#DejaVuSans-43" transform="translate(69.824219 0)"/>
     <use xlink:href="#DejaVuSans-4c" transform="translate(139.648438 0)"/>
     <use xlink:href="#DejaVuSans-35" transform="translate(195.361328 0)"/>
     <use xlink:href="#DejaVuSans-3a" transform="translate(258.984375 0)"/>
     <use xlink:href="#DejaVuSans-20" transform="translate(292.675781 0)"/>
     <use xlink:href="#DejaVuSans-30" transform="translate(324.462891 0)"/>
     <use xlink:href="#DejaVuSans-2e" transform="translate(388.085938 0)"/>
     <use xlink:href="#DejaVuSans-36" transform="translate(419.873047 0)"/>
     <use xlink:href="#DejaVuSans-31" transform="translate(483.496094 0)"/>
    </g>
   </g>
  </g>
 </g>
 <defs>
  <clipPath id="p4564f01b5e">
   <rect x="18" y="17.28" width="111.6" height="110.88"/>
  </clipPath>
 </defs>
</svg>
