<?xml version="1.0" encoding="utf-8" standalone="no"?>
<!DOCTYPE svg PUBLIC "-//W3C//DTD SVG 1.1//EN"
  "http://www.w3.org/Graphics/SVG/1.1/DTD/svg11.dtd">
<svg xmlns:xlink="http://www.w3.org/1999/xlink" width="144pt" height="144pt" viewBox="0 0 144 144" xmlns="http://www.w3.org/2000/svg" version="1.1">
 <metadata>
  <rdf:RDF xmlns:dc="http://purl.org/dc/elements/1.1/" xmlns:cc="http://creativecommons.org/ns#" xmlns:rdf="http://www.w3.org/1999/02/22-rdf-syntax-ns#">
   <cc:Work>
    <dc:type rdf:resource="http://purl.org/dc/dcmitype/StillImage"/>
    <dc:date>2025-09-29T11:59:43.708624</dc:date>
    <dc:format>image/svg+xml</dc:format>
    <dc:creator>
     <cc:Agent>
      <dc:title>Matplotlib v3.10.6, https://matplotlib.org/</dc:title>
     </cc:Agent>
    </dc:creator>
   </cc:Work>
  </rdf:RDF>
 </metadata>
 <defs>
  <style type="text/css">*{stroke-linejoin: round; stroke-linecap: butt}</style>
 </defs>
 <g id="figure_1">
  <g id="patch_1">
   <path d="M 0 144 
L 144 144 
L 144 0 
L 0 0 
z
" style="fill: #ffffff"/>
  </g>
  <g id="axes_1">
   <g id="patch_2">
    <path d="M 18 128.16 
L 129.6 128.16 
L 129.6 17.28 
L 18 17.28 
z
" style="fill: #ffffff"/>
   </g>
   <g id="matplotlib.axis_1">
    <g id="xtick_1">
     <g id="line2d_1">
      <defs>
       <path id="ma579cd9e23" d="M 0 0 
L 0 3.5 
" style="stroke: #000000; stroke-width: 0.8"/>
      </defs>
      <g>
       <use xlink:href="#ma579cd9e23" x="31.750472" y="72.72" style="stroke: #000000; stroke-width: 0.8"/>
      </g>
     </g>
    </g>
    <g id="xtick_2">
     <g id="line2d_2">
      <g>
       <use xlink:href="#ma579cd9e23" x="122.9874" y="72.72" style="stroke: #000000; stroke-width: 0.8"/>
      </g>
     </g>
    </g>
   </g>
   <g id="matplotlib.axis_2">
    <g id="ytick_1">
     <g id="line2d_3">
      <defs>
       <path id="m981d8ea6f5" d="M 0 0 
L -3.5 0 
" style="stroke: #000000; stroke-width: 0.8"/>
      </defs>
      <g>
       <use xlink:href="#m981d8ea6f5" x="18" y="128.16" style="stroke: #000000; stroke-width: 0.8"/>
      </g>
     </g>
     <g id="text_1">
      <!-- −4 -->
      <g transform="translate(-3.742188 131.959219) scale(0.1 -0.1)">
       <defs>
        <path id="DejaVuSans-2212" d="M 678 2272 
L 4684 2272 
L 4684 1741 
L 678 1741 
L 678 2272 
z
" transform="scale(0.015625)"/>
        <path id="DejaVuSans-34" d="M 2419 4116 
L 825 1625 
L 2419 1625 
L 2419 4116 
z
M 2253 4666 
L 3047 4666 
L 3047 1625 
L 3713 1625 
L 3713 1100 
L 3047 1100 
L 3047 0 
L 2419 0 
L 2419 1100 
L 313 1100 
L 313 1709 
L 2253 4666 
z
" transform="scale(0.015625)"/>
       </defs>
       <use xlink:href="#DejaVuSans-2212"/>
       <use xlink:href="#DejaVuSans-34" transform="translate(83.789062 0)"/>
      </g>
     </g>
    </g>
    <g id="ytick_2">
     <g id="line2d_4">
      <g>
       <use xlink:href="#m981d8ea6f5" x="18" y="100.44" style="stroke: #000000; stroke-width: 0.8"/>
      </g>
     </g>
     <g id="text_2">
      <!-- −2 -->
      <g transform="translate(-3.742188 104.239219) scale(0.1 -0.1)">
       <defs>
        <path id="DejaVuSans-32" d="M 1228 531 
L 3431 531 
L 3431 0 
L 469 0 
L 469 531 
Q 828 903 1448 1529 
Q 2069 2156 2228 2338 
Q 2531 2678 2651 2914 
Q 2772 3150 2772 3378 
Q 2772 3750 2511 3984 
Q 2250 4219 1831 4219 
Q 1534 4219 1204 4116 
Q 875 4013 500 3803 
L 500 4441 
Q 881 4594 1212 4672 
Q 1544 4750 1819 4750 
Q 2544 4750 2975 4387 
Q 3406 4025 3406 3419 
Q 3406 3131 3298 2873 
Q 3191 2616 2906 2266 
Q 2828 2175 2409 1742 
Q 1991 1309 1228 531 
z
" transform="scale(0.015625)"/>
       </defs>
       <use xlink:href="#DejaVuSans-2212"/>
       <use xlink:href="#DejaVuSans-32" transform="translate(83.789062 0)"/>
      </g>
     </g>
    </g>
    <g id="ytick_3">
     <g id="line2d_5">
      <g>
       <use xlink:href="#m981d8ea6f5" x="18" y="72.72" style="stroke: #000000; stroke-width: 0.8"/>
      </g>
     </g>
     <g id="text_3">
      <!-- 0 -->
      <g transform="translate(4.6375 76.519219) scale(0.1 -0.1)">
       <defs>
        <path id="DejaVuSans-30" d="M 2034 4250 
Q 1547 4250 1301 3770 
Q 1056 3291 1056 2328 
Q 1056 1369 1301 889 
Q 1547 409 2034 409 
Q 2525 409 2770 889 
Q 3016 1369 3016 2328 
Q 3016 3291 2770 3770 
Q 2525 4250 2034 4250 
z
M 2034 4750 
Q 2819 4750 3233 4129 
Q 3647 3509 3647 2328 
Q 3647 1150 3233 529 
Q 2819 -91 2034 -91 
Q 1250 -91 836 529 
Q 422 1150 422 2328 
Q 422 3509 836 4129 
Q 1250 4750 2034 4750 
z
" transform="scale(0.015625)"/>
       </defs>
       <use xlink:href="#DejaVuSans-30"/>
      </g>
     </g>
    </g>
    <g id="ytick_4">
     <g id="line2d_6">
      <g>
       <use xlink:href="#m981d8ea6f5" x="18" y="45" style="stroke: #000000; stroke-width: 0.8"/>
      </g>
     </g>
     <g id="text_4">
      <!-- 2 -->
      <g transform="translate(4.6375 48.799219) scale(0.1 -0.1)">
       <use xlink:href="#DejaVuSans-32"/>
      </g>
     </g>
    </g>
    <g id="ytick_5">
     <g id="line2d_7">
      <g>
       <use xlink:href="#m981d8ea6f5" x="18" y="17.28" style="stroke: #000000; stroke-width: 0.8"/>
      </g>
     </g>
     <g id="text_5">
      <!-- 4 -->
      <g transform="translate(4.6375 21.079219) scale(0.1 -0.1)">
       <use xlink:href="#DejaVuSans-34"/>
      </g>
     </g>
    </g>
   </g>
   <g id="line2d_8">
    <path d="M 84.972984 77.265752 
L 62.234606 79.754585 
L 83.037454 75.116888 
L 101.883063 54.730949 
L 98.396564 63.350008 
L 89.491087 75.617476 
L 112.70468 62.19959 
L 81.702295 68.968458 
L 86.321965 73.769513 
L 47.206764 79.017886 
L 69.785298 62.552696 
L 56.172866 75.632436 
L 96.460281 79.730967 
L 73.074578 67.336396 
L 67.773893 80.101573 
L 116.095986 72.917359 
L 76.63 119.361126 
L 76.891486 83.175887 
L 71.455544 74.500945 
L 92.636343 38.964672 
L 92.544715 61.113953 
" clip-path="url(#p667f787695)" style="fill: none"/>
    <defs>
     <path id="m8cbe71b942" d="M 0 -4.242641 
L -4.242641 -0 
L -0 4.242641 
L 0 -4.242641 
"/>
    </defs>
    <g clip-path="url(#p667f787695)">
     <use xlink:href="#m8cbe71b942" x="84.972984" y="77.265752" style="fill: #d32f2f"/>
     <use xlink:href="#m8cbe71b942" x="62.234606" y="79.754585" style="fill: #d32f2f"/>
     <use xlink:href="#m8cbe71b942" x="83.037454" y="75.116888" style="fill: #d32f2f"/>
     <use xlink:href="#m8cbe71b942" x="101.883063" y="54.730949" style="fill: #d32f2f"/>
     <use xlink:href="#m8cbe71b942" x="98.396564" y="63.350008" style="fill: #d32f2f"/>
     <use xlink:href="#m8cbe71b942" x="89.491087" y="75.617476" style="fill: #d32f2f"/>
     <use xlink:href="#m8cbe71b942" x="112.70468" y="62.19959" style="fill: #d32f2f"/>
     <use xlink:href="#m8cbe71b942" x="81.702295" y="68.968458" style="fill: #d32f2f"/>
     <use xlink:href="#m8cbe71b942" x="86.321965" y="73.769513" style="fill: #d32f2f"/>
     <use xlink:href="#m8cbe71b942" x="47.206764" y="79.017886" style="fill: #d32f2f"/>
     <use xlink:href="#m8cbe71b942" x="69.785298" y="62.552696" style="fill: #d32f2f"/>
     <use xlink:href="#m8cbe71b942" x="56.172866" y="75.632436" style="fill: #d32f2f"/>
     <use xlink:href="#m8cbe71b942" x="96.460281" y="79.730967" style="fill: #d32f2f"/>
     <use xlink:href="#m8cbe71b942" x="73.074578" y="67.336396" style="fill: #d32f2f"/>
     <use xlink:href="#m8cbe71b942" x="67.773893" y="80.101573" style="fill: #d32f2f"/>
     <use xlink:href="#m8cbe71b942" x="116.095986" y="72.917359" style="fill: #d32f2f"/>
     <use xlink:href="#m8cbe71b942" x="76.63" y="119.361126" style="fill: #d32f2f"/>
     <use xlink:href="#m8cbe71b942" x="76.891486" y="83.175887" style="fill: #d32f2f"/>
     <use xlink:href="#m8cbe71b942" x="71.455544" y="74.500945" style="fill: #d32f2f"/>
     <use xlink:href="#m8cbe71b942" x="92.636343" y="38.964672" style="fill: #d32f2f"/>
     <use xlink:href="#m8cbe71b942" x="92.544715" y="61.113953" style="fill: #d32f2f"/>
    </g>
    <defs>
     <path id="m06caa93ac6" d="M 0 -4.242641 
L 4.242641 0 
L -0 4.242641 
L 0 -4.242641 
"/>
    </defs>
    <g clip-path="url(#p667f787695)">
     <use xlink:href="#m06caa93ac6" x="84.972984" y="77.265752" style="fill: #ffffff"/>
     <use xlink:href="#m06caa93ac6" x="62.234606" y="79.754585" style="fill: #ffffff"/>
     <use xlink:href="#m06caa93ac6" x="83.037454" y="75.116888" style="fill: #ffffff"/>
     <use xlink:href="#m06caa93ac6" x="101.883063" y="54.730949" style="fill: #ffffff"/>
     <use xlink:href="#m06caa93ac6" x="98.396564" y="63.350008" style="fill: #ffffff"/>
     <use xlink:href="#m06caa93ac6" x="89.491087" y="75.617476" style="fill: #ffffff"/>
     <use xlink:href="#m06caa93ac6" x="112.70468" y="62.19959" style="fill: #ffffff"/>
     <use xlink:href="#m06caa93ac6" x="81.702295" y="68.968458" style="fill: #ffffff"/>
     <use xlink:href="#m06caa93ac6" x="86.321965" y="73.769513" style="fill: #ffffff"/>
     <use xlink:href="#m06caa93ac6" x="47.206764" y="79.017886" style="fill: #ffffff"/>
     <use xlink:href="#m06caa93ac6" x="69.785298" y="62.552696" style="fill: #ffffff"/>
     <use xlink:href="#m06caa93ac6" x="56.172866" y="75.632436" style="fill: #ffffff"/>
     <use xlink:href="#m06caa93ac6" x="96.460281" y="79.730967" style="fill: #ffffff"/>
     <use xlink:href="#m06caa93ac6" x="73.074578" y="67.336396" style="fill: #ffffff"/>
     <use xlink:href="#m06caa93ac6" x="67.773893" y="80.101573" style="fill: #ffffff"/>
     <use xlink:href="#m06caa93ac6" x="116.095986" y="72.917359" style="fill: #ffffff"/>
     <use xlink:href="#m06caa93ac6" x="76.63" y="119.361126" style="fill: #ffffff"/>
     <use xlink:href="#m06caa93ac6" x="76.891486" y="83.175887" style="fill: #ffffff"/>
     <use xlink:href="#m06caa93ac6" x="71.455544" y="74.500945" style="fill: #ffffff"/>
     <use xlink:href="#m06caa93ac6" x="92.636343" y="38.964672" style="fill: #ffffff"/>
     <use xlink:href="#m06caa93ac6" x="92.544715" y="61.113953" style="fill: #ffffff"/>
    </g>
   </g>
   <g id="line2d_9">
    <path d="M 84.972984 77.265752 
L 62.234606 79.754585 
L 83.037454 75.116888 
L 101.883063 54.730949 
L 98.396564 63.350008 
L 89.491087 75.617476 
L 112.70468 62.19959 
L 81.702295 68.968458 
L 86.321965 73.769513 
L 47.206764 79.017886 
L 69.785298 62.552696 
L 56.172866 75.632436 
L 96.460281 79.730967 
L 73.074578 67.336396 
L 67.773893 80.101573 
L 116.095986 72.917359 
L 76.63 119.361126 
L 76.891486 83.175887 
L 71.455544 74.500945 
L 92.636343 38.964672 
L 92.544715 61.113953 
" clip-path="url(#p667f787695)" style="fill: none"/>
    <defs>
     <path id="m2cb7fda4a6" d="M -0 4.242641 
L 4.242641 0 
L 0 -4.242641 
L -4.242641 -0 
z
" style="stroke: #d32f2f; stroke-linejoin: miter"/>
    </defs>
    <g clip-path="url(#p667f787695)">
     <use xlink:href="#m2cb7fda4a6" x="84.972984" y="77.265752" style="fill-opacity: 0; stroke: #d32f2f; stroke-linejoin: miter"/>
     <use xlink:href="#m2cb7fda4a6" x="62.234606" y="79.754585" style="fill-opacity: 0; stroke: #d32f2f; stroke-linejoin: miter"/>
     <use xlink:href="#m2cb7fda4a6" x="83.037454" y="75.116888" style="fill-opacity: 0; stroke: #d32f2f; stroke-linejoin: miter"/>
     <use xlink:href="#m2cb7fda4a6" x="101.883063" y="54.730949" style="fill-opacity: 0; stroke: #d32f2f; stroke-linejoin: miter"/>
     <use xlink:href="#m2cb7fda4a6" x="98.396564" y="63.350008" style="fill-opacity: 0; stroke: #d32f2f; stroke-linejoin: miter"/>
     <use xlink:href="#m2cb7fda4a6" x="89.491087" y="75.617476" style="fill-opacity: 0; stroke: #d32f2f; stroke-linejoin: miter"/>
     <use xlink:href="#m2cb7fda4a6" x="112.70468" y="62.19959" style="fill-opacity: 0; stroke: #d32f2f; stroke-linejoin: miter"/>
     <use xlink:href="#m2cb7fda4a6" x="81.702295" y="68.968458" style="fill-opacity: 0; stroke: #d32f2f; stroke-linejoin: miter"/>
     <use xlink:href="#m2cb7fda4a6" x="86.321965" y="73.769513" style="fill-opacity: 0; stroke: #d32f2f; stroke-linejoin: miter"/>
     <use xlink:href="#m2cb7fda4a6" x="47.206764" y="79.017886" style="fill-opacity: 0; stroke: #d32f2f; stroke-linejoin: miter"/>
     <use xlink:href="#m2cb7fda4a6" x="69.785298" y="62.552696" style="fill-opacity: 0; stroke: #d32f2f; stroke-linejoin: miter"/>
     <use xlink:href="#m2cb7fda4a6" x="56.172866" y="75.632436" style="fill-opacity: 0; stroke: #d32f2f; stroke-linejoin: miter"/>
     <use xlink:href="#m2cb7fda4a6" x="96.460281" y="79.730967" style="fill-opacity: 0; stroke: #d32f2f; stroke-linejoin: miter"/>
     <use xlink:href="#m2cb7fda4a6" x="73.074578" y="67.336396" style="fill-opacity: 0; stroke: #d32f2f; stroke-linejoin: miter"/>
     <use xlink:href="#m2cb7fda4a6" x="67.773893" y="80.101573" style="fill-opacity: 0; stroke: #d32f2f; stroke-linejoin: miter"/>
     <use xlink:href="#m2cb7fda4a6" x="116.095986" y="72.917359" style="fill-opacity: 0; stroke: #d32f2f; stroke-linejoin: miter"/>
     <use xlink:href="#m2cb7fda4a6" x="76.63" y="119.361126" style="fill-opacity: 0; stroke: #d32f2f; stroke-linejoin: miter"/>
     <use xlink:href="#m2cb7fda4a6" x="76.891486" y="83.175887" style="fill-opacity: 0; stroke: #d32f2f; stroke-linejoin: miter"/>
     <use xlink:href="#m2cb7fda4a6" x="71.455544" y="74.500945" style="fill-opacity: 0; stroke: #d32f2f; stroke-linejoin: miter"/>
     <use xlink:href="#m2cb7fda4a6" x="92.636343" y="38.964672" style="fill-opacity: 0; stroke: #d32f2f; stroke-linejoin: miter"/>
     <use xlink:href="#m2cb7fda4a6" x="92.544715" y="61.113953" style="fill-opacity: 0; stroke: #d32f2f; stroke-linejoin: miter"/>
    </g>
   </g>
   <g id="line2d_10">
    <path d="M 75.90936 80.487553 
L 91.114748 79.901951 
L 85.594596 91.586423 
L 90.61033 64.722933 
L 107.129036 59.270524 
L 93.72966 65.585879 
L 59.430353 73.917129 
L 83.15138 58.257899 
L 124.527273 61.587067 
L 93.67246 61.070831 
L 69.082456 88.231697 
L 23.072727 82.858066 
L 73.063164 66.642062 
L 29.984833 72.171759 
L 79.702914 71.243445 
L 60.746439 72.803731 
L 61.48878 62.844344 
L 84.282878 52.55862 
L 84.020512 89.138487 
L 92.766531 101.460485 
" clip-path="url(#p667f787695)" style="fill: none"/>
    <defs>
     <path id="m49d2177c86" d="M -0 4.242641 
L 4.242641 0 
L 0 -4.242641 
L -0 4.242641 
"/>
    </defs>
    <g clip-path="url(#p667f787695)">
     <use xlink:href="#m49d2177c86" x="75.90936" y="80.487553" style="fill: #1976d2"/>
     <use xlink:href="#m49d2177c86" x="91.114748" y="79.901951" style="fill: #1976d2"/>
     <use xlink:href="#m49d2177c86" x="85.594596" y="91.586423" style="fill: #1976d2"/>
     <use xlink:href="#m49d2177c86" x="90.61033" y="64.722933" style="fill: #1976d2"/>
     <use xlink:href="#m49d2177c86" x="107.129036" y="59.270524" style="fill: #1976d2"/>
     <use xlink:href="#m49d2177c86" x="93.72966" y="65.585879" style="fill: #1976d2"/>
     <use xlink:href="#m49d2177c86" x="59.430353" y="73.917129" style="fill: #1976d2"/>
     <use xlink:href="#m49d2177c86" x="83.15138" y="58.257899" style="fill: #1976d2"/>
     <use xlink:href="#m49d2177c86" x="124.527273" y="61.587067" style="fill: #1976d2"/>
     <use xlink:href="#m49d2177c86" x="93.67246" y="61.070831" style="fill: #1976d2"/>
     <use xlink:href="#m49d2177c86" x="69.082456" y="88.231697" style="fill: #1976d2"/>
     <use xlink:href="#m49d2177c86" x="23.072727" y="82.858066" style="fill: #1976d2"/>
     <use xlink:href="#m49d2177c86" x="73.063164" y="66.642062" style="fill: #1976d2"/>
     <use xlink:href="#m49d2177c86" x="29.984833" y="72.171759" style="fill: #1976d2"/>
     <use xlink:href="#m49d2177c86" x="79.702914" y="71.243445" style="fill: #1976d2"/>
     <use xlink:href="#m49d2177c86" x="60.746439" y="72.803731" style="fill: #1976d2"/>
     <use xlink:href="#m49d2177c86" x="61.48878" y="62.844344" style="fill: #1976d2"/>
     <use xlink:href="#m49d2177c86" x="84.282878" y="52.55862" style="fill: #1976d2"/>
     <use xlink:href="#m49d2177c86" x="84.020512" y="89.138487" style="fill: #1976d2"/>
     <use xlink:href="#m49d2177c86" x="92.766531" y="101.460485" style="fill: #1976d2"/>
    </g>
    <defs>
     <path id="m3fcce43bc5" d="M -0 4.242641 
L -4.242641 -0 
L 0 -4.242641 
L -0 4.242641 
"/>
    </defs>
    <g clip-path="url(#p667f787695)">
     <use xlink:href="#m3fcce43bc5" x="75.90936" y="80.487553" style="fill: #ffffff"/>
     <use xlink:href="#m3fcce43bc5" x="91.114748" y="79.901951" style="fill: #ffffff"/>
     <use xlink:href="#m3fcce43bc5" x="85.594596" y="91.586423" style="fill: #ffffff"/>
     <use xlink:href="#m3fcce43bc5" x="90.61033" y="64.722933" style="fill: #ffffff"/>
     <use xlink:href="#m3fcce43bc5" x="107.129036" y="59.270524" style="fill: #ffffff"/>
     <use xlink:href="#m3fcce43bc5" x="93.72966" y="65.585879" style="fill: #ffffff"/>
     <use xlink:href="#m3fcce43bc5" x="59.430353" y="73.917129" style="fill: #ffffff"/>
     <use xlink:href="#m3fcce43bc5" x="83.15138" y="58.257899" style="fill: #ffffff"/>
     <use xlink:href="#m3fcce43bc5" x="124.527273" y="61.587067" style="fill: #ffffff"/>
     <use xlink:href="#m3fcce43bc5" x="93.67246" y="61.070831" style="fill: #ffffff"/>
     <use xlink:href="#m3fcce43bc5" x="69.082456" y="88.231697" style="fill: #ffffff"/>
     <use xlink:href="#m3fcce43bc5" x="23.072727" y="82.858066" style="fill: #ffffff"/>
     <use xlink:href="#m3fcce43bc5" x="73.063164" y="66.642062" style="fill: #ffffff"/>
     <use xlink:href="#m3fcce43bc5" x="29.984833" y="72.171759" style="fill: #ffffff"/>
     <use xlink:href="#m3fcce43bc5" x="79.702914" y="71.243445" style="fill: #ffffff"/>
     <use xlink:href="#m3fcce43bc5" x="60.746439" y="72.803731" style="fill: #ffffff"/>
     <use xlink:href="#m3fcce43bc5" x="61.48878" y="62.844344" style="fill: #ffffff"/>
     <use xlink:href="#m3fcce43bc5" x="84.282878" y="52.55862" style="fill: #ffffff"/>
     <use xlink:href="#m3fcce43bc5" x="84.020512" y="89.138487" style="fill: #ffffff"/>
     <use xlink:href="#m3fcce43bc5" x="92.766531" y="101.460485" style="fill: #ffffff"/>
    </g>
   </g>
   <g id="line2d_11">
    <path d="M 75.90936 80.487553 
L 91.114748 79.901951 
L 85.594596 91.586423 
L 90.61033 64.722933 
L 107.129036 59.270524 
L 93.72966 65.585879 
L 59.430353 73.917129 
L 83.15138 58.257899 
L 124.527273 61.587067 
L 93.67246 61.070831 
L 69.082456 88.231697 
L 23.072727 82.858066 
L 73.063164 66.642062 
L 29.984833 72.171759 
L 79.702914 71.243445 
L 60.746439 72.803731 
L 61.48878 62.844344 
L 84.282878 52.55862 
L 84.020512 89.138487 
L 92.766531 101.460485 
" clip-path="url(#p667f787695)" style="fill: none"/>
    <defs>
     <path id="ma8d05be11b" d="M -0 4.242641 
L 4.242641 0 
L 0 -4.242641 
L -4.242641 -0 
z
" style="stroke: #1976d2; stroke-linejoin: miter"/>
    </defs>
    <g clip-path="url(#p667f787695)">
     <use xlink:href="#ma8d05be11b" x="75.90936" y="80.487553" style="fill-opacity: 0; stroke: #1976d2; stroke-linejoin: miter"/>
     <use xlink:href="#ma8d05be11b" x="91.114748" y="79.901951" style="fill-opacity: 0; stroke: #1976d2; stroke-linejoin: miter"/>
     <use xlink:href="#ma8d05be11b" x="85.594596" y="91.586423" style="fill-opacity: 0; stroke: #1976d2; stroke-linejoin: miter"/>
     <use xlink:href="#ma8d05be11b" x="90.61033" y="64.722933" style="fill-opacity: 0; stroke: #1976d2; stroke-linejoin: miter"/>
     <use xlink:href="#ma8d05be11b" x="107.129036" y="59.270524" style="fill-opacity: 0; stroke: #1976d2; stroke-linejoin: miter"/>
     <use xlink:href="#ma8d05be11b" x="93.72966" y="65.585879" style="fill-opacity: 0; stroke: #1976d2; stroke-linejoin: miter"/>
     <use xlink:href="#ma8d05be11b" x="59.430353" y="73.917129" style="fill-opacity: 0; stroke: #1976d2; stroke-linejoin: miter"/>
     <use xlink:href="#ma8d05be11b" x="83.15138" y="58.257899" style="fill-opacity: 0; stroke: #1976d2; stroke-linejoin: miter"/>
     <use xlink:href="#ma8d05be11b" x="124.527273" y="61.587067" style="fill-opacity: 0; stroke: #1976d2; stroke-linejoin: miter"/>
     <use xlink:href="#ma8d05be11b" x="93.67246" y="61.070831" style="fill-opacity: 0; stroke: #1976d2; stroke-linejoin: miter"/>
     <use xlink:href="#ma8d05be11b" x="69.082456" y="88.231697" style="fill-opacity: 0; stroke: #1976d2; stroke-linejoin: miter"/>
     <use xlink:href="#ma8d05be11b" x="23.072727" y="82.858066" style="fill-opacity: 0; stroke: #1976d2; stroke-linejoin: miter"/>
     <use xlink:href="#ma8d05be11b" x="73.063164" y="66.642062" style="fill-opacity: 0; stroke: #1976d2; stroke-linejoin: miter"/>
     <use xlink:href="#ma8d05be11b" x="29.984833" y="72.171759" style="fill-opacity: 0; stroke: #1976d2; stroke-linejoin: miter"/>
     <use xlink:href="#ma8d05be11b" x="79.702914" y="71.243445" style="fill-opacity: 0; stroke: #1976d2; stroke-linejoin: miter"/>
     <use xlink:href="#ma8d05be11b" x="60.746439" y="72.803731" style="fill-opacity: 0; stroke: #1976d2; stroke-linejoin: miter"/>
     <use xlink:href="#ma8d05be11b" x="61.48878" y="62.844344" style="fill-opacity: 0; stroke: #1976d2; stroke-linejoin: miter"/>
     <use xlink:href="#ma8d05be11b" x="84.282878" y="52.55862" style="fill-opacity: 0; stroke: #1976d2; stroke-linejoin: miter"/>
     <use xlink:href="#ma8d05be11b" x="84.020512" y="89.138487" style="fill-opacity: 0; stroke: #1976d2; stroke-linejoin: miter"/>
     <use xlink:href="#ma8d05be11b" x="92.766531" y="101.460485" style="fill-opacity: 0; stroke: #1976d2; stroke-linejoin: miter"/>
    </g>
   </g>
   <g id="patch_3">
    <path d="M 18 128.16 
L 18 17.28 
" style="fill: none; stroke: #000000; stroke-width: 0.8; stroke-linejoin: miter; stroke-linecap: square"/>
   </g>
   <g id="patch_4">
    <path d="M 18 72.72 
L 129.6 72.72 
" style="fill: none; stroke: #000000; stroke-width: 0.8; stroke-linejoin: miter; stroke-linecap: square"/>
   </g>
   <g id="text_6">
    <!-- CD9: 0.39 -->
    <g transform="translate(43.885312 11.28) scale(0.12 -0.12)">
     <defs>
      <path id="DejaVuSans-43" d="M 4122 4306 
L 4122 3641 
Q 3803 3938 3442 4084 
Q 3081 4231 2675 4231 
Q 1875 4231 1450 3742 
Q 1025 3253 1025 2328 
Q 1025 1406 1450 917 
Q 1875 428 2675 428 
Q 3081 428 3442 575 
Q 3803 722 4122 1019 
L 4122 359 
Q 3791 134 3420 21 
Q 3050 -91 2638 -91 
Q 1578 -91 968 557 
Q 359 1206 359 2328 
Q 359 3453 968 4101 
Q 1578 4750 2638 4750 
Q 3056 4750 3426 4639 
Q 3797 4528 4122 4306 
z
" transform="scale(0.015625)"/>
      <path id="DejaVuSans-44" d="M 1259 4147 
L 1259 519 
L 2022 519 
Q 2988 519 3436 956 
Q 3884 1394 3884 2338 
Q 3884 3275 3436 3711 
Q 2988 4147 2022 4147 
L 1259 4147 
z
M 628 4666 
L 1925 4666 
Q 3281 4666 3915 4102 
Q 4550 3538 4550 2338 
Q 4550 1131 3912 565 
Q 3275 0 1925 0 
L 628 0 
L 628 4666 
z
" transform="scale(0.015625)"/>
      <path id="DejaVuSans-39" d="M 703 97 
L 703 672 
Q 941 559 1184 500 
Q 1428 441 1663 441 
Q 2288 441 2617 861 
Q 2947 1281 2994 2138 
Q 2813 1869 2534 1725 
Q 2256 1581 1919 1581 
Q 1219 1581 811 2004 
Q 403 2428 403 3163 
Q 403 3881 828 4315 
Q 1253 4750 1959 4750 
Q 2769 4750 3195 4129 
Q 3622 3509 3622 2328 
Q 3622 1225 3098 567 
Q 2575 -91 1691 -91 
Q 1453 -91 1209 -44 
Q 966 3 703 97 
z
M 1959 2075 
Q 2384 2075 2632 2365 
Q 2881 2656 2881 3163 
Q 2881 3666 2632 3958 
Q 2384 4250 1959 4250 
Q 1534 4250 1286 3958 
Q 1038 3666 1038 3163 
Q 1038 2656 1286 2365 
Q 1534 2075 1959 2075 
z
" transform="scale(0.015625)"/>
      <path id="DejaVuSans-3a" d="M 750 794 
L 1409 794 
L 1409 0 
L 750 0 
L 750 794 
z
M 750 3309 
L 1409 3309 
L 1409 2516 
L 750 2516 
L 750 3309 
z
" transform="scale(0.015625)"/>
      <path id="DejaVuSans-20" transform="scale(0.015625)"/>
      <path id="DejaVuSans-2e" d="M 684 794 
L 1344 794 
L 1344 0 
L 684 0 
L 684 794 
z
" transform="scale(0.015625)"/>
      <path id="DejaVuSans-33" d="M 2597 2516 
Q 3050 2419 3304 2112 
Q 3559 1806 3559 1356 
Q 3559 666 3084 287 
Q 2609 -91 1734 -91 
Q 1441 -91 1130 -33 
Q 819 25 488 141 
L 488 750 
Q 750 597 1062 519 
Q 1375 441 1716 441 
Q 2309 441 2620 675 
Q 2931 909 2931 1356 
Q 2931 1769 2642 2001 
Q 2353 2234 1838 2234 
L 1294 2234 
L 1294 2753 
L 1863 2753 
Q 2328 2753 2575 2939 
Q 2822 3125 2822 3475 
Q 2822 3834 2567 4026 
Q 2313 4219 1838 4219 
Q 1578 4219 1281 4162 
Q 984 4106 628 3988 
L 628 4550 
Q 988 4650 1302 4700 
Q 1616 4750 1894 4750 
Q 2613 4750 3031 4423 
Q 3450 4097 3450 3541 
Q 3450 3153 3228 2886 
Q 3006 2619 2597 2516 
z
" transform="scale(0.015625)"/>
     </defs>
     <use xlink:href="#DejaVuSans-43"/>
     <use xlink:href="#DejaVuSans-44" transform="translate(69.824219 0)"/>
     <use xlink:href="#DejaVuSans-39" transform="translate(146.826172 0)"/>
     <use xlink:href="#DejaVuSans-3a" transform="translate(210.449219 0)"/>
     <use xlink:href="#DejaVuSans-20" transform="translate(244.140625 0)"/>
     <use xlink:href="#DejaVuSans-30" transform="translate(275.927734 0)"/>
     <use xlink:href="#DejaVuSans-2e" transform="translate(339.550781 0)"/>
     <use xlink:href="#DejaVuSans-33" transform="translate(371.337891 0)"/>
     <use xlink:href="#DejaVuSans-39" transform="translate(434.960938 0)"/>
    </g>
   </g>
  </g>
 </g>
 <defs>
  <clipPath id="p667f787695">
   <rect x="18" y="17.28" width="111.6" height="110.88"/>
  </clipPath>
 </defs>
</svg>
