<?xml version="1.0" encoding="utf-8" standalone="no"?>
<!DOCTYPE svg PUBLIC "-//W3C//DTD SVG 1.1//EN"
  "http://www.w3.org/Graphics/SVG/1.1/DTD/svg11.dtd">
<svg xmlns:xlink="http://www.w3.org/1999/xlink" width="144pt" height="144pt" viewBox="0 0 144 144" xmlns="http://www.w3.org/2000/svg" version="1.1">
 <metadata>
  <rdf:RDF xmlns:dc="http://purl.org/dc/elements/1.1/" xmlns:cc="http://creativecommons.org/ns#" xmlns:rdf="http://www.w3.org/1999/02/22-rdf-syntax-ns#">
   <cc:Work>
    <dc:type rdf:resource="http://purl.org/dc/dcmitype/StillImage"/>
    <dc:date>2025-09-29T11:59:44.004838</dc:date>
    <dc:format>image/svg+xml</dc:format>
    <dc:creator>
     <cc:Agent>
      <dc:title>Matplotlib v3.10.6, https://matplotlib.org/</dc:title>
     </cc:Agent>
    </dc:creator>
   </cc:Work>
  </rdf:RDF>
 </metadata>
 <defs>
  <style type="text/css">*{stroke-linejoin: round; stroke-linecap: butt}</style>
 </defs>
 <g id="figure_1">
  <g id="patch_1">
   <path d="M 0 144 
L 144 144 
L 144 0 
L 0 0 
z
" style="fill: #ffffff"/>
  </g>
  <g id="axes_1">
   <g id="patch_2">
    <path d="M 18 128.16 
L 129.6 128.16 
L 129.6 17.28 
L 18 17.28 
z
" style="fill: #ffffff"/>
   </g>
   <g id="matplotlib.axis_1">
    <g id="xtick_1">
     <g id="line2d_1">
      <defs>
       <path id="m4e873b11c5" d="M 0 0 
L 0 3.5 
" style="stroke: #000000; stroke-width: 0.8"/>
      </defs>
      <g>
       <use xlink:href="#m4e873b11c5" x="31.750472" y="72.72" style="stroke: #000000; stroke-width: 0.8"/>
      </g>
     </g>
    </g>
    <g id="xtick_2">
     <g id="line2d_2">
      <g>
       <use xlink:href="#m4e873b11c5" x="122.9874" y="72.72" style="stroke: #000000; stroke-width: 0.8"/>
      </g>
     </g>
    </g>
   </g>
   <g id="matplotlib.axis_2">
    <g id="ytick_1">
     <g id="line2d_3">
      <defs>
       <path id="me08e3630e3" d="M 0 0 
L -3.5 0 
" style="stroke: #000000; stroke-width: 0.8"/>
      </defs>
      <g>
       <use xlink:href="#me08e3630e3" x="18" y="128.16" style="stroke: #000000; stroke-width: 0.8"/>
      </g>
     </g>
     <g id="text_1">
      <!-- −4 -->
      <g transform="translate(-3.742188 131.959219) scale(0.1 -0.1)">
       <defs>
        <path id="DejaVuSans-2212" d="M 678 2272 
L 4684 2272 
L 4684 1741 
L 678 1741 
L 678 2272 
z
" transform="scale(0.015625)"/>
        <path id="DejaVuSans-34" d="M 2419 4116 
L 825 1625 
L 2419 1625 
L 2419 4116 
z
M 2253 4666 
L 3047 4666 
L 3047 1625 
L 3713 1625 
L 3713 1100 
L 3047 1100 
L 3047 0 
L 2419 0 
L 2419 1100 
L 313 1100 
L 313 1709 
L 2253 4666 
z
" transform="scale(0.015625)"/>
       </defs>
       <use xlink:href="#DejaVuSans-2212"/>
       <use xlink:href="#DejaVuSans-34" transform="translate(83.789062 0)"/>
      </g>
     </g>
    </g>
    <g id="ytick_2">
     <g id="line2d_4">
      <g>
       <use xlink:href="#me08e3630e3" x="18" y="100.44" style="stroke: #000000; stroke-width: 0.8"/>
      </g>
     </g>
     <g id="text_2">
      <!-- −2 -->
      <g transform="translate(-3.742188 104.239219) scale(0.1 -0.1)">
       <defs>
        <path id="DejaVuSans-32" d="M 1228 531 
L 3431 531 
L 3431 0 
L 469 0 
L 469 531 
Q 828 903 1448 1529 
Q 2069 2156 2228 2338 
Q 2531 2678 2651 2914 
Q 2772 3150 2772 3378 
Q 2772 3750 2511 3984 
Q 2250 4219 1831 4219 
Q 1534 4219 1204 4116 
Q 875 4013 500 3803 
L 500 4441 
Q 881 4594 1212 4672 
Q 1544 4750 1819 4750 
Q 2544 4750 2975 4387 
Q 3406 4025 3406 3419 
Q 3406 3131 3298 2873 
Q 3191 2616 2906 2266 
Q 2828 2175 2409 1742 
Q 1991 1309 1228 531 
z
" transform="scale(0.015625)"/>
       </defs>
       <use xlink:href="#DejaVuSans-2212"/>
       <use xlink:href="#DejaVuSans-32" transform="translate(83.789062 0)"/>
      </g>
     </g>
    </g>
    <g id="ytick_3">
     <g id="line2d_5">
      <g>
       <use xlink:href="#me08e3630e3" x="18" y="72.72" style="stroke: #000000; stroke-width: 0.8"/>
      </g>
     </g>
     <g id="text_3">
      <!-- 0 -->
      <g transform="translate(4.6375 76.519219) scale(0.1 -0.1)">
       <defs>
        <path id="DejaVuSans-30" d="M 2034 4250 
Q 1547 4250 1301 3770 
Q 1056 3291 1056 2328 
Q 1056 1369 1301 889 
Q 1547 409 2034 409 
Q 2525 409 2770 889 
Q 3016 1369 3016 2328 
Q 3016 3291 2770 3770 
Q 2525 4250 2034 4250 
z
M 2034 4750 
Q 2819 4750 3233 4129 
Q 3647 3509 3647 2328 
Q 3647 1150 3233 529 
Q 2819 -91 2034 -91 
Q 1250 -91 836 529 
Q 422 1150 422 2328 
Q 422 3509 836 4129 
Q 1250 4750 2034 4750 
z
" transform="scale(0.015625)"/>
       </defs>
       <use xlink:href="#DejaVuSans-30"/>
      </g>
     </g>
    </g>
    <g id="ytick_4">
     <g id="line2d_6">
      <g>
       <use xlink:href="#me08e3630e3" x="18" y="45" style="stroke: #000000; stroke-width: 0.8"/>
      </g>
     </g>
     <g id="text_4">
      <!-- 2 -->
      <g transform="translate(4.6375 48.799219) scale(0.1 -0.1)">
       <use xlink:href="#DejaVuSans-32"/>
      </g>
     </g>
    </g>
    <g id="ytick_5">
     <g id="line2d_7">
      <g>
       <use xlink:href="#me08e3630e3" x="18" y="17.28" style="stroke: #000000; stroke-width: 0.8"/>
      </g>
     </g>
     <g id="text_5">
      <!-- 4 -->
      <g transform="translate(4.6375 21.079219) scale(0.1 -0.1)">
       <use xlink:href="#DejaVuSans-34"/>
      </g>
     </g>
    </g>
   </g>
   <g id="line2d_8">
    <path d="M 84.972984 77.983288 
L 62.234606 81.824507 
L 83.037454 69.353536 
L 101.883063 66.437773 
L 98.396564 76.38924 
L 89.491087 48.989667 
L 112.70468 67.675484 
L 81.702295 76.22345 
L 86.321965 76.842693 
L 47.206764 68.717024 
L 69.785298 73.710486 
L 56.172866 92.944605 
L 96.460281 63.140644 
L 73.074578 88.348033 
L 67.773893 62.288104 
L 116.095986 66.701498 
L 76.63 49.652455 
L 76.891486 84.002276 
L 71.455544 60.912555 
L 92.636343 59.227183 
L 92.544715 51.528095 
" clip-path="url(#pe9c2ec5b20)" style="fill: none"/>
    <defs>
     <path id="m6e9235630e" d="M 0 -4.242641 
L -4.242641 -0 
L -0 4.242641 
L 0 -4.242641 
"/>
    </defs>
    <g clip-path="url(#pe9c2ec5b20)">
     <use xlink:href="#m6e9235630e" x="84.972984" y="77.983288" style="fill: #d32f2f"/>
     <use xlink:href="#m6e9235630e" x="62.234606" y="81.824507" style="fill: #d32f2f"/>
     <use xlink:href="#m6e9235630e" x="83.037454" y="69.353536" style="fill: #d32f2f"/>
     <use xlink:href="#m6e9235630e" x="101.883063" y="66.437773" style="fill: #d32f2f"/>
     <use xlink:href="#m6e9235630e" x="98.396564" y="76.38924" style="fill: #d32f2f"/>
     <use xlink:href="#m6e9235630e" x="89.491087" y="48.989667" style="fill: #d32f2f"/>
     <use xlink:href="#m6e9235630e" x="112.70468" y="67.675484" style="fill: #d32f2f"/>
     <use xlink:href="#m6e9235630e" x="81.702295" y="76.22345" style="fill: #d32f2f"/>
     <use xlink:href="#m6e9235630e" x="86.321965" y="76.842693" style="fill: #d32f2f"/>
     <use xlink:href="#m6e9235630e" x="47.206764" y="68.717024" style="fill: #d32f2f"/>
     <use xlink:href="#m6e9235630e" x="69.785298" y="73.710486" style="fill: #d32f2f"/>
     <use xlink:href="#m6e9235630e" x="56.172866" y="92.944605" style="fill: #d32f2f"/>
     <use xlink:href="#m6e9235630e" x="96.460281" y="63.140644" style="fill: #d32f2f"/>
     <use xlink:href="#m6e9235630e" x="73.074578" y="88.348033" style="fill: #d32f2f"/>
     <use xlink:href="#m6e9235630e" x="67.773893" y="62.288104" style="fill: #d32f2f"/>
     <use xlink:href="#m6e9235630e" x="116.095986" y="66.701498" style="fill: #d32f2f"/>
     <use xlink:href="#m6e9235630e" x="76.63" y="49.652455" style="fill: #d32f2f"/>
     <use xlink:href="#m6e9235630e" x="76.891486" y="84.002276" style="fill: #d32f2f"/>
     <use xlink:href="#m6e9235630e" x="71.455544" y="60.912555" style="fill: #d32f2f"/>
     <use xlink:href="#m6e9235630e" x="92.636343" y="59.227183" style="fill: #d32f2f"/>
     <use xlink:href="#m6e9235630e" x="92.544715" y="51.528095" style="fill: #d32f2f"/>
    </g>
    <defs>
     <path id="m39318c4b11" d="M 0 -4.242641 
L 4.242641 0 
L -0 4.242641 
L 0 -4.242641 
"/>
    </defs>
    <g clip-path="url(#pe9c2ec5b20)">
     <use xlink:href="#m39318c4b11" x="84.972984" y="77.983288" style="fill: #ffffff"/>
     <use xlink:href="#m39318c4b11" x="62.234606" y="81.824507" style="fill: #ffffff"/>
     <use xlink:href="#m39318c4b11" x="83.037454" y="69.353536" style="fill: #ffffff"/>
     <use xlink:href="#m39318c4b11" x="101.883063" y="66.437773" style="fill: #ffffff"/>
     <use xlink:href="#m39318c4b11" x="98.396564" y="76.38924" style="fill: #ffffff"/>
     <use xlink:href="#m39318c4b11" x="89.491087" y="48.989667" style="fill: #ffffff"/>
     <use xlink:href="#m39318c4b11" x="112.70468" y="67.675484" style="fill: #ffffff"/>
     <use xlink:href="#m39318c4b11" x="81.702295" y="76.22345" style="fill: #ffffff"/>
     <use xlink:href="#m39318c4b11" x="86.321965" y="76.842693" style="fill: #ffffff"/>
     <use xlink:href="#m39318c4b11" x="47.206764" y="68.717024" style="fill: #ffffff"/>
     <use xlink:href="#m39318c4b11" x="69.785298" y="73.710486" style="fill: #ffffff"/>
     <use xlink:href="#m39318c4b11" x="56.172866" y="92.944605" style="fill: #ffffff"/>
     <use xlink:href="#m39318c4b11" x="96.460281" y="63.140644" style="fill: #ffffff"/>
     <use xlink:href="#m39318c4b11" x="73.074578" y="88.348033" style="fill: #ffffff"/>
     <use xlink:href="#m39318c4b11" x="67.773893" y="62.288104" style="fill: #ffffff"/>
     <use xlink:href="#m39318c4b11" x="116.095986" y="66.701498" style="fill: #ffffff"/>
     <use xlink:href="#m39318c4b11" x="76.63" y="49.652455" style="fill: #ffffff"/>
     <use xlink:href="#m39318c4b11" x="76.891486" y="84.002276" style="fill: #ffffff"/>
     <use xlink:href="#m39318c4b11" x="71.455544" y="60.912555" style="fill: #ffffff"/>
     <use xlink:href="#m39318c4b11" x="92.636343" y="59.227183" style="fill: #ffffff"/>
     <use xlink:href="#m39318c4b11" x="92.544715" y="51.528095" style="fill: #ffffff"/>
    </g>
   </g>
   <g id="line2d_9">
    <path d="M 84.972984 77.983288 
L 62.234606 81.824507 
L 83.037454 69.353536 
L 101.883063 66.437773 
L 98.396564 76.38924 
L 89.491087 48.989667 
L 112.70468 67.675484 
L 81.702295 76.22345 
L 86.321965 76.842693 
L 47.206764 68.717024 
L 69.785298 73.710486 
L 56.172866 92.944605 
L 96.460281 63.140644 
L 73.074578 88.348033 
L 67.773893 62.288104 
L 116.095986 66.701498 
L 76.63 49.652455 
L 76.891486 84.002276 
L 71.455544 60.912555 
L 92.636343 59.227183 
L 92.544715 51.528095 
" clip-path="url(#pe9c2ec5b20)" style="fill: none"/>
    <defs>
     <path id="m0e1adb8f46" d="M -0 4.242641 
L 4.242641 0 
L 0 -4.242641 
L -4.242641 -0 
z
" style="stroke: #d32f2f; stroke-linejoin: miter"/>
    </defs>
    <g clip-path="url(#pe9c2ec5b20)">
     <use xlink:href="#m0e1adb8f46" x="84.972984" y="77.983288" style="fill-opacity: 0; stroke: #d32f2f; stroke-linejoin: miter"/>
     <use xlink:href="#m0e1adb8f46" x="62.234606" y="81.824507" style="fill-opacity: 0; stroke: #d32f2f; stroke-linejoin: miter"/>
     <use xlink:href="#m0e1adb8f46" x="83.037454" y="69.353536" style="fill-opacity: 0; stroke: #d32f2f; stroke-linejoin: miter"/>
     <use xlink:href="#m0e1adb8f46" x="101.883063" y="66.437773" style="fill-opacity: 0; stroke: #d32f2f; stroke-linejoin: miter"/>
     <use xlink:href="#m0e1adb8f46" x="98.396564" y="76.38924" style="fill-opacity: 0; stroke: #d32f2f; stroke-linejoin: miter"/>
     <use xlink:href="#m0e1adb8f46" x="89.491087" y="48.989667" style="fill-opacity: 0; stroke: #d32f2f; stroke-linejoin: miter"/>
     <use xlink:href="#m0e1adb8f46" x="112.70468" y="67.675484" style="fill-opacity: 0; stroke: #d32f2f; stroke-linejoin: miter"/>
     <use xlink:href="#m0e1adb8f46" x="81.702295" y="76.22345" style="fill-opacity: 0; stroke: #d32f2f; stroke-linejoin: miter"/>
     <use xlink:href="#m0e1adb8f46" x="86.321965" y="76.842693" style="fill-opacity: 0; stroke: #d32f2f; stroke-linejoin: miter"/>
     <use xlink:href="#m0e1adb8f46" x="47.206764" y="68.717024" style="fill-opacity: 0; stroke: #d32f2f; stroke-linejoin: miter"/>
     <use xlink:href="#m0e1adb8f46" x="69.785298" y="73.710486" style="fill-opacity: 0; stroke: #d32f2f; stroke-linejoin: miter"/>
     <use xlink:href="#m0e1adb8f46" x="56.172866" y="92.944605" style="fill-opacity: 0; stroke: #d32f2f; stroke-linejoin: miter"/>
     <use xlink:href="#m0e1adb8f46" x="96.460281" y="63.140644" style="fill-opacity: 0; stroke: #d32f2f; stroke-linejoin: miter"/>
     <use xlink:href="#m0e1adb8f46" x="73.074578" y="88.348033" style="fill-opacity: 0; stroke: #d32f2f; stroke-linejoin: miter"/>
     <use xlink:href="#m0e1adb8f46" x="67.773893" y="62.288104" style="fill-opacity: 0; stroke: #d32f2f; stroke-linejoin: miter"/>
     <use xlink:href="#m0e1adb8f46" x="116.095986" y="66.701498" style="fill-opacity: 0; stroke: #d32f2f; stroke-linejoin: miter"/>
     <use xlink:href="#m0e1adb8f46" x="76.63" y="49.652455" style="fill-opacity: 0; stroke: #d32f2f; stroke-linejoin: miter"/>
     <use xlink:href="#m0e1adb8f46" x="76.891486" y="84.002276" style="fill-opacity: 0; stroke: #d32f2f; stroke-linejoin: miter"/>
     <use xlink:href="#m0e1adb8f46" x="71.455544" y="60.912555" style="fill-opacity: 0; stroke: #d32f2f; stroke-linejoin: miter"/>
     <use xlink:href="#m0e1adb8f46" x="92.636343" y="59.227183" style="fill-opacity: 0; stroke: #d32f2f; stroke-linejoin: miter"/>
     <use xlink:href="#m0e1adb8f46" x="92.544715" y="51.528095" style="fill-opacity: 0; stroke: #d32f2f; stroke-linejoin: miter"/>
    </g>
   </g>
   <g id="line2d_10">
    <path d="M 75.90936 93.099593 
L 91.114748 94.843412 
L 85.594596 84.448717 
L 90.61033 82.516435 
L 107.129036 53.866574 
L 93.72966 83.060248 
L 59.430353 74.790805 
L 83.15138 60.290303 
L 124.527273 62.471507 
L 93.67246 74.409663 
L 69.082456 58.248481 
L 23.072727 93.030317 
L 73.063164 78.60143 
L 29.984833 89.529044 
L 79.702914 81.301593 
L 60.746439 91.723301 
L 61.48878 62.423599 
L 84.282878 85.148789 
L 84.020512 74.497792 
L 92.766531 40.325799 
" clip-path="url(#pe9c2ec5b20)" style="fill: none"/>
    <defs>
     <path id="mfe81bb98a5" d="M -0 4.242641 
L 4.242641 0 
L 0 -4.242641 
L -0 4.242641 
"/>
    </defs>
    <g clip-path="url(#pe9c2ec5b20)">
     <use xlink:href="#mfe81bb98a5" x="75.90936" y="93.099593" style="fill: #1976d2"/>
     <use xlink:href="#mfe81bb98a5" x="91.114748" y="94.843412" style="fill: #1976d2"/>
     <use xlink:href="#mfe81bb98a5" x="85.594596" y="84.448717" style="fill: #1976d2"/>
     <use xlink:href="#mfe81bb98a5" x="90.61033" y="82.516435" style="fill: #1976d2"/>
     <use xlink:href="#mfe81bb98a5" x="107.129036" y="53.866574" style="fill: #1976d2"/>
     <use xlink:href="#mfe81bb98a5" x="93.72966" y="83.060248" style="fill: #1976d2"/>
     <use xlink:href="#mfe81bb98a5" x="59.430353" y="74.790805" style="fill: #1976d2"/>
     <use xlink:href="#mfe81bb98a5" x="83.15138" y="60.290303" style="fill: #1976d2"/>
     <use xlink:href="#mfe81bb98a5" x="124.527273" y="62.471507" style="fill: #1976d2"/>
     <use xlink:href="#mfe81bb98a5" x="93.67246" y="74.409663" style="fill: #1976d2"/>
     <use xlink:href="#mfe81bb98a5" x="69.082456" y="58.248481" style="fill: #1976d2"/>
     <use xlink:href="#mfe81bb98a5" x="23.072727" y="93.030317" style="fill: #1976d2"/>
     <use xlink:href="#mfe81bb98a5" x="73.063164" y="78.60143" style="fill: #1976d2"/>
     <use xlink:href="#mfe81bb98a5" x="29.984833" y="89.529044" style="fill: #1976d2"/>
     <use xlink:href="#mfe81bb98a5" x="79.702914" y="81.301593" style="fill: #1976d2"/>
     <use xlink:href="#mfe81bb98a5" x="60.746439" y="91.723301" style="fill: #1976d2"/>
     <use xlink:href="#mfe81bb98a5" x="61.48878" y="62.423599" style="fill: #1976d2"/>
     <use xlink:href="#mfe81bb98a5" x="84.282878" y="85.148789" style="fill: #1976d2"/>
     <use xlink:href="#mfe81bb98a5" x="84.020512" y="74.497792" style="fill: #1976d2"/>
     <use xlink:href="#mfe81bb98a5" x="92.766531" y="40.325799" style="fill: #1976d2"/>
    </g>
    <defs>
     <path id="m7b32c3c413" d="M -0 4.242641 
L -4.242641 -0 
L 0 -4.242641 
L -0 4.242641 
"/>
    </defs>
    <g clip-path="url(#pe9c2ec5b20)">
     <use xlink:href="#m7b32c3c413" x="75.90936" y="93.099593" style="fill: #ffffff"/>
     <use xlink:href="#m7b32c3c413" x="91.114748" y="94.843412" style="fill: #ffffff"/>
     <use xlink:href="#m7b32c3c413" x="85.594596" y="84.448717" style="fill: #ffffff"/>
     <use xlink:href="#m7b32c3c413" x="90.61033" y="82.516435" style="fill: #ffffff"/>
     <use xlink:href="#m7b32c3c413" x="107.129036" y="53.866574" style="fill: #ffffff"/>
     <use xlink:href="#m7b32c3c413" x="93.72966" y="83.060248" style="fill: #ffffff"/>
     <use xlink:href="#m7b32c3c413" x="59.430353" y="74.790805" style="fill: #ffffff"/>
     <use xlink:href="#m7b32c3c413" x="83.15138" y="60.290303" style="fill: #ffffff"/>
     <use xlink:href="#m7b32c3c413" x="124.527273" y="62.471507" style="fill: #ffffff"/>
     <use xlink:href="#m7b32c3c413" x="93.67246" y="74.409663" style="fill: #ffffff"/>
     <use xlink:href="#m7b32c3c413" x="69.082456" y="58.248481" style="fill: #ffffff"/>
     <use xlink:href="#m7b32c3c413" x="23.072727" y="93.030317" style="fill: #ffffff"/>
     <use xlink:href="#m7b32c3c413" x="73.063164" y="78.60143" style="fill: #ffffff"/>
     <use xlink:href="#m7b32c3c413" x="29.984833" y="89.529044" style="fill: #ffffff"/>
     <use xlink:href="#m7b32c3c413" x="79.702914" y="81.301593" style="fill: #ffffff"/>
     <use xlink:href="#m7b32c3c413" x="60.746439" y="91.723301" style="fill: #ffffff"/>
     <use xlink:href="#m7b32c3c413" x="61.48878" y="62.423599" style="fill: #ffffff"/>
     <use xlink:href="#m7b32c3c413" x="84.282878" y="85.148789" style="fill: #ffffff"/>
     <use xlink:href="#m7b32c3c413" x="84.020512" y="74.497792" style="fill: #ffffff"/>
     <use xlink:href="#m7b32c3c413" x="92.766531" y="40.325799" style="fill: #ffffff"/>
    </g>
   </g>
   <g id="line2d_11">
    <path d="M 75.90936 93.099593 
L 91.114748 94.843412 
L 85.594596 84.448717 
L 90.61033 82.516435 
L 107.129036 53.866574 
L 93.72966 83.060248 
L 59.430353 74.790805 
L 83.15138 60.290303 
L 124.527273 62.471507 
L 93.67246 74.409663 
L 69.082456 58.248481 
L 23.072727 93.030317 
L 73.063164 78.60143 
L 29.984833 89.529044 
L 79.702914 81.301593 
L 60.746439 91.723301 
L 61.48878 62.423599 
L 84.282878 85.148789 
L 84.020512 74.497792 
L 92.766531 40.325799 
" clip-path="url(#pe9c2ec5b20)" style="fill: none"/>
    <defs>
     <path id="m99451bab26" d="M -0 4.242641 
L 4.242641 0 
L 0 -4.242641 
L -4.242641 -0 
z
" style="stroke: #1976d2; stroke-linejoin: miter"/>
    </defs>
    <g clip-path="url(#pe9c2ec5b20)">
     <use xlink:href="#m99451bab26" x="75.90936" y="93.099593" style="fill-opacity: 0; stroke: #1976d2; stroke-linejoin: miter"/>
     <use xlink:href="#m99451bab26" x="91.114748" y="94.843412" style="fill-opacity: 0; stroke: #1976d2; stroke-linejoin: miter"/>
     <use xlink:href="#m99451bab26" x="85.594596" y="84.448717" style="fill-opacity: 0; stroke: #1976d2; stroke-linejoin: miter"/>
     <use xlink:href="#m99451bab26" x="90.61033" y="82.516435" style="fill-opacity: 0; stroke: #1976d2; stroke-linejoin: miter"/>
     <use xlink:href="#m99451bab26" x="107.129036" y="53.866574" style="fill-opacity: 0; stroke: #1976d2; stroke-linejoin: miter"/>
     <use xlink:href="#m99451bab26" x="93.72966" y="83.060248" style="fill-opacity: 0; stroke: #1976d2; stroke-linejoin: miter"/>
     <use xlink:href="#m99451bab26" x="59.430353" y="74.790805" style="fill-opacity: 0; stroke: #1976d2; stroke-linejoin: miter"/>
     <use xlink:href="#m99451bab26" x="83.15138" y="60.290303" style="fill-opacity: 0; stroke: #1976d2; stroke-linejoin: miter"/>
     <use xlink:href="#m99451bab26" x="124.527273" y="62.471507" style="fill-opacity: 0; stroke: #1976d2; stroke-linejoin: miter"/>
     <use xlink:href="#m99451bab26" x="93.67246" y="74.409663" style="fill-opacity: 0; stroke: #1976d2; stroke-linejoin: miter"/>
     <use xlink:href="#m99451bab26" x="69.082456" y="58.248481" style="fill-opacity: 0; stroke: #1976d2; stroke-linejoin: miter"/>
     <use xlink:href="#m99451bab26" x="23.072727" y="93.030317" style="fill-opacity: 0; stroke: #1976d2; stroke-linejoin: miter"/>
     <use xlink:href="#m99451bab26" x="73.063164" y="78.60143" style="fill-opacity: 0; stroke: #1976d2; stroke-linejoin: miter"/>
     <use xlink:href="#m99451bab26" x="29.984833" y="89.529044" style="fill-opacity: 0; stroke: #1976d2; stroke-linejoin: miter"/>
     <use xlink:href="#m99451bab26" x="79.702914" y="81.301593" style="fill-opacity: 0; stroke: #1976d2; stroke-linejoin: miter"/>
     <use xlink:href="#m99451bab26" x="60.746439" y="91.723301" style="fill-opacity: 0; stroke: #1976d2; stroke-linejoin: miter"/>
     <use xlink:href="#m99451bab26" x="61.48878" y="62.423599" style="fill-opacity: 0; stroke: #1976d2; stroke-linejoin: miter"/>
     <use xlink:href="#m99451bab26" x="84.282878" y="85.148789" style="fill-opacity: 0; stroke: #1976d2; stroke-linejoin: miter"/>
     <use xlink:href="#m99451bab26" x="84.020512" y="74.497792" style="fill-opacity: 0; stroke: #1976d2; stroke-linejoin: miter"/>
     <use xlink:href="#m99451bab26" x="92.766531" y="40.325799" style="fill-opacity: 0; stroke: #1976d2; stroke-linejoin: miter"/>
    </g>
   </g>
   <g id="patch_3">
    <path d="M 18 128.16 
L 18 17.28 
" style="fill: none; stroke: #000000; stroke-width: 0.8; stroke-linejoin: miter; stroke-linecap: square"/>
   </g>
   <g id="patch_4">
    <path d="M 18 72.72 
L 129.6 72.72 
" style="fill: none; stroke: #000000; stroke-width: 0.8; stroke-linejoin: miter; stroke-linecap: square"/>
   </g>
   <g id="text_6">
    <!-- FBXW11: 0.33 -->
    <g transform="translate(31.2675 11.28) scale(0.12 -0.12)">
     <defs>
      <path id="DejaVuSans-46" d="M 628 4666 
L 3309 4666 
L 3309 4134 
L 1259 4134 
L 1259 2759 
L 3109 2759 
L 3109 2228 
L 1259 2228 
L 1259 0 
L 628 0 
L 628 4666 
z
" transform="scale(0.015625)"/>
      <path id="DejaVuSans-42" d="M 1259 2228 
L 1259 519 
L 2272 519 
Q 2781 519 3026 730 
Q 3272 941 3272 1375 
Q 3272 1813 3026 2020 
Q 2781 2228 2272 2228 
L 1259 2228 
z
M 1259 4147 
L 1259 2741 
L 2194 2741 
Q 2656 2741 2882 2914 
Q 3109 3088 3109 3444 
Q 3109 3797 2882 3972 
Q 2656 4147 2194 4147 
L 1259 4147 
z
M 628 4666 
L 2241 4666 
Q 2963 4666 3353 4366 
Q 3744 4066 3744 3513 
Q 3744 3084 3544 2831 
Q 3344 2578 2956 2516 
Q 3422 2416 3680 2098 
Q 3938 1781 3938 1306 
Q 3938 681 3513 340 
Q 3088 0 2303 0 
L 628 0 
L 628 4666 
z
" transform="scale(0.015625)"/>
      <path id="DejaVuSans-58" d="M 403 4666 
L 1081 4666 
L 2241 2931 
L 3406 4666 
L 4084 4666 
L 2584 2425 
L 4184 0 
L 3506 0 
L 2194 1984 
L 872 0 
L 191 0 
L 1856 2491 
L 403 4666 
z
" transform="scale(0.015625)"/>
      <path id="DejaVuSans-57" d="M 213 4666 
L 850 4666 
L 1831 722 
L 2809 4666 
L 3519 4666 
L 4500 722 
L 5478 4666 
L 6119 4666 
L 4947 0 
L 4153 0 
L 3169 4050 
L 2175 0 
L 1381 0 
L 213 4666 
z
" transform="scale(0.015625)"/>
      <path id="DejaVuSans-31" d="M 794 531 
L 1825 531 
L 1825 4091 
L 703 3866 
L 703 4441 
L 1819 4666 
L 2450 4666 
L 2450 531 
L 3481 531 
L 3481 0 
L 794 0 
L 794 531 
z
" transform="scale(0.015625)"/>
      <path id="DejaVuSans-3a" d="M 750 794 
L 1409 794 
L 1409 0 
L 750 0 
L 750 794 
z
M 750 3309 
L 1409 3309 
L 1409 2516 
L 750 2516 
L 750 3309 
z
" transform="scale(0.015625)"/>
      <path id="DejaVuSans-20" transform="scale(0.015625)"/>
      <path id="DejaVuSans-2e" d="M 684 794 
L 1344 794 
L 1344 0 
L 684 0 
L 684 794 
z
" transform="scale(0.015625)"/>
      <path id="DejaVuSans-33" d="M 2597 2516 
Q 3050 2419 3304 2112 
Q 3559 1806 3559 1356 
Q 3559 666 3084 287 
Q 2609 -91 1734 -91 
Q 1441 -91 1130 -33 
Q 819 25 488 141 
L 488 750 
Q 750 597 1062 519 
Q 1375 441 1716 441 
Q 2309 441 2620 675 
Q 2931 909 2931 1356 
Q 2931 1769 2642 2001 
Q 2353 2234 1838 2234 
L 1294 2234 
L 1294 2753 
L 1863 2753 
Q 2328 2753 2575 2939 
Q 2822 3125 2822 3475 
Q 2822 3834 2567 4026 
Q 2313 4219 1838 4219 
Q 1578 4219 1281 4162 
Q 984 4106 628 3988 
L 628 4550 
Q 988 4650 1302 4700 
Q 1616 4750 1894 4750 
Q 2613 4750 3031 4423 
Q 3450 4097 3450 3541 
Q 3450 3153 3228 2886 
Q 3006 2619 2597 2516 
z
" transform="scale(0.015625)"/>
     </defs>
     <use xlink:href="#DejaVuSans-46"/>
     <use xlink:href="#DejaVuSans-42" transform="translate(57.519531 0)"/>
     <use xlink:href="#DejaVuSans-58" transform="translate(126.123047 0)"/>
     <use xlink:href="#DejaVuSans-57" transform="translate(194.628906 0)"/>
     <use xlink:href="#DejaVuSans-31" transform="translate(293.505859 0)"/>
     <use xlink:href="#DejaVuSans-31" transform="translate(357.128906 0)"/>
     <use xlink:href="#DejaVuSans-3a" transform="translate(420.751953 0)"/>
     <use xlink:href="#DejaVuSans-20" transform="translate(454.443359 0)"/>
     <use xlink:href="#DejaVuSans-30" transform="translate(486.230469 0)"/>
     <use xlink:href="#DejaVuSans-2e" transform="translate(549.853516 0)"/>
     <use xlink:href="#DejaVuSans-33" transform="translate(581.640625 0)"/>
     <use xlink:href="#DejaVuSans-33" transform="translate(645.263672 0)"/>
    </g>
   </g>
  </g>
 </g>
 <defs>
  <clipPath id="pe9c2ec5b20">
   <rect x="18" y="17.28" width="111.6" height="110.88"/>
  </clipPath>
 </defs>
</svg>
