<?xml version="1.0" encoding="utf-8" standalone="no"?>
<!DOCTYPE svg PUBLIC "-//W3C//DTD SVG 1.1//EN"
  "http://www.w3.org/Graphics/SVG/1.1/DTD/svg11.dtd">
<svg xmlns:xlink="http://www.w3.org/1999/xlink" width="144pt" height="144pt" viewBox="0 0 144 144" xmlns="http://www.w3.org/2000/svg" version="1.1">
 <metadata>
  <rdf:RDF xmlns:dc="http://purl.org/dc/elements/1.1/" xmlns:cc="http://creativecommons.org/ns#" xmlns:rdf="http://www.w3.org/1999/02/22-rdf-syntax-ns#">
   <cc:Work>
    <dc:type rdf:resource="http://purl.org/dc/dcmitype/StillImage"/>
    <dc:date>2025-09-29T11:59:44.214605</dc:date>
    <dc:format>image/svg+xml</dc:format>
    <dc:creator>
     <cc:Agent>
      <dc:title>Matplotlib v3.10.6, https://matplotlib.org/</dc:title>
     </cc:Agent>
    </dc:creator>
   </cc:Work>
  </rdf:RDF>
 </metadata>
 <defs>
  <style type="text/css">*{stroke-linejoin: round; stroke-linecap: butt}</style>
 </defs>
 <g id="figure_1">
  <g id="patch_1">
   <path d="M 0 144 
L 144 144 
L 144 0 
L 0 0 
z
" style="fill: #ffffff"/>
  </g>
  <g id="axes_1">
   <g id="patch_2">
    <path d="M 18 128.16 
L 129.6 128.16 
L 129.6 17.28 
L 18 17.28 
z
" style="fill: #ffffff"/>
   </g>
   <g id="matplotlib.axis_1">
    <g id="xtick_1">
     <g id="line2d_1">
      <defs>
       <path id="mb6bfa71b77" d="M 0 0 
L 0 3.5 
" style="stroke: #000000; stroke-width: 0.8"/>
      </defs>
      <g>
       <use xlink:href="#mb6bfa71b77" x="31.750472" y="72.72" style="stroke: #000000; stroke-width: 0.8"/>
      </g>
     </g>
    </g>
    <g id="xtick_2">
     <g id="line2d_2">
      <g>
       <use xlink:href="#mb6bfa71b77" x="122.9874" y="72.72" style="stroke: #000000; stroke-width: 0.8"/>
      </g>
     </g>
    </g>
   </g>
   <g id="matplotlib.axis_2">
    <g id="ytick_1">
     <g id="line2d_3">
      <defs>
       <path id="mab556604a4" d="M 0 0 
L -3.5 0 
" style="stroke: #000000; stroke-width: 0.8"/>
      </defs>
      <g>
       <use xlink:href="#mab556604a4" x="18" y="128.16" style="stroke: #000000; stroke-width: 0.8"/>
      </g>
     </g>
     <g id="text_1">
      <!-- −4 -->
      <g transform="translate(-3.742188 131.959219) scale(0.1 -0.1)">
       <defs>
        <path id="DejaVuSans-2212" d="M 678 2272 
L 4684 2272 
L 4684 1741 
L 678 1741 
L 678 2272 
z
" transform="scale(0.015625)"/>
        <path id="DejaVuSans-34" d="M 2419 4116 
L 825 1625 
L 2419 1625 
L 2419 4116 
z
M 2253 4666 
L 3047 4666 
L 3047 1625 
L 3713 1625 
L 3713 1100 
L 3047 1100 
L 3047 0 
L 2419 0 
L 2419 1100 
L 313 1100 
L 313 1709 
L 2253 4666 
z
" transform="scale(0.015625)"/>
       </defs>
       <use xlink:href="#DejaVuSans-2212"/>
       <use xlink:href="#DejaVuSans-34" transform="translate(83.789062 0)"/>
      </g>
     </g>
    </g>
    <g id="ytick_2">
     <g id="line2d_4">
      <g>
       <use xlink:href="#mab556604a4" x="18" y="100.44" style="stroke: #000000; stroke-width: 0.8"/>
      </g>
     </g>
     <g id="text_2">
      <!-- −2 -->
      <g transform="translate(-3.742188 104.239219) scale(0.1 -0.1)">
       <defs>
        <path id="DejaVuSans-32" d="M 1228 531 
L 3431 531 
L 3431 0 
L 469 0 
L 469 531 
Q 828 903 1448 1529 
Q 2069 2156 2228 2338 
Q 2531 2678 2651 2914 
Q 2772 3150 2772 3378 
Q 2772 3750 2511 3984 
Q 2250 4219 1831 4219 
Q 1534 4219 1204 4116 
Q 875 4013 500 3803 
L 500 4441 
Q 881 4594 1212 4672 
Q 1544 4750 1819 4750 
Q 2544 4750 2975 4387 
Q 3406 4025 3406 3419 
Q 3406 3131 3298 2873 
Q 3191 2616 2906 2266 
Q 2828 2175 2409 1742 
Q 1991 1309 1228 531 
z
" transform="scale(0.015625)"/>
       </defs>
       <use xlink:href="#DejaVuSans-2212"/>
       <use xlink:href="#DejaVuSans-32" transform="translate(83.789062 0)"/>
      </g>
     </g>
    </g>
    <g id="ytick_3">
     <g id="line2d_5">
      <g>
       <use xlink:href="#mab556604a4" x="18" y="72.72" style="stroke: #000000; stroke-width: 0.8"/>
      </g>
     </g>
     <g id="text_3">
      <!-- 0 -->
      <g transform="translate(4.6375 76.519219) scale(0.1 -0.1)">
       <defs>
        <path id="DejaVuSans-30" d="M 2034 4250 
Q 1547 4250 1301 3770 
Q 1056 3291 1056 2328 
Q 1056 1369 1301 889 
Q 1547 409 2034 409 
Q 2525 409 2770 889 
Q 3016 1369 3016 2328 
Q 3016 3291 2770 3770 
Q 2525 4250 2034 4250 
z
M 2034 4750 
Q 2819 4750 3233 4129 
Q 3647 3509 3647 2328 
Q 3647 1150 3233 529 
Q 2819 -91 2034 -91 
Q 1250 -91 836 529 
Q 422 1150 422 2328 
Q 422 3509 836 4129 
Q 1250 4750 2034 4750 
z
" transform="scale(0.015625)"/>
       </defs>
       <use xlink:href="#DejaVuSans-30"/>
      </g>
     </g>
    </g>
    <g id="ytick_4">
     <g id="line2d_6">
      <g>
       <use xlink:href="#mab556604a4" x="18" y="45" style="stroke: #000000; stroke-width: 0.8"/>
      </g>
     </g>
     <g id="text_4">
      <!-- 2 -->
      <g transform="translate(4.6375 48.799219) scale(0.1 -0.1)">
       <use xlink:href="#DejaVuSans-32"/>
      </g>
     </g>
    </g>
    <g id="ytick_5">
     <g id="line2d_7">
      <g>
       <use xlink:href="#mab556604a4" x="18" y="17.28" style="stroke: #000000; stroke-width: 0.8"/>
      </g>
     </g>
     <g id="text_5">
      <!-- 4 -->
      <g transform="translate(4.6375 21.079219) scale(0.1 -0.1)">
       <use xlink:href="#DejaVuSans-34"/>
      </g>
     </g>
    </g>
   </g>
   <g id="line2d_8">
    <path d="M 84.972984 70.178193 
L 62.234606 72.321763 
L 83.037454 78.358105 
L 101.883063 51.475677 
L 98.396564 60.404451 
L 89.491087 64.658316 
L 112.70468 38.892991 
L 81.702295 58.225429 
L 86.321965 77.733831 
L 47.206764 49.290056 
L 69.785298 55.314787 
L 56.172866 94.561102 
L 96.460281 58.96878 
L 73.074578 73.455825 
L 67.773893 74.370292 
L 116.095986 58.891715 
L 76.63 69.790741 
L 76.891486 93.646068 
L 71.455544 49.775502 
L 92.636343 60.79839 
L 92.544715 72.554269 
" clip-path="url(#p8b8349c0aa)" style="fill: none"/>
    <defs>
     <path id="m2cafac6fe8" d="M 0 -4.242641 
L -4.242641 -0 
L -0 4.242641 
L 0 -4.242641 
"/>
    </defs>
    <g clip-path="url(#p8b8349c0aa)">
     <use xlink:href="#m2cafac6fe8" x="84.972984" y="70.178193" style="fill: #d32f2f"/>
     <use xlink:href="#m2cafac6fe8" x="62.234606" y="72.321763" style="fill: #d32f2f"/>
     <use xlink:href="#m2cafac6fe8" x="83.037454" y="78.358105" style="fill: #d32f2f"/>
     <use xlink:href="#m2cafac6fe8" x="101.883063" y="51.475677" style="fill: #d32f2f"/>
     <use xlink:href="#m2cafac6fe8" x="98.396564" y="60.404451" style="fill: #d32f2f"/>
     <use xlink:href="#m2cafac6fe8" x="89.491087" y="64.658316" style="fill: #d32f2f"/>
     <use xlink:href="#m2cafac6fe8" x="112.70468" y="38.892991" style="fill: #d32f2f"/>
     <use xlink:href="#m2cafac6fe8" x="81.702295" y="58.225429" style="fill: #d32f2f"/>
     <use xlink:href="#m2cafac6fe8" x="86.321965" y="77.733831" style="fill: #d32f2f"/>
     <use xlink:href="#m2cafac6fe8" x="47.206764" y="49.290056" style="fill: #d32f2f"/>
     <use xlink:href="#m2cafac6fe8" x="69.785298" y="55.314787" style="fill: #d32f2f"/>
     <use xlink:href="#m2cafac6fe8" x="56.172866" y="94.561102" style="fill: #d32f2f"/>
     <use xlink:href="#m2cafac6fe8" x="96.460281" y="58.96878" style="fill: #d32f2f"/>
     <use xlink:href="#m2cafac6fe8" x="73.074578" y="73.455825" style="fill: #d32f2f"/>
     <use xlink:href="#m2cafac6fe8" x="67.773893" y="74.370292" style="fill: #d32f2f"/>
     <use xlink:href="#m2cafac6fe8" x="116.095986" y="58.891715" style="fill: #d32f2f"/>
     <use xlink:href="#m2cafac6fe8" x="76.63" y="69.790741" style="fill: #d32f2f"/>
     <use xlink:href="#m2cafac6fe8" x="76.891486" y="93.646068" style="fill: #d32f2f"/>
     <use xlink:href="#m2cafac6fe8" x="71.455544" y="49.775502" style="fill: #d32f2f"/>
     <use xlink:href="#m2cafac6fe8" x="92.636343" y="60.79839" style="fill: #d32f2f"/>
     <use xlink:href="#m2cafac6fe8" x="92.544715" y="72.554269" style="fill: #d32f2f"/>
    </g>
    <defs>
     <path id="m828fdd670d" d="M 0 -4.242641 
L 4.242641 0 
L -0 4.242641 
L 0 -4.242641 
"/>
    </defs>
    <g clip-path="url(#p8b8349c0aa)">
     <use xlink:href="#m828fdd670d" x="84.972984" y="70.178193" style="fill: #ffffff"/>
     <use xlink:href="#m828fdd670d" x="62.234606" y="72.321763" style="fill: #ffffff"/>
     <use xlink:href="#m828fdd670d" x="83.037454" y="78.358105" style="fill: #ffffff"/>
     <use xlink:href="#m828fdd670d" x="101.883063" y="51.475677" style="fill: #ffffff"/>
     <use xlink:href="#m828fdd670d" x="98.396564" y="60.404451" style="fill: #ffffff"/>
     <use xlink:href="#m828fdd670d" x="89.491087" y="64.658316" style="fill: #ffffff"/>
     <use xlink:href="#m828fdd670d" x="112.70468" y="38.892991" style="fill: #ffffff"/>
     <use xlink:href="#m828fdd670d" x="81.702295" y="58.225429" style="fill: #ffffff"/>
     <use xlink:href="#m828fdd670d" x="86.321965" y="77.733831" style="fill: #ffffff"/>
     <use xlink:href="#m828fdd670d" x="47.206764" y="49.290056" style="fill: #ffffff"/>
     <use xlink:href="#m828fdd670d" x="69.785298" y="55.314787" style="fill: #ffffff"/>
     <use xlink:href="#m828fdd670d" x="56.172866" y="94.561102" style="fill: #ffffff"/>
     <use xlink:href="#m828fdd670d" x="96.460281" y="58.96878" style="fill: #ffffff"/>
     <use xlink:href="#m828fdd670d" x="73.074578" y="73.455825" style="fill: #ffffff"/>
     <use xlink:href="#m828fdd670d" x="67.773893" y="74.370292" style="fill: #ffffff"/>
     <use xlink:href="#m828fdd670d" x="116.095986" y="58.891715" style="fill: #ffffff"/>
     <use xlink:href="#m828fdd670d" x="76.63" y="69.790741" style="fill: #ffffff"/>
     <use xlink:href="#m828fdd670d" x="76.891486" y="93.646068" style="fill: #ffffff"/>
     <use xlink:href="#m828fdd670d" x="71.455544" y="49.775502" style="fill: #ffffff"/>
     <use xlink:href="#m828fdd670d" x="92.636343" y="60.79839" style="fill: #ffffff"/>
     <use xlink:href="#m828fdd670d" x="92.544715" y="72.554269" style="fill: #ffffff"/>
    </g>
   </g>
   <g id="line2d_9">
    <path d="M 84.972984 70.178193 
L 62.234606 72.321763 
L 83.037454 78.358105 
L 101.883063 51.475677 
L 98.396564 60.404451 
L 89.491087 64.658316 
L 112.70468 38.892991 
L 81.702295 58.225429 
L 86.321965 77.733831 
L 47.206764 49.290056 
L 69.785298 55.314787 
L 56.172866 94.561102 
L 96.460281 58.96878 
L 73.074578 73.455825 
L 67.773893 74.370292 
L 116.095986 58.891715 
L 76.63 69.790741 
L 76.891486 93.646068 
L 71.455544 49.775502 
L 92.636343 60.79839 
L 92.544715 72.554269 
" clip-path="url(#p8b8349c0aa)" style="fill: none"/>
    <defs>
     <path id="mc150bf7b68" d="M -0 4.242641 
L 4.242641 0 
L 0 -4.242641 
L -4.242641 -0 
z
" style="stroke: #d32f2f; stroke-linejoin: miter"/>
    </defs>
    <g clip-path="url(#p8b8349c0aa)">
     <use xlink:href="#mc150bf7b68" x="84.972984" y="70.178193" style="fill-opacity: 0; stroke: #d32f2f; stroke-linejoin: miter"/>
     <use xlink:href="#mc150bf7b68" x="62.234606" y="72.321763" style="fill-opacity: 0; stroke: #d32f2f; stroke-linejoin: miter"/>
     <use xlink:href="#mc150bf7b68" x="83.037454" y="78.358105" style="fill-opacity: 0; stroke: #d32f2f; stroke-linejoin: miter"/>
     <use xlink:href="#mc150bf7b68" x="101.883063" y="51.475677" style="fill-opacity: 0; stroke: #d32f2f; stroke-linejoin: miter"/>
     <use xlink:href="#mc150bf7b68" x="98.396564" y="60.404451" style="fill-opacity: 0; stroke: #d32f2f; stroke-linejoin: miter"/>
     <use xlink:href="#mc150bf7b68" x="89.491087" y="64.658316" style="fill-opacity: 0; stroke: #d32f2f; stroke-linejoin: miter"/>
     <use xlink:href="#mc150bf7b68" x="112.70468" y="38.892991" style="fill-opacity: 0; stroke: #d32f2f; stroke-linejoin: miter"/>
     <use xlink:href="#mc150bf7b68" x="81.702295" y="58.225429" style="fill-opacity: 0; stroke: #d32f2f; stroke-linejoin: miter"/>
     <use xlink:href="#mc150bf7b68" x="86.321965" y="77.733831" style="fill-opacity: 0; stroke: #d32f2f; stroke-linejoin: miter"/>
     <use xlink:href="#mc150bf7b68" x="47.206764" y="49.290056" style="fill-opacity: 0; stroke: #d32f2f; stroke-linejoin: miter"/>
     <use xlink:href="#mc150bf7b68" x="69.785298" y="55.314787" style="fill-opacity: 0; stroke: #d32f2f; stroke-linejoin: miter"/>
     <use xlink:href="#mc150bf7b68" x="56.172866" y="94.561102" style="fill-opacity: 0; stroke: #d32f2f; stroke-linejoin: miter"/>
     <use xlink:href="#mc150bf7b68" x="96.460281" y="58.96878" style="fill-opacity: 0; stroke: #d32f2f; stroke-linejoin: miter"/>
     <use xlink:href="#mc150bf7b68" x="73.074578" y="73.455825" style="fill-opacity: 0; stroke: #d32f2f; stroke-linejoin: miter"/>
     <use xlink:href="#mc150bf7b68" x="67.773893" y="74.370292" style="fill-opacity: 0; stroke: #d32f2f; stroke-linejoin: miter"/>
     <use xlink:href="#mc150bf7b68" x="116.095986" y="58.891715" style="fill-opacity: 0; stroke: #d32f2f; stroke-linejoin: miter"/>
     <use xlink:href="#mc150bf7b68" x="76.63" y="69.790741" style="fill-opacity: 0; stroke: #d32f2f; stroke-linejoin: miter"/>
     <use xlink:href="#mc150bf7b68" x="76.891486" y="93.646068" style="fill-opacity: 0; stroke: #d32f2f; stroke-linejoin: miter"/>
     <use xlink:href="#mc150bf7b68" x="71.455544" y="49.775502" style="fill-opacity: 0; stroke: #d32f2f; stroke-linejoin: miter"/>
     <use xlink:href="#mc150bf7b68" x="92.636343" y="60.79839" style="fill-opacity: 0; stroke: #d32f2f; stroke-linejoin: miter"/>
     <use xlink:href="#mc150bf7b68" x="92.544715" y="72.554269" style="fill-opacity: 0; stroke: #d32f2f; stroke-linejoin: miter"/>
    </g>
   </g>
   <g id="line2d_10">
    <path d="M 75.90936 87.662548 
L 91.114748 96.563657 
L 85.594596 92.762607 
L 90.61033 70.29239 
L 107.129036 73.208648 
L 93.72966 79.435938 
L 59.430353 64.677082 
L 83.15138 76.633658 
L 124.527273 70.535582 
L 93.67246 77.121923 
L 69.082456 76.477595 
L 23.072727 81.045088 
L 73.063164 74.866976 
L 29.984833 87.19675 
L 79.702914 92.397551 
L 60.746439 95.057656 
L 61.48878 84.294276 
L 84.282878 79.05779 
L 84.020512 73.757863 
L 92.766531 64.808138 
" clip-path="url(#p8b8349c0aa)" style="fill: none"/>
    <defs>
     <path id="mb694c4dbf2" d="M -0 4.242641 
L 4.242641 0 
L 0 -4.242641 
L -0 4.242641 
"/>
    </defs>
    <g clip-path="url(#p8b8349c0aa)">
     <use xlink:href="#mb694c4dbf2" x="75.90936" y="87.662548" style="fill: #1976d2"/>
     <use xlink:href="#mb694c4dbf2" x="91.114748" y="96.563657" style="fill: #1976d2"/>
     <use xlink:href="#mb694c4dbf2" x="85.594596" y="92.762607" style="fill: #1976d2"/>
     <use xlink:href="#mb694c4dbf2" x="90.61033" y="70.29239" style="fill: #1976d2"/>
     <use xlink:href="#mb694c4dbf2" x="107.129036" y="73.208648" style="fill: #1976d2"/>
     <use xlink:href="#mb694c4dbf2" x="93.72966" y="79.435938" style="fill: #1976d2"/>
     <use xlink:href="#mb694c4dbf2" x="59.430353" y="64.677082" style="fill: #1976d2"/>
     <use xlink:href="#mb694c4dbf2" x="83.15138" y="76.633658" style="fill: #1976d2"/>
     <use xlink:href="#mb694c4dbf2" x="124.527273" y="70.535582" style="fill: #1976d2"/>
     <use xlink:href="#mb694c4dbf2" x="93.67246" y="77.121923" style="fill: #1976d2"/>
     <use xlink:href="#mb694c4dbf2" x="69.082456" y="76.477595" style="fill: #1976d2"/>
     <use xlink:href="#mb694c4dbf2" x="23.072727" y="81.045088" style="fill: #1976d2"/>
     <use xlink:href="#mb694c4dbf2" x="73.063164" y="74.866976" style="fill: #1976d2"/>
     <use xlink:href="#mb694c4dbf2" x="29.984833" y="87.19675" style="fill: #1976d2"/>
     <use xlink:href="#mb694c4dbf2" x="79.702914" y="92.397551" style="fill: #1976d2"/>
     <use xlink:href="#mb694c4dbf2" x="60.746439" y="95.057656" style="fill: #1976d2"/>
     <use xlink:href="#mb694c4dbf2" x="61.48878" y="84.294276" style="fill: #1976d2"/>
     <use xlink:href="#mb694c4dbf2" x="84.282878" y="79.05779" style="fill: #1976d2"/>
     <use xlink:href="#mb694c4dbf2" x="84.020512" y="73.757863" style="fill: #1976d2"/>
     <use xlink:href="#mb694c4dbf2" x="92.766531" y="64.808138" style="fill: #1976d2"/>
    </g>
    <defs>
     <path id="m80c6d52947" d="M -0 4.242641 
L -4.242641 -0 
L 0 -4.242641 
L -0 4.242641 
"/>
    </defs>
    <g clip-path="url(#p8b8349c0aa)">
     <use xlink:href="#m80c6d52947" x="75.90936" y="87.662548" style="fill: #ffffff"/>
     <use xlink:href="#m80c6d52947" x="91.114748" y="96.563657" style="fill: #ffffff"/>
     <use xlink:href="#m80c6d52947" x="85.594596" y="92.762607" style="fill: #ffffff"/>
     <use xlink:href="#m80c6d52947" x="90.61033" y="70.29239" style="fill: #ffffff"/>
     <use xlink:href="#m80c6d52947" x="107.129036" y="73.208648" style="fill: #ffffff"/>
     <use xlink:href="#m80c6d52947" x="93.72966" y="79.435938" style="fill: #ffffff"/>
     <use xlink:href="#m80c6d52947" x="59.430353" y="64.677082" style="fill: #ffffff"/>
     <use xlink:href="#m80c6d52947" x="83.15138" y="76.633658" style="fill: #ffffff"/>
     <use xlink:href="#m80c6d52947" x="124.527273" y="70.535582" style="fill: #ffffff"/>
     <use xlink:href="#m80c6d52947" x="93.67246" y="77.121923" style="fill: #ffffff"/>
     <use xlink:href="#m80c6d52947" x="69.082456" y="76.477595" style="fill: #ffffff"/>
     <use xlink:href="#m80c6d52947" x="23.072727" y="81.045088" style="fill: #ffffff"/>
     <use xlink:href="#m80c6d52947" x="73.063164" y="74.866976" style="fill: #ffffff"/>
     <use xlink:href="#m80c6d52947" x="29.984833" y="87.19675" style="fill: #ffffff"/>
     <use xlink:href="#m80c6d52947" x="79.702914" y="92.397551" style="fill: #ffffff"/>
     <use xlink:href="#m80c6d52947" x="60.746439" y="95.057656" style="fill: #ffffff"/>
     <use xlink:href="#m80c6d52947" x="61.48878" y="84.294276" style="fill: #ffffff"/>
     <use xlink:href="#m80c6d52947" x="84.282878" y="79.05779" style="fill: #ffffff"/>
     <use xlink:href="#m80c6d52947" x="84.020512" y="73.757863" style="fill: #ffffff"/>
     <use xlink:href="#m80c6d52947" x="92.766531" y="64.808138" style="fill: #ffffff"/>
    </g>
   </g>
   <g id="line2d_11">
    <path d="M 75.90936 87.662548 
L 91.114748 96.563657 
L 85.594596 92.762607 
L 90.61033 70.29239 
L 107.129036 73.208648 
L 93.72966 79.435938 
L 59.430353 64.677082 
L 83.15138 76.633658 
L 124.527273 70.535582 
L 93.67246 77.121923 
L 69.082456 76.477595 
L 23.072727 81.045088 
L 73.063164 74.866976 
L 29.984833 87.19675 
L 79.702914 92.397551 
L 60.746439 95.057656 
L 61.48878 84.294276 
L 84.282878 79.05779 
L 84.020512 73.757863 
L 92.766531 64.808138 
" clip-path="url(#p8b8349c0aa)" style="fill: none"/>
    <defs>
     <path id="m49159edc14" d="M -0 4.242641 
L 4.242641 0 
L 0 -4.242641 
L -4.242641 -0 
z
" style="stroke: #1976d2; stroke-linejoin: miter"/>
    </defs>
    <g clip-path="url(#p8b8349c0aa)">
     <use xlink:href="#m49159edc14" x="75.90936" y="87.662548" style="fill-opacity: 0; stroke: #1976d2; stroke-linejoin: miter"/>
     <use xlink:href="#m49159edc14" x="91.114748" y="96.563657" style="fill-opacity: 0; stroke: #1976d2; stroke-linejoin: miter"/>
     <use xlink:href="#m49159edc14" x="85.594596" y="92.762607" style="fill-opacity: 0; stroke: #1976d2; stroke-linejoin: miter"/>
     <use xlink:href="#m49159edc14" x="90.61033" y="70.29239" style="fill-opacity: 0; stroke: #1976d2; stroke-linejoin: miter"/>
     <use xlink:href="#m49159edc14" x="107.129036" y="73.208648" style="fill-opacity: 0; stroke: #1976d2; stroke-linejoin: miter"/>
     <use xlink:href="#m49159edc14" x="93.72966" y="79.435938" style="fill-opacity: 0; stroke: #1976d2; stroke-linejoin: miter"/>
     <use xlink:href="#m49159edc14" x="59.430353" y="64.677082" style="fill-opacity: 0; stroke: #1976d2; stroke-linejoin: miter"/>
     <use xlink:href="#m49159edc14" x="83.15138" y="76.633658" style="fill-opacity: 0; stroke: #1976d2; stroke-linejoin: miter"/>
     <use xlink:href="#m49159edc14" x="124.527273" y="70.535582" style="fill-opacity: 0; stroke: #1976d2; stroke-linejoin: miter"/>
     <use xlink:href="#m49159edc14" x="93.67246" y="77.121923" style="fill-opacity: 0; stroke: #1976d2; stroke-linejoin: miter"/>
     <use xlink:href="#m49159edc14" x="69.082456" y="76.477595" style="fill-opacity: 0; stroke: #1976d2; stroke-linejoin: miter"/>
     <use xlink:href="#m49159edc14" x="23.072727" y="81.045088" style="fill-opacity: 0; stroke: #1976d2; stroke-linejoin: miter"/>
     <use xlink:href="#m49159edc14" x="73.063164" y="74.866976" style="fill-opacity: 0; stroke: #1976d2; stroke-linejoin: miter"/>
     <use xlink:href="#m49159edc14" x="29.984833" y="87.19675" style="fill-opacity: 0; stroke: #1976d2; stroke-linejoin: miter"/>
     <use xlink:href="#m49159edc14" x="79.702914" y="92.397551" style="fill-opacity: 0; stroke: #1976d2; stroke-linejoin: miter"/>
     <use xlink:href="#m49159edc14" x="60.746439" y="95.057656" style="fill-opacity: 0; stroke: #1976d2; stroke-linejoin: miter"/>
     <use xlink:href="#m49159edc14" x="61.48878" y="84.294276" style="fill-opacity: 0; stroke: #1976d2; stroke-linejoin: miter"/>
     <use xlink:href="#m49159edc14" x="84.282878" y="79.05779" style="fill-opacity: 0; stroke: #1976d2; stroke-linejoin: miter"/>
     <use xlink:href="#m49159edc14" x="84.020512" y="73.757863" style="fill-opacity: 0; stroke: #1976d2; stroke-linejoin: miter"/>
     <use xlink:href="#m49159edc14" x="92.766531" y="64.808138" style="fill-opacity: 0; stroke: #1976d2; stroke-linejoin: miter"/>
    </g>
   </g>
   <g id="patch_3">
    <path d="M 18 128.16 
L 18 17.28 
" style="fill: none; stroke: #000000; stroke-width: 0.8; stroke-linejoin: miter; stroke-linecap: square"/>
   </g>
   <g id="patch_4">
    <path d="M 18 72.72 
L 129.6 72.72 
" style="fill: none; stroke: #000000; stroke-width: 0.8; stroke-linejoin: miter; stroke-linecap: square"/>
   </g>
   <g id="text_6">
    <!-- HLA-A: 0.32 -->
    <g transform="translate(38.52375 11.28) scale(0.12 -0.12)">
     <defs>
      <path id="DejaVuSans-48" d="M 628 4666 
L 1259 4666 
L 1259 2753 
L 3553 2753 
L 3553 4666 
L 4184 4666 
L 4184 0 
L 3553 0 
L 3553 2222 
L 1259 2222 
L 1259 0 
L 628 0 
L 628 4666 
z
" transform="scale(0.015625)"/>
      <path id="DejaVuSans-4c" d="M 628 4666 
L 1259 4666 
L 1259 531 
L 3531 531 
L 3531 0 
L 628 0 
L 628 4666 
z
" transform="scale(0.015625)"/>
      <path id="DejaVuSans-41" d="M 2188 4044 
L 1331 1722 
L 3047 1722 
L 2188 4044 
z
M 1831 4666 
L 2547 4666 
L 4325 0 
L 3669 0 
L 3244 1197 
L 1141 1197 
L 716 0 
L 50 0 
L 1831 4666 
z
" transform="scale(0.015625)"/>
      <path id="DejaVuSans-2d" d="M 313 2009 
L 1997 2009 
L 1997 1497 
L 313 1497 
L 313 2009 
z
" transform="scale(0.015625)"/>
      <path id="DejaVuSans-3a" d="M 750 794 
L 1409 794 
L 1409 0 
L 750 0 
L 750 794 
z
M 750 3309 
L 1409 3309 
L 1409 2516 
L 750 2516 
L 750 3309 
z
" transform="scale(0.015625)"/>
      <path id="DejaVuSans-20" transform="scale(0.015625)"/>
      <path id="DejaVuSans-2e" d="M 684 794 
L 1344 794 
L 1344 0 
L 684 0 
L 684 794 
z
" transform="scale(0.015625)"/>
      <path id="DejaVuSans-33" d="M 2597 2516 
Q 3050 2419 3304 2112 
Q 3559 1806 3559 1356 
Q 3559 666 3084 287 
Q 2609 -91 1734 -91 
Q 1441 -91 1130 -33 
Q 819 25 488 141 
L 488 750 
Q 750 597 1062 519 
Q 1375 441 1716 441 
Q 2309 441 2620 675 
Q 2931 909 2931 1356 
Q 2931 1769 2642 2001 
Q 2353 2234 1838 2234 
L 1294 2234 
L 1294 2753 
L 1863 2753 
Q 2328 2753 2575 2939 
Q 2822 3125 2822 3475 
Q 2822 3834 2567 4026 
Q 2313 4219 1838 4219 
Q 1578 4219 1281 4162 
Q 984 4106 628 3988 
L 628 4550 
Q 988 4650 1302 4700 
Q 1616 4750 1894 4750 
Q 2613 4750 3031 4423 
Q 3450 4097 3450 3541 
Q 3450 3153 3228 2886 
Q 3006 2619 2597 2516 
z
" transform="scale(0.015625)"/>
     </defs>
     <use xlink:href="#DejaVuSans-48"/>
     <use xlink:href="#DejaVuSans-4c" transform="translate(75.195312 0)"/>
     <use xlink:href="#DejaVuSans-41" transform="translate(133.158203 0)"/>
     <use xlink:href="#DejaVuSans-2d" transform="translate(199.316406 0)"/>
     <use xlink:href="#DejaVuSans-41" transform="translate(233.150391 0)"/>
     <use xlink:href="#DejaVuSans-3a" transform="translate(299.808594 0)"/>
     <use xlink:href="#DejaVuSans-20" transform="translate(333.5 0)"/>
     <use xlink:href="#DejaVuSans-30" transform="translate(365.287109 0)"/>
     <use xlink:href="#DejaVuSans-2e" transform="translate(428.910156 0)"/>
     <use xlink:href="#DejaVuSans-33" transform="translate(460.697266 0)"/>
     <use xlink:href="#DejaVuSans-32" transform="translate(524.320312 0)"/>
    </g>
   </g>
  </g>
 </g>
 <defs>
  <clipPath id="p8b8349c0aa">
   <rect x="18" y="17.28" width="111.6" height="110.88"/>
  </clipPath>
 </defs>
</svg>
