<?xml version="1.0" encoding="utf-8" standalone="no"?>
<!DOCTYPE svg PUBLIC "-//W3C//DTD SVG 1.1//EN"
  "http://www.w3.org/Graphics/SVG/1.1/DTD/svg11.dtd">
<svg xmlns:xlink="http://www.w3.org/1999/xlink" width="144pt" height="144pt" viewBox="0 0 144 144" xmlns="http://www.w3.org/2000/svg" version="1.1">
 <metadata>
  <rdf:RDF xmlns:dc="http://purl.org/dc/elements/1.1/" xmlns:cc="http://creativecommons.org/ns#" xmlns:rdf="http://www.w3.org/1999/02/22-rdf-syntax-ns#">
   <cc:Work>
    <dc:type rdf:resource="http://purl.org/dc/dcmitype/StillImage"/>
    <dc:date>2025-09-29T11:59:44.116696</dc:date>
    <dc:format>image/svg+xml</dc:format>
    <dc:creator>
     <cc:Agent>
      <dc:title>Matplotlib v3.10.6, https://matplotlib.org/</dc:title>
     </cc:Agent>
    </dc:creator>
   </cc:Work>
  </rdf:RDF>
 </metadata>
 <defs>
  <style type="text/css">*{stroke-linejoin: round; stroke-linecap: butt}</style>
 </defs>
 <g id="figure_1">
  <g id="patch_1">
   <path d="M 0 144 
L 144 144 
L 144 0 
L 0 0 
z
" style="fill: #ffffff"/>
  </g>
  <g id="axes_1">
   <g id="patch_2">
    <path d="M 18 128.16 
L 129.6 128.16 
L 129.6 17.28 
L 18 17.28 
z
" style="fill: #ffffff"/>
   </g>
   <g id="matplotlib.axis_1">
    <g id="xtick_1">
     <g id="line2d_1">
      <defs>
       <path id="m36c4012b09" d="M 0 0 
L 0 3.5 
" style="stroke: #000000; stroke-width: 0.8"/>
      </defs>
      <g>
       <use xlink:href="#m36c4012b09" x="31.750472" y="72.72" style="stroke: #000000; stroke-width: 0.8"/>
      </g>
     </g>
    </g>
    <g id="xtick_2">
     <g id="line2d_2">
      <g>
       <use xlink:href="#m36c4012b09" x="122.9874" y="72.72" style="stroke: #000000; stroke-width: 0.8"/>
      </g>
     </g>
    </g>
   </g>
   <g id="matplotlib.axis_2">
    <g id="ytick_1">
     <g id="line2d_3">
      <defs>
       <path id="m238325fad9" d="M 0 0 
L -3.5 0 
" style="stroke: #000000; stroke-width: 0.8"/>
      </defs>
      <g>
       <use xlink:href="#m238325fad9" x="18" y="128.16" style="stroke: #000000; stroke-width: 0.8"/>
      </g>
     </g>
     <g id="text_1">
      <!-- −4 -->
      <g transform="translate(-3.742188 131.959219) scale(0.1 -0.1)">
       <defs>
        <path id="DejaVuSans-2212" d="M 678 2272 
L 4684 2272 
L 4684 1741 
L 678 1741 
L 678 2272 
z
" transform="scale(0.015625)"/>
        <path id="DejaVuSans-34" d="M 2419 4116 
L 825 1625 
L 2419 1625 
L 2419 4116 
z
M 2253 4666 
L 3047 4666 
L 3047 1625 
L 3713 1625 
L 3713 1100 
L 3047 1100 
L 3047 0 
L 2419 0 
L 2419 1100 
L 313 1100 
L 313 1709 
L 2253 4666 
z
" transform="scale(0.015625)"/>
       </defs>
       <use xlink:href="#DejaVuSans-2212"/>
       <use xlink:href="#DejaVuSans-34" transform="translate(83.789062 0)"/>
      </g>
     </g>
    </g>
    <g id="ytick_2">
     <g id="line2d_4">
      <g>
       <use xlink:href="#m238325fad9" x="18" y="100.44" style="stroke: #000000; stroke-width: 0.8"/>
      </g>
     </g>
     <g id="text_2">
      <!-- −2 -->
      <g transform="translate(-3.742188 104.239219) scale(0.1 -0.1)">
       <defs>
        <path id="DejaVuSans-32" d="M 1228 531 
L 3431 531 
L 3431 0 
L 469 0 
L 469 531 
Q 828 903 1448 1529 
Q 2069 2156 2228 2338 
Q 2531 2678 2651 2914 
Q 2772 3150 2772 3378 
Q 2772 3750 2511 3984 
Q 2250 4219 1831 4219 
Q 1534 4219 1204 4116 
Q 875 4013 500 3803 
L 500 4441 
Q 881 4594 1212 4672 
Q 1544 4750 1819 4750 
Q 2544 4750 2975 4387 
Q 3406 4025 3406 3419 
Q 3406 3131 3298 2873 
Q 3191 2616 2906 2266 
Q 2828 2175 2409 1742 
Q 1991 1309 1228 531 
z
" transform="scale(0.015625)"/>
       </defs>
       <use xlink:href="#DejaVuSans-2212"/>
       <use xlink:href="#DejaVuSans-32" transform="translate(83.789062 0)"/>
      </g>
     </g>
    </g>
    <g id="ytick_3">
     <g id="line2d_5">
      <g>
       <use xlink:href="#m238325fad9" x="18" y="72.72" style="stroke: #000000; stroke-width: 0.8"/>
      </g>
     </g>
     <g id="text_3">
      <!-- 0 -->
      <g transform="translate(4.6375 76.519219) scale(0.1 -0.1)">
       <defs>
        <path id="DejaVuSans-30" d="M 2034 4250 
Q 1547 4250 1301 3770 
Q 1056 3291 1056 2328 
Q 1056 1369 1301 889 
Q 1547 409 2034 409 
Q 2525 409 2770 889 
Q 3016 1369 3016 2328 
Q 3016 3291 2770 3770 
Q 2525 4250 2034 4250 
z
M 2034 4750 
Q 2819 4750 3233 4129 
Q 3647 3509 3647 2328 
Q 3647 1150 3233 529 
Q 2819 -91 2034 -91 
Q 1250 -91 836 529 
Q 422 1150 422 2328 
Q 422 3509 836 4129 
Q 1250 4750 2034 4750 
z
" transform="scale(0.015625)"/>
       </defs>
       <use xlink:href="#DejaVuSans-30"/>
      </g>
     </g>
    </g>
    <g id="ytick_4">
     <g id="line2d_6">
      <g>
       <use xlink:href="#m238325fad9" x="18" y="45" style="stroke: #000000; stroke-width: 0.8"/>
      </g>
     </g>
     <g id="text_4">
      <!-- 2 -->
      <g transform="translate(4.6375 48.799219) scale(0.1 -0.1)">
       <use xlink:href="#DejaVuSans-32"/>
      </g>
     </g>
    </g>
    <g id="ytick_5">
     <g id="line2d_7">
      <g>
       <use xlink:href="#m238325fad9" x="18" y="17.28" style="stroke: #000000; stroke-width: 0.8"/>
      </g>
     </g>
     <g id="text_5">
      <!-- 4 -->
      <g transform="translate(4.6375 21.079219) scale(0.1 -0.1)">
       <use xlink:href="#DejaVuSans-34"/>
      </g>
     </g>
    </g>
   </g>
   <g id="line2d_8">
    <path d="M 84.972984 85.007609 
L 62.234606 81.294806 
L 83.037454 66.63606 
L 101.883063 67.620761 
L 98.396564 74.551557 
L 89.491087 52.644945 
L 112.70468 65.142799 
L 81.702295 76.543152 
L 86.321965 71.561182 
L 47.206764 67.138164 
L 69.785298 66.712587 
L 56.172866 93.450069 
L 96.460281 60.689263 
L 73.074578 84.229163 
L 67.773893 59.099606 
L 116.095986 66.370145 
L 76.63 78.501805 
L 76.891486 83.970065 
L 71.455544 59.090523 
L 92.636343 61.371969 
L 92.544715 49.362932 
" clip-path="url(#pdd2953785a)" style="fill: none"/>
    <defs>
     <path id="mb38a957b85" d="M 0 -4.242641 
L -4.242641 -0 
L -0 4.242641 
L 0 -4.242641 
"/>
    </defs>
    <g clip-path="url(#pdd2953785a)">
     <use xlink:href="#mb38a957b85" x="84.972984" y="85.007609" style="fill: #d32f2f"/>
     <use xlink:href="#mb38a957b85" x="62.234606" y="81.294806" style="fill: #d32f2f"/>
     <use xlink:href="#mb38a957b85" x="83.037454" y="66.63606" style="fill: #d32f2f"/>
     <use xlink:href="#mb38a957b85" x="101.883063" y="67.620761" style="fill: #d32f2f"/>
     <use xlink:href="#mb38a957b85" x="98.396564" y="74.551557" style="fill: #d32f2f"/>
     <use xlink:href="#mb38a957b85" x="89.491087" y="52.644945" style="fill: #d32f2f"/>
     <use xlink:href="#mb38a957b85" x="112.70468" y="65.142799" style="fill: #d32f2f"/>
     <use xlink:href="#mb38a957b85" x="81.702295" y="76.543152" style="fill: #d32f2f"/>
     <use xlink:href="#mb38a957b85" x="86.321965" y="71.561182" style="fill: #d32f2f"/>
     <use xlink:href="#mb38a957b85" x="47.206764" y="67.138164" style="fill: #d32f2f"/>
     <use xlink:href="#mb38a957b85" x="69.785298" y="66.712587" style="fill: #d32f2f"/>
     <use xlink:href="#mb38a957b85" x="56.172866" y="93.450069" style="fill: #d32f2f"/>
     <use xlink:href="#mb38a957b85" x="96.460281" y="60.689263" style="fill: #d32f2f"/>
     <use xlink:href="#mb38a957b85" x="73.074578" y="84.229163" style="fill: #d32f2f"/>
     <use xlink:href="#mb38a957b85" x="67.773893" y="59.099606" style="fill: #d32f2f"/>
     <use xlink:href="#mb38a957b85" x="116.095986" y="66.370145" style="fill: #d32f2f"/>
     <use xlink:href="#mb38a957b85" x="76.63" y="78.501805" style="fill: #d32f2f"/>
     <use xlink:href="#mb38a957b85" x="76.891486" y="83.970065" style="fill: #d32f2f"/>
     <use xlink:href="#mb38a957b85" x="71.455544" y="59.090523" style="fill: #d32f2f"/>
     <use xlink:href="#mb38a957b85" x="92.636343" y="61.371969" style="fill: #d32f2f"/>
     <use xlink:href="#mb38a957b85" x="92.544715" y="49.362932" style="fill: #d32f2f"/>
    </g>
    <defs>
     <path id="m46981429e7" d="M 0 -4.242641 
L 4.242641 0 
L -0 4.242641 
L 0 -4.242641 
"/>
    </defs>
    <g clip-path="url(#pdd2953785a)">
     <use xlink:href="#m46981429e7" x="84.972984" y="85.007609" style="fill: #ffffff"/>
     <use xlink:href="#m46981429e7" x="62.234606" y="81.294806" style="fill: #ffffff"/>
     <use xlink:href="#m46981429e7" x="83.037454" y="66.63606" style="fill: #ffffff"/>
     <use xlink:href="#m46981429e7" x="101.883063" y="67.620761" style="fill: #ffffff"/>
     <use xlink:href="#m46981429e7" x="98.396564" y="74.551557" style="fill: #ffffff"/>
     <use xlink:href="#m46981429e7" x="89.491087" y="52.644945" style="fill: #ffffff"/>
     <use xlink:href="#m46981429e7" x="112.70468" y="65.142799" style="fill: #ffffff"/>
     <use xlink:href="#m46981429e7" x="81.702295" y="76.543152" style="fill: #ffffff"/>
     <use xlink:href="#m46981429e7" x="86.321965" y="71.561182" style="fill: #ffffff"/>
     <use xlink:href="#m46981429e7" x="47.206764" y="67.138164" style="fill: #ffffff"/>
     <use xlink:href="#m46981429e7" x="69.785298" y="66.712587" style="fill: #ffffff"/>
     <use xlink:href="#m46981429e7" x="56.172866" y="93.450069" style="fill: #ffffff"/>
     <use xlink:href="#m46981429e7" x="96.460281" y="60.689263" style="fill: #ffffff"/>
     <use xlink:href="#m46981429e7" x="73.074578" y="84.229163" style="fill: #ffffff"/>
     <use xlink:href="#m46981429e7" x="67.773893" y="59.099606" style="fill: #ffffff"/>
     <use xlink:href="#m46981429e7" x="116.095986" y="66.370145" style="fill: #ffffff"/>
     <use xlink:href="#m46981429e7" x="76.63" y="78.501805" style="fill: #ffffff"/>
     <use xlink:href="#m46981429e7" x="76.891486" y="83.970065" style="fill: #ffffff"/>
     <use xlink:href="#m46981429e7" x="71.455544" y="59.090523" style="fill: #ffffff"/>
     <use xlink:href="#m46981429e7" x="92.636343" y="61.371969" style="fill: #ffffff"/>
     <use xlink:href="#m46981429e7" x="92.544715" y="49.362932" style="fill: #ffffff"/>
    </g>
   </g>
   <g id="line2d_9">
    <path d="M 84.972984 85.007609 
L 62.234606 81.294806 
L 83.037454 66.63606 
L 101.883063 67.620761 
L 98.396564 74.551557 
L 89.491087 52.644945 
L 112.70468 65.142799 
L 81.702295 76.543152 
L 86.321965 71.561182 
L 47.206764 67.138164 
L 69.785298 66.712587 
L 56.172866 93.450069 
L 96.460281 60.689263 
L 73.074578 84.229163 
L 67.773893 59.099606 
L 116.095986 66.370145 
L 76.63 78.501805 
L 76.891486 83.970065 
L 71.455544 59.090523 
L 92.636343 61.371969 
L 92.544715 49.362932 
" clip-path="url(#pdd2953785a)" style="fill: none"/>
    <defs>
     <path id="mcadfaa6104" d="M -0 4.242641 
L 4.242641 0 
L 0 -4.242641 
L -4.242641 -0 
z
" style="stroke: #d32f2f; stroke-linejoin: miter"/>
    </defs>
    <g clip-path="url(#pdd2953785a)">
     <use xlink:href="#mcadfaa6104" x="84.972984" y="85.007609" style="fill-opacity: 0; stroke: #d32f2f; stroke-linejoin: miter"/>
     <use xlink:href="#mcadfaa6104" x="62.234606" y="81.294806" style="fill-opacity: 0; stroke: #d32f2f; stroke-linejoin: miter"/>
     <use xlink:href="#mcadfaa6104" x="83.037454" y="66.63606" style="fill-opacity: 0; stroke: #d32f2f; stroke-linejoin: miter"/>
     <use xlink:href="#mcadfaa6104" x="101.883063" y="67.620761" style="fill-opacity: 0; stroke: #d32f2f; stroke-linejoin: miter"/>
     <use xlink:href="#mcadfaa6104" x="98.396564" y="74.551557" style="fill-opacity: 0; stroke: #d32f2f; stroke-linejoin: miter"/>
     <use xlink:href="#mcadfaa6104" x="89.491087" y="52.644945" style="fill-opacity: 0; stroke: #d32f2f; stroke-linejoin: miter"/>
     <use xlink:href="#mcadfaa6104" x="112.70468" y="65.142799" style="fill-opacity: 0; stroke: #d32f2f; stroke-linejoin: miter"/>
     <use xlink:href="#mcadfaa6104" x="81.702295" y="76.543152" style="fill-opacity: 0; stroke: #d32f2f; stroke-linejoin: miter"/>
     <use xlink:href="#mcadfaa6104" x="86.321965" y="71.561182" style="fill-opacity: 0; stroke: #d32f2f; stroke-linejoin: miter"/>
     <use xlink:href="#mcadfaa6104" x="47.206764" y="67.138164" style="fill-opacity: 0; stroke: #d32f2f; stroke-linejoin: miter"/>
     <use xlink:href="#mcadfaa6104" x="69.785298" y="66.712587" style="fill-opacity: 0; stroke: #d32f2f; stroke-linejoin: miter"/>
     <use xlink:href="#mcadfaa6104" x="56.172866" y="93.450069" style="fill-opacity: 0; stroke: #d32f2f; stroke-linejoin: miter"/>
     <use xlink:href="#mcadfaa6104" x="96.460281" y="60.689263" style="fill-opacity: 0; stroke: #d32f2f; stroke-linejoin: miter"/>
     <use xlink:href="#mcadfaa6104" x="73.074578" y="84.229163" style="fill-opacity: 0; stroke: #d32f2f; stroke-linejoin: miter"/>
     <use xlink:href="#mcadfaa6104" x="67.773893" y="59.099606" style="fill-opacity: 0; stroke: #d32f2f; stroke-linejoin: miter"/>
     <use xlink:href="#mcadfaa6104" x="116.095986" y="66.370145" style="fill-opacity: 0; stroke: #d32f2f; stroke-linejoin: miter"/>
     <use xlink:href="#mcadfaa6104" x="76.63" y="78.501805" style="fill-opacity: 0; stroke: #d32f2f; stroke-linejoin: miter"/>
     <use xlink:href="#mcadfaa6104" x="76.891486" y="83.970065" style="fill-opacity: 0; stroke: #d32f2f; stroke-linejoin: miter"/>
     <use xlink:href="#mcadfaa6104" x="71.455544" y="59.090523" style="fill-opacity: 0; stroke: #d32f2f; stroke-linejoin: miter"/>
     <use xlink:href="#mcadfaa6104" x="92.636343" y="61.371969" style="fill-opacity: 0; stroke: #d32f2f; stroke-linejoin: miter"/>
     <use xlink:href="#mcadfaa6104" x="92.544715" y="49.362932" style="fill-opacity: 0; stroke: #d32f2f; stroke-linejoin: miter"/>
    </g>
   </g>
   <g id="line2d_10">
    <path d="M 75.90936 104.124075 
L 91.114748 105.064468 
L 85.594596 85.438454 
L 90.61033 78.72356 
L 107.129036 55.377607 
L 93.72966 84.120219 
L 59.430353 85.518138 
L 83.15138 54.423452 
L 124.527273 62.798079 
L 93.67246 73.610289 
L 69.082456 55.739844 
L 23.072727 97.86041 
L 73.063164 60.872896 
L 29.984833 79.147079 
L 79.702914 79.877827 
L 60.746439 84.325068 
L 61.48878 63.951569 
L 84.282878 74.939458 
L 84.020512 67.378467 
L 92.766531 57.239879 
" clip-path="url(#pdd2953785a)" style="fill: none"/>
    <defs>
     <path id="m367c08307c" d="M -0 4.242641 
L 4.242641 0 
L 0 -4.242641 
L -0 4.242641 
"/>
    </defs>
    <g clip-path="url(#pdd2953785a)">
     <use xlink:href="#m367c08307c" x="75.90936" y="104.124075" style="fill: #1976d2"/>
     <use xlink:href="#m367c08307c" x="91.114748" y="105.064468" style="fill: #1976d2"/>
     <use xlink:href="#m367c08307c" x="85.594596" y="85.438454" style="fill: #1976d2"/>
     <use xlink:href="#m367c08307c" x="90.61033" y="78.72356" style="fill: #1976d2"/>
     <use xlink:href="#m367c08307c" x="107.129036" y="55.377607" style="fill: #1976d2"/>
     <use xlink:href="#m367c08307c" x="93.72966" y="84.120219" style="fill: #1976d2"/>
     <use xlink:href="#m367c08307c" x="59.430353" y="85.518138" style="fill: #1976d2"/>
     <use xlink:href="#m367c08307c" x="83.15138" y="54.423452" style="fill: #1976d2"/>
     <use xlink:href="#m367c08307c" x="124.527273" y="62.798079" style="fill: #1976d2"/>
     <use xlink:href="#m367c08307c" x="93.67246" y="73.610289" style="fill: #1976d2"/>
     <use xlink:href="#m367c08307c" x="69.082456" y="55.739844" style="fill: #1976d2"/>
     <use xlink:href="#m367c08307c" x="23.072727" y="97.86041" style="fill: #1976d2"/>
     <use xlink:href="#m367c08307c" x="73.063164" y="60.872896" style="fill: #1976d2"/>
     <use xlink:href="#m367c08307c" x="29.984833" y="79.147079" style="fill: #1976d2"/>
     <use xlink:href="#m367c08307c" x="79.702914" y="79.877827" style="fill: #1976d2"/>
     <use xlink:href="#m367c08307c" x="60.746439" y="84.325068" style="fill: #1976d2"/>
     <use xlink:href="#m367c08307c" x="61.48878" y="63.951569" style="fill: #1976d2"/>
     <use xlink:href="#m367c08307c" x="84.282878" y="74.939458" style="fill: #1976d2"/>
     <use xlink:href="#m367c08307c" x="84.020512" y="67.378467" style="fill: #1976d2"/>
     <use xlink:href="#m367c08307c" x="92.766531" y="57.239879" style="fill: #1976d2"/>
    </g>
    <defs>
     <path id="m77173fae92" d="M -0 4.242641 
L -4.242641 -0 
L 0 -4.242641 
L -0 4.242641 
"/>
    </defs>
    <g clip-path="url(#pdd2953785a)">
     <use xlink:href="#m77173fae92" x="75.90936" y="104.124075" style="fill: #ffffff"/>
     <use xlink:href="#m77173fae92" x="91.114748" y="105.064468" style="fill: #ffffff"/>
     <use xlink:href="#m77173fae92" x="85.594596" y="85.438454" style="fill: #ffffff"/>
     <use xlink:href="#m77173fae92" x="90.61033" y="78.72356" style="fill: #ffffff"/>
     <use xlink:href="#m77173fae92" x="107.129036" y="55.377607" style="fill: #ffffff"/>
     <use xlink:href="#m77173fae92" x="93.72966" y="84.120219" style="fill: #ffffff"/>
     <use xlink:href="#m77173fae92" x="59.430353" y="85.518138" style="fill: #ffffff"/>
     <use xlink:href="#m77173fae92" x="83.15138" y="54.423452" style="fill: #ffffff"/>
     <use xlink:href="#m77173fae92" x="124.527273" y="62.798079" style="fill: #ffffff"/>
     <use xlink:href="#m77173fae92" x="93.67246" y="73.610289" style="fill: #ffffff"/>
     <use xlink:href="#m77173fae92" x="69.082456" y="55.739844" style="fill: #ffffff"/>
     <use xlink:href="#m77173fae92" x="23.072727" y="97.86041" style="fill: #ffffff"/>
     <use xlink:href="#m77173fae92" x="73.063164" y="60.872896" style="fill: #ffffff"/>
     <use xlink:href="#m77173fae92" x="29.984833" y="79.147079" style="fill: #ffffff"/>
     <use xlink:href="#m77173fae92" x="79.702914" y="79.877827" style="fill: #ffffff"/>
     <use xlink:href="#m77173fae92" x="60.746439" y="84.325068" style="fill: #ffffff"/>
     <use xlink:href="#m77173fae92" x="61.48878" y="63.951569" style="fill: #ffffff"/>
     <use xlink:href="#m77173fae92" x="84.282878" y="74.939458" style="fill: #ffffff"/>
     <use xlink:href="#m77173fae92" x="84.020512" y="67.378467" style="fill: #ffffff"/>
     <use xlink:href="#m77173fae92" x="92.766531" y="57.239879" style="fill: #ffffff"/>
    </g>
   </g>
   <g id="line2d_11">
    <path d="M 75.90936 104.124075 
L 91.114748 105.064468 
L 85.594596 85.438454 
L 90.61033 78.72356 
L 107.129036 55.377607 
L 93.72966 84.120219 
L 59.430353 85.518138 
L 83.15138 54.423452 
L 124.527273 62.798079 
L 93.67246 73.610289 
L 69.082456 55.739844 
L 23.072727 97.86041 
L 73.063164 60.872896 
L 29.984833 79.147079 
L 79.702914 79.877827 
L 60.746439 84.325068 
L 61.48878 63.951569 
L 84.282878 74.939458 
L 84.020512 67.378467 
L 92.766531 57.239879 
" clip-path="url(#pdd2953785a)" style="fill: none"/>
    <defs>
     <path id="m39b8a8521b" d="M -0 4.242641 
L 4.242641 0 
L 0 -4.242641 
L -4.242641 -0 
z
" style="stroke: #1976d2; stroke-linejoin: miter"/>
    </defs>
    <g clip-path="url(#pdd2953785a)">
     <use xlink:href="#m39b8a8521b" x="75.90936" y="104.124075" style="fill-opacity: 0; stroke: #1976d2; stroke-linejoin: miter"/>
     <use xlink:href="#m39b8a8521b" x="91.114748" y="105.064468" style="fill-opacity: 0; stroke: #1976d2; stroke-linejoin: miter"/>
     <use xlink:href="#m39b8a8521b" x="85.594596" y="85.438454" style="fill-opacity: 0; stroke: #1976d2; stroke-linejoin: miter"/>
     <use xlink:href="#m39b8a8521b" x="90.61033" y="78.72356" style="fill-opacity: 0; stroke: #1976d2; stroke-linejoin: miter"/>
     <use xlink:href="#m39b8a8521b" x="107.129036" y="55.377607" style="fill-opacity: 0; stroke: #1976d2; stroke-linejoin: miter"/>
     <use xlink:href="#m39b8a8521b" x="93.72966" y="84.120219" style="fill-opacity: 0; stroke: #1976d2; stroke-linejoin: miter"/>
     <use xlink:href="#m39b8a8521b" x="59.430353" y="85.518138" style="fill-opacity: 0; stroke: #1976d2; stroke-linejoin: miter"/>
     <use xlink:href="#m39b8a8521b" x="83.15138" y="54.423452" style="fill-opacity: 0; stroke: #1976d2; stroke-linejoin: miter"/>
     <use xlink:href="#m39b8a8521b" x="124.527273" y="62.798079" style="fill-opacity: 0; stroke: #1976d2; stroke-linejoin: miter"/>
     <use xlink:href="#m39b8a8521b" x="93.67246" y="73.610289" style="fill-opacity: 0; stroke: #1976d2; stroke-linejoin: miter"/>
     <use xlink:href="#m39b8a8521b" x="69.082456" y="55.739844" style="fill-opacity: 0; stroke: #1976d2; stroke-linejoin: miter"/>
     <use xlink:href="#m39b8a8521b" x="23.072727" y="97.86041" style="fill-opacity: 0; stroke: #1976d2; stroke-linejoin: miter"/>
     <use xlink:href="#m39b8a8521b" x="73.063164" y="60.872896" style="fill-opacity: 0; stroke: #1976d2; stroke-linejoin: miter"/>
     <use xlink:href="#m39b8a8521b" x="29.984833" y="79.147079" style="fill-opacity: 0; stroke: #1976d2; stroke-linejoin: miter"/>
     <use xlink:href="#m39b8a8521b" x="79.702914" y="79.877827" style="fill-opacity: 0; stroke: #1976d2; stroke-linejoin: miter"/>
     <use xlink:href="#m39b8a8521b" x="60.746439" y="84.325068" style="fill-opacity: 0; stroke: #1976d2; stroke-linejoin: miter"/>
     <use xlink:href="#m39b8a8521b" x="61.48878" y="63.951569" style="fill-opacity: 0; stroke: #1976d2; stroke-linejoin: miter"/>
     <use xlink:href="#m39b8a8521b" x="84.282878" y="74.939458" style="fill-opacity: 0; stroke: #1976d2; stroke-linejoin: miter"/>
     <use xlink:href="#m39b8a8521b" x="84.020512" y="67.378467" style="fill-opacity: 0; stroke: #1976d2; stroke-linejoin: miter"/>
     <use xlink:href="#m39b8a8521b" x="92.766531" y="57.239879" style="fill-opacity: 0; stroke: #1976d2; stroke-linejoin: miter"/>
    </g>
   </g>
   <g id="patch_3">
    <path d="M 18 128.16 
L 18 17.28 
" style="fill: none; stroke: #000000; stroke-width: 0.8; stroke-linejoin: miter; stroke-linecap: square"/>
   </g>
   <g id="patch_4">
    <path d="M 18 72.72 
L 129.6 72.72 
" style="fill: none; stroke: #000000; stroke-width: 0.8; stroke-linejoin: miter; stroke-linecap: square"/>
   </g>
   <g id="text_6">
    <!-- MAPK1: 0.33 -->
    <g transform="translate(35.86125 11.28) scale(0.12 -0.12)">
     <defs>
      <path id="DejaVuSans-4d" d="M 628 4666 
L 1569 4666 
L 2759 1491 
L 3956 4666 
L 4897 4666 
L 4897 0 
L 4281 0 
L 4281 4097 
L 3078 897 
L 2444 897 
L 1241 4097 
L 1241 0 
L 628 0 
L 628 4666 
z
" transform="scale(0.015625)"/>
      <path id="DejaVuSans-41" d="M 2188 4044 
L 1331 1722 
L 3047 1722 
L 2188 4044 
z
M 1831 4666 
L 2547 4666 
L 4325 0 
L 3669 0 
L 3244 1197 
L 1141 1197 
L 716 0 
L 50 0 
L 1831 4666 
z
" transform="scale(0.015625)"/>
      <path id="DejaVuSans-50" d="M 1259 4147 
L 1259 2394 
L 2053 2394 
Q 2494 2394 2734 2622 
Q 2975 2850 2975 3272 
Q 2975 3691 2734 3919 
Q 2494 4147 2053 4147 
L 1259 4147 
z
M 628 4666 
L 2053 4666 
Q 2838 4666 3239 4311 
Q 3641 3956 3641 3272 
Q 3641 2581 3239 2228 
Q 2838 1875 2053 1875 
L 1259 1875 
L 1259 0 
L 628 0 
L 628 4666 
z
" transform="scale(0.015625)"/>
      <path id="DejaVuSans-4b" d="M 628 4666 
L 1259 4666 
L 1259 2694 
L 3353 4666 
L 4166 4666 
L 1850 2491 
L 4331 0 
L 3500 0 
L 1259 2247 
L 1259 0 
L 628 0 
L 628 4666 
z
" transform="scale(0.015625)"/>
      <path id="DejaVuSans-31" d="M 794 531 
L 1825 531 
L 1825 4091 
L 703 3866 
L 703 4441 
L 1819 4666 
L 2450 4666 
L 2450 531 
L 3481 531 
L 3481 0 
L 794 0 
L 794 531 
z
" transform="scale(0.015625)"/>
      <path id="DejaVuSans-3a" d="M 750 794 
L 1409 794 
L 1409 0 
L 750 0 
L 750 794 
z
M 750 3309 
L 1409 3309 
L 1409 2516 
L 750 2516 
L 750 3309 
z
" transform="scale(0.015625)"/>
      <path id="DejaVuSans-20" transform="scale(0.015625)"/>
      <path id="DejaVuSans-2e" d="M 684 794 
L 1344 794 
L 1344 0 
L 684 0 
L 684 794 
z
" transform="scale(0.015625)"/>
      <path id="DejaVuSans-33" d="M 2597 2516 
Q 3050 2419 3304 2112 
Q 3559 1806 3559 1356 
Q 3559 666 3084 287 
Q 2609 -91 1734 -91 
Q 1441 -91 1130 -33 
Q 819 25 488 141 
L 488 750 
Q 750 597 1062 519 
Q 1375 441 1716 441 
Q 2309 441 2620 675 
Q 2931 909 2931 1356 
Q 2931 1769 2642 2001 
Q 2353 2234 1838 2234 
L 1294 2234 
L 1294 2753 
L 1863 2753 
Q 2328 2753 2575 2939 
Q 2822 3125 2822 3475 
Q 2822 3834 2567 4026 
Q 2313 4219 1838 4219 
Q 1578 4219 1281 4162 
Q 984 4106 628 3988 
L 628 4550 
Q 988 4650 1302 4700 
Q 1616 4750 1894 4750 
Q 2613 4750 3031 4423 
Q 3450 4097 3450 3541 
Q 3450 3153 3228 2886 
Q 3006 2619 2597 2516 
z
" transform="scale(0.015625)"/>
     </defs>
     <use xlink:href="#DejaVuSans-4d"/>
     <use xlink:href="#DejaVuSans-41" transform="translate(86.279297 0)"/>
     <use xlink:href="#DejaVuSans-50" transform="translate(154.6875 0)"/>
     <use xlink:href="#DejaVuSans-4b" transform="translate(214.990234 0)"/>
     <use xlink:href="#DejaVuSans-31" transform="translate(280.566406 0)"/>
     <use xlink:href="#DejaVuSans-3a" transform="translate(344.189453 0)"/>
     <use xlink:href="#DejaVuSans-20" transform="translate(377.880859 0)"/>
     <use xlink:href="#DejaVuSans-30" transform="translate(409.667969 0)"/>
     <use xlink:href="#DejaVuSans-2e" transform="translate(473.291016 0)"/>
     <use xlink:href="#DejaVuSans-33" transform="translate(505.078125 0)"/>
     <use xlink:href="#DejaVuSans-33" transform="translate(568.701172 0)"/>
    </g>
   </g>
  </g>
 </g>
 <defs>
  <clipPath id="pdd2953785a">
   <rect x="18" y="17.28" width="111.6" height="110.88"/>
  </clipPath>
 </defs>
</svg>
