<?xml version="1.0" encoding="utf-8" standalone="no"?>
<!DOCTYPE svg PUBLIC "-//W3C//DTD SVG 1.1//EN"
  "http://www.w3.org/Graphics/SVG/1.1/DTD/svg11.dtd">
<svg xmlns:xlink="http://www.w3.org/1999/xlink" width="144pt" height="144pt" viewBox="0 0 144 144" xmlns="http://www.w3.org/2000/svg" version="1.1">
 <metadata>
  <rdf:RDF xmlns:dc="http://purl.org/dc/elements/1.1/" xmlns:cc="http://creativecommons.org/ns#" xmlns:rdf="http://www.w3.org/1999/02/22-rdf-syntax-ns#">
   <cc:Work>
    <dc:type rdf:resource="http://purl.org/dc/dcmitype/StillImage"/>
    <dc:date>2025-09-29T11:59:43.855832</dc:date>
    <dc:format>image/svg+xml</dc:format>
    <dc:creator>
     <cc:Agent>
      <dc:title>Matplotlib v3.10.6, https://matplotlib.org/</dc:title>
     </cc:Agent>
    </dc:creator>
   </cc:Work>
  </rdf:RDF>
 </metadata>
 <defs>
  <style type="text/css">*{stroke-linejoin: round; stroke-linecap: butt}</style>
 </defs>
 <g id="figure_1">
  <g id="patch_1">
   <path d="M 0 144 
L 144 144 
L 144 0 
L 0 0 
z
" style="fill: #ffffff"/>
  </g>
  <g id="axes_1">
   <g id="patch_2">
    <path d="M 18 128.16 
L 129.6 128.16 
L 129.6 17.28 
L 18 17.28 
z
" style="fill: #ffffff"/>
   </g>
   <g id="matplotlib.axis_1">
    <g id="xtick_1">
     <g id="line2d_1">
      <defs>
       <path id="m3aac53d57a" d="M 0 0 
L 0 3.5 
" style="stroke: #000000; stroke-width: 0.8"/>
      </defs>
      <g>
       <use xlink:href="#m3aac53d57a" x="31.750472" y="72.72" style="stroke: #000000; stroke-width: 0.8"/>
      </g>
     </g>
    </g>
    <g id="xtick_2">
     <g id="line2d_2">
      <g>
       <use xlink:href="#m3aac53d57a" x="122.9874" y="72.72" style="stroke: #000000; stroke-width: 0.8"/>
      </g>
     </g>
    </g>
   </g>
   <g id="matplotlib.axis_2">
    <g id="ytick_1">
     <g id="line2d_3">
      <defs>
       <path id="m469eb6a934" d="M 0 0 
L -3.5 0 
" style="stroke: #000000; stroke-width: 0.8"/>
      </defs>
      <g>
       <use xlink:href="#m469eb6a934" x="18" y="128.16" style="stroke: #000000; stroke-width: 0.8"/>
      </g>
     </g>
     <g id="text_1">
      <!-- −4 -->
      <g transform="translate(-3.742188 131.959219) scale(0.1 -0.1)">
       <defs>
        <path id="DejaVuSans-2212" d="M 678 2272 
L 4684 2272 
L 4684 1741 
L 678 1741 
L 678 2272 
z
" transform="scale(0.015625)"/>
        <path id="DejaVuSans-34" d="M 2419 4116 
L 825 1625 
L 2419 1625 
L 2419 4116 
z
M 2253 4666 
L 3047 4666 
L 3047 1625 
L 3713 1625 
L 3713 1100 
L 3047 1100 
L 3047 0 
L 2419 0 
L 2419 1100 
L 313 1100 
L 313 1709 
L 2253 4666 
z
" transform="scale(0.015625)"/>
       </defs>
       <use xlink:href="#DejaVuSans-2212"/>
       <use xlink:href="#DejaVuSans-34" transform="translate(83.789062 0)"/>
      </g>
     </g>
    </g>
    <g id="ytick_2">
     <g id="line2d_4">
      <g>
       <use xlink:href="#m469eb6a934" x="18" y="100.44" style="stroke: #000000; stroke-width: 0.8"/>
      </g>
     </g>
     <g id="text_2">
      <!-- −2 -->
      <g transform="translate(-3.742188 104.239219) scale(0.1 -0.1)">
       <defs>
        <path id="DejaVuSans-32" d="M 1228 531 
L 3431 531 
L 3431 0 
L 469 0 
L 469 531 
Q 828 903 1448 1529 
Q 2069 2156 2228 2338 
Q 2531 2678 2651 2914 
Q 2772 3150 2772 3378 
Q 2772 3750 2511 3984 
Q 2250 4219 1831 4219 
Q 1534 4219 1204 4116 
Q 875 4013 500 3803 
L 500 4441 
Q 881 4594 1212 4672 
Q 1544 4750 1819 4750 
Q 2544 4750 2975 4387 
Q 3406 4025 3406 3419 
Q 3406 3131 3298 2873 
Q 3191 2616 2906 2266 
Q 2828 2175 2409 1742 
Q 1991 1309 1228 531 
z
" transform="scale(0.015625)"/>
       </defs>
       <use xlink:href="#DejaVuSans-2212"/>
       <use xlink:href="#DejaVuSans-32" transform="translate(83.789062 0)"/>
      </g>
     </g>
    </g>
    <g id="ytick_3">
     <g id="line2d_5">
      <g>
       <use xlink:href="#m469eb6a934" x="18" y="72.72" style="stroke: #000000; stroke-width: 0.8"/>
      </g>
     </g>
     <g id="text_3">
      <!-- 0 -->
      <g transform="translate(4.6375 76.519219) scale(0.1 -0.1)">
       <defs>
        <path id="DejaVuSans-30" d="M 2034 4250 
Q 1547 4250 1301 3770 
Q 1056 3291 1056 2328 
Q 1056 1369 1301 889 
Q 1547 409 2034 409 
Q 2525 409 2770 889 
Q 3016 1369 3016 2328 
Q 3016 3291 2770 3770 
Q 2525 4250 2034 4250 
z
M 2034 4750 
Q 2819 4750 3233 4129 
Q 3647 3509 3647 2328 
Q 3647 1150 3233 529 
Q 2819 -91 2034 -91 
Q 1250 -91 836 529 
Q 422 1150 422 2328 
Q 422 3509 836 4129 
Q 1250 4750 2034 4750 
z
" transform="scale(0.015625)"/>
       </defs>
       <use xlink:href="#DejaVuSans-30"/>
      </g>
     </g>
    </g>
    <g id="ytick_4">
     <g id="line2d_6">
      <g>
       <use xlink:href="#m469eb6a934" x="18" y="45" style="stroke: #000000; stroke-width: 0.8"/>
      </g>
     </g>
     <g id="text_4">
      <!-- 2 -->
      <g transform="translate(4.6375 48.799219) scale(0.1 -0.1)">
       <use xlink:href="#DejaVuSans-32"/>
      </g>
     </g>
    </g>
    <g id="ytick_5">
     <g id="line2d_7">
      <g>
       <use xlink:href="#m469eb6a934" x="18" y="17.28" style="stroke: #000000; stroke-width: 0.8"/>
      </g>
     </g>
     <g id="text_5">
      <!-- 4 -->
      <g transform="translate(4.6375 21.079219) scale(0.1 -0.1)">
       <use xlink:href="#DejaVuSans-34"/>
      </g>
     </g>
    </g>
   </g>
   <g id="line2d_8">
    <path d="M 84.972984 77.554342 
L 62.234606 82.25131 
L 83.037454 64.638006 
L 101.883063 65.631755 
L 98.396564 80.302909 
L 89.491087 57.656606 
L 112.70468 72.311508 
L 81.702295 79.515568 
L 86.321965 74.534218 
L 47.206764 82.89799 
L 69.785298 68.538903 
L 56.172866 89.783063 
L 96.460281 58.662551 
L 73.074578 69.200498 
L 67.773893 58.232046 
L 116.095986 62.440563 
L 76.63 72.97734 
L 76.891486 75.46363 
L 71.455544 63.000769 
L 92.636343 61.492697 
L 92.544715 49.123322 
" clip-path="url(#pee90c7db5c)" style="fill: none"/>
    <defs>
     <path id="m515ed1c752" d="M 0 -4.242641 
L -4.242641 -0 
L -0 4.242641 
L 0 -4.242641 
"/>
    </defs>
    <g clip-path="url(#pee90c7db5c)">
     <use xlink:href="#m515ed1c752" x="84.972984" y="77.554342" style="fill: #d32f2f"/>
     <use xlink:href="#m515ed1c752" x="62.234606" y="82.25131" style="fill: #d32f2f"/>
     <use xlink:href="#m515ed1c752" x="83.037454" y="64.638006" style="fill: #d32f2f"/>
     <use xlink:href="#m515ed1c752" x="101.883063" y="65.631755" style="fill: #d32f2f"/>
     <use xlink:href="#m515ed1c752" x="98.396564" y="80.302909" style="fill: #d32f2f"/>
     <use xlink:href="#m515ed1c752" x="89.491087" y="57.656606" style="fill: #d32f2f"/>
     <use xlink:href="#m515ed1c752" x="112.70468" y="72.311508" style="fill: #d32f2f"/>
     <use xlink:href="#m515ed1c752" x="81.702295" y="79.515568" style="fill: #d32f2f"/>
     <use xlink:href="#m515ed1c752" x="86.321965" y="74.534218" style="fill: #d32f2f"/>
     <use xlink:href="#m515ed1c752" x="47.206764" y="82.89799" style="fill: #d32f2f"/>
     <use xlink:href="#m515ed1c752" x="69.785298" y="68.538903" style="fill: #d32f2f"/>
     <use xlink:href="#m515ed1c752" x="56.172866" y="89.783063" style="fill: #d32f2f"/>
     <use xlink:href="#m515ed1c752" x="96.460281" y="58.662551" style="fill: #d32f2f"/>
     <use xlink:href="#m515ed1c752" x="73.074578" y="69.200498" style="fill: #d32f2f"/>
     <use xlink:href="#m515ed1c752" x="67.773893" y="58.232046" style="fill: #d32f2f"/>
     <use xlink:href="#m515ed1c752" x="116.095986" y="62.440563" style="fill: #d32f2f"/>
     <use xlink:href="#m515ed1c752" x="76.63" y="72.97734" style="fill: #d32f2f"/>
     <use xlink:href="#m515ed1c752" x="76.891486" y="75.46363" style="fill: #d32f2f"/>
     <use xlink:href="#m515ed1c752" x="71.455544" y="63.000769" style="fill: #d32f2f"/>
     <use xlink:href="#m515ed1c752" x="92.636343" y="61.492697" style="fill: #d32f2f"/>
     <use xlink:href="#m515ed1c752" x="92.544715" y="49.123322" style="fill: #d32f2f"/>
    </g>
    <defs>
     <path id="md251e20707" d="M 0 -4.242641 
L 4.242641 0 
L -0 4.242641 
L 0 -4.242641 
"/>
    </defs>
    <g clip-path="url(#pee90c7db5c)">
     <use xlink:href="#md251e20707" x="84.972984" y="77.554342" style="fill: #ffffff"/>
     <use xlink:href="#md251e20707" x="62.234606" y="82.25131" style="fill: #ffffff"/>
     <use xlink:href="#md251e20707" x="83.037454" y="64.638006" style="fill: #ffffff"/>
     <use xlink:href="#md251e20707" x="101.883063" y="65.631755" style="fill: #ffffff"/>
     <use xlink:href="#md251e20707" x="98.396564" y="80.302909" style="fill: #ffffff"/>
     <use xlink:href="#md251e20707" x="89.491087" y="57.656606" style="fill: #ffffff"/>
     <use xlink:href="#md251e20707" x="112.70468" y="72.311508" style="fill: #ffffff"/>
     <use xlink:href="#md251e20707" x="81.702295" y="79.515568" style="fill: #ffffff"/>
     <use xlink:href="#md251e20707" x="86.321965" y="74.534218" style="fill: #ffffff"/>
     <use xlink:href="#md251e20707" x="47.206764" y="82.89799" style="fill: #ffffff"/>
     <use xlink:href="#md251e20707" x="69.785298" y="68.538903" style="fill: #ffffff"/>
     <use xlink:href="#md251e20707" x="56.172866" y="89.783063" style="fill: #ffffff"/>
     <use xlink:href="#md251e20707" x="96.460281" y="58.662551" style="fill: #ffffff"/>
     <use xlink:href="#md251e20707" x="73.074578" y="69.200498" style="fill: #ffffff"/>
     <use xlink:href="#md251e20707" x="67.773893" y="58.232046" style="fill: #ffffff"/>
     <use xlink:href="#md251e20707" x="116.095986" y="62.440563" style="fill: #ffffff"/>
     <use xlink:href="#md251e20707" x="76.63" y="72.97734" style="fill: #ffffff"/>
     <use xlink:href="#md251e20707" x="76.891486" y="75.46363" style="fill: #ffffff"/>
     <use xlink:href="#md251e20707" x="71.455544" y="63.000769" style="fill: #ffffff"/>
     <use xlink:href="#md251e20707" x="92.636343" y="61.492697" style="fill: #ffffff"/>
     <use xlink:href="#md251e20707" x="92.544715" y="49.123322" style="fill: #ffffff"/>
    </g>
   </g>
   <g id="line2d_9">
    <path d="M 84.972984 77.554342 
L 62.234606 82.25131 
L 83.037454 64.638006 
L 101.883063 65.631755 
L 98.396564 80.302909 
L 89.491087 57.656606 
L 112.70468 72.311508 
L 81.702295 79.515568 
L 86.321965 74.534218 
L 47.206764 82.89799 
L 69.785298 68.538903 
L 56.172866 89.783063 
L 96.460281 58.662551 
L 73.074578 69.200498 
L 67.773893 58.232046 
L 116.095986 62.440563 
L 76.63 72.97734 
L 76.891486 75.46363 
L 71.455544 63.000769 
L 92.636343 61.492697 
L 92.544715 49.123322 
" clip-path="url(#pee90c7db5c)" style="fill: none"/>
    <defs>
     <path id="mc816a95eb9" d="M -0 4.242641 
L 4.242641 0 
L 0 -4.242641 
L -4.242641 -0 
z
" style="stroke: #d32f2f; stroke-linejoin: miter"/>
    </defs>
    <g clip-path="url(#pee90c7db5c)">
     <use xlink:href="#mc816a95eb9" x="84.972984" y="77.554342" style="fill-opacity: 0; stroke: #d32f2f; stroke-linejoin: miter"/>
     <use xlink:href="#mc816a95eb9" x="62.234606" y="82.25131" style="fill-opacity: 0; stroke: #d32f2f; stroke-linejoin: miter"/>
     <use xlink:href="#mc816a95eb9" x="83.037454" y="64.638006" style="fill-opacity: 0; stroke: #d32f2f; stroke-linejoin: miter"/>
     <use xlink:href="#mc816a95eb9" x="101.883063" y="65.631755" style="fill-opacity: 0; stroke: #d32f2f; stroke-linejoin: miter"/>
     <use xlink:href="#mc816a95eb9" x="98.396564" y="80.302909" style="fill-opacity: 0; stroke: #d32f2f; stroke-linejoin: miter"/>
     <use xlink:href="#mc816a95eb9" x="89.491087" y="57.656606" style="fill-opacity: 0; stroke: #d32f2f; stroke-linejoin: miter"/>
     <use xlink:href="#mc816a95eb9" x="112.70468" y="72.311508" style="fill-opacity: 0; stroke: #d32f2f; stroke-linejoin: miter"/>
     <use xlink:href="#mc816a95eb9" x="81.702295" y="79.515568" style="fill-opacity: 0; stroke: #d32f2f; stroke-linejoin: miter"/>
     <use xlink:href="#mc816a95eb9" x="86.321965" y="74.534218" style="fill-opacity: 0; stroke: #d32f2f; stroke-linejoin: miter"/>
     <use xlink:href="#mc816a95eb9" x="47.206764" y="82.89799" style="fill-opacity: 0; stroke: #d32f2f; stroke-linejoin: miter"/>
     <use xlink:href="#mc816a95eb9" x="69.785298" y="68.538903" style="fill-opacity: 0; stroke: #d32f2f; stroke-linejoin: miter"/>
     <use xlink:href="#mc816a95eb9" x="56.172866" y="89.783063" style="fill-opacity: 0; stroke: #d32f2f; stroke-linejoin: miter"/>
     <use xlink:href="#mc816a95eb9" x="96.460281" y="58.662551" style="fill-opacity: 0; stroke: #d32f2f; stroke-linejoin: miter"/>
     <use xlink:href="#mc816a95eb9" x="73.074578" y="69.200498" style="fill-opacity: 0; stroke: #d32f2f; stroke-linejoin: miter"/>
     <use xlink:href="#mc816a95eb9" x="67.773893" y="58.232046" style="fill-opacity: 0; stroke: #d32f2f; stroke-linejoin: miter"/>
     <use xlink:href="#mc816a95eb9" x="116.095986" y="62.440563" style="fill-opacity: 0; stroke: #d32f2f; stroke-linejoin: miter"/>
     <use xlink:href="#mc816a95eb9" x="76.63" y="72.97734" style="fill-opacity: 0; stroke: #d32f2f; stroke-linejoin: miter"/>
     <use xlink:href="#mc816a95eb9" x="76.891486" y="75.46363" style="fill-opacity: 0; stroke: #d32f2f; stroke-linejoin: miter"/>
     <use xlink:href="#mc816a95eb9" x="71.455544" y="63.000769" style="fill-opacity: 0; stroke: #d32f2f; stroke-linejoin: miter"/>
     <use xlink:href="#mc816a95eb9" x="92.636343" y="61.492697" style="fill-opacity: 0; stroke: #d32f2f; stroke-linejoin: miter"/>
     <use xlink:href="#mc816a95eb9" x="92.544715" y="49.123322" style="fill-opacity: 0; stroke: #d32f2f; stroke-linejoin: miter"/>
    </g>
   </g>
   <g id="line2d_10">
    <path d="M 75.90936 96.67226 
L 91.114748 99.455964 
L 85.594596 76.884483 
L 90.61033 80.753667 
L 107.129036 58.933177 
L 93.72966 80.361774 
L 59.430353 76.552545 
L 83.15138 55.463016 
L 124.527273 63.418866 
L 93.67246 76.938734 
L 69.082456 61.390893 
L 23.072727 121.404995 
L 73.063164 63.585074 
L 29.984833 83.962798 
L 79.702914 74.1021 
L 60.746439 83.393955 
L 61.48878 63.782923 
L 84.282878 80.308823 
L 84.020512 62.292309 
L 92.766531 55.652047 
" clip-path="url(#pee90c7db5c)" style="fill: none"/>
    <defs>
     <path id="m2a2ac205fe" d="M -0 4.242641 
L 4.242641 0 
L 0 -4.242641 
L -0 4.242641 
"/>
    </defs>
    <g clip-path="url(#pee90c7db5c)">
     <use xlink:href="#m2a2ac205fe" x="75.90936" y="96.67226" style="fill: #1976d2"/>
     <use xlink:href="#m2a2ac205fe" x="91.114748" y="99.455964" style="fill: #1976d2"/>
     <use xlink:href="#m2a2ac205fe" x="85.594596" y="76.884483" style="fill: #1976d2"/>
     <use xlink:href="#m2a2ac205fe" x="90.61033" y="80.753667" style="fill: #1976d2"/>
     <use xlink:href="#m2a2ac205fe" x="107.129036" y="58.933177" style="fill: #1976d2"/>
     <use xlink:href="#m2a2ac205fe" x="93.72966" y="80.361774" style="fill: #1976d2"/>
     <use xlink:href="#m2a2ac205fe" x="59.430353" y="76.552545" style="fill: #1976d2"/>
     <use xlink:href="#m2a2ac205fe" x="83.15138" y="55.463016" style="fill: #1976d2"/>
     <use xlink:href="#m2a2ac205fe" x="124.527273" y="63.418866" style="fill: #1976d2"/>
     <use xlink:href="#m2a2ac205fe" x="93.67246" y="76.938734" style="fill: #1976d2"/>
     <use xlink:href="#m2a2ac205fe" x="69.082456" y="61.390893" style="fill: #1976d2"/>
     <use xlink:href="#m2a2ac205fe" x="23.072727" y="121.404995" style="fill: #1976d2"/>
     <use xlink:href="#m2a2ac205fe" x="73.063164" y="63.585074" style="fill: #1976d2"/>
     <use xlink:href="#m2a2ac205fe" x="29.984833" y="83.962798" style="fill: #1976d2"/>
     <use xlink:href="#m2a2ac205fe" x="79.702914" y="74.1021" style="fill: #1976d2"/>
     <use xlink:href="#m2a2ac205fe" x="60.746439" y="83.393955" style="fill: #1976d2"/>
     <use xlink:href="#m2a2ac205fe" x="61.48878" y="63.782923" style="fill: #1976d2"/>
     <use xlink:href="#m2a2ac205fe" x="84.282878" y="80.308823" style="fill: #1976d2"/>
     <use xlink:href="#m2a2ac205fe" x="84.020512" y="62.292309" style="fill: #1976d2"/>
     <use xlink:href="#m2a2ac205fe" x="92.766531" y="55.652047" style="fill: #1976d2"/>
    </g>
    <defs>
     <path id="m93de14c1b7" d="M -0 4.242641 
L -4.242641 -0 
L 0 -4.242641 
L -0 4.242641 
"/>
    </defs>
    <g clip-path="url(#pee90c7db5c)">
     <use xlink:href="#m93de14c1b7" x="75.90936" y="96.67226" style="fill: #ffffff"/>
     <use xlink:href="#m93de14c1b7" x="91.114748" y="99.455964" style="fill: #ffffff"/>
     <use xlink:href="#m93de14c1b7" x="85.594596" y="76.884483" style="fill: #ffffff"/>
     <use xlink:href="#m93de14c1b7" x="90.61033" y="80.753667" style="fill: #ffffff"/>
     <use xlink:href="#m93de14c1b7" x="107.129036" y="58.933177" style="fill: #ffffff"/>
     <use xlink:href="#m93de14c1b7" x="93.72966" y="80.361774" style="fill: #ffffff"/>
     <use xlink:href="#m93de14c1b7" x="59.430353" y="76.552545" style="fill: #ffffff"/>
     <use xlink:href="#m93de14c1b7" x="83.15138" y="55.463016" style="fill: #ffffff"/>
     <use xlink:href="#m93de14c1b7" x="124.527273" y="63.418866" style="fill: #ffffff"/>
     <use xlink:href="#m93de14c1b7" x="93.67246" y="76.938734" style="fill: #ffffff"/>
     <use xlink:href="#m93de14c1b7" x="69.082456" y="61.390893" style="fill: #ffffff"/>
     <use xlink:href="#m93de14c1b7" x="23.072727" y="121.404995" style="fill: #ffffff"/>
     <use xlink:href="#m93de14c1b7" x="73.063164" y="63.585074" style="fill: #ffffff"/>
     <use xlink:href="#m93de14c1b7" x="29.984833" y="83.962798" style="fill: #ffffff"/>
     <use xlink:href="#m93de14c1b7" x="79.702914" y="74.1021" style="fill: #ffffff"/>
     <use xlink:href="#m93de14c1b7" x="60.746439" y="83.393955" style="fill: #ffffff"/>
     <use xlink:href="#m93de14c1b7" x="61.48878" y="63.782923" style="fill: #ffffff"/>
     <use xlink:href="#m93de14c1b7" x="84.282878" y="80.308823" style="fill: #ffffff"/>
     <use xlink:href="#m93de14c1b7" x="84.020512" y="62.292309" style="fill: #ffffff"/>
     <use xlink:href="#m93de14c1b7" x="92.766531" y="55.652047" style="fill: #ffffff"/>
    </g>
   </g>
   <g id="line2d_11">
    <path d="M 75.90936 96.67226 
L 91.114748 99.455964 
L 85.594596 76.884483 
L 90.61033 80.753667 
L 107.129036 58.933177 
L 93.72966 80.361774 
L 59.430353 76.552545 
L 83.15138 55.463016 
L 124.527273 63.418866 
L 93.67246 76.938734 
L 69.082456 61.390893 
L 23.072727 121.404995 
L 73.063164 63.585074 
L 29.984833 83.962798 
L 79.702914 74.1021 
L 60.746439 83.393955 
L 61.48878 63.782923 
L 84.282878 80.308823 
L 84.020512 62.292309 
L 92.766531 55.652047 
" clip-path="url(#pee90c7db5c)" style="fill: none"/>
    <defs>
     <path id="m7e7bd95ebf" d="M -0 4.242641 
L 4.242641 0 
L 0 -4.242641 
L -4.242641 -0 
z
" style="stroke: #1976d2; stroke-linejoin: miter"/>
    </defs>
    <g clip-path="url(#pee90c7db5c)">
     <use xlink:href="#m7e7bd95ebf" x="75.90936" y="96.67226" style="fill-opacity: 0; stroke: #1976d2; stroke-linejoin: miter"/>
     <use xlink:href="#m7e7bd95ebf" x="91.114748" y="99.455964" style="fill-opacity: 0; stroke: #1976d2; stroke-linejoin: miter"/>
     <use xlink:href="#m7e7bd95ebf" x="85.594596" y="76.884483" style="fill-opacity: 0; stroke: #1976d2; stroke-linejoin: miter"/>
     <use xlink:href="#m7e7bd95ebf" x="90.61033" y="80.753667" style="fill-opacity: 0; stroke: #1976d2; stroke-linejoin: miter"/>
     <use xlink:href="#m7e7bd95ebf" x="107.129036" y="58.933177" style="fill-opacity: 0; stroke: #1976d2; stroke-linejoin: miter"/>
     <use xlink:href="#m7e7bd95ebf" x="93.72966" y="80.361774" style="fill-opacity: 0; stroke: #1976d2; stroke-linejoin: miter"/>
     <use xlink:href="#m7e7bd95ebf" x="59.430353" y="76.552545" style="fill-opacity: 0; stroke: #1976d2; stroke-linejoin: miter"/>
     <use xlink:href="#m7e7bd95ebf" x="83.15138" y="55.463016" style="fill-opacity: 0; stroke: #1976d2; stroke-linejoin: miter"/>
     <use xlink:href="#m7e7bd95ebf" x="124.527273" y="63.418866" style="fill-opacity: 0; stroke: #1976d2; stroke-linejoin: miter"/>
     <use xlink:href="#m7e7bd95ebf" x="93.67246" y="76.938734" style="fill-opacity: 0; stroke: #1976d2; stroke-linejoin: miter"/>
     <use xlink:href="#m7e7bd95ebf" x="69.082456" y="61.390893" style="fill-opacity: 0; stroke: #1976d2; stroke-linejoin: miter"/>
     <use xlink:href="#m7e7bd95ebf" x="23.072727" y="121.404995" style="fill-opacity: 0; stroke: #1976d2; stroke-linejoin: miter"/>
     <use xlink:href="#m7e7bd95ebf" x="73.063164" y="63.585074" style="fill-opacity: 0; stroke: #1976d2; stroke-linejoin: miter"/>
     <use xlink:href="#m7e7bd95ebf" x="29.984833" y="83.962798" style="fill-opacity: 0; stroke: #1976d2; stroke-linejoin: miter"/>
     <use xlink:href="#m7e7bd95ebf" x="79.702914" y="74.1021" style="fill-opacity: 0; stroke: #1976d2; stroke-linejoin: miter"/>
     <use xlink:href="#m7e7bd95ebf" x="60.746439" y="83.393955" style="fill-opacity: 0; stroke: #1976d2; stroke-linejoin: miter"/>
     <use xlink:href="#m7e7bd95ebf" x="61.48878" y="63.782923" style="fill-opacity: 0; stroke: #1976d2; stroke-linejoin: miter"/>
     <use xlink:href="#m7e7bd95ebf" x="84.282878" y="80.308823" style="fill-opacity: 0; stroke: #1976d2; stroke-linejoin: miter"/>
     <use xlink:href="#m7e7bd95ebf" x="84.020512" y="62.292309" style="fill-opacity: 0; stroke: #1976d2; stroke-linejoin: miter"/>
     <use xlink:href="#m7e7bd95ebf" x="92.766531" y="55.652047" style="fill-opacity: 0; stroke: #1976d2; stroke-linejoin: miter"/>
    </g>
   </g>
   <g id="patch_3">
    <path d="M 18 128.16 
L 18 17.28 
" style="fill: none; stroke: #000000; stroke-width: 0.8; stroke-linejoin: miter; stroke-linecap: square"/>
   </g>
   <g id="patch_4">
    <path d="M 18 72.72 
L 129.6 72.72 
" style="fill: none; stroke: #000000; stroke-width: 0.8; stroke-linejoin: miter; stroke-linecap: square"/>
   </g>
   <g id="text_6">
    <!-- PPIA: 0.36 -->
    <g transform="translate(43.5075 11.28) scale(0.12 -0.12)">
     <defs>
      <path id="DejaVuSans-50" d="M 1259 4147 
L 1259 2394 
L 2053 2394 
Q 2494 2394 2734 2622 
Q 2975 2850 2975 3272 
Q 2975 3691 2734 3919 
Q 2494 4147 2053 4147 
L 1259 4147 
z
M 628 4666 
L 2053 4666 
Q 2838 4666 3239 4311 
Q 3641 3956 3641 3272 
Q 3641 2581 3239 2228 
Q 2838 1875 2053 1875 
L 1259 1875 
L 1259 0 
L 628 0 
L 628 4666 
z
" transform="scale(0.015625)"/>
      <path id="DejaVuSans-49" d="M 628 4666 
L 1259 4666 
L 1259 0 
L 628 0 
L 628 4666 
z
" transform="scale(0.015625)"/>
      <path id="DejaVuSans-41" d="M 2188 4044 
L 1331 1722 
L 3047 1722 
L 2188 4044 
z
M 1831 4666 
L 2547 4666 
L 4325 0 
L 3669 0 
L 3244 1197 
L 1141 1197 
L 716 0 
L 50 0 
L 1831 4666 
z
" transform="scale(0.015625)"/>
      <path id="DejaVuSans-3a" d="M 750 794 
L 1409 794 
L 1409 0 
L 750 0 
L 750 794 
z
M 750 3309 
L 1409 3309 
L 1409 2516 
L 750 2516 
L 750 3309 
z
" transform="scale(0.015625)"/>
      <path id="DejaVuSans-20" transform="scale(0.015625)"/>
      <path id="DejaVuSans-2e" d="M 684 794 
L 1344 794 
L 1344 0 
L 684 0 
L 684 794 
z
" transform="scale(0.015625)"/>
      <path id="DejaVuSans-33" d="M 2597 2516 
Q 3050 2419 3304 2112 
Q 3559 1806 3559 1356 
Q 3559 666 3084 287 
Q 2609 -91 1734 -91 
Q 1441 -91 1130 -33 
Q 819 25 488 141 
L 488 750 
Q 750 597 1062 519 
Q 1375 441 1716 441 
Q 2309 441 2620 675 
Q 2931 909 2931 1356 
Q 2931 1769 2642 2001 
Q 2353 2234 1838 2234 
L 1294 2234 
L 1294 2753 
L 1863 2753 
Q 2328 2753 2575 2939 
Q 2822 3125 2822 3475 
Q 2822 3834 2567 4026 
Q 2313 4219 1838 4219 
Q 1578 4219 1281 4162 
Q 984 4106 628 3988 
L 628 4550 
Q 988 4650 1302 4700 
Q 1616 4750 1894 4750 
Q 2613 4750 3031 4423 
Q 3450 4097 3450 3541 
Q 3450 3153 3228 2886 
Q 3006 2619 2597 2516 
z
" transform="scale(0.015625)"/>
      <path id="DejaVuSans-36" d="M 2113 2584 
Q 1688 2584 1439 2293 
Q 1191 2003 1191 1497 
Q 1191 994 1439 701 
Q 1688 409 2113 409 
Q 2538 409 2786 701 
Q 3034 994 3034 1497 
Q 3034 2003 2786 2293 
Q 2538 2584 2113 2584 
z
M 3366 4563 
L 3366 3988 
Q 3128 4100 2886 4159 
Q 2644 4219 2406 4219 
Q 1781 4219 1451 3797 
Q 1122 3375 1075 2522 
Q 1259 2794 1537 2939 
Q 1816 3084 2150 3084 
Q 2853 3084 3261 2657 
Q 3669 2231 3669 1497 
Q 3669 778 3244 343 
Q 2819 -91 2113 -91 
Q 1303 -91 875 529 
Q 447 1150 447 2328 
Q 447 3434 972 4092 
Q 1497 4750 2381 4750 
Q 2619 4750 2861 4703 
Q 3103 4656 3366 4563 
z
" transform="scale(0.015625)"/>
     </defs>
     <use xlink:href="#DejaVuSans-50"/>
     <use xlink:href="#DejaVuSans-50" transform="translate(60.302734 0)"/>
     <use xlink:href="#DejaVuSans-49" transform="translate(120.605469 0)"/>
     <use xlink:href="#DejaVuSans-41" transform="translate(150.097656 0)"/>
     <use xlink:href="#DejaVuSans-3a" transform="translate(216.755859 0)"/>
     <use xlink:href="#DejaVuSans-20" transform="translate(250.447266 0)"/>
     <use xlink:href="#DejaVuSans-30" transform="translate(282.234375 0)"/>
     <use xlink:href="#DejaVuSans-2e" transform="translate(345.857422 0)"/>
     <use xlink:href="#DejaVuSans-33" transform="translate(377.644531 0)"/>
     <use xlink:href="#DejaVuSans-36" transform="translate(441.267578 0)"/>
    </g>
   </g>
  </g>
 </g>
 <defs>
  <clipPath id="pee90c7db5c">
   <rect x="18" y="17.28" width="111.6" height="110.88"/>
  </clipPath>
 </defs>
</svg>
