<?xml version="1.0" encoding="utf-8" standalone="no"?>
<!DOCTYPE svg PUBLIC "-//W3C//DTD SVG 1.1//EN"
  "http://www.w3.org/Graphics/SVG/1.1/DTD/svg11.dtd">
<svg xmlns:xlink="http://www.w3.org/1999/xlink" width="144pt" height="144pt" viewBox="0 0 144 144" xmlns="http://www.w3.org/2000/svg" version="1.1">
 <metadata>
  <rdf:RDF xmlns:dc="http://purl.org/dc/elements/1.1/" xmlns:cc="http://creativecommons.org/ns#" xmlns:rdf="http://www.w3.org/1999/02/22-rdf-syntax-ns#">
   <cc:Work>
    <dc:type rdf:resource="http://purl.org/dc/dcmitype/StillImage"/>
    <dc:date>2025-09-29T11:59:44.464751</dc:date>
    <dc:format>image/svg+xml</dc:format>
    <dc:creator>
     <cc:Agent>
      <dc:title>Matplotlib v3.10.6, https://matplotlib.org/</dc:title>
     </cc:Agent>
    </dc:creator>
   </cc:Work>
  </rdf:RDF>
 </metadata>
 <defs>
  <style type="text/css">*{stroke-linejoin: round; stroke-linecap: butt}</style>
 </defs>
 <g id="figure_1">
  <g id="patch_1">
   <path d="M 0 144 
L 144 144 
L 144 0 
L 0 0 
z
" style="fill: #ffffff"/>
  </g>
  <g id="axes_1">
   <g id="patch_2">
    <path d="M 18 128.16 
L 129.6 128.16 
L 129.6 17.28 
L 18 17.28 
z
" style="fill: #ffffff"/>
   </g>
   <g id="matplotlib.axis_1">
    <g id="xtick_1">
     <g id="line2d_1">
      <defs>
       <path id="mf98946529d" d="M 0 0 
L 0 3.5 
" style="stroke: #000000; stroke-width: 0.8"/>
      </defs>
      <g>
       <use xlink:href="#mf98946529d" x="31.750472" y="72.72" style="stroke: #000000; stroke-width: 0.8"/>
      </g>
     </g>
    </g>
    <g id="xtick_2">
     <g id="line2d_2">
      <g>
       <use xlink:href="#mf98946529d" x="122.9874" y="72.72" style="stroke: #000000; stroke-width: 0.8"/>
      </g>
     </g>
    </g>
   </g>
   <g id="matplotlib.axis_2">
    <g id="ytick_1">
     <g id="line2d_3">
      <defs>
       <path id="m7a76be897e" d="M 0 0 
L -3.5 0 
" style="stroke: #000000; stroke-width: 0.8"/>
      </defs>
      <g>
       <use xlink:href="#m7a76be897e" x="18" y="128.16" style="stroke: #000000; stroke-width: 0.8"/>
      </g>
     </g>
     <g id="text_1">
      <!-- −4 -->
      <g transform="translate(-3.742188 131.959219) scale(0.1 -0.1)">
       <defs>
        <path id="DejaVuSans-2212" d="M 678 2272 
L 4684 2272 
L 4684 1741 
L 678 1741 
L 678 2272 
z
" transform="scale(0.015625)"/>
        <path id="DejaVuSans-34" d="M 2419 4116 
L 825 1625 
L 2419 1625 
L 2419 4116 
z
M 2253 4666 
L 3047 4666 
L 3047 1625 
L 3713 1625 
L 3713 1100 
L 3047 1100 
L 3047 0 
L 2419 0 
L 2419 1100 
L 313 1100 
L 313 1709 
L 2253 4666 
z
" transform="scale(0.015625)"/>
       </defs>
       <use xlink:href="#DejaVuSans-2212"/>
       <use xlink:href="#DejaVuSans-34" transform="translate(83.789062 0)"/>
      </g>
     </g>
    </g>
    <g id="ytick_2">
     <g id="line2d_4">
      <g>
       <use xlink:href="#m7a76be897e" x="18" y="100.44" style="stroke: #000000; stroke-width: 0.8"/>
      </g>
     </g>
     <g id="text_2">
      <!-- −2 -->
      <g transform="translate(-3.742188 104.239219) scale(0.1 -0.1)">
       <defs>
        <path id="DejaVuSans-32" d="M 1228 531 
L 3431 531 
L 3431 0 
L 469 0 
L 469 531 
Q 828 903 1448 1529 
Q 2069 2156 2228 2338 
Q 2531 2678 2651 2914 
Q 2772 3150 2772 3378 
Q 2772 3750 2511 3984 
Q 2250 4219 1831 4219 
Q 1534 4219 1204 4116 
Q 875 4013 500 3803 
L 500 4441 
Q 881 4594 1212 4672 
Q 1544 4750 1819 4750 
Q 2544 4750 2975 4387 
Q 3406 4025 3406 3419 
Q 3406 3131 3298 2873 
Q 3191 2616 2906 2266 
Q 2828 2175 2409 1742 
Q 1991 1309 1228 531 
z
" transform="scale(0.015625)"/>
       </defs>
       <use xlink:href="#DejaVuSans-2212"/>
       <use xlink:href="#DejaVuSans-32" transform="translate(83.789062 0)"/>
      </g>
     </g>
    </g>
    <g id="ytick_3">
     <g id="line2d_5">
      <g>
       <use xlink:href="#m7a76be897e" x="18" y="72.72" style="stroke: #000000; stroke-width: 0.8"/>
      </g>
     </g>
     <g id="text_3">
      <!-- 0 -->
      <g transform="translate(4.6375 76.519219) scale(0.1 -0.1)">
       <defs>
        <path id="DejaVuSans-30" d="M 2034 4250 
Q 1547 4250 1301 3770 
Q 1056 3291 1056 2328 
Q 1056 1369 1301 889 
Q 1547 409 2034 409 
Q 2525 409 2770 889 
Q 3016 1369 3016 2328 
Q 3016 3291 2770 3770 
Q 2525 4250 2034 4250 
z
M 2034 4750 
Q 2819 4750 3233 4129 
Q 3647 3509 3647 2328 
Q 3647 1150 3233 529 
Q 2819 -91 2034 -91 
Q 1250 -91 836 529 
Q 422 1150 422 2328 
Q 422 3509 836 4129 
Q 1250 4750 2034 4750 
z
" transform="scale(0.015625)"/>
       </defs>
       <use xlink:href="#DejaVuSans-30"/>
      </g>
     </g>
    </g>
    <g id="ytick_4">
     <g id="line2d_6">
      <g>
       <use xlink:href="#m7a76be897e" x="18" y="45" style="stroke: #000000; stroke-width: 0.8"/>
      </g>
     </g>
     <g id="text_4">
      <!-- 2 -->
      <g transform="translate(4.6375 48.799219) scale(0.1 -0.1)">
       <use xlink:href="#DejaVuSans-32"/>
      </g>
     </g>
    </g>
    <g id="ytick_5">
     <g id="line2d_7">
      <g>
       <use xlink:href="#m7a76be897e" x="18" y="17.28" style="stroke: #000000; stroke-width: 0.8"/>
      </g>
     </g>
     <g id="text_5">
      <!-- 4 -->
      <g transform="translate(4.6375 21.079219) scale(0.1 -0.1)">
       <use xlink:href="#DejaVuSans-34"/>
      </g>
     </g>
    </g>
   </g>
   <g id="line2d_8">
    <path d="M 84.972984 72.889283 
L 62.234606 77.543373 
L 83.037454 66.918618 
L 101.883063 68.980411 
L 98.396564 66.881125 
L 89.491087 48.972363 
L 112.70468 78.774132 
L 81.702295 75.74111 
L 86.321965 75.600227 
L 47.206764 90.965166 
L 69.785298 70.098408 
L 56.172866 87.006315 
L 96.460281 64.738905 
L 73.074578 67.691898 
L 67.773893 83.907976 
L 116.095986 60.767296 
L 76.63 74.197643 
L 76.891486 88.587302 
L 71.455544 61.690079 
L 92.636343 50.520612 
L 92.544715 44.623709 
" clip-path="url(#p9e7b50ec9c)" style="fill: none"/>
    <defs>
     <path id="ma4c8868105" d="M 0 -4.242641 
L -4.242641 -0 
L -0 4.242641 
L 0 -4.242641 
"/>
    </defs>
    <g clip-path="url(#p9e7b50ec9c)">
     <use xlink:href="#ma4c8868105" x="84.972984" y="72.889283" style="fill: #d32f2f"/>
     <use xlink:href="#ma4c8868105" x="62.234606" y="77.543373" style="fill: #d32f2f"/>
     <use xlink:href="#ma4c8868105" x="83.037454" y="66.918618" style="fill: #d32f2f"/>
     <use xlink:href="#ma4c8868105" x="101.883063" y="68.980411" style="fill: #d32f2f"/>
     <use xlink:href="#ma4c8868105" x="98.396564" y="66.881125" style="fill: #d32f2f"/>
     <use xlink:href="#ma4c8868105" x="89.491087" y="48.972363" style="fill: #d32f2f"/>
     <use xlink:href="#ma4c8868105" x="112.70468" y="78.774132" style="fill: #d32f2f"/>
     <use xlink:href="#ma4c8868105" x="81.702295" y="75.74111" style="fill: #d32f2f"/>
     <use xlink:href="#ma4c8868105" x="86.321965" y="75.600227" style="fill: #d32f2f"/>
     <use xlink:href="#ma4c8868105" x="47.206764" y="90.965166" style="fill: #d32f2f"/>
     <use xlink:href="#ma4c8868105" x="69.785298" y="70.098408" style="fill: #d32f2f"/>
     <use xlink:href="#ma4c8868105" x="56.172866" y="87.006315" style="fill: #d32f2f"/>
     <use xlink:href="#ma4c8868105" x="96.460281" y="64.738905" style="fill: #d32f2f"/>
     <use xlink:href="#ma4c8868105" x="73.074578" y="67.691898" style="fill: #d32f2f"/>
     <use xlink:href="#ma4c8868105" x="67.773893" y="83.907976" style="fill: #d32f2f"/>
     <use xlink:href="#ma4c8868105" x="116.095986" y="60.767296" style="fill: #d32f2f"/>
     <use xlink:href="#ma4c8868105" x="76.63" y="74.197643" style="fill: #d32f2f"/>
     <use xlink:href="#ma4c8868105" x="76.891486" y="88.587302" style="fill: #d32f2f"/>
     <use xlink:href="#ma4c8868105" x="71.455544" y="61.690079" style="fill: #d32f2f"/>
     <use xlink:href="#ma4c8868105" x="92.636343" y="50.520612" style="fill: #d32f2f"/>
     <use xlink:href="#ma4c8868105" x="92.544715" y="44.623709" style="fill: #d32f2f"/>
    </g>
    <defs>
     <path id="m512cd9a18d" d="M 0 -4.242641 
L 4.242641 0 
L -0 4.242641 
L 0 -4.242641 
"/>
    </defs>
    <g clip-path="url(#p9e7b50ec9c)">
     <use xlink:href="#m512cd9a18d" x="84.972984" y="72.889283" style="fill: #ffffff"/>
     <use xlink:href="#m512cd9a18d" x="62.234606" y="77.543373" style="fill: #ffffff"/>
     <use xlink:href="#m512cd9a18d" x="83.037454" y="66.918618" style="fill: #ffffff"/>
     <use xlink:href="#m512cd9a18d" x="101.883063" y="68.980411" style="fill: #ffffff"/>
     <use xlink:href="#m512cd9a18d" x="98.396564" y="66.881125" style="fill: #ffffff"/>
     <use xlink:href="#m512cd9a18d" x="89.491087" y="48.972363" style="fill: #ffffff"/>
     <use xlink:href="#m512cd9a18d" x="112.70468" y="78.774132" style="fill: #ffffff"/>
     <use xlink:href="#m512cd9a18d" x="81.702295" y="75.74111" style="fill: #ffffff"/>
     <use xlink:href="#m512cd9a18d" x="86.321965" y="75.600227" style="fill: #ffffff"/>
     <use xlink:href="#m512cd9a18d" x="47.206764" y="90.965166" style="fill: #ffffff"/>
     <use xlink:href="#m512cd9a18d" x="69.785298" y="70.098408" style="fill: #ffffff"/>
     <use xlink:href="#m512cd9a18d" x="56.172866" y="87.006315" style="fill: #ffffff"/>
     <use xlink:href="#m512cd9a18d" x="96.460281" y="64.738905" style="fill: #ffffff"/>
     <use xlink:href="#m512cd9a18d" x="73.074578" y="67.691898" style="fill: #ffffff"/>
     <use xlink:href="#m512cd9a18d" x="67.773893" y="83.907976" style="fill: #ffffff"/>
     <use xlink:href="#m512cd9a18d" x="116.095986" y="60.767296" style="fill: #ffffff"/>
     <use xlink:href="#m512cd9a18d" x="76.63" y="74.197643" style="fill: #ffffff"/>
     <use xlink:href="#m512cd9a18d" x="76.891486" y="88.587302" style="fill: #ffffff"/>
     <use xlink:href="#m512cd9a18d" x="71.455544" y="61.690079" style="fill: #ffffff"/>
     <use xlink:href="#m512cd9a18d" x="92.636343" y="50.520612" style="fill: #ffffff"/>
     <use xlink:href="#m512cd9a18d" x="92.544715" y="44.623709" style="fill: #ffffff"/>
    </g>
   </g>
   <g id="line2d_9">
    <path d="M 84.972984 72.889283 
L 62.234606 77.543373 
L 83.037454 66.918618 
L 101.883063 68.980411 
L 98.396564 66.881125 
L 89.491087 48.972363 
L 112.70468 78.774132 
L 81.702295 75.74111 
L 86.321965 75.600227 
L 47.206764 90.965166 
L 69.785298 70.098408 
L 56.172866 87.006315 
L 96.460281 64.738905 
L 73.074578 67.691898 
L 67.773893 83.907976 
L 116.095986 60.767296 
L 76.63 74.197643 
L 76.891486 88.587302 
L 71.455544 61.690079 
L 92.636343 50.520612 
L 92.544715 44.623709 
" clip-path="url(#p9e7b50ec9c)" style="fill: none"/>
    <defs>
     <path id="m87e05d3890" d="M -0 4.242641 
L 4.242641 0 
L 0 -4.242641 
L -4.242641 -0 
z
" style="stroke: #d32f2f; stroke-linejoin: miter"/>
    </defs>
    <g clip-path="url(#p9e7b50ec9c)">
     <use xlink:href="#m87e05d3890" x="84.972984" y="72.889283" style="fill-opacity: 0; stroke: #d32f2f; stroke-linejoin: miter"/>
     <use xlink:href="#m87e05d3890" x="62.234606" y="77.543373" style="fill-opacity: 0; stroke: #d32f2f; stroke-linejoin: miter"/>
     <use xlink:href="#m87e05d3890" x="83.037454" y="66.918618" style="fill-opacity: 0; stroke: #d32f2f; stroke-linejoin: miter"/>
     <use xlink:href="#m87e05d3890" x="101.883063" y="68.980411" style="fill-opacity: 0; stroke: #d32f2f; stroke-linejoin: miter"/>
     <use xlink:href="#m87e05d3890" x="98.396564" y="66.881125" style="fill-opacity: 0; stroke: #d32f2f; stroke-linejoin: miter"/>
     <use xlink:href="#m87e05d3890" x="89.491087" y="48.972363" style="fill-opacity: 0; stroke: #d32f2f; stroke-linejoin: miter"/>
     <use xlink:href="#m87e05d3890" x="112.70468" y="78.774132" style="fill-opacity: 0; stroke: #d32f2f; stroke-linejoin: miter"/>
     <use xlink:href="#m87e05d3890" x="81.702295" y="75.74111" style="fill-opacity: 0; stroke: #d32f2f; stroke-linejoin: miter"/>
     <use xlink:href="#m87e05d3890" x="86.321965" y="75.600227" style="fill-opacity: 0; stroke: #d32f2f; stroke-linejoin: miter"/>
     <use xlink:href="#m87e05d3890" x="47.206764" y="90.965166" style="fill-opacity: 0; stroke: #d32f2f; stroke-linejoin: miter"/>
     <use xlink:href="#m87e05d3890" x="69.785298" y="70.098408" style="fill-opacity: 0; stroke: #d32f2f; stroke-linejoin: miter"/>
     <use xlink:href="#m87e05d3890" x="56.172866" y="87.006315" style="fill-opacity: 0; stroke: #d32f2f; stroke-linejoin: miter"/>
     <use xlink:href="#m87e05d3890" x="96.460281" y="64.738905" style="fill-opacity: 0; stroke: #d32f2f; stroke-linejoin: miter"/>
     <use xlink:href="#m87e05d3890" x="73.074578" y="67.691898" style="fill-opacity: 0; stroke: #d32f2f; stroke-linejoin: miter"/>
     <use xlink:href="#m87e05d3890" x="67.773893" y="83.907976" style="fill-opacity: 0; stroke: #d32f2f; stroke-linejoin: miter"/>
     <use xlink:href="#m87e05d3890" x="116.095986" y="60.767296" style="fill-opacity: 0; stroke: #d32f2f; stroke-linejoin: miter"/>
     <use xlink:href="#m87e05d3890" x="76.63" y="74.197643" style="fill-opacity: 0; stroke: #d32f2f; stroke-linejoin: miter"/>
     <use xlink:href="#m87e05d3890" x="76.891486" y="88.587302" style="fill-opacity: 0; stroke: #d32f2f; stroke-linejoin: miter"/>
     <use xlink:href="#m87e05d3890" x="71.455544" y="61.690079" style="fill-opacity: 0; stroke: #d32f2f; stroke-linejoin: miter"/>
     <use xlink:href="#m87e05d3890" x="92.636343" y="50.520612" style="fill-opacity: 0; stroke: #d32f2f; stroke-linejoin: miter"/>
     <use xlink:href="#m87e05d3890" x="92.544715" y="44.623709" style="fill-opacity: 0; stroke: #d32f2f; stroke-linejoin: miter"/>
    </g>
   </g>
   <g id="line2d_10">
    <path d="M 75.90936 93.181686 
L 91.114748 105.188007 
L 85.594596 99.461152 
L 90.61033 70.801191 
L 107.129036 55.974494 
L 93.72966 81.283819 
L 59.430353 62.633266 
L 83.15138 62.671307 
L 124.527273 65.629516 
L 93.67246 73.372017 
L 69.082456 52.200075 
L 23.072727 76.831457 
L 73.063164 63.308779 
L 29.984833 73.721141 
L 79.702914 84.956343 
L 60.746439 100.830032 
L 61.48878 68.372583 
L 84.282878 79.056553 
L 84.020512 70.786185 
L 92.766531 64.164445 
" clip-path="url(#p9e7b50ec9c)" style="fill: none"/>
    <defs>
     <path id="m1c75d54b35" d="M -0 4.242641 
L 4.242641 0 
L 0 -4.242641 
L -0 4.242641 
"/>
    </defs>
    <g clip-path="url(#p9e7b50ec9c)">
     <use xlink:href="#m1c75d54b35" x="75.90936" y="93.181686" style="fill: #1976d2"/>
     <use xlink:href="#m1c75d54b35" x="91.114748" y="105.188007" style="fill: #1976d2"/>
     <use xlink:href="#m1c75d54b35" x="85.594596" y="99.461152" style="fill: #1976d2"/>
     <use xlink:href="#m1c75d54b35" x="90.61033" y="70.801191" style="fill: #1976d2"/>
     <use xlink:href="#m1c75d54b35" x="107.129036" y="55.974494" style="fill: #1976d2"/>
     <use xlink:href="#m1c75d54b35" x="93.72966" y="81.283819" style="fill: #1976d2"/>
     <use xlink:href="#m1c75d54b35" x="59.430353" y="62.633266" style="fill: #1976d2"/>
     <use xlink:href="#m1c75d54b35" x="83.15138" y="62.671307" style="fill: #1976d2"/>
     <use xlink:href="#m1c75d54b35" x="124.527273" y="65.629516" style="fill: #1976d2"/>
     <use xlink:href="#m1c75d54b35" x="93.67246" y="73.372017" style="fill: #1976d2"/>
     <use xlink:href="#m1c75d54b35" x="69.082456" y="52.200075" style="fill: #1976d2"/>
     <use xlink:href="#m1c75d54b35" x="23.072727" y="76.831457" style="fill: #1976d2"/>
     <use xlink:href="#m1c75d54b35" x="73.063164" y="63.308779" style="fill: #1976d2"/>
     <use xlink:href="#m1c75d54b35" x="29.984833" y="73.721141" style="fill: #1976d2"/>
     <use xlink:href="#m1c75d54b35" x="79.702914" y="84.956343" style="fill: #1976d2"/>
     <use xlink:href="#m1c75d54b35" x="60.746439" y="100.830032" style="fill: #1976d2"/>
     <use xlink:href="#m1c75d54b35" x="61.48878" y="68.372583" style="fill: #1976d2"/>
     <use xlink:href="#m1c75d54b35" x="84.282878" y="79.056553" style="fill: #1976d2"/>
     <use xlink:href="#m1c75d54b35" x="84.020512" y="70.786185" style="fill: #1976d2"/>
     <use xlink:href="#m1c75d54b35" x="92.766531" y="64.164445" style="fill: #1976d2"/>
    </g>
    <defs>
     <path id="m7454626091" d="M -0 4.242641 
L -4.242641 -0 
L 0 -4.242641 
L -0 4.242641 
"/>
    </defs>
    <g clip-path="url(#p9e7b50ec9c)">
     <use xlink:href="#m7454626091" x="75.90936" y="93.181686" style="fill: #ffffff"/>
     <use xlink:href="#m7454626091" x="91.114748" y="105.188007" style="fill: #ffffff"/>
     <use xlink:href="#m7454626091" x="85.594596" y="99.461152" style="fill: #ffffff"/>
     <use xlink:href="#m7454626091" x="90.61033" y="70.801191" style="fill: #ffffff"/>
     <use xlink:href="#m7454626091" x="107.129036" y="55.974494" style="fill: #ffffff"/>
     <use xlink:href="#m7454626091" x="93.72966" y="81.283819" style="fill: #ffffff"/>
     <use xlink:href="#m7454626091" x="59.430353" y="62.633266" style="fill: #ffffff"/>
     <use xlink:href="#m7454626091" x="83.15138" y="62.671307" style="fill: #ffffff"/>
     <use xlink:href="#m7454626091" x="124.527273" y="65.629516" style="fill: #ffffff"/>
     <use xlink:href="#m7454626091" x="93.67246" y="73.372017" style="fill: #ffffff"/>
     <use xlink:href="#m7454626091" x="69.082456" y="52.200075" style="fill: #ffffff"/>
     <use xlink:href="#m7454626091" x="23.072727" y="76.831457" style="fill: #ffffff"/>
     <use xlink:href="#m7454626091" x="73.063164" y="63.308779" style="fill: #ffffff"/>
     <use xlink:href="#m7454626091" x="29.984833" y="73.721141" style="fill: #ffffff"/>
     <use xlink:href="#m7454626091" x="79.702914" y="84.956343" style="fill: #ffffff"/>
     <use xlink:href="#m7454626091" x="60.746439" y="100.830032" style="fill: #ffffff"/>
     <use xlink:href="#m7454626091" x="61.48878" y="68.372583" style="fill: #ffffff"/>
     <use xlink:href="#m7454626091" x="84.282878" y="79.056553" style="fill: #ffffff"/>
     <use xlink:href="#m7454626091" x="84.020512" y="70.786185" style="fill: #ffffff"/>
     <use xlink:href="#m7454626091" x="92.766531" y="64.164445" style="fill: #ffffff"/>
    </g>
   </g>
   <g id="line2d_11">
    <path d="M 75.90936 93.181686 
L 91.114748 105.188007 
L 85.594596 99.461152 
L 90.61033 70.801191 
L 107.129036 55.974494 
L 93.72966 81.283819 
L 59.430353 62.633266 
L 83.15138 62.671307 
L 124.527273 65.629516 
L 93.67246 73.372017 
L 69.082456 52.200075 
L 23.072727 76.831457 
L 73.063164 63.308779 
L 29.984833 73.721141 
L 79.702914 84.956343 
L 60.746439 100.830032 
L 61.48878 68.372583 
L 84.282878 79.056553 
L 84.020512 70.786185 
L 92.766531 64.164445 
" clip-path="url(#p9e7b50ec9c)" style="fill: none"/>
    <defs>
     <path id="m5c12a6c49f" d="M -0 4.242641 
L 4.242641 0 
L 0 -4.242641 
L -4.242641 -0 
z
" style="stroke: #1976d2; stroke-linejoin: miter"/>
    </defs>
    <g clip-path="url(#p9e7b50ec9c)">
     <use xlink:href="#m5c12a6c49f" x="75.90936" y="93.181686" style="fill-opacity: 0; stroke: #1976d2; stroke-linejoin: miter"/>
     <use xlink:href="#m5c12a6c49f" x="91.114748" y="105.188007" style="fill-opacity: 0; stroke: #1976d2; stroke-linejoin: miter"/>
     <use xlink:href="#m5c12a6c49f" x="85.594596" y="99.461152" style="fill-opacity: 0; stroke: #1976d2; stroke-linejoin: miter"/>
     <use xlink:href="#m5c12a6c49f" x="90.61033" y="70.801191" style="fill-opacity: 0; stroke: #1976d2; stroke-linejoin: miter"/>
     <use xlink:href="#m5c12a6c49f" x="107.129036" y="55.974494" style="fill-opacity: 0; stroke: #1976d2; stroke-linejoin: miter"/>
     <use xlink:href="#m5c12a6c49f" x="93.72966" y="81.283819" style="fill-opacity: 0; stroke: #1976d2; stroke-linejoin: miter"/>
     <use xlink:href="#m5c12a6c49f" x="59.430353" y="62.633266" style="fill-opacity: 0; stroke: #1976d2; stroke-linejoin: miter"/>
     <use xlink:href="#m5c12a6c49f" x="83.15138" y="62.671307" style="fill-opacity: 0; stroke: #1976d2; stroke-linejoin: miter"/>
     <use xlink:href="#m5c12a6c49f" x="124.527273" y="65.629516" style="fill-opacity: 0; stroke: #1976d2; stroke-linejoin: miter"/>
     <use xlink:href="#m5c12a6c49f" x="93.67246" y="73.372017" style="fill-opacity: 0; stroke: #1976d2; stroke-linejoin: miter"/>
     <use xlink:href="#m5c12a6c49f" x="69.082456" y="52.200075" style="fill-opacity: 0; stroke: #1976d2; stroke-linejoin: miter"/>
     <use xlink:href="#m5c12a6c49f" x="23.072727" y="76.831457" style="fill-opacity: 0; stroke: #1976d2; stroke-linejoin: miter"/>
     <use xlink:href="#m5c12a6c49f" x="73.063164" y="63.308779" style="fill-opacity: 0; stroke: #1976d2; stroke-linejoin: miter"/>
     <use xlink:href="#m5c12a6c49f" x="29.984833" y="73.721141" style="fill-opacity: 0; stroke: #1976d2; stroke-linejoin: miter"/>
     <use xlink:href="#m5c12a6c49f" x="79.702914" y="84.956343" style="fill-opacity: 0; stroke: #1976d2; stroke-linejoin: miter"/>
     <use xlink:href="#m5c12a6c49f" x="60.746439" y="100.830032" style="fill-opacity: 0; stroke: #1976d2; stroke-linejoin: miter"/>
     <use xlink:href="#m5c12a6c49f" x="61.48878" y="68.372583" style="fill-opacity: 0; stroke: #1976d2; stroke-linejoin: miter"/>
     <use xlink:href="#m5c12a6c49f" x="84.282878" y="79.056553" style="fill-opacity: 0; stroke: #1976d2; stroke-linejoin: miter"/>
     <use xlink:href="#m5c12a6c49f" x="84.020512" y="70.786185" style="fill-opacity: 0; stroke: #1976d2; stroke-linejoin: miter"/>
     <use xlink:href="#m5c12a6c49f" x="92.766531" y="64.164445" style="fill-opacity: 0; stroke: #1976d2; stroke-linejoin: miter"/>
    </g>
   </g>
   <g id="patch_3">
    <path d="M 18 128.16 
L 18 17.28 
" style="fill: none; stroke: #000000; stroke-width: 0.8; stroke-linejoin: miter; stroke-linecap: square"/>
   </g>
   <g id="patch_4">
    <path d="M 18 72.72 
L 129.6 72.72 
" style="fill: none; stroke: #000000; stroke-width: 0.8; stroke-linejoin: miter; stroke-linecap: square"/>
   </g>
   <g id="text_6">
    <!-- SRC: 0.31 -->
    <g transform="translate(44.644688 11.28) scale(0.12 -0.12)">
     <defs>
      <path id="DejaVuSans-53" d="M 3425 4513 
L 3425 3897 
Q 3066 4069 2747 4153 
Q 2428 4238 2131 4238 
Q 1616 4238 1336 4038 
Q 1056 3838 1056 3469 
Q 1056 3159 1242 3001 
Q 1428 2844 1947 2747 
L 2328 2669 
Q 3034 2534 3370 2195 
Q 3706 1856 3706 1288 
Q 3706 609 3251 259 
Q 2797 -91 1919 -91 
Q 1588 -91 1214 -16 
Q 841 59 441 206 
L 441 856 
Q 825 641 1194 531 
Q 1563 422 1919 422 
Q 2459 422 2753 634 
Q 3047 847 3047 1241 
Q 3047 1584 2836 1778 
Q 2625 1972 2144 2069 
L 1759 2144 
Q 1053 2284 737 2584 
Q 422 2884 422 3419 
Q 422 4038 858 4394 
Q 1294 4750 2059 4750 
Q 2388 4750 2728 4690 
Q 3069 4631 3425 4513 
z
" transform="scale(0.015625)"/>
      <path id="DejaVuSans-52" d="M 2841 2188 
Q 3044 2119 3236 1894 
Q 3428 1669 3622 1275 
L 4263 0 
L 3584 0 
L 2988 1197 
Q 2756 1666 2539 1819 
Q 2322 1972 1947 1972 
L 1259 1972 
L 1259 0 
L 628 0 
L 628 4666 
L 2053 4666 
Q 2853 4666 3247 4331 
Q 3641 3997 3641 3322 
Q 3641 2881 3436 2590 
Q 3231 2300 2841 2188 
z
M 1259 4147 
L 1259 2491 
L 2053 2491 
Q 2509 2491 2742 2702 
Q 2975 2913 2975 3322 
Q 2975 3731 2742 3939 
Q 2509 4147 2053 4147 
L 1259 4147 
z
" transform="scale(0.015625)"/>
      <path id="DejaVuSans-43" d="M 4122 4306 
L 4122 3641 
Q 3803 3938 3442 4084 
Q 3081 4231 2675 4231 
Q 1875 4231 1450 3742 
Q 1025 3253 1025 2328 
Q 1025 1406 1450 917 
Q 1875 428 2675 428 
Q 3081 428 3442 575 
Q 3803 722 4122 1019 
L 4122 359 
Q 3791 134 3420 21 
Q 3050 -91 2638 -91 
Q 1578 -91 968 557 
Q 359 1206 359 2328 
Q 359 3453 968 4101 
Q 1578 4750 2638 4750 
Q 3056 4750 3426 4639 
Q 3797 4528 4122 4306 
z
" transform="scale(0.015625)"/>
      <path id="DejaVuSans-3a" d="M 750 794 
L 1409 794 
L 1409 0 
L 750 0 
L 750 794 
z
M 750 3309 
L 1409 3309 
L 1409 2516 
L 750 2516 
L 750 3309 
z
" transform="scale(0.015625)"/>
      <path id="DejaVuSans-20" transform="scale(0.015625)"/>
      <path id="DejaVuSans-2e" d="M 684 794 
L 1344 794 
L 1344 0 
L 684 0 
L 684 794 
z
" transform="scale(0.015625)"/>
      <path id="DejaVuSans-33" d="M 2597 2516 
Q 3050 2419 3304 2112 
Q 3559 1806 3559 1356 
Q 3559 666 3084 287 
Q 2609 -91 1734 -91 
Q 1441 -91 1130 -33 
Q 819 25 488 141 
L 488 750 
Q 750 597 1062 519 
Q 1375 441 1716 441 
Q 2309 441 2620 675 
Q 2931 909 2931 1356 
Q 2931 1769 2642 2001 
Q 2353 2234 1838 2234 
L 1294 2234 
L 1294 2753 
L 1863 2753 
Q 2328 2753 2575 2939 
Q 2822 3125 2822 3475 
Q 2822 3834 2567 4026 
Q 2313 4219 1838 4219 
Q 1578 4219 1281 4162 
Q 984 4106 628 3988 
L 628 4550 
Q 988 4650 1302 4700 
Q 1616 4750 1894 4750 
Q 2613 4750 3031 4423 
Q 3450 4097 3450 3541 
Q 3450 3153 3228 2886 
Q 3006 2619 2597 2516 
z
" transform="scale(0.015625)"/>
      <path id="DejaVuSans-31" d="M 794 531 
L 1825 531 
L 1825 4091 
L 703 3866 
L 703 4441 
L 1819 4666 
L 2450 4666 
L 2450 531 
L 3481 531 
L 3481 0 
L 794 0 
L 794 531 
z
" transform="scale(0.015625)"/>
     </defs>
     <use xlink:href="#DejaVuSans-53"/>
     <use xlink:href="#DejaVuSans-52" transform="translate(63.476562 0)"/>
     <use xlink:href="#DejaVuSans-43" transform="translate(127.958984 0)"/>
     <use xlink:href="#DejaVuSans-3a" transform="translate(197.783203 0)"/>
     <use xlink:href="#DejaVuSans-20" transform="translate(231.474609 0)"/>
     <use xlink:href="#DejaVuSans-30" transform="translate(263.261719 0)"/>
     <use xlink:href="#DejaVuSans-2e" transform="translate(326.884766 0)"/>
     <use xlink:href="#DejaVuSans-33" transform="translate(358.671875 0)"/>
     <use xlink:href="#DejaVuSans-31" transform="translate(422.294922 0)"/>
    </g>
   </g>
  </g>
 </g>
 <defs>
  <clipPath id="p9e7b50ec9c">
   <rect x="18" y="17.28" width="111.6" height="110.88"/>
  </clipPath>
 </defs>
</svg>
