<?xml version="1.0" encoding="utf-8" standalone="no"?>
<!DOCTYPE svg PUBLIC "-//W3C//DTD SVG 1.1//EN"
  "http://www.w3.org/Graphics/SVG/1.1/DTD/svg11.dtd">
<svg xmlns:xlink="http://www.w3.org/1999/xlink" width="144pt" height="144pt" viewBox="0 0 144 144" xmlns="http://www.w3.org/2000/svg" version="1.1">
 <metadata>
  <rdf:RDF xmlns:dc="http://purl.org/dc/elements/1.1/" xmlns:cc="http://creativecommons.org/ns#" xmlns:rdf="http://www.w3.org/1999/02/22-rdf-syntax-ns#">
   <cc:Work>
    <dc:type rdf:resource="http://purl.org/dc/dcmitype/StillImage"/>
    <dc:date>2025-09-29T11:59:43.930882</dc:date>
    <dc:format>image/svg+xml</dc:format>
    <dc:creator>
     <cc:Agent>
      <dc:title>Matplotlib v3.10.6, https://matplotlib.org/</dc:title>
     </cc:Agent>
    </dc:creator>
   </cc:Work>
  </rdf:RDF>
 </metadata>
 <defs>
  <style type="text/css">*{stroke-linejoin: round; stroke-linecap: butt}</style>
 </defs>
 <g id="figure_1">
  <g id="patch_1">
   <path d="M 0 144 
L 144 144 
L 144 0 
L 0 0 
z
" style="fill: #ffffff"/>
  </g>
  <g id="axes_1">
   <g id="patch_2">
    <path d="M 18 128.16 
L 129.6 128.16 
L 129.6 17.28 
L 18 17.28 
z
" style="fill: #ffffff"/>
   </g>
   <g id="matplotlib.axis_1">
    <g id="xtick_1">
     <g id="line2d_1">
      <defs>
       <path id="m09d2a5652b" d="M 0 0 
L 0 3.5 
" style="stroke: #000000; stroke-width: 0.8"/>
      </defs>
      <g>
       <use xlink:href="#m09d2a5652b" x="31.750472" y="72.72" style="stroke: #000000; stroke-width: 0.8"/>
      </g>
     </g>
    </g>
    <g id="xtick_2">
     <g id="line2d_2">
      <g>
       <use xlink:href="#m09d2a5652b" x="122.9874" y="72.72" style="stroke: #000000; stroke-width: 0.8"/>
      </g>
     </g>
    </g>
   </g>
   <g id="matplotlib.axis_2">
    <g id="ytick_1">
     <g id="line2d_3">
      <defs>
       <path id="mccb672d07a" d="M 0 0 
L -3.5 0 
" style="stroke: #000000; stroke-width: 0.8"/>
      </defs>
      <g>
       <use xlink:href="#mccb672d07a" x="18" y="128.16" style="stroke: #000000; stroke-width: 0.8"/>
      </g>
     </g>
     <g id="text_1">
      <!-- −4 -->
      <g transform="translate(-3.742188 131.959219) scale(0.1 -0.1)">
       <defs>
        <path id="DejaVuSans-2212" d="M 678 2272 
L 4684 2272 
L 4684 1741 
L 678 1741 
L 678 2272 
z
" transform="scale(0.015625)"/>
        <path id="DejaVuSans-34" d="M 2419 4116 
L 825 1625 
L 2419 1625 
L 2419 4116 
z
M 2253 4666 
L 3047 4666 
L 3047 1625 
L 3713 1625 
L 3713 1100 
L 3047 1100 
L 3047 0 
L 2419 0 
L 2419 1100 
L 313 1100 
L 313 1709 
L 2253 4666 
z
" transform="scale(0.015625)"/>
       </defs>
       <use xlink:href="#DejaVuSans-2212"/>
       <use xlink:href="#DejaVuSans-34" transform="translate(83.789062 0)"/>
      </g>
     </g>
    </g>
    <g id="ytick_2">
     <g id="line2d_4">
      <g>
       <use xlink:href="#mccb672d07a" x="18" y="100.44" style="stroke: #000000; stroke-width: 0.8"/>
      </g>
     </g>
     <g id="text_2">
      <!-- −2 -->
      <g transform="translate(-3.742188 104.239219) scale(0.1 -0.1)">
       <defs>
        <path id="DejaVuSans-32" d="M 1228 531 
L 3431 531 
L 3431 0 
L 469 0 
L 469 531 
Q 828 903 1448 1529 
Q 2069 2156 2228 2338 
Q 2531 2678 2651 2914 
Q 2772 3150 2772 3378 
Q 2772 3750 2511 3984 
Q 2250 4219 1831 4219 
Q 1534 4219 1204 4116 
Q 875 4013 500 3803 
L 500 4441 
Q 881 4594 1212 4672 
Q 1544 4750 1819 4750 
Q 2544 4750 2975 4387 
Q 3406 4025 3406 3419 
Q 3406 3131 3298 2873 
Q 3191 2616 2906 2266 
Q 2828 2175 2409 1742 
Q 1991 1309 1228 531 
z
" transform="scale(0.015625)"/>
       </defs>
       <use xlink:href="#DejaVuSans-2212"/>
       <use xlink:href="#DejaVuSans-32" transform="translate(83.789062 0)"/>
      </g>
     </g>
    </g>
    <g id="ytick_3">
     <g id="line2d_5">
      <g>
       <use xlink:href="#mccb672d07a" x="18" y="72.72" style="stroke: #000000; stroke-width: 0.8"/>
      </g>
     </g>
     <g id="text_3">
      <!-- 0 -->
      <g transform="translate(4.6375 76.519219) scale(0.1 -0.1)">
       <defs>
        <path id="DejaVuSans-30" d="M 2034 4250 
Q 1547 4250 1301 3770 
Q 1056 3291 1056 2328 
Q 1056 1369 1301 889 
Q 1547 409 2034 409 
Q 2525 409 2770 889 
Q 3016 1369 3016 2328 
Q 3016 3291 2770 3770 
Q 2525 4250 2034 4250 
z
M 2034 4750 
Q 2819 4750 3233 4129 
Q 3647 3509 3647 2328 
Q 3647 1150 3233 529 
Q 2819 -91 2034 -91 
Q 1250 -91 836 529 
Q 422 1150 422 2328 
Q 422 3509 836 4129 
Q 1250 4750 2034 4750 
z
" transform="scale(0.015625)"/>
       </defs>
       <use xlink:href="#DejaVuSans-30"/>
      </g>
     </g>
    </g>
    <g id="ytick_4">
     <g id="line2d_6">
      <g>
       <use xlink:href="#mccb672d07a" x="18" y="45" style="stroke: #000000; stroke-width: 0.8"/>
      </g>
     </g>
     <g id="text_4">
      <!-- 2 -->
      <g transform="translate(4.6375 48.799219) scale(0.1 -0.1)">
       <use xlink:href="#DejaVuSans-32"/>
      </g>
     </g>
    </g>
    <g id="ytick_5">
     <g id="line2d_7">
      <g>
       <use xlink:href="#mccb672d07a" x="18" y="17.28" style="stroke: #000000; stroke-width: 0.8"/>
      </g>
     </g>
     <g id="text_5">
      <!-- 4 -->
      <g transform="translate(4.6375 21.079219) scale(0.1 -0.1)">
       <use xlink:href="#DejaVuSans-34"/>
      </g>
     </g>
    </g>
   </g>
   <g id="line2d_8">
    <path d="M 84.972984 82.822291 
L 62.234606 84.715342 
L 83.037454 62.270564 
L 101.883063 65.310561 
L 98.396564 81.440704 
L 89.491087 59.432866 
L 112.70468 61.134923 
L 81.702295 76.650756 
L 86.321965 70.8077 
L 47.206764 59.213254 
L 69.785298 62.955419 
L 56.172866 91.228878 
L 96.460281 56.954612 
L 73.074578 72.45885 
L 67.773893 60.404183 
L 116.095986 58.854067 
L 76.63 78.483892 
L 76.891486 77.374915 
L 71.455544 62.129042 
L 92.636343 68.075281 
L 92.544715 49.105171 
" clip-path="url(#p62abbfa484)" style="fill: none"/>
    <defs>
     <path id="m017ec53833" d="M 0 -4.242641 
L -4.242641 -0 
L -0 4.242641 
L 0 -4.242641 
"/>
    </defs>
    <g clip-path="url(#p62abbfa484)">
     <use xlink:href="#m017ec53833" x="84.972984" y="82.822291" style="fill: #d32f2f"/>
     <use xlink:href="#m017ec53833" x="62.234606" y="84.715342" style="fill: #d32f2f"/>
     <use xlink:href="#m017ec53833" x="83.037454" y="62.270564" style="fill: #d32f2f"/>
     <use xlink:href="#m017ec53833" x="101.883063" y="65.310561" style="fill: #d32f2f"/>
     <use xlink:href="#m017ec53833" x="98.396564" y="81.440704" style="fill: #d32f2f"/>
     <use xlink:href="#m017ec53833" x="89.491087" y="59.432866" style="fill: #d32f2f"/>
     <use xlink:href="#m017ec53833" x="112.70468" y="61.134923" style="fill: #d32f2f"/>
     <use xlink:href="#m017ec53833" x="81.702295" y="76.650756" style="fill: #d32f2f"/>
     <use xlink:href="#m017ec53833" x="86.321965" y="70.8077" style="fill: #d32f2f"/>
     <use xlink:href="#m017ec53833" x="47.206764" y="59.213254" style="fill: #d32f2f"/>
     <use xlink:href="#m017ec53833" x="69.785298" y="62.955419" style="fill: #d32f2f"/>
     <use xlink:href="#m017ec53833" x="56.172866" y="91.228878" style="fill: #d32f2f"/>
     <use xlink:href="#m017ec53833" x="96.460281" y="56.954612" style="fill: #d32f2f"/>
     <use xlink:href="#m017ec53833" x="73.074578" y="72.45885" style="fill: #d32f2f"/>
     <use xlink:href="#m017ec53833" x="67.773893" y="60.404183" style="fill: #d32f2f"/>
     <use xlink:href="#m017ec53833" x="116.095986" y="58.854067" style="fill: #d32f2f"/>
     <use xlink:href="#m017ec53833" x="76.63" y="78.483892" style="fill: #d32f2f"/>
     <use xlink:href="#m017ec53833" x="76.891486" y="77.374915" style="fill: #d32f2f"/>
     <use xlink:href="#m017ec53833" x="71.455544" y="62.129042" style="fill: #d32f2f"/>
     <use xlink:href="#m017ec53833" x="92.636343" y="68.075281" style="fill: #d32f2f"/>
     <use xlink:href="#m017ec53833" x="92.544715" y="49.105171" style="fill: #d32f2f"/>
    </g>
    <defs>
     <path id="mecb2227657" d="M 0 -4.242641 
L 4.242641 0 
L -0 4.242641 
L 0 -4.242641 
"/>
    </defs>
    <g clip-path="url(#p62abbfa484)">
     <use xlink:href="#mecb2227657" x="84.972984" y="82.822291" style="fill: #ffffff"/>
     <use xlink:href="#mecb2227657" x="62.234606" y="84.715342" style="fill: #ffffff"/>
     <use xlink:href="#mecb2227657" x="83.037454" y="62.270564" style="fill: #ffffff"/>
     <use xlink:href="#mecb2227657" x="101.883063" y="65.310561" style="fill: #ffffff"/>
     <use xlink:href="#mecb2227657" x="98.396564" y="81.440704" style="fill: #ffffff"/>
     <use xlink:href="#mecb2227657" x="89.491087" y="59.432866" style="fill: #ffffff"/>
     <use xlink:href="#mecb2227657" x="112.70468" y="61.134923" style="fill: #ffffff"/>
     <use xlink:href="#mecb2227657" x="81.702295" y="76.650756" style="fill: #ffffff"/>
     <use xlink:href="#mecb2227657" x="86.321965" y="70.8077" style="fill: #ffffff"/>
     <use xlink:href="#mecb2227657" x="47.206764" y="59.213254" style="fill: #ffffff"/>
     <use xlink:href="#mecb2227657" x="69.785298" y="62.955419" style="fill: #ffffff"/>
     <use xlink:href="#mecb2227657" x="56.172866" y="91.228878" style="fill: #ffffff"/>
     <use xlink:href="#mecb2227657" x="96.460281" y="56.954612" style="fill: #ffffff"/>
     <use xlink:href="#mecb2227657" x="73.074578" y="72.45885" style="fill: #ffffff"/>
     <use xlink:href="#mecb2227657" x="67.773893" y="60.404183" style="fill: #ffffff"/>
     <use xlink:href="#mecb2227657" x="116.095986" y="58.854067" style="fill: #ffffff"/>
     <use xlink:href="#mecb2227657" x="76.63" y="78.483892" style="fill: #ffffff"/>
     <use xlink:href="#mecb2227657" x="76.891486" y="77.374915" style="fill: #ffffff"/>
     <use xlink:href="#mecb2227657" x="71.455544" y="62.129042" style="fill: #ffffff"/>
     <use xlink:href="#mecb2227657" x="92.636343" y="68.075281" style="fill: #ffffff"/>
     <use xlink:href="#mecb2227657" x="92.544715" y="49.105171" style="fill: #ffffff"/>
    </g>
   </g>
   <g id="line2d_9">
    <path d="M 84.972984 82.822291 
L 62.234606 84.715342 
L 83.037454 62.270564 
L 101.883063 65.310561 
L 98.396564 81.440704 
L 89.491087 59.432866 
L 112.70468 61.134923 
L 81.702295 76.650756 
L 86.321965 70.8077 
L 47.206764 59.213254 
L 69.785298 62.955419 
L 56.172866 91.228878 
L 96.460281 56.954612 
L 73.074578 72.45885 
L 67.773893 60.404183 
L 116.095986 58.854067 
L 76.63 78.483892 
L 76.891486 77.374915 
L 71.455544 62.129042 
L 92.636343 68.075281 
L 92.544715 49.105171 
" clip-path="url(#p62abbfa484)" style="fill: none"/>
    <defs>
     <path id="m36690e0641" d="M -0 4.242641 
L 4.242641 0 
L 0 -4.242641 
L -4.242641 -0 
z
" style="stroke: #d32f2f; stroke-linejoin: miter"/>
    </defs>
    <g clip-path="url(#p62abbfa484)">
     <use xlink:href="#m36690e0641" x="84.972984" y="82.822291" style="fill-opacity: 0; stroke: #d32f2f; stroke-linejoin: miter"/>
     <use xlink:href="#m36690e0641" x="62.234606" y="84.715342" style="fill-opacity: 0; stroke: #d32f2f; stroke-linejoin: miter"/>
     <use xlink:href="#m36690e0641" x="83.037454" y="62.270564" style="fill-opacity: 0; stroke: #d32f2f; stroke-linejoin: miter"/>
     <use xlink:href="#m36690e0641" x="101.883063" y="65.310561" style="fill-opacity: 0; stroke: #d32f2f; stroke-linejoin: miter"/>
     <use xlink:href="#m36690e0641" x="98.396564" y="81.440704" style="fill-opacity: 0; stroke: #d32f2f; stroke-linejoin: miter"/>
     <use xlink:href="#m36690e0641" x="89.491087" y="59.432866" style="fill-opacity: 0; stroke: #d32f2f; stroke-linejoin: miter"/>
     <use xlink:href="#m36690e0641" x="112.70468" y="61.134923" style="fill-opacity: 0; stroke: #d32f2f; stroke-linejoin: miter"/>
     <use xlink:href="#m36690e0641" x="81.702295" y="76.650756" style="fill-opacity: 0; stroke: #d32f2f; stroke-linejoin: miter"/>
     <use xlink:href="#m36690e0641" x="86.321965" y="70.8077" style="fill-opacity: 0; stroke: #d32f2f; stroke-linejoin: miter"/>
     <use xlink:href="#m36690e0641" x="47.206764" y="59.213254" style="fill-opacity: 0; stroke: #d32f2f; stroke-linejoin: miter"/>
     <use xlink:href="#m36690e0641" x="69.785298" y="62.955419" style="fill-opacity: 0; stroke: #d32f2f; stroke-linejoin: miter"/>
     <use xlink:href="#m36690e0641" x="56.172866" y="91.228878" style="fill-opacity: 0; stroke: #d32f2f; stroke-linejoin: miter"/>
     <use xlink:href="#m36690e0641" x="96.460281" y="56.954612" style="fill-opacity: 0; stroke: #d32f2f; stroke-linejoin: miter"/>
     <use xlink:href="#m36690e0641" x="73.074578" y="72.45885" style="fill-opacity: 0; stroke: #d32f2f; stroke-linejoin: miter"/>
     <use xlink:href="#m36690e0641" x="67.773893" y="60.404183" style="fill-opacity: 0; stroke: #d32f2f; stroke-linejoin: miter"/>
     <use xlink:href="#m36690e0641" x="116.095986" y="58.854067" style="fill-opacity: 0; stroke: #d32f2f; stroke-linejoin: miter"/>
     <use xlink:href="#m36690e0641" x="76.63" y="78.483892" style="fill-opacity: 0; stroke: #d32f2f; stroke-linejoin: miter"/>
     <use xlink:href="#m36690e0641" x="76.891486" y="77.374915" style="fill-opacity: 0; stroke: #d32f2f; stroke-linejoin: miter"/>
     <use xlink:href="#m36690e0641" x="71.455544" y="62.129042" style="fill-opacity: 0; stroke: #d32f2f; stroke-linejoin: miter"/>
     <use xlink:href="#m36690e0641" x="92.636343" y="68.075281" style="fill-opacity: 0; stroke: #d32f2f; stroke-linejoin: miter"/>
     <use xlink:href="#m36690e0641" x="92.544715" y="49.105171" style="fill-opacity: 0; stroke: #d32f2f; stroke-linejoin: miter"/>
    </g>
   </g>
   <g id="line2d_10">
    <path d="M 75.90936 105.644145 
L 91.114748 106.815513 
L 85.594596 75.613921 
L 90.61033 81.469396 
L 107.129036 59.79892 
L 93.72966 84.849498 
L 59.430353 84.233683 
L 83.15138 61.337565 
L 124.527273 59.340106 
L 93.67246 79.822149 
L 69.082456 57.214093 
L 23.072727 93.991926 
L 73.063164 64.681455 
L 29.984833 83.95809 
L 79.702914 80.180764 
L 60.746439 92.008211 
L 61.48878 68.219297 
L 84.282878 79.904507 
L 84.020512 66.636552 
L 92.766531 53.976936 
" clip-path="url(#p62abbfa484)" style="fill: none"/>
    <defs>
     <path id="ma2c8f4e650" d="M -0 4.242641 
L 4.242641 0 
L 0 -4.242641 
L -0 4.242641 
"/>
    </defs>
    <g clip-path="url(#p62abbfa484)">
     <use xlink:href="#ma2c8f4e650" x="75.90936" y="105.644145" style="fill: #1976d2"/>
     <use xlink:href="#ma2c8f4e650" x="91.114748" y="106.815513" style="fill: #1976d2"/>
     <use xlink:href="#ma2c8f4e650" x="85.594596" y="75.613921" style="fill: #1976d2"/>
     <use xlink:href="#ma2c8f4e650" x="90.61033" y="81.469396" style="fill: #1976d2"/>
     <use xlink:href="#ma2c8f4e650" x="107.129036" y="59.79892" style="fill: #1976d2"/>
     <use xlink:href="#ma2c8f4e650" x="93.72966" y="84.849498" style="fill: #1976d2"/>
     <use xlink:href="#ma2c8f4e650" x="59.430353" y="84.233683" style="fill: #1976d2"/>
     <use xlink:href="#ma2c8f4e650" x="83.15138" y="61.337565" style="fill: #1976d2"/>
     <use xlink:href="#ma2c8f4e650" x="124.527273" y="59.340106" style="fill: #1976d2"/>
     <use xlink:href="#ma2c8f4e650" x="93.67246" y="79.822149" style="fill: #1976d2"/>
     <use xlink:href="#ma2c8f4e650" x="69.082456" y="57.214093" style="fill: #1976d2"/>
     <use xlink:href="#ma2c8f4e650" x="23.072727" y="93.991926" style="fill: #1976d2"/>
     <use xlink:href="#ma2c8f4e650" x="73.063164" y="64.681455" style="fill: #1976d2"/>
     <use xlink:href="#ma2c8f4e650" x="29.984833" y="83.95809" style="fill: #1976d2"/>
     <use xlink:href="#ma2c8f4e650" x="79.702914" y="80.180764" style="fill: #1976d2"/>
     <use xlink:href="#ma2c8f4e650" x="60.746439" y="92.008211" style="fill: #1976d2"/>
     <use xlink:href="#ma2c8f4e650" x="61.48878" y="68.219297" style="fill: #1976d2"/>
     <use xlink:href="#ma2c8f4e650" x="84.282878" y="79.904507" style="fill: #1976d2"/>
     <use xlink:href="#ma2c8f4e650" x="84.020512" y="66.636552" style="fill: #1976d2"/>
     <use xlink:href="#ma2c8f4e650" x="92.766531" y="53.976936" style="fill: #1976d2"/>
    </g>
    <defs>
     <path id="m67fa795623" d="M -0 4.242641 
L -4.242641 -0 
L 0 -4.242641 
L -0 4.242641 
"/>
    </defs>
    <g clip-path="url(#p62abbfa484)">
     <use xlink:href="#m67fa795623" x="75.90936" y="105.644145" style="fill: #ffffff"/>
     <use xlink:href="#m67fa795623" x="91.114748" y="106.815513" style="fill: #ffffff"/>
     <use xlink:href="#m67fa795623" x="85.594596" y="75.613921" style="fill: #ffffff"/>
     <use xlink:href="#m67fa795623" x="90.61033" y="81.469396" style="fill: #ffffff"/>
     <use xlink:href="#m67fa795623" x="107.129036" y="59.79892" style="fill: #ffffff"/>
     <use xlink:href="#m67fa795623" x="93.72966" y="84.849498" style="fill: #ffffff"/>
     <use xlink:href="#m67fa795623" x="59.430353" y="84.233683" style="fill: #ffffff"/>
     <use xlink:href="#m67fa795623" x="83.15138" y="61.337565" style="fill: #ffffff"/>
     <use xlink:href="#m67fa795623" x="124.527273" y="59.340106" style="fill: #ffffff"/>
     <use xlink:href="#m67fa795623" x="93.67246" y="79.822149" style="fill: #ffffff"/>
     <use xlink:href="#m67fa795623" x="69.082456" y="57.214093" style="fill: #ffffff"/>
     <use xlink:href="#m67fa795623" x="23.072727" y="93.991926" style="fill: #ffffff"/>
     <use xlink:href="#m67fa795623" x="73.063164" y="64.681455" style="fill: #ffffff"/>
     <use xlink:href="#m67fa795623" x="29.984833" y="83.95809" style="fill: #ffffff"/>
     <use xlink:href="#m67fa795623" x="79.702914" y="80.180764" style="fill: #ffffff"/>
     <use xlink:href="#m67fa795623" x="60.746439" y="92.008211" style="fill: #ffffff"/>
     <use xlink:href="#m67fa795623" x="61.48878" y="68.219297" style="fill: #ffffff"/>
     <use xlink:href="#m67fa795623" x="84.282878" y="79.904507" style="fill: #ffffff"/>
     <use xlink:href="#m67fa795623" x="84.020512" y="66.636552" style="fill: #ffffff"/>
     <use xlink:href="#m67fa795623" x="92.766531" y="53.976936" style="fill: #ffffff"/>
    </g>
   </g>
   <g id="line2d_11">
    <path d="M 75.90936 105.644145 
L 91.114748 106.815513 
L 85.594596 75.613921 
L 90.61033 81.469396 
L 107.129036 59.79892 
L 93.72966 84.849498 
L 59.430353 84.233683 
L 83.15138 61.337565 
L 124.527273 59.340106 
L 93.67246 79.822149 
L 69.082456 57.214093 
L 23.072727 93.991926 
L 73.063164 64.681455 
L 29.984833 83.95809 
L 79.702914 80.180764 
L 60.746439 92.008211 
L 61.48878 68.219297 
L 84.282878 79.904507 
L 84.020512 66.636552 
L 92.766531 53.976936 
" clip-path="url(#p62abbfa484)" style="fill: none"/>
    <defs>
     <path id="mc5830d122b" d="M -0 4.242641 
L 4.242641 0 
L 0 -4.242641 
L -4.242641 -0 
z
" style="stroke: #1976d2; stroke-linejoin: miter"/>
    </defs>
    <g clip-path="url(#p62abbfa484)">
     <use xlink:href="#mc5830d122b" x="75.90936" y="105.644145" style="fill-opacity: 0; stroke: #1976d2; stroke-linejoin: miter"/>
     <use xlink:href="#mc5830d122b" x="91.114748" y="106.815513" style="fill-opacity: 0; stroke: #1976d2; stroke-linejoin: miter"/>
     <use xlink:href="#mc5830d122b" x="85.594596" y="75.613921" style="fill-opacity: 0; stroke: #1976d2; stroke-linejoin: miter"/>
     <use xlink:href="#mc5830d122b" x="90.61033" y="81.469396" style="fill-opacity: 0; stroke: #1976d2; stroke-linejoin: miter"/>
     <use xlink:href="#mc5830d122b" x="107.129036" y="59.79892" style="fill-opacity: 0; stroke: #1976d2; stroke-linejoin: miter"/>
     <use xlink:href="#mc5830d122b" x="93.72966" y="84.849498" style="fill-opacity: 0; stroke: #1976d2; stroke-linejoin: miter"/>
     <use xlink:href="#mc5830d122b" x="59.430353" y="84.233683" style="fill-opacity: 0; stroke: #1976d2; stroke-linejoin: miter"/>
     <use xlink:href="#mc5830d122b" x="83.15138" y="61.337565" style="fill-opacity: 0; stroke: #1976d2; stroke-linejoin: miter"/>
     <use xlink:href="#mc5830d122b" x="124.527273" y="59.340106" style="fill-opacity: 0; stroke: #1976d2; stroke-linejoin: miter"/>
     <use xlink:href="#mc5830d122b" x="93.67246" y="79.822149" style="fill-opacity: 0; stroke: #1976d2; stroke-linejoin: miter"/>
     <use xlink:href="#mc5830d122b" x="69.082456" y="57.214093" style="fill-opacity: 0; stroke: #1976d2; stroke-linejoin: miter"/>
     <use xlink:href="#mc5830d122b" x="23.072727" y="93.991926" style="fill-opacity: 0; stroke: #1976d2; stroke-linejoin: miter"/>
     <use xlink:href="#mc5830d122b" x="73.063164" y="64.681455" style="fill-opacity: 0; stroke: #1976d2; stroke-linejoin: miter"/>
     <use xlink:href="#mc5830d122b" x="29.984833" y="83.95809" style="fill-opacity: 0; stroke: #1976d2; stroke-linejoin: miter"/>
     <use xlink:href="#mc5830d122b" x="79.702914" y="80.180764" style="fill-opacity: 0; stroke: #1976d2; stroke-linejoin: miter"/>
     <use xlink:href="#mc5830d122b" x="60.746439" y="92.008211" style="fill-opacity: 0; stroke: #1976d2; stroke-linejoin: miter"/>
     <use xlink:href="#mc5830d122b" x="61.48878" y="68.219297" style="fill-opacity: 0; stroke: #1976d2; stroke-linejoin: miter"/>
     <use xlink:href="#mc5830d122b" x="84.282878" y="79.904507" style="fill-opacity: 0; stroke: #1976d2; stroke-linejoin: miter"/>
     <use xlink:href="#mc5830d122b" x="84.020512" y="66.636552" style="fill-opacity: 0; stroke: #1976d2; stroke-linejoin: miter"/>
     <use xlink:href="#mc5830d122b" x="92.766531" y="53.976936" style="fill-opacity: 0; stroke: #1976d2; stroke-linejoin: miter"/>
    </g>
   </g>
   <g id="patch_3">
    <path d="M 18 128.16 
L 18 17.28 
" style="fill: none; stroke: #000000; stroke-width: 0.8; stroke-linejoin: miter; stroke-linecap: square"/>
   </g>
   <g id="patch_4">
    <path d="M 18 72.72 
L 129.6 72.72 
" style="fill: none; stroke: #000000; stroke-width: 0.8; stroke-linejoin: miter; stroke-linecap: square"/>
   </g>
   <g id="text_6">
    <!-- STAT1: 0.35 -->
    <g transform="translate(38.382188 11.28) scale(0.12 -0.12)">
     <defs>
      <path id="DejaVuSans-53" d="M 3425 4513 
L 3425 3897 
Q 3066 4069 2747 4153 
Q 2428 4238 2131 4238 
Q 1616 4238 1336 4038 
Q 1056 3838 1056 3469 
Q 1056 3159 1242 3001 
Q 1428 2844 1947 2747 
L 2328 2669 
Q 3034 2534 3370 2195 
Q 3706 1856 3706 1288 
Q 3706 609 3251 259 
Q 2797 -91 1919 -91 
Q 1588 -91 1214 -16 
Q 841 59 441 206 
L 441 856 
Q 825 641 1194 531 
Q 1563 422 1919 422 
Q 2459 422 2753 634 
Q 3047 847 3047 1241 
Q 3047 1584 2836 1778 
Q 2625 1972 2144 2069 
L 1759 2144 
Q 1053 2284 737 2584 
Q 422 2884 422 3419 
Q 422 4038 858 4394 
Q 1294 4750 2059 4750 
Q 2388 4750 2728 4690 
Q 3069 4631 3425 4513 
z
" transform="scale(0.015625)"/>
      <path id="DejaVuSans-54" d="M -19 4666 
L 3928 4666 
L 3928 4134 
L 2272 4134 
L 2272 0 
L 1638 0 
L 1638 4134 
L -19 4134 
L -19 4666 
z
" transform="scale(0.015625)"/>
      <path id="DejaVuSans-41" d="M 2188 4044 
L 1331 1722 
L 3047 1722 
L 2188 4044 
z
M 1831 4666 
L 2547 4666 
L 4325 0 
L 3669 0 
L 3244 1197 
L 1141 1197 
L 716 0 
L 50 0 
L 1831 4666 
z
" transform="scale(0.015625)"/>
      <path id="DejaVuSans-31" d="M 794 531 
L 1825 531 
L 1825 4091 
L 703 3866 
L 703 4441 
L 1819 4666 
L 2450 4666 
L 2450 531 
L 3481 531 
L 3481 0 
L 794 0 
L 794 531 
z
" transform="scale(0.015625)"/>
      <path id="DejaVuSans-3a" d="M 750 794 
L 1409 794 
L 1409 0 
L 750 0 
L 750 794 
z
M 750 3309 
L 1409 3309 
L 1409 2516 
L 750 2516 
L 750 3309 
z
" transform="scale(0.015625)"/>
      <path id="DejaVuSans-20" transform="scale(0.015625)"/>
      <path id="DejaVuSans-2e" d="M 684 794 
L 1344 794 
L 1344 0 
L 684 0 
L 684 794 
z
" transform="scale(0.015625)"/>
      <path id="DejaVuSans-33" d="M 2597 2516 
Q 3050 2419 3304 2112 
Q 3559 1806 3559 1356 
Q 3559 666 3084 287 
Q 2609 -91 1734 -91 
Q 1441 -91 1130 -33 
Q 819 25 488 141 
L 488 750 
Q 750 597 1062 519 
Q 1375 441 1716 441 
Q 2309 441 2620 675 
Q 2931 909 2931 1356 
Q 2931 1769 2642 2001 
Q 2353 2234 1838 2234 
L 1294 2234 
L 1294 2753 
L 1863 2753 
Q 2328 2753 2575 2939 
Q 2822 3125 2822 3475 
Q 2822 3834 2567 4026 
Q 2313 4219 1838 4219 
Q 1578 4219 1281 4162 
Q 984 4106 628 3988 
L 628 4550 
Q 988 4650 1302 4700 
Q 1616 4750 1894 4750 
Q 2613 4750 3031 4423 
Q 3450 4097 3450 3541 
Q 3450 3153 3228 2886 
Q 3006 2619 2597 2516 
z
" transform="scale(0.015625)"/>
      <path id="DejaVuSans-35" d="M 691 4666 
L 3169 4666 
L 3169 4134 
L 1269 4134 
L 1269 2991 
Q 1406 3038 1543 3061 
Q 1681 3084 1819 3084 
Q 2600 3084 3056 2656 
Q 3513 2228 3513 1497 
Q 3513 744 3044 326 
Q 2575 -91 1722 -91 
Q 1428 -91 1123 -41 
Q 819 9 494 109 
L 494 744 
Q 775 591 1075 516 
Q 1375 441 1709 441 
Q 2250 441 2565 725 
Q 2881 1009 2881 1497 
Q 2881 1984 2565 2268 
Q 2250 2553 1709 2553 
Q 1456 2553 1204 2497 
Q 953 2441 691 2322 
L 691 4666 
z
" transform="scale(0.015625)"/>
     </defs>
     <use xlink:href="#DejaVuSans-53"/>
     <use xlink:href="#DejaVuSans-54" transform="translate(63.476562 0)"/>
     <use xlink:href="#DejaVuSans-41" transform="translate(116.810547 0)"/>
     <use xlink:href="#DejaVuSans-54" transform="translate(177.46875 0)"/>
     <use xlink:href="#DejaVuSans-31" transform="translate(238.552734 0)"/>
     <use xlink:href="#DejaVuSans-3a" transform="translate(302.175781 0)"/>
     <use xlink:href="#DejaVuSans-20" transform="translate(335.867188 0)"/>
     <use xlink:href="#DejaVuSans-30" transform="translate(367.654297 0)"/>
     <use xlink:href="#DejaVuSans-2e" transform="translate(431.277344 0)"/>
     <use xlink:href="#DejaVuSans-33" transform="translate(463.064453 0)"/>
     <use xlink:href="#DejaVuSans-35" transform="translate(526.6875 0)"/>
    </g>
   </g>
  </g>
 </g>
 <defs>
  <clipPath id="p62abbfa484">
   <rect x="18" y="17.28" width="111.6" height="110.88"/>
  </clipPath>
 </defs>
</svg>
