<?xml version="1.0" encoding="utf-8" standalone="no"?>
<!DOCTYPE svg PUBLIC "-//W3C//DTD SVG 1.1//EN"
  "http://www.w3.org/Graphics/SVG/1.1/DTD/svg11.dtd">
<svg xmlns:xlink="http://www.w3.org/1999/xlink" width="144pt" height="144pt" viewBox="0 0 144 144" xmlns="http://www.w3.org/2000/svg" version="1.1">
 <metadata>
  <rdf:RDF xmlns:dc="http://purl.org/dc/elements/1.1/" xmlns:cc="http://creativecommons.org/ns#" xmlns:rdf="http://www.w3.org/1999/02/22-rdf-syntax-ns#">
   <cc:Work>
    <dc:type rdf:resource="http://purl.org/dc/dcmitype/StillImage"/>
    <dc:date>2025-09-29T11:59:43.408511</dc:date>
    <dc:format>image/svg+xml</dc:format>
    <dc:creator>
     <cc:Agent>
      <dc:title>Matplotlib v3.10.6, https://matplotlib.org/</dc:title>
     </cc:Agent>
    </dc:creator>
   </cc:Work>
  </rdf:RDF>
 </metadata>
 <defs>
  <style type="text/css">*{stroke-linejoin: round; stroke-linecap: butt}</style>
 </defs>
 <g id="figure_1">
  <g id="patch_1">
   <path d="M 0 144 
L 144 144 
L 144 0 
L 0 0 
z
" style="fill: #ffffff"/>
  </g>
  <g id="axes_1">
   <g id="patch_2">
    <path d="M 18 128.16 
L 129.6 128.16 
L 129.6 17.28 
L 18 17.28 
z
" style="fill: #ffffff"/>
   </g>
   <g id="matplotlib.axis_1">
    <g id="xtick_1">
     <g id="line2d_1">
      <defs>
       <path id="m0d8f984496" d="M 0 0 
L 0 3.5 
" style="stroke: #000000; stroke-width: 0.8"/>
      </defs>
      <g>
       <use xlink:href="#m0d8f984496" x="31.750472" y="72.72" style="stroke: #000000; stroke-width: 0.8"/>
      </g>
     </g>
    </g>
    <g id="xtick_2">
     <g id="line2d_2">
      <g>
       <use xlink:href="#m0d8f984496" x="122.9874" y="72.72" style="stroke: #000000; stroke-width: 0.8"/>
      </g>
     </g>
    </g>
   </g>
   <g id="matplotlib.axis_2">
    <g id="ytick_1">
     <g id="line2d_3">
      <defs>
       <path id="m4f63dc3bff" d="M 0 0 
L -3.5 0 
" style="stroke: #000000; stroke-width: 0.8"/>
      </defs>
      <g>
       <use xlink:href="#m4f63dc3bff" x="18" y="128.16" style="stroke: #000000; stroke-width: 0.8"/>
      </g>
     </g>
     <g id="text_1">
      <!-- −4 -->
      <g transform="translate(-3.742188 131.959219) scale(0.1 -0.1)">
       <defs>
        <path id="DejaVuSans-2212" d="M 678 2272 
L 4684 2272 
L 4684 1741 
L 678 1741 
L 678 2272 
z
" transform="scale(0.015625)"/>
        <path id="DejaVuSans-34" d="M 2419 4116 
L 825 1625 
L 2419 1625 
L 2419 4116 
z
M 2253 4666 
L 3047 4666 
L 3047 1625 
L 3713 1625 
L 3713 1100 
L 3047 1100 
L 3047 0 
L 2419 0 
L 2419 1100 
L 313 1100 
L 313 1709 
L 2253 4666 
z
" transform="scale(0.015625)"/>
       </defs>
       <use xlink:href="#DejaVuSans-2212"/>
       <use xlink:href="#DejaVuSans-34" transform="translate(83.789062 0)"/>
      </g>
     </g>
    </g>
    <g id="ytick_2">
     <g id="line2d_4">
      <g>
       <use xlink:href="#m4f63dc3bff" x="18" y="100.44" style="stroke: #000000; stroke-width: 0.8"/>
      </g>
     </g>
     <g id="text_2">
      <!-- −2 -->
      <g transform="translate(-3.742188 104.239219) scale(0.1 -0.1)">
       <defs>
        <path id="DejaVuSans-32" d="M 1228 531 
L 3431 531 
L 3431 0 
L 469 0 
L 469 531 
Q 828 903 1448 1529 
Q 2069 2156 2228 2338 
Q 2531 2678 2651 2914 
Q 2772 3150 2772 3378 
Q 2772 3750 2511 3984 
Q 2250 4219 1831 4219 
Q 1534 4219 1204 4116 
Q 875 4013 500 3803 
L 500 4441 
Q 881 4594 1212 4672 
Q 1544 4750 1819 4750 
Q 2544 4750 2975 4387 
Q 3406 4025 3406 3419 
Q 3406 3131 3298 2873 
Q 3191 2616 2906 2266 
Q 2828 2175 2409 1742 
Q 1991 1309 1228 531 
z
" transform="scale(0.015625)"/>
       </defs>
       <use xlink:href="#DejaVuSans-2212"/>
       <use xlink:href="#DejaVuSans-32" transform="translate(83.789062 0)"/>
      </g>
     </g>
    </g>
    <g id="ytick_3">
     <g id="line2d_5">
      <g>
       <use xlink:href="#m4f63dc3bff" x="18" y="72.72" style="stroke: #000000; stroke-width: 0.8"/>
      </g>
     </g>
     <g id="text_3">
      <!-- 0 -->
      <g transform="translate(4.6375 76.519219) scale(0.1 -0.1)">
       <defs>
        <path id="DejaVuSans-30" d="M 2034 4250 
Q 1547 4250 1301 3770 
Q 1056 3291 1056 2328 
Q 1056 1369 1301 889 
Q 1547 409 2034 409 
Q 2525 409 2770 889 
Q 3016 1369 3016 2328 
Q 3016 3291 2770 3770 
Q 2525 4250 2034 4250 
z
M 2034 4750 
Q 2819 4750 3233 4129 
Q 3647 3509 3647 2328 
Q 3647 1150 3233 529 
Q 2819 -91 2034 -91 
Q 1250 -91 836 529 
Q 422 1150 422 2328 
Q 422 3509 836 4129 
Q 1250 4750 2034 4750 
z
" transform="scale(0.015625)"/>
       </defs>
       <use xlink:href="#DejaVuSans-30"/>
      </g>
     </g>
    </g>
    <g id="ytick_4">
     <g id="line2d_6">
      <g>
       <use xlink:href="#m4f63dc3bff" x="18" y="45" style="stroke: #000000; stroke-width: 0.8"/>
      </g>
     </g>
     <g id="text_4">
      <!-- 2 -->
      <g transform="translate(4.6375 48.799219) scale(0.1 -0.1)">
       <use xlink:href="#DejaVuSans-32"/>
      </g>
     </g>
    </g>
    <g id="ytick_5">
     <g id="line2d_7">
      <g>
       <use xlink:href="#m4f63dc3bff" x="18" y="17.28" style="stroke: #000000; stroke-width: 0.8"/>
      </g>
     </g>
     <g id="text_5">
      <!-- 4 -->
      <g transform="translate(4.6375 21.079219) scale(0.1 -0.1)">
       <use xlink:href="#DejaVuSans-34"/>
      </g>
     </g>
    </g>
   </g>
   <g id="line2d_8">
    <path d="M 84.972984 76.759452 
L 62.234606 77.642703 
L 83.037454 81.749931 
L 101.883063 43.675808 
L 98.396564 59.041013 
L 89.491087 65.131405 
L 112.70468 68.343764 
L 81.702295 91.047691 
L 86.321965 66.642971 
L 47.206764 68.191866 
L 69.785298 70.136533 
L 56.172866 84.065479 
L 96.460281 51.436931 
L 73.074578 85.985154 
L 67.773893 70.834821 
L 116.095986 59.676375 
L 76.63 69.171007 
L 76.891486 85.384764 
L 71.455544 51.618509 
L 92.636343 62.601406 
L 92.544715 65.722426 
" clip-path="url(#p9c26742617)" style="fill: none"/>
    <defs>
     <path id="mb81c39f7ed" d="M 0 -4.242641 
L -4.242641 -0 
L -0 4.242641 
L 0 -4.242641 
"/>
    </defs>
    <g clip-path="url(#p9c26742617)">
     <use xlink:href="#mb81c39f7ed" x="84.972984" y="76.759452" style="fill: #d32f2f"/>
     <use xlink:href="#mb81c39f7ed" x="62.234606" y="77.642703" style="fill: #d32f2f"/>
     <use xlink:href="#mb81c39f7ed" x="83.037454" y="81.749931" style="fill: #d32f2f"/>
     <use xlink:href="#mb81c39f7ed" x="101.883063" y="43.675808" style="fill: #d32f2f"/>
     <use xlink:href="#mb81c39f7ed" x="98.396564" y="59.041013" style="fill: #d32f2f"/>
     <use xlink:href="#mb81c39f7ed" x="89.491087" y="65.131405" style="fill: #d32f2f"/>
     <use xlink:href="#mb81c39f7ed" x="112.70468" y="68.343764" style="fill: #d32f2f"/>
     <use xlink:href="#mb81c39f7ed" x="81.702295" y="91.047691" style="fill: #d32f2f"/>
     <use xlink:href="#mb81c39f7ed" x="86.321965" y="66.642971" style="fill: #d32f2f"/>
     <use xlink:href="#mb81c39f7ed" x="47.206764" y="68.191866" style="fill: #d32f2f"/>
     <use xlink:href="#mb81c39f7ed" x="69.785298" y="70.136533" style="fill: #d32f2f"/>
     <use xlink:href="#mb81c39f7ed" x="56.172866" y="84.065479" style="fill: #d32f2f"/>
     <use xlink:href="#mb81c39f7ed" x="96.460281" y="51.436931" style="fill: #d32f2f"/>
     <use xlink:href="#mb81c39f7ed" x="73.074578" y="85.985154" style="fill: #d32f2f"/>
     <use xlink:href="#mb81c39f7ed" x="67.773893" y="70.834821" style="fill: #d32f2f"/>
     <use xlink:href="#mb81c39f7ed" x="116.095986" y="59.676375" style="fill: #d32f2f"/>
     <use xlink:href="#mb81c39f7ed" x="76.63" y="69.171007" style="fill: #d32f2f"/>
     <use xlink:href="#mb81c39f7ed" x="76.891486" y="85.384764" style="fill: #d32f2f"/>
     <use xlink:href="#mb81c39f7ed" x="71.455544" y="51.618509" style="fill: #d32f2f"/>
     <use xlink:href="#mb81c39f7ed" x="92.636343" y="62.601406" style="fill: #d32f2f"/>
     <use xlink:href="#mb81c39f7ed" x="92.544715" y="65.722426" style="fill: #d32f2f"/>
    </g>
    <defs>
     <path id="mf2a89fa041" d="M 0 -4.242641 
L 4.242641 0 
L -0 4.242641 
L 0 -4.242641 
"/>
    </defs>
    <g clip-path="url(#p9c26742617)">
     <use xlink:href="#mf2a89fa041" x="84.972984" y="76.759452" style="fill: #ffffff"/>
     <use xlink:href="#mf2a89fa041" x="62.234606" y="77.642703" style="fill: #ffffff"/>
     <use xlink:href="#mf2a89fa041" x="83.037454" y="81.749931" style="fill: #ffffff"/>
     <use xlink:href="#mf2a89fa041" x="101.883063" y="43.675808" style="fill: #ffffff"/>
     <use xlink:href="#mf2a89fa041" x="98.396564" y="59.041013" style="fill: #ffffff"/>
     <use xlink:href="#mf2a89fa041" x="89.491087" y="65.131405" style="fill: #ffffff"/>
     <use xlink:href="#mf2a89fa041" x="112.70468" y="68.343764" style="fill: #ffffff"/>
     <use xlink:href="#mf2a89fa041" x="81.702295" y="91.047691" style="fill: #ffffff"/>
     <use xlink:href="#mf2a89fa041" x="86.321965" y="66.642971" style="fill: #ffffff"/>
     <use xlink:href="#mf2a89fa041" x="47.206764" y="68.191866" style="fill: #ffffff"/>
     <use xlink:href="#mf2a89fa041" x="69.785298" y="70.136533" style="fill: #ffffff"/>
     <use xlink:href="#mf2a89fa041" x="56.172866" y="84.065479" style="fill: #ffffff"/>
     <use xlink:href="#mf2a89fa041" x="96.460281" y="51.436931" style="fill: #ffffff"/>
     <use xlink:href="#mf2a89fa041" x="73.074578" y="85.985154" style="fill: #ffffff"/>
     <use xlink:href="#mf2a89fa041" x="67.773893" y="70.834821" style="fill: #ffffff"/>
     <use xlink:href="#mf2a89fa041" x="116.095986" y="59.676375" style="fill: #ffffff"/>
     <use xlink:href="#mf2a89fa041" x="76.63" y="69.171007" style="fill: #ffffff"/>
     <use xlink:href="#mf2a89fa041" x="76.891486" y="85.384764" style="fill: #ffffff"/>
     <use xlink:href="#mf2a89fa041" x="71.455544" y="51.618509" style="fill: #ffffff"/>
     <use xlink:href="#mf2a89fa041" x="92.636343" y="62.601406" style="fill: #ffffff"/>
     <use xlink:href="#mf2a89fa041" x="92.544715" y="65.722426" style="fill: #ffffff"/>
    </g>
   </g>
   <g id="line2d_9">
    <path d="M 84.972984 76.759452 
L 62.234606 77.642703 
L 83.037454 81.749931 
L 101.883063 43.675808 
L 98.396564 59.041013 
L 89.491087 65.131405 
L 112.70468 68.343764 
L 81.702295 91.047691 
L 86.321965 66.642971 
L 47.206764 68.191866 
L 69.785298 70.136533 
L 56.172866 84.065479 
L 96.460281 51.436931 
L 73.074578 85.985154 
L 67.773893 70.834821 
L 116.095986 59.676375 
L 76.63 69.171007 
L 76.891486 85.384764 
L 71.455544 51.618509 
L 92.636343 62.601406 
L 92.544715 65.722426 
" clip-path="url(#p9c26742617)" style="fill: none"/>
    <defs>
     <path id="mfa912ab5e5" d="M -0 4.242641 
L 4.242641 0 
L 0 -4.242641 
L -4.242641 -0 
z
" style="stroke: #d32f2f; stroke-linejoin: miter"/>
    </defs>
    <g clip-path="url(#p9c26742617)">
     <use xlink:href="#mfa912ab5e5" x="84.972984" y="76.759452" style="fill-opacity: 0; stroke: #d32f2f; stroke-linejoin: miter"/>
     <use xlink:href="#mfa912ab5e5" x="62.234606" y="77.642703" style="fill-opacity: 0; stroke: #d32f2f; stroke-linejoin: miter"/>
     <use xlink:href="#mfa912ab5e5" x="83.037454" y="81.749931" style="fill-opacity: 0; stroke: #d32f2f; stroke-linejoin: miter"/>
     <use xlink:href="#mfa912ab5e5" x="101.883063" y="43.675808" style="fill-opacity: 0; stroke: #d32f2f; stroke-linejoin: miter"/>
     <use xlink:href="#mfa912ab5e5" x="98.396564" y="59.041013" style="fill-opacity: 0; stroke: #d32f2f; stroke-linejoin: miter"/>
     <use xlink:href="#mfa912ab5e5" x="89.491087" y="65.131405" style="fill-opacity: 0; stroke: #d32f2f; stroke-linejoin: miter"/>
     <use xlink:href="#mfa912ab5e5" x="112.70468" y="68.343764" style="fill-opacity: 0; stroke: #d32f2f; stroke-linejoin: miter"/>
     <use xlink:href="#mfa912ab5e5" x="81.702295" y="91.047691" style="fill-opacity: 0; stroke: #d32f2f; stroke-linejoin: miter"/>
     <use xlink:href="#mfa912ab5e5" x="86.321965" y="66.642971" style="fill-opacity: 0; stroke: #d32f2f; stroke-linejoin: miter"/>
     <use xlink:href="#mfa912ab5e5" x="47.206764" y="68.191866" style="fill-opacity: 0; stroke: #d32f2f; stroke-linejoin: miter"/>
     <use xlink:href="#mfa912ab5e5" x="69.785298" y="70.136533" style="fill-opacity: 0; stroke: #d32f2f; stroke-linejoin: miter"/>
     <use xlink:href="#mfa912ab5e5" x="56.172866" y="84.065479" style="fill-opacity: 0; stroke: #d32f2f; stroke-linejoin: miter"/>
     <use xlink:href="#mfa912ab5e5" x="96.460281" y="51.436931" style="fill-opacity: 0; stroke: #d32f2f; stroke-linejoin: miter"/>
     <use xlink:href="#mfa912ab5e5" x="73.074578" y="85.985154" style="fill-opacity: 0; stroke: #d32f2f; stroke-linejoin: miter"/>
     <use xlink:href="#mfa912ab5e5" x="67.773893" y="70.834821" style="fill-opacity: 0; stroke: #d32f2f; stroke-linejoin: miter"/>
     <use xlink:href="#mfa912ab5e5" x="116.095986" y="59.676375" style="fill-opacity: 0; stroke: #d32f2f; stroke-linejoin: miter"/>
     <use xlink:href="#mfa912ab5e5" x="76.63" y="69.171007" style="fill-opacity: 0; stroke: #d32f2f; stroke-linejoin: miter"/>
     <use xlink:href="#mfa912ab5e5" x="76.891486" y="85.384764" style="fill-opacity: 0; stroke: #d32f2f; stroke-linejoin: miter"/>
     <use xlink:href="#mfa912ab5e5" x="71.455544" y="51.618509" style="fill-opacity: 0; stroke: #d32f2f; stroke-linejoin: miter"/>
     <use xlink:href="#mfa912ab5e5" x="92.636343" y="62.601406" style="fill-opacity: 0; stroke: #d32f2f; stroke-linejoin: miter"/>
     <use xlink:href="#mfa912ab5e5" x="92.544715" y="65.722426" style="fill-opacity: 0; stroke: #d32f2f; stroke-linejoin: miter"/>
    </g>
   </g>
   <g id="line2d_10">
    <path d="M 75.90936 94.622633 
L 91.114748 94.229016 
L 85.594596 84.98259 
L 90.61033 82.011259 
L 107.129036 67.273368 
L 93.72966 80.909111 
L 59.430353 63.811714 
L 83.15138 74.612876 
L 124.527273 53.099163 
L 93.67246 52.87786 
L 69.082456 53.788538 
L 23.072727 91.427085 
L 73.063164 74.441134 
L 29.984833 88.469618 
L 79.702914 88.697079 
L 60.746439 93.054789 
L 61.48878 80.488167 
L 84.282878 87.23637 
L 84.020512 62.441111 
L 92.766531 58.186511 
" clip-path="url(#p9c26742617)" style="fill: none"/>
    <defs>
     <path id="m49e6c82521" d="M -0 4.242641 
L 4.242641 0 
L 0 -4.242641 
L -0 4.242641 
"/>
    </defs>
    <g clip-path="url(#p9c26742617)">
     <use xlink:href="#m49e6c82521" x="75.90936" y="94.622633" style="fill: #1976d2"/>
     <use xlink:href="#m49e6c82521" x="91.114748" y="94.229016" style="fill: #1976d2"/>
     <use xlink:href="#m49e6c82521" x="85.594596" y="84.98259" style="fill: #1976d2"/>
     <use xlink:href="#m49e6c82521" x="90.61033" y="82.011259" style="fill: #1976d2"/>
     <use xlink:href="#m49e6c82521" x="107.129036" y="67.273368" style="fill: #1976d2"/>
     <use xlink:href="#m49e6c82521" x="93.72966" y="80.909111" style="fill: #1976d2"/>
     <use xlink:href="#m49e6c82521" x="59.430353" y="63.811714" style="fill: #1976d2"/>
     <use xlink:href="#m49e6c82521" x="83.15138" y="74.612876" style="fill: #1976d2"/>
     <use xlink:href="#m49e6c82521" x="124.527273" y="53.099163" style="fill: #1976d2"/>
     <use xlink:href="#m49e6c82521" x="93.67246" y="52.87786" style="fill: #1976d2"/>
     <use xlink:href="#m49e6c82521" x="69.082456" y="53.788538" style="fill: #1976d2"/>
     <use xlink:href="#m49e6c82521" x="23.072727" y="91.427085" style="fill: #1976d2"/>
     <use xlink:href="#m49e6c82521" x="73.063164" y="74.441134" style="fill: #1976d2"/>
     <use xlink:href="#m49e6c82521" x="29.984833" y="88.469618" style="fill: #1976d2"/>
     <use xlink:href="#m49e6c82521" x="79.702914" y="88.697079" style="fill: #1976d2"/>
     <use xlink:href="#m49e6c82521" x="60.746439" y="93.054789" style="fill: #1976d2"/>
     <use xlink:href="#m49e6c82521" x="61.48878" y="80.488167" style="fill: #1976d2"/>
     <use xlink:href="#m49e6c82521" x="84.282878" y="87.23637" style="fill: #1976d2"/>
     <use xlink:href="#m49e6c82521" x="84.020512" y="62.441111" style="fill: #1976d2"/>
     <use xlink:href="#m49e6c82521" x="92.766531" y="58.186511" style="fill: #1976d2"/>
    </g>
    <defs>
     <path id="mf6e9e80c38" d="M -0 4.242641 
L -4.242641 -0 
L 0 -4.242641 
L -0 4.242641 
"/>
    </defs>
    <g clip-path="url(#p9c26742617)">
     <use xlink:href="#mf6e9e80c38" x="75.90936" y="94.622633" style="fill: #ffffff"/>
     <use xlink:href="#mf6e9e80c38" x="91.114748" y="94.229016" style="fill: #ffffff"/>
     <use xlink:href="#mf6e9e80c38" x="85.594596" y="84.98259" style="fill: #ffffff"/>
     <use xlink:href="#mf6e9e80c38" x="90.61033" y="82.011259" style="fill: #ffffff"/>
     <use xlink:href="#mf6e9e80c38" x="107.129036" y="67.273368" style="fill: #ffffff"/>
     <use xlink:href="#mf6e9e80c38" x="93.72966" y="80.909111" style="fill: #ffffff"/>
     <use xlink:href="#mf6e9e80c38" x="59.430353" y="63.811714" style="fill: #ffffff"/>
     <use xlink:href="#mf6e9e80c38" x="83.15138" y="74.612876" style="fill: #ffffff"/>
     <use xlink:href="#mf6e9e80c38" x="124.527273" y="53.099163" style="fill: #ffffff"/>
     <use xlink:href="#mf6e9e80c38" x="93.67246" y="52.87786" style="fill: #ffffff"/>
     <use xlink:href="#mf6e9e80c38" x="69.082456" y="53.788538" style="fill: #ffffff"/>
     <use xlink:href="#mf6e9e80c38" x="23.072727" y="91.427085" style="fill: #ffffff"/>
     <use xlink:href="#mf6e9e80c38" x="73.063164" y="74.441134" style="fill: #ffffff"/>
     <use xlink:href="#mf6e9e80c38" x="29.984833" y="88.469618" style="fill: #ffffff"/>
     <use xlink:href="#mf6e9e80c38" x="79.702914" y="88.697079" style="fill: #ffffff"/>
     <use xlink:href="#mf6e9e80c38" x="60.746439" y="93.054789" style="fill: #ffffff"/>
     <use xlink:href="#mf6e9e80c38" x="61.48878" y="80.488167" style="fill: #ffffff"/>
     <use xlink:href="#mf6e9e80c38" x="84.282878" y="87.23637" style="fill: #ffffff"/>
     <use xlink:href="#mf6e9e80c38" x="84.020512" y="62.441111" style="fill: #ffffff"/>
     <use xlink:href="#mf6e9e80c38" x="92.766531" y="58.186511" style="fill: #ffffff"/>
    </g>
   </g>
   <g id="line2d_11">
    <path d="M 75.90936 94.622633 
L 91.114748 94.229016 
L 85.594596 84.98259 
L 90.61033 82.011259 
L 107.129036 67.273368 
L 93.72966 80.909111 
L 59.430353 63.811714 
L 83.15138 74.612876 
L 124.527273 53.099163 
L 93.67246 52.87786 
L 69.082456 53.788538 
L 23.072727 91.427085 
L 73.063164 74.441134 
L 29.984833 88.469618 
L 79.702914 88.697079 
L 60.746439 93.054789 
L 61.48878 80.488167 
L 84.282878 87.23637 
L 84.020512 62.441111 
L 92.766531 58.186511 
" clip-path="url(#p9c26742617)" style="fill: none"/>
    <defs>
     <path id="m4f0a594f02" d="M -0 4.242641 
L 4.242641 0 
L 0 -4.242641 
L -4.242641 -0 
z
" style="stroke: #1976d2; stroke-linejoin: miter"/>
    </defs>
    <g clip-path="url(#p9c26742617)">
     <use xlink:href="#m4f0a594f02" x="75.90936" y="94.622633" style="fill-opacity: 0; stroke: #1976d2; stroke-linejoin: miter"/>
     <use xlink:href="#m4f0a594f02" x="91.114748" y="94.229016" style="fill-opacity: 0; stroke: #1976d2; stroke-linejoin: miter"/>
     <use xlink:href="#m4f0a594f02" x="85.594596" y="84.98259" style="fill-opacity: 0; stroke: #1976d2; stroke-linejoin: miter"/>
     <use xlink:href="#m4f0a594f02" x="90.61033" y="82.011259" style="fill-opacity: 0; stroke: #1976d2; stroke-linejoin: miter"/>
     <use xlink:href="#m4f0a594f02" x="107.129036" y="67.273368" style="fill-opacity: 0; stroke: #1976d2; stroke-linejoin: miter"/>
     <use xlink:href="#m4f0a594f02" x="93.72966" y="80.909111" style="fill-opacity: 0; stroke: #1976d2; stroke-linejoin: miter"/>
     <use xlink:href="#m4f0a594f02" x="59.430353" y="63.811714" style="fill-opacity: 0; stroke: #1976d2; stroke-linejoin: miter"/>
     <use xlink:href="#m4f0a594f02" x="83.15138" y="74.612876" style="fill-opacity: 0; stroke: #1976d2; stroke-linejoin: miter"/>
     <use xlink:href="#m4f0a594f02" x="124.527273" y="53.099163" style="fill-opacity: 0; stroke: #1976d2; stroke-linejoin: miter"/>
     <use xlink:href="#m4f0a594f02" x="93.67246" y="52.87786" style="fill-opacity: 0; stroke: #1976d2; stroke-linejoin: miter"/>
     <use xlink:href="#m4f0a594f02" x="69.082456" y="53.788538" style="fill-opacity: 0; stroke: #1976d2; stroke-linejoin: miter"/>
     <use xlink:href="#m4f0a594f02" x="23.072727" y="91.427085" style="fill-opacity: 0; stroke: #1976d2; stroke-linejoin: miter"/>
     <use xlink:href="#m4f0a594f02" x="73.063164" y="74.441134" style="fill-opacity: 0; stroke: #1976d2; stroke-linejoin: miter"/>
     <use xlink:href="#m4f0a594f02" x="29.984833" y="88.469618" style="fill-opacity: 0; stroke: #1976d2; stroke-linejoin: miter"/>
     <use xlink:href="#m4f0a594f02" x="79.702914" y="88.697079" style="fill-opacity: 0; stroke: #1976d2; stroke-linejoin: miter"/>
     <use xlink:href="#m4f0a594f02" x="60.746439" y="93.054789" style="fill-opacity: 0; stroke: #1976d2; stroke-linejoin: miter"/>
     <use xlink:href="#m4f0a594f02" x="61.48878" y="80.488167" style="fill-opacity: 0; stroke: #1976d2; stroke-linejoin: miter"/>
     <use xlink:href="#m4f0a594f02" x="84.282878" y="87.23637" style="fill-opacity: 0; stroke: #1976d2; stroke-linejoin: miter"/>
     <use xlink:href="#m4f0a594f02" x="84.020512" y="62.441111" style="fill-opacity: 0; stroke: #1976d2; stroke-linejoin: miter"/>
     <use xlink:href="#m4f0a594f02" x="92.766531" y="58.186511" style="fill-opacity: 0; stroke: #1976d2; stroke-linejoin: miter"/>
    </g>
   </g>
   <g id="patch_3">
    <path d="M 18 128.16 
L 18 17.28 
" style="fill: none; stroke: #000000; stroke-width: 0.8; stroke-linejoin: miter; stroke-linecap: square"/>
   </g>
   <g id="patch_4">
    <path d="M 18 72.72 
L 129.6 72.72 
" style="fill: none; stroke: #000000; stroke-width: 0.8; stroke-linejoin: miter; stroke-linecap: square"/>
   </g>
   <g id="text_6">
    <!-- TFRC: 0.47 -->
    <g transform="translate(41.338125 11.28) scale(0.12 -0.12)">
     <defs>
      <path id="DejaVuSans-54" d="M -19 4666 
L 3928 4666 
L 3928 4134 
L 2272 4134 
L 2272 0 
L 1638 0 
L 1638 4134 
L -19 4134 
L -19 4666 
z
" transform="scale(0.015625)"/>
      <path id="DejaVuSans-46" d="M 628 4666 
L 3309 4666 
L 3309 4134 
L 1259 4134 
L 1259 2759 
L 3109 2759 
L 3109 2228 
L 1259 2228 
L 1259 0 
L 628 0 
L 628 4666 
z
" transform="scale(0.015625)"/>
      <path id="DejaVuSans-52" d="M 2841 2188 
Q 3044 2119 3236 1894 
Q 3428 1669 3622 1275 
L 4263 0 
L 3584 0 
L 2988 1197 
Q 2756 1666 2539 1819 
Q 2322 1972 1947 1972 
L 1259 1972 
L 1259 0 
L 628 0 
L 628 4666 
L 2053 4666 
Q 2853 4666 3247 4331 
Q 3641 3997 3641 3322 
Q 3641 2881 3436 2590 
Q 3231 2300 2841 2188 
z
M 1259 4147 
L 1259 2491 
L 2053 2491 
Q 2509 2491 2742 2702 
Q 2975 2913 2975 3322 
Q 2975 3731 2742 3939 
Q 2509 4147 2053 4147 
L 1259 4147 
z
" transform="scale(0.015625)"/>
      <path id="DejaVuSans-43" d="M 4122 4306 
L 4122 3641 
Q 3803 3938 3442 4084 
Q 3081 4231 2675 4231 
Q 1875 4231 1450 3742 
Q 1025 3253 1025 2328 
Q 1025 1406 1450 917 
Q 1875 428 2675 428 
Q 3081 428 3442 575 
Q 3803 722 4122 1019 
L 4122 359 
Q 3791 134 3420 21 
Q 3050 -91 2638 -91 
Q 1578 -91 968 557 
Q 359 1206 359 2328 
Q 359 3453 968 4101 
Q 1578 4750 2638 4750 
Q 3056 4750 3426 4639 
Q 3797 4528 4122 4306 
z
" transform="scale(0.015625)"/>
      <path id="DejaVuSans-3a" d="M 750 794 
L 1409 794 
L 1409 0 
L 750 0 
L 750 794 
z
M 750 3309 
L 1409 3309 
L 1409 2516 
L 750 2516 
L 750 3309 
z
" transform="scale(0.015625)"/>
      <path id="DejaVuSans-20" transform="scale(0.015625)"/>
      <path id="DejaVuSans-2e" d="M 684 794 
L 1344 794 
L 1344 0 
L 684 0 
L 684 794 
z
" transform="scale(0.015625)"/>
      <path id="DejaVuSans-37" d="M 525 4666 
L 3525 4666 
L 3525 4397 
L 1831 0 
L 1172 0 
L 2766 4134 
L 525 4134 
L 525 4666 
z
" transform="scale(0.015625)"/>
     </defs>
     <use xlink:href="#DejaVuSans-54"/>
     <use xlink:href="#DejaVuSans-46" transform="translate(61.083984 0)"/>
     <use xlink:href="#DejaVuSans-52" transform="translate(118.603516 0)"/>
     <use xlink:href="#DejaVuSans-43" transform="translate(183.085938 0)"/>
     <use xlink:href="#DejaVuSans-3a" transform="translate(252.910156 0)"/>
     <use xlink:href="#DejaVuSans-20" transform="translate(286.601562 0)"/>
     <use xlink:href="#DejaVuSans-30" transform="translate(318.388672 0)"/>
     <use xlink:href="#DejaVuSans-2e" transform="translate(382.011719 0)"/>
     <use xlink:href="#DejaVuSans-34" transform="translate(413.798828 0)"/>
     <use xlink:href="#DejaVuSans-37" transform="translate(477.421875 0)"/>
    </g>
   </g>
  </g>
 </g>
 <defs>
  <clipPath id="p9c26742617">
   <rect x="18" y="17.28" width="111.6" height="110.88"/>
  </clipPath>
 </defs>
</svg>
