<?xml version="1.0" encoding="utf-8" standalone="no"?>
<!DOCTYPE svg PUBLIC "-//W3C//DTD SVG 1.1//EN"
  "http://www.w3.org/Graphics/SVG/1.1/DTD/svg11.dtd">
<svg xmlns:xlink="http://www.w3.org/1999/xlink" width="432pt" height="144pt" viewBox="0 0 432 144" xmlns="http://www.w3.org/2000/svg" version="1.1">
 <metadata>
  <rdf:RDF xmlns:dc="http://purl.org/dc/elements/1.1/" xmlns:cc="http://creativecommons.org/ns#" xmlns:rdf="http://www.w3.org/1999/02/22-rdf-syntax-ns#">
   <cc:Work>
    <dc:type rdf:resource="http://purl.org/dc/dcmitype/StillImage"/>
    <dc:date>2025-09-29T11:56:05.053664</dc:date>
    <dc:format>image/svg+xml</dc:format>
    <dc:creator>
     <cc:Agent>
      <dc:title>Matplotlib v3.10.6, https://matplotlib.org/</dc:title>
     </cc:Agent>
    </dc:creator>
   </cc:Work>
  </rdf:RDF>
 </metadata>
 <defs>
  <style type="text/css">*{stroke-linejoin: round; stroke-linecap: butt}</style>
 </defs>
 <g id="figure_1">
  <g id="patch_1">
   <path d="M 0 144 
L 432 144 
L 432 0 
L 0 0 
z
" style="fill: #ffffff"/>
  </g>
  <g id="axes_1">
   <g id="patch_2">
    <path d="M 54 128.16 
L 388.8 128.16 
L 388.8 17.28 
L 54 17.28 
z
" style="fill: #ffffff"/>
   </g>
   <g id="FillBetweenPolyCollection_1">
    <defs>
     <path id="m119f4f258a" d="M 129.346944 -15.8402 
L 129.346944 -15.84 
L 130.357507 -15.84 
L 131.368069 -15.84 
L 132.378631 -15.84 
L 133.389193 -15.84 
L 134.399756 -15.84 
L 135.410318 -15.84 
L 136.42088 -15.84 
L 137.431443 -15.84 
L 138.442005 -15.84 
L 139.452567 -15.84 
L 140.463129 -15.84 
L 141.473692 -15.84 
L 142.484254 -15.84 
L 143.494816 -15.84 
L 144.505378 -15.84 
L 145.515941 -15.84 
L 146.526503 -15.84 
L 147.537065 -15.84 
L 148.547627 -15.84 
L 149.55819 -15.84 
L 150.568752 -15.84 
L 151.579314 -15.84 
L 152.589876 -15.84 
L 153.600439 -15.84 
L 154.611001 -15.84 
L 155.621563 -15.84 
L 156.632125 -15.84 
L 157.642688 -15.84 
L 158.65325 -15.84 
L 159.663812 -15.84 
L 160.674374 -15.84 
L 161.684937 -15.84 
L 162.695499 -15.84 
L 163.706061 -15.84 
L 164.716624 -15.84 
L 165.727186 -15.84 
L 166.737748 -15.84 
L 167.74831 -15.84 
L 168.758873 -15.84 
L 169.769435 -15.84 
L 170.779997 -15.84 
L 171.790559 -15.84 
L 172.801122 -15.84 
L 173.811684 -15.84 
L 174.822246 -15.84 
L 175.832808 -15.84 
L 176.843371 -15.84 
L 177.853933 -15.84 
L 178.864495 -15.84 
L 179.875057 -15.84 
L 180.88562 -15.84 
L 181.896182 -15.84 
L 182.906744 -15.84 
L 183.917306 -15.84 
L 184.927869 -15.84 
L 185.938431 -15.84 
L 186.948993 -15.84 
L 187.959555 -15.84 
L 188.970118 -15.84 
L 189.98068 -15.84 
L 190.991242 -15.84 
L 192.001805 -15.84 
L 193.012367 -15.84 
L 194.022929 -15.84 
L 195.033491 -15.84 
L 196.044054 -15.84 
L 197.054616 -15.84 
L 198.065178 -15.84 
L 199.07574 -15.84 
L 200.086303 -15.84 
L 201.096865 -15.84 
L 202.107427 -15.84 
L 203.117989 -15.84 
L 204.128552 -15.84 
L 205.139114 -15.84 
L 206.149676 -15.84 
L 207.160238 -15.84 
L 208.170801 -15.84 
L 209.181363 -15.84 
L 210.191925 -15.84 
L 211.202487 -15.84 
L 212.21305 -15.84 
L 213.223612 -15.84 
L 214.234174 -15.84 
L 215.244737 -15.84 
L 216.255299 -15.84 
L 217.265861 -15.84 
L 218.276423 -15.84 
L 219.286986 -15.84 
L 220.297548 -15.84 
L 221.30811 -15.84 
L 222.318672 -15.84 
L 223.329235 -15.84 
L 224.339797 -15.84 
L 225.350359 -15.84 
L 226.360921 -15.84 
L 227.371484 -15.84 
L 228.382046 -15.84 
L 229.392608 -15.84 
L 230.40317 -15.84 
L 231.413733 -15.84 
L 232.424295 -15.84 
L 233.434857 -15.84 
L 234.445419 -15.84 
L 235.455982 -15.84 
L 236.466544 -15.84 
L 237.477106 -15.84 
L 238.487668 -15.84 
L 239.498231 -15.84 
L 240.508793 -15.84 
L 241.519355 -15.84 
L 242.529918 -15.84 
L 243.54048 -15.84 
L 244.551042 -15.84 
L 245.561604 -15.84 
L 246.572167 -15.84 
L 247.582729 -15.84 
L 248.593291 -15.84 
L 249.603853 -15.84 
L 250.614416 -15.84 
L 251.624978 -15.84 
L 252.63554 -15.84 
L 253.646102 -15.84 
L 254.656665 -15.84 
L 255.667227 -15.84 
L 256.677789 -15.84 
L 257.688351 -15.84 
L 258.698914 -15.84 
L 259.709476 -15.84 
L 260.720038 -15.84 
L 261.7306 -15.84 
L 262.741163 -15.84 
L 263.751725 -15.84 
L 264.762287 -15.84 
L 265.77285 -15.84 
L 266.783412 -15.84 
L 267.793974 -15.84 
L 268.804536 -15.84 
L 269.815099 -15.84 
L 270.825661 -15.84 
L 271.836223 -15.84 
L 272.846785 -15.84 
L 273.857348 -15.84 
L 274.86791 -15.84 
L 275.878472 -15.84 
L 276.889034 -15.84 
L 277.899597 -15.84 
L 278.910159 -15.84 
L 279.920721 -15.84 
L 280.931283 -15.84 
L 281.941846 -15.84 
L 282.952408 -15.84 
L 283.96297 -15.84 
L 284.973532 -15.84 
L 285.984095 -15.84 
L 286.994657 -15.84 
L 288.005219 -15.84 
L 289.015781 -15.84 
L 290.026344 -15.84 
L 291.036906 -15.84 
L 292.047468 -15.84 
L 293.058031 -15.84 
L 294.068593 -15.84 
L 295.079155 -15.84 
L 296.089717 -15.84 
L 297.10028 -15.84 
L 298.110842 -15.84 
L 299.121404 -15.84 
L 300.131966 -15.84 
L 301.142529 -15.84 
L 302.153091 -15.84 
L 303.163653 -15.84 
L 304.174215 -15.84 
L 305.184778 -15.84 
L 306.19534 -15.84 
L 307.205902 -15.84 
L 308.216464 -15.84 
L 309.227027 -15.84 
L 310.237589 -15.84 
L 311.248151 -15.84 
L 312.258713 -15.84 
L 313.269276 -15.84 
L 314.279838 -15.84 
L 315.2904 -15.84 
L 316.300962 -15.84 
L 317.311525 -15.84 
L 318.322087 -15.84 
L 319.332649 -15.84 
L 320.343212 -15.84 
L 321.353774 -15.84 
L 322.364336 -15.84 
L 323.374898 -15.84 
L 324.385461 -15.84 
L 325.396023 -15.84 
L 326.406585 -15.84 
L 327.417147 -15.84 
L 328.42771 -15.84 
L 329.438272 -15.84 
L 330.448834 -15.84 
L 330.448834 -15.840206 
L 330.448834 -15.840206 
L 329.438272 -15.840598 
L 328.42771 -15.841517 
L 327.417147 -15.843374 
L 326.406585 -15.846598 
L 325.396023 -15.851384 
L 324.385461 -15.857408 
L 323.374898 -15.86371 
L 322.364336 -15.868906 
L 321.353774 -15.871696 
L 320.343212 -15.871446 
L 319.332649 -15.868596 
L 318.322087 -15.864774 
L 317.311525 -15.862557 
L 316.300962 -15.86494 
L 315.2904 -15.874596 
L 314.279838 -15.893133 
L 313.269276 -15.920629 
L 312.258713 -15.955754 
L 311.248151 -15.996518 
L 310.237589 -16.041349 
L 309.227027 -16.089913 
L 308.216464 -16.143255 
L 307.205902 -16.203165 
L 306.19534 -16.271119 
L 305.184778 -16.347431 
L 304.174215 -16.431166 
L 303.163653 -16.520792 
L 302.153091 -16.615104 
L 301.142529 -16.713957 
L 300.131966 -16.818631 
L 299.121404 -16.931746 
L 298.110842 -17.056784 
L 297.10028 -17.197328 
L 296.089717 -17.356133 
L 295.079155 -17.534524 
L 294.068593 -17.733122 
L 293.058031 -17.954144 
L 292.047468 -18.203353 
L 291.036906 -18.489027 
L 290.026344 -18.818088 
L 289.015781 -19.193263 
L 288.005219 -19.614966 
L 286.994657 -20.086925 
L 285.984095 -20.620565 
L 284.973532 -21.233879 
L 283.96297 -21.945075 
L 282.952408 -22.76493 
L 281.941846 -23.69166 
L 280.931283 -24.70947 
L 279.920721 -25.78972 
L 278.910159 -26.893791 
L 277.899597 -27.97826 
L 276.889034 -29.003846 
L 275.878472 -29.948542 
L 274.86791 -30.823001 
L 273.857348 -31.683989 
L 272.846785 -32.640151 
L 271.836223 -33.842532 
L 270.825661 -35.450055 
L 269.815099 -37.565202 
L 268.804536 -40.158639 
L 267.793974 -43.034085 
L 266.783412 -45.885743 
L 265.77285 -48.441279 
L 264.762287 -50.604681 
L 263.751725 -52.500328 
L 262.741163 -54.395518 
L 261.7306 -56.563482 
L 260.720038 -59.160956 
L 259.709476 -62.153084 
L 258.698914 -65.298289 
L 257.688351 -68.216577 
L 256.677789 -70.546941 
L 255.667227 -72.131014 
L 254.656665 -73.106061 
L 253.646102 -73.826433 
L 252.63554 -74.652324 
L 251.624978 -75.754666 
L 250.614416 -77.080671 
L 249.603853 -78.49106 
L 248.593291 -79.932105 
L 247.582729 -81.489854 
L 246.572167 -83.305061 
L 245.561604 -85.462296 
L 244.551042 -87.967277 
L 243.54048 -90.80925 
L 242.529918 -94.005378 
L 241.519355 -97.542479 
L 240.508793 -101.247079 
L 239.498231 -104.7185 
L 238.487668 -107.444439 
L 237.477106 -109.070331 
L 236.466544 -109.63382 
L 235.455982 -109.570145 
L 234.445419 -109.471708 
L 233.434857 -109.779844 
L 232.424295 -110.616654 
L 231.413733 -111.826763 
L 230.40317 -113.142815 
L 229.392608 -114.339788 
L 228.382046 -115.300607 
L 227.371484 -115.998198 
L 226.360921 -116.44271 
L 225.350359 -116.64 
L 224.339797 -116.582492 
L 223.329235 -116.265388 
L 222.318672 -115.70246 
L 221.30811 -114.918307 
L 220.297548 -113.918681 
L 219.286986 -112.666899 
L 218.276423 -111.098186 
L 217.265861 -109.179702 
L 216.255299 -106.990584 
L 215.244737 -104.78074 
L 214.234174 -102.974739 
L 213.223612 -102.090935 
L 212.21305 -102.536371 
L 211.202487 -104.279017 
L 210.191925 -106.553369 
L 209.181363 -107.908393 
L 208.170801 -106.787379 
L 207.160238 -102.380951 
L 206.149676 -95.130617 
L 205.139114 -86.462203 
L 204.128552 -77.973651 
L 203.117989 -70.718466 
L 202.107427 -65.013336 
L 201.096865 -60.681663 
L 200.086303 -57.383008 
L 199.07574 -54.803016 
L 198.065178 -52.704836 
L 197.054616 -50.927178 
L 196.044054 -49.372086 
L 195.033491 -47.980497 
L 194.022929 -46.695087 
L 193.012367 -45.429268 
L 192.001805 -44.068333 
L 190.991242 -42.516022 
L 189.98068 -40.769945 
L 188.970118 -38.977053 
L 187.959555 -37.415258 
L 186.948993 -36.385807 
L 185.938431 -36.060356 
L 184.927869 -36.363218 
L 183.917306 -36.958588 
L 182.906744 -37.361958 
L 181.896182 -37.129422 
L 180.88562 -36.032029 
L 179.875057 -34.127298 
L 178.864495 -31.700875 
L 177.853933 -29.127573 
L 176.843371 -26.735774 
L 175.832808 -24.732772 
L 174.822246 -23.195209 
L 173.811684 -22.096056 
L 172.801122 -21.342042 
L 171.790559 -20.811818 
L 170.779997 -20.392078 
L 169.769435 -20.004715 
L 168.758873 -19.616067 
L 167.74831 -19.226944 
L 166.737748 -18.852863 
L 165.727186 -18.507156 
L 164.716624 -18.193485 
L 163.706061 -17.90664 
L 162.695499 -17.637668 
L 161.684937 -17.380153 
L 160.674374 -17.134824 
L 159.663812 -16.909837 
L 158.65325 -16.716315 
L 157.642688 -16.562096 
L 156.632125 -16.447718 
L 155.621563 -16.366409 
L 154.611001 -16.306948 
L 153.600439 -16.257342 
L 152.589876 -16.208096 
L 151.579314 -16.154543 
L 150.568752 -16.097528 
L 149.55819 -16.041867 
L 148.547627 -15.993201 
L 147.537065 -15.955092 
L 146.526503 -15.927955 
L 145.515941 -15.909869 
L 144.505378 -15.898075 
L 143.494816 -15.890082 
L 142.484254 -15.884132 
L 141.473692 -15.87926 
L 140.463129 -15.875105 
L 139.452567 -15.871499 
L 138.442005 -15.868095 
L 137.431443 -15.86435 
L 136.42088 -15.859901 
L 135.410318 -15.854913 
L 134.399756 -15.850037 
L 133.389193 -15.845985 
L 132.378631 -15.843137 
L 131.368069 -15.841438 
L 130.357507 -15.840575 
L 129.346944 -15.8402 
z
" style="stroke: #7b1fa2; stroke-width: 2"/>
    </defs>
    <g clip-path="url(#p9771ee2d3d)">
     <use xlink:href="#m119f4f258a" x="0" y="144" style="fill: #7b1fa2; fill-opacity: 0.25; stroke: #7b1fa2; stroke-width: 2"/>
    </g>
   </g>
   <g id="patch_3">
    <path d="M 54 128.16 
L 170.0082 128.16 
L 170.0082 17.28 
L 54 17.28 
z
" clip-path="url(#p9771ee2d3d)" style="fill: #616161; opacity: 0.2; stroke: #616161; stroke-linejoin: miter"/>
   </g>
   <g id="patch_4">
    <path d="M 54 128.16 
L 154.44 128.16 
L 154.44 17.28 
L 54 17.28 
z
" clip-path="url(#p9771ee2d3d)" style="fill: #616161; opacity: 0.1; stroke: #616161; stroke-linejoin: miter"/>
   </g>
   <g id="patch_5">
    <path d="M 272.7918 128.16 
L 388.8 128.16 
L 388.8 17.28 
L 272.7918 17.28 
z
" clip-path="url(#p9771ee2d3d)" style="fill: #616161; opacity: 0.2; stroke: #616161; stroke-linejoin: miter"/>
   </g>
   <g id="patch_6">
    <path d="M 288.36 128.16 
L 388.8 128.16 
L 388.8 17.28 
L 288.36 17.28 
z
" clip-path="url(#p9771ee2d3d)" style="fill: #616161; opacity: 0.1; stroke: #616161; stroke-linejoin: miter"/>
   </g>
   <g id="matplotlib.axis_1">
    <g id="xtick_1">
     <g id="line2d_1">
      <defs>
       <path id="ma96b43525a" d="M 0 0 
L 0 3.5 
" style="stroke: #000000; stroke-width: 0.8"/>
      </defs>
      <g>
       <use xlink:href="#ma96b43525a" x="54" y="128.16" style="stroke: #000000; stroke-width: 0.8"/>
      </g>
     </g>
     <g id="text_1">
      <!-- −1.00 -->
      <g transform="translate(38.677344 142.758438) scale(0.1 -0.1)">
       <defs>
        <path id="DejaVuSans-2212" d="M 678 2272 
L 4684 2272 
L 4684 1741 
L 678 1741 
L 678 2272 
z
" transform="scale(0.015625)"/>
        <path id="DejaVuSans-31" d="M 794 531 
L 1825 531 
L 1825 4091 
L 703 3866 
L 703 4441 
L 1819 4666 
L 2450 4666 
L 2450 531 
L 3481 531 
L 3481 0 
L 794 0 
L 794 531 
z
" transform="scale(0.015625)"/>
        <path id="DejaVuSans-2e" d="M 684 794 
L 1344 794 
L 1344 0 
L 684 0 
L 684 794 
z
" transform="scale(0.015625)"/>
        <path id="DejaVuSans-30" d="M 2034 4250 
Q 1547 4250 1301 3770 
Q 1056 3291 1056 2328 
Q 1056 1369 1301 889 
Q 1547 409 2034 409 
Q 2525 409 2770 889 
Q 3016 1369 3016 2328 
Q 3016 3291 2770 3770 
Q 2525 4250 2034 4250 
z
M 2034 4750 
Q 2819 4750 3233 4129 
Q 3647 3509 3647 2328 
Q 3647 1150 3233 529 
Q 2819 -91 2034 -91 
Q 1250 -91 836 529 
Q 422 1150 422 2328 
Q 422 3509 836 4129 
Q 1250 4750 2034 4750 
z
" transform="scale(0.015625)"/>
       </defs>
       <use xlink:href="#DejaVuSans-2212"/>
       <use xlink:href="#DejaVuSans-31" transform="translate(83.789062 0)"/>
       <use xlink:href="#DejaVuSans-2e" transform="translate(147.412109 0)"/>
       <use xlink:href="#DejaVuSans-30" transform="translate(179.199219 0)"/>
       <use xlink:href="#DejaVuSans-30" transform="translate(242.822266 0)"/>
      </g>
     </g>
    </g>
    <g id="xtick_2">
     <g id="line2d_2">
      <g>
       <use xlink:href="#ma96b43525a" x="95.85" y="128.16" style="stroke: #000000; stroke-width: 0.8"/>
      </g>
     </g>
     <g id="text_2">
      <!-- −0.75 -->
      <g transform="translate(80.527344 142.758438) scale(0.1 -0.1)">
       <defs>
        <path id="DejaVuSans-37" d="M 525 4666 
L 3525 4666 
L 3525 4397 
L 1831 0 
L 1172 0 
L 2766 4134 
L 525 4134 
L 525 4666 
z
" transform="scale(0.015625)"/>
        <path id="DejaVuSans-35" d="M 691 4666 
L 3169 4666 
L 3169 4134 
L 1269 4134 
L 1269 2991 
Q 1406 3038 1543 3061 
Q 1681 3084 1819 3084 
Q 2600 3084 3056 2656 
Q 3513 2228 3513 1497 
Q 3513 744 3044 326 
Q 2575 -91 1722 -91 
Q 1428 -91 1123 -41 
Q 819 9 494 109 
L 494 744 
Q 775 591 1075 516 
Q 1375 441 1709 441 
Q 2250 441 2565 725 
Q 2881 1009 2881 1497 
Q 2881 1984 2565 2268 
Q 2250 2553 1709 2553 
Q 1456 2553 1204 2497 
Q 953 2441 691 2322 
L 691 4666 
z
" transform="scale(0.015625)"/>
       </defs>
       <use xlink:href="#DejaVuSans-2212"/>
       <use xlink:href="#DejaVuSans-30" transform="translate(83.789062 0)"/>
       <use xlink:href="#DejaVuSans-2e" transform="translate(147.412109 0)"/>
       <use xlink:href="#DejaVuSans-37" transform="translate(179.199219 0)"/>
       <use xlink:href="#DejaVuSans-35" transform="translate(242.822266 0)"/>
      </g>
     </g>
    </g>
    <g id="xtick_3">
     <g id="line2d_3">
      <g>
       <use xlink:href="#ma96b43525a" x="137.7" y="128.16" style="stroke: #000000; stroke-width: 0.8"/>
      </g>
     </g>
     <g id="text_3">
      <!-- −0.50 -->
      <g transform="translate(122.377344 142.758438) scale(0.1 -0.1)">
       <use xlink:href="#DejaVuSans-2212"/>
       <use xlink:href="#DejaVuSans-30" transform="translate(83.789062 0)"/>
       <use xlink:href="#DejaVuSans-2e" transform="translate(147.412109 0)"/>
       <use xlink:href="#DejaVuSans-35" transform="translate(179.199219 0)"/>
       <use xlink:href="#DejaVuSans-30" transform="translate(242.822266 0)"/>
      </g>
     </g>
    </g>
    <g id="xtick_4">
     <g id="line2d_4">
      <g>
       <use xlink:href="#ma96b43525a" x="179.55" y="128.16" style="stroke: #000000; stroke-width: 0.8"/>
      </g>
     </g>
     <g id="text_4">
      <!-- −0.25 -->
      <g transform="translate(164.227344 142.758438) scale(0.1 -0.1)">
       <defs>
        <path id="DejaVuSans-32" d="M 1228 531 
L 3431 531 
L 3431 0 
L 469 0 
L 469 531 
Q 828 903 1448 1529 
Q 2069 2156 2228 2338 
Q 2531 2678 2651 2914 
Q 2772 3150 2772 3378 
Q 2772 3750 2511 3984 
Q 2250 4219 1831 4219 
Q 1534 4219 1204 4116 
Q 875 4013 500 3803 
L 500 4441 
Q 881 4594 1212 4672 
Q 1544 4750 1819 4750 
Q 2544 4750 2975 4387 
Q 3406 4025 3406 3419 
Q 3406 3131 3298 2873 
Q 3191 2616 2906 2266 
Q 2828 2175 2409 1742 
Q 1991 1309 1228 531 
z
" transform="scale(0.015625)"/>
       </defs>
       <use xlink:href="#DejaVuSans-2212"/>
       <use xlink:href="#DejaVuSans-30" transform="translate(83.789062 0)"/>
       <use xlink:href="#DejaVuSans-2e" transform="translate(147.412109 0)"/>
       <use xlink:href="#DejaVuSans-32" transform="translate(179.199219 0)"/>
       <use xlink:href="#DejaVuSans-35" transform="translate(242.822266 0)"/>
      </g>
     </g>
    </g>
    <g id="xtick_5">
     <g id="line2d_5">
      <g>
       <use xlink:href="#ma96b43525a" x="221.4" y="128.16" style="stroke: #000000; stroke-width: 0.8"/>
      </g>
     </g>
     <g id="text_5">
      <!-- 0.00 -->
      <g transform="translate(210.267188 142.758438) scale(0.1 -0.1)">
       <use xlink:href="#DejaVuSans-30"/>
       <use xlink:href="#DejaVuSans-2e" transform="translate(63.623047 0)"/>
       <use xlink:href="#DejaVuSans-30" transform="translate(95.410156 0)"/>
       <use xlink:href="#DejaVuSans-30" transform="translate(159.033203 0)"/>
      </g>
     </g>
    </g>
    <g id="xtick_6">
     <g id="line2d_6">
      <g>
       <use xlink:href="#ma96b43525a" x="263.25" y="128.16" style="stroke: #000000; stroke-width: 0.8"/>
      </g>
     </g>
     <g id="text_6">
      <!-- 0.25 -->
      <g transform="translate(252.117188 142.758438) scale(0.1 -0.1)">
       <use xlink:href="#DejaVuSans-30"/>
       <use xlink:href="#DejaVuSans-2e" transform="translate(63.623047 0)"/>
       <use xlink:href="#DejaVuSans-32" transform="translate(95.410156 0)"/>
       <use xlink:href="#DejaVuSans-35" transform="translate(159.033203 0)"/>
      </g>
     </g>
    </g>
    <g id="xtick_7">
     <g id="line2d_7">
      <g>
       <use xlink:href="#ma96b43525a" x="305.1" y="128.16" style="stroke: #000000; stroke-width: 0.8"/>
      </g>
     </g>
     <g id="text_7">
      <!-- 0.50 -->
      <g transform="translate(293.967188 142.758438) scale(0.1 -0.1)">
       <use xlink:href="#DejaVuSans-30"/>
       <use xlink:href="#DejaVuSans-2e" transform="translate(63.623047 0)"/>
       <use xlink:href="#DejaVuSans-35" transform="translate(95.410156 0)"/>
       <use xlink:href="#DejaVuSans-30" transform="translate(159.033203 0)"/>
      </g>
     </g>
    </g>
    <g id="xtick_8">
     <g id="line2d_8">
      <g>
       <use xlink:href="#ma96b43525a" x="346.95" y="128.16" style="stroke: #000000; stroke-width: 0.8"/>
      </g>
     </g>
     <g id="text_8">
      <!-- 0.75 -->
      <g transform="translate(335.817188 142.758438) scale(0.1 -0.1)">
       <use xlink:href="#DejaVuSans-30"/>
       <use xlink:href="#DejaVuSans-2e" transform="translate(63.623047 0)"/>
       <use xlink:href="#DejaVuSans-37" transform="translate(95.410156 0)"/>
       <use xlink:href="#DejaVuSans-35" transform="translate(159.033203 0)"/>
      </g>
     </g>
    </g>
    <g id="xtick_9">
     <g id="line2d_9">
      <g>
       <use xlink:href="#ma96b43525a" x="388.8" y="128.16" style="stroke: #000000; stroke-width: 0.8"/>
      </g>
     </g>
     <g id="text_9">
      <!-- 1.00 -->
      <g transform="translate(377.667188 142.758438) scale(0.1 -0.1)">
       <use xlink:href="#DejaVuSans-31"/>
       <use xlink:href="#DejaVuSans-2e" transform="translate(63.623047 0)"/>
       <use xlink:href="#DejaVuSans-30" transform="translate(95.410156 0)"/>
       <use xlink:href="#DejaVuSans-30" transform="translate(159.033203 0)"/>
      </g>
     </g>
    </g>
    <g id="text_10">
     <!-- viralload -->
     <g transform="translate(199.85625 156.436563) scale(0.1 -0.1)">
      <defs>
       <path id="DejaVuSans-76" d="M 191 3500 
L 800 3500 
L 1894 563 
L 2988 3500 
L 3597 3500 
L 2284 0 
L 1503 0 
L 191 3500 
z
" transform="scale(0.015625)"/>
       <path id="DejaVuSans-69" d="M 603 3500 
L 1178 3500 
L 1178 0 
L 603 0 
L 603 3500 
z
M 603 4863 
L 1178 4863 
L 1178 4134 
L 603 4134 
L 603 4863 
z
" transform="scale(0.015625)"/>
       <path id="DejaVuSans-72" d="M 2631 2963 
Q 2534 3019 2420 3045 
Q 2306 3072 2169 3072 
Q 1681 3072 1420 2755 
Q 1159 2438 1159 1844 
L 1159 0 
L 581 0 
L 581 3500 
L 1159 3500 
L 1159 2956 
Q 1341 3275 1631 3429 
Q 1922 3584 2338 3584 
Q 2397 3584 2469 3576 
Q 2541 3569 2628 3553 
L 2631 2963 
z
" transform="scale(0.015625)"/>
       <path id="DejaVuSans-61" d="M 2194 1759 
Q 1497 1759 1228 1600 
Q 959 1441 959 1056 
Q 959 750 1161 570 
Q 1363 391 1709 391 
Q 2188 391 2477 730 
Q 2766 1069 2766 1631 
L 2766 1759 
L 2194 1759 
z
M 3341 1997 
L 3341 0 
L 2766 0 
L 2766 531 
Q 2569 213 2275 61 
Q 1981 -91 1556 -91 
Q 1019 -91 701 211 
Q 384 513 384 1019 
Q 384 1609 779 1909 
Q 1175 2209 1959 2209 
L 2766 2209 
L 2766 2266 
Q 2766 2663 2505 2880 
Q 2244 3097 1772 3097 
Q 1472 3097 1187 3025 
Q 903 2953 641 2809 
L 641 3341 
Q 956 3463 1253 3523 
Q 1550 3584 1831 3584 
Q 2591 3584 2966 3190 
Q 3341 2797 3341 1997 
z
" transform="scale(0.015625)"/>
       <path id="DejaVuSans-6c" d="M 603 4863 
L 1178 4863 
L 1178 0 
L 603 0 
L 603 4863 
z
" transform="scale(0.015625)"/>
       <path id="DejaVuSans-6f" d="M 1959 3097 
Q 1497 3097 1228 2736 
Q 959 2375 959 1747 
Q 959 1119 1226 758 
Q 1494 397 1959 397 
Q 2419 397 2687 759 
Q 2956 1122 2956 1747 
Q 2956 2369 2687 2733 
Q 2419 3097 1959 3097 
z
M 1959 3584 
Q 2709 3584 3137 3096 
Q 3566 2609 3566 1747 
Q 3566 888 3137 398 
Q 2709 -91 1959 -91 
Q 1206 -91 779 398 
Q 353 888 353 1747 
Q 353 2609 779 3096 
Q 1206 3584 1959 3584 
z
" transform="scale(0.015625)"/>
       <path id="DejaVuSans-64" d="M 2906 2969 
L 2906 4863 
L 3481 4863 
L 3481 0 
L 2906 0 
L 2906 525 
Q 2725 213 2448 61 
Q 2172 -91 1784 -91 
Q 1150 -91 751 415 
Q 353 922 353 1747 
Q 353 2572 751 3078 
Q 1150 3584 1784 3584 
Q 2172 3584 2448 3432 
Q 2725 3281 2906 2969 
z
M 947 1747 
Q 947 1113 1208 752 
Q 1469 391 1925 391 
Q 2381 391 2643 752 
Q 2906 1113 2906 1747 
Q 2906 2381 2643 2742 
Q 2381 3103 1925 3103 
Q 1469 3103 1208 2742 
Q 947 2381 947 1747 
z
" transform="scale(0.015625)"/>
      </defs>
      <use xlink:href="#DejaVuSans-76"/>
      <use xlink:href="#DejaVuSans-69" transform="translate(59.179688 0)"/>
      <use xlink:href="#DejaVuSans-72" transform="translate(86.962891 0)"/>
      <use xlink:href="#DejaVuSans-61" transform="translate(128.076172 0)"/>
      <use xlink:href="#DejaVuSans-6c" transform="translate(189.355469 0)"/>
      <use xlink:href="#DejaVuSans-6c" transform="translate(217.138672 0)"/>
      <use xlink:href="#DejaVuSans-6f" transform="translate(244.921875 0)"/>
      <use xlink:href="#DejaVuSans-61" transform="translate(306.103516 0)"/>
      <use xlink:href="#DejaVuSans-64" transform="translate(367.382812 0)"/>
     </g>
    </g>
   </g>
   <g id="matplotlib.axis_2">
    <g id="text_11">
     <!-- Density -->
     <g transform="translate(47.920312 91.728594) rotate(-90) scale(0.1 -0.1)">
      <defs>
       <path id="DejaVuSans-44" d="M 1259 4147 
L 1259 519 
L 2022 519 
Q 2988 519 3436 956 
Q 3884 1394 3884 2338 
Q 3884 3275 3436 3711 
Q 2988 4147 2022 4147 
L 1259 4147 
z
M 628 4666 
L 1925 4666 
Q 3281 4666 3915 4102 
Q 4550 3538 4550 2338 
Q 4550 1131 3912 565 
Q 3275 0 1925 0 
L 628 0 
L 628 4666 
z
" transform="scale(0.015625)"/>
       <path id="DejaVuSans-65" d="M 3597 1894 
L 3597 1613 
L 953 1613 
Q 991 1019 1311 708 
Q 1631 397 2203 397 
Q 2534 397 2845 478 
Q 3156 559 3463 722 
L 3463 178 
Q 3153 47 2828 -22 
Q 2503 -91 2169 -91 
Q 1331 -91 842 396 
Q 353 884 353 1716 
Q 353 2575 817 3079 
Q 1281 3584 2069 3584 
Q 2775 3584 3186 3129 
Q 3597 2675 3597 1894 
z
M 3022 2063 
Q 3016 2534 2758 2815 
Q 2500 3097 2075 3097 
Q 1594 3097 1305 2825 
Q 1016 2553 972 2059 
L 3022 2063 
z
" transform="scale(0.015625)"/>
       <path id="DejaVuSans-6e" d="M 3513 2113 
L 3513 0 
L 2938 0 
L 2938 2094 
Q 2938 2591 2744 2837 
Q 2550 3084 2163 3084 
Q 1697 3084 1428 2787 
Q 1159 2491 1159 1978 
L 1159 0 
L 581 0 
L 581 3500 
L 1159 3500 
L 1159 2956 
Q 1366 3272 1645 3428 
Q 1925 3584 2291 3584 
Q 2894 3584 3203 3211 
Q 3513 2838 3513 2113 
z
" transform="scale(0.015625)"/>
       <path id="DejaVuSans-73" d="M 2834 3397 
L 2834 2853 
Q 2591 2978 2328 3040 
Q 2066 3103 1784 3103 
Q 1356 3103 1142 2972 
Q 928 2841 928 2578 
Q 928 2378 1081 2264 
Q 1234 2150 1697 2047 
L 1894 2003 
Q 2506 1872 2764 1633 
Q 3022 1394 3022 966 
Q 3022 478 2636 193 
Q 2250 -91 1575 -91 
Q 1294 -91 989 -36 
Q 684 19 347 128 
L 347 722 
Q 666 556 975 473 
Q 1284 391 1588 391 
Q 1994 391 2212 530 
Q 2431 669 2431 922 
Q 2431 1156 2273 1281 
Q 2116 1406 1581 1522 
L 1381 1569 
Q 847 1681 609 1914 
Q 372 2147 372 2553 
Q 372 3047 722 3315 
Q 1072 3584 1716 3584 
Q 2034 3584 2315 3537 
Q 2597 3491 2834 3397 
z
" transform="scale(0.015625)"/>
       <path id="DejaVuSans-74" d="M 1172 4494 
L 1172 3500 
L 2356 3500 
L 2356 3053 
L 1172 3053 
L 1172 1153 
Q 1172 725 1289 603 
Q 1406 481 1766 481 
L 2356 481 
L 2356 0 
L 1766 0 
Q 1100 0 847 248 
Q 594 497 594 1153 
L 594 3053 
L 172 3053 
L 172 3500 
L 594 3500 
L 594 4494 
L 1172 4494 
z
" transform="scale(0.015625)"/>
       <path id="DejaVuSans-79" d="M 2059 -325 
Q 1816 -950 1584 -1140 
Q 1353 -1331 966 -1331 
L 506 -1331 
L 506 -850 
L 844 -850 
Q 1081 -850 1212 -737 
Q 1344 -625 1503 -206 
L 1606 56 
L 191 3500 
L 800 3500 
L 1894 763 
L 2988 3500 
L 3597 3500 
L 2059 -325 
z
" transform="scale(0.015625)"/>
      </defs>
      <use xlink:href="#DejaVuSans-44"/>
      <use xlink:href="#DejaVuSans-65" transform="translate(77.001953 0)"/>
      <use xlink:href="#DejaVuSans-6e" transform="translate(138.525391 0)"/>
      <use xlink:href="#DejaVuSans-73" transform="translate(201.904297 0)"/>
      <use xlink:href="#DejaVuSans-69" transform="translate(254.003906 0)"/>
      <use xlink:href="#DejaVuSans-74" transform="translate(281.787109 0)"/>
      <use xlink:href="#DejaVuSans-79" transform="translate(320.996094 0)"/>
     </g>
    </g>
   </g>
   <g id="LineCollection_1">
    <path d="M 212.65049 128.16 
L 212.65049 125.388 
" clip-path="url(#p9771ee2d3d)" style="fill: none; stroke: #7b1fa2"/>
    <path d="M 223.106154 128.16 
L 223.106154 125.388 
" clip-path="url(#p9771ee2d3d)" style="fill: none; stroke: #7b1fa2"/>
    <path d="M 206.482085 128.16 
L 206.482085 125.388 
" clip-path="url(#p9771ee2d3d)" style="fill: none; stroke: #7b1fa2"/>
    <path d="M 260.347534 128.16 
L 260.347534 125.388 
" clip-path="url(#p9771ee2d3d)" style="fill: none; stroke: #7b1fa2"/>
    <path d="M 267.457659 128.16 
L 267.457659 125.388 
" clip-path="url(#p9771ee2d3d)" style="fill: none; stroke: #7b1fa2"/>
    <path d="M 223.091572 128.16 
L 223.091572 125.388 
" clip-path="url(#p9771ee2d3d)" style="fill: none; stroke: #7b1fa2"/>
    <path d="M 216.573897 128.16 
L 216.573897 125.388 
" clip-path="url(#p9771ee2d3d)" style="fill: none; stroke: #7b1fa2"/>
    <path d="M 203.244767 128.16 
L 203.244767 125.388 
" clip-path="url(#p9771ee2d3d)" style="fill: none; stroke: #7b1fa2"/>
    <path d="M 243.176092 128.16 
L 243.176092 125.388 
" clip-path="url(#p9771ee2d3d)" style="fill: none; stroke: #7b1fa2"/>
    <path d="M 232.822978 128.16 
L 232.822978 125.388 
" clip-path="url(#p9771ee2d3d)" style="fill: none; stroke: #7b1fa2"/>
    <path d="M 203.755155 128.16 
L 203.755155 125.388 
" clip-path="url(#p9771ee2d3d)" style="fill: none; stroke: #7b1fa2"/>
    <path d="M 234.028459 128.16 
L 234.028459 125.388 
" clip-path="url(#p9771ee2d3d)" style="fill: none; stroke: #7b1fa2"/>
    <path d="M 234.0918 128.16 
L 234.0918 125.388 
" clip-path="url(#p9771ee2d3d)" style="fill: none; stroke: #7b1fa2"/>
    <path d="M 240.488514 128.16 
L 240.488514 125.388 
" clip-path="url(#p9771ee2d3d)" style="fill: none; stroke: #7b1fa2"/>
    <path d="M 228.720423 128.16 
L 228.720423 125.388 
" clip-path="url(#p9771ee2d3d)" style="fill: none; stroke: #7b1fa2"/>
    <path d="M 193.809688 128.16 
L 193.809688 125.388 
" clip-path="url(#p9771ee2d3d)" style="fill: none; stroke: #7b1fa2"/>
    <path d="M 227.559928 128.16 
L 227.559928 125.388 
" clip-path="url(#p9771ee2d3d)" style="fill: none; stroke: #7b1fa2"/>
    <path d="M 232.119921 128.16 
L 232.119921 125.388 
" clip-path="url(#p9771ee2d3d)" style="fill: none; stroke: #7b1fa2"/>
    <path d="M 215.625323 128.16 
L 215.625323 125.388 
" clip-path="url(#p9771ee2d3d)" style="fill: none; stroke: #7b1fa2"/>
    <path d="M 229.318307 128.16 
L 229.318307 125.388 
" clip-path="url(#p9771ee2d3d)" style="fill: none; stroke: #7b1fa2"/>
    <path d="M 220.160486 128.16 
L 220.160486 125.388 
" clip-path="url(#p9771ee2d3d)" style="fill: none; stroke: #7b1fa2"/>
    <path d="M 207.269541 128.16 
L 207.269541 125.388 
" clip-path="url(#p9771ee2d3d)" style="fill: none; stroke: #7b1fa2"/>
    <path d="M 224.345797 128.16 
L 224.345797 125.388 
" clip-path="url(#p9771ee2d3d)" style="fill: none; stroke: #7b1fa2"/>
    <path d="M 232.156689 128.16 
L 232.156689 125.388 
" clip-path="url(#p9771ee2d3d)" style="fill: none; stroke: #7b1fa2"/>
    <path d="M 246.234861 128.16 
L 246.234861 125.388 
" clip-path="url(#p9771ee2d3d)" style="fill: none; stroke: #7b1fa2"/>
    <path d="M 209.80816 128.16 
L 209.80816 125.388 
" clip-path="url(#p9771ee2d3d)" style="fill: none; stroke: #7b1fa2"/>
    <path d="M 228.313317 128.16 
L 228.313317 125.388 
" clip-path="url(#p9771ee2d3d)" style="fill: none; stroke: #7b1fa2"/>
    <path d="M 234.242061 128.16 
L 234.242061 125.388 
" clip-path="url(#p9771ee2d3d)" style="fill: none; stroke: #7b1fa2"/>
    <path d="M 212.081772 128.16 
L 212.081772 125.388 
" clip-path="url(#p9771ee2d3d)" style="fill: none; stroke: #7b1fa2"/>
    <path d="M 210.958918 128.16 
L 210.958918 125.388 
" clip-path="url(#p9771ee2d3d)" style="fill: none; stroke: #7b1fa2"/>
    <path d="M 239.321913 128.16 
L 239.321913 125.388 
" clip-path="url(#p9771ee2d3d)" style="fill: none; stroke: #7b1fa2"/>
    <path d="M 229.274559 128.16 
L 229.274559 125.388 
" clip-path="url(#p9771ee2d3d)" style="fill: none; stroke: #7b1fa2"/>
    <path d="M 246.423599 128.16 
L 246.423599 125.388 
" clip-path="url(#p9771ee2d3d)" style="fill: none; stroke: #7b1fa2"/>
    <path d="M 256.433309 128.16 
L 256.433309 125.388 
" clip-path="url(#p9771ee2d3d)" style="fill: none; stroke: #7b1fa2"/>
    <path d="M 223.266643 128.16 
L 223.266643 125.388 
" clip-path="url(#p9771ee2d3d)" style="fill: none; stroke: #7b1fa2"/>
    <path d="M 213.408781 128.16 
L 213.408781 125.388 
" clip-path="url(#p9771ee2d3d)" style="fill: none; stroke: #7b1fa2"/>
    <path d="M 228.959225 128.16 
L 228.959225 125.388 
" clip-path="url(#p9771ee2d3d)" style="fill: none; stroke: #7b1fa2"/>
    <path d="M 245.470628 128.16 
L 245.470628 125.388 
" clip-path="url(#p9771ee2d3d)" style="fill: none; stroke: #7b1fa2"/>
    <path d="M 224.812309 128.16 
L 224.812309 125.388 
" clip-path="url(#p9771ee2d3d)" style="fill: none; stroke: #7b1fa2"/>
    <path d="M 220.350059 128.16 
L 220.350059 125.388 
" clip-path="url(#p9771ee2d3d)" style="fill: none; stroke: #7b1fa2"/>
    <path d="M 214.312897 128.16 
L 214.312897 125.388 
" clip-path="url(#p9771ee2d3d)" style="fill: none; stroke: #7b1fa2"/>
    <path d="M 228.215975 128.16 
L 228.215975 125.388 
" clip-path="url(#p9771ee2d3d)" style="fill: none; stroke: #7b1fa2"/>
    <path d="M 229.566978 128.16 
L 229.566978 125.388 
" clip-path="url(#p9771ee2d3d)" style="fill: none; stroke: #7b1fa2"/>
    <path d="M 226.722619 128.16 
L 226.722619 125.388 
" clip-path="url(#p9771ee2d3d)" style="fill: none; stroke: #7b1fa2"/>
    <path d="M 229.172481 128.16 
L 229.172481 125.388 
" clip-path="url(#p9771ee2d3d)" style="fill: none; stroke: #7b1fa2"/>
    <path d="M 246.656289 128.16 
L 246.656289 125.388 
" clip-path="url(#p9771ee2d3d)" style="fill: none; stroke: #7b1fa2"/>
    <path d="M 234.67009 128.16 
L 234.67009 125.388 
" clip-path="url(#p9771ee2d3d)" style="fill: none; stroke: #7b1fa2"/>
    <path d="M 241.698863 128.16 
L 241.698863 125.388 
" clip-path="url(#p9771ee2d3d)" style="fill: none; stroke: #7b1fa2"/>
    <path d="M 221.939553 128.16 
L 221.939553 125.388 
" clip-path="url(#p9771ee2d3d)" style="fill: none; stroke: #7b1fa2"/>
    <path d="M 229.959937 128.16 
L 229.959937 125.388 
" clip-path="url(#p9771ee2d3d)" style="fill: none; stroke: #7b1fa2"/>
    <path d="M 228.473753 128.16 
L 228.473753 125.388 
" clip-path="url(#p9771ee2d3d)" style="fill: none; stroke: #7b1fa2"/>
    <path d="M 251.26681 128.16 
L 251.26681 125.388 
" clip-path="url(#p9771ee2d3d)" style="fill: none; stroke: #7b1fa2"/>
    <path d="M 214.079577 128.16 
L 214.079577 125.388 
" clip-path="url(#p9771ee2d3d)" style="fill: none; stroke: #7b1fa2"/>
    <path d="M 216.309815 128.16 
L 216.309815 125.388 
" clip-path="url(#p9771ee2d3d)" style="fill: none; stroke: #7b1fa2"/>
    <path d="M 213.130569 128.16 
L 213.130569 125.388 
" clip-path="url(#p9771ee2d3d)" style="fill: none; stroke: #7b1fa2"/>
    <path d="M 230.514073 128.16 
L 230.514073 125.388 
" clip-path="url(#p9771ee2d3d)" style="fill: none; stroke: #7b1fa2"/>
    <path d="M 237.586594 128.16 
L 237.586594 125.388 
" clip-path="url(#p9771ee2d3d)" style="fill: none; stroke: #7b1fa2"/>
    <path d="M 221.166639 128.16 
L 221.166639 125.388 
" clip-path="url(#p9771ee2d3d)" style="fill: none; stroke: #7b1fa2"/>
    <path d="M 239.438573 128.16 
L 239.438573 125.388 
" clip-path="url(#p9771ee2d3d)" style="fill: none; stroke: #7b1fa2"/>
    <path d="M 222.435359 128.16 
L 222.435359 125.388 
" clip-path="url(#p9771ee2d3d)" style="fill: none; stroke: #7b1fa2"/>
    <path d="M 237.310219 128.16 
L 237.310219 125.388 
" clip-path="url(#p9771ee2d3d)" style="fill: none; stroke: #7b1fa2"/>
    <path d="M 235.882818 128.16 
L 235.882818 125.388 
" clip-path="url(#p9771ee2d3d)" style="fill: none; stroke: #7b1fa2"/>
    <path d="M 234.961741 128.16 
L 234.961741 125.388 
" clip-path="url(#p9771ee2d3d)" style="fill: none; stroke: #7b1fa2"/>
    <path d="M 229.522462 128.16 
L 229.522462 125.388 
" clip-path="url(#p9771ee2d3d)" style="fill: none; stroke: #7b1fa2"/>
    <path d="M 249.762995 128.16 
L 249.762995 125.388 
" clip-path="url(#p9771ee2d3d)" style="fill: none; stroke: #7b1fa2"/>
    <path d="M 250.375461 128.16 
L 250.375461 125.388 
" clip-path="url(#p9771ee2d3d)" style="fill: none; stroke: #7b1fa2"/>
    <path d="M 214.356644 128.16 
L 214.356644 125.388 
" clip-path="url(#p9771ee2d3d)" style="fill: none; stroke: #7b1fa2"/>
    <path d="M 238.796942 128.16 
L 238.796942 125.388 
" clip-path="url(#p9771ee2d3d)" style="fill: none; stroke: #7b1fa2"/>
    <path d="M 224.549824 128.16 
L 224.549824 125.388 
" clip-path="url(#p9771ee2d3d)" style="fill: none; stroke: #7b1fa2"/>
    <path d="M 203.040612 128.16 
L 203.040612 125.388 
" clip-path="url(#p9771ee2d3d)" style="fill: none; stroke: #7b1fa2"/>
    <path d="M 231.141121 128.16 
L 231.141121 125.388 
" clip-path="url(#p9771ee2d3d)" style="fill: none; stroke: #7b1fa2"/>
    <path d="M 235.486174 128.16 
L 235.486174 125.388 
" clip-path="url(#p9771ee2d3d)" style="fill: none; stroke: #7b1fa2"/>
    <path d="M 217.344294 128.16 
L 217.344294 125.388 
" clip-path="url(#p9771ee2d3d)" style="fill: none; stroke: #7b1fa2"/>
    <path d="M 191.243356 128.16 
L 191.243356 125.388 
" clip-path="url(#p9771ee2d3d)" style="fill: none; stroke: #7b1fa2"/>
    <path d="M 204.834261 128.16 
L 204.834261 125.388 
" clip-path="url(#p9771ee2d3d)" style="fill: none; stroke: #7b1fa2"/>
    <path d="M 239.901666 128.16 
L 239.901666 125.388 
" clip-path="url(#p9771ee2d3d)" style="fill: none; stroke: #7b1fa2"/>
    <path d="M 238.680282 128.16 
L 238.680282 125.388 
" clip-path="url(#p9771ee2d3d)" style="fill: none; stroke: #7b1fa2"/>
    <path d="M 227.991298 128.16 
L 227.991298 125.388 
" clip-path="url(#p9771ee2d3d)" style="fill: none; stroke: #7b1fa2"/>
    <path d="M 237.527736 128.16 
L 237.527736 125.388 
" clip-path="url(#p9771ee2d3d)" style="fill: none; stroke: #7b1fa2"/>
    <path d="M 215.610741 128.16 
L 215.610741 125.388 
" clip-path="url(#p9771ee2d3d)" style="fill: none; stroke: #7b1fa2"/>
    <path d="M 228.822501 128.16 
L 228.822501 125.388 
" clip-path="url(#p9771ee2d3d)" style="fill: none; stroke: #7b1fa2"/>
    <path d="M 242.121756 128.16 
L 242.121756 125.388 
" clip-path="url(#p9771ee2d3d)" style="fill: none; stroke: #7b1fa2"/>
    <path d="M 207.182046 128.16 
L 207.182046 125.388 
" clip-path="url(#p9771ee2d3d)" style="fill: none; stroke: #7b1fa2"/>
    <path d="M 238.286554 128.16 
L 238.286554 125.388 
" clip-path="url(#p9771ee2d3d)" style="fill: none; stroke: #7b1fa2"/>
    <path d="M 240.69267 128.16 
L 240.69267 125.388 
" clip-path="url(#p9771ee2d3d)" style="fill: none; stroke: #7b1fa2"/>
    <path d="M 211.935947 128.16 
L 211.935947 125.388 
" clip-path="url(#p9771ee2d3d)" style="fill: none; stroke: #7b1fa2"/>
    <path d="M 254.007928 128.16 
L 254.007928 125.388 
" clip-path="url(#p9771ee2d3d)" style="fill: none; stroke: #7b1fa2"/>
    <path d="M 216.745701 128.16 
L 216.745701 125.388 
" clip-path="url(#p9771ee2d3d)" style="fill: none; stroke: #7b1fa2"/>
    <path d="M 275.555248 128.16 
L 275.555248 125.388 
" clip-path="url(#p9771ee2d3d)" style="fill: none; stroke: #7b1fa2"/>
    <path d="M 261.421399 128.16 
L 261.421399 125.388 
" clip-path="url(#p9771ee2d3d)" style="fill: none; stroke: #7b1fa2"/>
    <path d="M 223.42697 128.16 
L 223.42697 125.388 
" clip-path="url(#p9771ee2d3d)" style="fill: none; stroke: #7b1fa2"/>
    <path d="M 216.791925 128.16 
L 216.791925 125.388 
" clip-path="url(#p9771ee2d3d)" style="fill: none; stroke: #7b1fa2"/>
    <path d="M 249.364472 128.16 
L 249.364472 125.388 
" clip-path="url(#p9771ee2d3d)" style="fill: none; stroke: #7b1fa2"/>
    <path d="M 255.683497 128.16 
L 255.683497 125.388 
" clip-path="url(#p9771ee2d3d)" style="fill: none; stroke: #7b1fa2"/>
    <path d="M 233.378709 128.16 
L 233.378709 125.388 
" clip-path="url(#p9771ee2d3d)" style="fill: none; stroke: #7b1fa2"/>
    <path d="M 244.484124 128.16 
L 244.484124 125.388 
" clip-path="url(#p9771ee2d3d)" style="fill: none; stroke: #7b1fa2"/>
    <path d="M 244.456901 128.16 
L 244.456901 125.388 
" clip-path="url(#p9771ee2d3d)" style="fill: none; stroke: #7b1fa2"/>
    <path d="M 246.700666 128.16 
L 246.700666 125.388 
" clip-path="url(#p9771ee2d3d)" style="fill: none; stroke: #7b1fa2"/>
    <path d="M 222.362446 128.16 
L 222.362446 125.388 
" clip-path="url(#p9771ee2d3d)" style="fill: none; stroke: #7b1fa2"/>
    <path d="M 192.292639 128.16 
L 192.292639 125.388 
" clip-path="url(#p9771ee2d3d)" style="fill: none; stroke: #7b1fa2"/>
    <path d="M 213.146296 128.16 
L 213.146296 125.388 
" clip-path="url(#p9771ee2d3d)" style="fill: none; stroke: #7b1fa2"/>
    <path d="M 214.487887 128.16 
L 214.487887 125.388 
" clip-path="url(#p9771ee2d3d)" style="fill: none; stroke: #7b1fa2"/>
    <path d="M 226.853861 128.16 
L 226.853861 125.388 
" clip-path="url(#p9771ee2d3d)" style="fill: none; stroke: #7b1fa2"/>
    <path d="M 256.28138 128.16 
L 256.28138 125.388 
" clip-path="url(#p9771ee2d3d)" style="fill: none; stroke: #7b1fa2"/>
    <path d="M 229.318307 128.16 
L 229.318307 125.388 
" clip-path="url(#p9771ee2d3d)" style="fill: none; stroke: #7b1fa2"/>
    <path d="M 230.039318 128.16 
L 230.039318 125.388 
" clip-path="url(#p9771ee2d3d)" style="fill: none; stroke: #7b1fa2"/>
    <path d="M 226.868444 128.16 
L 226.868444 125.388 
" clip-path="url(#p9771ee2d3d)" style="fill: none; stroke: #7b1fa2"/>
    <path d="M 223.937358 128.16 
L 223.937358 125.388 
" clip-path="url(#p9771ee2d3d)" style="fill: none; stroke: #7b1fa2"/>
    <path d="M 210.754763 128.16 
L 210.754763 125.388 
" clip-path="url(#p9771ee2d3d)" style="fill: none; stroke: #7b1fa2"/>
    <path d="M 231.26847 128.16 
L 231.26847 125.388 
" clip-path="url(#p9771ee2d3d)" style="fill: none; stroke: #7b1fa2"/>
    <path d="M 207.968917 128.16 
L 207.968917 125.388 
" clip-path="url(#p9771ee2d3d)" style="fill: none; stroke: #7b1fa2"/>
    <path d="M 212.32928 128.16 
L 212.32928 125.388 
" clip-path="url(#p9771ee2d3d)" style="fill: none; stroke: #7b1fa2"/>
    <path d="M 195.989694 128.16 
L 195.989694 125.388 
" clip-path="url(#p9771ee2d3d)" style="fill: none; stroke: #7b1fa2"/>
    <path d="M 207.561192 128.16 
L 207.561192 125.388 
" clip-path="url(#p9771ee2d3d)" style="fill: none; stroke: #7b1fa2"/>
    <path d="M 194.741998 128.16 
L 194.741998 125.388 
" clip-path="url(#p9771ee2d3d)" style="fill: none; stroke: #7b1fa2"/>
    <path d="M 193.750344 128.16 
L 193.750344 125.388 
" clip-path="url(#p9771ee2d3d)" style="fill: none; stroke: #7b1fa2"/>
    <path d="M 236.666617 128.16 
L 236.666617 125.388 
" clip-path="url(#p9771ee2d3d)" style="fill: none; stroke: #7b1fa2"/>
    <path d="M 213.772015 128.16 
L 213.772015 125.388 
" clip-path="url(#p9771ee2d3d)" style="fill: none; stroke: #7b1fa2"/>
    <path d="M 245.554369 128.16 
L 245.554369 125.388 
" clip-path="url(#p9771ee2d3d)" style="fill: none; stroke: #7b1fa2"/>
    <path d="M 224.754125 128.16 
L 224.754125 125.388 
" clip-path="url(#p9771ee2d3d)" style="fill: none; stroke: #7b1fa2"/>
    <path d="M 226.562211 128.16 
L 226.562211 125.388 
" clip-path="url(#p9771ee2d3d)" style="fill: none; stroke: #7b1fa2"/>
   </g>
   <g id="patch_7">
    <path d="M 54 128.16 
L 54 17.28 
" style="fill: none; stroke: #000000; stroke-width: 0.8; stroke-linejoin: miter; stroke-linecap: square"/>
   </g>
   <g id="patch_8">
    <path d="M 54 128.16 
L 388.8 128.16 
" style="fill: none; stroke: #000000; stroke-width: 0.8; stroke-linejoin: miter; stroke-linecap: square"/>
   </g>
  </g>
 </g>
 <defs>
  <clipPath id="p9771ee2d3d">
   <rect x="54" y="17.28" width="334.8" height="110.88"/>
  </clipPath>
 </defs>
</svg>
