<?xml version="1.0" encoding="utf-8" standalone="no"?>
<!DOCTYPE svg PUBLIC "-//W3C//DTD SVG 1.1//EN"
  "http://www.w3.org/Graphics/SVG/1.1/DTD/svg11.dtd">
<svg xmlns:xlink="http://www.w3.org/1999/xlink" width="432pt" height="144pt" viewBox="0 0 432 144" xmlns="http://www.w3.org/2000/svg" version="1.1">
 <metadata>
  <rdf:RDF xmlns:dc="http://purl.org/dc/elements/1.1/" xmlns:cc="http://creativecommons.org/ns#" xmlns:rdf="http://www.w3.org/1999/02/22-rdf-syntax-ns#">
   <cc:Work>
    <dc:type rdf:resource="http://purl.org/dc/dcmitype/StillImage"/>
    <dc:date>2025-09-29T11:56:04.832615</dc:date>
    <dc:format>image/svg+xml</dc:format>
    <dc:creator>
     <cc:Agent>
      <dc:title>Matplotlib v3.10.6, https://matplotlib.org/</dc:title>
     </cc:Agent>
    </dc:creator>
   </cc:Work>
  </rdf:RDF>
 </metadata>
 <defs>
  <style type="text/css">*{stroke-linejoin: round; stroke-linecap: butt}</style>
 </defs>
 <g id="figure_1">
  <g id="patch_1">
   <path d="M 0 144 
L 432 144 
L 432 0 
L 0 0 
z
" style="fill: #ffffff"/>
  </g>
  <g id="axes_1">
   <g id="patch_2">
    <path d="M 54 128.16 
L 388.8 128.16 
L 388.8 17.28 
L 54 17.28 
z
" style="fill: #ffffff"/>
   </g>
   <g id="FillBetweenPolyCollection_1">
    <defs>
     <path id="md60d117604" d="M 126.700274 -15.8402 
L 126.700274 -15.84 
L 127.750997 -15.84 
L 128.80172 -15.84 
L 129.852443 -15.84 
L 130.903166 -15.84 
L 131.953889 -15.84 
L 133.004612 -15.84 
L 134.055335 -15.84 
L 135.106058 -15.84 
L 136.156781 -15.84 
L 137.207504 -15.84 
L 138.258227 -15.84 
L 139.30895 -15.84 
L 140.359673 -15.84 
L 141.410396 -15.84 
L 142.461119 -15.84 
L 143.511842 -15.84 
L 144.562565 -15.84 
L 145.613288 -15.84 
L 146.664011 -15.84 
L 147.714734 -15.84 
L 148.765457 -15.84 
L 149.81618 -15.84 
L 150.866903 -15.84 
L 151.917626 -15.84 
L 152.968349 -15.84 
L 154.019072 -15.84 
L 155.069795 -15.84 
L 156.120518 -15.84 
L 157.171241 -15.84 
L 158.221964 -15.84 
L 159.272687 -15.84 
L 160.32341 -15.84 
L 161.374133 -15.84 
L 162.424856 -15.84 
L 163.475579 -15.84 
L 164.526302 -15.84 
L 165.577025 -15.84 
L 166.627748 -15.84 
L 167.678471 -15.84 
L 168.729194 -15.84 
L 169.779917 -15.84 
L 170.83064 -15.84 
L 171.881363 -15.84 
L 172.932086 -15.84 
L 173.982809 -15.84 
L 175.033532 -15.84 
L 176.084255 -15.84 
L 177.134978 -15.84 
L 178.185701 -15.84 
L 179.236424 -15.84 
L 180.287147 -15.84 
L 181.337871 -15.84 
L 182.388594 -15.84 
L 183.439317 -15.84 
L 184.49004 -15.84 
L 185.540763 -15.84 
L 186.591486 -15.84 
L 187.642209 -15.84 
L 188.692932 -15.84 
L 189.743655 -15.84 
L 190.794378 -15.84 
L 191.845101 -15.84 
L 192.895824 -15.84 
L 193.946547 -15.84 
L 194.99727 -15.84 
L 196.047993 -15.84 
L 197.098716 -15.84 
L 198.149439 -15.84 
L 199.200162 -15.84 
L 200.250885 -15.84 
L 201.301608 -15.84 
L 202.352331 -15.84 
L 203.403054 -15.84 
L 204.453777 -15.84 
L 205.5045 -15.84 
L 206.555223 -15.84 
L 207.605946 -15.84 
L 208.656669 -15.84 
L 209.707392 -15.84 
L 210.758115 -15.84 
L 211.808838 -15.84 
L 212.859561 -15.84 
L 213.910284 -15.84 
L 214.961007 -15.84 
L 216.01173 -15.84 
L 217.062453 -15.84 
L 218.113176 -15.84 
L 219.163899 -15.84 
L 220.214622 -15.84 
L 221.265345 -15.84 
L 222.316068 -15.84 
L 223.366791 -15.84 
L 224.417514 -15.84 
L 225.468237 -15.84 
L 226.51896 -15.84 
L 227.569683 -15.84 
L 228.620406 -15.84 
L 229.671129 -15.84 
L 230.721852 -15.84 
L 231.772575 -15.84 
L 232.823298 -15.84 
L 233.874021 -15.84 
L 234.924744 -15.84 
L 235.975467 -15.84 
L 237.026191 -15.84 
L 238.076914 -15.84 
L 239.127637 -15.84 
L 240.17836 -15.84 
L 241.229083 -15.84 
L 242.279806 -15.84 
L 243.330529 -15.84 
L 244.381252 -15.84 
L 245.431975 -15.84 
L 246.482698 -15.84 
L 247.533421 -15.84 
L 248.584144 -15.84 
L 249.634867 -15.84 
L 250.68559 -15.84 
L 251.736313 -15.84 
L 252.787036 -15.84 
L 253.837759 -15.84 
L 254.888482 -15.84 
L 255.939205 -15.84 
L 256.989928 -15.84 
L 258.040651 -15.84 
L 259.091374 -15.84 
L 260.142097 -15.84 
L 261.19282 -15.84 
L 262.243543 -15.84 
L 263.294266 -15.84 
L 264.344989 -15.84 
L 265.395712 -15.84 
L 266.446435 -15.84 
L 267.497158 -15.84 
L 268.547881 -15.84 
L 269.598604 -15.84 
L 270.649327 -15.84 
L 271.70005 -15.84 
L 272.750773 -15.84 
L 273.801496 -15.84 
L 274.852219 -15.84 
L 275.902942 -15.84 
L 276.953665 -15.84 
L 278.004388 -15.84 
L 279.055111 -15.84 
L 280.105834 -15.84 
L 281.156557 -15.84 
L 282.20728 -15.84 
L 283.258003 -15.84 
L 284.308726 -15.84 
L 285.359449 -15.84 
L 286.410172 -15.84 
L 287.460895 -15.84 
L 288.511618 -15.84 
L 289.562341 -15.84 
L 290.613064 -15.84 
L 291.663788 -15.84 
L 292.714511 -15.84 
L 293.765234 -15.84 
L 294.815957 -15.84 
L 295.86668 -15.84 
L 296.917403 -15.84 
L 297.968126 -15.84 
L 299.018849 -15.84 
L 300.069572 -15.84 
L 301.120295 -15.84 
L 302.171018 -15.84 
L 303.221741 -15.84 
L 304.272464 -15.84 
L 305.323187 -15.84 
L 306.37391 -15.84 
L 307.424633 -15.84 
L 308.475356 -15.84 
L 309.526079 -15.84 
L 310.576802 -15.84 
L 311.627525 -15.84 
L 312.678248 -15.84 
L 313.728971 -15.84 
L 314.779694 -15.84 
L 315.830417 -15.84 
L 316.88114 -15.84 
L 317.931863 -15.84 
L 318.982586 -15.84 
L 320.033309 -15.84 
L 321.084032 -15.84 
L 322.134755 -15.84 
L 323.185478 -15.84 
L 324.236201 -15.84 
L 325.286924 -15.84 
L 326.337647 -15.84 
L 327.38837 -15.84 
L 328.439093 -15.84 
L 329.489816 -15.84 
L 330.540539 -15.84 
L 331.591262 -15.84 
L 332.641985 -15.84 
L 333.692708 -15.84 
L 334.743431 -15.84 
L 335.794154 -15.84 
L 335.794154 -15.8402 
L 335.794154 -15.8402 
L 334.743431 -15.840559 
L 333.692708 -15.841369 
L 332.641985 -15.842935 
L 331.591262 -15.845505 
L 330.540539 -15.849038 
L 329.489816 -15.852993 
L 328.439093 -15.856377 
L 327.38837 -15.858171 
L 326.337647 -15.857947 
L 325.286924 -15.856267 
L 324.236201 -15.854539 
L 323.185478 -15.854378 
L 322.134755 -15.856862 
L 321.084032 -15.862082 
L 320.033309 -15.869199 
L 318.982586 -15.876964 
L 317.931863 -15.884412 
L 316.88114 -15.891345 
L 315.830417 -15.8984 
L 314.779694 -15.906891 
L 313.728971 -15.918836 
L 312.678248 -15.937211 
L 311.627525 -15.965907 
L 310.576802 -16.00868 
L 309.526079 -16.067191 
L 308.475356 -16.139289 
L 307.424633 -16.219057 
L 306.37391 -16.299253 
L 305.323187 -16.37524 
L 304.272464 -16.448239 
L 303.221741 -16.525885 
L 302.171018 -16.619655 
L 301.120295 -16.740759 
L 300.069572 -16.896704 
L 299.018849 -17.089613 
L 297.968126 -17.315953 
L 296.917403 -17.567648 
L 295.86668 -17.835574 
L 294.815957 -18.11543 
L 293.765234 -18.412862 
L 292.714511 -18.743121 
L 291.663788 -19.123886 
L 290.613064 -19.56566 
L 289.562341 -20.066786 
L 288.511618 -20.616814 
L 287.460895 -21.205806 
L 286.410172 -21.832956 
L 285.359449 -22.508416 
L 284.308726 -23.247071 
L 283.258003 -24.058933 
L 282.20728 -24.942945 
L 281.156557 -25.887794 
L 280.105834 -26.878022 
L 279.055111 -27.901434 
L 278.004388 -28.95493 
L 276.953665 -30.047561 
L 275.902942 -31.20031 
L 274.852219 -32.443509 
L 273.801496 -33.815634 
L 272.750773 -35.366912 
L 271.70005 -37.162843 
L 270.649327 -39.27159 
L 269.598604 -41.723459 
L 268.547881 -44.460369 
L 267.497158 -47.324169 
L 266.446435 -50.119161 
L 265.395712 -52.718371 
L 264.344989 -55.127578 
L 263.294266 -57.448108 
L 262.243543 -59.772765 
L 261.19282 -62.109806 
L 260.142097 -64.392365 
L 259.091374 -66.543106 
L 258.040651 -68.522744 
L 256.989928 -70.327765 
L 255.939205 -71.962734 
L 254.888482 -73.431151 
L 253.837759 -74.757423 
L 252.787036 -76.012435 
L 251.736313 -77.308312 
L 250.68559 -78.758281 
L 249.634867 -80.432607 
L 248.584144 -82.345574 
L 247.533421 -84.477763 
L 246.482698 -86.804438 
L 245.431975 -89.298887 
L 244.381252 -91.911585 
L 243.330529 -94.558032 
L 242.279806 -97.142344 
L 241.229083 -99.600632 
L 240.17836 -101.916906 
L 239.127637 -104.090829 
L 238.076914 -106.097872 
L 237.026191 -107.899299 
L 235.975467 -109.498969 
L 234.924744 -110.975254 
L 233.874021 -112.42936 
L 232.823298 -113.879694 
L 231.772575 -115.200301 
L 230.721852 -116.175141 
L 229.671129 -116.64 
L 228.620406 -116.600866 
L 227.569683 -116.230128 
L 226.51896 -115.744096 
L 225.468237 -115.265501 
L 224.417514 -114.780246 
L 223.366791 -114.206818 
L 222.316068 -113.499004 
L 221.265345 -112.687387 
L 220.214622 -111.835422 
L 219.163899 -110.964253 
L 218.113176 -110.015553 
L 217.062453 -108.877324 
L 216.01173 -107.447358 
L 214.961007 -105.688647 
L 213.910284 -103.640589 
L 212.859561 -101.380754 
L 211.808838 -98.969837 
L 210.758115 -96.425638 
L 209.707392 -93.7406 
L 208.656669 -90.912723 
L 207.605946 -87.956526 
L 206.555223 -84.903333 
L 205.5045 -81.830851 
L 204.453777 -78.935501 
L 203.403054 -76.599219 
L 202.352331 -75.359739 
L 201.301608 -75.707168 
L 200.250885 -77.722905 
L 199.200162 -80.742679 
L 198.149439 -83.348712 
L 197.098716 -83.878592 
L 196.047993 -81.247769 
L 194.99727 -75.539343 
L 193.946547 -67.920371 
L 192.895824 -59.967375 
L 191.845101 -52.921843 
L 190.794378 -47.344985 
L 189.743655 -43.234092 
L 188.692932 -40.337651 
L 187.642209 -38.393249 
L 186.591486 -37.194697 
L 185.540763 -36.554169 
L 184.49004 -36.264878 
L 183.439317 -36.121227 
L 182.388594 -35.982015 
L 181.337871 -35.815054 
L 180.287147 -35.666176 
L 179.236424 -35.55692 
L 178.185701 -35.391926 
L 177.134978 -34.970017 
L 176.084255 -34.10541 
L 175.033532 -32.754575 
L 173.982809 -31.035476 
L 172.932086 -29.136229 
L 171.881363 -27.213395 
L 170.83064 -25.363953 
L 169.779917 -23.658423 
L 168.729194 -22.168128 
L 167.678471 -20.95291 
L 166.627748 -20.032676 
L 165.577025 -19.378507 
L 164.526302 -18.930229 
L 163.475579 -18.622114 
L 162.424856 -18.399358 
L 161.374133 -18.222503 
L 160.32341 -18.065721 
L 159.272687 -17.913442 
L 158.221964 -17.756247 
L 157.171241 -17.587116 
L 156.120518 -17.400741 
L 155.069795 -17.196769 
L 154.019072 -16.983441 
L 152.968349 -16.776722 
L 151.917626 -16.593959 
L 150.866903 -16.446273 
L 149.81618 -16.334825 
L 148.765457 -16.252578 
L 147.714734 -16.189116 
L 146.664011 -16.135116 
L 145.613288 -16.084755 
L 144.562565 -16.036159 
L 143.511842 -15.990547 
L 142.461119 -15.950582 
L 141.410396 -15.918585 
L 140.359673 -15.895394 
L 139.30895 -15.880267 
L 138.258227 -15.871436 
L 137.207504 -15.866704 
L 136.156781 -15.863887 
L 135.106058 -15.861223 
L 134.055335 -15.857774 
L 133.004612 -15.853557 
L 131.953889 -15.849239 
L 130.903166 -15.845568 
L 129.852443 -15.842952 
L 128.80172 -15.841373 
L 127.750997 -15.84056 
L 126.700274 -15.8402 
z
" style="stroke: #f57c00; stroke-width: 2"/>
    </defs>
    <g clip-path="url(#p80c229ab57)">
     <use xlink:href="#md60d117604" x="0" y="144" style="fill: #f57c00; fill-opacity: 0.25; stroke: #f57c00; stroke-width: 2"/>
    </g>
   </g>
   <g id="patch_3">
    <path d="M 54 128.16 
L 170.0082 128.16 
L 170.0082 17.28 
L 54 17.28 
z
" clip-path="url(#p80c229ab57)" style="fill: #616161; opacity: 0.2; stroke: #616161; stroke-linejoin: miter"/>
   </g>
   <g id="patch_4">
    <path d="M 54 128.16 
L 154.44 128.16 
L 154.44 17.28 
L 54 17.28 
z
" clip-path="url(#p80c229ab57)" style="fill: #616161; opacity: 0.1; stroke: #616161; stroke-linejoin: miter"/>
   </g>
   <g id="patch_5">
    <path d="M 272.7918 128.16 
L 388.8 128.16 
L 388.8 17.28 
L 272.7918 17.28 
z
" clip-path="url(#p80c229ab57)" style="fill: #616161; opacity: 0.2; stroke: #616161; stroke-linejoin: miter"/>
   </g>
   <g id="patch_6">
    <path d="M 288.36 128.16 
L 388.8 128.16 
L 388.8 17.28 
L 288.36 17.28 
z
" clip-path="url(#p80c229ab57)" style="fill: #616161; opacity: 0.1; stroke: #616161; stroke-linejoin: miter"/>
   </g>
   <g id="matplotlib.axis_1">
    <g id="xtick_1">
     <g id="line2d_1">
      <defs>
       <path id="mf1f39c281d" d="M 0 0 
L 0 3.5 
" style="stroke: #000000; stroke-width: 0.8"/>
      </defs>
      <g>
       <use xlink:href="#mf1f39c281d" x="54" y="128.16" style="stroke: #000000; stroke-width: 0.8"/>
      </g>
     </g>
     <g id="text_1">
      <!-- −1.00 -->
      <g transform="translate(38.677344 142.758438) scale(0.1 -0.1)">
       <defs>
        <path id="DejaVuSans-2212" d="M 678 2272 
L 4684 2272 
L 4684 1741 
L 678 1741 
L 678 2272 
z
" transform="scale(0.015625)"/>
        <path id="DejaVuSans-31" d="M 794 531 
L 1825 531 
L 1825 4091 
L 703 3866 
L 703 4441 
L 1819 4666 
L 2450 4666 
L 2450 531 
L 3481 531 
L 3481 0 
L 794 0 
L 794 531 
z
" transform="scale(0.015625)"/>
        <path id="DejaVuSans-2e" d="M 684 794 
L 1344 794 
L 1344 0 
L 684 0 
L 684 794 
z
" transform="scale(0.015625)"/>
        <path id="DejaVuSans-30" d="M 2034 4250 
Q 1547 4250 1301 3770 
Q 1056 3291 1056 2328 
Q 1056 1369 1301 889 
Q 1547 409 2034 409 
Q 2525 409 2770 889 
Q 3016 1369 3016 2328 
Q 3016 3291 2770 3770 
Q 2525 4250 2034 4250 
z
M 2034 4750 
Q 2819 4750 3233 4129 
Q 3647 3509 3647 2328 
Q 3647 1150 3233 529 
Q 2819 -91 2034 -91 
Q 1250 -91 836 529 
Q 422 1150 422 2328 
Q 422 3509 836 4129 
Q 1250 4750 2034 4750 
z
" transform="scale(0.015625)"/>
       </defs>
       <use xlink:href="#DejaVuSans-2212"/>
       <use xlink:href="#DejaVuSans-31" transform="translate(83.789062 0)"/>
       <use xlink:href="#DejaVuSans-2e" transform="translate(147.412109 0)"/>
       <use xlink:href="#DejaVuSans-30" transform="translate(179.199219 0)"/>
       <use xlink:href="#DejaVuSans-30" transform="translate(242.822266 0)"/>
      </g>
     </g>
    </g>
    <g id="xtick_2">
     <g id="line2d_2">
      <g>
       <use xlink:href="#mf1f39c281d" x="95.85" y="128.16" style="stroke: #000000; stroke-width: 0.8"/>
      </g>
     </g>
     <g id="text_2">
      <!-- −0.75 -->
      <g transform="translate(80.527344 142.758438) scale(0.1 -0.1)">
       <defs>
        <path id="DejaVuSans-37" d="M 525 4666 
L 3525 4666 
L 3525 4397 
L 1831 0 
L 1172 0 
L 2766 4134 
L 525 4134 
L 525 4666 
z
" transform="scale(0.015625)"/>
        <path id="DejaVuSans-35" d="M 691 4666 
L 3169 4666 
L 3169 4134 
L 1269 4134 
L 1269 2991 
Q 1406 3038 1543 3061 
Q 1681 3084 1819 3084 
Q 2600 3084 3056 2656 
Q 3513 2228 3513 1497 
Q 3513 744 3044 326 
Q 2575 -91 1722 -91 
Q 1428 -91 1123 -41 
Q 819 9 494 109 
L 494 744 
Q 775 591 1075 516 
Q 1375 441 1709 441 
Q 2250 441 2565 725 
Q 2881 1009 2881 1497 
Q 2881 1984 2565 2268 
Q 2250 2553 1709 2553 
Q 1456 2553 1204 2497 
Q 953 2441 691 2322 
L 691 4666 
z
" transform="scale(0.015625)"/>
       </defs>
       <use xlink:href="#DejaVuSans-2212"/>
       <use xlink:href="#DejaVuSans-30" transform="translate(83.789062 0)"/>
       <use xlink:href="#DejaVuSans-2e" transform="translate(147.412109 0)"/>
       <use xlink:href="#DejaVuSans-37" transform="translate(179.199219 0)"/>
       <use xlink:href="#DejaVuSans-35" transform="translate(242.822266 0)"/>
      </g>
     </g>
    </g>
    <g id="xtick_3">
     <g id="line2d_3">
      <g>
       <use xlink:href="#mf1f39c281d" x="137.7" y="128.16" style="stroke: #000000; stroke-width: 0.8"/>
      </g>
     </g>
     <g id="text_3">
      <!-- −0.50 -->
      <g transform="translate(122.377344 142.758438) scale(0.1 -0.1)">
       <use xlink:href="#DejaVuSans-2212"/>
       <use xlink:href="#DejaVuSans-30" transform="translate(83.789062 0)"/>
       <use xlink:href="#DejaVuSans-2e" transform="translate(147.412109 0)"/>
       <use xlink:href="#DejaVuSans-35" transform="translate(179.199219 0)"/>
       <use xlink:href="#DejaVuSans-30" transform="translate(242.822266 0)"/>
      </g>
     </g>
    </g>
    <g id="xtick_4">
     <g id="line2d_4">
      <g>
       <use xlink:href="#mf1f39c281d" x="179.55" y="128.16" style="stroke: #000000; stroke-width: 0.8"/>
      </g>
     </g>
     <g id="text_4">
      <!-- −0.25 -->
      <g transform="translate(164.227344 142.758438) scale(0.1 -0.1)">
       <defs>
        <path id="DejaVuSans-32" d="M 1228 531 
L 3431 531 
L 3431 0 
L 469 0 
L 469 531 
Q 828 903 1448 1529 
Q 2069 2156 2228 2338 
Q 2531 2678 2651 2914 
Q 2772 3150 2772 3378 
Q 2772 3750 2511 3984 
Q 2250 4219 1831 4219 
Q 1534 4219 1204 4116 
Q 875 4013 500 3803 
L 500 4441 
Q 881 4594 1212 4672 
Q 1544 4750 1819 4750 
Q 2544 4750 2975 4387 
Q 3406 4025 3406 3419 
Q 3406 3131 3298 2873 
Q 3191 2616 2906 2266 
Q 2828 2175 2409 1742 
Q 1991 1309 1228 531 
z
" transform="scale(0.015625)"/>
       </defs>
       <use xlink:href="#DejaVuSans-2212"/>
       <use xlink:href="#DejaVuSans-30" transform="translate(83.789062 0)"/>
       <use xlink:href="#DejaVuSans-2e" transform="translate(147.412109 0)"/>
       <use xlink:href="#DejaVuSans-32" transform="translate(179.199219 0)"/>
       <use xlink:href="#DejaVuSans-35" transform="translate(242.822266 0)"/>
      </g>
     </g>
    </g>
    <g id="xtick_5">
     <g id="line2d_5">
      <g>
       <use xlink:href="#mf1f39c281d" x="221.4" y="128.16" style="stroke: #000000; stroke-width: 0.8"/>
      </g>
     </g>
     <g id="text_5">
      <!-- 0.00 -->
      <g transform="translate(210.267188 142.758438) scale(0.1 -0.1)">
       <use xlink:href="#DejaVuSans-30"/>
       <use xlink:href="#DejaVuSans-2e" transform="translate(63.623047 0)"/>
       <use xlink:href="#DejaVuSans-30" transform="translate(95.410156 0)"/>
       <use xlink:href="#DejaVuSans-30" transform="translate(159.033203 0)"/>
      </g>
     </g>
    </g>
    <g id="xtick_6">
     <g id="line2d_6">
      <g>
       <use xlink:href="#mf1f39c281d" x="263.25" y="128.16" style="stroke: #000000; stroke-width: 0.8"/>
      </g>
     </g>
     <g id="text_6">
      <!-- 0.25 -->
      <g transform="translate(252.117188 142.758438) scale(0.1 -0.1)">
       <use xlink:href="#DejaVuSans-30"/>
       <use xlink:href="#DejaVuSans-2e" transform="translate(63.623047 0)"/>
       <use xlink:href="#DejaVuSans-32" transform="translate(95.410156 0)"/>
       <use xlink:href="#DejaVuSans-35" transform="translate(159.033203 0)"/>
      </g>
     </g>
    </g>
    <g id="xtick_7">
     <g id="line2d_7">
      <g>
       <use xlink:href="#mf1f39c281d" x="305.1" y="128.16" style="stroke: #000000; stroke-width: 0.8"/>
      </g>
     </g>
     <g id="text_7">
      <!-- 0.50 -->
      <g transform="translate(293.967188 142.758438) scale(0.1 -0.1)">
       <use xlink:href="#DejaVuSans-30"/>
       <use xlink:href="#DejaVuSans-2e" transform="translate(63.623047 0)"/>
       <use xlink:href="#DejaVuSans-35" transform="translate(95.410156 0)"/>
       <use xlink:href="#DejaVuSans-30" transform="translate(159.033203 0)"/>
      </g>
     </g>
    </g>
    <g id="xtick_8">
     <g id="line2d_8">
      <g>
       <use xlink:href="#mf1f39c281d" x="346.95" y="128.16" style="stroke: #000000; stroke-width: 0.8"/>
      </g>
     </g>
     <g id="text_8">
      <!-- 0.75 -->
      <g transform="translate(335.817188 142.758438) scale(0.1 -0.1)">
       <use xlink:href="#DejaVuSans-30"/>
       <use xlink:href="#DejaVuSans-2e" transform="translate(63.623047 0)"/>
       <use xlink:href="#DejaVuSans-37" transform="translate(95.410156 0)"/>
       <use xlink:href="#DejaVuSans-35" transform="translate(159.033203 0)"/>
      </g>
     </g>
    </g>
    <g id="xtick_9">
     <g id="line2d_9">
      <g>
       <use xlink:href="#mf1f39c281d" x="388.8" y="128.16" style="stroke: #000000; stroke-width: 0.8"/>
      </g>
     </g>
     <g id="text_9">
      <!-- 1.00 -->
      <g transform="translate(377.667188 142.758438) scale(0.1 -0.1)">
       <use xlink:href="#DejaVuSans-31"/>
       <use xlink:href="#DejaVuSans-2e" transform="translate(63.623047 0)"/>
       <use xlink:href="#DejaVuSans-30" transform="translate(95.410156 0)"/>
       <use xlink:href="#DejaVuSans-30" transform="translate(159.033203 0)"/>
      </g>
     </g>
    </g>
    <g id="text_10">
     <!-- CD4 -->
     <g transform="translate(210.877344 156.436563) scale(0.1 -0.1)">
      <defs>
       <path id="DejaVuSans-43" d="M 4122 4306 
L 4122 3641 
Q 3803 3938 3442 4084 
Q 3081 4231 2675 4231 
Q 1875 4231 1450 3742 
Q 1025 3253 1025 2328 
Q 1025 1406 1450 917 
Q 1875 428 2675 428 
Q 3081 428 3442 575 
Q 3803 722 4122 1019 
L 4122 359 
Q 3791 134 3420 21 
Q 3050 -91 2638 -91 
Q 1578 -91 968 557 
Q 359 1206 359 2328 
Q 359 3453 968 4101 
Q 1578 4750 2638 4750 
Q 3056 4750 3426 4639 
Q 3797 4528 4122 4306 
z
" transform="scale(0.015625)"/>
       <path id="DejaVuSans-44" d="M 1259 4147 
L 1259 519 
L 2022 519 
Q 2988 519 3436 956 
Q 3884 1394 3884 2338 
Q 3884 3275 3436 3711 
Q 2988 4147 2022 4147 
L 1259 4147 
z
M 628 4666 
L 1925 4666 
Q 3281 4666 3915 4102 
Q 4550 3538 4550 2338 
Q 4550 1131 3912 565 
Q 3275 0 1925 0 
L 628 0 
L 628 4666 
z
" transform="scale(0.015625)"/>
       <path id="DejaVuSans-34" d="M 2419 4116 
L 825 1625 
L 2419 1625 
L 2419 4116 
z
M 2253 4666 
L 3047 4666 
L 3047 1625 
L 3713 1625 
L 3713 1100 
L 3047 1100 
L 3047 0 
L 2419 0 
L 2419 1100 
L 313 1100 
L 313 1709 
L 2253 4666 
z
" transform="scale(0.015625)"/>
      </defs>
      <use xlink:href="#DejaVuSans-43"/>
      <use xlink:href="#DejaVuSans-44" transform="translate(69.824219 0)"/>
      <use xlink:href="#DejaVuSans-34" transform="translate(146.826172 0)"/>
     </g>
    </g>
   </g>
   <g id="matplotlib.axis_2">
    <g id="text_11">
     <!-- Density -->
     <g transform="translate(47.920312 91.728594) rotate(-90) scale(0.1 -0.1)">
      <defs>
       <path id="DejaVuSans-65" d="M 3597 1894 
L 3597 1613 
L 953 1613 
Q 991 1019 1311 708 
Q 1631 397 2203 397 
Q 2534 397 2845 478 
Q 3156 559 3463 722 
L 3463 178 
Q 3153 47 2828 -22 
Q 2503 -91 2169 -91 
Q 1331 -91 842 396 
Q 353 884 353 1716 
Q 353 2575 817 3079 
Q 1281 3584 2069 3584 
Q 2775 3584 3186 3129 
Q 3597 2675 3597 1894 
z
M 3022 2063 
Q 3016 2534 2758 2815 
Q 2500 3097 2075 3097 
Q 1594 3097 1305 2825 
Q 1016 2553 972 2059 
L 3022 2063 
z
" transform="scale(0.015625)"/>
       <path id="DejaVuSans-6e" d="M 3513 2113 
L 3513 0 
L 2938 0 
L 2938 2094 
Q 2938 2591 2744 2837 
Q 2550 3084 2163 3084 
Q 1697 3084 1428 2787 
Q 1159 2491 1159 1978 
L 1159 0 
L 581 0 
L 581 3500 
L 1159 3500 
L 1159 2956 
Q 1366 3272 1645 3428 
Q 1925 3584 2291 3584 
Q 2894 3584 3203 3211 
Q 3513 2838 3513 2113 
z
" transform="scale(0.015625)"/>
       <path id="DejaVuSans-73" d="M 2834 3397 
L 2834 2853 
Q 2591 2978 2328 3040 
Q 2066 3103 1784 3103 
Q 1356 3103 1142 2972 
Q 928 2841 928 2578 
Q 928 2378 1081 2264 
Q 1234 2150 1697 2047 
L 1894 2003 
Q 2506 1872 2764 1633 
Q 3022 1394 3022 966 
Q 3022 478 2636 193 
Q 2250 -91 1575 -91 
Q 1294 -91 989 -36 
Q 684 19 347 128 
L 347 722 
Q 666 556 975 473 
Q 1284 391 1588 391 
Q 1994 391 2212 530 
Q 2431 669 2431 922 
Q 2431 1156 2273 1281 
Q 2116 1406 1581 1522 
L 1381 1569 
Q 847 1681 609 1914 
Q 372 2147 372 2553 
Q 372 3047 722 3315 
Q 1072 3584 1716 3584 
Q 2034 3584 2315 3537 
Q 2597 3491 2834 3397 
z
" transform="scale(0.015625)"/>
       <path id="DejaVuSans-69" d="M 603 3500 
L 1178 3500 
L 1178 0 
L 603 0 
L 603 3500 
z
M 603 4863 
L 1178 4863 
L 1178 4134 
L 603 4134 
L 603 4863 
z
" transform="scale(0.015625)"/>
       <path id="DejaVuSans-74" d="M 1172 4494 
L 1172 3500 
L 2356 3500 
L 2356 3053 
L 1172 3053 
L 1172 1153 
Q 1172 725 1289 603 
Q 1406 481 1766 481 
L 2356 481 
L 2356 0 
L 1766 0 
Q 1100 0 847 248 
Q 594 497 594 1153 
L 594 3053 
L 172 3053 
L 172 3500 
L 594 3500 
L 594 4494 
L 1172 4494 
z
" transform="scale(0.015625)"/>
       <path id="DejaVuSans-79" d="M 2059 -325 
Q 1816 -950 1584 -1140 
Q 1353 -1331 966 -1331 
L 506 -1331 
L 506 -850 
L 844 -850 
Q 1081 -850 1212 -737 
Q 1344 -625 1503 -206 
L 1606 56 
L 191 3500 
L 800 3500 
L 1894 763 
L 2988 3500 
L 3597 3500 
L 2059 -325 
z
" transform="scale(0.015625)"/>
      </defs>
      <use xlink:href="#DejaVuSans-44"/>
      <use xlink:href="#DejaVuSans-65" transform="translate(77.001953 0)"/>
      <use xlink:href="#DejaVuSans-6e" transform="translate(138.525391 0)"/>
      <use xlink:href="#DejaVuSans-73" transform="translate(201.904297 0)"/>
      <use xlink:href="#DejaVuSans-69" transform="translate(254.003906 0)"/>
      <use xlink:href="#DejaVuSans-74" transform="translate(281.787109 0)"/>
      <use xlink:href="#DejaVuSans-79" transform="translate(320.996094 0)"/>
     </g>
    </g>
   </g>
   <g id="LineCollection_1">
    <path d="M 211.731791 128.16 
L 211.731791 125.388 
" clip-path="url(#p80c229ab57)" style="fill: none; stroke: #f57c00"/>
    <path d="M 217.783536 128.16 
L 217.783536 125.388 
" clip-path="url(#p80c229ab57)" style="fill: none; stroke: #f57c00"/>
    <path d="M 221.152097 128.16 
L 221.152097 125.388 
" clip-path="url(#p80c229ab57)" style="fill: none; stroke: #f57c00"/>
    <path d="M 206.063062 128.16 
L 206.063062 125.388 
" clip-path="url(#p80c229ab57)" style="fill: none; stroke: #f57c00"/>
    <path d="M 211.739967 128.16 
L 211.739967 125.388 
" clip-path="url(#p80c229ab57)" style="fill: none; stroke: #f57c00"/>
    <path d="M 232.949353 128.16 
L 232.949353 125.388 
" clip-path="url(#p80c229ab57)" style="fill: none; stroke: #f57c00"/>
    <path d="M 270.036894 128.16 
L 270.036894 125.388 
" clip-path="url(#p80c229ab57)" style="fill: none; stroke: #f57c00"/>
    <path d="M 223.004077 128.16 
L 223.004077 125.388 
" clip-path="url(#p80c229ab57)" style="fill: none; stroke: #f57c00"/>
    <path d="M 225.545047 128.16 
L 225.545047 125.388 
" clip-path="url(#p80c229ab57)" style="fill: none; stroke: #f57c00"/>
    <path d="M 206.225564 128.16 
L 206.225564 125.388 
" clip-path="url(#p80c229ab57)" style="fill: none; stroke: #f57c00"/>
    <path d="M 243.259192 128.16 
L 243.259192 125.388 
" clip-path="url(#p80c229ab57)" style="fill: none; stroke: #f57c00"/>
    <path d="M 238.067817 128.16 
L 238.067817 125.388 
" clip-path="url(#p80c229ab57)" style="fill: none; stroke: #f57c00"/>
    <path d="M 206.311202 128.16 
L 206.311202 125.388 
" clip-path="url(#p80c229ab57)" style="fill: none; stroke: #f57c00"/>
    <path d="M 223.19365 128.16 
L 223.19365 125.388 
" clip-path="url(#p80c229ab57)" style="fill: none; stroke: #f57c00"/>
    <path d="M 200.605331 128.16 
L 200.605331 125.388 
" clip-path="url(#p80c229ab57)" style="fill: none; stroke: #f57c00"/>
    <path d="M 228.517211 128.16 
L 228.517211 125.388 
" clip-path="url(#p80c229ab57)" style="fill: none; stroke: #f57c00"/>
    <path d="M 205.976811 128.16 
L 205.976811 125.388 
" clip-path="url(#p80c229ab57)" style="fill: none; stroke: #f57c00"/>
    <path d="M 225.584274 128.16 
L 225.584274 125.388 
" clip-path="url(#p80c229ab57)" style="fill: none; stroke: #f57c00"/>
    <path d="M 214.721207 128.16 
L 214.721207 125.388 
" clip-path="url(#p80c229ab57)" style="fill: none; stroke: #f57c00"/>
    <path d="M 220.262564 128.16 
L 220.262564 125.388 
" clip-path="url(#p80c229ab57)" style="fill: none; stroke: #f57c00"/>
    <path d="M 199.774128 128.16 
L 199.774128 125.388 
" clip-path="url(#p80c229ab57)" style="fill: none; stroke: #f57c00"/>
    <path d="M 221.210427 128.16 
L 221.210427 125.388 
" clip-path="url(#p80c229ab57)" style="fill: none; stroke: #f57c00"/>
    <path d="M 218.57816 128.16 
L 218.57816 125.388 
" clip-path="url(#p80c229ab57)" style="fill: none; stroke: #f57c00"/>
    <path d="M 243.146901 128.16 
L 243.146901 125.388 
" clip-path="url(#p80c229ab57)" style="fill: none; stroke: #f57c00"/>
    <path d="M 254.772312 128.16 
L 254.772312 125.388 
" clip-path="url(#p80c229ab57)" style="fill: none; stroke: #f57c00"/>
    <path d="M 256.051113 128.16 
L 256.051113 125.388 
" clip-path="url(#p80c229ab57)" style="fill: none; stroke: #f57c00"/>
    <path d="M 203.124923 128.16 
L 203.124923 125.388 
" clip-path="url(#p80c229ab57)" style="fill: none; stroke: #f57c00"/>
    <path d="M 212.439579 128.16 
L 212.439579 125.388 
" clip-path="url(#p80c229ab57)" style="fill: none; stroke: #f57c00"/>
    <path d="M 204.528028 128.16 
L 204.528028 125.388 
" clip-path="url(#p80c229ab57)" style="fill: none; stroke: #f57c00"/>
    <path d="M 214.356644 128.16 
L 214.356644 125.388 
" clip-path="url(#p80c229ab57)" style="fill: none; stroke: #f57c00"/>
    <path d="M 209.281929 128.16 
L 209.281929 125.388 
" clip-path="url(#p80c229ab57)" style="fill: none; stroke: #f57c00"/>
    <path d="M 228.12254 128.16 
L 228.12254 125.388 
" clip-path="url(#p80c229ab57)" style="fill: none; stroke: #f57c00"/>
    <path d="M 209.267346 128.16 
L 209.267346 125.388 
" clip-path="url(#p80c229ab57)" style="fill: none; stroke: #f57c00"/>
    <path d="M 251.5619 128.16 
L 251.5619 125.388 
" clip-path="url(#p80c229ab57)" style="fill: none; stroke: #f57c00"/>
    <path d="M 257.391219 128.16 
L 257.391219 125.388 
" clip-path="url(#p80c229ab57)" style="fill: none; stroke: #f57c00"/>
    <path d="M 227.203842 128.16 
L 227.203842 125.388 
" clip-path="url(#p80c229ab57)" style="fill: none; stroke: #f57c00"/>
    <path d="M 231.626148 128.16 
L 231.626148 125.388 
" clip-path="url(#p80c229ab57)" style="fill: none; stroke: #f57c00"/>
    <path d="M 293.201421 128.16 
L 293.201421 125.388 
" clip-path="url(#p80c229ab57)" style="fill: none; stroke: #f57c00"/>
    <path d="M 208.888201 128.16 
L 208.888201 125.388 
" clip-path="url(#p80c229ab57)" style="fill: none; stroke: #f57c00"/>
    <path d="M 208.990278 128.16 
L 208.990278 125.388 
" clip-path="url(#p80c229ab57)" style="fill: none; stroke: #f57c00"/>
    <path d="M 200.809486 128.16 
L 200.809486 125.388 
" clip-path="url(#p80c229ab57)" style="fill: none; stroke: #f57c00"/>
    <path d="M 232.638332 128.16 
L 232.638332 125.388 
" clip-path="url(#p80c229ab57)" style="fill: none; stroke: #f57c00"/>
    <path d="M 250.138104 128.16 
L 250.138104 125.388 
" clip-path="url(#p80c229ab57)" style="fill: none; stroke: #f57c00"/>
    <path d="M 216.427362 128.16 
L 216.427362 125.388 
" clip-path="url(#p80c229ab57)" style="fill: none; stroke: #f57c00"/>
    <path d="M 218.396002 128.16 
L 218.396002 125.388 
" clip-path="url(#p80c229ab57)" style="fill: none; stroke: #f57c00"/>
    <path d="M 206.970358 128.16 
L 206.970358 125.388 
" clip-path="url(#p80c229ab57)" style="fill: none; stroke: #f57c00"/>
    <path d="M 215.566993 128.16 
L 215.566993 125.388 
" clip-path="url(#p80c229ab57)" style="fill: none; stroke: #f57c00"/>
    <path d="M 242.150921 128.16 
L 242.150921 125.388 
" clip-path="url(#p80c229ab57)" style="fill: none; stroke: #f57c00"/>
    <path d="M 243.682085 128.16 
L 243.682085 125.388 
" clip-path="url(#p80c229ab57)" style="fill: none; stroke: #f57c00"/>
    <path d="M 218.323089 128.16 
L 218.323089 125.388 
" clip-path="url(#p80c229ab57)" style="fill: none; stroke: #f57c00"/>
    <path d="M 225.921368 128.16 
L 225.921368 125.388 
" clip-path="url(#p80c229ab57)" style="fill: none; stroke: #f57c00"/>
    <path d="M 253.508646 128.16 
L 253.508646 125.388 
" clip-path="url(#p80c229ab57)" style="fill: none; stroke: #f57c00"/>
    <path d="M 247.371462 128.16 
L 247.371462 125.388 
" clip-path="url(#p80c229ab57)" style="fill: none; stroke: #f57c00"/>
    <path d="M 227.963276 128.16 
L 227.963276 125.388 
" clip-path="url(#p80c229ab57)" style="fill: none; stroke: #f57c00"/>
    <path d="M 220.821872 128.16 
L 220.821872 125.388 
" clip-path="url(#p80c229ab57)" style="fill: none; stroke: #f57c00"/>
    <path d="M 227.130929 128.16 
L 227.130929 125.388 
" clip-path="url(#p80c229ab57)" style="fill: none; stroke: #f57c00"/>
    <path d="M 194.85982 128.16 
L 194.85982 125.388 
" clip-path="url(#p80c229ab57)" style="fill: none; stroke: #f57c00"/>
    <path d="M 221.502095 128.16 
L 221.502095 125.388 
" clip-path="url(#p80c229ab57)" style="fill: none; stroke: #f57c00"/>
    <path d="M 230.397413 128.16 
L 230.397413 125.388 
" clip-path="url(#p80c229ab57)" style="fill: none; stroke: #f57c00"/>
    <path d="M 205.636299 128.16 
L 205.636299 125.388 
" clip-path="url(#p80c229ab57)" style="fill: none; stroke: #f57c00"/>
    <path d="M 207.159552 128.16 
L 207.159552 125.388 
" clip-path="url(#p80c229ab57)" style="fill: none; stroke: #f57c00"/>
    <path d="M 268.425092 128.16 
L 268.425092 125.388 
" clip-path="url(#p80c229ab57)" style="fill: none; stroke: #f57c00"/>
    <path d="M 206.16127 128.16 
L 206.16127 125.388 
" clip-path="url(#p80c229ab57)" style="fill: none; stroke: #f57c00"/>
    <path d="M 236.215837 128.16 
L 236.215837 125.388 
" clip-path="url(#p80c229ab57)" style="fill: none; stroke: #f57c00"/>
    <path d="M 220.597962 128.16 
L 220.597962 125.388 
" clip-path="url(#p80c229ab57)" style="fill: none; stroke: #f57c00"/>
    <path d="M 220.175069 128.16 
L 220.175069 125.388 
" clip-path="url(#p80c229ab57)" style="fill: none; stroke: #f57c00"/>
    <path d="M 225.672677 128.16 
L 225.672677 125.388 
" clip-path="url(#p80c229ab57)" style="fill: none; stroke: #f57c00"/>
    <path d="M 229.099569 128.16 
L 229.099569 125.388 
" clip-path="url(#p80c229ab57)" style="fill: none; stroke: #f57c00"/>
    <path d="M 203.069777 128.16 
L 203.069777 125.388 
" clip-path="url(#p80c229ab57)" style="fill: none; stroke: #f57c00"/>
    <path d="M 252.825323 128.16 
L 252.825323 125.388 
" clip-path="url(#p80c229ab57)" style="fill: none; stroke: #f57c00"/>
    <path d="M 225.74559 128.16 
L 225.74559 125.388 
" clip-path="url(#p80c229ab57)" style="fill: none; stroke: #f57c00"/>
    <path d="M 268.575821 128.16 
L 268.575821 125.388 
" clip-path="url(#p80c229ab57)" style="fill: none; stroke: #f57c00"/>
    <path d="M 255.880799 128.16 
L 255.880799 125.388 
" clip-path="url(#p80c229ab57)" style="fill: none; stroke: #f57c00"/>
    <path d="M 223.54363 128.16 
L 223.54363 125.388 
" clip-path="url(#p80c229ab57)" style="fill: none; stroke: #f57c00"/>
    <path d="M 265.337123 128.16 
L 265.337123 125.388 
" clip-path="url(#p80c229ab57)" style="fill: none; stroke: #f57c00"/>
    <path d="M 224.718824 128.16 
L 224.718824 125.388 
" clip-path="url(#p80c229ab57)" style="fill: none; stroke: #f57c00"/>
    <path d="M 215.537828 128.16 
L 215.537828 125.388 
" clip-path="url(#p80c229ab57)" style="fill: none; stroke: #f57c00"/>
    <path d="M 224.739396 128.16 
L 224.739396 125.388 
" clip-path="url(#p80c229ab57)" style="fill: none; stroke: #f57c00"/>
    <path d="M 236.768783 128.16 
L 236.768783 125.388 
" clip-path="url(#p80c229ab57)" style="fill: none; stroke: #f57c00"/>
    <path d="M 175.45049 128.16 
L 175.45049 125.388 
" clip-path="url(#p80c229ab57)" style="fill: none; stroke: #f57c00"/>
    <path d="M 231.432771 128.16 
L 231.432771 125.388 
" clip-path="url(#p80c229ab57)" style="fill: none; stroke: #f57c00"/>
    <path d="M 269.930615 128.16 
L 269.930615 125.388 
" clip-path="url(#p80c229ab57)" style="fill: none; stroke: #f57c00"/>
    <path d="M 224.229008 128.16 
L 224.229008 125.388 
" clip-path="url(#p80c229ab57)" style="fill: none; stroke: #f57c00"/>
    <path d="M 218.381419 128.16 
L 218.381419 125.388 
" clip-path="url(#p80c229ab57)" style="fill: none; stroke: #f57c00"/>
    <path d="M 224.578989 128.16 
L 224.578989 125.388 
" clip-path="url(#p80c229ab57)" style="fill: none; stroke: #f57c00"/>
    <path d="M 215.362838 128.16 
L 215.362838 125.388 
" clip-path="url(#p80c229ab57)" style="fill: none; stroke: #f57c00"/>
    <path d="M 201.778369 128.16 
L 201.778369 125.388 
" clip-path="url(#p80c229ab57)" style="fill: none; stroke: #f57c00"/>
    <path d="M 262.227574 128.16 
L 262.227574 125.388 
" clip-path="url(#p80c229ab57)" style="fill: none; stroke: #f57c00"/>
    <path d="M 233.00256 128.16 
L 233.00256 125.388 
" clip-path="url(#p80c229ab57)" style="fill: none; stroke: #f57c00"/>
    <path d="M 221.604191 128.16 
L 221.604191 125.388 
" clip-path="url(#p80c229ab57)" style="fill: none; stroke: #f57c00"/>
    <path d="M 226.839279 128.16 
L 226.839279 125.388 
" clip-path="url(#p80c229ab57)" style="fill: none; stroke: #f57c00"/>
    <path d="M 230.820306 128.16 
L 230.820306 125.388 
" clip-path="url(#p80c229ab57)" style="fill: none; stroke: #f57c00"/>
    <path d="M 215.605691 128.16 
L 215.605691 125.388 
" clip-path="url(#p80c229ab57)" style="fill: none; stroke: #f57c00"/>
    <path d="M 211.469306 128.16 
L 211.469306 125.388 
" clip-path="url(#p80c229ab57)" style="fill: none; stroke: #f57c00"/>
    <path d="M 256.354021 128.16 
L 256.354021 125.388 
" clip-path="url(#p80c229ab57)" style="fill: none; stroke: #f57c00"/>
    <path d="M 199.394982 128.16 
L 199.394982 125.388 
" clip-path="url(#p80c229ab57)" style="fill: none; stroke: #f57c00"/>
    <path d="M 194.887793 128.16 
L 194.887793 125.388 
" clip-path="url(#p80c229ab57)" style="fill: none; stroke: #f57c00"/>
    <path d="M 225.308114 128.16 
L 225.308114 125.388 
" clip-path="url(#p80c229ab57)" style="fill: none; stroke: #f57c00"/>
    <path d="M 222.522854 128.16 
L 222.522854 125.388 
" clip-path="url(#p80c229ab57)" style="fill: none; stroke: #f57c00"/>
    <path d="M 250.609594 128.16 
L 250.609594 125.388 
" clip-path="url(#p80c229ab57)" style="fill: none; stroke: #f57c00"/>
    <path d="M 216.791925 128.16 
L 216.791925 125.388 
" clip-path="url(#p80c229ab57)" style="fill: none; stroke: #f57c00"/>
    <path d="M 204.950921 128.16 
L 204.950921 125.388 
" clip-path="url(#p80c229ab57)" style="fill: none; stroke: #f57c00"/>
    <path d="M 222.231203 128.16 
L 222.231203 125.388 
" clip-path="url(#p80c229ab57)" style="fill: none; stroke: #f57c00"/>
    <path d="M 228.35586 128.16 
L 228.35586 125.388 
" clip-path="url(#p80c229ab57)" style="fill: none; stroke: #f57c00"/>
    <path d="M 221.662485 128.16 
L 221.662485 125.388 
" clip-path="url(#p80c229ab57)" style="fill: none; stroke: #f57c00"/>
    <path d="M 262.115245 128.16 
L 262.115245 125.388 
" clip-path="url(#p80c229ab57)" style="fill: none; stroke: #f57c00"/>
    <path d="M 214.50247 128.16 
L 214.50247 125.388 
" clip-path="url(#p80c229ab57)" style="fill: none; stroke: #f57c00"/>
    <path d="M 228.049628 128.16 
L 228.049628 125.388 
" clip-path="url(#p80c229ab57)" style="fill: none; stroke: #f57c00"/>
    <path d="M 225.74559 128.16 
L 225.74559 125.388 
" clip-path="url(#p80c229ab57)" style="fill: none; stroke: #f57c00"/>
    <path d="M 229.333475 128.16 
L 229.333475 125.388 
" clip-path="url(#p80c229ab57)" style="fill: none; stroke: #f57c00"/>
    <path d="M 243.230978 128.16 
L 243.230978 125.388 
" clip-path="url(#p80c229ab57)" style="fill: none; stroke: #f57c00"/>
    <path d="M 229.675939 128.16 
L 229.675939 125.388 
" clip-path="url(#p80c229ab57)" style="fill: none; stroke: #f57c00"/>
    <path d="M 242.44633 128.16 
L 242.44633 125.388 
" clip-path="url(#p80c229ab57)" style="fill: none; stroke: #f57c00"/>
    <path d="M 234.801333 128.16 
L 234.801333 125.388 
" clip-path="url(#p80c229ab57)" style="fill: none; stroke: #f57c00"/>
    <path d="M 205.766861 128.16 
L 205.766861 125.388 
" clip-path="url(#p80c229ab57)" style="fill: none; stroke: #f57c00"/>
    <path d="M 219.773979 128.16 
L 219.773979 125.388 
" clip-path="url(#p80c229ab57)" style="fill: none; stroke: #f57c00"/>
    <path d="M 237.031498 128.16 
L 237.031498 125.388 
" clip-path="url(#p80c229ab57)" style="fill: none; stroke: #f57c00"/>
    <path d="M 241.250264 128.16 
L 241.250264 125.388 
" clip-path="url(#p80c229ab57)" style="fill: none; stroke: #f57c00"/>
    <path d="M 190.976558 128.16 
L 190.976558 125.388 
" clip-path="url(#p80c229ab57)" style="fill: none; stroke: #f57c00"/>
    <path d="M 242.071618 128.16 
L 242.071618 125.388 
" clip-path="url(#p80c229ab57)" style="fill: none; stroke: #f57c00"/>
    <path d="M 243.740416 128.16 
L 243.740416 125.388 
" clip-path="url(#p80c229ab57)" style="fill: none; stroke: #f57c00"/>
   </g>
   <g id="patch_7">
    <path d="M 54 128.16 
L 54 17.28 
" style="fill: none; stroke: #000000; stroke-width: 0.8; stroke-linejoin: miter; stroke-linecap: square"/>
   </g>
   <g id="patch_8">
    <path d="M 54 128.16 
L 388.8 128.16 
" style="fill: none; stroke: #000000; stroke-width: 0.8; stroke-linejoin: miter; stroke-linecap: square"/>
   </g>
  </g>
 </g>
 <defs>
  <clipPath id="p80c229ab57">
   <rect x="54" y="17.28" width="334.8" height="110.88"/>
  </clipPath>
 </defs>
</svg>
