<?xml version="1.0" encoding="utf-8" standalone="no"?>
<!DOCTYPE svg PUBLIC "-//W3C//DTD SVG 1.1//EN"
  "http://www.w3.org/Graphics/SVG/1.1/DTD/svg11.dtd">
<svg xmlns:xlink="http://www.w3.org/1999/xlink" width="432pt" height="144pt" viewBox="0 0 432 144" xmlns="http://www.w3.org/2000/svg" version="1.1">
 <metadata>
  <rdf:RDF xmlns:dc="http://purl.org/dc/elements/1.1/" xmlns:cc="http://creativecommons.org/ns#" xmlns:rdf="http://www.w3.org/1999/02/22-rdf-syntax-ns#">
   <cc:Work>
    <dc:type rdf:resource="http://purl.org/dc/dcmitype/StillImage"/>
    <dc:date>2025-09-29T11:56:05.265781</dc:date>
    <dc:format>image/svg+xml</dc:format>
    <dc:creator>
     <cc:Agent>
      <dc:title>Matplotlib v3.10.6, https://matplotlib.org/</dc:title>
     </cc:Agent>
    </dc:creator>
   </cc:Work>
  </rdf:RDF>
 </metadata>
 <defs>
  <style type="text/css">*{stroke-linejoin: round; stroke-linecap: butt}</style>
 </defs>
 <g id="figure_1">
  <g id="patch_1">
   <path d="M 0 144 
L 432 144 
L 432 0 
L 0 0 
z
" style="fill: #ffffff"/>
  </g>
  <g id="axes_1">
   <g id="patch_2">
    <path d="M 54 128.16 
L 388.8 128.16 
L 388.8 17.28 
L 54 17.28 
z
" style="fill: #ffffff"/>
   </g>
   <g id="FillBetweenPolyCollection_1">
    <defs>
     <path id="me2e9aec63c" d="M 100.320774 -15.840188 
L 100.320774 -15.84 
L 101.577633 -15.84 
L 102.834492 -15.84 
L 104.091351 -15.84 
L 105.348209 -15.84 
L 106.605068 -15.84 
L 107.861927 -15.84 
L 109.118786 -15.84 
L 110.375645 -15.84 
L 111.632503 -15.84 
L 112.889362 -15.84 
L 114.146221 -15.84 
L 115.40308 -15.84 
L 116.659938 -15.84 
L 117.916797 -15.84 
L 119.173656 -15.84 
L 120.430515 -15.84 
L 121.687373 -15.84 
L 122.944232 -15.84 
L 124.201091 -15.84 
L 125.45795 -15.84 
L 126.714808 -15.84 
L 127.971667 -15.84 
L 129.228526 -15.84 
L 130.485385 -15.84 
L 131.742243 -15.84 
L 132.999102 -15.84 
L 134.255961 -15.84 
L 135.51282 -15.84 
L 136.769679 -15.84 
L 138.026537 -15.84 
L 139.283396 -15.84 
L 140.540255 -15.84 
L 141.797114 -15.84 
L 143.053972 -15.84 
L 144.310831 -15.84 
L 145.56769 -15.84 
L 146.824549 -15.84 
L 148.081407 -15.84 
L 149.338266 -15.84 
L 150.595125 -15.84 
L 151.851984 -15.84 
L 153.108842 -15.84 
L 154.365701 -15.84 
L 155.62256 -15.84 
L 156.879419 -15.84 
L 158.136278 -15.84 
L 159.393136 -15.84 
L 160.649995 -15.84 
L 161.906854 -15.84 
L 163.163713 -15.84 
L 164.420571 -15.84 
L 165.67743 -15.84 
L 166.934289 -15.84 
L 168.191148 -15.84 
L 169.448006 -15.84 
L 170.704865 -15.84 
L 171.961724 -15.84 
L 173.218583 -15.84 
L 174.475441 -15.84 
L 175.7323 -15.84 
L 176.989159 -15.84 
L 178.246018 -15.84 
L 179.502876 -15.84 
L 180.759735 -15.84 
L 182.016594 -15.84 
L 183.273453 -15.84 
L 184.530312 -15.84 
L 185.78717 -15.84 
L 187.044029 -15.84 
L 188.300888 -15.84 
L 189.557747 -15.84 
L 190.814605 -15.84 
L 192.071464 -15.84 
L 193.328323 -15.84 
L 194.585182 -15.84 
L 195.84204 -15.84 
L 197.098899 -15.84 
L 198.355758 -15.84 
L 199.612617 -15.84 
L 200.869475 -15.84 
L 202.126334 -15.84 
L 203.383193 -15.84 
L 204.640052 -15.84 
L 205.89691 -15.84 
L 207.153769 -15.84 
L 208.410628 -15.84 
L 209.667487 -15.84 
L 210.924346 -15.84 
L 212.181204 -15.84 
L 213.438063 -15.84 
L 214.694922 -15.84 
L 215.951781 -15.84 
L 217.208639 -15.84 
L 218.465498 -15.84 
L 219.722357 -15.84 
L 220.979216 -15.84 
L 222.236074 -15.84 
L 223.492933 -15.84 
L 224.749792 -15.84 
L 226.006651 -15.84 
L 227.263509 -15.84 
L 228.520368 -15.84 
L 229.777227 -15.84 
L 231.034086 -15.84 
L 232.290945 -15.84 
L 233.547803 -15.84 
L 234.804662 -15.84 
L 236.061521 -15.84 
L 237.31838 -15.84 
L 238.575238 -15.84 
L 239.832097 -15.84 
L 241.088956 -15.84 
L 242.345815 -15.84 
L 243.602673 -15.84 
L 244.859532 -15.84 
L 246.116391 -15.84 
L 247.37325 -15.84 
L 248.630108 -15.84 
L 249.886967 -15.84 
L 251.143826 -15.84 
L 252.400685 -15.84 
L 253.657543 -15.84 
L 254.914402 -15.84 
L 256.171261 -15.84 
L 257.42812 -15.84 
L 258.684979 -15.84 
L 259.941837 -15.84 
L 261.198696 -15.84 
L 262.455555 -15.84 
L 263.712414 -15.84 
L 264.969272 -15.84 
L 266.226131 -15.84 
L 267.48299 -15.84 
L 268.739849 -15.84 
L 269.996707 -15.84 
L 271.253566 -15.84 
L 272.510425 -15.84 
L 273.767284 -15.84 
L 275.024142 -15.84 
L 276.281001 -15.84 
L 277.53786 -15.84 
L 278.794719 -15.84 
L 280.051577 -15.84 
L 281.308436 -15.84 
L 282.565295 -15.84 
L 283.822154 -15.84 
L 285.079013 -15.84 
L 286.335871 -15.84 
L 287.59273 -15.84 
L 288.849589 -15.84 
L 290.106448 -15.84 
L 291.363306 -15.84 
L 292.620165 -15.84 
L 293.877024 -15.84 
L 295.133883 -15.84 
L 296.390741 -15.84 
L 297.6476 -15.84 
L 298.904459 -15.84 
L 300.161318 -15.84 
L 301.418176 -15.84 
L 302.675035 -15.84 
L 303.931894 -15.84 
L 305.188753 -15.84 
L 306.445612 -15.84 
L 307.70247 -15.84 
L 308.959329 -15.84 
L 310.216188 -15.84 
L 311.473047 -15.84 
L 312.729905 -15.84 
L 313.986764 -15.84 
L 315.243623 -15.84 
L 316.500482 -15.84 
L 317.75734 -15.84 
L 319.014199 -15.84 
L 320.271058 -15.84 
L 321.527917 -15.84 
L 322.784775 -15.84 
L 324.041634 -15.84 
L 325.298493 -15.84 
L 326.555352 -15.84 
L 327.81221 -15.84 
L 329.069069 -15.84 
L 330.325928 -15.84 
L 331.582787 -15.84 
L 332.839646 -15.84 
L 334.096504 -15.84 
L 335.353363 -15.84 
L 336.610222 -15.84 
L 337.867081 -15.84 
L 339.123939 -15.84 
L 340.380798 -15.84 
L 341.637657 -15.84 
L 342.894516 -15.84 
L 344.151374 -15.84 
L 345.408233 -15.84 
L 346.665092 -15.84 
L 347.921951 -15.84 
L 349.178809 -15.84 
L 350.435668 -15.84 
L 350.435668 -15.84019 
L 350.435668 -15.84019 
L 349.178809 -15.840486 
L 347.921951 -15.841117 
L 346.665092 -15.842318 
L 345.408233 -15.844351 
L 344.151374 -15.847423 
L 342.894516 -15.851588 
L 341.637657 -15.856729 
L 340.380798 -15.862678 
L 339.123939 -15.869476 
L 337.867081 -15.877646 
L 336.610222 -15.888344 
L 335.353363 -15.903284 
L 334.096504 -15.924452 
L 332.839646 -15.953681 
L 331.582787 -15.992214 
L 330.325928 -16.040451 
L 329.069069 -16.098041 
L 327.81221 -16.164383 
L 326.555352 -16.239291 
L 325.298493 -16.323447 
L 324.041634 -16.418264 
L 322.784775 -16.525012 
L 321.527917 -16.643561 
L 320.271058 -16.771543 
L 319.014199 -16.904798 
L 317.75734 -17.039256 
L 316.500482 -17.173256 
L 315.243623 -17.308713 
L 313.986764 -17.450356 
L 312.729905 -17.603777 
L 311.473047 -17.773985 
L 310.216188 -17.965416 
L 308.959329 -18.18273 
L 307.70247 -18.430804 
L 306.445612 -18.71311 
L 305.188753 -19.029441 
L 303.931894 -19.375033 
L 302.675035 -19.742366 
L 301.418176 -20.124917 
L 300.161318 -20.520457 
L 298.904459 -20.931661 
L 297.6476 -21.363689 
L 296.390741 -21.820679 
L 295.133883 -22.30406 
L 293.877024 -22.814573 
L 292.620165 -23.357459 
L 291.363306 -23.948022 
L 290.106448 -24.613877 
L 288.849589 -25.391182 
L 287.59273 -26.31466 
L 286.335871 -27.404689 
L 285.079013 -28.657956 
L 283.822154 -30.048596 
L 282.565295 -31.542133 
L 281.308436 -33.115854 
L 280.051577 -34.772761 
L 278.794719 -36.538772 
L 277.53786 -38.444447 
L 276.281001 -40.504519 
L 275.024142 -42.710655 
L 273.767284 -45.042919 
L 272.510425 -47.49116 
L 271.253566 -50.069768 
L 269.996707 -52.812957 
L 268.739849 -55.749648 
L 267.48299 -58.869528 
L 266.226131 -62.097964 
L 264.969272 -65.294159 
L 263.712414 -68.276339 
L 262.455555 -70.865754 
L 261.198696 -72.933779 
L 259.941837 -74.435979 
L 258.684979 -75.421988 
L 257.42812 -76.017642 
L 256.171261 -76.384207 
L 254.914402 -76.667629 
L 253.657543 -76.955842 
L 252.400685 -77.260866 
L 251.143826 -77.533175 
L 249.886967 -77.701762 
L 248.630108 -77.721379 
L 247.37325 -77.605349 
L 246.116391 -77.430416 
L 244.859532 -77.314826 
L 243.602673 -77.383898 
L 242.345815 -77.740991 
L 241.088956 -78.454724 
L 239.832097 -79.560678 
L 238.575238 -81.066186 
L 237.31838 -82.946615 
L 236.061521 -85.130999 
L 234.804662 -87.4869 
L 233.547803 -89.819183 
L 232.290945 -91.891143 
L 231.034086 -93.465834 
L 229.777227 -94.358902 
L 228.520368 -94.491719 
L 227.263509 -93.928981 
L 226.006651 -92.880813 
L 224.749792 -91.657199 
L 223.492933 -90.585641 
L 222.236074 -89.924861 
L 220.979216 -89.808365 
L 219.722357 -90.231712 
L 218.465498 -91.076134 
L 217.208639 -92.154356 
L 215.951781 -93.267882 
L 214.694922 -94.264331 
L 213.438063 -95.075582 
L 212.181204 -95.716622 
L 210.924346 -96.243302 
L 209.667487 -96.695975 
L 208.410628 -97.069475 
L 207.153769 -97.332074 
L 205.89691 -97.479089 
L 204.640052 -97.581428 
L 203.383193 -97.796912 
L 202.126334 -98.343539 
L 200.869475 -99.456386 
L 199.612617 -101.339198 
L 198.355758 -104.092732 
L 197.098899 -107.60169 
L 195.84204 -111.418086 
L 194.585182 -114.747995 
L 193.328323 -116.64 
L 192.071464 -116.34774 
L 190.814605 -113.681642 
L 189.557747 -109.126731 
L 188.300888 -103.642205 
L 187.044029 -98.264162 
L 185.78717 -93.734949 
L 184.530312 -90.321134 
L 183.273453 -87.844379 
L 182.016594 -85.85247 
L 180.759735 -83.836715 
L 179.502876 -81.419472 
L 178.246018 -78.458335 
L 176.989159 -75.042365 
L 175.7323 -71.397526 
L 174.475441 -67.757247 
L 173.218583 -64.264448 
L 171.961724 -60.945166 
L 170.704865 -57.748993 
L 169.448006 -54.616458 
L 168.191148 -51.527989 
L 166.934289 -48.51195 
L 165.67743 -45.620569 
L 164.420571 -42.899464 
L 163.163713 -40.370897 
L 161.906854 -38.034031 
L 160.649995 -35.873874 
L 159.393136 -33.870517 
L 158.136278 -32.005777 
L 156.879419 -30.267507 
L 155.62256 -28.651498 
L 154.365701 -27.160362 
L 153.108842 -25.79985 
L 151.851984 -24.574377 
L 150.595125 -23.483491 
L 149.338266 -22.520195 
L 148.081407 -21.671467 
L 146.824549 -20.920908 
L 145.56769 -20.252732 
L 144.310831 -19.655381 
L 143.053972 -19.122991 
L 141.797114 -18.654047 
L 140.540255 -18.248151 
L 139.283396 -17.902822 
L 138.026537 -17.611952 
L 136.769679 -17.36649 
L 135.51282 -17.156616 
L 134.255961 -16.97402 
L 132.999102 -16.813089 
L 131.742243 -16.670661 
L 130.485385 -16.544863 
L 129.228526 -16.433944 
L 127.971667 -16.335747 
L 126.714808 -16.247925 
L 125.45795 -16.168557 
L 124.201091 -16.096741 
L 122.944232 -16.032781 
L 121.687373 -15.977888 
L 120.430515 -15.933472 
L 119.173656 -15.900345 
L 117.916797 -15.878178 
L 116.659938 -15.865411 
L 115.40308 -15.85959 
L 114.146221 -15.857916 
L 112.889362 -15.857835 
L 111.632503 -15.857499 
L 110.375645 -15.855998 
L 109.118786 -15.853312 
L 107.861927 -15.849993 
L 106.605068 -15.846746 
L 105.348209 -15.84409 
L 104.091351 -15.842227 
L 102.834492 -15.841089 
L 101.577633 -15.840478 
L 100.320774 -15.840188 
z
" style="stroke: #004ba0; stroke-width: 2"/>
    </defs>
    <g clip-path="url(#p255c57af64)">
     <use xlink:href="#me2e9aec63c" x="0" y="144" style="fill: #004ba0; fill-opacity: 0.25; stroke: #004ba0; stroke-width: 2"/>
    </g>
   </g>
   <g id="patch_3">
    <path d="M 54 128.16 
L 170.0082 128.16 
L 170.0082 17.28 
L 54 17.28 
z
" clip-path="url(#p255c57af64)" style="fill: #616161; opacity: 0.2; stroke: #616161; stroke-linejoin: miter"/>
   </g>
   <g id="patch_4">
    <path d="M 54 128.16 
L 154.44 128.16 
L 154.44 17.28 
L 54 17.28 
z
" clip-path="url(#p255c57af64)" style="fill: #616161; opacity: 0.1; stroke: #616161; stroke-linejoin: miter"/>
   </g>
   <g id="patch_5">
    <path d="M 272.7918 128.16 
L 388.8 128.16 
L 388.8 17.28 
L 272.7918 17.28 
z
" clip-path="url(#p255c57af64)" style="fill: #616161; opacity: 0.2; stroke: #616161; stroke-linejoin: miter"/>
   </g>
   <g id="patch_6">
    <path d="M 288.36 128.16 
L 388.8 128.16 
L 388.8 17.28 
L 288.36 17.28 
z
" clip-path="url(#p255c57af64)" style="fill: #616161; opacity: 0.1; stroke: #616161; stroke-linejoin: miter"/>
   </g>
   <g id="matplotlib.axis_1">
    <g id="xtick_1">
     <g id="line2d_1">
      <defs>
       <path id="m9ffc3a348b" d="M 0 0 
L 0 3.5 
" style="stroke: #000000; stroke-width: 0.8"/>
      </defs>
      <g>
       <use xlink:href="#m9ffc3a348b" x="54" y="128.16" style="stroke: #000000; stroke-width: 0.8"/>
      </g>
     </g>
     <g id="text_1">
      <!-- −1.00 -->
      <g transform="translate(38.677344 142.758438) scale(0.1 -0.1)">
       <defs>
        <path id="DejaVuSans-2212" d="M 678 2272 
L 4684 2272 
L 4684 1741 
L 678 1741 
L 678 2272 
z
" transform="scale(0.015625)"/>
        <path id="DejaVuSans-31" d="M 794 531 
L 1825 531 
L 1825 4091 
L 703 3866 
L 703 4441 
L 1819 4666 
L 2450 4666 
L 2450 531 
L 3481 531 
L 3481 0 
L 794 0 
L 794 531 
z
" transform="scale(0.015625)"/>
        <path id="DejaVuSans-2e" d="M 684 794 
L 1344 794 
L 1344 0 
L 684 0 
L 684 794 
z
" transform="scale(0.015625)"/>
        <path id="DejaVuSans-30" d="M 2034 4250 
Q 1547 4250 1301 3770 
Q 1056 3291 1056 2328 
Q 1056 1369 1301 889 
Q 1547 409 2034 409 
Q 2525 409 2770 889 
Q 3016 1369 3016 2328 
Q 3016 3291 2770 3770 
Q 2525 4250 2034 4250 
z
M 2034 4750 
Q 2819 4750 3233 4129 
Q 3647 3509 3647 2328 
Q 3647 1150 3233 529 
Q 2819 -91 2034 -91 
Q 1250 -91 836 529 
Q 422 1150 422 2328 
Q 422 3509 836 4129 
Q 1250 4750 2034 4750 
z
" transform="scale(0.015625)"/>
       </defs>
       <use xlink:href="#DejaVuSans-2212"/>
       <use xlink:href="#DejaVuSans-31" transform="translate(83.789062 0)"/>
       <use xlink:href="#DejaVuSans-2e" transform="translate(147.412109 0)"/>
       <use xlink:href="#DejaVuSans-30" transform="translate(179.199219 0)"/>
       <use xlink:href="#DejaVuSans-30" transform="translate(242.822266 0)"/>
      </g>
     </g>
    </g>
    <g id="xtick_2">
     <g id="line2d_2">
      <g>
       <use xlink:href="#m9ffc3a348b" x="95.85" y="128.16" style="stroke: #000000; stroke-width: 0.8"/>
      </g>
     </g>
     <g id="text_2">
      <!-- −0.75 -->
      <g transform="translate(80.527344 142.758438) scale(0.1 -0.1)">
       <defs>
        <path id="DejaVuSans-37" d="M 525 4666 
L 3525 4666 
L 3525 4397 
L 1831 0 
L 1172 0 
L 2766 4134 
L 525 4134 
L 525 4666 
z
" transform="scale(0.015625)"/>
        <path id="DejaVuSans-35" d="M 691 4666 
L 3169 4666 
L 3169 4134 
L 1269 4134 
L 1269 2991 
Q 1406 3038 1543 3061 
Q 1681 3084 1819 3084 
Q 2600 3084 3056 2656 
Q 3513 2228 3513 1497 
Q 3513 744 3044 326 
Q 2575 -91 1722 -91 
Q 1428 -91 1123 -41 
Q 819 9 494 109 
L 494 744 
Q 775 591 1075 516 
Q 1375 441 1709 441 
Q 2250 441 2565 725 
Q 2881 1009 2881 1497 
Q 2881 1984 2565 2268 
Q 2250 2553 1709 2553 
Q 1456 2553 1204 2497 
Q 953 2441 691 2322 
L 691 4666 
z
" transform="scale(0.015625)"/>
       </defs>
       <use xlink:href="#DejaVuSans-2212"/>
       <use xlink:href="#DejaVuSans-30" transform="translate(83.789062 0)"/>
       <use xlink:href="#DejaVuSans-2e" transform="translate(147.412109 0)"/>
       <use xlink:href="#DejaVuSans-37" transform="translate(179.199219 0)"/>
       <use xlink:href="#DejaVuSans-35" transform="translate(242.822266 0)"/>
      </g>
     </g>
    </g>
    <g id="xtick_3">
     <g id="line2d_3">
      <g>
       <use xlink:href="#m9ffc3a348b" x="137.7" y="128.16" style="stroke: #000000; stroke-width: 0.8"/>
      </g>
     </g>
     <g id="text_3">
      <!-- −0.50 -->
      <g transform="translate(122.377344 142.758438) scale(0.1 -0.1)">
       <use xlink:href="#DejaVuSans-2212"/>
       <use xlink:href="#DejaVuSans-30" transform="translate(83.789062 0)"/>
       <use xlink:href="#DejaVuSans-2e" transform="translate(147.412109 0)"/>
       <use xlink:href="#DejaVuSans-35" transform="translate(179.199219 0)"/>
       <use xlink:href="#DejaVuSans-30" transform="translate(242.822266 0)"/>
      </g>
     </g>
    </g>
    <g id="xtick_4">
     <g id="line2d_4">
      <g>
       <use xlink:href="#m9ffc3a348b" x="179.55" y="128.16" style="stroke: #000000; stroke-width: 0.8"/>
      </g>
     </g>
     <g id="text_4">
      <!-- −0.25 -->
      <g transform="translate(164.227344 142.758438) scale(0.1 -0.1)">
       <defs>
        <path id="DejaVuSans-32" d="M 1228 531 
L 3431 531 
L 3431 0 
L 469 0 
L 469 531 
Q 828 903 1448 1529 
Q 2069 2156 2228 2338 
Q 2531 2678 2651 2914 
Q 2772 3150 2772 3378 
Q 2772 3750 2511 3984 
Q 2250 4219 1831 4219 
Q 1534 4219 1204 4116 
Q 875 4013 500 3803 
L 500 4441 
Q 881 4594 1212 4672 
Q 1544 4750 1819 4750 
Q 2544 4750 2975 4387 
Q 3406 4025 3406 3419 
Q 3406 3131 3298 2873 
Q 3191 2616 2906 2266 
Q 2828 2175 2409 1742 
Q 1991 1309 1228 531 
z
" transform="scale(0.015625)"/>
       </defs>
       <use xlink:href="#DejaVuSans-2212"/>
       <use xlink:href="#DejaVuSans-30" transform="translate(83.789062 0)"/>
       <use xlink:href="#DejaVuSans-2e" transform="translate(147.412109 0)"/>
       <use xlink:href="#DejaVuSans-32" transform="translate(179.199219 0)"/>
       <use xlink:href="#DejaVuSans-35" transform="translate(242.822266 0)"/>
      </g>
     </g>
    </g>
    <g id="xtick_5">
     <g id="line2d_5">
      <g>
       <use xlink:href="#m9ffc3a348b" x="221.4" y="128.16" style="stroke: #000000; stroke-width: 0.8"/>
      </g>
     </g>
     <g id="text_5">
      <!-- 0.00 -->
      <g transform="translate(210.267188 142.758438) scale(0.1 -0.1)">
       <use xlink:href="#DejaVuSans-30"/>
       <use xlink:href="#DejaVuSans-2e" transform="translate(63.623047 0)"/>
       <use xlink:href="#DejaVuSans-30" transform="translate(95.410156 0)"/>
       <use xlink:href="#DejaVuSans-30" transform="translate(159.033203 0)"/>
      </g>
     </g>
    </g>
    <g id="xtick_6">
     <g id="line2d_6">
      <g>
       <use xlink:href="#m9ffc3a348b" x="263.25" y="128.16" style="stroke: #000000; stroke-width: 0.8"/>
      </g>
     </g>
     <g id="text_6">
      <!-- 0.25 -->
      <g transform="translate(252.117188 142.758438) scale(0.1 -0.1)">
       <use xlink:href="#DejaVuSans-30"/>
       <use xlink:href="#DejaVuSans-2e" transform="translate(63.623047 0)"/>
       <use xlink:href="#DejaVuSans-32" transform="translate(95.410156 0)"/>
       <use xlink:href="#DejaVuSans-35" transform="translate(159.033203 0)"/>
      </g>
     </g>
    </g>
    <g id="xtick_7">
     <g id="line2d_7">
      <g>
       <use xlink:href="#m9ffc3a348b" x="305.1" y="128.16" style="stroke: #000000; stroke-width: 0.8"/>
      </g>
     </g>
     <g id="text_7">
      <!-- 0.50 -->
      <g transform="translate(293.967188 142.758438) scale(0.1 -0.1)">
       <use xlink:href="#DejaVuSans-30"/>
       <use xlink:href="#DejaVuSans-2e" transform="translate(63.623047 0)"/>
       <use xlink:href="#DejaVuSans-35" transform="translate(95.410156 0)"/>
       <use xlink:href="#DejaVuSans-30" transform="translate(159.033203 0)"/>
      </g>
     </g>
    </g>
    <g id="xtick_8">
     <g id="line2d_8">
      <g>
       <use xlink:href="#m9ffc3a348b" x="346.95" y="128.16" style="stroke: #000000; stroke-width: 0.8"/>
      </g>
     </g>
     <g id="text_8">
      <!-- 0.75 -->
      <g transform="translate(335.817188 142.758438) scale(0.1 -0.1)">
       <use xlink:href="#DejaVuSans-30"/>
       <use xlink:href="#DejaVuSans-2e" transform="translate(63.623047 0)"/>
       <use xlink:href="#DejaVuSans-37" transform="translate(95.410156 0)"/>
       <use xlink:href="#DejaVuSans-35" transform="translate(159.033203 0)"/>
      </g>
     </g>
    </g>
    <g id="xtick_9">
     <g id="line2d_9">
      <g>
       <use xlink:href="#m9ffc3a348b" x="388.8" y="128.16" style="stroke: #000000; stroke-width: 0.8"/>
      </g>
     </g>
     <g id="text_9">
      <!-- 1.00 -->
      <g transform="translate(377.667188 142.758438) scale(0.1 -0.1)">
       <use xlink:href="#DejaVuSans-31"/>
       <use xlink:href="#DejaVuSans-2e" transform="translate(63.623047 0)"/>
       <use xlink:href="#DejaVuSans-30" transform="translate(95.410156 0)"/>
       <use xlink:href="#DejaVuSans-30" transform="translate(159.033203 0)"/>
      </g>
     </g>
    </g>
    <g id="text_10">
     <!-- cfHIV -->
     <g transform="translate(208.235156 156.436563) scale(0.1 -0.1)">
      <defs>
       <path id="DejaVuSans-63" d="M 3122 3366 
L 3122 2828 
Q 2878 2963 2633 3030 
Q 2388 3097 2138 3097 
Q 1578 3097 1268 2742 
Q 959 2388 959 1747 
Q 959 1106 1268 751 
Q 1578 397 2138 397 
Q 2388 397 2633 464 
Q 2878 531 3122 666 
L 3122 134 
Q 2881 22 2623 -34 
Q 2366 -91 2075 -91 
Q 1284 -91 818 406 
Q 353 903 353 1747 
Q 353 2603 823 3093 
Q 1294 3584 2113 3584 
Q 2378 3584 2631 3529 
Q 2884 3475 3122 3366 
z
" transform="scale(0.015625)"/>
       <path id="DejaVuSans-66" d="M 2375 4863 
L 2375 4384 
L 1825 4384 
Q 1516 4384 1395 4259 
Q 1275 4134 1275 3809 
L 1275 3500 
L 2222 3500 
L 2222 3053 
L 1275 3053 
L 1275 0 
L 697 0 
L 697 3053 
L 147 3053 
L 147 3500 
L 697 3500 
L 697 3744 
Q 697 4328 969 4595 
Q 1241 4863 1831 4863 
L 2375 4863 
z
" transform="scale(0.015625)"/>
       <path id="DejaVuSans-48" d="M 628 4666 
L 1259 4666 
L 1259 2753 
L 3553 2753 
L 3553 4666 
L 4184 4666 
L 4184 0 
L 3553 0 
L 3553 2222 
L 1259 2222 
L 1259 0 
L 628 0 
L 628 4666 
z
" transform="scale(0.015625)"/>
       <path id="DejaVuSans-49" d="M 628 4666 
L 1259 4666 
L 1259 0 
L 628 0 
L 628 4666 
z
" transform="scale(0.015625)"/>
       <path id="DejaVuSans-56" d="M 1831 0 
L 50 4666 
L 709 4666 
L 2188 738 
L 3669 4666 
L 4325 4666 
L 2547 0 
L 1831 0 
z
" transform="scale(0.015625)"/>
      </defs>
      <use xlink:href="#DejaVuSans-63"/>
      <use xlink:href="#DejaVuSans-66" transform="translate(54.980469 0)"/>
      <use xlink:href="#DejaVuSans-48" transform="translate(90.185547 0)"/>
      <use xlink:href="#DejaVuSans-49" transform="translate(165.380859 0)"/>
      <use xlink:href="#DejaVuSans-56" transform="translate(194.873047 0)"/>
     </g>
    </g>
   </g>
   <g id="matplotlib.axis_2">
    <g id="text_11">
     <!-- Density -->
     <g transform="translate(47.920312 91.728594) rotate(-90) scale(0.1 -0.1)">
      <defs>
       <path id="DejaVuSans-44" d="M 1259 4147 
L 1259 519 
L 2022 519 
Q 2988 519 3436 956 
Q 3884 1394 3884 2338 
Q 3884 3275 3436 3711 
Q 2988 4147 2022 4147 
L 1259 4147 
z
M 628 4666 
L 1925 4666 
Q 3281 4666 3915 4102 
Q 4550 3538 4550 2338 
Q 4550 1131 3912 565 
Q 3275 0 1925 0 
L 628 0 
L 628 4666 
z
" transform="scale(0.015625)"/>
       <path id="DejaVuSans-65" d="M 3597 1894 
L 3597 1613 
L 953 1613 
Q 991 1019 1311 708 
Q 1631 397 2203 397 
Q 2534 397 2845 478 
Q 3156 559 3463 722 
L 3463 178 
Q 3153 47 2828 -22 
Q 2503 -91 2169 -91 
Q 1331 -91 842 396 
Q 353 884 353 1716 
Q 353 2575 817 3079 
Q 1281 3584 2069 3584 
Q 2775 3584 3186 3129 
Q 3597 2675 3597 1894 
z
M 3022 2063 
Q 3016 2534 2758 2815 
Q 2500 3097 2075 3097 
Q 1594 3097 1305 2825 
Q 1016 2553 972 2059 
L 3022 2063 
z
" transform="scale(0.015625)"/>
       <path id="DejaVuSans-6e" d="M 3513 2113 
L 3513 0 
L 2938 0 
L 2938 2094 
Q 2938 2591 2744 2837 
Q 2550 3084 2163 3084 
Q 1697 3084 1428 2787 
Q 1159 2491 1159 1978 
L 1159 0 
L 581 0 
L 581 3500 
L 1159 3500 
L 1159 2956 
Q 1366 3272 1645 3428 
Q 1925 3584 2291 3584 
Q 2894 3584 3203 3211 
Q 3513 2838 3513 2113 
z
" transform="scale(0.015625)"/>
       <path id="DejaVuSans-73" d="M 2834 3397 
L 2834 2853 
Q 2591 2978 2328 3040 
Q 2066 3103 1784 3103 
Q 1356 3103 1142 2972 
Q 928 2841 928 2578 
Q 928 2378 1081 2264 
Q 1234 2150 1697 2047 
L 1894 2003 
Q 2506 1872 2764 1633 
Q 3022 1394 3022 966 
Q 3022 478 2636 193 
Q 2250 -91 1575 -91 
Q 1294 -91 989 -36 
Q 684 19 347 128 
L 347 722 
Q 666 556 975 473 
Q 1284 391 1588 391 
Q 1994 391 2212 530 
Q 2431 669 2431 922 
Q 2431 1156 2273 1281 
Q 2116 1406 1581 1522 
L 1381 1569 
Q 847 1681 609 1914 
Q 372 2147 372 2553 
Q 372 3047 722 3315 
Q 1072 3584 1716 3584 
Q 2034 3584 2315 3537 
Q 2597 3491 2834 3397 
z
" transform="scale(0.015625)"/>
       <path id="DejaVuSans-69" d="M 603 3500 
L 1178 3500 
L 1178 0 
L 603 0 
L 603 3500 
z
M 603 4863 
L 1178 4863 
L 1178 4134 
L 603 4134 
L 603 4863 
z
" transform="scale(0.015625)"/>
       <path id="DejaVuSans-74" d="M 1172 4494 
L 1172 3500 
L 2356 3500 
L 2356 3053 
L 1172 3053 
L 1172 1153 
Q 1172 725 1289 603 
Q 1406 481 1766 481 
L 2356 481 
L 2356 0 
L 1766 0 
Q 1100 0 847 248 
Q 594 497 594 1153 
L 594 3053 
L 172 3053 
L 172 3500 
L 594 3500 
L 594 4494 
L 1172 4494 
z
" transform="scale(0.015625)"/>
       <path id="DejaVuSans-79" d="M 2059 -325 
Q 1816 -950 1584 -1140 
Q 1353 -1331 966 -1331 
L 506 -1331 
L 506 -850 
L 844 -850 
Q 1081 -850 1212 -737 
Q 1344 -625 1503 -206 
L 1606 56 
L 191 3500 
L 800 3500 
L 1894 763 
L 2988 3500 
L 3597 3500 
L 2059 -325 
z
" transform="scale(0.015625)"/>
      </defs>
      <use xlink:href="#DejaVuSans-44"/>
      <use xlink:href="#DejaVuSans-65" transform="translate(77.001953 0)"/>
      <use xlink:href="#DejaVuSans-6e" transform="translate(138.525391 0)"/>
      <use xlink:href="#DejaVuSans-73" transform="translate(201.904297 0)"/>
      <use xlink:href="#DejaVuSans-69" transform="translate(254.003906 0)"/>
      <use xlink:href="#DejaVuSans-74" transform="translate(281.787109 0)"/>
      <use xlink:href="#DejaVuSans-79" transform="translate(320.996094 0)"/>
     </g>
    </g>
   </g>
   <g id="LineCollection_1">
    <path d="M 244.701847 128.16 
L 244.701847 125.388 
" clip-path="url(#p255c57af64)" style="fill: none; stroke: #004ba0"/>
    <path d="M 256.65899 128.16 
L 256.65899 125.388 
" clip-path="url(#p255c57af64)" style="fill: none; stroke: #004ba0"/>
    <path d="M 245.664251 128.16 
L 245.664251 125.388 
" clip-path="url(#p255c57af64)" style="fill: none; stroke: #004ba0"/>
    <path d="M 249.287143 128.16 
L 249.287143 125.388 
" clip-path="url(#p255c57af64)" style="fill: none; stroke: #004ba0"/>
    <path d="M 256.55409 128.16 
L 256.55409 125.388 
" clip-path="url(#p255c57af64)" style="fill: none; stroke: #004ba0"/>
    <path d="M 248.697282 128.16 
L 248.697282 125.388 
" clip-path="url(#p255c57af64)" style="fill: none; stroke: #004ba0"/>
    <path d="M 179.049409 128.16 
L 179.049409 125.388 
" clip-path="url(#p255c57af64)" style="fill: none; stroke: #004ba0"/>
    <path d="M 248.98892 128.16 
L 248.98892 125.388 
" clip-path="url(#p255c57af64)" style="fill: none; stroke: #004ba0"/>
    <path d="M 270.145964 128.16 
L 270.145964 125.388 
" clip-path="url(#p255c57af64)" style="fill: none; stroke: #004ba0"/>
    <path d="M 238.133302 128.16 
L 238.133302 125.388 
" clip-path="url(#p255c57af64)" style="fill: none; stroke: #004ba0"/>
    <path d="M 260.012822 128.16 
L 260.012822 125.388 
" clip-path="url(#p255c57af64)" style="fill: none; stroke: #004ba0"/>
    <path d="M 299.529721 128.16 
L 299.529721 125.388 
" clip-path="url(#p255c57af64)" style="fill: none; stroke: #004ba0"/>
    <path d="M 252.805458 128.16 
L 252.805458 125.388 
" clip-path="url(#p255c57af64)" style="fill: none; stroke: #004ba0"/>
    <path d="M 264.299895 128.16 
L 264.299895 125.388 
" clip-path="url(#p255c57af64)" style="fill: none; stroke: #004ba0"/>
    <path d="M 245.197631 128.16 
L 245.197631 125.388 
" clip-path="url(#p255c57af64)" style="fill: none; stroke: #004ba0"/>
    <path d="M 197.38046 128.16 
L 197.38046 125.388 
" clip-path="url(#p255c57af64)" style="fill: none; stroke: #004ba0"/>
    <path d="M 216.053527 128.16 
L 216.053527 125.388 
" clip-path="url(#p255c57af64)" style="fill: none; stroke: #004ba0"/>
    <path d="M 263.211713 128.16 
L 263.211713 125.388 
" clip-path="url(#p255c57af64)" style="fill: none; stroke: #004ba0"/>
    <path d="M 254.092578 128.16 
L 254.092578 125.388 
" clip-path="url(#p255c57af64)" style="fill: none; stroke: #004ba0"/>
    <path d="M 247.618223 128.16 
L 247.618223 125.388 
" clip-path="url(#p255c57af64)" style="fill: none; stroke: #004ba0"/>
    <path d="M 256.425679 128.16 
L 256.425679 125.388 
" clip-path="url(#p255c57af64)" style="fill: none; stroke: #004ba0"/>
    <path d="M 251.555331 128.16 
L 251.555331 125.388 
" clip-path="url(#p255c57af64)" style="fill: none; stroke: #004ba0"/>
    <path d="M 260.029087 128.16 
L 260.029087 125.388 
" clip-path="url(#p255c57af64)" style="fill: none; stroke: #004ba0"/>
    <path d="M 256.339473 128.16 
L 256.339473 125.388 
" clip-path="url(#p255c57af64)" style="fill: none; stroke: #004ba0"/>
    <path d="M 213.446014 128.16 
L 213.446014 125.388 
" clip-path="url(#p255c57af64)" style="fill: none; stroke: #004ba0"/>
    <path d="M 248.095197 128.16 
L 248.095197 125.388 
" clip-path="url(#p255c57af64)" style="fill: none; stroke: #004ba0"/>
    <path d="M 272.182959 128.16 
L 272.182959 125.388 
" clip-path="url(#p255c57af64)" style="fill: none; stroke: #004ba0"/>
    <path d="M 218.933271 128.16 
L 218.933271 125.388 
" clip-path="url(#p255c57af64)" style="fill: none; stroke: #004ba0"/>
    <path d="M 257.300592 128.16 
L 257.300592 125.388 
" clip-path="url(#p255c57af64)" style="fill: none; stroke: #004ba0"/>
    <path d="M 271.794983 128.16 
L 271.794983 125.388 
" clip-path="url(#p255c57af64)" style="fill: none; stroke: #004ba0"/>
    <path d="M 247.44324 128.16 
L 247.44324 125.388 
" clip-path="url(#p255c57af64)" style="fill: none; stroke: #004ba0"/>
    <path d="M 259.954495 128.16 
L 259.954495 125.388 
" clip-path="url(#p255c57af64)" style="fill: none; stroke: #004ba0"/>
    <path d="M 274.56554 128.16 
L 274.56554 125.388 
" clip-path="url(#p255c57af64)" style="fill: none; stroke: #004ba0"/>
    <path d="M 234.000941 128.16 
L 234.000941 125.388 
" clip-path="url(#p255c57af64)" style="fill: none; stroke: #004ba0"/>
    <path d="M 261.079028 128.16 
L 261.079028 125.388 
" clip-path="url(#p255c57af64)" style="fill: none; stroke: #004ba0"/>
    <path d="M 249.047247 128.16 
L 249.047247 125.388 
" clip-path="url(#p255c57af64)" style="fill: none; stroke: #004ba0"/>
    <path d="M 210.096978 128.16 
L 210.096978 125.388 
" clip-path="url(#p255c57af64)" style="fill: none; stroke: #004ba0"/>
    <path d="M 235.912109 128.16 
L 235.912109 125.388 
" clip-path="url(#p255c57af64)" style="fill: none; stroke: #004ba0"/>
    <path d="M 249.776341 128.16 
L 249.776341 125.388 
" clip-path="url(#p255c57af64)" style="fill: none; stroke: #004ba0"/>
    <path d="M 249.747178 128.16 
L 249.747178 125.388 
" clip-path="url(#p255c57af64)" style="fill: none; stroke: #004ba0"/>
    <path d="M 256.775645 128.16 
L 256.775645 125.388 
" clip-path="url(#p255c57af64)" style="fill: none; stroke: #004ba0"/>
    <path d="M 291.308135 128.16 
L 291.308135 125.388 
" clip-path="url(#p255c57af64)" style="fill: none; stroke: #004ba0"/>
    <path d="M 225.805293 128.16 
L 225.805293 125.388 
" clip-path="url(#p255c57af64)" style="fill: none; stroke: #004ba0"/>
    <path d="M 263.979094 128.16 
L 263.979094 125.388 
" clip-path="url(#p255c57af64)" style="fill: none; stroke: #004ba0"/>
    <path d="M 271.445017 128.16 
L 271.445017 125.388 
" clip-path="url(#p255c57af64)" style="fill: none; stroke: #004ba0"/>
    <path d="M 210.149961 128.16 
L 210.149961 125.388 
" clip-path="url(#p255c57af64)" style="fill: none; stroke: #004ba0"/>
    <path d="M 257.096446 128.16 
L 257.096446 125.388 
" clip-path="url(#p255c57af64)" style="fill: none; stroke: #004ba0"/>
    <path d="M 256.571498 128.16 
L 256.571498 125.388 
" clip-path="url(#p255c57af64)" style="fill: none; stroke: #004ba0"/>
    <path d="M 248.697282 128.16 
L 248.697282 125.388 
" clip-path="url(#p255c57af64)" style="fill: none; stroke: #004ba0"/>
    <path d="M 261.733484 128.16 
L 261.733484 125.388 
" clip-path="url(#p255c57af64)" style="fill: none; stroke: #004ba0"/>
    <path d="M 249.577104 128.16 
L 249.577104 125.388 
" clip-path="url(#p255c57af64)" style="fill: none; stroke: #004ba0"/>
    <path d="M 254.405404 128.16 
L 254.405404 125.388 
" clip-path="url(#p255c57af64)" style="fill: none; stroke: #004ba0"/>
    <path d="M 227.466063 128.16 
L 227.466063 125.388 
" clip-path="url(#p255c57af64)" style="fill: none; stroke: #004ba0"/>
    <path d="M 256.402614 128.16 
L 256.402614 125.388 
" clip-path="url(#p255c57af64)" style="fill: none; stroke: #004ba0"/>
    <path d="M 175.590808 128.16 
L 175.590808 125.388 
" clip-path="url(#p255c57af64)" style="fill: none; stroke: #004ba0"/>
    <path d="M 239.014913 128.16 
L 239.014913 125.388 
" clip-path="url(#p255c57af64)" style="fill: none; stroke: #004ba0"/>
    <path d="M 272.611568 128.16 
L 272.611568 125.388 
" clip-path="url(#p255c57af64)" style="fill: none; stroke: #004ba0"/>
    <path d="M 264.540722 128.16 
L 264.540722 125.388 
" clip-path="url(#p255c57af64)" style="fill: none; stroke: #004ba0"/>
    <path d="M 258.787944 128.16 
L 258.787944 125.388 
" clip-path="url(#p255c57af64)" style="fill: none; stroke: #004ba0"/>
    <path d="M 271.707491 128.16 
L 271.707491 125.388 
" clip-path="url(#p255c57af64)" style="fill: none; stroke: #004ba0"/>
    <path d="M 251.177499 128.16 
L 251.177499 125.388 
" clip-path="url(#p255c57af64)" style="fill: none; stroke: #004ba0"/>
    <path d="M 237.806291 128.16 
L 237.806291 125.388 
" clip-path="url(#p255c57af64)" style="fill: none; stroke: #004ba0"/>
    <path d="M 277.190279 128.16 
L 277.190279 125.388 
" clip-path="url(#p255c57af64)" style="fill: none; stroke: #004ba0"/>
    <path d="M 247.326585 128.16 
L 247.326585 125.388 
" clip-path="url(#p255c57af64)" style="fill: none; stroke: #004ba0"/>
    <path d="M 323.035714 128.16 
L 323.035714 125.388 
" clip-path="url(#p255c57af64)" style="fill: none; stroke: #004ba0"/>
    <path d="M 268.703624 128.16 
L 268.703624 125.388 
" clip-path="url(#p255c57af64)" style="fill: none; stroke: #004ba0"/>
    <path d="M 224.782997 128.16 
L 224.782997 125.388 
" clip-path="url(#p255c57af64)" style="fill: none; stroke: #004ba0"/>
    <path d="M 266.42885 128.16 
L 266.42885 125.388 
" clip-path="url(#p255c57af64)" style="fill: none; stroke: #004ba0"/>
    <path d="M 293.288676 128.16 
L 293.288676 125.388 
" clip-path="url(#p255c57af64)" style="fill: none; stroke: #004ba0"/>
    <path d="M 269.432718 128.16 
L 269.432718 125.388 
" clip-path="url(#p255c57af64)" style="fill: none; stroke: #004ba0"/>
    <path d="M 273.836446 128.16 
L 273.836446 125.388 
" clip-path="url(#p255c57af64)" style="fill: none; stroke: #004ba0"/>
    <path d="M 256.076803 128.16 
L 256.076803 125.388 
" clip-path="url(#p255c57af64)" style="fill: none; stroke: #004ba0"/>
    <path d="M 264.552004 128.16 
L 264.552004 125.388 
" clip-path="url(#p255c57af64)" style="fill: none; stroke: #004ba0"/>
    <path d="M 273.690627 128.16 
L 273.690627 125.388 
" clip-path="url(#p255c57af64)" style="fill: none; stroke: #004ba0"/>
    <path d="M 286.026899 128.16 
L 286.026899 125.388 
" clip-path="url(#p255c57af64)" style="fill: none; stroke: #004ba0"/>
    <path d="M 188.957586 128.16 
L 188.957586 125.388 
" clip-path="url(#p255c57af64)" style="fill: none; stroke: #004ba0"/>
    <path d="M 249.338885 128.16 
L 249.338885 125.388 
" clip-path="url(#p255c57af64)" style="fill: none; stroke: #004ba0"/>
    <path d="M 252.080279 128.16 
L 252.080279 125.388 
" clip-path="url(#p255c57af64)" style="fill: none; stroke: #004ba0"/>
    <path d="M 262.761097 128.16 
L 262.761097 125.388 
" clip-path="url(#p255c57af64)" style="fill: none; stroke: #004ba0"/>
    <path d="M 258.583798 128.16 
L 258.583798 125.388 
" clip-path="url(#p255c57af64)" style="fill: none; stroke: #004ba0"/>
    <path d="M 269.636864 128.16 
L 269.636864 125.388 
" clip-path="url(#p255c57af64)" style="fill: none; stroke: #004ba0"/>
    <path d="M 267.245436 128.16 
L 267.245436 125.388 
" clip-path="url(#p255c57af64)" style="fill: none; stroke: #004ba0"/>
    <path d="M 256.250697 128.16 
L 256.250697 125.388 
" clip-path="url(#p255c57af64)" style="fill: none; stroke: #004ba0"/>
    <path d="M 254.850836 128.16 
L 254.850836 125.388 
" clip-path="url(#p255c57af64)" style="fill: none; stroke: #004ba0"/>
    <path d="M 223.966411 128.16 
L 223.966411 125.388 
" clip-path="url(#p255c57af64)" style="fill: none; stroke: #004ba0"/>
    <path d="M 276.315366 128.16 
L 276.315366 125.388 
" clip-path="url(#p255c57af64)" style="fill: none; stroke: #004ba0"/>
    <path d="M 264.228851 128.16 
L 264.228851 125.388 
" clip-path="url(#p255c57af64)" style="fill: none; stroke: #004ba0"/>
    <path d="M 253.744509 128.16 
L 253.744509 125.388 
" clip-path="url(#p255c57af64)" style="fill: none; stroke: #004ba0"/>
    <path d="M 231.327531 128.16 
L 231.327531 125.388 
" clip-path="url(#p255c57af64)" style="fill: none; stroke: #004ba0"/>
    <path d="M 281.750341 128.16 
L 281.750341 125.388 
" clip-path="url(#p255c57af64)" style="fill: none; stroke: #004ba0"/>
    <path d="M 240.298118 128.16 
L 240.298118 125.388 
" clip-path="url(#p255c57af64)" style="fill: none; stroke: #004ba0"/>
    <path d="M 239.685679 128.16 
L 239.685679 125.388 
" clip-path="url(#p255c57af64)" style="fill: none; stroke: #004ba0"/>
    <path d="M 293.964352 128.16 
L 293.964352 125.388 
" clip-path="url(#p255c57af64)" style="fill: none; stroke: #004ba0"/>
    <path d="M 251.93446 128.16 
L 251.93446 125.388 
" clip-path="url(#p255c57af64)" style="fill: none; stroke: #004ba0"/>
    <path d="M 211.28178 128.16 
L 211.28178 125.388 
" clip-path="url(#p255c57af64)" style="fill: none; stroke: #004ba0"/>
    <path d="M 280.048328 128.16 
L 280.048328 125.388 
" clip-path="url(#p255c57af64)" style="fill: none; stroke: #004ba0"/>
    <path d="M 218.300048 128.16 
L 218.300048 125.388 
" clip-path="url(#p255c57af64)" style="fill: none; stroke: #004ba0"/>
    <path d="M 269.491045 128.16 
L 269.491045 125.388 
" clip-path="url(#p255c57af64)" style="fill: none; stroke: #004ba0"/>
    <path d="M 255.638258 128.16 
L 255.638258 125.388 
" clip-path="url(#p255c57af64)" style="fill: none; stroke: #004ba0"/>
    <path d="M 226.672102 128.16 
L 226.672102 125.388 
" clip-path="url(#p255c57af64)" style="fill: none; stroke: #004ba0"/>
    <path d="M 256.717317 128.16 
L 256.717317 125.388 
" clip-path="url(#p255c57af64)" style="fill: none; stroke: #004ba0"/>
    <path d="M 281.623171 128.16 
L 281.623171 125.388 
" clip-path="url(#p255c57af64)" style="fill: none; stroke: #004ba0"/>
    <path d="M 257.708885 128.16 
L 257.708885 125.388 
" clip-path="url(#p255c57af64)" style="fill: none; stroke: #004ba0"/>
    <path d="M 225.862056 128.16 
L 225.862056 125.388 
" clip-path="url(#p255c57af64)" style="fill: none; stroke: #004ba0"/>
    <path d="M 266.137213 128.16 
L 266.137213 125.388 
" clip-path="url(#p255c57af64)" style="fill: none; stroke: #004ba0"/>
    <path d="M 216.165195 128.16 
L 216.165195 125.388 
" clip-path="url(#p255c57af64)" style="fill: none; stroke: #004ba0"/>
    <path d="M 235.456934 128.16 
L 235.456934 125.388 
" clip-path="url(#p255c57af64)" style="fill: none; stroke: #004ba0"/>
    <path d="M 254.150906 128.16 
L 254.150906 125.388 
" clip-path="url(#p255c57af64)" style="fill: none; stroke: #004ba0"/>
    <path d="M 249.659686 128.16 
L 249.659686 125.388 
" clip-path="url(#p255c57af64)" style="fill: none; stroke: #004ba0"/>
    <path d="M 213.969947 128.16 
L 213.969947 125.388 
" clip-path="url(#p255c57af64)" style="fill: none; stroke: #004ba0"/>
    <path d="M 216.573187 128.16 
L 216.573187 125.388 
" clip-path="url(#p255c57af64)" style="fill: none; stroke: #004ba0"/>
    <path d="M 226.197648 128.16 
L 226.197648 125.388 
" clip-path="url(#p255c57af64)" style="fill: none; stroke: #004ba0"/>
    <path d="M 248.604335 128.16 
L 248.604335 125.388 
" clip-path="url(#p255c57af64)" style="fill: none; stroke: #004ba0"/>
    <path d="M 255.229965 128.16 
L 255.229965 125.388 
" clip-path="url(#p255c57af64)" style="fill: none; stroke: #004ba0"/>
    <path d="M 266.328734 128.16 
L 266.328734 125.388 
" clip-path="url(#p255c57af64)" style="fill: none; stroke: #004ba0"/>
    <path d="M 260.422815 128.16 
L 260.422815 125.388 
" clip-path="url(#p255c57af64)" style="fill: none; stroke: #004ba0"/>
    <path d="M 259.462717 128.16 
L 259.462717 125.388 
" clip-path="url(#p255c57af64)" style="fill: none; stroke: #004ba0"/>
    <path d="M 272.328804 128.16 
L 272.328804 125.388 
" clip-path="url(#p255c57af64)" style="fill: none; stroke: #004ba0"/>
    <path d="M 246.475199 128.16 
L 246.475199 125.388 
" clip-path="url(#p255c57af64)" style="fill: none; stroke: #004ba0"/>
    <path d="M 244.250804 128.16 
L 244.250804 125.388 
" clip-path="url(#p255c57af64)" style="fill: none; stroke: #004ba0"/>
    <path d="M 249.776341 128.16 
L 249.776341 125.388 
" clip-path="url(#p255c57af64)" style="fill: none; stroke: #004ba0"/>
   </g>
   <g id="patch_7">
    <path d="M 54 128.16 
L 54 17.28 
" style="fill: none; stroke: #000000; stroke-width: 0.8; stroke-linejoin: miter; stroke-linecap: square"/>
   </g>
   <g id="patch_8">
    <path d="M 54 128.16 
L 388.8 128.16 
" style="fill: none; stroke: #000000; stroke-width: 0.8; stroke-linejoin: miter; stroke-linecap: square"/>
   </g>
  </g>
 </g>
 <defs>
  <clipPath id="p255c57af64">
   <rect x="54" y="17.28" width="334.8" height="110.88"/>
  </clipPath>
 </defs>
</svg>
