<?xml version="1.0" encoding="utf-8" standalone="no"?>
<!DOCTYPE svg PUBLIC "-//W3C//DTD SVG 1.1//EN"
  "http://www.w3.org/Graphics/SVG/1.1/DTD/svg11.dtd">
<svg xmlns:xlink="http://www.w3.org/1999/xlink" width="288pt" height="288pt" viewBox="0 0 288 288" xmlns="http://www.w3.org/2000/svg" version="1.1">
 <metadata>
  <rdf:RDF xmlns:dc="http://purl.org/dc/elements/1.1/" xmlns:cc="http://creativecommons.org/ns#" xmlns:rdf="http://www.w3.org/1999/02/22-rdf-syntax-ns#">
   <cc:Work>
    <dc:type rdf:resource="http://purl.org/dc/dcmitype/StillImage"/>
    <dc:date>2026-02-17T13:07:42.849162</dc:date>
    <dc:format>image/svg+xml</dc:format>
    <dc:creator>
     <cc:Agent>
      <dc:title>Matplotlib v3.10.6, https://matplotlib.org/</dc:title>
     </cc:Agent>
    </dc:creator>
   </cc:Work>
  </rdf:RDF>
 </metadata>
 <defs>
  <style type="text/css">*{stroke-linejoin: round; stroke-linecap: butt}</style>
 </defs>
 <g id="figure_1">
  <g id="patch_1">
   <path d="M 0 288 
L 288 288 
L 288 0 
L 0 0 
z
" style="fill: #ffffff"/>
  </g>
  <g id="axes_1">
   <g id="patch_2">
    <path d="M 36 256.32 
L 259.2 256.32 
L 259.2 34.56 
L 36 34.56 
z
" style="fill: #ffffff"/>
   </g>
   <g id="matplotlib.axis_1">
    <g id="xtick_1">
     <g id="line2d_1">
      <defs>
       <path id="mbc23068f8a" d="M 0 0 
L 0 3.5 
" style="stroke: #000000; stroke-width: 0.8"/>
      </defs>
      <g>
       <use xlink:href="#mbc23068f8a" x="63.500944" y="145.44" style="stroke: #000000; stroke-width: 0.8"/>
      </g>
     </g>
    </g>
    <g id="xtick_2">
     <g id="line2d_2">
      <g>
       <use xlink:href="#mbc23068f8a" x="245.9748" y="145.44" style="stroke: #000000; stroke-width: 0.8"/>
      </g>
     </g>
    </g>
    <g id="xtick_3">
     <g id="line2d_3">
      <defs>
       <path id="m969f9d8231" d="M 0 0 
L 0 2 
" style="stroke: #000000; stroke-width: 0.6"/>
      </defs>
      <g>
       <use xlink:href="#m969f9d8231" x="39.296395" y="145.44" style="stroke: #000000; stroke-width: 0.6"/>
      </g>
     </g>
    </g>
    <g id="xtick_4">
     <g id="line2d_4">
      <g>
       <use xlink:href="#m969f9d8231" x="45.190909" y="145.44" style="stroke: #000000; stroke-width: 0.6"/>
      </g>
     </g>
    </g>
    <g id="xtick_5">
     <g id="line2d_5">
      <g>
       <use xlink:href="#m969f9d8231" x="50.007078" y="145.44" style="stroke: #000000; stroke-width: 0.6"/>
      </g>
     </g>
    </g>
    <g id="xtick_6">
     <g id="line2d_6">
      <g>
       <use xlink:href="#m969f9d8231" x="54.079091" y="145.44" style="stroke: #000000; stroke-width: 0.6"/>
      </g>
     </g>
    </g>
    <g id="xtick_7">
     <g id="line2d_7">
      <g>
       <use xlink:href="#m969f9d8231" x="57.606429" y="145.44" style="stroke: #000000; stroke-width: 0.6"/>
      </g>
     </g>
    </g>
    <g id="xtick_8">
     <g id="line2d_8">
      <g>
       <use xlink:href="#m969f9d8231" x="60.717762" y="145.44" style="stroke: #000000; stroke-width: 0.6"/>
      </g>
     </g>
    </g>
    <g id="xtick_9">
     <g id="line2d_9">
      <g>
       <use xlink:href="#m969f9d8231" x="81.810979" y="145.44" style="stroke: #000000; stroke-width: 0.6"/>
      </g>
     </g>
    </g>
    <g id="xtick_10">
     <g id="line2d_10">
      <g>
       <use xlink:href="#m969f9d8231" x="92.521662" y="145.44" style="stroke: #000000; stroke-width: 0.6"/>
      </g>
     </g>
    </g>
    <g id="xtick_11">
     <g id="line2d_11">
      <g>
       <use xlink:href="#m969f9d8231" x="100.121013" y="145.44" style="stroke: #000000; stroke-width: 0.6"/>
      </g>
     </g>
    </g>
    <g id="xtick_12">
     <g id="line2d_12">
      <g>
       <use xlink:href="#m969f9d8231" x="106.015528" y="145.44" style="stroke: #000000; stroke-width: 0.6"/>
      </g>
     </g>
    </g>
    <g id="xtick_13">
     <g id="line2d_13">
      <g>
       <use xlink:href="#m969f9d8231" x="110.831697" y="145.44" style="stroke: #000000; stroke-width: 0.6"/>
      </g>
     </g>
    </g>
    <g id="xtick_14">
     <g id="line2d_14">
      <g>
       <use xlink:href="#m969f9d8231" x="114.90371" y="145.44" style="stroke: #000000; stroke-width: 0.6"/>
      </g>
     </g>
    </g>
    <g id="xtick_15">
     <g id="line2d_15">
      <g>
       <use xlink:href="#m969f9d8231" x="118.431048" y="145.44" style="stroke: #000000; stroke-width: 0.6"/>
      </g>
     </g>
    </g>
    <g id="xtick_16">
     <g id="line2d_16">
      <g>
       <use xlink:href="#m969f9d8231" x="121.542381" y="145.44" style="stroke: #000000; stroke-width: 0.6"/>
      </g>
     </g>
    </g>
    <g id="xtick_17">
     <g id="line2d_17">
      <g>
       <use xlink:href="#m969f9d8231" x="142.635597" y="145.44" style="stroke: #000000; stroke-width: 0.6"/>
      </g>
     </g>
    </g>
    <g id="xtick_18">
     <g id="line2d_18">
      <g>
       <use xlink:href="#m969f9d8231" x="153.346281" y="145.44" style="stroke: #000000; stroke-width: 0.6"/>
      </g>
     </g>
    </g>
    <g id="xtick_19">
     <g id="line2d_19">
      <g>
       <use xlink:href="#m969f9d8231" x="160.945632" y="145.44" style="stroke: #000000; stroke-width: 0.6"/>
      </g>
     </g>
    </g>
    <g id="xtick_20">
     <g id="line2d_20">
      <g>
       <use xlink:href="#m969f9d8231" x="166.840146" y="145.44" style="stroke: #000000; stroke-width: 0.6"/>
      </g>
     </g>
    </g>
    <g id="xtick_21">
     <g id="line2d_21">
      <g>
       <use xlink:href="#m969f9d8231" x="171.656316" y="145.44" style="stroke: #000000; stroke-width: 0.6"/>
      </g>
     </g>
    </g>
    <g id="xtick_22">
     <g id="line2d_22">
      <g>
       <use xlink:href="#m969f9d8231" x="175.728329" y="145.44" style="stroke: #000000; stroke-width: 0.6"/>
      </g>
     </g>
    </g>
    <g id="xtick_23">
     <g id="line2d_23">
      <g>
       <use xlink:href="#m969f9d8231" x="179.255667" y="145.44" style="stroke: #000000; stroke-width: 0.6"/>
      </g>
     </g>
    </g>
    <g id="xtick_24">
     <g id="line2d_24">
      <g>
       <use xlink:href="#m969f9d8231" x="182.366999" y="145.44" style="stroke: #000000; stroke-width: 0.6"/>
      </g>
     </g>
    </g>
    <g id="xtick_25">
     <g id="line2d_25">
      <g>
       <use xlink:href="#m969f9d8231" x="203.460216" y="145.44" style="stroke: #000000; stroke-width: 0.6"/>
      </g>
     </g>
    </g>
    <g id="xtick_26">
     <g id="line2d_26">
      <g>
       <use xlink:href="#m969f9d8231" x="214.170899" y="145.44" style="stroke: #000000; stroke-width: 0.6"/>
      </g>
     </g>
    </g>
    <g id="xtick_27">
     <g id="line2d_27">
      <g>
       <use xlink:href="#m969f9d8231" x="221.77025" y="145.44" style="stroke: #000000; stroke-width: 0.6"/>
      </g>
     </g>
    </g>
    <g id="xtick_28">
     <g id="line2d_28">
      <g>
       <use xlink:href="#m969f9d8231" x="227.664765" y="145.44" style="stroke: #000000; stroke-width: 0.6"/>
      </g>
     </g>
    </g>
    <g id="xtick_29">
     <g id="line2d_29">
      <g>
       <use xlink:href="#m969f9d8231" x="232.480934" y="145.44" style="stroke: #000000; stroke-width: 0.6"/>
      </g>
     </g>
    </g>
    <g id="xtick_30">
     <g id="line2d_30">
      <g>
       <use xlink:href="#m969f9d8231" x="236.552947" y="145.44" style="stroke: #000000; stroke-width: 0.6"/>
      </g>
     </g>
    </g>
    <g id="xtick_31">
     <g id="line2d_31">
      <g>
       <use xlink:href="#m969f9d8231" x="240.080285" y="145.44" style="stroke: #000000; stroke-width: 0.6"/>
      </g>
     </g>
    </g>
    <g id="xtick_32">
     <g id="line2d_32">
      <g>
       <use xlink:href="#m969f9d8231" x="243.191618" y="145.44" style="stroke: #000000; stroke-width: 0.6"/>
      </g>
     </g>
    </g>
   </g>
   <g id="matplotlib.axis_2">
    <g id="ytick_1">
     <g id="line2d_33">
      <defs>
       <path id="m2286a67668" d="M 0 0 
L -3.5 0 
" style="stroke: #000000; stroke-width: 0.8"/>
      </defs>
      <g>
       <use xlink:href="#m2286a67668" x="36" y="256.32" style="stroke: #000000; stroke-width: 0.8"/>
      </g>
     </g>
     <g id="text_1">
      <!-- −4 -->
      <g transform="translate(14.257812 260.119219) scale(0.1 -0.1)">
       <defs>
        <path id="DejaVuSans-2212" d="M 678 2272 
L 4684 2272 
L 4684 1741 
L 678 1741 
L 678 2272 
z
" transform="scale(0.015625)"/>
        <path id="DejaVuSans-34" d="M 2419 4116 
L 825 1625 
L 2419 1625 
L 2419 4116 
z
M 2253 4666 
L 3047 4666 
L 3047 1625 
L 3713 1625 
L 3713 1100 
L 3047 1100 
L 3047 0 
L 2419 0 
L 2419 1100 
L 313 1100 
L 313 1709 
L 2253 4666 
z
" transform="scale(0.015625)"/>
       </defs>
       <use xlink:href="#DejaVuSans-2212"/>
       <use xlink:href="#DejaVuSans-34" transform="translate(83.789062 0)"/>
      </g>
     </g>
    </g>
    <g id="ytick_2">
     <g id="line2d_34">
      <g>
       <use xlink:href="#m2286a67668" x="36" y="228.6" style="stroke: #000000; stroke-width: 0.8"/>
      </g>
     </g>
     <g id="text_2">
      <!-- −3 -->
      <g transform="translate(14.257812 232.399219) scale(0.1 -0.1)">
       <defs>
        <path id="DejaVuSans-33" d="M 2597 2516 
Q 3050 2419 3304 2112 
Q 3559 1806 3559 1356 
Q 3559 666 3084 287 
Q 2609 -91 1734 -91 
Q 1441 -91 1130 -33 
Q 819 25 488 141 
L 488 750 
Q 750 597 1062 519 
Q 1375 441 1716 441 
Q 2309 441 2620 675 
Q 2931 909 2931 1356 
Q 2931 1769 2642 2001 
Q 2353 2234 1838 2234 
L 1294 2234 
L 1294 2753 
L 1863 2753 
Q 2328 2753 2575 2939 
Q 2822 3125 2822 3475 
Q 2822 3834 2567 4026 
Q 2313 4219 1838 4219 
Q 1578 4219 1281 4162 
Q 984 4106 628 3988 
L 628 4550 
Q 988 4650 1302 4700 
Q 1616 4750 1894 4750 
Q 2613 4750 3031 4423 
Q 3450 4097 3450 3541 
Q 3450 3153 3228 2886 
Q 3006 2619 2597 2516 
z
" transform="scale(0.015625)"/>
       </defs>
       <use xlink:href="#DejaVuSans-2212"/>
       <use xlink:href="#DejaVuSans-33" transform="translate(83.789062 0)"/>
      </g>
     </g>
    </g>
    <g id="ytick_3">
     <g id="line2d_35">
      <g>
       <use xlink:href="#m2286a67668" x="36" y="200.88" style="stroke: #000000; stroke-width: 0.8"/>
      </g>
     </g>
     <g id="text_3">
      <!-- −2 -->
      <g transform="translate(14.257812 204.679219) scale(0.1 -0.1)">
       <defs>
        <path id="DejaVuSans-32" d="M 1228 531 
L 3431 531 
L 3431 0 
L 469 0 
L 469 531 
Q 828 903 1448 1529 
Q 2069 2156 2228 2338 
Q 2531 2678 2651 2914 
Q 2772 3150 2772 3378 
Q 2772 3750 2511 3984 
Q 2250 4219 1831 4219 
Q 1534 4219 1204 4116 
Q 875 4013 500 3803 
L 500 4441 
Q 881 4594 1212 4672 
Q 1544 4750 1819 4750 
Q 2544 4750 2975 4387 
Q 3406 4025 3406 3419 
Q 3406 3131 3298 2873 
Q 3191 2616 2906 2266 
Q 2828 2175 2409 1742 
Q 1991 1309 1228 531 
z
" transform="scale(0.015625)"/>
       </defs>
       <use xlink:href="#DejaVuSans-2212"/>
       <use xlink:href="#DejaVuSans-32" transform="translate(83.789062 0)"/>
      </g>
     </g>
    </g>
    <g id="ytick_4">
     <g id="line2d_36">
      <g>
       <use xlink:href="#m2286a67668" x="36" y="173.16" style="stroke: #000000; stroke-width: 0.8"/>
      </g>
     </g>
     <g id="text_4">
      <!-- −1 -->
      <g transform="translate(14.257812 176.959219) scale(0.1 -0.1)">
       <defs>
        <path id="DejaVuSans-31" d="M 794 531 
L 1825 531 
L 1825 4091 
L 703 3866 
L 703 4441 
L 1819 4666 
L 2450 4666 
L 2450 531 
L 3481 531 
L 3481 0 
L 794 0 
L 794 531 
z
" transform="scale(0.015625)"/>
       </defs>
       <use xlink:href="#DejaVuSans-2212"/>
       <use xlink:href="#DejaVuSans-31" transform="translate(83.789062 0)"/>
      </g>
     </g>
    </g>
    <g id="ytick_5">
     <g id="line2d_37">
      <g>
       <use xlink:href="#m2286a67668" x="36" y="145.44" style="stroke: #000000; stroke-width: 0.8"/>
      </g>
     </g>
     <g id="text_5">
      <!-- 0 -->
      <g transform="translate(22.6375 149.239219) scale(0.1 -0.1)">
       <defs>
        <path id="DejaVuSans-30" d="M 2034 4250 
Q 1547 4250 1301 3770 
Q 1056 3291 1056 2328 
Q 1056 1369 1301 889 
Q 1547 409 2034 409 
Q 2525 409 2770 889 
Q 3016 1369 3016 2328 
Q 3016 3291 2770 3770 
Q 2525 4250 2034 4250 
z
M 2034 4750 
Q 2819 4750 3233 4129 
Q 3647 3509 3647 2328 
Q 3647 1150 3233 529 
Q 2819 -91 2034 -91 
Q 1250 -91 836 529 
Q 422 1150 422 2328 
Q 422 3509 836 4129 
Q 1250 4750 2034 4750 
z
" transform="scale(0.015625)"/>
       </defs>
       <use xlink:href="#DejaVuSans-30"/>
      </g>
     </g>
    </g>
    <g id="ytick_6">
     <g id="line2d_38">
      <g>
       <use xlink:href="#m2286a67668" x="36" y="117.72" style="stroke: #000000; stroke-width: 0.8"/>
      </g>
     </g>
     <g id="text_6">
      <!-- 1 -->
      <g transform="translate(22.6375 121.519219) scale(0.1 -0.1)">
       <use xlink:href="#DejaVuSans-31"/>
      </g>
     </g>
    </g>
    <g id="ytick_7">
     <g id="line2d_39">
      <g>
       <use xlink:href="#m2286a67668" x="36" y="90" style="stroke: #000000; stroke-width: 0.8"/>
      </g>
     </g>
     <g id="text_7">
      <!-- 2 -->
      <g transform="translate(22.6375 93.799219) scale(0.1 -0.1)">
       <use xlink:href="#DejaVuSans-32"/>
      </g>
     </g>
    </g>
    <g id="ytick_8">
     <g id="line2d_40">
      <g>
       <use xlink:href="#m2286a67668" x="36" y="62.28" style="stroke: #000000; stroke-width: 0.8"/>
      </g>
     </g>
     <g id="text_8">
      <!-- 3 -->
      <g transform="translate(22.6375 66.079219) scale(0.1 -0.1)">
       <use xlink:href="#DejaVuSans-33"/>
      </g>
     </g>
    </g>
    <g id="ytick_9">
     <g id="line2d_41">
      <g>
       <use xlink:href="#m2286a67668" x="36" y="34.56" style="stroke: #000000; stroke-width: 0.8"/>
      </g>
     </g>
     <g id="text_9">
      <!-- 4 -->
      <g transform="translate(22.6375 38.359219) scale(0.1 -0.1)">
       <use xlink:href="#DejaVuSans-34"/>
      </g>
     </g>
    </g>
   </g>
   <g id="line2d_42">
    <path d="M 169.945968 145.341406 
L 124.469213 174.413924 
L 166.074908 151.18214 
L 203.766126 136.551956 
L 196.793127 121.19886 
L 178.982174 157.272398 
L 225.409361 132.261735 
L 163.40459 122.771186 
L 172.643929 165.052067 
L 94.413528 180.947918 
L 139.570596 148.464614 
L 112.345732 179.231444 
L 192.920563 126.052341 
L 146.149157 127.119806 
L 135.547785 153.564662 
L 232.191972 106.381522 
L 153.260001 158.149617 
L 153.782971 163.959598 
L 142.911087 165.139067 
L 185.272685 106.86272 
L 185.08943 166.05516 
" clip-path="url(#pea7f2fad64)" style="fill: none"/>
    <defs>
     <path id="m52ca15c845" d="M 0 -7.071068 
L -7.071068 -0 
L -0 7.071068 
L 0 -7.071068 
"/>
    </defs>
    <g clip-path="url(#pea7f2fad64)">
     <use xlink:href="#m52ca15c845" x="169.945968" y="145.341406" style="fill: #d32f2f"/>
     <use xlink:href="#m52ca15c845" x="124.469213" y="174.413924" style="fill: #d32f2f"/>
     <use xlink:href="#m52ca15c845" x="166.074908" y="151.18214" style="fill: #d32f2f"/>
     <use xlink:href="#m52ca15c845" x="203.766126" y="136.551956" style="fill: #d32f2f"/>
     <use xlink:href="#m52ca15c845" x="196.793127" y="121.19886" style="fill: #d32f2f"/>
     <use xlink:href="#m52ca15c845" x="178.982174" y="157.272398" style="fill: #d32f2f"/>
     <use xlink:href="#m52ca15c845" x="225.409361" y="132.261735" style="fill: #d32f2f"/>
     <use xlink:href="#m52ca15c845" x="163.40459" y="122.771186" style="fill: #d32f2f"/>
     <use xlink:href="#m52ca15c845" x="172.643929" y="165.052067" style="fill: #d32f2f"/>
     <use xlink:href="#m52ca15c845" x="94.413528" y="180.947918" style="fill: #d32f2f"/>
     <use xlink:href="#m52ca15c845" x="139.570596" y="148.464614" style="fill: #d32f2f"/>
     <use xlink:href="#m52ca15c845" x="112.345732" y="179.231444" style="fill: #d32f2f"/>
     <use xlink:href="#m52ca15c845" x="192.920563" y="126.052341" style="fill: #d32f2f"/>
     <use xlink:href="#m52ca15c845" x="146.149157" y="127.119806" style="fill: #d32f2f"/>
     <use xlink:href="#m52ca15c845" x="135.547785" y="153.564662" style="fill: #d32f2f"/>
     <use xlink:href="#m52ca15c845" x="232.191972" y="106.381522" style="fill: #d32f2f"/>
     <use xlink:href="#m52ca15c845" x="153.260001" y="158.149617" style="fill: #d32f2f"/>
     <use xlink:href="#m52ca15c845" x="153.782971" y="163.959598" style="fill: #d32f2f"/>
     <use xlink:href="#m52ca15c845" x="142.911087" y="165.139067" style="fill: #d32f2f"/>
     <use xlink:href="#m52ca15c845" x="185.272685" y="106.86272" style="fill: #d32f2f"/>
     <use xlink:href="#m52ca15c845" x="185.08943" y="166.05516" style="fill: #d32f2f"/>
    </g>
    <defs>
     <path id="m5bb821350d" d="M 0 -7.071068 
L 7.071068 0 
L -0 7.071068 
L 0 -7.071068 
"/>
    </defs>
    <g clip-path="url(#pea7f2fad64)">
     <use xlink:href="#m5bb821350d" x="169.945968" y="145.341406" style="fill: #ffffff"/>
     <use xlink:href="#m5bb821350d" x="124.469213" y="174.413924" style="fill: #ffffff"/>
     <use xlink:href="#m5bb821350d" x="166.074908" y="151.18214" style="fill: #ffffff"/>
     <use xlink:href="#m5bb821350d" x="203.766126" y="136.551956" style="fill: #ffffff"/>
     <use xlink:href="#m5bb821350d" x="196.793127" y="121.19886" style="fill: #ffffff"/>
     <use xlink:href="#m5bb821350d" x="178.982174" y="157.272398" style="fill: #ffffff"/>
     <use xlink:href="#m5bb821350d" x="225.409361" y="132.261735" style="fill: #ffffff"/>
     <use xlink:href="#m5bb821350d" x="163.40459" y="122.771186" style="fill: #ffffff"/>
     <use xlink:href="#m5bb821350d" x="172.643929" y="165.052067" style="fill: #ffffff"/>
     <use xlink:href="#m5bb821350d" x="94.413528" y="180.947918" style="fill: #ffffff"/>
     <use xlink:href="#m5bb821350d" x="139.570596" y="148.464614" style="fill: #ffffff"/>
     <use xlink:href="#m5bb821350d" x="112.345732" y="179.231444" style="fill: #ffffff"/>
     <use xlink:href="#m5bb821350d" x="192.920563" y="126.052341" style="fill: #ffffff"/>
     <use xlink:href="#m5bb821350d" x="146.149157" y="127.119806" style="fill: #ffffff"/>
     <use xlink:href="#m5bb821350d" x="135.547785" y="153.564662" style="fill: #ffffff"/>
     <use xlink:href="#m5bb821350d" x="232.191972" y="106.381522" style="fill: #ffffff"/>
     <use xlink:href="#m5bb821350d" x="153.260001" y="158.149617" style="fill: #ffffff"/>
     <use xlink:href="#m5bb821350d" x="153.782971" y="163.959598" style="fill: #ffffff"/>
     <use xlink:href="#m5bb821350d" x="142.911087" y="165.139067" style="fill: #ffffff"/>
     <use xlink:href="#m5bb821350d" x="185.272685" y="106.86272" style="fill: #ffffff"/>
     <use xlink:href="#m5bb821350d" x="185.08943" y="166.05516" style="fill: #ffffff"/>
    </g>
   </g>
   <g id="line2d_43">
    <path d="M 169.945968 145.341406 
L 124.469213 174.413924 
L 166.074908 151.18214 
L 203.766126 136.551956 
L 196.793127 121.19886 
L 178.982174 157.272398 
L 225.409361 132.261735 
L 163.40459 122.771186 
L 172.643929 165.052067 
L 94.413528 180.947918 
L 139.570596 148.464614 
L 112.345732 179.231444 
L 192.920563 126.052341 
L 146.149157 127.119806 
L 135.547785 153.564662 
L 232.191972 106.381522 
L 153.260001 158.149617 
L 153.782971 163.959598 
L 142.911087 165.139067 
L 185.272685 106.86272 
L 185.08943 166.05516 
" clip-path="url(#pea7f2fad64)" style="fill: none"/>
    <defs>
     <path id="m28fb97759e" d="M -0 7.071068 
L 7.071068 0 
L 0 -7.071068 
L -7.071068 -0 
z
" style="stroke: #d32f2f; stroke-linejoin: miter"/>
    </defs>
    <g clip-path="url(#pea7f2fad64)">
     <use xlink:href="#m28fb97759e" x="169.945968" y="145.341406" style="fill-opacity: 0; stroke: #d32f2f; stroke-linejoin: miter"/>
     <use xlink:href="#m28fb97759e" x="124.469213" y="174.413924" style="fill-opacity: 0; stroke: #d32f2f; stroke-linejoin: miter"/>
     <use xlink:href="#m28fb97759e" x="166.074908" y="151.18214" style="fill-opacity: 0; stroke: #d32f2f; stroke-linejoin: miter"/>
     <use xlink:href="#m28fb97759e" x="203.766126" y="136.551956" style="fill-opacity: 0; stroke: #d32f2f; stroke-linejoin: miter"/>
     <use xlink:href="#m28fb97759e" x="196.793127" y="121.19886" style="fill-opacity: 0; stroke: #d32f2f; stroke-linejoin: miter"/>
     <use xlink:href="#m28fb97759e" x="178.982174" y="157.272398" style="fill-opacity: 0; stroke: #d32f2f; stroke-linejoin: miter"/>
     <use xlink:href="#m28fb97759e" x="225.409361" y="132.261735" style="fill-opacity: 0; stroke: #d32f2f; stroke-linejoin: miter"/>
     <use xlink:href="#m28fb97759e" x="163.40459" y="122.771186" style="fill-opacity: 0; stroke: #d32f2f; stroke-linejoin: miter"/>
     <use xlink:href="#m28fb97759e" x="172.643929" y="165.052067" style="fill-opacity: 0; stroke: #d32f2f; stroke-linejoin: miter"/>
     <use xlink:href="#m28fb97759e" x="94.413528" y="180.947918" style="fill-opacity: 0; stroke: #d32f2f; stroke-linejoin: miter"/>
     <use xlink:href="#m28fb97759e" x="139.570596" y="148.464614" style="fill-opacity: 0; stroke: #d32f2f; stroke-linejoin: miter"/>
     <use xlink:href="#m28fb97759e" x="112.345732" y="179.231444" style="fill-opacity: 0; stroke: #d32f2f; stroke-linejoin: miter"/>
     <use xlink:href="#m28fb97759e" x="192.920563" y="126.052341" style="fill-opacity: 0; stroke: #d32f2f; stroke-linejoin: miter"/>
     <use xlink:href="#m28fb97759e" x="146.149157" y="127.119806" style="fill-opacity: 0; stroke: #d32f2f; stroke-linejoin: miter"/>
     <use xlink:href="#m28fb97759e" x="135.547785" y="153.564662" style="fill-opacity: 0; stroke: #d32f2f; stroke-linejoin: miter"/>
     <use xlink:href="#m28fb97759e" x="232.191972" y="106.381522" style="fill-opacity: 0; stroke: #d32f2f; stroke-linejoin: miter"/>
     <use xlink:href="#m28fb97759e" x="153.260001" y="158.149617" style="fill-opacity: 0; stroke: #d32f2f; stroke-linejoin: miter"/>
     <use xlink:href="#m28fb97759e" x="153.782971" y="163.959598" style="fill-opacity: 0; stroke: #d32f2f; stroke-linejoin: miter"/>
     <use xlink:href="#m28fb97759e" x="142.911087" y="165.139067" style="fill-opacity: 0; stroke: #d32f2f; stroke-linejoin: miter"/>
     <use xlink:href="#m28fb97759e" x="185.272685" y="106.86272" style="fill-opacity: 0; stroke: #d32f2f; stroke-linejoin: miter"/>
     <use xlink:href="#m28fb97759e" x="185.08943" y="166.05516" style="fill-opacity: 0; stroke: #d32f2f; stroke-linejoin: miter"/>
    </g>
   </g>
   <g id="line2d_44">
    <path d="M 151.818721 137.862833 
L 182.229496 127.35417 
L 171.189192 168.158241 
L 181.22066 108.38833 
L 214.258072 142.325038 
L 187.45932 165.653461 
L 118.860707 168.765553 
L 166.302761 141.804472 
L 249.054545 99.831292 
L 187.34492 81.586682 
L 138.164912 161.710409 
L 46.145455 222.734782 
L 146.126328 123.638309 
L 59.969666 189.675876 
L 159.405829 159.823204 
L 121.492877 156.702059 
L 122.97756 135.92322 
L 168.565756 105.09432 
L 168.041025 150.233907 
L 185.533063 127.7997 
" clip-path="url(#pea7f2fad64)" style="fill: none"/>
    <defs>
     <path id="m36bcccdd7b" d="M -0 7.071068 
L 7.071068 0 
L 0 -7.071068 
L -0 7.071068 
"/>
    </defs>
    <g clip-path="url(#pea7f2fad64)">
     <use xlink:href="#m36bcccdd7b" x="151.818721" y="137.862833" style="fill: #1976d2"/>
     <use xlink:href="#m36bcccdd7b" x="182.229496" y="127.35417" style="fill: #1976d2"/>
     <use xlink:href="#m36bcccdd7b" x="171.189192" y="168.158241" style="fill: #1976d2"/>
     <use xlink:href="#m36bcccdd7b" x="181.22066" y="108.38833" style="fill: #1976d2"/>
     <use xlink:href="#m36bcccdd7b" x="214.258072" y="142.325038" style="fill: #1976d2"/>
     <use xlink:href="#m36bcccdd7b" x="187.45932" y="165.653461" style="fill: #1976d2"/>
     <use xlink:href="#m36bcccdd7b" x="118.860707" y="168.765553" style="fill: #1976d2"/>
     <use xlink:href="#m36bcccdd7b" x="166.302761" y="141.804472" style="fill: #1976d2"/>
     <use xlink:href="#m36bcccdd7b" x="249.054545" y="99.831292" style="fill: #1976d2"/>
     <use xlink:href="#m36bcccdd7b" x="187.34492" y="81.586682" style="fill: #1976d2"/>
     <use xlink:href="#m36bcccdd7b" x="138.164912" y="161.710409" style="fill: #1976d2"/>
     <use xlink:href="#m36bcccdd7b" x="46.145455" y="222.734782" style="fill: #1976d2"/>
     <use xlink:href="#m36bcccdd7b" x="146.126328" y="123.638309" style="fill: #1976d2"/>
     <use xlink:href="#m36bcccdd7b" x="59.969666" y="189.675876" style="fill: #1976d2"/>
     <use xlink:href="#m36bcccdd7b" x="159.405829" y="159.823204" style="fill: #1976d2"/>
     <use xlink:href="#m36bcccdd7b" x="121.492877" y="156.702059" style="fill: #1976d2"/>
     <use xlink:href="#m36bcccdd7b" x="122.97756" y="135.92322" style="fill: #1976d2"/>
     <use xlink:href="#m36bcccdd7b" x="168.565756" y="105.09432" style="fill: #1976d2"/>
     <use xlink:href="#m36bcccdd7b" x="168.041025" y="150.233907" style="fill: #1976d2"/>
     <use xlink:href="#m36bcccdd7b" x="185.533063" y="127.7997" style="fill: #1976d2"/>
    </g>
    <defs>
     <path id="m8ff06da742" d="M -0 7.071068 
L -7.071068 -0 
L 0 -7.071068 
L -0 7.071068 
"/>
    </defs>
    <g clip-path="url(#pea7f2fad64)">
     <use xlink:href="#m8ff06da742" x="151.818721" y="137.862833" style="fill: #ffffff"/>
     <use xlink:href="#m8ff06da742" x="182.229496" y="127.35417" style="fill: #ffffff"/>
     <use xlink:href="#m8ff06da742" x="171.189192" y="168.158241" style="fill: #ffffff"/>
     <use xlink:href="#m8ff06da742" x="181.22066" y="108.38833" style="fill: #ffffff"/>
     <use xlink:href="#m8ff06da742" x="214.258072" y="142.325038" style="fill: #ffffff"/>
     <use xlink:href="#m8ff06da742" x="187.45932" y="165.653461" style="fill: #ffffff"/>
     <use xlink:href="#m8ff06da742" x="118.860707" y="168.765553" style="fill: #ffffff"/>
     <use xlink:href="#m8ff06da742" x="166.302761" y="141.804472" style="fill: #ffffff"/>
     <use xlink:href="#m8ff06da742" x="249.054545" y="99.831292" style="fill: #ffffff"/>
     <use xlink:href="#m8ff06da742" x="187.34492" y="81.586682" style="fill: #ffffff"/>
     <use xlink:href="#m8ff06da742" x="138.164912" y="161.710409" style="fill: #ffffff"/>
     <use xlink:href="#m8ff06da742" x="46.145455" y="222.734782" style="fill: #ffffff"/>
     <use xlink:href="#m8ff06da742" x="146.126328" y="123.638309" style="fill: #ffffff"/>
     <use xlink:href="#m8ff06da742" x="59.969666" y="189.675876" style="fill: #ffffff"/>
     <use xlink:href="#m8ff06da742" x="159.405829" y="159.823204" style="fill: #ffffff"/>
     <use xlink:href="#m8ff06da742" x="121.492877" y="156.702059" style="fill: #ffffff"/>
     <use xlink:href="#m8ff06da742" x="122.97756" y="135.92322" style="fill: #ffffff"/>
     <use xlink:href="#m8ff06da742" x="168.565756" y="105.09432" style="fill: #ffffff"/>
     <use xlink:href="#m8ff06da742" x="168.041025" y="150.233907" style="fill: #ffffff"/>
     <use xlink:href="#m8ff06da742" x="185.533063" y="127.7997" style="fill: #ffffff"/>
    </g>
   </g>
   <g id="line2d_45">
    <path d="M 151.818721 137.862833 
L 182.229496 127.35417 
L 171.189192 168.158241 
L 181.22066 108.38833 
L 214.258072 142.325038 
L 187.45932 165.653461 
L 118.860707 168.765553 
L 166.302761 141.804472 
L 249.054545 99.831292 
L 187.34492 81.586682 
L 138.164912 161.710409 
L 46.145455 222.734782 
L 146.126328 123.638309 
L 59.969666 189.675876 
L 159.405829 159.823204 
L 121.492877 156.702059 
L 122.97756 135.92322 
L 168.565756 105.09432 
L 168.041025 150.233907 
L 185.533063 127.7997 
" clip-path="url(#pea7f2fad64)" style="fill: none"/>
    <defs>
     <path id="m1a4a3e003d" d="M -0 7.071068 
L 7.071068 0 
L 0 -7.071068 
L -7.071068 -0 
z
" style="stroke: #1976d2; stroke-linejoin: miter"/>
    </defs>
    <g clip-path="url(#pea7f2fad64)">
     <use xlink:href="#m1a4a3e003d" x="151.818721" y="137.862833" style="fill-opacity: 0; stroke: #1976d2; stroke-linejoin: miter"/>
     <use xlink:href="#m1a4a3e003d" x="182.229496" y="127.35417" style="fill-opacity: 0; stroke: #1976d2; stroke-linejoin: miter"/>
     <use xlink:href="#m1a4a3e003d" x="171.189192" y="168.158241" style="fill-opacity: 0; stroke: #1976d2; stroke-linejoin: miter"/>
     <use xlink:href="#m1a4a3e003d" x="181.22066" y="108.38833" style="fill-opacity: 0; stroke: #1976d2; stroke-linejoin: miter"/>
     <use xlink:href="#m1a4a3e003d" x="214.258072" y="142.325038" style="fill-opacity: 0; stroke: #1976d2; stroke-linejoin: miter"/>
     <use xlink:href="#m1a4a3e003d" x="187.45932" y="165.653461" style="fill-opacity: 0; stroke: #1976d2; stroke-linejoin: miter"/>
     <use xlink:href="#m1a4a3e003d" x="118.860707" y="168.765553" style="fill-opacity: 0; stroke: #1976d2; stroke-linejoin: miter"/>
     <use xlink:href="#m1a4a3e003d" x="166.302761" y="141.804472" style="fill-opacity: 0; stroke: #1976d2; stroke-linejoin: miter"/>
     <use xlink:href="#m1a4a3e003d" x="249.054545" y="99.831292" style="fill-opacity: 0; stroke: #1976d2; stroke-linejoin: miter"/>
     <use xlink:href="#m1a4a3e003d" x="187.34492" y="81.586682" style="fill-opacity: 0; stroke: #1976d2; stroke-linejoin: miter"/>
     <use xlink:href="#m1a4a3e003d" x="138.164912" y="161.710409" style="fill-opacity: 0; stroke: #1976d2; stroke-linejoin: miter"/>
     <use xlink:href="#m1a4a3e003d" x="46.145455" y="222.734782" style="fill-opacity: 0; stroke: #1976d2; stroke-linejoin: miter"/>
     <use xlink:href="#m1a4a3e003d" x="146.126328" y="123.638309" style="fill-opacity: 0; stroke: #1976d2; stroke-linejoin: miter"/>
     <use xlink:href="#m1a4a3e003d" x="59.969666" y="189.675876" style="fill-opacity: 0; stroke: #1976d2; stroke-linejoin: miter"/>
     <use xlink:href="#m1a4a3e003d" x="159.405829" y="159.823204" style="fill-opacity: 0; stroke: #1976d2; stroke-linejoin: miter"/>
     <use xlink:href="#m1a4a3e003d" x="121.492877" y="156.702059" style="fill-opacity: 0; stroke: #1976d2; stroke-linejoin: miter"/>
     <use xlink:href="#m1a4a3e003d" x="122.97756" y="135.92322" style="fill-opacity: 0; stroke: #1976d2; stroke-linejoin: miter"/>
     <use xlink:href="#m1a4a3e003d" x="168.565756" y="105.09432" style="fill-opacity: 0; stroke: #1976d2; stroke-linejoin: miter"/>
     <use xlink:href="#m1a4a3e003d" x="168.041025" y="150.233907" style="fill-opacity: 0; stroke: #1976d2; stroke-linejoin: miter"/>
     <use xlink:href="#m1a4a3e003d" x="185.533063" y="127.7997" style="fill-opacity: 0; stroke: #1976d2; stroke-linejoin: miter"/>
    </g>
   </g>
   <g id="patch_3">
    <path d="M 36 256.32 
L 36 34.56 
" style="fill: none; stroke: #000000; stroke-width: 0.8; stroke-linejoin: miter; stroke-linecap: square"/>
   </g>
   <g id="patch_4">
    <path d="M 36 145.44 
L 259.2 145.44 
" style="fill: none; stroke: #000000; stroke-width: 0.8; stroke-linejoin: miter; stroke-linecap: square"/>
   </g>
   <g id="text_10">
    <!-- CCL5: 0.61 -->
    <g transform="translate(106.565625 28.56) scale(0.15 -0.15)">
     <defs>
      <path id="DejaVuSans-43" d="M 4122 4306 
L 4122 3641 
Q 3803 3938 3442 4084 
Q 3081 4231 2675 4231 
Q 1875 4231 1450 3742 
Q 1025 3253 1025 2328 
Q 1025 1406 1450 917 
Q 1875 428 2675 428 
Q 3081 428 3442 575 
Q 3803 722 4122 1019 
L 4122 359 
Q 3791 134 3420 21 
Q 3050 -91 2638 -91 
Q 1578 -91 968 557 
Q 359 1206 359 2328 
Q 359 3453 968 4101 
Q 1578 4750 2638 4750 
Q 3056 4750 3426 4639 
Q 3797 4528 4122 4306 
z
" transform="scale(0.015625)"/>
      <path id="DejaVuSans-4c" d="M 628 4666 
L 1259 4666 
L 1259 531 
L 3531 531 
L 3531 0 
L 628 0 
L 628 4666 
z
" transform="scale(0.015625)"/>
      <path id="DejaVuSans-35" d="M 691 4666 
L 3169 4666 
L 3169 4134 
L 1269 4134 
L 1269 2991 
Q 1406 3038 1543 3061 
Q 1681 3084 1819 3084 
Q 2600 3084 3056 2656 
Q 3513 2228 3513 1497 
Q 3513 744 3044 326 
Q 2575 -91 1722 -91 
Q 1428 -91 1123 -41 
Q 819 9 494 109 
L 494 744 
Q 775 591 1075 516 
Q 1375 441 1709 441 
Q 2250 441 2565 725 
Q 2881 1009 2881 1497 
Q 2881 1984 2565 2268 
Q 2250 2553 1709 2553 
Q 1456 2553 1204 2497 
Q 953 2441 691 2322 
L 691 4666 
z
" transform="scale(0.015625)"/>
      <path id="DejaVuSans-3a" d="M 750 794 
L 1409 794 
L 1409 0 
L 750 0 
L 750 794 
z
M 750 3309 
L 1409 3309 
L 1409 2516 
L 750 2516 
L 750 3309 
z
" transform="scale(0.015625)"/>
      <path id="DejaVuSans-20" transform="scale(0.015625)"/>
      <path id="DejaVuSans-2e" d="M 684 794 
L 1344 794 
L 1344 0 
L 684 0 
L 684 794 
z
" transform="scale(0.015625)"/>
      <path id="DejaVuSans-36" d="M 2113 2584 
Q 1688 2584 1439 2293 
Q 1191 2003 1191 1497 
Q 1191 994 1439 701 
Q 1688 409 2113 409 
Q 2538 409 2786 701 
Q 3034 994 3034 1497 
Q 3034 2003 2786 2293 
Q 2538 2584 2113 2584 
z
M 3366 4563 
L 3366 3988 
Q 3128 4100 2886 4159 
Q 2644 4219 2406 4219 
Q 1781 4219 1451 3797 
Q 1122 3375 1075 2522 
Q 1259 2794 1537 2939 
Q 1816 3084 2150 3084 
Q 2853 3084 3261 2657 
Q 3669 2231 3669 1497 
Q 3669 778 3244 343 
Q 2819 -91 2113 -91 
Q 1303 -91 875 529 
Q 447 1150 447 2328 
Q 447 3434 972 4092 
Q 1497 4750 2381 4750 
Q 2619 4750 2861 4703 
Q 3103 4656 3366 4563 
z
" transform="scale(0.015625)"/>
     </defs>
     <use xlink:href="#DejaVuSans-43"/>
     <use xlink:href="#DejaVuSans-43" transform="translate(69.824219 0)"/>
     <use xlink:href="#DejaVuSans-4c" transform="translate(139.648438 0)"/>
     <use xlink:href="#DejaVuSans-35" transform="translate(195.361328 0)"/>
     <use xlink:href="#DejaVuSans-3a" transform="translate(258.984375 0)"/>
     <use xlink:href="#DejaVuSans-20" transform="translate(292.675781 0)"/>
     <use xlink:href="#DejaVuSans-30" transform="translate(324.462891 0)"/>
     <use xlink:href="#DejaVuSans-2e" transform="translate(388.085938 0)"/>
     <use xlink:href="#DejaVuSans-36" transform="translate(419.873047 0)"/>
     <use xlink:href="#DejaVuSans-31" transform="translate(483.496094 0)"/>
    </g>
   </g>
  </g>
 </g>
 <defs>
  <clipPath id="pea7f2fad64">
   <rect x="36" y="34.56" width="223.2" height="221.76"/>
  </clipPath>
 </defs>
</svg>
