<?xml version="1.0" encoding="utf-8" standalone="no"?>
<!DOCTYPE svg PUBLIC "-//W3C//DTD SVG 1.1//EN"
  "http://www.w3.org/Graphics/SVG/1.1/DTD/svg11.dtd">
<svg xmlns:xlink="http://www.w3.org/1999/xlink" width="288pt" height="288pt" viewBox="0 0 288 288" xmlns="http://www.w3.org/2000/svg" version="1.1">
 <metadata>
  <rdf:RDF xmlns:dc="http://purl.org/dc/elements/1.1/" xmlns:cc="http://creativecommons.org/ns#" xmlns:rdf="http://www.w3.org/1999/02/22-rdf-syntax-ns#">
   <cc:Work>
    <dc:type rdf:resource="http://purl.org/dc/dcmitype/StillImage"/>
    <dc:date>2026-02-17T13:07:42.986940</dc:date>
    <dc:format>image/svg+xml</dc:format>
    <dc:creator>
     <cc:Agent>
      <dc:title>Matplotlib v3.10.6, https://matplotlib.org/</dc:title>
     </cc:Agent>
    </dc:creator>
   </cc:Work>
  </rdf:RDF>
 </metadata>
 <defs>
  <style type="text/css">*{stroke-linejoin: round; stroke-linecap: butt}</style>
 </defs>
 <g id="figure_1">
  <g id="patch_1">
   <path d="M 0 288 
L 288 288 
L 288 0 
L 0 0 
z
" style="fill: #ffffff"/>
  </g>
  <g id="axes_1">
   <g id="patch_2">
    <path d="M 36 256.32 
L 259.2 256.32 
L 259.2 34.56 
L 36 34.56 
z
" style="fill: #ffffff"/>
   </g>
   <g id="matplotlib.axis_1">
    <g id="xtick_1">
     <g id="line2d_1">
      <defs>
       <path id="m52dbdf7cad" d="M 0 0 
L 0 3.5 
" style="stroke: #000000; stroke-width: 0.8"/>
      </defs>
      <g>
       <use xlink:href="#m52dbdf7cad" x="63.500944" y="145.44" style="stroke: #000000; stroke-width: 0.8"/>
      </g>
     </g>
    </g>
    <g id="xtick_2">
     <g id="line2d_2">
      <g>
       <use xlink:href="#m52dbdf7cad" x="245.9748" y="145.44" style="stroke: #000000; stroke-width: 0.8"/>
      </g>
     </g>
    </g>
    <g id="xtick_3">
     <g id="line2d_3">
      <defs>
       <path id="m7b6fc83303" d="M 0 0 
L 0 2 
" style="stroke: #000000; stroke-width: 0.6"/>
      </defs>
      <g>
       <use xlink:href="#m7b6fc83303" x="39.296395" y="145.44" style="stroke: #000000; stroke-width: 0.6"/>
      </g>
     </g>
    </g>
    <g id="xtick_4">
     <g id="line2d_4">
      <g>
       <use xlink:href="#m7b6fc83303" x="45.190909" y="145.44" style="stroke: #000000; stroke-width: 0.6"/>
      </g>
     </g>
    </g>
    <g id="xtick_5">
     <g id="line2d_5">
      <g>
       <use xlink:href="#m7b6fc83303" x="50.007078" y="145.44" style="stroke: #000000; stroke-width: 0.6"/>
      </g>
     </g>
    </g>
    <g id="xtick_6">
     <g id="line2d_6">
      <g>
       <use xlink:href="#m7b6fc83303" x="54.079091" y="145.44" style="stroke: #000000; stroke-width: 0.6"/>
      </g>
     </g>
    </g>
    <g id="xtick_7">
     <g id="line2d_7">
      <g>
       <use xlink:href="#m7b6fc83303" x="57.606429" y="145.44" style="stroke: #000000; stroke-width: 0.6"/>
      </g>
     </g>
    </g>
    <g id="xtick_8">
     <g id="line2d_8">
      <g>
       <use xlink:href="#m7b6fc83303" x="60.717762" y="145.44" style="stroke: #000000; stroke-width: 0.6"/>
      </g>
     </g>
    </g>
    <g id="xtick_9">
     <g id="line2d_9">
      <g>
       <use xlink:href="#m7b6fc83303" x="81.810979" y="145.44" style="stroke: #000000; stroke-width: 0.6"/>
      </g>
     </g>
    </g>
    <g id="xtick_10">
     <g id="line2d_10">
      <g>
       <use xlink:href="#m7b6fc83303" x="92.521662" y="145.44" style="stroke: #000000; stroke-width: 0.6"/>
      </g>
     </g>
    </g>
    <g id="xtick_11">
     <g id="line2d_11">
      <g>
       <use xlink:href="#m7b6fc83303" x="100.121013" y="145.44" style="stroke: #000000; stroke-width: 0.6"/>
      </g>
     </g>
    </g>
    <g id="xtick_12">
     <g id="line2d_12">
      <g>
       <use xlink:href="#m7b6fc83303" x="106.015528" y="145.44" style="stroke: #000000; stroke-width: 0.6"/>
      </g>
     </g>
    </g>
    <g id="xtick_13">
     <g id="line2d_13">
      <g>
       <use xlink:href="#m7b6fc83303" x="110.831697" y="145.44" style="stroke: #000000; stroke-width: 0.6"/>
      </g>
     </g>
    </g>
    <g id="xtick_14">
     <g id="line2d_14">
      <g>
       <use xlink:href="#m7b6fc83303" x="114.90371" y="145.44" style="stroke: #000000; stroke-width: 0.6"/>
      </g>
     </g>
    </g>
    <g id="xtick_15">
     <g id="line2d_15">
      <g>
       <use xlink:href="#m7b6fc83303" x="118.431048" y="145.44" style="stroke: #000000; stroke-width: 0.6"/>
      </g>
     </g>
    </g>
    <g id="xtick_16">
     <g id="line2d_16">
      <g>
       <use xlink:href="#m7b6fc83303" x="121.542381" y="145.44" style="stroke: #000000; stroke-width: 0.6"/>
      </g>
     </g>
    </g>
    <g id="xtick_17">
     <g id="line2d_17">
      <g>
       <use xlink:href="#m7b6fc83303" x="142.635597" y="145.44" style="stroke: #000000; stroke-width: 0.6"/>
      </g>
     </g>
    </g>
    <g id="xtick_18">
     <g id="line2d_18">
      <g>
       <use xlink:href="#m7b6fc83303" x="153.346281" y="145.44" style="stroke: #000000; stroke-width: 0.6"/>
      </g>
     </g>
    </g>
    <g id="xtick_19">
     <g id="line2d_19">
      <g>
       <use xlink:href="#m7b6fc83303" x="160.945632" y="145.44" style="stroke: #000000; stroke-width: 0.6"/>
      </g>
     </g>
    </g>
    <g id="xtick_20">
     <g id="line2d_20">
      <g>
       <use xlink:href="#m7b6fc83303" x="166.840146" y="145.44" style="stroke: #000000; stroke-width: 0.6"/>
      </g>
     </g>
    </g>
    <g id="xtick_21">
     <g id="line2d_21">
      <g>
       <use xlink:href="#m7b6fc83303" x="171.656316" y="145.44" style="stroke: #000000; stroke-width: 0.6"/>
      </g>
     </g>
    </g>
    <g id="xtick_22">
     <g id="line2d_22">
      <g>
       <use xlink:href="#m7b6fc83303" x="175.728329" y="145.44" style="stroke: #000000; stroke-width: 0.6"/>
      </g>
     </g>
    </g>
    <g id="xtick_23">
     <g id="line2d_23">
      <g>
       <use xlink:href="#m7b6fc83303" x="179.255667" y="145.44" style="stroke: #000000; stroke-width: 0.6"/>
      </g>
     </g>
    </g>
    <g id="xtick_24">
     <g id="line2d_24">
      <g>
       <use xlink:href="#m7b6fc83303" x="182.366999" y="145.44" style="stroke: #000000; stroke-width: 0.6"/>
      </g>
     </g>
    </g>
    <g id="xtick_25">
     <g id="line2d_25">
      <g>
       <use xlink:href="#m7b6fc83303" x="203.460216" y="145.44" style="stroke: #000000; stroke-width: 0.6"/>
      </g>
     </g>
    </g>
    <g id="xtick_26">
     <g id="line2d_26">
      <g>
       <use xlink:href="#m7b6fc83303" x="214.170899" y="145.44" style="stroke: #000000; stroke-width: 0.6"/>
      </g>
     </g>
    </g>
    <g id="xtick_27">
     <g id="line2d_27">
      <g>
       <use xlink:href="#m7b6fc83303" x="221.77025" y="145.44" style="stroke: #000000; stroke-width: 0.6"/>
      </g>
     </g>
    </g>
    <g id="xtick_28">
     <g id="line2d_28">
      <g>
       <use xlink:href="#m7b6fc83303" x="227.664765" y="145.44" style="stroke: #000000; stroke-width: 0.6"/>
      </g>
     </g>
    </g>
    <g id="xtick_29">
     <g id="line2d_29">
      <g>
       <use xlink:href="#m7b6fc83303" x="232.480934" y="145.44" style="stroke: #000000; stroke-width: 0.6"/>
      </g>
     </g>
    </g>
    <g id="xtick_30">
     <g id="line2d_30">
      <g>
       <use xlink:href="#m7b6fc83303" x="236.552947" y="145.44" style="stroke: #000000; stroke-width: 0.6"/>
      </g>
     </g>
    </g>
    <g id="xtick_31">
     <g id="line2d_31">
      <g>
       <use xlink:href="#m7b6fc83303" x="240.080285" y="145.44" style="stroke: #000000; stroke-width: 0.6"/>
      </g>
     </g>
    </g>
    <g id="xtick_32">
     <g id="line2d_32">
      <g>
       <use xlink:href="#m7b6fc83303" x="243.191618" y="145.44" style="stroke: #000000; stroke-width: 0.6"/>
      </g>
     </g>
    </g>
   </g>
   <g id="matplotlib.axis_2">
    <g id="ytick_1">
     <g id="line2d_33">
      <defs>
       <path id="m7f8212c5f0" d="M 0 0 
L -3.5 0 
" style="stroke: #000000; stroke-width: 0.8"/>
      </defs>
      <g>
       <use xlink:href="#m7f8212c5f0" x="36" y="256.32" style="stroke: #000000; stroke-width: 0.8"/>
      </g>
     </g>
     <g id="text_1">
      <!-- −4 -->
      <g transform="translate(14.257812 260.119219) scale(0.1 -0.1)">
       <defs>
        <path id="DejaVuSans-2212" d="M 678 2272 
L 4684 2272 
L 4684 1741 
L 678 1741 
L 678 2272 
z
" transform="scale(0.015625)"/>
        <path id="DejaVuSans-34" d="M 2419 4116 
L 825 1625 
L 2419 1625 
L 2419 4116 
z
M 2253 4666 
L 3047 4666 
L 3047 1625 
L 3713 1625 
L 3713 1100 
L 3047 1100 
L 3047 0 
L 2419 0 
L 2419 1100 
L 313 1100 
L 313 1709 
L 2253 4666 
z
" transform="scale(0.015625)"/>
       </defs>
       <use xlink:href="#DejaVuSans-2212"/>
       <use xlink:href="#DejaVuSans-34" transform="translate(83.789062 0)"/>
      </g>
     </g>
    </g>
    <g id="ytick_2">
     <g id="line2d_34">
      <g>
       <use xlink:href="#m7f8212c5f0" x="36" y="228.6" style="stroke: #000000; stroke-width: 0.8"/>
      </g>
     </g>
     <g id="text_2">
      <!-- −3 -->
      <g transform="translate(14.257812 232.399219) scale(0.1 -0.1)">
       <defs>
        <path id="DejaVuSans-33" d="M 2597 2516 
Q 3050 2419 3304 2112 
Q 3559 1806 3559 1356 
Q 3559 666 3084 287 
Q 2609 -91 1734 -91 
Q 1441 -91 1130 -33 
Q 819 25 488 141 
L 488 750 
Q 750 597 1062 519 
Q 1375 441 1716 441 
Q 2309 441 2620 675 
Q 2931 909 2931 1356 
Q 2931 1769 2642 2001 
Q 2353 2234 1838 2234 
L 1294 2234 
L 1294 2753 
L 1863 2753 
Q 2328 2753 2575 2939 
Q 2822 3125 2822 3475 
Q 2822 3834 2567 4026 
Q 2313 4219 1838 4219 
Q 1578 4219 1281 4162 
Q 984 4106 628 3988 
L 628 4550 
Q 988 4650 1302 4700 
Q 1616 4750 1894 4750 
Q 2613 4750 3031 4423 
Q 3450 4097 3450 3541 
Q 3450 3153 3228 2886 
Q 3006 2619 2597 2516 
z
" transform="scale(0.015625)"/>
       </defs>
       <use xlink:href="#DejaVuSans-2212"/>
       <use xlink:href="#DejaVuSans-33" transform="translate(83.789062 0)"/>
      </g>
     </g>
    </g>
    <g id="ytick_3">
     <g id="line2d_35">
      <g>
       <use xlink:href="#m7f8212c5f0" x="36" y="200.88" style="stroke: #000000; stroke-width: 0.8"/>
      </g>
     </g>
     <g id="text_3">
      <!-- −2 -->
      <g transform="translate(14.257812 204.679219) scale(0.1 -0.1)">
       <defs>
        <path id="DejaVuSans-32" d="M 1228 531 
L 3431 531 
L 3431 0 
L 469 0 
L 469 531 
Q 828 903 1448 1529 
Q 2069 2156 2228 2338 
Q 2531 2678 2651 2914 
Q 2772 3150 2772 3378 
Q 2772 3750 2511 3984 
Q 2250 4219 1831 4219 
Q 1534 4219 1204 4116 
Q 875 4013 500 3803 
L 500 4441 
Q 881 4594 1212 4672 
Q 1544 4750 1819 4750 
Q 2544 4750 2975 4387 
Q 3406 4025 3406 3419 
Q 3406 3131 3298 2873 
Q 3191 2616 2906 2266 
Q 2828 2175 2409 1742 
Q 1991 1309 1228 531 
z
" transform="scale(0.015625)"/>
       </defs>
       <use xlink:href="#DejaVuSans-2212"/>
       <use xlink:href="#DejaVuSans-32" transform="translate(83.789062 0)"/>
      </g>
     </g>
    </g>
    <g id="ytick_4">
     <g id="line2d_36">
      <g>
       <use xlink:href="#m7f8212c5f0" x="36" y="173.16" style="stroke: #000000; stroke-width: 0.8"/>
      </g>
     </g>
     <g id="text_4">
      <!-- −1 -->
      <g transform="translate(14.257812 176.959219) scale(0.1 -0.1)">
       <defs>
        <path id="DejaVuSans-31" d="M 794 531 
L 1825 531 
L 1825 4091 
L 703 3866 
L 703 4441 
L 1819 4666 
L 2450 4666 
L 2450 531 
L 3481 531 
L 3481 0 
L 794 0 
L 794 531 
z
" transform="scale(0.015625)"/>
       </defs>
       <use xlink:href="#DejaVuSans-2212"/>
       <use xlink:href="#DejaVuSans-31" transform="translate(83.789062 0)"/>
      </g>
     </g>
    </g>
    <g id="ytick_5">
     <g id="line2d_37">
      <g>
       <use xlink:href="#m7f8212c5f0" x="36" y="145.44" style="stroke: #000000; stroke-width: 0.8"/>
      </g>
     </g>
     <g id="text_5">
      <!-- 0 -->
      <g transform="translate(22.6375 149.239219) scale(0.1 -0.1)">
       <defs>
        <path id="DejaVuSans-30" d="M 2034 4250 
Q 1547 4250 1301 3770 
Q 1056 3291 1056 2328 
Q 1056 1369 1301 889 
Q 1547 409 2034 409 
Q 2525 409 2770 889 
Q 3016 1369 3016 2328 
Q 3016 3291 2770 3770 
Q 2525 4250 2034 4250 
z
M 2034 4750 
Q 2819 4750 3233 4129 
Q 3647 3509 3647 2328 
Q 3647 1150 3233 529 
Q 2819 -91 2034 -91 
Q 1250 -91 836 529 
Q 422 1150 422 2328 
Q 422 3509 836 4129 
Q 1250 4750 2034 4750 
z
" transform="scale(0.015625)"/>
       </defs>
       <use xlink:href="#DejaVuSans-30"/>
      </g>
     </g>
    </g>
    <g id="ytick_6">
     <g id="line2d_38">
      <g>
       <use xlink:href="#m7f8212c5f0" x="36" y="117.72" style="stroke: #000000; stroke-width: 0.8"/>
      </g>
     </g>
     <g id="text_6">
      <!-- 1 -->
      <g transform="translate(22.6375 121.519219) scale(0.1 -0.1)">
       <use xlink:href="#DejaVuSans-31"/>
      </g>
     </g>
    </g>
    <g id="ytick_7">
     <g id="line2d_39">
      <g>
       <use xlink:href="#m7f8212c5f0" x="36" y="90" style="stroke: #000000; stroke-width: 0.8"/>
      </g>
     </g>
     <g id="text_7">
      <!-- 2 -->
      <g transform="translate(22.6375 93.799219) scale(0.1 -0.1)">
       <use xlink:href="#DejaVuSans-32"/>
      </g>
     </g>
    </g>
    <g id="ytick_8">
     <g id="line2d_40">
      <g>
       <use xlink:href="#m7f8212c5f0" x="36" y="62.28" style="stroke: #000000; stroke-width: 0.8"/>
      </g>
     </g>
     <g id="text_8">
      <!-- 3 -->
      <g transform="translate(22.6375 66.079219) scale(0.1 -0.1)">
       <use xlink:href="#DejaVuSans-33"/>
      </g>
     </g>
    </g>
    <g id="ytick_9">
     <g id="line2d_41">
      <g>
       <use xlink:href="#m7f8212c5f0" x="36" y="34.56" style="stroke: #000000; stroke-width: 0.8"/>
      </g>
     </g>
     <g id="text_9">
      <!-- 4 -->
      <g transform="translate(22.6375 38.359219) scale(0.1 -0.1)">
       <use xlink:href="#DejaVuSans-34"/>
      </g>
     </g>
    </g>
   </g>
   <g id="line2d_42">
    <path d="M 169.945968 153.518905 
L 124.469213 155.285406 
L 166.074908 163.499863 
L 203.766126 87.351615 
L 196.793127 118.082026 
L 178.982174 130.262811 
L 225.409361 136.687527 
L 163.40459 182.095382 
L 172.643929 133.285941 
L 94.413528 136.383732 
L 139.570596 140.273065 
L 112.345732 168.130959 
L 192.920563 102.873862 
L 146.149157 171.970309 
L 135.547785 141.669641 
L 232.191972 119.35275 
L 153.260001 138.342014 
L 153.782971 170.769528 
L 142.911087 103.237017 
L 185.272685 125.202811 
L 185.08943 131.444852 
" clip-path="url(#p591702c9cf)" style="fill: none"/>
    <defs>
     <path id="m2863884e36" d="M 0 -7.071068 
L -7.071068 -0 
L -0 7.071068 
L 0 -7.071068 
"/>
    </defs>
    <g clip-path="url(#p591702c9cf)">
     <use xlink:href="#m2863884e36" x="169.945968" y="153.518905" style="fill: #d32f2f"/>
     <use xlink:href="#m2863884e36" x="124.469213" y="155.285406" style="fill: #d32f2f"/>
     <use xlink:href="#m2863884e36" x="166.074908" y="163.499863" style="fill: #d32f2f"/>
     <use xlink:href="#m2863884e36" x="203.766126" y="87.351615" style="fill: #d32f2f"/>
     <use xlink:href="#m2863884e36" x="196.793127" y="118.082026" style="fill: #d32f2f"/>
     <use xlink:href="#m2863884e36" x="178.982174" y="130.262811" style="fill: #d32f2f"/>
     <use xlink:href="#m2863884e36" x="225.409361" y="136.687527" style="fill: #d32f2f"/>
     <use xlink:href="#m2863884e36" x="163.40459" y="182.095382" style="fill: #d32f2f"/>
     <use xlink:href="#m2863884e36" x="172.643929" y="133.285941" style="fill: #d32f2f"/>
     <use xlink:href="#m2863884e36" x="94.413528" y="136.383732" style="fill: #d32f2f"/>
     <use xlink:href="#m2863884e36" x="139.570596" y="140.273065" style="fill: #d32f2f"/>
     <use xlink:href="#m2863884e36" x="112.345732" y="168.130959" style="fill: #d32f2f"/>
     <use xlink:href="#m2863884e36" x="192.920563" y="102.873862" style="fill: #d32f2f"/>
     <use xlink:href="#m2863884e36" x="146.149157" y="171.970309" style="fill: #d32f2f"/>
     <use xlink:href="#m2863884e36" x="135.547785" y="141.669641" style="fill: #d32f2f"/>
     <use xlink:href="#m2863884e36" x="232.191972" y="119.35275" style="fill: #d32f2f"/>
     <use xlink:href="#m2863884e36" x="153.260001" y="138.342014" style="fill: #d32f2f"/>
     <use xlink:href="#m2863884e36" x="153.782971" y="170.769528" style="fill: #d32f2f"/>
     <use xlink:href="#m2863884e36" x="142.911087" y="103.237017" style="fill: #d32f2f"/>
     <use xlink:href="#m2863884e36" x="185.272685" y="125.202811" style="fill: #d32f2f"/>
     <use xlink:href="#m2863884e36" x="185.08943" y="131.444852" style="fill: #d32f2f"/>
    </g>
    <defs>
     <path id="m3f830dda78" d="M 0 -7.071068 
L 7.071068 0 
L -0 7.071068 
L 0 -7.071068 
"/>
    </defs>
    <g clip-path="url(#p591702c9cf)">
     <use xlink:href="#m3f830dda78" x="169.945968" y="153.518905" style="fill: #ffffff"/>
     <use xlink:href="#m3f830dda78" x="124.469213" y="155.285406" style="fill: #ffffff"/>
     <use xlink:href="#m3f830dda78" x="166.074908" y="163.499863" style="fill: #ffffff"/>
     <use xlink:href="#m3f830dda78" x="203.766126" y="87.351615" style="fill: #ffffff"/>
     <use xlink:href="#m3f830dda78" x="196.793127" y="118.082026" style="fill: #ffffff"/>
     <use xlink:href="#m3f830dda78" x="178.982174" y="130.262811" style="fill: #ffffff"/>
     <use xlink:href="#m3f830dda78" x="225.409361" y="136.687527" style="fill: #ffffff"/>
     <use xlink:href="#m3f830dda78" x="163.40459" y="182.095382" style="fill: #ffffff"/>
     <use xlink:href="#m3f830dda78" x="172.643929" y="133.285941" style="fill: #ffffff"/>
     <use xlink:href="#m3f830dda78" x="94.413528" y="136.383732" style="fill: #ffffff"/>
     <use xlink:href="#m3f830dda78" x="139.570596" y="140.273065" style="fill: #ffffff"/>
     <use xlink:href="#m3f830dda78" x="112.345732" y="168.130959" style="fill: #ffffff"/>
     <use xlink:href="#m3f830dda78" x="192.920563" y="102.873862" style="fill: #ffffff"/>
     <use xlink:href="#m3f830dda78" x="146.149157" y="171.970309" style="fill: #ffffff"/>
     <use xlink:href="#m3f830dda78" x="135.547785" y="141.669641" style="fill: #ffffff"/>
     <use xlink:href="#m3f830dda78" x="232.191972" y="119.35275" style="fill: #ffffff"/>
     <use xlink:href="#m3f830dda78" x="153.260001" y="138.342014" style="fill: #ffffff"/>
     <use xlink:href="#m3f830dda78" x="153.782971" y="170.769528" style="fill: #ffffff"/>
     <use xlink:href="#m3f830dda78" x="142.911087" y="103.237017" style="fill: #ffffff"/>
     <use xlink:href="#m3f830dda78" x="185.272685" y="125.202811" style="fill: #ffffff"/>
     <use xlink:href="#m3f830dda78" x="185.08943" y="131.444852" style="fill: #ffffff"/>
    </g>
   </g>
   <g id="line2d_43">
    <path d="M 169.945968 153.518905 
L 124.469213 155.285406 
L 166.074908 163.499863 
L 203.766126 87.351615 
L 196.793127 118.082026 
L 178.982174 130.262811 
L 225.409361 136.687527 
L 163.40459 182.095382 
L 172.643929 133.285941 
L 94.413528 136.383732 
L 139.570596 140.273065 
L 112.345732 168.130959 
L 192.920563 102.873862 
L 146.149157 171.970309 
L 135.547785 141.669641 
L 232.191972 119.35275 
L 153.260001 138.342014 
L 153.782971 170.769528 
L 142.911087 103.237017 
L 185.272685 125.202811 
L 185.08943 131.444852 
" clip-path="url(#p591702c9cf)" style="fill: none"/>
    <defs>
     <path id="md49018099f" d="M -0 7.071068 
L 7.071068 0 
L 0 -7.071068 
L -7.071068 -0 
z
" style="stroke: #d32f2f; stroke-linejoin: miter"/>
    </defs>
    <g clip-path="url(#p591702c9cf)">
     <use xlink:href="#md49018099f" x="169.945968" y="153.518905" style="fill-opacity: 0; stroke: #d32f2f; stroke-linejoin: miter"/>
     <use xlink:href="#md49018099f" x="124.469213" y="155.285406" style="fill-opacity: 0; stroke: #d32f2f; stroke-linejoin: miter"/>
     <use xlink:href="#md49018099f" x="166.074908" y="163.499863" style="fill-opacity: 0; stroke: #d32f2f; stroke-linejoin: miter"/>
     <use xlink:href="#md49018099f" x="203.766126" y="87.351615" style="fill-opacity: 0; stroke: #d32f2f; stroke-linejoin: miter"/>
     <use xlink:href="#md49018099f" x="196.793127" y="118.082026" style="fill-opacity: 0; stroke: #d32f2f; stroke-linejoin: miter"/>
     <use xlink:href="#md49018099f" x="178.982174" y="130.262811" style="fill-opacity: 0; stroke: #d32f2f; stroke-linejoin: miter"/>
     <use xlink:href="#md49018099f" x="225.409361" y="136.687527" style="fill-opacity: 0; stroke: #d32f2f; stroke-linejoin: miter"/>
     <use xlink:href="#md49018099f" x="163.40459" y="182.095382" style="fill-opacity: 0; stroke: #d32f2f; stroke-linejoin: miter"/>
     <use xlink:href="#md49018099f" x="172.643929" y="133.285941" style="fill-opacity: 0; stroke: #d32f2f; stroke-linejoin: miter"/>
     <use xlink:href="#md49018099f" x="94.413528" y="136.383732" style="fill-opacity: 0; stroke: #d32f2f; stroke-linejoin: miter"/>
     <use xlink:href="#md49018099f" x="139.570596" y="140.273065" style="fill-opacity: 0; stroke: #d32f2f; stroke-linejoin: miter"/>
     <use xlink:href="#md49018099f" x="112.345732" y="168.130959" style="fill-opacity: 0; stroke: #d32f2f; stroke-linejoin: miter"/>
     <use xlink:href="#md49018099f" x="192.920563" y="102.873862" style="fill-opacity: 0; stroke: #d32f2f; stroke-linejoin: miter"/>
     <use xlink:href="#md49018099f" x="146.149157" y="171.970309" style="fill-opacity: 0; stroke: #d32f2f; stroke-linejoin: miter"/>
     <use xlink:href="#md49018099f" x="135.547785" y="141.669641" style="fill-opacity: 0; stroke: #d32f2f; stroke-linejoin: miter"/>
     <use xlink:href="#md49018099f" x="232.191972" y="119.35275" style="fill-opacity: 0; stroke: #d32f2f; stroke-linejoin: miter"/>
     <use xlink:href="#md49018099f" x="153.260001" y="138.342014" style="fill-opacity: 0; stroke: #d32f2f; stroke-linejoin: miter"/>
     <use xlink:href="#md49018099f" x="153.782971" y="170.769528" style="fill-opacity: 0; stroke: #d32f2f; stroke-linejoin: miter"/>
     <use xlink:href="#md49018099f" x="142.911087" y="103.237017" style="fill-opacity: 0; stroke: #d32f2f; stroke-linejoin: miter"/>
     <use xlink:href="#md49018099f" x="185.272685" y="125.202811" style="fill-opacity: 0; stroke: #d32f2f; stroke-linejoin: miter"/>
     <use xlink:href="#md49018099f" x="185.08943" y="131.444852" style="fill-opacity: 0; stroke: #d32f2f; stroke-linejoin: miter"/>
    </g>
   </g>
   <g id="line2d_44">
    <path d="M 151.818721 189.245267 
L 182.229496 188.458033 
L 171.189192 169.96518 
L 181.22066 164.022517 
L 214.258072 134.546736 
L 187.45932 161.818221 
L 118.860707 127.623428 
L 166.302761 149.225752 
L 249.054545 106.198326 
L 187.34492 105.75572 
L 138.164912 107.577075 
L 46.145455 182.85417 
L 146.126328 148.882267 
L 59.969666 176.939237 
L 159.405829 177.394158 
L 121.492877 186.109579 
L 122.97756 160.976334 
L 168.565756 174.472741 
L 168.041025 124.882221 
L 185.533063 116.373022 
" clip-path="url(#p591702c9cf)" style="fill: none"/>
    <defs>
     <path id="md76180eec8" d="M -0 7.071068 
L 7.071068 0 
L 0 -7.071068 
L -0 7.071068 
"/>
    </defs>
    <g clip-path="url(#p591702c9cf)">
     <use xlink:href="#md76180eec8" x="151.818721" y="189.245267" style="fill: #1976d2"/>
     <use xlink:href="#md76180eec8" x="182.229496" y="188.458033" style="fill: #1976d2"/>
     <use xlink:href="#md76180eec8" x="171.189192" y="169.96518" style="fill: #1976d2"/>
     <use xlink:href="#md76180eec8" x="181.22066" y="164.022517" style="fill: #1976d2"/>
     <use xlink:href="#md76180eec8" x="214.258072" y="134.546736" style="fill: #1976d2"/>
     <use xlink:href="#md76180eec8" x="187.45932" y="161.818221" style="fill: #1976d2"/>
     <use xlink:href="#md76180eec8" x="118.860707" y="127.623428" style="fill: #1976d2"/>
     <use xlink:href="#md76180eec8" x="166.302761" y="149.225752" style="fill: #1976d2"/>
     <use xlink:href="#md76180eec8" x="249.054545" y="106.198326" style="fill: #1976d2"/>
     <use xlink:href="#md76180eec8" x="187.34492" y="105.75572" style="fill: #1976d2"/>
     <use xlink:href="#md76180eec8" x="138.164912" y="107.577075" style="fill: #1976d2"/>
     <use xlink:href="#md76180eec8" x="46.145455" y="182.85417" style="fill: #1976d2"/>
     <use xlink:href="#md76180eec8" x="146.126328" y="148.882267" style="fill: #1976d2"/>
     <use xlink:href="#md76180eec8" x="59.969666" y="176.939237" style="fill: #1976d2"/>
     <use xlink:href="#md76180eec8" x="159.405829" y="177.394158" style="fill: #1976d2"/>
     <use xlink:href="#md76180eec8" x="121.492877" y="186.109579" style="fill: #1976d2"/>
     <use xlink:href="#md76180eec8" x="122.97756" y="160.976334" style="fill: #1976d2"/>
     <use xlink:href="#md76180eec8" x="168.565756" y="174.472741" style="fill: #1976d2"/>
     <use xlink:href="#md76180eec8" x="168.041025" y="124.882221" style="fill: #1976d2"/>
     <use xlink:href="#md76180eec8" x="185.533063" y="116.373022" style="fill: #1976d2"/>
    </g>
    <defs>
     <path id="m8f09c7fddc" d="M -0 7.071068 
L -7.071068 -0 
L 0 -7.071068 
L -0 7.071068 
"/>
    </defs>
    <g clip-path="url(#p591702c9cf)">
     <use xlink:href="#m8f09c7fddc" x="151.818721" y="189.245267" style="fill: #ffffff"/>
     <use xlink:href="#m8f09c7fddc" x="182.229496" y="188.458033" style="fill: #ffffff"/>
     <use xlink:href="#m8f09c7fddc" x="171.189192" y="169.96518" style="fill: #ffffff"/>
     <use xlink:href="#m8f09c7fddc" x="181.22066" y="164.022517" style="fill: #ffffff"/>
     <use xlink:href="#m8f09c7fddc" x="214.258072" y="134.546736" style="fill: #ffffff"/>
     <use xlink:href="#m8f09c7fddc" x="187.45932" y="161.818221" style="fill: #ffffff"/>
     <use xlink:href="#m8f09c7fddc" x="118.860707" y="127.623428" style="fill: #ffffff"/>
     <use xlink:href="#m8f09c7fddc" x="166.302761" y="149.225752" style="fill: #ffffff"/>
     <use xlink:href="#m8f09c7fddc" x="249.054545" y="106.198326" style="fill: #ffffff"/>
     <use xlink:href="#m8f09c7fddc" x="187.34492" y="105.75572" style="fill: #ffffff"/>
     <use xlink:href="#m8f09c7fddc" x="138.164912" y="107.577075" style="fill: #ffffff"/>
     <use xlink:href="#m8f09c7fddc" x="46.145455" y="182.85417" style="fill: #ffffff"/>
     <use xlink:href="#m8f09c7fddc" x="146.126328" y="148.882267" style="fill: #ffffff"/>
     <use xlink:href="#m8f09c7fddc" x="59.969666" y="176.939237" style="fill: #ffffff"/>
     <use xlink:href="#m8f09c7fddc" x="159.405829" y="177.394158" style="fill: #ffffff"/>
     <use xlink:href="#m8f09c7fddc" x="121.492877" y="186.109579" style="fill: #ffffff"/>
     <use xlink:href="#m8f09c7fddc" x="122.97756" y="160.976334" style="fill: #ffffff"/>
     <use xlink:href="#m8f09c7fddc" x="168.565756" y="174.472741" style="fill: #ffffff"/>
     <use xlink:href="#m8f09c7fddc" x="168.041025" y="124.882221" style="fill: #ffffff"/>
     <use xlink:href="#m8f09c7fddc" x="185.533063" y="116.373022" style="fill: #ffffff"/>
    </g>
   </g>
   <g id="line2d_45">
    <path d="M 151.818721 189.245267 
L 182.229496 188.458033 
L 171.189192 169.96518 
L 181.22066 164.022517 
L 214.258072 134.546736 
L 187.45932 161.818221 
L 118.860707 127.623428 
L 166.302761 149.225752 
L 249.054545 106.198326 
L 187.34492 105.75572 
L 138.164912 107.577075 
L 46.145455 182.85417 
L 146.126328 148.882267 
L 59.969666 176.939237 
L 159.405829 177.394158 
L 121.492877 186.109579 
L 122.97756 160.976334 
L 168.565756 174.472741 
L 168.041025 124.882221 
L 185.533063 116.373022 
" clip-path="url(#p591702c9cf)" style="fill: none"/>
    <defs>
     <path id="m67f13c9cac" d="M -0 7.071068 
L 7.071068 0 
L 0 -7.071068 
L -7.071068 -0 
z
" style="stroke: #1976d2; stroke-linejoin: miter"/>
    </defs>
    <g clip-path="url(#p591702c9cf)">
     <use xlink:href="#m67f13c9cac" x="151.818721" y="189.245267" style="fill-opacity: 0; stroke: #1976d2; stroke-linejoin: miter"/>
     <use xlink:href="#m67f13c9cac" x="182.229496" y="188.458033" style="fill-opacity: 0; stroke: #1976d2; stroke-linejoin: miter"/>
     <use xlink:href="#m67f13c9cac" x="171.189192" y="169.96518" style="fill-opacity: 0; stroke: #1976d2; stroke-linejoin: miter"/>
     <use xlink:href="#m67f13c9cac" x="181.22066" y="164.022517" style="fill-opacity: 0; stroke: #1976d2; stroke-linejoin: miter"/>
     <use xlink:href="#m67f13c9cac" x="214.258072" y="134.546736" style="fill-opacity: 0; stroke: #1976d2; stroke-linejoin: miter"/>
     <use xlink:href="#m67f13c9cac" x="187.45932" y="161.818221" style="fill-opacity: 0; stroke: #1976d2; stroke-linejoin: miter"/>
     <use xlink:href="#m67f13c9cac" x="118.860707" y="127.623428" style="fill-opacity: 0; stroke: #1976d2; stroke-linejoin: miter"/>
     <use xlink:href="#m67f13c9cac" x="166.302761" y="149.225752" style="fill-opacity: 0; stroke: #1976d2; stroke-linejoin: miter"/>
     <use xlink:href="#m67f13c9cac" x="249.054545" y="106.198326" style="fill-opacity: 0; stroke: #1976d2; stroke-linejoin: miter"/>
     <use xlink:href="#m67f13c9cac" x="187.34492" y="105.75572" style="fill-opacity: 0; stroke: #1976d2; stroke-linejoin: miter"/>
     <use xlink:href="#m67f13c9cac" x="138.164912" y="107.577075" style="fill-opacity: 0; stroke: #1976d2; stroke-linejoin: miter"/>
     <use xlink:href="#m67f13c9cac" x="46.145455" y="182.85417" style="fill-opacity: 0; stroke: #1976d2; stroke-linejoin: miter"/>
     <use xlink:href="#m67f13c9cac" x="146.126328" y="148.882267" style="fill-opacity: 0; stroke: #1976d2; stroke-linejoin: miter"/>
     <use xlink:href="#m67f13c9cac" x="59.969666" y="176.939237" style="fill-opacity: 0; stroke: #1976d2; stroke-linejoin: miter"/>
     <use xlink:href="#m67f13c9cac" x="159.405829" y="177.394158" style="fill-opacity: 0; stroke: #1976d2; stroke-linejoin: miter"/>
     <use xlink:href="#m67f13c9cac" x="121.492877" y="186.109579" style="fill-opacity: 0; stroke: #1976d2; stroke-linejoin: miter"/>
     <use xlink:href="#m67f13c9cac" x="122.97756" y="160.976334" style="fill-opacity: 0; stroke: #1976d2; stroke-linejoin: miter"/>
     <use xlink:href="#m67f13c9cac" x="168.565756" y="174.472741" style="fill-opacity: 0; stroke: #1976d2; stroke-linejoin: miter"/>
     <use xlink:href="#m67f13c9cac" x="168.041025" y="124.882221" style="fill-opacity: 0; stroke: #1976d2; stroke-linejoin: miter"/>
     <use xlink:href="#m67f13c9cac" x="185.533063" y="116.373022" style="fill-opacity: 0; stroke: #1976d2; stroke-linejoin: miter"/>
    </g>
   </g>
   <g id="patch_3">
    <path d="M 36 256.32 
L 36 34.56 
" style="fill: none; stroke: #000000; stroke-width: 0.8; stroke-linejoin: miter; stroke-linecap: square"/>
   </g>
   <g id="patch_4">
    <path d="M 36 145.44 
L 259.2 145.44 
" style="fill: none; stroke: #000000; stroke-width: 0.8; stroke-linejoin: miter; stroke-linecap: square"/>
   </g>
   <g id="text_10">
    <!-- TFRC: 0.47 -->
    <g transform="translate(107.022656 28.56) scale(0.15 -0.15)">
     <defs>
      <path id="DejaVuSans-54" d="M -19 4666 
L 3928 4666 
L 3928 4134 
L 2272 4134 
L 2272 0 
L 1638 0 
L 1638 4134 
L -19 4134 
L -19 4666 
z
" transform="scale(0.015625)"/>
      <path id="DejaVuSans-46" d="M 628 4666 
L 3309 4666 
L 3309 4134 
L 1259 4134 
L 1259 2759 
L 3109 2759 
L 3109 2228 
L 1259 2228 
L 1259 0 
L 628 0 
L 628 4666 
z
" transform="scale(0.015625)"/>
      <path id="DejaVuSans-52" d="M 2841 2188 
Q 3044 2119 3236 1894 
Q 3428 1669 3622 1275 
L 4263 0 
L 3584 0 
L 2988 1197 
Q 2756 1666 2539 1819 
Q 2322 1972 1947 1972 
L 1259 1972 
L 1259 0 
L 628 0 
L 628 4666 
L 2053 4666 
Q 2853 4666 3247 4331 
Q 3641 3997 3641 3322 
Q 3641 2881 3436 2590 
Q 3231 2300 2841 2188 
z
M 1259 4147 
L 1259 2491 
L 2053 2491 
Q 2509 2491 2742 2702 
Q 2975 2913 2975 3322 
Q 2975 3731 2742 3939 
Q 2509 4147 2053 4147 
L 1259 4147 
z
" transform="scale(0.015625)"/>
      <path id="DejaVuSans-43" d="M 4122 4306 
L 4122 3641 
Q 3803 3938 3442 4084 
Q 3081 4231 2675 4231 
Q 1875 4231 1450 3742 
Q 1025 3253 1025 2328 
Q 1025 1406 1450 917 
Q 1875 428 2675 428 
Q 3081 428 3442 575 
Q 3803 722 4122 1019 
L 4122 359 
Q 3791 134 3420 21 
Q 3050 -91 2638 -91 
Q 1578 -91 968 557 
Q 359 1206 359 2328 
Q 359 3453 968 4101 
Q 1578 4750 2638 4750 
Q 3056 4750 3426 4639 
Q 3797 4528 4122 4306 
z
" transform="scale(0.015625)"/>
      <path id="DejaVuSans-3a" d="M 750 794 
L 1409 794 
L 1409 0 
L 750 0 
L 750 794 
z
M 750 3309 
L 1409 3309 
L 1409 2516 
L 750 2516 
L 750 3309 
z
" transform="scale(0.015625)"/>
      <path id="DejaVuSans-20" transform="scale(0.015625)"/>
      <path id="DejaVuSans-2e" d="M 684 794 
L 1344 794 
L 1344 0 
L 684 0 
L 684 794 
z
" transform="scale(0.015625)"/>
      <path id="DejaVuSans-37" d="M 525 4666 
L 3525 4666 
L 3525 4397 
L 1831 0 
L 1172 0 
L 2766 4134 
L 525 4134 
L 525 4666 
z
" transform="scale(0.015625)"/>
     </defs>
     <use xlink:href="#DejaVuSans-54"/>
     <use xlink:href="#DejaVuSans-46" transform="translate(61.083984 0)"/>
     <use xlink:href="#DejaVuSans-52" transform="translate(118.603516 0)"/>
     <use xlink:href="#DejaVuSans-43" transform="translate(183.085938 0)"/>
     <use xlink:href="#DejaVuSans-3a" transform="translate(252.910156 0)"/>
     <use xlink:href="#DejaVuSans-20" transform="translate(286.601562 0)"/>
     <use xlink:href="#DejaVuSans-30" transform="translate(318.388672 0)"/>
     <use xlink:href="#DejaVuSans-2e" transform="translate(382.011719 0)"/>
     <use xlink:href="#DejaVuSans-34" transform="translate(413.798828 0)"/>
     <use xlink:href="#DejaVuSans-37" transform="translate(477.421875 0)"/>
    </g>
   </g>
  </g>
 </g>
 <defs>
  <clipPath id="p591702c9cf">
   <rect x="36" y="34.56" width="223.2" height="221.76"/>
  </clipPath>
 </defs>
</svg>
