<?xml version="1.0" encoding="utf-8" standalone="no"?>
<!DOCTYPE svg PUBLIC "-//W3C//DTD SVG 1.1//EN"
  "http://www.w3.org/Graphics/SVG/1.1/DTD/svg11.dtd">
<svg xmlns:xlink="http://www.w3.org/1999/xlink" width="720pt" height="720pt" viewBox="0 0 720 720" xmlns="http://www.w3.org/2000/svg" version="1.1">
 <metadata>
  <rdf:RDF xmlns:dc="http://purl.org/dc/elements/1.1/" xmlns:cc="http://creativecommons.org/ns#" xmlns:rdf="http://www.w3.org/1999/02/22-rdf-syntax-ns#">
   <cc:Work>
    <dc:type rdf:resource="http://purl.org/dc/dcmitype/StillImage"/>
    <dc:date>2026-02-17T13:08:22.514583</dc:date>
    <dc:format>image/svg+xml</dc:format>
    <dc:creator>
     <cc:Agent>
      <dc:title>Matplotlib v3.10.6, https://matplotlib.org/</dc:title>
     </cc:Agent>
    </dc:creator>
   </cc:Work>
  </rdf:RDF>
 </metadata>
 <defs>
  <style type="text/css">*{stroke-linejoin: round; stroke-linecap: butt}</style>
 </defs>
 <g id="figure_1">
  <g id="patch_1">
   <path d="M 0 720 
L 720 720 
L 720 0 
L 0 0 
z
" style="fill: #ffffff"/>
  </g>
  <g id="axes_1">
   <g id="patch_2">
    <path d="M 90 640.8 
L 648 640.8 
L 648 86.4 
L 90 86.4 
z
" style="fill: #ffffff"/>
   </g>
   <g id="FillBetweenPolyCollection_1">
    <defs>
     <path id="m85796f00af" d="M 145.8 -268.498651 
L 145.341188 -268.498651 
L 145.286419 -271.931998 
L 145.254847 -275.365345 
L 145.24092 -278.798692 
L 145.235311 -282.232038 
L 145.231132 -285.665385 
L 145.228305 -289.098732 
L 145.232995 -292.532079 
L 145.252386 -295.965426 
L 145.288506 -299.398773 
L 145.335678 -302.83212 
L 145.383516 -306.265467 
L 145.423321 -309.698814 
L 145.453145 -313.132161 
L 145.477781 -316.565508 
L 145.50366 -319.998855 
L 145.53219 -323.432202 
L 145.555911 -326.865549 
L 145.559698 -330.298896 
L 145.526144 -333.732243 
L 145.442438 -337.16559 
L 145.305947 -340.598937 
L 145.126672 -344.032284 
L 144.925748 -347.465631 
L 144.730208 -350.898978 
L 144.565395 -354.332325 
L 144.447521 -357.765672 
L 144.379355 -361.199019 
L 144.351136 -364.632366 
L 144.346403 -368.065713 
L 144.349468 -371.49906 
L 144.349898 -374.932406 
L 144.341181 -378.365753 
L 144.314929 -381.7991 
L 144.255494 -385.232447 
L 144.139784 -388.665794 
L 143.943229 -392.099141 
L 143.647936 -395.532488 
L 143.246869 -398.965835 
L 142.740317 -402.399182 
L 142.126462 -405.832529 
L 141.392717 -409.265876 
L 140.514718 -412.699223 
L 139.46445 -416.13257 
L 138.221643 -419.565917 
L 136.779418 -422.999264 
L 135.139972 -426.432611 
L 133.3055 -429.865958 
L 131.275155 -433.299305 
L 129.054402 -436.732652 
L 126.671747 -440.165999 
L 124.188515 -443.599346 
L 121.688252 -447.032693 
L 119.244372 -450.46604 
L 116.882394 -453.899387 
L 114.564993 -457.332734 
L 112.221005 -460.766081 
L 109.810525 -464.199428 
L 107.38615 -467.632775 
L 105.105767 -471.066121 
L 103.185646 -474.499468 
L 101.82655 -477.932815 
L 101.16 -481.366162 
L 101.237307 -484.799509 
L 102.049506 -488.232856 
L 103.553128 -491.666203 
L 105.68613 -495.09955 
L 108.371271 -498.532897 
L 111.510378 -501.966244 
L 114.976639 -505.399591 
L 118.615879 -508.832938 
L 122.264784 -512.266285 
L 125.780891 -515.699632 
L 129.066618 -519.132979 
L 132.071652 -522.566326 
L 134.774509 -525.999673 
L 137.159361 -529.43302 
L 139.205075 -532.866367 
L 140.891336 -536.299714 
L 142.213837 -539.733061 
L 143.196322 -543.166408 
L 143.891626 -546.599755 
L 144.371247 -550.033102 
L 144.708606 -553.466449 
L 144.963254 -556.899796 
L 145.172107 -560.333143 
L 145.350107 -563.766489 
L 145.498076 -567.199836 
L 145.612544 -570.633183 
L 145.692595 -574.06653 
L 145.7417 -577.499877 
L 145.765796 -580.933224 
L 145.770337 -584.366571 
L 145.758586 -587.799918 
L 145.732056 -591.233265 
L 145.692679 -594.666612 
L 145.645311 -598.099959 
L 145.598796 -601.533306 
L 145.564355 -604.966653 
L 145.551606 -608.4 
L 145.8 -608.4 
L 145.8 -608.4 
L 145.8 -604.966653 
L 145.8 -601.533306 
L 145.8 -598.099959 
L 145.8 -594.666612 
L 145.8 -591.233265 
L 145.8 -587.799918 
L 145.8 -584.366571 
L 145.8 -580.933224 
L 145.8 -577.499877 
L 145.8 -574.06653 
L 145.8 -570.633183 
L 145.8 -567.199836 
L 145.8 -563.766489 
L 145.8 -560.333143 
L 145.8 -556.899796 
L 145.8 -553.466449 
L 145.8 -550.033102 
L 145.8 -546.599755 
L 145.8 -543.166408 
L 145.8 -539.733061 
L 145.8 -536.299714 
L 145.8 -532.866367 
L 145.8 -529.43302 
L 145.8 -525.999673 
L 145.8 -522.566326 
L 145.8 -519.132979 
L 145.8 -515.699632 
L 145.8 -512.266285 
L 145.8 -508.832938 
L 145.8 -505.399591 
L 145.8 -501.966244 
L 145.8 -498.532897 
L 145.8 -495.09955 
L 145.8 -491.666203 
L 145.8 -488.232856 
L 145.8 -484.799509 
L 145.8 -481.366162 
L 145.8 -477.932815 
L 145.8 -474.499468 
L 145.8 -471.066121 
L 145.8 -467.632775 
L 145.8 -464.199428 
L 145.8 -460.766081 
L 145.8 -457.332734 
L 145.8 -453.899387 
L 145.8 -450.46604 
L 145.8 -447.032693 
L 145.8 -443.599346 
L 145.8 -440.165999 
L 145.8 -436.732652 
L 145.8 -433.299305 
L 145.8 -429.865958 
L 145.8 -426.432611 
L 145.8 -422.999264 
L 145.8 -419.565917 
L 145.8 -416.13257 
L 145.8 -412.699223 
L 145.8 -409.265876 
L 145.8 -405.832529 
L 145.8 -402.399182 
L 145.8 -398.965835 
L 145.8 -395.532488 
L 145.8 -392.099141 
L 145.8 -388.665794 
L 145.8 -385.232447 
L 145.8 -381.7991 
L 145.8 -378.365753 
L 145.8 -374.932406 
L 145.8 -371.49906 
L 145.8 -368.065713 
L 145.8 -364.632366 
L 145.8 -361.199019 
L 145.8 -357.765672 
L 145.8 -354.332325 
L 145.8 -350.898978 
L 145.8 -347.465631 
L 145.8 -344.032284 
L 145.8 -340.598937 
L 145.8 -337.16559 
L 145.8 -333.732243 
L 145.8 -330.298896 
L 145.8 -326.865549 
L 145.8 -323.432202 
L 145.8 -319.998855 
L 145.8 -316.565508 
L 145.8 -313.132161 
L 145.8 -309.698814 
L 145.8 -306.265467 
L 145.8 -302.83212 
L 145.8 -299.398773 
L 145.8 -295.965426 
L 145.8 -292.532079 
L 145.8 -289.098732 
L 145.8 -285.665385 
L 145.8 -282.232038 
L 145.8 -278.798692 
L 145.8 -275.365345 
L 145.8 -271.931998 
L 145.8 -268.498651 
z
" style="stroke: #464646; stroke-width: 1.25"/>
    </defs>
    <g clip-path="url(#p730e8f18a9)">
     <use xlink:href="#m85796f00af" x="0" y="720" style="fill: #be4343; stroke: #464646; stroke-width: 1.25"/>
    </g>
   </g>
   <g id="FillBetweenPolyCollection_2">
    <defs>
     <path id="mfddbedd682" d="M 146.199331 -104.4 
L 145.8 -104.4 
L 145.8 -107.484135 
L 145.8 -110.56827 
L 145.8 -113.652405 
L 145.8 -116.736541 
L 145.8 -119.820676 
L 145.8 -122.904811 
L 145.8 -125.988946 
L 145.8 -129.073081 
L 145.8 -132.157216 
L 145.8 -135.241351 
L 145.8 -138.325487 
L 145.8 -141.409622 
L 145.8 -144.493757 
L 145.8 -147.577892 
L 145.8 -150.662027 
L 145.8 -153.746162 
L 145.8 -156.830297 
L 145.8 -159.914433 
L 145.8 -162.998568 
L 145.8 -166.082703 
L 145.8 -169.166838 
L 145.8 -172.250973 
L 145.8 -175.335108 
L 145.8 -178.419243 
L 145.8 -181.503379 
L 145.8 -184.587514 
L 145.8 -187.671649 
L 145.8 -190.755784 
L 145.8 -193.839919 
L 145.8 -196.924054 
L 145.8 -200.008189 
L 145.8 -203.092325 
L 145.8 -206.17646 
L 145.8 -209.260595 
L 145.8 -212.34473 
L 145.8 -215.428865 
L 145.8 -218.513 
L 145.8 -221.597135 
L 145.8 -224.681271 
L 145.8 -227.765406 
L 145.8 -230.849541 
L 145.8 -233.933676 
L 145.8 -237.017811 
L 145.8 -240.101946 
L 145.8 -243.186081 
L 145.8 -246.270217 
L 145.8 -249.354352 
L 145.8 -252.438487 
L 145.8 -255.522622 
L 145.8 -258.606757 
L 145.8 -261.690892 
L 145.8 -264.775027 
L 145.8 -267.859163 
L 145.8 -270.943298 
L 145.8 -274.027433 
L 145.8 -277.111568 
L 145.8 -280.195703 
L 145.8 -283.279838 
L 145.8 -286.363974 
L 145.8 -289.448109 
L 145.8 -292.532244 
L 145.8 -295.616379 
L 145.8 -298.700514 
L 145.8 -301.784649 
L 145.8 -304.868784 
L 145.8 -307.95292 
L 145.8 -311.037055 
L 145.8 -314.12119 
L 145.8 -317.205325 
L 145.8 -320.28946 
L 145.8 -323.373595 
L 145.8 -326.45773 
L 145.8 -329.541866 
L 145.8 -332.626001 
L 145.8 -335.710136 
L 145.8 -338.794271 
L 145.8 -341.878406 
L 145.8 -344.962541 
L 145.8 -348.046676 
L 145.8 -351.130812 
L 145.8 -354.214947 
L 145.8 -357.299082 
L 145.8 -360.383217 
L 145.8 -363.467352 
L 145.8 -366.551487 
L 145.8 -369.635622 
L 145.8 -372.719758 
L 145.8 -375.803893 
L 145.8 -378.888028 
L 145.8 -381.972163 
L 145.8 -385.056298 
L 145.8 -388.140433 
L 145.8 -391.224568 
L 145.8 -394.308704 
L 145.8 -397.392839 
L 145.8 -400.476974 
L 145.8 -403.561109 
L 145.8 -406.645244 
L 145.8 -409.729379 
L 145.994597 -409.729379 
L 145.994597 -409.729379 
L 146.050212 -406.645244 
L 146.124055 -403.561109 
L 146.223245 -400.476974 
L 146.355373 -397.392839 
L 146.527288 -394.308704 
L 146.743869 -391.224568 
L 147.007256 -388.140433 
L 147.317043 -385.056298 
L 147.671749 -381.972163 
L 148.071378 -378.888028 
L 148.520292 -375.803893 
L 149.02915 -372.719758 
L 149.614799 -369.635622 
L 150.297592 -366.551487 
L 151.096654 -363.467352 
L 152.024494 -360.383217 
L 153.082742 -357.299082 
L 154.260425 -354.214947 
L 155.535276 -351.130812 
L 156.877415 -348.046676 
L 158.253893 -344.962541 
L 159.632408 -341.878406 
L 160.982986 -338.794271 
L 162.277528 -335.710136 
L 163.488185 -332.626001 
L 164.586158 -329.541866 
L 165.542251 -326.45773 
L 166.329548 -323.373595 
L 166.927423 -320.28946 
L 167.325408 -317.205325 
L 167.525611 -314.12119 
L 167.543232 -311.037055 
L 167.405548 -307.95292 
L 167.150008 -304.868784 
L 166.821742 -301.784649 
L 166.470224 -298.700514 
L 166.144832 -295.616379 
L 165.889706 -292.532244 
L 165.739322 -289.448109 
L 165.716578 -286.363974 
L 165.834551 -283.279838 
L 166.101389 -280.195703 
L 166.52603 -277.111568 
L 167.121674 -274.027433 
L 167.904736 -270.943298 
L 168.889125 -267.859163 
L 170.078114 -264.775027 
L 171.457465 -261.690892 
L 172.993213 -258.606757 
L 174.635577 -255.522622 
L 176.327977 -252.438487 
L 178.01805 -249.354352 
L 179.666929 -246.270217 
L 181.253766 -243.186081 
L 182.774103 -240.101946 
L 184.232463 -237.017811 
L 185.631016 -233.933676 
L 186.957326 -230.849541 
L 188.174831 -227.765406 
L 189.219624 -224.681271 
L 190.005907 -221.597135 
L 190.44 -218.513 
L 190.439828 -215.428865 
L 189.954371 -212.34473 
L 188.977011 -209.260595 
L 187.548419 -206.17646 
L 185.748152 -203.092325 
L 183.678006 -200.008189 
L 181.442843 -196.924054 
L 179.134813 -193.839919 
L 176.824762 -190.755784 
L 174.561208 -187.671649 
L 172.374406 -184.587514 
L 170.281913 -181.503379 
L 168.292968 -178.419243 
L 166.410912 -175.335108 
L 164.63446 -172.250973 
L 162.959018 -169.166838 
L 161.378556 -166.082703 
L 159.887586 -162.998568 
L 158.482416 -159.914433 
L 157.161294 -156.830297 
L 155.923767 -153.746162 
L 154.77001 -150.662027 
L 153.700519 -147.577892 
L 152.716006 -144.493757 
L 151.816909 -141.409622 
L 151.002299 -138.325487 
L 150.268655 -135.241351 
L 149.609415 -132.157216 
L 149.015972 -129.073081 
L 148.479936 -125.988946 
L 147.995572 -122.904811 
L 147.561143 -119.820676 
L 147.17841 -116.736541 
L 146.850538 -113.652405 
L 146.579482 -110.56827 
L 146.364039 -107.484135 
L 146.199331 -104.4 
z
" style="stroke: #464646; stroke-width: 1.25"/>
    </defs>
    <g clip-path="url(#p730e8f18a9)">
     <use xlink:href="#mfddbedd682" x="0" y="720" style="fill: #3076bb; stroke: #464646; stroke-width: 1.25"/>
    </g>
   </g>
   <g id="FillBetweenPolyCollection_3">
    <defs>
     <path id="m9e732e1307" d="M 257.4 -259.939062 
L 256.865578 -259.939062 
L 256.809163 -262.477748 
L 256.764861 -265.016434 
L 256.718524 -267.55512 
L 256.648017 -270.093807 
L 256.528929 -272.632493 
L 256.342648 -275.171179 
L 256.084109 -277.709866 
L 255.766089 -280.248552 
L 255.417833 -282.787238 
L 255.077885 -285.325924 
L 254.783303 -287.864611 
L 254.558957 -290.403297 
L 254.410328 -292.941983 
L 254.321582 -295.48067 
L 254.25854 -298.019356 
L 254.174896 -300.558042 
L 254.01986 -303.096729 
L 253.745811 -305.635415 
L 253.314566 -308.174101 
L 252.700621 -310.712787 
L 251.890019 -313.251474 
L 250.875275 -315.79016 
L 249.649315 -318.328846 
L 248.202701 -320.867533 
L 246.526982 -323.406219 
L 244.622991 -325.944905 
L 242.508962 -328.483592 
L 240.222503 -331.022278 
L 237.813924 -333.560964 
L 235.334293 -336.09965 
L 232.825956 -338.638337 
L 230.322327 -341.177023 
L 227.857529 -343.715709 
L 225.478719 -346.254396 
L 223.250354 -348.793082 
L 221.243526 -351.331768 
L 219.513031 -353.870454 
L 218.073958 -356.409141 
L 216.89228 -358.947827 
L 215.898019 -361.486513 
L 215.018009 -364.0252 
L 214.214278 -366.563886 
L 213.50963 -369.102572 
L 212.986819 -371.641259 
L 212.76 -374.179945 
L 212.930832 -376.718631 
L 213.549504 -379.257317 
L 214.598547 -381.796004 
L 216.005842 -384.33469 
L 217.678979 -386.873376 
L 219.543518 -389.412063 
L 221.567205 -391.950749 
L 223.759989 -394.489435 
L 226.151351 -397.028121 
L 228.756343 -399.566808 
L 231.545937 -402.105494 
L 234.434789 -404.64418 
L 237.291959 -407.182867 
L 239.970769 -409.721553 
L 242.346355 -412.260239 
L 244.346548 -414.798926 
L 245.964694 -417.337612 
L 247.250868 -419.876298 
L 248.287086 -422.414984 
L 249.158356 -424.953671 
L 249.931458 -427.492357 
L 250.647669 -430.031043 
L 251.3277 -432.56973 
L 251.9816 -435.108416 
L 252.61599 -437.647102 
L 253.235145 -440.185788 
L 253.837619 -442.724475 
L 254.413035 -445.263161 
L 254.942791 -447.801847 
L 255.405236 -450.340534 
L 255.782908 -452.87922 
L 256.068471 -455.417906 
L 256.267073 -457.956593 
L 256.394756 -460.495279 
L 256.473949 -463.033965 
L 256.527762 -465.572651 
L 256.574876 -468.111338 
L 256.626554 -470.650024 
L 256.686571 -473.18871 
L 256.753608 -475.727397 
L 256.824577 -478.266083 
L 256.89702 -480.804769 
L 256.96955 -483.343455 
L 257.040686 -485.882142 
L 257.107418 -488.420828 
L 257.164771 -490.959514 
L 257.206813 -493.498201 
L 257.228636 -496.036887 
L 257.228432 -498.575573 
L 257.208801 -501.11426 
L 257.176811 -503.652946 
L 257.142645 -506.191632 
L 257.117086 -508.730318 
L 257.108569 -511.269005 
L 257.4 -511.269005 
L 257.4 -511.269005 
L 257.4 -508.730318 
L 257.4 -506.191632 
L 257.4 -503.652946 
L 257.4 -501.11426 
L 257.4 -498.575573 
L 257.4 -496.036887 
L 257.4 -493.498201 
L 257.4 -490.959514 
L 257.4 -488.420828 
L 257.4 -485.882142 
L 257.4 -483.343455 
L 257.4 -480.804769 
L 257.4 -478.266083 
L 257.4 -475.727397 
L 257.4 -473.18871 
L 257.4 -470.650024 
L 257.4 -468.111338 
L 257.4 -465.572651 
L 257.4 -463.033965 
L 257.4 -460.495279 
L 257.4 -457.956593 
L 257.4 -455.417906 
L 257.4 -452.87922 
L 257.4 -450.340534 
L 257.4 -447.801847 
L 257.4 -445.263161 
L 257.4 -442.724475 
L 257.4 -440.185788 
L 257.4 -437.647102 
L 257.4 -435.108416 
L 257.4 -432.56973 
L 257.4 -430.031043 
L 257.4 -427.492357 
L 257.4 -424.953671 
L 257.4 -422.414984 
L 257.4 -419.876298 
L 257.4 -417.337612 
L 257.4 -414.798926 
L 257.4 -412.260239 
L 257.4 -409.721553 
L 257.4 -407.182867 
L 257.4 -404.64418 
L 257.4 -402.105494 
L 257.4 -399.566808 
L 257.4 -397.028121 
L 257.4 -394.489435 
L 257.4 -391.950749 
L 257.4 -389.412063 
L 257.4 -386.873376 
L 257.4 -384.33469 
L 257.4 -381.796004 
L 257.4 -379.257317 
L 257.4 -376.718631 
L 257.4 -374.179945 
L 257.4 -371.641259 
L 257.4 -369.102572 
L 257.4 -366.563886 
L 257.4 -364.0252 
L 257.4 -361.486513 
L 257.4 -358.947827 
L 257.4 -356.409141 
L 257.4 -353.870454 
L 257.4 -351.331768 
L 257.4 -348.793082 
L 257.4 -346.254396 
L 257.4 -343.715709 
L 257.4 -341.177023 
L 257.4 -338.638337 
L 257.4 -336.09965 
L 257.4 -333.560964 
L 257.4 -331.022278 
L 257.4 -328.483592 
L 257.4 -325.944905 
L 257.4 -323.406219 
L 257.4 -320.867533 
L 257.4 -318.328846 
L 257.4 -315.79016 
L 257.4 -313.251474 
L 257.4 -310.712787 
L 257.4 -308.174101 
L 257.4 -305.635415 
L 257.4 -303.096729 
L 257.4 -300.558042 
L 257.4 -298.019356 
L 257.4 -295.48067 
L 257.4 -292.941983 
L 257.4 -290.403297 
L 257.4 -287.864611 
L 257.4 -285.325924 
L 257.4 -282.787238 
L 257.4 -280.248552 
L 257.4 -277.709866 
L 257.4 -275.171179 
L 257.4 -272.632493 
L 257.4 -270.093807 
L 257.4 -267.55512 
L 257.4 -265.016434 
L 257.4 -262.477748 
L 257.4 -259.939062 
z
" style="stroke: #464646; stroke-width: 1.25"/>
    </defs>
    <g clip-path="url(#p730e8f18a9)">
     <use xlink:href="#m9e732e1307" x="0" y="720" style="fill: #be4343; stroke: #464646; stroke-width: 1.25"/>
    </g>
   </g>
   <g id="FillBetweenPolyCollection_4">
    <defs>
     <path id="m63e9421bdc" d="M 257.611825 -124.262689 
L 257.4 -124.262689 
L 257.4 -127.253753 
L 257.4 -130.244817 
L 257.4 -133.235881 
L 257.4 -136.226945 
L 257.4 -139.218009 
L 257.4 -142.209073 
L 257.4 -145.200137 
L 257.4 -148.191201 
L 257.4 -151.182265 
L 257.4 -154.173329 
L 257.4 -157.164393 
L 257.4 -160.155457 
L 257.4 -163.146521 
L 257.4 -166.137584 
L 257.4 -169.128648 
L 257.4 -172.119712 
L 257.4 -175.110776 
L 257.4 -178.10184 
L 257.4 -181.092904 
L 257.4 -184.083968 
L 257.4 -187.075032 
L 257.4 -190.066096 
L 257.4 -193.05716 
L 257.4 -196.048224 
L 257.4 -199.039288 
L 257.4 -202.030352 
L 257.4 -205.021416 
L 257.4 -208.01248 
L 257.4 -211.003544 
L 257.4 -213.994607 
L 257.4 -216.985671 
L 257.4 -219.976735 
L 257.4 -222.967799 
L 257.4 -225.958863 
L 257.4 -228.949927 
L 257.4 -231.940991 
L 257.4 -234.932055 
L 257.4 -237.923119 
L 257.4 -240.914183 
L 257.4 -243.905247 
L 257.4 -246.896311 
L 257.4 -249.887375 
L 257.4 -252.878439 
L 257.4 -255.869503 
L 257.4 -258.860567 
L 257.4 -261.85163 
L 257.4 -264.842694 
L 257.4 -267.833758 
L 257.4 -270.824822 
L 257.4 -273.815886 
L 257.4 -276.80695 
L 257.4 -279.798014 
L 257.4 -282.789078 
L 257.4 -285.780142 
L 257.4 -288.771206 
L 257.4 -291.76227 
L 257.4 -294.753334 
L 257.4 -297.744398 
L 257.4 -300.735462 
L 257.4 -303.726526 
L 257.4 -306.71759 
L 257.4 -309.708653 
L 257.4 -312.699717 
L 257.4 -315.690781 
L 257.4 -318.681845 
L 257.4 -321.672909 
L 257.4 -324.663973 
L 257.4 -327.655037 
L 257.4 -330.646101 
L 257.4 -333.637165 
L 257.4 -336.628229 
L 257.4 -339.619293 
L 257.4 -342.610357 
L 257.4 -345.601421 
L 257.4 -348.592485 
L 257.4 -351.583549 
L 257.4 -354.574613 
L 257.4 -357.565676 
L 257.4 -360.55674 
L 257.4 -363.547804 
L 257.4 -366.538868 
L 257.4 -369.529932 
L 257.4 -372.520996 
L 257.4 -375.51206 
L 257.4 -378.503124 
L 257.4 -381.494188 
L 257.4 -384.485252 
L 257.4 -387.476316 
L 257.4 -390.46738 
L 257.4 -393.458444 
L 257.4 -396.449508 
L 257.4 -399.440572 
L 257.4 -402.431636 
L 257.4 -405.422699 
L 257.4 -408.413763 
L 257.4 -411.404827 
L 257.4 -414.395891 
L 257.4 -417.386955 
L 257.4 -420.378019 
L 258.019317 -420.378019 
L 258.019317 -420.378019 
L 258.17966 -417.386955 
L 258.367311 -414.395891 
L 258.595187 -411.404827 
L 258.879859 -408.413763 
L 259.237911 -405.422699 
L 259.681969 -402.431636 
L 260.218296 -399.440572 
L 260.847386 -396.449508 
L 261.567556 -393.458444 
L 262.379646 -390.46738 
L 263.28979 -387.476316 
L 264.307854 -384.485252 
L 265.441757 -381.494188 
L 266.691187 -378.503124 
L 268.045742 -375.51206 
L 269.49036 -372.520996 
L 271.015898 -369.529932 
L 272.628011 -366.538868 
L 274.34703 -363.547804 
L 276.196308 -360.55674 
L 278.183762 -357.565676 
L 280.286385 -354.574613 
L 282.446872 -351.583549 
L 284.585459 -348.592485 
L 286.621868 -345.601421 
L 288.496784 -342.610357 
L 290.182862 -339.619293 
L 291.681581 -336.628229 
L 293.010433 -333.637165 
L 294.189512 -330.646101 
L 295.234986 -327.655037 
L 296.160833 -324.663973 
L 296.984235 -321.672909 
L 297.728293 -318.681845 
L 298.418783 -315.690781 
L 299.076753 -312.699717 
L 299.711751 -309.708653 
L 300.319265 -306.71759 
L 300.882138 -303.726526 
L 301.3731 -300.735462 
L 301.756624 -297.744398 
L 301.991812 -294.753334 
L 302.04 -291.76227 
L 301.878424 -288.771206 
L 301.515618 -285.780142 
L 300.999464 -282.789078 
L 300.409273 -279.798014 
L 299.830046 -276.80695 
L 299.317276 -273.815886 
L 298.868342 -270.824822 
L 298.4164 -267.833758 
L 297.85302 -264.842694 
L 297.071193 -261.85163 
L 296.008845 -258.860567 
L 294.67205 -255.869503 
L 293.127689 -252.878439 
L 291.471397 -249.887375 
L 289.788699 -246.896311 
L 288.128629 -243.905247 
L 286.499846 -240.914183 
L 284.885848 -237.923119 
L 283.266494 -234.932055 
L 281.632497 -231.940991 
L 279.986804 -228.949927 
L 278.336101 -225.958863 
L 276.681281 -222.967799 
L 275.014921 -219.976735 
L 273.328044 -216.985671 
L 271.62185 -213.994607 
L 269.916638 -211.003544 
L 268.251842 -208.01248 
L 266.676677 -205.021416 
L 265.236519 -202.030352 
L 263.96208 -199.039288 
L 262.865703 -196.048224 
L 261.944264 -193.05716 
L 261.184849 -190.066096 
L 260.56952 -187.075032 
L 260.077892 -184.083968 
L 259.688398 -181.092904 
L 259.379558 -178.10184 
L 259.131616 -175.110776 
L 258.928028 -172.119712 
L 258.756132 -169.128648 
L 258.606906 -166.137584 
L 258.47421 -163.146521 
L 258.354042 -160.155457 
L 258.244085 -157.164393 
L 258.143453 -154.173329 
L 258.052384 -151.182265 
L 257.971683 -148.191201 
L 257.901985 -145.200137 
L 257.84313 -142.209073 
L 257.793915 -139.218009 
L 257.752247 -136.226945 
L 257.715555 -133.235881 
L 257.681237 -130.244817 
L 257.647106 -127.253753 
L 257.611825 -124.262689 
z
" style="stroke: #464646; stroke-width: 1.25"/>
    </defs>
    <g clip-path="url(#p730e8f18a9)">
     <use xlink:href="#m63e9421bdc" x="0" y="720" style="fill: #3076bb; stroke: #464646; stroke-width: 1.25"/>
    </g>
   </g>
   <g id="FillBetweenPolyCollection_5">
    <defs>
     <path id="m3dda140082" d="M 369 -179.975836 
L 368.014948 -179.975836 
L 367.757567 -183.436896 
L 367.453269 -186.897957 
L 367.100083 -190.359017 
L 366.69754 -193.820078 
L 366.246627 -197.281139 
L 365.749524 -200.742199 
L 365.209154 -204.20326 
L 364.628626 -207.66432 
L 364.010706 -211.125381 
L 363.357418 -214.586442 
L 362.669912 -218.047502 
L 361.948642 -221.508563 
L 361.193842 -224.969623 
L 360.406258 -228.430684 
L 359.58798 -231.891745 
L 358.743245 -235.352805 
L 357.87906 -238.813866 
L 357.005507 -242.274926 
L 356.135671 -245.735987 
L 355.285162 -249.197047 
L 354.471267 -252.658108 
L 353.711815 -256.119169 
L 353.023892 -259.580229 
L 352.422558 -263.04129 
L 351.919719 -266.50235 
L 351.523337 -269.963411 
L 351.237083 -273.424472 
L 351.060499 -276.885532 
L 350.98966 -280.346593 
L 351.018221 -283.807653 
L 351.13866 -287.268714 
L 351.343492 -290.729775 
L 351.626192 -294.190835 
L 351.981655 -297.651896 
L 352.406078 -301.112956 
L 352.896306 -304.574017 
L 353.448788 -308.035078 
L 354.058376 -311.496138 
L 354.717255 -314.957199 
L 355.41424 -318.418259 
L 356.13461 -321.87932 
L 356.86051 -325.340381 
L 357.571855 -328.801441 
L 358.247553 -332.262502 
L 358.866803 -335.723562 
L 359.410259 -339.184623 
L 359.860853 -342.645683 
L 360.204181 -346.106744 
L 360.428434 -349.567805 
L 360.523927 -353.028865 
L 360.482363 -356.489926 
L 360.295988 -359.950986 
L 359.956792 -363.412047 
L 359.455935 -366.873108 
L 358.783481 -370.334168 
L 357.92857 -373.795229 
L 356.880025 -377.256289 
L 355.627429 -380.71735 
L 354.162588 -384.178411 
L 352.481317 -387.639471 
L 350.585391 -391.100532 
L 348.48451 -394.561592 
L 346.198069 -398.022653 
L 343.756531 -401.483714 
L 341.202199 -404.944774 
L 338.589196 -408.405835 
L 335.982522 -411.866895 
L 333.45611 -415.327956 
L 331.089903 -418.789017 
L 328.966056 -422.250077 
L 327.164497 -425.711138 
L 325.758148 -429.172198 
L 324.808223 -432.633259 
L 324.36 -436.094319 
L 324.439519 -439.55538 
L 325.051532 -443.016441 
L 326.178946 -446.477501 
L 327.783859 -449.938562 
L 329.810073 -453.399622 
L 332.186864 -456.860683 
L 334.833616 -460.321744 
L 337.664878 -463.782804 
L 340.595362 -467.243865 
L 343.544469 -470.704925 
L 346.439998 -474.165986 
L 349.220828 -477.627047 
L 351.838497 -481.088107 
L 354.25771 -484.549168 
L 356.455926 -488.010228 
L 358.422212 -491.471289 
L 360.155612 -494.93235 
L 361.663239 -498.39341 
L 362.958289 -501.854471 
L 364.058144 -505.315531 
L 364.982661 -508.776592 
L 365.752714 -512.237653 
L 366.389028 -515.698713 
L 366.911296 -519.159774 
L 367.337574 -522.620834 
L 369 -522.620834 
L 369 -522.620834 
L 369 -519.159774 
L 369 -515.698713 
L 369 -512.237653 
L 369 -508.776592 
L 369 -505.315531 
L 369 -501.854471 
L 369 -498.39341 
L 369 -494.93235 
L 369 -491.471289 
L 369 -488.010228 
L 369 -484.549168 
L 369 -481.088107 
L 369 -477.627047 
L 369 -474.165986 
L 369 -470.704925 
L 369 -467.243865 
L 369 -463.782804 
L 369 -460.321744 
L 369 -456.860683 
L 369 -453.399622 
L 369 -449.938562 
L 369 -446.477501 
L 369 -443.016441 
L 369 -439.55538 
L 369 -436.094319 
L 369 -432.633259 
L 369 -429.172198 
L 369 -425.711138 
L 369 -422.250077 
L 369 -418.789017 
L 369 -415.327956 
L 369 -411.866895 
L 369 -408.405835 
L 369 -404.944774 
L 369 -401.483714 
L 369 -398.022653 
L 369 -394.561592 
L 369 -391.100532 
L 369 -387.639471 
L 369 -384.178411 
L 369 -380.71735 
L 369 -377.256289 
L 369 -373.795229 
L 369 -370.334168 
L 369 -366.873108 
L 369 -363.412047 
L 369 -359.950986 
L 369 -356.489926 
L 369 -353.028865 
L 369 -349.567805 
L 369 -346.106744 
L 369 -342.645683 
L 369 -339.184623 
L 369 -335.723562 
L 369 -332.262502 
L 369 -328.801441 
L 369 -325.340381 
L 369 -321.87932 
L 369 -318.418259 
L 369 -314.957199 
L 369 -311.496138 
L 369 -308.035078 
L 369 -304.574017 
L 369 -301.112956 
L 369 -297.651896 
L 369 -294.190835 
L 369 -290.729775 
L 369 -287.268714 
L 369 -283.807653 
L 369 -280.346593 
L 369 -276.885532 
L 369 -273.424472 
L 369 -269.963411 
L 369 -266.50235 
L 369 -263.04129 
L 369 -259.580229 
L 369 -256.119169 
L 369 -252.658108 
L 369 -249.197047 
L 369 -245.735987 
L 369 -242.274926 
L 369 -238.813866 
L 369 -235.352805 
L 369 -231.891745 
L 369 -228.430684 
L 369 -224.969623 
L 369 -221.508563 
L 369 -218.047502 
L 369 -214.586442 
L 369 -211.125381 
L 369 -207.66432 
L 369 -204.20326 
L 369 -200.742199 
L 369 -197.281139 
L 369 -193.820078 
L 369 -190.359017 
L 369 -186.897957 
L 369 -183.436896 
L 369 -179.975836 
z
" style="stroke: #464646; stroke-width: 1.25"/>
    </defs>
    <g clip-path="url(#p730e8f18a9)">
     <use xlink:href="#m3dda140082" x="0" y="720" style="fill: #be4343; stroke: #464646; stroke-width: 1.25"/>
    </g>
   </g>
   <g id="FillBetweenPolyCollection_6">
    <defs>
     <path id="m4d527a7122" d="M 370.030394 -106.967105 
L 369 -106.967105 
L 369 -110.432964 
L 369 -113.898822 
L 369 -117.364681 
L 369 -120.83054 
L 369 -124.296398 
L 369 -127.762257 
L 369 -131.228115 
L 369 -134.693974 
L 369 -138.159833 
L 369 -141.625691 
L 369 -145.09155 
L 369 -148.557409 
L 369 -152.023267 
L 369 -155.489126 
L 369 -158.954984 
L 369 -162.420843 
L 369 -165.886702 
L 369 -169.35256 
L 369 -172.818419 
L 369 -176.284277 
L 369 -179.750136 
L 369 -183.215995 
L 369 -186.681853 
L 369 -190.147712 
L 369 -193.61357 
L 369 -197.079429 
L 369 -200.545288 
L 369 -204.011146 
L 369 -207.477005 
L 369 -210.942864 
L 369 -214.408722 
L 369 -217.874581 
L 369 -221.340439 
L 369 -224.806298 
L 369 -228.272157 
L 369 -231.738015 
L 369 -235.203874 
L 369 -238.669732 
L 369 -242.135591 
L 369 -245.60145 
L 369 -249.067308 
L 369 -252.533167 
L 369 -255.999025 
L 369 -259.464884 
L 369 -262.930743 
L 369 -266.396601 
L 369 -269.86246 
L 369 -273.328318 
L 369 -276.794177 
L 369 -280.260036 
L 369 -283.725894 
L 369 -287.191753 
L 369 -290.657612 
L 369 -294.12347 
L 369 -297.589329 
L 369 -301.055187 
L 369 -304.521046 
L 369 -307.986905 
L 369 -311.452763 
L 369 -314.918622 
L 369 -318.38448 
L 369 -321.850339 
L 369 -325.316198 
L 369 -328.782056 
L 369 -332.247915 
L 369 -335.713773 
L 369 -339.179632 
L 369 -342.645491 
L 369 -346.111349 
L 369 -349.577208 
L 369 -353.043067 
L 369 -356.508925 
L 369 -359.974784 
L 369 -363.440642 
L 369 -366.906501 
L 369 -370.37236 
L 369 -373.838218 
L 369 -377.304077 
L 369 -380.769935 
L 369 -384.235794 
L 369 -387.701653 
L 369 -391.167511 
L 369 -394.63337 
L 369 -398.099228 
L 369 -401.565087 
L 369 -405.030946 
L 369 -408.496804 
L 369 -411.962663 
L 369 -415.428522 
L 369 -418.89438 
L 369 -422.360239 
L 369 -425.826097 
L 369 -429.291956 
L 369 -432.757815 
L 369 -436.223673 
L 369 -439.689532 
L 369 -443.15539 
L 369 -446.621249 
L 369 -450.087108 
L 370.062647 -450.087108 
L 370.062647 -450.087108 
L 370.268371 -446.621249 
L 370.495842 -443.15539 
L 370.748096 -439.689532 
L 371.029866 -436.223673 
L 371.347567 -432.757815 
L 371.709057 -429.291956 
L 372.12321 -425.826097 
L 372.599404 -422.360239 
L 373.147022 -418.89438 
L 373.775052 -415.428522 
L 374.491881 -411.962663 
L 375.305317 -408.496804 
L 376.222832 -405.030946 
L 377.25196 -401.565087 
L 378.400659 -398.099228 
L 379.677402 -394.63337 
L 381.09069 -391.167511 
L 382.647779 -387.701653 
L 384.35259 -384.235794 
L 386.20306 -380.769935 
L 388.188499 -377.304077 
L 390.287692 -373.838218 
L 392.46846 -370.37236 
L 394.689117 -366.906501 
L 396.901792 -363.440642 
L 399.057085 -359.974784 
L 401.109121 -356.508925 
L 403.019962 -353.043067 
L 404.762467 -349.577208 
L 406.321073 -346.111349 
L 407.690463 -342.645491 
L 408.872524 -339.179632 
L 409.872374 -335.713773 
L 410.69435 -332.247915 
L 411.33885 -328.782056 
L 411.80071 -325.316198 
L 412.069444 -321.850339 
L 412.131322 -318.38448 
L 411.972864 -314.918622 
L 411.585094 -311.452763 
L 410.967787 -307.986905 
L 410.132994 -304.521046 
L 409.107299 -301.055187 
L 407.93247 -297.589329 
L 406.664353 -294.12347 
L 405.370047 -290.657612 
L 404.123526 -287.191753 
L 403.000043 -283.725894 
L 402.069853 -280.260036 
L 401.39196 -276.794177 
L 401.008723 -273.328318 
L 400.942122 -269.86246 
L 401.192285 -266.396601 
L 401.738472 -262.930743 
L 402.542277 -259.464884 
L 403.552387 -255.999025 
L 404.710034 -252.533167 
L 405.954276 -249.067308 
L 407.226466 -245.60145 
L 408.473559 -242.135591 
L 409.650163 -238.669732 
L 410.719389 -235.203874 
L 411.652565 -231.738015 
L 412.427883 -228.272157 
L 413.028124 -224.806298 
L 413.437756 -221.340439 
L 413.64 -217.874581 
L 413.614615 -214.408722 
L 413.337243 -210.942864 
L 412.780863 -207.477005 
L 411.919416 -204.011146 
L 410.733072 -200.545288 
L 409.214032 -197.079429 
L 407.371482 -193.61357 
L 405.234387 -190.147712 
L 402.851274 -186.681853 
L 400.286776 -183.215995 
L 397.615525 -179.750136 
L 394.91451 -176.284277 
L 392.255374 -172.818419 
L 389.698082 -169.35256 
L 387.286975 -165.886702 
L 385.049708 -162.420843 
L 382.998827 -158.954984 
L 381.135287 -155.489126 
L 379.4528 -152.023267 
L 377.941961 -148.557409 
L 376.593283 -145.09155 
L 375.398732 -141.625691 
L 374.351798 -138.159833 
L 373.446527 -134.693974 
L 372.676113 -131.228115 
L 372.031659 -127.762257 
L 371.501523 -124.296398 
L 371.071441 -120.83054 
L 370.725339 -117.364681 
L 370.446608 -113.898822 
L 370.219508 -110.432964 
L 370.030394 -106.967105 
z
" style="stroke: #464646; stroke-width: 1.25"/>
    </defs>
    <g clip-path="url(#p730e8f18a9)">
     <use xlink:href="#m4d527a7122" x="0" y="720" style="fill: #3076bb; stroke: #464646; stroke-width: 1.25"/>
    </g>
   </g>
   <g id="FillBetweenPolyCollection_7">
    <defs>
     <path id="m8e4d65df10" d="M 480.6 -171.430411 
L 479.686673 -171.430411 
L 479.527039 -174.163594 
L 479.356621 -176.896777 
L 479.173513 -179.62996 
L 478.973381 -182.363143 
L 478.749091 -185.096327 
L 478.490796 -187.82951 
L 478.18664 -190.562693 
L 477.824158 -193.295876 
L 477.392241 -196.029059 
L 476.883352 -198.762242 
L 476.295483 -201.495425 
L 475.633334 -204.228608 
L 474.908337 -206.961791 
L 474.137399 -209.694974 
L 473.340612 -212.428157 
L 472.538393 -215.161341 
L 471.748634 -217.894524 
L 470.98436 -220.627707 
L 470.252164 -223.36089 
L 469.551497 -226.094073 
L 468.874727 -228.827256 
L 468.207871 -231.560439 
L 467.531917 -234.293622 
L 466.824722 -237.026805 
L 466.063362 -239.759988 
L 465.226699 -242.493171 
L 464.297754 -245.226355 
L 463.265424 -247.959538 
L 462.125231 -250.692721 
L 460.879068 -253.425904 
L 459.534306 -256.159087 
L 458.10282 -258.89227 
L 456.600499 -261.625453 
L 455.047454 -264.358636 
L 453.46864 -267.091819 
L 451.89415 -269.825002 
L 450.358265 -272.558186 
L 448.896597 -275.291369 
L 447.541354 -278.024552 
L 446.31562 -280.757735 
L 445.228241 -283.490918 
L 444.271148 -286.224101 
L 443.420492 -288.957284 
L 442.641893 -291.690467 
L 441.898799 -294.42365 
L 441.161761 -297.156833 
L 440.415998 -299.890016 
L 439.664938 -302.6232 
L 438.928656 -305.356383 
L 438.237674 -308.089566 
L 437.624054 -310.822749 
L 437.112518 -313.555932 
L 436.71424 -316.289115 
L 436.425024 -319.022298 
L 436.228141 -321.755481 
L 436.100639 -324.488664 
L 436.020908 -327.221847 
L 435.975041 -329.95503 
L 435.96 -332.688214 
L 435.982732 -335.421397 
L 436.055687 -338.15458 
L 436.190359 -340.887763 
L 436.391082 -343.620946 
L 436.651289 -346.354129 
L 436.9537 -349.087312 
L 437.274696 -351.820495 
L 437.591841 -354.553678 
L 437.892398 -357.286861 
L 438.180244 -360.020044 
L 438.478859 -362.753228 
L 438.829127 -365.486411 
L 439.282221 -368.219594 
L 439.889348 -370.952777 
L 440.69116 -373.68596 
L 441.709793 -376.419143 
L 442.945676 -379.152326 
L 444.37976 -381.885509 
L 445.980135 -384.618692 
L 447.710743 -387.351875 
L 449.539391 -390.085058 
L 451.442774 -392.818242 
L 453.40733 -395.551425 
L 455.42622 -398.284608 
L 457.493858 -401.017791 
L 459.600088 -403.750974 
L 461.725921 -406.484157 
L 463.842158 -409.21734 
L 465.911163 -411.950523 
L 467.891188 -414.683706 
L 469.741982 -417.416889 
L 471.430235 -420.150073 
L 472.933628 -422.883256 
L 474.24275 -425.616439 
L 475.360732 -428.349622 
L 476.301006 -431.082805 
L 477.083893 -433.815988 
L 477.73287 -436.549171 
L 478.271244 -439.282354 
L 478.719739 -442.015537 
L 480.6 -442.015537 
L 480.6 -442.015537 
L 480.6 -439.282354 
L 480.6 -436.549171 
L 480.6 -433.815988 
L 480.6 -431.082805 
L 480.6 -428.349622 
L 480.6 -425.616439 
L 480.6 -422.883256 
L 480.6 -420.150073 
L 480.6 -417.416889 
L 480.6 -414.683706 
L 480.6 -411.950523 
L 480.6 -409.21734 
L 480.6 -406.484157 
L 480.6 -403.750974 
L 480.6 -401.017791 
L 480.6 -398.284608 
L 480.6 -395.551425 
L 480.6 -392.818242 
L 480.6 -390.085058 
L 480.6 -387.351875 
L 480.6 -384.618692 
L 480.6 -381.885509 
L 480.6 -379.152326 
L 480.6 -376.419143 
L 480.6 -373.68596 
L 480.6 -370.952777 
L 480.6 -368.219594 
L 480.6 -365.486411 
L 480.6 -362.753228 
L 480.6 -360.020044 
L 480.6 -357.286861 
L 480.6 -354.553678 
L 480.6 -351.820495 
L 480.6 -349.087312 
L 480.6 -346.354129 
L 480.6 -343.620946 
L 480.6 -340.887763 
L 480.6 -338.15458 
L 480.6 -335.421397 
L 480.6 -332.688214 
L 480.6 -329.95503 
L 480.6 -327.221847 
L 480.6 -324.488664 
L 480.6 -321.755481 
L 480.6 -319.022298 
L 480.6 -316.289115 
L 480.6 -313.555932 
L 480.6 -310.822749 
L 480.6 -308.089566 
L 480.6 -305.356383 
L 480.6 -302.6232 
L 480.6 -299.890016 
L 480.6 -297.156833 
L 480.6 -294.42365 
L 480.6 -291.690467 
L 480.6 -288.957284 
L 480.6 -286.224101 
L 480.6 -283.490918 
L 480.6 -280.757735 
L 480.6 -278.024552 
L 480.6 -275.291369 
L 480.6 -272.558186 
L 480.6 -269.825002 
L 480.6 -267.091819 
L 480.6 -264.358636 
L 480.6 -261.625453 
L 480.6 -258.89227 
L 480.6 -256.159087 
L 480.6 -253.425904 
L 480.6 -250.692721 
L 480.6 -247.959538 
L 480.6 -245.226355 
L 480.6 -242.493171 
L 480.6 -239.759988 
L 480.6 -237.026805 
L 480.6 -234.293622 
L 480.6 -231.560439 
L 480.6 -228.827256 
L 480.6 -226.094073 
L 480.6 -223.36089 
L 480.6 -220.627707 
L 480.6 -217.894524 
L 480.6 -215.161341 
L 480.6 -212.428157 
L 480.6 -209.694974 
L 480.6 -206.961791 
L 480.6 -204.228608 
L 480.6 -201.495425 
L 480.6 -198.762242 
L 480.6 -196.029059 
L 480.6 -193.295876 
L 480.6 -190.562693 
L 480.6 -187.82951 
L 480.6 -185.096327 
L 480.6 -182.363143 
L 480.6 -179.62996 
L 480.6 -176.896777 
L 480.6 -174.163594 
L 480.6 -171.430411 
z
" style="stroke: #464646; stroke-width: 1.25"/>
    </defs>
    <g clip-path="url(#p730e8f18a9)">
     <use xlink:href="#m8e4d65df10" x="0" y="720" style="fill: #be4343; stroke: #464646; stroke-width: 1.25"/>
    </g>
   </g>
   <g id="FillBetweenPolyCollection_8">
    <defs>
     <path id="m39ec4516d7" d="M 484.843449 -200.458486 
L 480.6 -200.458486 
L 480.6 -202.241504 
L 480.6 -204.024522 
L 480.6 -205.80754 
L 480.6 -207.590558 
L 480.6 -209.373576 
L 480.6 -211.156594 
L 480.6 -212.939612 
L 480.6 -214.72263 
L 480.6 -216.505648 
L 480.6 -218.288666 
L 480.6 -220.071684 
L 480.6 -221.854702 
L 480.6 -223.63772 
L 480.6 -225.420738 
L 480.6 -227.203756 
L 480.6 -228.986774 
L 480.6 -230.769792 
L 480.6 -232.55281 
L 480.6 -234.335828 
L 480.6 -236.118846 
L 480.6 -237.901864 
L 480.6 -239.684882 
L 480.6 -241.4679 
L 480.6 -243.250918 
L 480.6 -245.033936 
L 480.6 -246.816954 
L 480.6 -248.599971 
L 480.6 -250.382989 
L 480.6 -252.166007 
L 480.6 -253.949025 
L 480.6 -255.732043 
L 480.6 -257.515061 
L 480.6 -259.298079 
L 480.6 -261.081097 
L 480.6 -262.864115 
L 480.6 -264.647133 
L 480.6 -266.430151 
L 480.6 -268.213169 
L 480.6 -269.996187 
L 480.6 -271.779205 
L 480.6 -273.562223 
L 480.6 -275.345241 
L 480.6 -277.128259 
L 480.6 -278.911277 
L 480.6 -280.694295 
L 480.6 -282.477313 
L 480.6 -284.260331 
L 480.6 -286.043349 
L 480.6 -287.826367 
L 480.6 -289.609385 
L 480.6 -291.392403 
L 480.6 -293.175421 
L 480.6 -294.958439 
L 480.6 -296.741457 
L 480.6 -298.524475 
L 480.6 -300.307493 
L 480.6 -302.090511 
L 480.6 -303.873529 
L 480.6 -305.656547 
L 480.6 -307.439565 
L 480.6 -309.222583 
L 480.6 -311.005601 
L 480.6 -312.788619 
L 480.6 -314.571637 
L 480.6 -316.354655 
L 480.6 -318.137673 
L 480.6 -319.92069 
L 480.6 -321.703708 
L 480.6 -323.486726 
L 480.6 -325.269744 
L 480.6 -327.052762 
L 480.6 -328.83578 
L 480.6 -330.618798 
L 480.6 -332.401816 
L 480.6 -334.184834 
L 480.6 -335.967852 
L 480.6 -337.75087 
L 480.6 -339.533888 
L 480.6 -341.316906 
L 480.6 -343.099924 
L 480.6 -344.882942 
L 480.6 -346.66596 
L 480.6 -348.448978 
L 480.6 -350.231996 
L 480.6 -352.015014 
L 480.6 -353.798032 
L 480.6 -355.58105 
L 480.6 -357.364068 
L 480.6 -359.147086 
L 480.6 -360.930104 
L 480.6 -362.713122 
L 480.6 -364.49614 
L 480.6 -366.279158 
L 480.6 -368.062176 
L 480.6 -369.845194 
L 480.6 -371.628212 
L 480.6 -373.41123 
L 480.6 -375.194248 
L 480.6 -376.977266 
L 482.083308 -376.977266 
L 482.083308 -376.977266 
L 482.311542 -375.194248 
L 482.556786 -373.41123 
L 482.8177 -371.628212 
L 483.093135 -369.845194 
L 483.382786 -368.062176 
L 483.688003 -366.279158 
L 484.012624 -364.49614 
L 484.363672 -362.713122 
L 484.751681 -360.930104 
L 485.190487 -359.147086 
L 485.69638 -357.364068 
L 486.28664 -355.58105 
L 486.977617 -353.798032 
L 487.782651 -352.015014 
L 488.710197 -350.231996 
L 489.762505 -348.448978 
L 490.935145 -346.66596 
L 492.217479 -344.882942 
L 493.593983 -343.099924 
L 495.046154 -341.316906 
L 496.554583 -339.533888 
L 498.100748 -337.75087 
L 499.668185 -335.967852 
L 501.242812 -334.184834 
L 502.812466 -332.401816 
L 504.365872 -330.618798 
L 505.891429 -328.83578 
L 507.376246 -327.052762 
L 508.805763 -325.269744 
L 510.164139 -323.486726 
L 511.435373 -321.703708 
L 512.604905 -319.92069 
L 513.661337 -318.137673 
L 514.597878 -316.354655 
L 515.413176 -314.571637 
L 516.111401 -312.788619 
L 516.701617 -311.005601 
L 517.196671 -309.222583 
L 517.611927 -307.439565 
L 517.964173 -305.656547 
L 518.270929 -303.873529 
L 518.550192 -302.090511 
L 518.820456 -300.307493 
L 519.100695 -298.524475 
L 519.409944 -296.741457 
L 519.76618 -294.958439 
L 520.184416 -293.175421 
L 520.674178 -291.392403 
L 521.236814 -289.609385 
L 521.863228 -287.826367 
L 522.532684 -286.043349 
L 523.21316 -284.260331 
L 523.863422 -282.477313 
L 524.436647 -280.694295 
L 524.885046 -278.911277 
L 525.164732 -277.128259 
L 525.24 -275.345241 
L 525.086351 -273.562223 
L 524.691847 -271.779205 
L 524.056763 -269.996187 
L 523.19182 -268.213169 
L 522.115527 -266.430151 
L 520.85124 -264.647133 
L 519.42449 -262.864115 
L 517.860984 -261.081097 
L 516.185425 -259.298079 
L 514.421142 -257.515061 
L 512.590329 -255.732043 
L 510.714612 -253.949025 
L 508.815689 -252.166007 
L 506.915785 -250.382989 
L 505.03778 -248.599971 
L 503.204934 -246.816954 
L 501.440219 -245.033936 
L 499.765342 -243.250918 
L 498.199587 -241.4679 
L 496.758654 -239.684882 
L 495.453656 -237.901864 
L 494.290451 -236.118846 
L 493.269403 -234.335828 
L 492.385626 -232.55281 
L 491.629664 -230.769792 
L 490.988506 -228.986774 
L 490.446763 -227.203756 
L 489.987827 -225.420738 
L 489.594869 -223.63772 
L 489.251555 -221.854702 
L 488.942482 -220.071684 
L 488.653377 -218.288666 
L 488.371159 -216.505648 
L 488.084015 -214.72263 
L 487.781567 -212.939612 
L 487.455194 -211.156594 
L 487.098492 -209.373576 
L 486.707775 -207.590558 
L 486.282502 -205.80754 
L 485.825493 -204.024522 
L 485.342838 -202.241504 
L 484.843449 -200.458486 
z
" style="stroke: #464646; stroke-width: 1.25"/>
    </defs>
    <g clip-path="url(#p730e8f18a9)">
     <use xlink:href="#m39ec4516d7" x="0" y="720" style="fill: #3076bb; stroke: #464646; stroke-width: 1.25"/>
    </g>
   </g>
   <g id="FillBetweenPolyCollection_9">
    <defs>
     <path id="m8be6f7a425" d="M 592.2 -135.484911 
L 591.829856 -135.484911 
L 591.762726 -138.699862 
L 591.685049 -141.914813 
L 591.594333 -145.129765 
L 591.489149 -148.344716 
L 591.369851 -151.559667 
L 591.238786 -154.774619 
L 591.099827 -157.98957 
L 590.957254 -161.204521 
L 590.814233 -164.419473 
L 590.671309 -167.634424 
L 590.525357 -170.849375 
L 590.369376 -174.064327 
L 590.193282 -177.279278 
L 589.985614 -180.494229 
L 589.735793 -183.70918 
L 589.436376 -186.924132 
L 589.084674 -190.139083 
L 588.683261 -193.354034 
L 588.23919 -196.568986 
L 587.762119 -199.783937 
L 587.261852 -202.998888 
L 586.745885 -206.21384 
L 586.217383 -209.428791 
L 585.673678 -212.643742 
L 585.105165 -215.858693 
L 584.494468 -219.073645 
L 583.816074 -222.288596 
L 583.037031 -225.503547 
L 582.119476 -228.718499 
L 581.025386 -231.93345 
L 579.723156 -235.148401 
L 578.194656 -238.363353 
L 576.44085 -241.578304 
L 574.484277 -244.793255 
L 572.367558 -248.008207 
L 570.1483 -251.223158 
L 567.891654 -254.438109 
L 565.662083 -257.65306 
L 563.515645 -260.868012 
L 561.493644 -264.082963 
L 559.61836 -267.297914 
L 557.891687 -270.512866 
L 556.297665 -273.727817 
L 554.809538 -276.942768 
L 553.400798 -280.15772 
L 552.057981 -283.372671 
L 550.791508 -286.587622 
L 549.640549 -289.802573 
L 548.669249 -293.017525 
L 547.954454 -296.232476 
L 547.568152 -299.447427 
L 547.56 -302.662379 
L 547.945368 -305.87733 
L 548.702407 -309.092281 
L 549.778419 -312.307233 
L 551.102711 -315.522184 
L 552.601266 -318.737135 
L 554.208581 -321.952087 
L 555.873635 -325.167038 
L 557.559334 -328.381989 
L 559.237084 -331.59694 
L 560.879447 -334.811892 
L 562.453986 -338.026843 
L 563.920561 -341.241794 
L 565.232907 -344.456746 
L 566.344003 -347.671697 
L 567.213735 -350.886648 
L 567.816911 -354.1016 
L 568.149736 -357.316551 
L 568.233234 -360.531502 
L 568.11283 -363.746453 
L 567.854204 -366.961405 
L 567.536366 -370.176356 
L 567.243512 -373.391307 
L 567.05724 -376.606259 
L 567.050202 -379.82121 
L 567.281439 -383.036161 
L 567.792949 -386.251113 
L 568.606866 -389.466064 
L 569.723069 -392.681015 
L 571.117759 -395.895967 
L 572.74411 -399.110918 
L 574.535991 -402.325869 
L 576.415005 -405.54082 
L 578.299922 -408.755772 
L 580.116628 -411.970723 
L 581.806387 -415.185674 
L 583.330718 -418.400626 
L 584.672182 -421.615577 
L 585.831563 -424.830528 
L 586.822714 -428.04548 
L 587.666682 -431.260431 
L 588.386495 -434.475382 
L 589.00346 -437.690333 
L 589.535234 -440.905285 
L 589.995395 -444.120236 
L 590.393968 -447.335187 
L 590.738347 -450.550139 
L 591.034174 -453.76509 
L 592.2 -453.76509 
L 592.2 -453.76509 
L 592.2 -450.550139 
L 592.2 -447.335187 
L 592.2 -444.120236 
L 592.2 -440.905285 
L 592.2 -437.690333 
L 592.2 -434.475382 
L 592.2 -431.260431 
L 592.2 -428.04548 
L 592.2 -424.830528 
L 592.2 -421.615577 
L 592.2 -418.400626 
L 592.2 -415.185674 
L 592.2 -411.970723 
L 592.2 -408.755772 
L 592.2 -405.54082 
L 592.2 -402.325869 
L 592.2 -399.110918 
L 592.2 -395.895967 
L 592.2 -392.681015 
L 592.2 -389.466064 
L 592.2 -386.251113 
L 592.2 -383.036161 
L 592.2 -379.82121 
L 592.2 -376.606259 
L 592.2 -373.391307 
L 592.2 -370.176356 
L 592.2 -366.961405 
L 592.2 -363.746453 
L 592.2 -360.531502 
L 592.2 -357.316551 
L 592.2 -354.1016 
L 592.2 -350.886648 
L 592.2 -347.671697 
L 592.2 -344.456746 
L 592.2 -341.241794 
L 592.2 -338.026843 
L 592.2 -334.811892 
L 592.2 -331.59694 
L 592.2 -328.381989 
L 592.2 -325.167038 
L 592.2 -321.952087 
L 592.2 -318.737135 
L 592.2 -315.522184 
L 592.2 -312.307233 
L 592.2 -309.092281 
L 592.2 -305.87733 
L 592.2 -302.662379 
L 592.2 -299.447427 
L 592.2 -296.232476 
L 592.2 -293.017525 
L 592.2 -289.802573 
L 592.2 -286.587622 
L 592.2 -283.372671 
L 592.2 -280.15772 
L 592.2 -276.942768 
L 592.2 -273.727817 
L 592.2 -270.512866 
L 592.2 -267.297914 
L 592.2 -264.082963 
L 592.2 -260.868012 
L 592.2 -257.65306 
L 592.2 -254.438109 
L 592.2 -251.223158 
L 592.2 -248.008207 
L 592.2 -244.793255 
L 592.2 -241.578304 
L 592.2 -238.363353 
L 592.2 -235.148401 
L 592.2 -231.93345 
L 592.2 -228.718499 
L 592.2 -225.503547 
L 592.2 -222.288596 
L 592.2 -219.073645 
L 592.2 -215.858693 
L 592.2 -212.643742 
L 592.2 -209.428791 
L 592.2 -206.21384 
L 592.2 -202.998888 
L 592.2 -199.783937 
L 592.2 -196.568986 
L 592.2 -193.354034 
L 592.2 -190.139083 
L 592.2 -186.924132 
L 592.2 -183.70918 
L 592.2 -180.494229 
L 592.2 -177.279278 
L 592.2 -174.064327 
L 592.2 -170.849375 
L 592.2 -167.634424 
L 592.2 -164.419473 
L 592.2 -161.204521 
L 592.2 -157.98957 
L 592.2 -154.774619 
L 592.2 -151.559667 
L 592.2 -148.344716 
L 592.2 -145.129765 
L 592.2 -141.914813 
L 592.2 -138.699862 
L 592.2 -135.484911 
z
" style="stroke: #464646; stroke-width: 1.25"/>
    </defs>
    <g clip-path="url(#p730e8f18a9)">
     <use xlink:href="#m8be6f7a425" x="0" y="720" style="fill: #be4343; stroke: #464646; stroke-width: 1.25"/>
    </g>
   </g>
   <g id="FillBetweenPolyCollection_10">
    <defs>
     <path id="md52c70e23f" d="M 594.402029 -166.427325 
L 592.2 -166.427325 
L 592.2 -168.206838 
L 592.2 -169.986352 
L 592.2 -171.765865 
L 592.2 -173.545378 
L 592.2 -175.324892 
L 592.2 -177.104405 
L 592.2 -178.883918 
L 592.2 -180.663432 
L 592.2 -182.442945 
L 592.2 -184.222458 
L 592.2 -186.001972 
L 592.2 -187.781485 
L 592.2 -189.560998 
L 592.2 -191.340512 
L 592.2 -193.120025 
L 592.2 -194.899538 
L 592.2 -196.679052 
L 592.2 -198.458565 
L 592.2 -200.238078 
L 592.2 -202.017592 
L 592.2 -203.797105 
L 592.2 -205.576618 
L 592.2 -207.356132 
L 592.2 -209.135645 
L 592.2 -210.915158 
L 592.2 -212.694672 
L 592.2 -214.474185 
L 592.2 -216.253698 
L 592.2 -218.033212 
L 592.2 -219.812725 
L 592.2 -221.592238 
L 592.2 -223.371752 
L 592.2 -225.151265 
L 592.2 -226.930778 
L 592.2 -228.710292 
L 592.2 -230.489805 
L 592.2 -232.269318 
L 592.2 -234.048832 
L 592.2 -235.828345 
L 592.2 -237.607858 
L 592.2 -239.387372 
L 592.2 -241.166885 
L 592.2 -242.946398 
L 592.2 -244.725912 
L 592.2 -246.505425 
L 592.2 -248.284938 
L 592.2 -250.064452 
L 592.2 -251.843965 
L 592.2 -253.623478 
L 592.2 -255.402992 
L 592.2 -257.182505 
L 592.2 -258.962018 
L 592.2 -260.741532 
L 592.2 -262.521045 
L 592.2 -264.300558 
L 592.2 -266.080072 
L 592.2 -267.859585 
L 592.2 -269.639098 
L 592.2 -271.418612 
L 592.2 -273.198125 
L 592.2 -274.977638 
L 592.2 -276.757152 
L 592.2 -278.536665 
L 592.2 -280.316178 
L 592.2 -282.095692 
L 592.2 -283.875205 
L 592.2 -285.654718 
L 592.2 -287.434232 
L 592.2 -289.213745 
L 592.2 -290.993258 
L 592.2 -292.772772 
L 592.2 -294.552285 
L 592.2 -296.331798 
L 592.2 -298.111312 
L 592.2 -299.890825 
L 592.2 -301.670338 
L 592.2 -303.449852 
L 592.2 -305.229365 
L 592.2 -307.008878 
L 592.2 -308.788392 
L 592.2 -310.567905 
L 592.2 -312.347418 
L 592.2 -314.126932 
L 592.2 -315.906445 
L 592.2 -317.685958 
L 592.2 -319.465472 
L 592.2 -321.244985 
L 592.2 -323.024498 
L 592.2 -324.804012 
L 592.2 -326.583525 
L 592.2 -328.363038 
L 592.2 -330.142552 
L 592.2 -331.922065 
L 592.2 -333.701578 
L 592.2 -335.481092 
L 592.2 -337.260605 
L 592.2 -339.040118 
L 592.2 -340.819632 
L 592.2 -342.599145 
L 594.522209 -342.599145 
L 594.522209 -342.599145 
L 594.937983 -340.819632 
L 595.404333 -339.040118 
L 595.924008 -337.260605 
L 596.49892 -335.481092 
L 597.129712 -333.701578 
L 597.815347 -331.922065 
L 598.552759 -330.142552 
L 599.336638 -328.363038 
L 600.159426 -326.583525 
L 601.011549 -324.804012 
L 601.881932 -323.024498 
L 602.75878 -321.244985 
L 603.630589 -319.465472 
L 604.487296 -317.685958 
L 605.321465 -315.906445 
L 606.129334 -314.126932 
L 606.911597 -312.347418 
L 607.673753 -310.567905 
L 608.425915 -308.788392 
L 609.18206 -307.008878 
L 609.958734 -305.229365 
L 610.773371 -303.449852 
L 611.642415 -301.670338 
L 612.579507 -299.890825 
L 613.593999 -298.111312 
L 614.689996 -296.331798 
L 615.866056 -294.552285 
L 617.115535 -292.772772 
L 618.427492 -290.993258 
L 619.787914 -289.213745 
L 621.181049 -287.434232 
L 622.590591 -285.654718 
L 624.000543 -283.875205 
L 625.395694 -282.095692 
L 626.761725 -280.316178 
L 628.085051 -278.536665 
L 629.352565 -276.757152 
L 630.551439 -274.977638 
L 631.669119 -273.198125 
L 632.693596 -271.418612 
L 633.613937 -269.639098 
L 634.421042 -267.859585 
L 635.108491 -266.080072 
L 635.673345 -264.300558 
L 636.116729 -262.521045 
L 636.444068 -260.741532 
L 636.664849 -258.962018 
L 636.791868 -257.182505 
L 636.84 -255.402992 
L 636.824589 -253.623478 
L 636.759651 -251.843965 
L 636.656123 -250.064452 
L 636.520393 -248.284938 
L 636.353334 -246.505425 
L 636.149975 -244.725912 
L 635.899888 -242.946398 
L 635.588223 -241.166885 
L 635.197285 -239.387372 
L 634.708448 -237.607858 
L 634.104176 -235.828345 
L 633.369931 -234.048832 
L 632.495752 -232.269318 
L 631.477367 -230.489805 
L 630.316736 -228.710292 
L 629.022029 -226.930778 
L 627.607061 -225.151265 
L 626.090317 -223.371752 
L 624.493674 -221.592238 
L 622.841 -219.812725 
L 621.156748 -218.033212 
L 619.464684 -216.253698 
L 617.786814 -214.474185 
L 616.142568 -212.694672 
L 614.548253 -210.915158 
L 613.016762 -209.135645 
L 611.557523 -207.356132 
L 610.176661 -205.576618 
L 608.877322 -203.797105 
L 607.660134 -202.017592 
L 606.523727 -200.238078 
L 605.465257 -198.458565 
L 604.480872 -196.679052 
L 603.566065 -194.899538 
L 602.715892 -193.120025 
L 601.92507 -191.340512 
L 601.188005 -189.560998 
L 600.498815 -187.781485 
L 599.851428 -186.001972 
L 599.239786 -184.222458 
L 598.65818 -182.442945 
L 598.101654 -180.663432 
L 597.566419 -178.883918 
L 597.050167 -177.104405 
L 596.552214 -175.324892 
L 596.073432 -173.545378 
L 595.61596 -171.765865 
L 595.182762 -169.986352 
L 594.7771 -168.206838 
L 594.402029 -166.427325 
z
" style="stroke: #464646; stroke-width: 1.25"/>
    </defs>
    <g clip-path="url(#p730e8f18a9)">
     <use xlink:href="#md52c70e23f" x="0" y="720" style="fill: #3076bb; stroke: #464646; stroke-width: 1.25"/>
    </g>
   </g>
   <g id="patch_3">
    <path d="M 145.8 414.019775 
L 145.8 414.019775 
L 145.8 414.019775 
L 145.8 414.019775 
z
" clip-path="url(#p730e8f18a9)" style="fill: #be4343; stroke: #464646; stroke-width: 1.25; stroke-linejoin: miter"/>
   </g>
   <g id="patch_4">
    <path d="M 145.8 414.019775 
L 145.8 414.019775 
L 145.8 414.019775 
L 145.8 414.019775 
z
" clip-path="url(#p730e8f18a9)" style="fill: #3076bb; stroke: #464646; stroke-width: 1.25; stroke-linejoin: miter"/>
   </g>
   <g id="matplotlib.axis_1">
    <g id="xtick_1">
     <g id="line2d_1">
      <defs>
       <path id="m4952523634" d="M 0 0 
L 0 15 
" style="stroke: #000000; stroke-width: 0.8"/>
      </defs>
      <g>
       <use xlink:href="#m4952523634" x="145.8" y="640.8" style="stroke: #000000; stroke-width: 0.8"/>
      </g>
     </g>
     <g id="text_1">
      <!-- 0 -->
      <g transform="translate(142.61875 666.898438) scale(0.1 -0.1)">
       <defs>
        <path id="DejaVuSans-30" d="M 2034 4250 
Q 1547 4250 1301 3770 
Q 1056 3291 1056 2328 
Q 1056 1369 1301 889 
Q 1547 409 2034 409 
Q 2525 409 2770 889 
Q 3016 1369 3016 2328 
Q 3016 3291 2770 3770 
Q 2525 4250 2034 4250 
z
M 2034 4750 
Q 2819 4750 3233 4129 
Q 3647 3509 3647 2328 
Q 3647 1150 3233 529 
Q 2819 -91 2034 -91 
Q 1250 -91 836 529 
Q 422 1150 422 2328 
Q 422 3509 836 4129 
Q 1250 4750 2034 4750 
z
" transform="scale(0.015625)"/>
       </defs>
       <use xlink:href="#DejaVuSans-30"/>
      </g>
     </g>
    </g>
    <g id="xtick_2">
     <g id="line2d_2">
      <g>
       <use xlink:href="#m4952523634" x="257.4" y="640.8" style="stroke: #000000; stroke-width: 0.8"/>
      </g>
     </g>
     <g id="text_2">
      <!-- 1 -->
      <g transform="translate(254.21875 666.898438) scale(0.1 -0.1)">
       <defs>
        <path id="DejaVuSans-31" d="M 794 531 
L 1825 531 
L 1825 4091 
L 703 3866 
L 703 4441 
L 1819 4666 
L 2450 4666 
L 2450 531 
L 3481 531 
L 3481 0 
L 794 0 
L 794 531 
z
" transform="scale(0.015625)"/>
       </defs>
       <use xlink:href="#DejaVuSans-31"/>
      </g>
     </g>
    </g>
    <g id="xtick_3">
     <g id="line2d_3">
      <g>
       <use xlink:href="#m4952523634" x="369" y="640.8" style="stroke: #000000; stroke-width: 0.8"/>
      </g>
     </g>
     <g id="text_3">
      <!-- 3 -->
      <g transform="translate(365.81875 666.898438) scale(0.1 -0.1)">
       <defs>
        <path id="DejaVuSans-33" d="M 2597 2516 
Q 3050 2419 3304 2112 
Q 3559 1806 3559 1356 
Q 3559 666 3084 287 
Q 2609 -91 1734 -91 
Q 1441 -91 1130 -33 
Q 819 25 488 141 
L 488 750 
Q 750 597 1062 519 
Q 1375 441 1716 441 
Q 2309 441 2620 675 
Q 2931 909 2931 1356 
Q 2931 1769 2642 2001 
Q 2353 2234 1838 2234 
L 1294 2234 
L 1294 2753 
L 1863 2753 
Q 2328 2753 2575 2939 
Q 2822 3125 2822 3475 
Q 2822 3834 2567 4026 
Q 2313 4219 1838 4219 
Q 1578 4219 1281 4162 
Q 984 4106 628 3988 
L 628 4550 
Q 988 4650 1302 4700 
Q 1616 4750 1894 4750 
Q 2613 4750 3031 4423 
Q 3450 4097 3450 3541 
Q 3450 3153 3228 2886 
Q 3006 2619 2597 2516 
z
" transform="scale(0.015625)"/>
       </defs>
       <use xlink:href="#DejaVuSans-33"/>
      </g>
     </g>
    </g>
    <g id="xtick_4">
     <g id="line2d_4">
      <g>
       <use xlink:href="#m4952523634" x="480.6" y="640.8" style="stroke: #000000; stroke-width: 0.8"/>
      </g>
     </g>
     <g id="text_4">
      <!-- 5 -->
      <g transform="translate(477.41875 666.898438) scale(0.1 -0.1)">
       <defs>
        <path id="DejaVuSans-35" d="M 691 4666 
L 3169 4666 
L 3169 4134 
L 1269 4134 
L 1269 2991 
Q 1406 3038 1543 3061 
Q 1681 3084 1819 3084 
Q 2600 3084 3056 2656 
Q 3513 2228 3513 1497 
Q 3513 744 3044 326 
Q 2575 -91 1722 -91 
Q 1428 -91 1123 -41 
Q 819 9 494 109 
L 494 744 
Q 775 591 1075 516 
Q 1375 441 1709 441 
Q 2250 441 2565 725 
Q 2881 1009 2881 1497 
Q 2881 1984 2565 2268 
Q 2250 2553 1709 2553 
Q 1456 2553 1204 2497 
Q 953 2441 691 2322 
L 691 4666 
z
" transform="scale(0.015625)"/>
       </defs>
       <use xlink:href="#DejaVuSans-35"/>
      </g>
     </g>
    </g>
    <g id="xtick_5">
     <g id="line2d_5">
      <g>
       <use xlink:href="#m4952523634" x="592.2" y="640.8" style="stroke: #000000; stroke-width: 0.8"/>
      </g>
     </g>
     <g id="text_5">
      <!-- 7 -->
      <g transform="translate(589.01875 666.898438) scale(0.1 -0.1)">
       <defs>
        <path id="DejaVuSans-37" d="M 525 4666 
L 3525 4666 
L 3525 4397 
L 1831 0 
L 1172 0 
L 2766 4134 
L 525 4134 
L 525 4666 
z
" transform="scale(0.015625)"/>
       </defs>
       <use xlink:href="#DejaVuSans-37"/>
      </g>
     </g>
    </g>
    <g id="text_6">
     <!-- breadth -->
     <g transform="translate(329.878125 688.175) scale(0.2 -0.2)">
      <defs>
       <path id="DejaVuSans-62" d="M 3116 1747 
Q 3116 2381 2855 2742 
Q 2594 3103 2138 3103 
Q 1681 3103 1420 2742 
Q 1159 2381 1159 1747 
Q 1159 1113 1420 752 
Q 1681 391 2138 391 
Q 2594 391 2855 752 
Q 3116 1113 3116 1747 
z
M 1159 2969 
Q 1341 3281 1617 3432 
Q 1894 3584 2278 3584 
Q 2916 3584 3314 3078 
Q 3713 2572 3713 1747 
Q 3713 922 3314 415 
Q 2916 -91 2278 -91 
Q 1894 -91 1617 61 
Q 1341 213 1159 525 
L 1159 0 
L 581 0 
L 581 4863 
L 1159 4863 
L 1159 2969 
z
" transform="scale(0.015625)"/>
       <path id="DejaVuSans-72" d="M 2631 2963 
Q 2534 3019 2420 3045 
Q 2306 3072 2169 3072 
Q 1681 3072 1420 2755 
Q 1159 2438 1159 1844 
L 1159 0 
L 581 0 
L 581 3500 
L 1159 3500 
L 1159 2956 
Q 1341 3275 1631 3429 
Q 1922 3584 2338 3584 
Q 2397 3584 2469 3576 
Q 2541 3569 2628 3553 
L 2631 2963 
z
" transform="scale(0.015625)"/>
       <path id="DejaVuSans-65" d="M 3597 1894 
L 3597 1613 
L 953 1613 
Q 991 1019 1311 708 
Q 1631 397 2203 397 
Q 2534 397 2845 478 
Q 3156 559 3463 722 
L 3463 178 
Q 3153 47 2828 -22 
Q 2503 -91 2169 -91 
Q 1331 -91 842 396 
Q 353 884 353 1716 
Q 353 2575 817 3079 
Q 1281 3584 2069 3584 
Q 2775 3584 3186 3129 
Q 3597 2675 3597 1894 
z
M 3022 2063 
Q 3016 2534 2758 2815 
Q 2500 3097 2075 3097 
Q 1594 3097 1305 2825 
Q 1016 2553 972 2059 
L 3022 2063 
z
" transform="scale(0.015625)"/>
       <path id="DejaVuSans-61" d="M 2194 1759 
Q 1497 1759 1228 1600 
Q 959 1441 959 1056 
Q 959 750 1161 570 
Q 1363 391 1709 391 
Q 2188 391 2477 730 
Q 2766 1069 2766 1631 
L 2766 1759 
L 2194 1759 
z
M 3341 1997 
L 3341 0 
L 2766 0 
L 2766 531 
Q 2569 213 2275 61 
Q 1981 -91 1556 -91 
Q 1019 -91 701 211 
Q 384 513 384 1019 
Q 384 1609 779 1909 
Q 1175 2209 1959 2209 
L 2766 2209 
L 2766 2266 
Q 2766 2663 2505 2880 
Q 2244 3097 1772 3097 
Q 1472 3097 1187 3025 
Q 903 2953 641 2809 
L 641 3341 
Q 956 3463 1253 3523 
Q 1550 3584 1831 3584 
Q 2591 3584 2966 3190 
Q 3341 2797 3341 1997 
z
" transform="scale(0.015625)"/>
       <path id="DejaVuSans-64" d="M 2906 2969 
L 2906 4863 
L 3481 4863 
L 3481 0 
L 2906 0 
L 2906 525 
Q 2725 213 2448 61 
Q 2172 -91 1784 -91 
Q 1150 -91 751 415 
Q 353 922 353 1747 
Q 353 2572 751 3078 
Q 1150 3584 1784 3584 
Q 2172 3584 2448 3432 
Q 2725 3281 2906 2969 
z
M 947 1747 
Q 947 1113 1208 752 
Q 1469 391 1925 391 
Q 2381 391 2643 752 
Q 2906 1113 2906 1747 
Q 2906 2381 2643 2742 
Q 2381 3103 1925 3103 
Q 1469 3103 1208 2742 
Q 947 2381 947 1747 
z
" transform="scale(0.015625)"/>
       <path id="DejaVuSans-74" d="M 1172 4494 
L 1172 3500 
L 2356 3500 
L 2356 3053 
L 1172 3053 
L 1172 1153 
Q 1172 725 1289 603 
Q 1406 481 1766 481 
L 2356 481 
L 2356 0 
L 1766 0 
Q 1100 0 847 248 
Q 594 497 594 1153 
L 594 3053 
L 172 3053 
L 172 3500 
L 594 3500 
L 594 4494 
L 1172 4494 
z
" transform="scale(0.015625)"/>
       <path id="DejaVuSans-68" d="M 3513 2113 
L 3513 0 
L 2938 0 
L 2938 2094 
Q 2938 2591 2744 2837 
Q 2550 3084 2163 3084 
Q 1697 3084 1428 2787 
Q 1159 2491 1159 1978 
L 1159 0 
L 581 0 
L 581 4863 
L 1159 4863 
L 1159 2956 
Q 1366 3272 1645 3428 
Q 1925 3584 2291 3584 
Q 2894 3584 3203 3211 
Q 3513 2838 3513 2113 
z
" transform="scale(0.015625)"/>
      </defs>
      <use xlink:href="#DejaVuSans-62"/>
      <use xlink:href="#DejaVuSans-72" transform="translate(63.476562 0)"/>
      <use xlink:href="#DejaVuSans-65" transform="translate(102.339844 0)"/>
      <use xlink:href="#DejaVuSans-61" transform="translate(163.863281 0)"/>
      <use xlink:href="#DejaVuSans-64" transform="translate(225.142578 0)"/>
      <use xlink:href="#DejaVuSans-74" transform="translate(288.619141 0)"/>
      <use xlink:href="#DejaVuSans-68" transform="translate(327.828125 0)"/>
     </g>
    </g>
   </g>
   <g id="matplotlib.axis_2">
    <g id="ytick_1">
     <g id="line2d_6">
      <defs>
       <path id="md77995db3e" d="M 0 0 
L -15 0 
" style="stroke: #000000; stroke-width: 0.8"/>
      </defs>
      <g>
       <use xlink:href="#md77995db3e" x="90" y="576.299377" style="stroke: #000000; stroke-width: 0.8"/>
      </g>
     </g>
     <g id="text_7">
      <!-- 2 -->
      <g transform="translate(56.757812 580.098596) scale(0.1 -0.1)">
       <defs>
        <path id="DejaVuSans-2212" d="M 678 2272 
L 4684 2272 
L 4684 1741 
L 678 1741 
L 678 2272 
z
" transform="scale(0.015625)"/>
        <path id="DejaVuSans-32" d="M 1228 531 
L 3431 531 
L 3431 0 
L 469 0 
L 469 531 
Q 828 903 1448 1529 
Q 2069 2156 2228 2338 
Q 2531 2678 2651 2914 
Q 2772 3150 2772 3378 
Q 2772 3750 2511 3984 
Q 2250 4219 1831 4219 
Q 1534 4219 1204 4116 
Q 875 4013 500 3803 
L 500 4441 
Q 881 4594 1212 4672 
Q 1544 4750 1819 4750 
Q 2544 4750 2975 4387 
Q 3406 4025 3406 3419 
Q 3406 3131 3298 2873 
Q 3191 2616 2906 2266 
Q 2828 2175 2409 1742 
Q 1991 1309 1228 531 
z
" transform="scale(0.015625)"/>
       </defs>
       <use xlink:href="#DejaVuSans-2212"/>
       <use xlink:href="#DejaVuSans-32" transform="translate(83.789062 0)"/>
      </g>
     </g>
    </g>
    <g id="ytick_2">
     <g id="line2d_7">
      <g>
       <use xlink:href="#md77995db3e" x="90" y="495.159576" style="stroke: #000000; stroke-width: 0.8"/>
      </g>
     </g>
     <g id="text_8">
      <!-- 1 -->
      <g transform="translate(56.757812 498.958795) scale(0.1 -0.1)">
       <use xlink:href="#DejaVuSans-2212"/>
       <use xlink:href="#DejaVuSans-31" transform="translate(83.789062 0)"/>
      </g>
     </g>
    </g>
    <g id="ytick_3">
     <g id="line2d_8">
      <g>
       <use xlink:href="#md77995db3e" x="90" y="414.019775" style="stroke: #000000; stroke-width: 0.8"/>
      </g>
     </g>
     <g id="text_9">
      <!-- 0 -->
      <g transform="translate(65.1375 417.818994) scale(0.1 -0.1)">
       <use xlink:href="#DejaVuSans-30"/>
      </g>
     </g>
    </g>
    <g id="ytick_4">
     <g id="line2d_9">
      <g>
       <use xlink:href="#md77995db3e" x="90" y="332.879974" style="stroke: #000000; stroke-width: 0.8"/>
      </g>
     </g>
     <g id="text_10">
      <!-- 1 -->
      <g transform="translate(65.1375 336.679193) scale(0.1 -0.1)">
       <use xlink:href="#DejaVuSans-31"/>
      </g>
     </g>
    </g>
    <g id="ytick_5">
     <g id="line2d_10">
      <g>
       <use xlink:href="#md77995db3e" x="90" y="251.740173" style="stroke: #000000; stroke-width: 0.8"/>
      </g>
     </g>
     <g id="text_11">
      <!-- 2 -->
      <g transform="translate(65.1375 255.539392) scale(0.1 -0.1)">
       <use xlink:href="#DejaVuSans-32"/>
      </g>
     </g>
    </g>
    <g id="ytick_6">
     <g id="line2d_11">
      <g>
       <use xlink:href="#md77995db3e" x="90" y="170.600372" style="stroke: #000000; stroke-width: 0.8"/>
      </g>
     </g>
     <g id="text_12">
      <!-- 3 -->
      <g transform="translate(65.1375 174.399591) scale(0.1 -0.1)">
       <use xlink:href="#DejaVuSans-33"/>
      </g>
     </g>
    </g>
    <g id="ytick_7">
     <g id="line2d_12">
      <g>
       <use xlink:href="#md77995db3e" x="90" y="89.460571" style="stroke: #000000; stroke-width: 0.8"/>
      </g>
     </g>
     <g id="text_13">
      <!-- 4 -->
      <g transform="translate(65.1375 93.25979) scale(0.1 -0.1)">
       <defs>
        <path id="DejaVuSans-34" d="M 2419 4116 
L 825 1625 
L 2419 1625 
L 2419 4116 
z
M 2253 4666 
L 3047 4666 
L 3047 1625 
L 3713 1625 
L 3713 1100 
L 3047 1100 
L 3047 0 
L 2419 0 
L 2419 1100 
L 313 1100 
L 313 1709 
L 2253 4666 
z
" transform="scale(0.015625)"/>
       </defs>
       <use xlink:href="#DejaVuSans-34"/>
      </g>
     </g>
    </g>
    <g id="text_14">
     <!-- expression (z-score) -->
     <g transform="translate(48.598437 464.240625) rotate(-90) scale(0.2 -0.2)">
      <defs>
       <path id="DejaVuSans-78" d="M 3513 3500 
L 2247 1797 
L 3578 0 
L 2900 0 
L 1881 1375 
L 863 0 
L 184 0 
L 1544 1831 
L 300 3500 
L 978 3500 
L 1906 2253 
L 2834 3500 
L 3513 3500 
z
" transform="scale(0.015625)"/>
       <path id="DejaVuSans-70" d="M 1159 525 
L 1159 -1331 
L 581 -1331 
L 581 3500 
L 1159 3500 
L 1159 2969 
Q 1341 3281 1617 3432 
Q 1894 3584 2278 3584 
Q 2916 3584 3314 3078 
Q 3713 2572 3713 1747 
Q 3713 922 3314 415 
Q 2916 -91 2278 -91 
Q 1894 -91 1617 61 
Q 1341 213 1159 525 
z
M 3116 1747 
Q 3116 2381 2855 2742 
Q 2594 3103 2138 3103 
Q 1681 3103 1420 2742 
Q 1159 2381 1159 1747 
Q 1159 1113 1420 752 
Q 1681 391 2138 391 
Q 2594 391 2855 752 
Q 3116 1113 3116 1747 
z
" transform="scale(0.015625)"/>
       <path id="DejaVuSans-73" d="M 2834 3397 
L 2834 2853 
Q 2591 2978 2328 3040 
Q 2066 3103 1784 3103 
Q 1356 3103 1142 2972 
Q 928 2841 928 2578 
Q 928 2378 1081 2264 
Q 1234 2150 1697 2047 
L 1894 2003 
Q 2506 1872 2764 1633 
Q 3022 1394 3022 966 
Q 3022 478 2636 193 
Q 2250 -91 1575 -91 
Q 1294 -91 989 -36 
Q 684 19 347 128 
L 347 722 
Q 666 556 975 473 
Q 1284 391 1588 391 
Q 1994 391 2212 530 
Q 2431 669 2431 922 
Q 2431 1156 2273 1281 
Q 2116 1406 1581 1522 
L 1381 1569 
Q 847 1681 609 1914 
Q 372 2147 372 2553 
Q 372 3047 722 3315 
Q 1072 3584 1716 3584 
Q 2034 3584 2315 3537 
Q 2597 3491 2834 3397 
z
" transform="scale(0.015625)"/>
       <path id="DejaVuSans-69" d="M 603 3500 
L 1178 3500 
L 1178 0 
L 603 0 
L 603 3500 
z
M 603 4863 
L 1178 4863 
L 1178 4134 
L 603 4134 
L 603 4863 
z
" transform="scale(0.015625)"/>
       <path id="DejaVuSans-6f" d="M 1959 3097 
Q 1497 3097 1228 2736 
Q 959 2375 959 1747 
Q 959 1119 1226 758 
Q 1494 397 1959 397 
Q 2419 397 2687 759 
Q 2956 1122 2956 1747 
Q 2956 2369 2687 2733 
Q 2419 3097 1959 3097 
z
M 1959 3584 
Q 2709 3584 3137 3096 
Q 3566 2609 3566 1747 
Q 3566 888 3137 398 
Q 2709 -91 1959 -91 
Q 1206 -91 779 398 
Q 353 888 353 1747 
Q 353 2609 779 3096 
Q 1206 3584 1959 3584 
z
" transform="scale(0.015625)"/>
       <path id="DejaVuSans-6e" d="M 3513 2113 
L 3513 0 
L 2938 0 
L 2938 2094 
Q 2938 2591 2744 2837 
Q 2550 3084 2163 3084 
Q 1697 3084 1428 2787 
Q 1159 2491 1159 1978 
L 1159 0 
L 581 0 
L 581 3500 
L 1159 3500 
L 1159 2956 
Q 1366 3272 1645 3428 
Q 1925 3584 2291 3584 
Q 2894 3584 3203 3211 
Q 3513 2838 3513 2113 
z
" transform="scale(0.015625)"/>
       <path id="DejaVuSans-20" transform="scale(0.015625)"/>
       <path id="DejaVuSans-28" d="M 1984 4856 
Q 1566 4138 1362 3434 
Q 1159 2731 1159 2009 
Q 1159 1288 1364 580 
Q 1569 -128 1984 -844 
L 1484 -844 
Q 1016 -109 783 600 
Q 550 1309 550 2009 
Q 550 2706 781 3412 
Q 1013 4119 1484 4856 
L 1984 4856 
z
" transform="scale(0.015625)"/>
       <path id="DejaVuSans-7a" d="M 353 3500 
L 3084 3500 
L 3084 2975 
L 922 459 
L 3084 459 
L 3084 0 
L 275 0 
L 275 525 
L 2438 3041 
L 353 3041 
L 353 3500 
z
" transform="scale(0.015625)"/>
       <path id="DejaVuSans-2d" d="M 313 2009 
L 1997 2009 
L 1997 1497 
L 313 1497 
L 313 2009 
z
" transform="scale(0.015625)"/>
       <path id="DejaVuSans-63" d="M 3122 3366 
L 3122 2828 
Q 2878 2963 2633 3030 
Q 2388 3097 2138 3097 
Q 1578 3097 1268 2742 
Q 959 2388 959 1747 
Q 959 1106 1268 751 
Q 1578 397 2138 397 
Q 2388 397 2633 464 
Q 2878 531 3122 666 
L 3122 134 
Q 2881 22 2623 -34 
Q 2366 -91 2075 -91 
Q 1284 -91 818 406 
Q 353 903 353 1747 
Q 353 2603 823 3093 
Q 1294 3584 2113 3584 
Q 2378 3584 2631 3529 
Q 2884 3475 3122 3366 
z
" transform="scale(0.015625)"/>
       <path id="DejaVuSans-29" d="M 513 4856 
L 1013 4856 
Q 1481 4119 1714 3412 
Q 1947 2706 1947 2009 
Q 1947 1309 1714 600 
Q 1481 -109 1013 -844 
L 513 -844 
Q 928 -128 1133 580 
Q 1338 1288 1338 2009 
Q 1338 2731 1133 3434 
Q 928 4138 513 4856 
z
" transform="scale(0.015625)"/>
      </defs>
      <use xlink:href="#DejaVuSans-65"/>
      <use xlink:href="#DejaVuSans-78" transform="translate(59.773438 0)"/>
      <use xlink:href="#DejaVuSans-70" transform="translate(118.953125 0)"/>
      <use xlink:href="#DejaVuSans-72" transform="translate(182.429688 0)"/>
      <use xlink:href="#DejaVuSans-65" transform="translate(221.292969 0)"/>
      <use xlink:href="#DejaVuSans-73" transform="translate(282.816406 0)"/>
      <use xlink:href="#DejaVuSans-73" transform="translate(334.916016 0)"/>
      <use xlink:href="#DejaVuSans-69" transform="translate(387.015625 0)"/>
      <use xlink:href="#DejaVuSans-6f" transform="translate(414.798828 0)"/>
      <use xlink:href="#DejaVuSans-6e" transform="translate(475.980469 0)"/>
      <use xlink:href="#DejaVuSans-20" transform="translate(539.359375 0)"/>
      <use xlink:href="#DejaVuSans-28" transform="translate(571.146484 0)"/>
      <use xlink:href="#DejaVuSans-7a" transform="translate(610.160156 0)"/>
      <use xlink:href="#DejaVuSans-2d" transform="translate(662.650391 0)"/>
      <use xlink:href="#DejaVuSans-73" transform="translate(698.734375 0)"/>
      <use xlink:href="#DejaVuSans-63" transform="translate(750.833984 0)"/>
      <use xlink:href="#DejaVuSans-6f" transform="translate(805.814453 0)"/>
      <use xlink:href="#DejaVuSans-72" transform="translate(866.996094 0)"/>
      <use xlink:href="#DejaVuSans-65" transform="translate(905.859375 0)"/>
      <use xlink:href="#DejaVuSans-29" transform="translate(967.382812 0)"/>
     </g>
    </g>
   </g>
   <g id="patch_5">
    <path d="M 90 640.8 
L 90 86.4 
" style="fill: none; stroke: #000000; stroke-width: 0.8; stroke-linejoin: miter; stroke-linecap: square"/>
   </g>
   <g id="patch_6">
    <path d="M 90 640.8 
L 648 640.8 
" style="fill: none; stroke: #000000; stroke-width: 0.8; stroke-linejoin: miter; stroke-linecap: square"/>
   </g>
   <g id="legend_1">
    <g id="patch_7">
     <path d="M 601.51875 138.434375 
L 641 138.434375 
Q 643 138.434375 643 136.434375 
L 643 93.4 
Q 643 91.4 641 91.4 
L 601.51875 91.4 
Q 599.51875 91.4 599.51875 93.4 
L 599.51875 136.434375 
Q 599.51875 138.434375 601.51875 138.434375 
z
" style="fill: #ffffff; opacity: 0.8; stroke: #cccccc; stroke-linejoin: miter"/>
    </g>
    <g id="text_15">
     <!-- bNAbs -->
     <g transform="translate(605.145312 102.998437) scale(0.1 -0.1)">
      <defs>
       <path id="DejaVuSans-4e" d="M 628 4666 
L 1478 4666 
L 3547 763 
L 3547 4666 
L 4159 4666 
L 4159 0 
L 3309 0 
L 1241 3903 
L 1241 0 
L 628 0 
L 628 4666 
z
" transform="scale(0.015625)"/>
       <path id="DejaVuSans-41" d="M 2188 4044 
L 1331 1722 
L 3047 1722 
L 2188 4044 
z
M 1831 4666 
L 2547 4666 
L 4325 0 
L 3669 0 
L 3244 1197 
L 1141 1197 
L 716 0 
L 50 0 
L 1831 4666 
z
" transform="scale(0.015625)"/>
      </defs>
      <use xlink:href="#DejaVuSans-62"/>
      <use xlink:href="#DejaVuSans-4e" transform="translate(63.476562 0)"/>
      <use xlink:href="#DejaVuSans-41" transform="translate(138.28125 0)"/>
      <use xlink:href="#DejaVuSans-62" transform="translate(206.689453 0)"/>
      <use xlink:href="#DejaVuSans-73" transform="translate(270.166016 0)"/>
     </g>
    </g>
    <g id="patch_8">
     <path d="M 603.51875 117.676562 
L 623.51875 117.676562 
L 623.51875 110.676562 
L 603.51875 110.676562 
z
" style="fill: #be4343; stroke: #464646; stroke-width: 1.25; stroke-linejoin: miter"/>
    </g>
    <g id="text_16">
     <!-- Y -->
     <g transform="translate(631.51875 117.676562) scale(0.1 -0.1)">
      <defs>
       <path id="DejaVuSans-59" d="M -13 4666 
L 666 4666 
L 1959 2747 
L 3244 4666 
L 3922 4666 
L 2272 2222 
L 2272 0 
L 1638 0 
L 1638 2222 
L -13 4666 
z
" transform="scale(0.015625)"/>
      </defs>
      <use xlink:href="#DejaVuSans-59"/>
     </g>
    </g>
    <g id="patch_9">
     <path d="M 603.51875 132.354687 
L 623.51875 132.354687 
L 623.51875 125.354687 
L 603.51875 125.354687 
z
" style="fill: #3076bb; stroke: #464646; stroke-width: 1.25; stroke-linejoin: miter"/>
    </g>
    <g id="text_17">
     <!-- N -->
     <g transform="translate(631.51875 132.354687) scale(0.1 -0.1)">
      <use xlink:href="#DejaVuSans-4e"/>
     </g>
    </g>
   </g>
  </g>
 </g>
 <defs>
  <clipPath id="p730e8f18a9">
   <rect x="90" y="86.4" width="558" height="554.4"/>
  </clipPath>
 </defs>
</svg>
