<?xml version="1.0" encoding="utf-8" standalone="no"?>
<!DOCTYPE svg PUBLIC "-//W3C//DTD SVG 1.1//EN"
  "http://www.w3.org/Graphics/SVG/1.1/DTD/svg11.dtd">
<svg xmlns:xlink="http://www.w3.org/1999/xlink" width="144pt" height="144pt" viewBox="0 0 144 144" xmlns="http://www.w3.org/2000/svg" version="1.1">
 <metadata>
  <rdf:RDF xmlns:dc="http://purl.org/dc/elements/1.1/" xmlns:cc="http://creativecommons.org/ns#" xmlns:rdf="http://www.w3.org/1999/02/22-rdf-syntax-ns#">
   <cc:Work>
    <dc:type rdf:resource="http://purl.org/dc/dcmitype/StillImage"/>
    <dc:date>2026-02-17T13:08:27.755387</dc:date>
    <dc:format>image/svg+xml</dc:format>
    <dc:creator>
     <cc:Agent>
      <dc:title>Matplotlib v3.10.6, https://matplotlib.org/</dc:title>
     </cc:Agent>
    </dc:creator>
   </cc:Work>
  </rdf:RDF>
 </metadata>
 <defs>
  <style type="text/css">*{stroke-linejoin: round; stroke-linecap: butt}</style>
 </defs>
 <g id="figure_1">
  <g id="patch_1">
   <path d="M 0 144 
L 144 144 
L 144 0 
L 0 0 
z
" style="fill: #ffffff"/>
  </g>
  <g id="axes_1">
   <g id="patch_2">
    <path d="M 18 128.16 
L 129.6 128.16 
L 129.6 17.28 
L 18 17.28 
z
" style="fill: #ffffff"/>
   </g>
   <g id="matplotlib.axis_1">
    <g id="xtick_1">
     <g id="line2d_1">
      <defs>
       <path id="m819894d073" d="M 0 0 
L 0 3.5 
" style="stroke: #000000; stroke-width: 0.8"/>
      </defs>
      <g>
       <use xlink:href="#m819894d073" x="76.31618" y="72.72" style="stroke: #000000; stroke-width: 0.8"/>
      </g>
     </g>
    </g>
    <g id="xtick_2">
     <g id="line2d_2">
      <g>
       <use xlink:href="#m819894d073" x="129.6" y="72.72" style="stroke: #000000; stroke-width: 0.8"/>
      </g>
     </g>
    </g>
   </g>
   <g id="matplotlib.axis_2">
    <g id="ytick_1">
     <g id="line2d_3">
      <defs>
       <path id="m8e0a081166" d="M 0 0 
L -3.5 0 
" style="stroke: #000000; stroke-width: 0.8"/>
      </defs>
      <g>
       <use xlink:href="#m8e0a081166" x="18" y="104.4" style="stroke: #000000; stroke-width: 0.8"/>
      </g>
     </g>
     <g id="text_1">
      <!-- −2 -->
      <g transform="translate(-3.742188 108.199219) scale(0.1 -0.1)">
       <defs>
        <path id="DejaVuSans-2212" d="M 678 2272 
L 4684 2272 
L 4684 1741 
L 678 1741 
L 678 2272 
z
" transform="scale(0.015625)"/>
        <path id="DejaVuSans-32" d="M 1228 531 
L 3431 531 
L 3431 0 
L 469 0 
L 469 531 
Q 828 903 1448 1529 
Q 2069 2156 2228 2338 
Q 2531 2678 2651 2914 
Q 2772 3150 2772 3378 
Q 2772 3750 2511 3984 
Q 2250 4219 1831 4219 
Q 1534 4219 1204 4116 
Q 875 4013 500 3803 
L 500 4441 
Q 881 4594 1212 4672 
Q 1544 4750 1819 4750 
Q 2544 4750 2975 4387 
Q 3406 4025 3406 3419 
Q 3406 3131 3298 2873 
Q 3191 2616 2906 2266 
Q 2828 2175 2409 1742 
Q 1991 1309 1228 531 
z
" transform="scale(0.015625)"/>
       </defs>
       <use xlink:href="#DejaVuSans-2212"/>
       <use xlink:href="#DejaVuSans-32" transform="translate(83.789062 0)"/>
      </g>
     </g>
    </g>
    <g id="ytick_2">
     <g id="line2d_4">
      <g>
       <use xlink:href="#m8e0a081166" x="18" y="72.72" style="stroke: #000000; stroke-width: 0.8"/>
      </g>
     </g>
     <g id="text_2">
      <!-- 0 -->
      <g transform="translate(4.6375 76.519219) scale(0.1 -0.1)">
       <defs>
        <path id="DejaVuSans-30" d="M 2034 4250 
Q 1547 4250 1301 3770 
Q 1056 3291 1056 2328 
Q 1056 1369 1301 889 
Q 1547 409 2034 409 
Q 2525 409 2770 889 
Q 3016 1369 3016 2328 
Q 3016 3291 2770 3770 
Q 2525 4250 2034 4250 
z
M 2034 4750 
Q 2819 4750 3233 4129 
Q 3647 3509 3647 2328 
Q 3647 1150 3233 529 
Q 2819 -91 2034 -91 
Q 1250 -91 836 529 
Q 422 1150 422 2328 
Q 422 3509 836 4129 
Q 1250 4750 2034 4750 
z
" transform="scale(0.015625)"/>
       </defs>
       <use xlink:href="#DejaVuSans-30"/>
      </g>
     </g>
    </g>
    <g id="ytick_3">
     <g id="line2d_5">
      <g>
       <use xlink:href="#m8e0a081166" x="18" y="41.04" style="stroke: #000000; stroke-width: 0.8"/>
      </g>
     </g>
     <g id="text_3">
      <!-- 2 -->
      <g transform="translate(4.6375 44.839219) scale(0.1 -0.1)">
       <use xlink:href="#DejaVuSans-32"/>
      </g>
     </g>
    </g>
   </g>
   <g id="line2d_6">
    <path d="M 40.793634 77.561321 
" clip-path="url(#pe00750c1c3)" style="fill: none"/>
    <defs>
     <path id="mfa364403c2" d="M 0 -4.242641 
L -4.242641 -0 
L -0 4.242641 
L 0 -4.242641 
"/>
    </defs>
    <g clip-path="url(#pe00750c1c3)">
     <use xlink:href="#mfa364403c2" x="40.793634" y="77.561321" style="fill: #d32f2f"/>
    </g>
    <defs>
     <path id="m4d6836dc18" d="M 0 -4.242641 
L 4.242641 0 
L -0 4.242641 
L 0 -4.242641 
"/>
    </defs>
    <g clip-path="url(#pe00750c1c3)">
     <use xlink:href="#m4d6836dc18" x="40.793634" y="77.561321" style="fill: #ffffff"/>
    </g>
   </g>
   <g id="line2d_7">
    <path d="M 40.793634 77.561321 
" clip-path="url(#pe00750c1c3)" style="fill: none"/>
    <defs>
     <path id="m555d23f97a" d="M -0 4.242641 
L 4.242641 0 
L 0 -4.242641 
L -4.242641 -0 
z
" style="stroke: #d32f2f; stroke-linejoin: miter"/>
    </defs>
    <g clip-path="url(#pe00750c1c3)">
     <use xlink:href="#m555d23f97a" x="40.793634" y="77.561321" style="fill-opacity: 0; stroke: #d32f2f; stroke-linejoin: miter"/>
    </g>
   </g>
   <g id="line2d_8">
    <path d="M 58.554907 71.992023 
" clip-path="url(#pe00750c1c3)" style="fill: none"/>
    <g clip-path="url(#pe00750c1c3)">
     <use xlink:href="#mfa364403c2" x="58.554907" y="71.992023" style="fill: #d32f2f"/>
    </g>
    <g clip-path="url(#pe00750c1c3)">
     <use xlink:href="#m4d6836dc18" x="58.554907" y="71.992023" style="fill: #ffffff"/>
    </g>
   </g>
   <g id="line2d_9">
    <path d="M 58.554907 71.992023 
" clip-path="url(#pe00750c1c3)" style="fill: none"/>
    <g clip-path="url(#pe00750c1c3)">
     <use xlink:href="#m555d23f97a" x="58.554907" y="71.992023" style="fill-opacity: 0; stroke: #d32f2f; stroke-linejoin: miter"/>
    </g>
   </g>
   <g id="line2d_10">
    <path d="M 64.475332 77.643469 
" clip-path="url(#pe00750c1c3)" style="fill: none"/>
    <g clip-path="url(#pe00750c1c3)">
     <use xlink:href="#mfa364403c2" x="64.475332" y="77.643469" style="fill: #d32f2f"/>
    </g>
    <g clip-path="url(#pe00750c1c3)">
     <use xlink:href="#m4d6836dc18" x="64.475332" y="77.643469" style="fill: #ffffff"/>
    </g>
   </g>
   <g id="line2d_11">
    <path d="M 64.475332 77.643469 
" clip-path="url(#pe00750c1c3)" style="fill: none"/>
    <g clip-path="url(#pe00750c1c3)">
     <use xlink:href="#m555d23f97a" x="64.475332" y="77.643469" style="fill-opacity: 0; stroke: #d32f2f; stroke-linejoin: miter"/>
    </g>
   </g>
   <g id="line2d_12">
    <path d="M 23.032361 103.706144 
" clip-path="url(#pe00750c1c3)" style="fill: none"/>
    <defs>
     <path id="m3f58b8578c" d="M -0 4.242641 
L 4.242641 0 
L 0 -4.242641 
L -0 4.242641 
"/>
    </defs>
    <g clip-path="url(#pe00750c1c3)">
     <use xlink:href="#m3f58b8578c" x="23.032361" y="103.706144" style="fill: #1976d2"/>
    </g>
    <defs>
     <path id="md170b74d03" d="M -0 4.242641 
L -4.242641 -0 
L 0 -4.242641 
L -0 4.242641 
"/>
    </defs>
    <g clip-path="url(#pe00750c1c3)">
     <use xlink:href="#md170b74d03" x="23.032361" y="103.706144" style="fill: #ffffff"/>
    </g>
   </g>
   <g id="line2d_13">
    <path d="M 23.032361 103.706144 
" clip-path="url(#pe00750c1c3)" style="fill: none"/>
    <defs>
     <path id="mdad7251178" d="M -0 4.242641 
L 4.242641 0 
L 0 -4.242641 
L -4.242641 -0 
z
" style="stroke: #1976d2; stroke-linejoin: miter"/>
    </defs>
    <g clip-path="url(#pe00750c1c3)">
     <use xlink:href="#mdad7251178" x="23.032361" y="103.706144" style="fill-opacity: 0; stroke: #1976d2; stroke-linejoin: miter"/>
    </g>
   </g>
   <g id="line2d_14">
    <path d="M 23.032361 114.2301 
" clip-path="url(#pe00750c1c3)" style="fill: none"/>
    <g clip-path="url(#pe00750c1c3)">
     <use xlink:href="#m3f58b8578c" x="23.032361" y="114.2301" style="fill: #1976d2"/>
    </g>
    <g clip-path="url(#pe00750c1c3)">
     <use xlink:href="#md170b74d03" x="23.032361" y="114.2301" style="fill: #ffffff"/>
    </g>
   </g>
   <g id="line2d_15">
    <path d="M 23.032361 114.2301 
" clip-path="url(#pe00750c1c3)" style="fill: none"/>
    <g clip-path="url(#pe00750c1c3)">
     <use xlink:href="#mdad7251178" x="23.032361" y="114.2301" style="fill-opacity: 0; stroke: #1976d2; stroke-linejoin: miter"/>
    </g>
   </g>
   <g id="line2d_16">
    <path d="M 23.032361 92.727505 
" clip-path="url(#pe00750c1c3)" style="fill: none"/>
    <g clip-path="url(#pe00750c1c3)">
     <use xlink:href="#m3f58b8578c" x="23.032361" y="92.727505" style="fill: #1976d2"/>
    </g>
    <g clip-path="url(#pe00750c1c3)">
     <use xlink:href="#md170b74d03" x="23.032361" y="92.727505" style="fill: #ffffff"/>
    </g>
   </g>
   <g id="line2d_17">
    <path d="M 23.032361 92.727505 
" clip-path="url(#pe00750c1c3)" style="fill: none"/>
    <g clip-path="url(#pe00750c1c3)">
     <use xlink:href="#mdad7251178" x="23.032361" y="92.727505" style="fill-opacity: 0; stroke: #1976d2; stroke-linejoin: miter"/>
    </g>
   </g>
   <g id="line2d_18">
    <path d="M 28.952785 59.39052 
" clip-path="url(#pe00750c1c3)" style="fill: none"/>
    <g clip-path="url(#pe00750c1c3)">
     <use xlink:href="#mfa364403c2" x="28.952785" y="59.39052" style="fill: #d32f2f"/>
    </g>
    <g clip-path="url(#pe00750c1c3)">
     <use xlink:href="#m4d6836dc18" x="28.952785" y="59.39052" style="fill: #ffffff"/>
    </g>
   </g>
   <g id="line2d_19">
    <path d="M 28.952785 59.39052 
" clip-path="url(#pe00750c1c3)" style="fill: none"/>
    <g clip-path="url(#pe00750c1c3)">
     <use xlink:href="#m555d23f97a" x="28.952785" y="59.39052" style="fill-opacity: 0; stroke: #d32f2f; stroke-linejoin: miter"/>
    </g>
   </g>
   <g id="line2d_20">
    <path d="M 52.634483 76.260761 
" clip-path="url(#pe00750c1c3)" style="fill: none"/>
    <g clip-path="url(#pe00750c1c3)">
     <use xlink:href="#mfa364403c2" x="52.634483" y="76.260761" style="fill: #d32f2f"/>
    </g>
    <g clip-path="url(#pe00750c1c3)">
     <use xlink:href="#m4d6836dc18" x="52.634483" y="76.260761" style="fill: #ffffff"/>
    </g>
   </g>
   <g id="line2d_21">
    <path d="M 52.634483 76.260761 
" clip-path="url(#pe00750c1c3)" style="fill: none"/>
    <g clip-path="url(#pe00750c1c3)">
     <use xlink:href="#m555d23f97a" x="52.634483" y="76.260761" style="fill-opacity: 0; stroke: #d32f2f; stroke-linejoin: miter"/>
    </g>
   </g>
   <g id="line2d_22">
    <path d="M 82.236605 60.697196 
" clip-path="url(#pe00750c1c3)" style="fill: none"/>
    <g clip-path="url(#pe00750c1c3)">
     <use xlink:href="#mfa364403c2" x="82.236605" y="60.697196" style="fill: #d32f2f"/>
    </g>
    <g clip-path="url(#pe00750c1c3)">
     <use xlink:href="#m4d6836dc18" x="82.236605" y="60.697196" style="fill: #ffffff"/>
    </g>
   </g>
   <g id="line2d_23">
    <path d="M 82.236605 60.697196 
" clip-path="url(#pe00750c1c3)" style="fill: none"/>
    <g clip-path="url(#pe00750c1c3)">
     <use xlink:href="#m555d23f97a" x="82.236605" y="60.697196" style="fill-opacity: 0; stroke: #d32f2f; stroke-linejoin: miter"/>
    </g>
   </g>
   <g id="line2d_24">
    <path d="M 23.032361 73.163234 
" clip-path="url(#pe00750c1c3)" style="fill: none"/>
    <g clip-path="url(#pe00750c1c3)">
     <use xlink:href="#m3f58b8578c" x="23.032361" y="73.163234" style="fill: #1976d2"/>
    </g>
    <g clip-path="url(#pe00750c1c3)">
     <use xlink:href="#md170b74d03" x="23.032361" y="73.163234" style="fill: #ffffff"/>
    </g>
   </g>
   <g id="line2d_25">
    <path d="M 23.032361 73.163234 
" clip-path="url(#pe00750c1c3)" style="fill: none"/>
    <g clip-path="url(#pe00750c1c3)">
     <use xlink:href="#mdad7251178" x="23.032361" y="73.163234" style="fill-opacity: 0; stroke: #1976d2; stroke-linejoin: miter"/>
    </g>
   </g>
   <g id="line2d_26">
    <path d="M 28.952785 63.937647 
" clip-path="url(#pe00750c1c3)" style="fill: none"/>
    <g clip-path="url(#pe00750c1c3)">
     <use xlink:href="#m3f58b8578c" x="28.952785" y="63.937647" style="fill: #1976d2"/>
    </g>
    <g clip-path="url(#pe00750c1c3)">
     <use xlink:href="#md170b74d03" x="28.952785" y="63.937647" style="fill: #ffffff"/>
    </g>
   </g>
   <g id="line2d_27">
    <path d="M 28.952785 63.937647 
" clip-path="url(#pe00750c1c3)" style="fill: none"/>
    <g clip-path="url(#pe00750c1c3)">
     <use xlink:href="#mdad7251178" x="28.952785" y="63.937647" style="fill-opacity: 0; stroke: #1976d2; stroke-linejoin: miter"/>
    </g>
   </g>
   <g id="line2d_28">
    <path d="M 23.032361 63.547218 
" clip-path="url(#pe00750c1c3)" style="fill: none"/>
    <g clip-path="url(#pe00750c1c3)">
     <use xlink:href="#mfa364403c2" x="23.032361" y="63.547218" style="fill: #d32f2f"/>
    </g>
    <g clip-path="url(#pe00750c1c3)">
     <use xlink:href="#m4d6836dc18" x="23.032361" y="63.547218" style="fill: #ffffff"/>
    </g>
   </g>
   <g id="line2d_29">
    <path d="M 23.032361 63.547218 
" clip-path="url(#pe00750c1c3)" style="fill: none"/>
    <g clip-path="url(#pe00750c1c3)">
     <use xlink:href="#m555d23f97a" x="23.032361" y="63.547218" style="fill-opacity: 0; stroke: #d32f2f; stroke-linejoin: miter"/>
    </g>
   </g>
   <g id="line2d_30">
    <path d="M 64.475332 76.164818 
" clip-path="url(#pe00750c1c3)" style="fill: none"/>
    <g clip-path="url(#pe00750c1c3)">
     <use xlink:href="#mfa364403c2" x="64.475332" y="76.164818" style="fill: #d32f2f"/>
    </g>
    <g clip-path="url(#pe00750c1c3)">
     <use xlink:href="#m4d6836dc18" x="64.475332" y="76.164818" style="fill: #ffffff"/>
    </g>
   </g>
   <g id="line2d_31">
    <path d="M 64.475332 76.164818 
" clip-path="url(#pe00750c1c3)" style="fill: none"/>
    <g clip-path="url(#pe00750c1c3)">
     <use xlink:href="#m555d23f97a" x="64.475332" y="76.164818" style="fill-opacity: 0; stroke: #d32f2f; stroke-linejoin: miter"/>
    </g>
   </g>
   <g id="line2d_32">
    <path d="M 70.395756 69.735855 
" clip-path="url(#pe00750c1c3)" style="fill: none"/>
    <g clip-path="url(#pe00750c1c3)">
     <use xlink:href="#mfa364403c2" x="70.395756" y="69.735855" style="fill: #d32f2f"/>
    </g>
    <g clip-path="url(#pe00750c1c3)">
     <use xlink:href="#m4d6836dc18" x="70.395756" y="69.735855" style="fill: #ffffff"/>
    </g>
   </g>
   <g id="line2d_33">
    <path d="M 70.395756 69.735855 
" clip-path="url(#pe00750c1c3)" style="fill: none"/>
    <g clip-path="url(#pe00750c1c3)">
     <use xlink:href="#m555d23f97a" x="70.395756" y="69.735855" style="fill-opacity: 0; stroke: #d32f2f; stroke-linejoin: miter"/>
    </g>
   </g>
   <g id="line2d_34">
    <path d="M 28.952785 85.522655 
" clip-path="url(#pe00750c1c3)" style="fill: none"/>
    <g clip-path="url(#pe00750c1c3)">
     <use xlink:href="#m3f58b8578c" x="28.952785" y="85.522655" style="fill: #1976d2"/>
    </g>
    <g clip-path="url(#pe00750c1c3)">
     <use xlink:href="#md170b74d03" x="28.952785" y="85.522655" style="fill: #ffffff"/>
    </g>
   </g>
   <g id="line2d_35">
    <path d="M 28.952785 85.522655 
" clip-path="url(#pe00750c1c3)" style="fill: none"/>
    <g clip-path="url(#pe00750c1c3)">
     <use xlink:href="#mdad7251178" x="28.952785" y="85.522655" style="fill-opacity: 0; stroke: #1976d2; stroke-linejoin: miter"/>
    </g>
   </g>
   <g id="line2d_36">
    <path d="M 34.87321 64.607915 
" clip-path="url(#pe00750c1c3)" style="fill: none"/>
    <g clip-path="url(#pe00750c1c3)">
     <use xlink:href="#m3f58b8578c" x="34.87321" y="64.607915" style="fill: #1976d2"/>
    </g>
    <g clip-path="url(#pe00750c1c3)">
     <use xlink:href="#md170b74d03" x="34.87321" y="64.607915" style="fill: #ffffff"/>
    </g>
   </g>
   <g id="line2d_37">
    <path d="M 34.87321 64.607915 
" clip-path="url(#pe00750c1c3)" style="fill: none"/>
    <g clip-path="url(#pe00750c1c3)">
     <use xlink:href="#mdad7251178" x="34.87321" y="64.607915" style="fill-opacity: 0; stroke: #1976d2; stroke-linejoin: miter"/>
    </g>
   </g>
   <g id="line2d_38">
    <path d="M 40.793634 62.694653 
" clip-path="url(#pe00750c1c3)" style="fill: none"/>
    <g clip-path="url(#pe00750c1c3)">
     <use xlink:href="#m3f58b8578c" x="40.793634" y="62.694653" style="fill: #1976d2"/>
    </g>
    <g clip-path="url(#pe00750c1c3)">
     <use xlink:href="#md170b74d03" x="40.793634" y="62.694653" style="fill: #ffffff"/>
    </g>
   </g>
   <g id="line2d_39">
    <path d="M 40.793634 62.694653 
" clip-path="url(#pe00750c1c3)" style="fill: none"/>
    <g clip-path="url(#pe00750c1c3)">
     <use xlink:href="#mdad7251178" x="40.793634" y="62.694653" style="fill-opacity: 0; stroke: #1976d2; stroke-linejoin: miter"/>
    </g>
   </g>
   <g id="line2d_40">
    <path d="M 23.032361 50.136143 
" clip-path="url(#pe00750c1c3)" style="fill: none"/>
    <g clip-path="url(#pe00750c1c3)">
     <use xlink:href="#mfa364403c2" x="23.032361" y="50.136143" style="fill: #d32f2f"/>
    </g>
    <g clip-path="url(#pe00750c1c3)">
     <use xlink:href="#m4d6836dc18" x="23.032361" y="50.136143" style="fill: #ffffff"/>
    </g>
   </g>
   <g id="line2d_41">
    <path d="M 23.032361 50.136143 
" clip-path="url(#pe00750c1c3)" style="fill: none"/>
    <g clip-path="url(#pe00750c1c3)">
     <use xlink:href="#m555d23f97a" x="23.032361" y="50.136143" style="fill-opacity: 0; stroke: #d32f2f; stroke-linejoin: miter"/>
    </g>
   </g>
   <g id="line2d_42">
    <path d="M 40.793634 49.983898 
" clip-path="url(#pe00750c1c3)" style="fill: none"/>
    <g clip-path="url(#pe00750c1c3)">
     <use xlink:href="#mfa364403c2" x="40.793634" y="49.983898" style="fill: #d32f2f"/>
    </g>
    <g clip-path="url(#pe00750c1c3)">
     <use xlink:href="#m4d6836dc18" x="40.793634" y="49.983898" style="fill: #ffffff"/>
    </g>
   </g>
   <g id="line2d_43">
    <path d="M 40.793634 49.983898 
" clip-path="url(#pe00750c1c3)" style="fill: none"/>
    <g clip-path="url(#pe00750c1c3)">
     <use xlink:href="#m555d23f97a" x="40.793634" y="49.983898" style="fill-opacity: 0; stroke: #d32f2f; stroke-linejoin: miter"/>
    </g>
   </g>
   <g id="line2d_44">
    <path d="M 82.236605 95.586663 
" clip-path="url(#pe00750c1c3)" style="fill: none"/>
    <g clip-path="url(#pe00750c1c3)">
     <use xlink:href="#mfa364403c2" x="82.236605" y="95.586663" style="fill: #d32f2f"/>
    </g>
    <g clip-path="url(#pe00750c1c3)">
     <use xlink:href="#m4d6836dc18" x="82.236605" y="95.586663" style="fill: #ffffff"/>
    </g>
   </g>
   <g id="line2d_45">
    <path d="M 82.236605 95.586663 
" clip-path="url(#pe00750c1c3)" style="fill: none"/>
    <g clip-path="url(#pe00750c1c3)">
     <use xlink:href="#m555d23f97a" x="82.236605" y="95.586663" style="fill-opacity: 0; stroke: #d32f2f; stroke-linejoin: miter"/>
    </g>
   </g>
   <g id="line2d_46">
    <path d="M 34.87321 56.912843 
" clip-path="url(#pe00750c1c3)" style="fill: none"/>
    <g clip-path="url(#pe00750c1c3)">
     <use xlink:href="#mfa364403c2" x="34.87321" y="56.912843" style="fill: #d32f2f"/>
    </g>
    <g clip-path="url(#pe00750c1c3)">
     <use xlink:href="#m4d6836dc18" x="34.87321" y="56.912843" style="fill: #ffffff"/>
    </g>
   </g>
   <g id="line2d_47">
    <path d="M 34.87321 56.912843 
" clip-path="url(#pe00750c1c3)" style="fill: none"/>
    <g clip-path="url(#pe00750c1c3)">
     <use xlink:href="#m555d23f97a" x="34.87321" y="56.912843" style="fill-opacity: 0; stroke: #d32f2f; stroke-linejoin: miter"/>
    </g>
   </g>
   <g id="line2d_48">
    <path d="M 82.236605 77.619434 
" clip-path="url(#pe00750c1c3)" style="fill: none"/>
    <g clip-path="url(#pe00750c1c3)">
     <use xlink:href="#mfa364403c2" x="82.236605" y="77.619434" style="fill: #d32f2f"/>
    </g>
    <g clip-path="url(#pe00750c1c3)">
     <use xlink:href="#m4d6836dc18" x="82.236605" y="77.619434" style="fill: #ffffff"/>
    </g>
   </g>
   <g id="line2d_49">
    <path d="M 82.236605 77.619434 
" clip-path="url(#pe00750c1c3)" style="fill: none"/>
    <g clip-path="url(#pe00750c1c3)">
     <use xlink:href="#m555d23f97a" x="82.236605" y="77.619434" style="fill-opacity: 0; stroke: #d32f2f; stroke-linejoin: miter"/>
    </g>
   </g>
   <g id="line2d_50">
    <path d="M 88.157029 60.303714 
" clip-path="url(#pe00750c1c3)" style="fill: none"/>
    <g clip-path="url(#pe00750c1c3)">
     <use xlink:href="#mfa364403c2" x="88.157029" y="60.303714" style="fill: #d32f2f"/>
    </g>
    <g clip-path="url(#pe00750c1c3)">
     <use xlink:href="#m4d6836dc18" x="88.157029" y="60.303714" style="fill: #ffffff"/>
    </g>
   </g>
   <g id="line2d_51">
    <path d="M 88.157029 60.303714 
" clip-path="url(#pe00750c1c3)" style="fill: none"/>
    <g clip-path="url(#pe00750c1c3)">
     <use xlink:href="#m555d23f97a" x="88.157029" y="60.303714" style="fill-opacity: 0; stroke: #d32f2f; stroke-linejoin: miter"/>
    </g>
   </g>
   <g id="line2d_52">
    <path d="M 52.634483 58.362137 
" clip-path="url(#pe00750c1c3)" style="fill: none"/>
    <g clip-path="url(#pe00750c1c3)">
     <use xlink:href="#mfa364403c2" x="52.634483" y="58.362137" style="fill: #d32f2f"/>
    </g>
    <g clip-path="url(#pe00750c1c3)">
     <use xlink:href="#m4d6836dc18" x="52.634483" y="58.362137" style="fill: #ffffff"/>
    </g>
   </g>
   <g id="line2d_53">
    <path d="M 52.634483 58.362137 
" clip-path="url(#pe00750c1c3)" style="fill: none"/>
    <g clip-path="url(#pe00750c1c3)">
     <use xlink:href="#m555d23f97a" x="52.634483" y="58.362137" style="fill-opacity: 0; stroke: #d32f2f; stroke-linejoin: miter"/>
    </g>
   </g>
   <g id="line2d_54">
    <path d="M 99.997878 83.263847 
" clip-path="url(#pe00750c1c3)" style="fill: none"/>
    <g clip-path="url(#pe00750c1c3)">
     <use xlink:href="#mfa364403c2" x="99.997878" y="83.263847" style="fill: #d32f2f"/>
    </g>
    <g clip-path="url(#pe00750c1c3)">
     <use xlink:href="#m4d6836dc18" x="99.997878" y="83.263847" style="fill: #ffffff"/>
    </g>
   </g>
   <g id="line2d_55">
    <path d="M 99.997878 83.263847 
" clip-path="url(#pe00750c1c3)" style="fill: none"/>
    <g clip-path="url(#pe00750c1c3)">
     <use xlink:href="#m555d23f97a" x="99.997878" y="83.263847" style="fill-opacity: 0; stroke: #d32f2f; stroke-linejoin: miter"/>
    </g>
   </g>
   <g id="line2d_56">
    <path d="M 111.838727 84.097401 
" clip-path="url(#pe00750c1c3)" style="fill: none"/>
    <g clip-path="url(#pe00750c1c3)">
     <use xlink:href="#mfa364403c2" x="111.838727" y="84.097401" style="fill: #d32f2f"/>
    </g>
    <g clip-path="url(#pe00750c1c3)">
     <use xlink:href="#m4d6836dc18" x="111.838727" y="84.097401" style="fill: #ffffff"/>
    </g>
   </g>
   <g id="line2d_57">
    <path d="M 111.838727 84.097401 
" clip-path="url(#pe00750c1c3)" style="fill: none"/>
    <g clip-path="url(#pe00750c1c3)">
     <use xlink:href="#m555d23f97a" x="111.838727" y="84.097401" style="fill-opacity: 0; stroke: #d32f2f; stroke-linejoin: miter"/>
    </g>
   </g>
   <g id="line2d_58">
    <path d="M 46.714058 48.881887 
" clip-path="url(#pe00750c1c3)" style="fill: none"/>
    <g clip-path="url(#pe00750c1c3)">
     <use xlink:href="#mfa364403c2" x="46.714058" y="48.881887" style="fill: #d32f2f"/>
    </g>
    <g clip-path="url(#pe00750c1c3)">
     <use xlink:href="#m4d6836dc18" x="46.714058" y="48.881887" style="fill: #ffffff"/>
    </g>
   </g>
   <g id="line2d_59">
    <path d="M 46.714058 48.881887 
" clip-path="url(#pe00750c1c3)" style="fill: none"/>
    <g clip-path="url(#pe00750c1c3)">
     <use xlink:href="#m555d23f97a" x="46.714058" y="48.881887" style="fill-opacity: 0; stroke: #d32f2f; stroke-linejoin: miter"/>
    </g>
   </g>
   <g id="line2d_60">
    <path d="M 99.997878 50.601681 
" clip-path="url(#pe00750c1c3)" style="fill: none"/>
    <g clip-path="url(#pe00750c1c3)">
     <use xlink:href="#mfa364403c2" x="99.997878" y="50.601681" style="fill: #d32f2f"/>
    </g>
    <g clip-path="url(#pe00750c1c3)">
     <use xlink:href="#m4d6836dc18" x="99.997878" y="50.601681" style="fill: #ffffff"/>
    </g>
   </g>
   <g id="line2d_61">
    <path d="M 99.997878 50.601681 
" clip-path="url(#pe00750c1c3)" style="fill: none"/>
    <g clip-path="url(#pe00750c1c3)">
     <use xlink:href="#m555d23f97a" x="99.997878" y="50.601681" style="fill-opacity: 0; stroke: #d32f2f; stroke-linejoin: miter"/>
    </g>
   </g>
   <g id="line2d_62">
    <path d="M 123.679576 51.591674 
" clip-path="url(#pe00750c1c3)" style="fill: none"/>
    <g clip-path="url(#pe00750c1c3)">
     <use xlink:href="#mfa364403c2" x="123.679576" y="51.591674" style="fill: #d32f2f"/>
    </g>
    <g clip-path="url(#pe00750c1c3)">
     <use xlink:href="#m4d6836dc18" x="123.679576" y="51.591674" style="fill: #ffffff"/>
    </g>
   </g>
   <g id="line2d_63">
    <path d="M 123.679576 51.591674 
" clip-path="url(#pe00750c1c3)" style="fill: none"/>
    <g clip-path="url(#pe00750c1c3)">
     <use xlink:href="#m555d23f97a" x="123.679576" y="51.591674" style="fill-opacity: 0; stroke: #d32f2f; stroke-linejoin: miter"/>
    </g>
   </g>
   <g id="line2d_64">
    <path d="M 23.032361 65.365116 
" clip-path="url(#pe00750c1c3)" style="fill: none"/>
    <g clip-path="url(#pe00750c1c3)">
     <use xlink:href="#m3f58b8578c" x="23.032361" y="65.365116" style="fill: #1976d2"/>
    </g>
    <g clip-path="url(#pe00750c1c3)">
     <use xlink:href="#md170b74d03" x="23.032361" y="65.365116" style="fill: #ffffff"/>
    </g>
   </g>
   <g id="line2d_65">
    <path d="M 23.032361 65.365116 
" clip-path="url(#pe00750c1c3)" style="fill: none"/>
    <g clip-path="url(#pe00750c1c3)">
     <use xlink:href="#mdad7251178" x="23.032361" y="65.365116" style="fill-opacity: 0; stroke: #1976d2; stroke-linejoin: miter"/>
    </g>
   </g>
   <g id="line2d_66">
    <path d="M 28.952785 76.621606 
" clip-path="url(#pe00750c1c3)" style="fill: none"/>
    <g clip-path="url(#pe00750c1c3)">
     <use xlink:href="#m3f58b8578c" x="28.952785" y="76.621606" style="fill: #1976d2"/>
    </g>
    <g clip-path="url(#pe00750c1c3)">
     <use xlink:href="#md170b74d03" x="28.952785" y="76.621606" style="fill: #ffffff"/>
    </g>
   </g>
   <g id="line2d_67">
    <path d="M 28.952785 76.621606 
" clip-path="url(#pe00750c1c3)" style="fill: none"/>
    <g clip-path="url(#pe00750c1c3)">
     <use xlink:href="#mdad7251178" x="28.952785" y="76.621606" style="fill-opacity: 0; stroke: #1976d2; stroke-linejoin: miter"/>
    </g>
   </g>
   <g id="line2d_68">
    <path d="M 34.87321 63.319077 
" clip-path="url(#pe00750c1c3)" style="fill: none"/>
    <g clip-path="url(#pe00750c1c3)">
     <use xlink:href="#m3f58b8578c" x="34.87321" y="63.319077" style="fill: #1976d2"/>
    </g>
    <g clip-path="url(#pe00750c1c3)">
     <use xlink:href="#md170b74d03" x="34.87321" y="63.319077" style="fill: #ffffff"/>
    </g>
   </g>
   <g id="line2d_69">
    <path d="M 34.87321 63.319077 
" clip-path="url(#pe00750c1c3)" style="fill: none"/>
    <g clip-path="url(#pe00750c1c3)">
     <use xlink:href="#mdad7251178" x="34.87321" y="63.319077" style="fill-opacity: 0; stroke: #1976d2; stroke-linejoin: miter"/>
    </g>
   </g>
   <g id="line2d_70">
    <path d="M 23.032361 78.985888 
" clip-path="url(#pe00750c1c3)" style="fill: none"/>
    <g clip-path="url(#pe00750c1c3)">
     <use xlink:href="#m3f58b8578c" x="23.032361" y="78.985888" style="fill: #1976d2"/>
    </g>
    <g clip-path="url(#pe00750c1c3)">
     <use xlink:href="#md170b74d03" x="23.032361" y="78.985888" style="fill: #ffffff"/>
    </g>
   </g>
   <g id="line2d_71">
    <path d="M 23.032361 78.985888 
" clip-path="url(#pe00750c1c3)" style="fill: none"/>
    <g clip-path="url(#pe00750c1c3)">
     <use xlink:href="#mdad7251178" x="23.032361" y="78.985888" style="fill-opacity: 0; stroke: #1976d2; stroke-linejoin: miter"/>
    </g>
   </g>
   <g id="line2d_72">
    <path d="M 34.87321 65.490761 
" clip-path="url(#pe00750c1c3)" style="fill: none"/>
    <g clip-path="url(#pe00750c1c3)">
     <use xlink:href="#m3f58b8578c" x="34.87321" y="65.490761" style="fill: #1976d2"/>
    </g>
    <g clip-path="url(#pe00750c1c3)">
     <use xlink:href="#md170b74d03" x="34.87321" y="65.490761" style="fill: #ffffff"/>
    </g>
   </g>
   <g id="line2d_73">
    <path d="M 34.87321 65.490761 
" clip-path="url(#pe00750c1c3)" style="fill: none"/>
    <g clip-path="url(#pe00750c1c3)">
     <use xlink:href="#mdad7251178" x="34.87321" y="65.490761" style="fill-opacity: 0; stroke: #1976d2; stroke-linejoin: miter"/>
    </g>
   </g>
   <g id="line2d_74">
    <path d="M 64.475332 93.467331 
" clip-path="url(#pe00750c1c3)" style="fill: none"/>
    <g clip-path="url(#pe00750c1c3)">
     <use xlink:href="#m3f58b8578c" x="64.475332" y="93.467331" style="fill: #1976d2"/>
    </g>
    <g clip-path="url(#pe00750c1c3)">
     <use xlink:href="#md170b74d03" x="64.475332" y="93.467331" style="fill: #ffffff"/>
    </g>
   </g>
   <g id="line2d_75">
    <path d="M 64.475332 93.467331 
" clip-path="url(#pe00750c1c3)" style="fill: none"/>
    <g clip-path="url(#pe00750c1c3)">
     <use xlink:href="#mdad7251178" x="64.475332" y="93.467331" style="fill-opacity: 0; stroke: #1976d2; stroke-linejoin: miter"/>
    </g>
   </g>
   <g id="line2d_76">
    <path clip-path="url(#pe00750c1c3)" style="fill: none"/>
    <g clip-path="url(#pe00750c1c3)"/>
    <g clip-path="url(#pe00750c1c3)"/>
   </g>
   <g id="line2d_77">
    <path clip-path="url(#pe00750c1c3)" style="fill: none"/>
    <g clip-path="url(#pe00750c1c3)"/>
   </g>
   <g id="line2d_78">
    <path d="M 40.793634 96.80956 
" clip-path="url(#pe00750c1c3)" style="fill: none"/>
    <g clip-path="url(#pe00750c1c3)">
     <use xlink:href="#m3f58b8578c" x="40.793634" y="96.80956" style="fill: #1976d2"/>
    </g>
    <g clip-path="url(#pe00750c1c3)">
     <use xlink:href="#md170b74d03" x="40.793634" y="96.80956" style="fill: #ffffff"/>
    </g>
   </g>
   <g id="line2d_79">
    <path d="M 40.793634 96.80956 
" clip-path="url(#pe00750c1c3)" style="fill: none"/>
    <g clip-path="url(#pe00750c1c3)">
     <use xlink:href="#mdad7251178" x="40.793634" y="96.80956" style="fill-opacity: 0; stroke: #1976d2; stroke-linejoin: miter"/>
    </g>
   </g>
   <g id="line2d_80">
    <path d="M 58.554907 68.890832 
" clip-path="url(#pe00750c1c3)" style="fill: none"/>
    <g clip-path="url(#pe00750c1c3)">
     <use xlink:href="#m3f58b8578c" x="58.554907" y="68.890832" style="fill: #1976d2"/>
    </g>
    <g clip-path="url(#pe00750c1c3)">
     <use xlink:href="#md170b74d03" x="58.554907" y="68.890832" style="fill: #ffffff"/>
    </g>
   </g>
   <g id="line2d_81">
    <path d="M 58.554907 68.890832 
" clip-path="url(#pe00750c1c3)" style="fill: none"/>
    <g clip-path="url(#pe00750c1c3)">
     <use xlink:href="#mdad7251178" x="58.554907" y="68.890832" style="fill-opacity: 0; stroke: #1976d2; stroke-linejoin: miter"/>
    </g>
   </g>
   <g id="line2d_82">
    <path clip-path="url(#pe00750c1c3)" style="fill: none"/>
    <g clip-path="url(#pe00750c1c3)"/>
    <g clip-path="url(#pe00750c1c3)"/>
   </g>
   <g id="line2d_83">
    <path clip-path="url(#pe00750c1c3)" style="fill: none"/>
    <g clip-path="url(#pe00750c1c3)"/>
   </g>
   <g id="line2d_84">
    <path d="M 28.952785 68.363696 
" clip-path="url(#pe00750c1c3)" style="fill: none"/>
    <g clip-path="url(#pe00750c1c3)">
     <use xlink:href="#m3f58b8578c" x="28.952785" y="68.363696" style="fill: #1976d2"/>
    </g>
    <g clip-path="url(#pe00750c1c3)">
     <use xlink:href="#md170b74d03" x="28.952785" y="68.363696" style="fill: #ffffff"/>
    </g>
   </g>
   <g id="line2d_85">
    <path d="M 28.952785 68.363696 
" clip-path="url(#pe00750c1c3)" style="fill: none"/>
    <g clip-path="url(#pe00750c1c3)">
     <use xlink:href="#mdad7251178" x="28.952785" y="68.363696" style="fill-opacity: 0; stroke: #1976d2; stroke-linejoin: miter"/>
    </g>
   </g>
   <g id="line2d_86">
    <path d="M 40.793634 61.630057 
" clip-path="url(#pe00750c1c3)" style="fill: none"/>
    <g clip-path="url(#pe00750c1c3)">
     <use xlink:href="#m3f58b8578c" x="40.793634" y="61.630057" style="fill: #1976d2"/>
    </g>
    <g clip-path="url(#pe00750c1c3)">
     <use xlink:href="#md170b74d03" x="40.793634" y="61.630057" style="fill: #ffffff"/>
    </g>
   </g>
   <g id="line2d_87">
    <path d="M 40.793634 61.630057 
" clip-path="url(#pe00750c1c3)" style="fill: none"/>
    <g clip-path="url(#pe00750c1c3)">
     <use xlink:href="#mdad7251178" x="40.793634" y="61.630057" style="fill-opacity: 0; stroke: #1976d2; stroke-linejoin: miter"/>
    </g>
   </g>
   <g id="patch_3">
    <path d="M 18 128.16 
L 18 17.28 
" style="fill: none; stroke: #000000; stroke-width: 0.8; stroke-linejoin: miter; stroke-linecap: square"/>
   </g>
   <g id="patch_4">
    <path d="M 18 72.72 
L 129.6 72.72 
" style="fill: none; stroke: #000000; stroke-width: 0.8; stroke-linejoin: miter; stroke-linecap: square"/>
   </g>
   <g id="text_4">
    <!-- CANX -0.36 -->
    <g transform="translate(39.47625 11.28) scale(0.12 -0.12)">
     <defs>
      <path id="DejaVuSans-43" d="M 4122 4306 
L 4122 3641 
Q 3803 3938 3442 4084 
Q 3081 4231 2675 4231 
Q 1875 4231 1450 3742 
Q 1025 3253 1025 2328 
Q 1025 1406 1450 917 
Q 1875 428 2675 428 
Q 3081 428 3442 575 
Q 3803 722 4122 1019 
L 4122 359 
Q 3791 134 3420 21 
Q 3050 -91 2638 -91 
Q 1578 -91 968 557 
Q 359 1206 359 2328 
Q 359 3453 968 4101 
Q 1578 4750 2638 4750 
Q 3056 4750 3426 4639 
Q 3797 4528 4122 4306 
z
" transform="scale(0.015625)"/>
      <path id="DejaVuSans-41" d="M 2188 4044 
L 1331 1722 
L 3047 1722 
L 2188 4044 
z
M 1831 4666 
L 2547 4666 
L 4325 0 
L 3669 0 
L 3244 1197 
L 1141 1197 
L 716 0 
L 50 0 
L 1831 4666 
z
" transform="scale(0.015625)"/>
      <path id="DejaVuSans-4e" d="M 628 4666 
L 1478 4666 
L 3547 763 
L 3547 4666 
L 4159 4666 
L 4159 0 
L 3309 0 
L 1241 3903 
L 1241 0 
L 628 0 
L 628 4666 
z
" transform="scale(0.015625)"/>
      <path id="DejaVuSans-58" d="M 403 4666 
L 1081 4666 
L 2241 2931 
L 3406 4666 
L 4084 4666 
L 2584 2425 
L 4184 0 
L 3506 0 
L 2194 1984 
L 872 0 
L 191 0 
L 1856 2491 
L 403 4666 
z
" transform="scale(0.015625)"/>
      <path id="DejaVuSans-20" transform="scale(0.015625)"/>
      <path id="DejaVuSans-2d" d="M 313 2009 
L 1997 2009 
L 1997 1497 
L 313 1497 
L 313 2009 
z
" transform="scale(0.015625)"/>
      <path id="DejaVuSans-2e" d="M 684 794 
L 1344 794 
L 1344 0 
L 684 0 
L 684 794 
z
" transform="scale(0.015625)"/>
      <path id="DejaVuSans-33" d="M 2597 2516 
Q 3050 2419 3304 2112 
Q 3559 1806 3559 1356 
Q 3559 666 3084 287 
Q 2609 -91 1734 -91 
Q 1441 -91 1130 -33 
Q 819 25 488 141 
L 488 750 
Q 750 597 1062 519 
Q 1375 441 1716 441 
Q 2309 441 2620 675 
Q 2931 909 2931 1356 
Q 2931 1769 2642 2001 
Q 2353 2234 1838 2234 
L 1294 2234 
L 1294 2753 
L 1863 2753 
Q 2328 2753 2575 2939 
Q 2822 3125 2822 3475 
Q 2822 3834 2567 4026 
Q 2313 4219 1838 4219 
Q 1578 4219 1281 4162 
Q 984 4106 628 3988 
L 628 4550 
Q 988 4650 1302 4700 
Q 1616 4750 1894 4750 
Q 2613 4750 3031 4423 
Q 3450 4097 3450 3541 
Q 3450 3153 3228 2886 
Q 3006 2619 2597 2516 
z
" transform="scale(0.015625)"/>
      <path id="DejaVuSans-36" d="M 2113 2584 
Q 1688 2584 1439 2293 
Q 1191 2003 1191 1497 
Q 1191 994 1439 701 
Q 1688 409 2113 409 
Q 2538 409 2786 701 
Q 3034 994 3034 1497 
Q 3034 2003 2786 2293 
Q 2538 2584 2113 2584 
z
M 3366 4563 
L 3366 3988 
Q 3128 4100 2886 4159 
Q 2644 4219 2406 4219 
Q 1781 4219 1451 3797 
Q 1122 3375 1075 2522 
Q 1259 2794 1537 2939 
Q 1816 3084 2150 3084 
Q 2853 3084 3261 2657 
Q 3669 2231 3669 1497 
Q 3669 778 3244 343 
Q 2819 -91 2113 -91 
Q 1303 -91 875 529 
Q 447 1150 447 2328 
Q 447 3434 972 4092 
Q 1497 4750 2381 4750 
Q 2619 4750 2861 4703 
Q 3103 4656 3366 4563 
z
" transform="scale(0.015625)"/>
     </defs>
     <use xlink:href="#DejaVuSans-43"/>
     <use xlink:href="#DejaVuSans-41" transform="translate(69.824219 0)"/>
     <use xlink:href="#DejaVuSans-4e" transform="translate(138.232422 0)"/>
     <use xlink:href="#DejaVuSans-58" transform="translate(213.037109 0)"/>
     <use xlink:href="#DejaVuSans-20" transform="translate(281.542969 0)"/>
     <use xlink:href="#DejaVuSans-2d" transform="translate(313.330078 0)"/>
     <use xlink:href="#DejaVuSans-30" transform="translate(349.414062 0)"/>
     <use xlink:href="#DejaVuSans-2e" transform="translate(413.037109 0)"/>
     <use xlink:href="#DejaVuSans-33" transform="translate(444.824219 0)"/>
     <use xlink:href="#DejaVuSans-36" transform="translate(508.447266 0)"/>
    </g>
   </g>
  </g>
 </g>
 <defs>
  <clipPath id="pe00750c1c3">
   <rect x="18" y="17.28" width="111.6" height="110.88"/>
  </clipPath>
 </defs>
</svg>
