<?xml version="1.0" encoding="utf-8" standalone="no"?>
<!DOCTYPE svg PUBLIC "-//W3C//DTD SVG 1.1//EN"
  "http://www.w3.org/Graphics/SVG/1.1/DTD/svg11.dtd">
<svg xmlns:xlink="http://www.w3.org/1999/xlink" width="144pt" height="144pt" viewBox="0 0 144 144" xmlns="http://www.w3.org/2000/svg" version="1.1">
 <metadata>
  <rdf:RDF xmlns:dc="http://purl.org/dc/elements/1.1/" xmlns:cc="http://creativecommons.org/ns#" xmlns:rdf="http://www.w3.org/1999/02/22-rdf-syntax-ns#">
   <cc:Work>
    <dc:type rdf:resource="http://purl.org/dc/dcmitype/StillImage"/>
    <dc:date>2026-02-17T13:08:28.424699</dc:date>
    <dc:format>image/svg+xml</dc:format>
    <dc:creator>
     <cc:Agent>
      <dc:title>Matplotlib v3.10.6, https://matplotlib.org/</dc:title>
     </cc:Agent>
    </dc:creator>
   </cc:Work>
  </rdf:RDF>
 </metadata>
 <defs>
  <style type="text/css">*{stroke-linejoin: round; stroke-linecap: butt}</style>
 </defs>
 <g id="figure_1">
  <g id="patch_1">
   <path d="M 0 144 
L 144 144 
L 144 0 
L 0 0 
z
" style="fill: #ffffff"/>
  </g>
  <g id="axes_1">
   <g id="patch_2">
    <path d="M 18 128.16 
L 129.6 128.16 
L 129.6 17.28 
L 18 17.28 
z
" style="fill: #ffffff"/>
   </g>
   <g id="matplotlib.axis_1">
    <g id="xtick_1">
     <g id="line2d_1">
      <defs>
       <path id="mb4aa920f37" d="M 0 0 
L 0 3.5 
" style="stroke: #000000; stroke-width: 0.8"/>
      </defs>
      <g>
       <use xlink:href="#mb4aa920f37" x="76.31618" y="72.72" style="stroke: #000000; stroke-width: 0.8"/>
      </g>
     </g>
    </g>
    <g id="xtick_2">
     <g id="line2d_2">
      <g>
       <use xlink:href="#mb4aa920f37" x="129.6" y="72.72" style="stroke: #000000; stroke-width: 0.8"/>
      </g>
     </g>
    </g>
   </g>
   <g id="matplotlib.axis_2">
    <g id="ytick_1">
     <g id="line2d_3">
      <defs>
       <path id="m809c59cc09" d="M 0 0 
L -3.5 0 
" style="stroke: #000000; stroke-width: 0.8"/>
      </defs>
      <g>
       <use xlink:href="#m809c59cc09" x="18" y="104.4" style="stroke: #000000; stroke-width: 0.8"/>
      </g>
     </g>
     <g id="text_1">
      <!-- −2 -->
      <g transform="translate(-3.742188 108.199219) scale(0.1 -0.1)">
       <defs>
        <path id="DejaVuSans-2212" d="M 678 2272 
L 4684 2272 
L 4684 1741 
L 678 1741 
L 678 2272 
z
" transform="scale(0.015625)"/>
        <path id="DejaVuSans-32" d="M 1228 531 
L 3431 531 
L 3431 0 
L 469 0 
L 469 531 
Q 828 903 1448 1529 
Q 2069 2156 2228 2338 
Q 2531 2678 2651 2914 
Q 2772 3150 2772 3378 
Q 2772 3750 2511 3984 
Q 2250 4219 1831 4219 
Q 1534 4219 1204 4116 
Q 875 4013 500 3803 
L 500 4441 
Q 881 4594 1212 4672 
Q 1544 4750 1819 4750 
Q 2544 4750 2975 4387 
Q 3406 4025 3406 3419 
Q 3406 3131 3298 2873 
Q 3191 2616 2906 2266 
Q 2828 2175 2409 1742 
Q 1991 1309 1228 531 
z
" transform="scale(0.015625)"/>
       </defs>
       <use xlink:href="#DejaVuSans-2212"/>
       <use xlink:href="#DejaVuSans-32" transform="translate(83.789062 0)"/>
      </g>
     </g>
    </g>
    <g id="ytick_2">
     <g id="line2d_4">
      <g>
       <use xlink:href="#m809c59cc09" x="18" y="72.72" style="stroke: #000000; stroke-width: 0.8"/>
      </g>
     </g>
     <g id="text_2">
      <!-- 0 -->
      <g transform="translate(4.6375 76.519219) scale(0.1 -0.1)">
       <defs>
        <path id="DejaVuSans-30" d="M 2034 4250 
Q 1547 4250 1301 3770 
Q 1056 3291 1056 2328 
Q 1056 1369 1301 889 
Q 1547 409 2034 409 
Q 2525 409 2770 889 
Q 3016 1369 3016 2328 
Q 3016 3291 2770 3770 
Q 2525 4250 2034 4250 
z
M 2034 4750 
Q 2819 4750 3233 4129 
Q 3647 3509 3647 2328 
Q 3647 1150 3233 529 
Q 2819 -91 2034 -91 
Q 1250 -91 836 529 
Q 422 1150 422 2328 
Q 422 3509 836 4129 
Q 1250 4750 2034 4750 
z
" transform="scale(0.015625)"/>
       </defs>
       <use xlink:href="#DejaVuSans-30"/>
      </g>
     </g>
    </g>
    <g id="ytick_3">
     <g id="line2d_5">
      <g>
       <use xlink:href="#m809c59cc09" x="18" y="41.04" style="stroke: #000000; stroke-width: 0.8"/>
      </g>
     </g>
     <g id="text_3">
      <!-- 2 -->
      <g transform="translate(4.6375 44.839219) scale(0.1 -0.1)">
       <use xlink:href="#DejaVuSans-32"/>
      </g>
     </g>
    </g>
   </g>
   <g id="line2d_6">
    <path d="M 40.793634 71.049109 
" clip-path="url(#p0f269dbfc3)" style="fill: none"/>
    <defs>
     <path id="mf0c22d12a8" d="M 0 -4.242641 
L -4.242641 -0 
L -0 4.242641 
L 0 -4.242641 
"/>
    </defs>
    <g clip-path="url(#p0f269dbfc3)">
     <use xlink:href="#mf0c22d12a8" x="40.793634" y="71.049109" style="fill: #d32f2f"/>
    </g>
    <defs>
     <path id="mc982d0fcfc" d="M 0 -4.242641 
L 4.242641 0 
L -0 4.242641 
L 0 -4.242641 
"/>
    </defs>
    <g clip-path="url(#p0f269dbfc3)">
     <use xlink:href="#mc982d0fcfc" x="40.793634" y="71.049109" style="fill: #ffffff"/>
    </g>
   </g>
   <g id="line2d_7">
    <path d="M 40.793634 71.049109 
" clip-path="url(#p0f269dbfc3)" style="fill: none"/>
    <defs>
     <path id="mea42858829" d="M -0 4.242641 
L 4.242641 0 
L 0 -4.242641 
L -4.242641 -0 
z
" style="stroke: #d32f2f; stroke-linejoin: miter"/>
    </defs>
    <g clip-path="url(#p0f269dbfc3)">
     <use xlink:href="#mea42858829" x="40.793634" y="71.049109" style="fill-opacity: 0; stroke: #d32f2f; stroke-linejoin: miter"/>
    </g>
   </g>
   <g id="line2d_8">
    <path d="M 58.554907 64.323776 
" clip-path="url(#p0f269dbfc3)" style="fill: none"/>
    <g clip-path="url(#p0f269dbfc3)">
     <use xlink:href="#mf0c22d12a8" x="58.554907" y="64.323776" style="fill: #d32f2f"/>
    </g>
    <g clip-path="url(#p0f269dbfc3)">
     <use xlink:href="#mc982d0fcfc" x="58.554907" y="64.323776" style="fill: #ffffff"/>
    </g>
   </g>
   <g id="line2d_9">
    <path d="M 58.554907 64.323776 
" clip-path="url(#p0f269dbfc3)" style="fill: none"/>
    <g clip-path="url(#p0f269dbfc3)">
     <use xlink:href="#mea42858829" x="58.554907" y="64.323776" style="fill-opacity: 0; stroke: #d32f2f; stroke-linejoin: miter"/>
    </g>
   </g>
   <g id="line2d_10">
    <path d="M 64.475332 71.298285 
" clip-path="url(#p0f269dbfc3)" style="fill: none"/>
    <g clip-path="url(#p0f269dbfc3)">
     <use xlink:href="#mf0c22d12a8" x="64.475332" y="71.298285" style="fill: #d32f2f"/>
    </g>
    <g clip-path="url(#p0f269dbfc3)">
     <use xlink:href="#mc982d0fcfc" x="64.475332" y="71.298285" style="fill: #ffffff"/>
    </g>
   </g>
   <g id="line2d_11">
    <path d="M 64.475332 71.298285 
" clip-path="url(#p0f269dbfc3)" style="fill: none"/>
    <g clip-path="url(#p0f269dbfc3)">
     <use xlink:href="#mea42858829" x="64.475332" y="71.298285" style="fill-opacity: 0; stroke: #d32f2f; stroke-linejoin: miter"/>
    </g>
   </g>
   <g id="line2d_12">
    <path d="M 23.032361 93.22284 
" clip-path="url(#p0f269dbfc3)" style="fill: none"/>
    <defs>
     <path id="m9fd86fd16b" d="M -0 4.242641 
L 4.242641 0 
L 0 -4.242641 
L -0 4.242641 
"/>
    </defs>
    <g clip-path="url(#p0f269dbfc3)">
     <use xlink:href="#m9fd86fd16b" x="23.032361" y="93.22284" style="fill: #1976d2"/>
    </g>
    <defs>
     <path id="m66b765d1f5" d="M -0 4.242641 
L -4.242641 -0 
L 0 -4.242641 
L -0 4.242641 
"/>
    </defs>
    <g clip-path="url(#p0f269dbfc3)">
     <use xlink:href="#m66b765d1f5" x="23.032361" y="93.22284" style="fill: #ffffff"/>
    </g>
   </g>
   <g id="line2d_13">
    <path d="M 23.032361 93.22284 
" clip-path="url(#p0f269dbfc3)" style="fill: none"/>
    <defs>
     <path id="m9ac79be290" d="M -0 4.242641 
L 4.242641 0 
L 0 -4.242641 
L -4.242641 -0 
z
" style="stroke: #1976d2; stroke-linejoin: miter"/>
    </defs>
    <g clip-path="url(#p0f269dbfc3)">
     <use xlink:href="#m9ac79be290" x="23.032361" y="93.22284" style="fill-opacity: 0; stroke: #1976d2; stroke-linejoin: miter"/>
    </g>
   </g>
   <g id="line2d_14">
    <path d="M 23.032361 105.08176 
" clip-path="url(#p0f269dbfc3)" style="fill: none"/>
    <g clip-path="url(#p0f269dbfc3)">
     <use xlink:href="#m9fd86fd16b" x="23.032361" y="105.08176" style="fill: #1976d2"/>
    </g>
    <g clip-path="url(#p0f269dbfc3)">
     <use xlink:href="#m66b765d1f5" x="23.032361" y="105.08176" style="fill: #ffffff"/>
    </g>
   </g>
   <g id="line2d_15">
    <path d="M 23.032361 105.08176 
" clip-path="url(#p0f269dbfc3)" style="fill: none"/>
    <g clip-path="url(#p0f269dbfc3)">
     <use xlink:href="#m9ac79be290" x="23.032361" y="105.08176" style="fill-opacity: 0; stroke: #1976d2; stroke-linejoin: miter"/>
    </g>
   </g>
   <g id="line2d_16">
    <path d="M 23.032361 93.85976 
" clip-path="url(#p0f269dbfc3)" style="fill: none"/>
    <g clip-path="url(#p0f269dbfc3)">
     <use xlink:href="#m9fd86fd16b" x="23.032361" y="93.85976" style="fill: #1976d2"/>
    </g>
    <g clip-path="url(#p0f269dbfc3)">
     <use xlink:href="#m66b765d1f5" x="23.032361" y="93.85976" style="fill: #ffffff"/>
    </g>
   </g>
   <g id="line2d_17">
    <path d="M 23.032361 93.85976 
" clip-path="url(#p0f269dbfc3)" style="fill: none"/>
    <g clip-path="url(#p0f269dbfc3)">
     <use xlink:href="#m9ac79be290" x="23.032361" y="93.85976" style="fill-opacity: 0; stroke: #1976d2; stroke-linejoin: miter"/>
    </g>
   </g>
   <g id="line2d_18">
    <path d="M 28.952785 54.088223 
" clip-path="url(#p0f269dbfc3)" style="fill: none"/>
    <g clip-path="url(#p0f269dbfc3)">
     <use xlink:href="#mf0c22d12a8" x="28.952785" y="54.088223" style="fill: #d32f2f"/>
    </g>
    <g clip-path="url(#p0f269dbfc3)">
     <use xlink:href="#mc982d0fcfc" x="28.952785" y="54.088223" style="fill: #ffffff"/>
    </g>
   </g>
   <g id="line2d_19">
    <path d="M 28.952785 54.088223 
" clip-path="url(#p0f269dbfc3)" style="fill: none"/>
    <g clip-path="url(#p0f269dbfc3)">
     <use xlink:href="#mea42858829" x="28.952785" y="54.088223" style="fill-opacity: 0; stroke: #d32f2f; stroke-linejoin: miter"/>
    </g>
   </g>
   <g id="line2d_20">
    <path d="M 52.634483 75.442571 
" clip-path="url(#p0f269dbfc3)" style="fill: none"/>
    <g clip-path="url(#p0f269dbfc3)">
     <use xlink:href="#mf0c22d12a8" x="52.634483" y="75.442571" style="fill: #d32f2f"/>
    </g>
    <g clip-path="url(#p0f269dbfc3)">
     <use xlink:href="#mc982d0fcfc" x="52.634483" y="75.442571" style="fill: #ffffff"/>
    </g>
   </g>
   <g id="line2d_21">
    <path d="M 52.634483 75.442571 
" clip-path="url(#p0f269dbfc3)" style="fill: none"/>
    <g clip-path="url(#p0f269dbfc3)">
     <use xlink:href="#mea42858829" x="52.634483" y="75.442571" style="fill-opacity: 0; stroke: #d32f2f; stroke-linejoin: miter"/>
    </g>
   </g>
   <g id="line2d_22">
    <path d="M 82.236605 47.420801 
" clip-path="url(#p0f269dbfc3)" style="fill: none"/>
    <g clip-path="url(#p0f269dbfc3)">
     <use xlink:href="#mf0c22d12a8" x="82.236605" y="47.420801" style="fill: #d32f2f"/>
    </g>
    <g clip-path="url(#p0f269dbfc3)">
     <use xlink:href="#mc982d0fcfc" x="82.236605" y="47.420801" style="fill: #ffffff"/>
    </g>
   </g>
   <g id="line2d_23">
    <path d="M 82.236605 47.420801 
" clip-path="url(#p0f269dbfc3)" style="fill: none"/>
    <g clip-path="url(#p0f269dbfc3)">
     <use xlink:href="#mea42858829" x="82.236605" y="47.420801" style="fill-opacity: 0; stroke: #d32f2f; stroke-linejoin: miter"/>
    </g>
   </g>
   <g id="line2d_24">
    <path d="M 23.032361 72.489535 
" clip-path="url(#p0f269dbfc3)" style="fill: none"/>
    <g clip-path="url(#p0f269dbfc3)">
     <use xlink:href="#m9fd86fd16b" x="23.032361" y="72.489535" style="fill: #1976d2"/>
    </g>
    <g clip-path="url(#p0f269dbfc3)">
     <use xlink:href="#m66b765d1f5" x="23.032361" y="72.489535" style="fill: #ffffff"/>
    </g>
   </g>
   <g id="line2d_25">
    <path d="M 23.032361 72.489535 
" clip-path="url(#p0f269dbfc3)" style="fill: none"/>
    <g clip-path="url(#p0f269dbfc3)">
     <use xlink:href="#m9ac79be290" x="23.032361" y="72.489535" style="fill-opacity: 0; stroke: #1976d2; stroke-linejoin: miter"/>
    </g>
   </g>
   <g id="line2d_26">
    <path d="M 28.952785 84.170341 
" clip-path="url(#p0f269dbfc3)" style="fill: none"/>
    <g clip-path="url(#p0f269dbfc3)">
     <use xlink:href="#m9fd86fd16b" x="28.952785" y="84.170341" style="fill: #1976d2"/>
    </g>
    <g clip-path="url(#p0f269dbfc3)">
     <use xlink:href="#m66b765d1f5" x="28.952785" y="84.170341" style="fill: #ffffff"/>
    </g>
   </g>
   <g id="line2d_27">
    <path d="M 28.952785 84.170341 
" clip-path="url(#p0f269dbfc3)" style="fill: none"/>
    <g clip-path="url(#p0f269dbfc3)">
     <use xlink:href="#m9ac79be290" x="28.952785" y="84.170341" style="fill-opacity: 0; stroke: #1976d2; stroke-linejoin: miter"/>
    </g>
   </g>
   <g id="line2d_28">
    <path d="M 23.032361 64.881294 
" clip-path="url(#p0f269dbfc3)" style="fill: none"/>
    <g clip-path="url(#p0f269dbfc3)">
     <use xlink:href="#mf0c22d12a8" x="23.032361" y="64.881294" style="fill: #d32f2f"/>
    </g>
    <g clip-path="url(#p0f269dbfc3)">
     <use xlink:href="#mc982d0fcfc" x="23.032361" y="64.881294" style="fill: #ffffff"/>
    </g>
   </g>
   <g id="line2d_29">
    <path d="M 23.032361 64.881294 
" clip-path="url(#p0f269dbfc3)" style="fill: none"/>
    <g clip-path="url(#p0f269dbfc3)">
     <use xlink:href="#mea42858829" x="23.032361" y="64.881294" style="fill-opacity: 0; stroke: #d32f2f; stroke-linejoin: miter"/>
    </g>
   </g>
   <g id="line2d_30">
    <path d="M 64.475332 63.254243 
" clip-path="url(#p0f269dbfc3)" style="fill: none"/>
    <g clip-path="url(#p0f269dbfc3)">
     <use xlink:href="#mf0c22d12a8" x="64.475332" y="63.254243" style="fill: #d32f2f"/>
    </g>
    <g clip-path="url(#p0f269dbfc3)">
     <use xlink:href="#mc982d0fcfc" x="64.475332" y="63.254243" style="fill: #ffffff"/>
    </g>
   </g>
   <g id="line2d_31">
    <path d="M 64.475332 63.254243 
" clip-path="url(#p0f269dbfc3)" style="fill: none"/>
    <g clip-path="url(#p0f269dbfc3)">
     <use xlink:href="#mea42858829" x="64.475332" y="63.254243" style="fill-opacity: 0; stroke: #d32f2f; stroke-linejoin: miter"/>
    </g>
   </g>
   <g id="line2d_32">
    <path d="M 70.395756 74.965081 
" clip-path="url(#p0f269dbfc3)" style="fill: none"/>
    <g clip-path="url(#p0f269dbfc3)">
     <use xlink:href="#mf0c22d12a8" x="70.395756" y="74.965081" style="fill: #d32f2f"/>
    </g>
    <g clip-path="url(#p0f269dbfc3)">
     <use xlink:href="#mc982d0fcfc" x="70.395756" y="74.965081" style="fill: #ffffff"/>
    </g>
   </g>
   <g id="line2d_33">
    <path d="M 70.395756 74.965081 
" clip-path="url(#p0f269dbfc3)" style="fill: none"/>
    <g clip-path="url(#p0f269dbfc3)">
     <use xlink:href="#mea42858829" x="70.395756" y="74.965081" style="fill-opacity: 0; stroke: #d32f2f; stroke-linejoin: miter"/>
    </g>
   </g>
   <g id="line2d_34">
    <path d="M 28.952785 80.062543 
" clip-path="url(#p0f269dbfc3)" style="fill: none"/>
    <g clip-path="url(#p0f269dbfc3)">
     <use xlink:href="#m9fd86fd16b" x="28.952785" y="80.062543" style="fill: #1976d2"/>
    </g>
    <g clip-path="url(#p0f269dbfc3)">
     <use xlink:href="#m66b765d1f5" x="28.952785" y="80.062543" style="fill: #ffffff"/>
    </g>
   </g>
   <g id="line2d_35">
    <path d="M 28.952785 80.062543 
" clip-path="url(#p0f269dbfc3)" style="fill: none"/>
    <g clip-path="url(#p0f269dbfc3)">
     <use xlink:href="#m9ac79be290" x="28.952785" y="80.062543" style="fill-opacity: 0; stroke: #1976d2; stroke-linejoin: miter"/>
    </g>
   </g>
   <g id="line2d_36">
    <path d="M 34.87321 67.669482 
" clip-path="url(#p0f269dbfc3)" style="fill: none"/>
    <g clip-path="url(#p0f269dbfc3)">
     <use xlink:href="#m9fd86fd16b" x="34.87321" y="67.669482" style="fill: #1976d2"/>
    </g>
    <g clip-path="url(#p0f269dbfc3)">
     <use xlink:href="#m66b765d1f5" x="34.87321" y="67.669482" style="fill: #ffffff"/>
    </g>
   </g>
   <g id="line2d_37">
    <path d="M 34.87321 67.669482 
" clip-path="url(#p0f269dbfc3)" style="fill: none"/>
    <g clip-path="url(#p0f269dbfc3)">
     <use xlink:href="#m9ac79be290" x="34.87321" y="67.669482" style="fill-opacity: 0; stroke: #1976d2; stroke-linejoin: miter"/>
    </g>
   </g>
   <g id="line2d_38">
    <path d="M 40.793634 66.658045 
" clip-path="url(#p0f269dbfc3)" style="fill: none"/>
    <g clip-path="url(#p0f269dbfc3)">
     <use xlink:href="#m9fd86fd16b" x="40.793634" y="66.658045" style="fill: #1976d2"/>
    </g>
    <g clip-path="url(#p0f269dbfc3)">
     <use xlink:href="#m66b765d1f5" x="40.793634" y="66.658045" style="fill: #ffffff"/>
    </g>
   </g>
   <g id="line2d_39">
    <path d="M 40.793634 66.658045 
" clip-path="url(#p0f269dbfc3)" style="fill: none"/>
    <g clip-path="url(#p0f269dbfc3)">
     <use xlink:href="#m9ac79be290" x="40.793634" y="66.658045" style="fill-opacity: 0; stroke: #1976d2; stroke-linejoin: miter"/>
    </g>
   </g>
   <g id="line2d_40">
    <path d="M 23.032361 53.988385 
" clip-path="url(#p0f269dbfc3)" style="fill: none"/>
    <g clip-path="url(#p0f269dbfc3)">
     <use xlink:href="#mf0c22d12a8" x="23.032361" y="53.988385" style="fill: #d32f2f"/>
    </g>
    <g clip-path="url(#p0f269dbfc3)">
     <use xlink:href="#mc982d0fcfc" x="23.032361" y="53.988385" style="fill: #ffffff"/>
    </g>
   </g>
   <g id="line2d_41">
    <path d="M 23.032361 53.988385 
" clip-path="url(#p0f269dbfc3)" style="fill: none"/>
    <g clip-path="url(#p0f269dbfc3)">
     <use xlink:href="#mea42858829" x="23.032361" y="53.988385" style="fill-opacity: 0; stroke: #d32f2f; stroke-linejoin: miter"/>
    </g>
   </g>
   <g id="line2d_42">
    <path d="M 40.793634 64.654326 
" clip-path="url(#p0f269dbfc3)" style="fill: none"/>
    <g clip-path="url(#p0f269dbfc3)">
     <use xlink:href="#mf0c22d12a8" x="40.793634" y="64.654326" style="fill: #d32f2f"/>
    </g>
    <g clip-path="url(#p0f269dbfc3)">
     <use xlink:href="#mc982d0fcfc" x="40.793634" y="64.654326" style="fill: #ffffff"/>
    </g>
   </g>
   <g id="line2d_43">
    <path d="M 40.793634 64.654326 
" clip-path="url(#p0f269dbfc3)" style="fill: none"/>
    <g clip-path="url(#p0f269dbfc3)">
     <use xlink:href="#mea42858829" x="40.793634" y="64.654326" style="fill-opacity: 0; stroke: #d32f2f; stroke-linejoin: miter"/>
    </g>
   </g>
   <g id="line2d_44">
    <path d="M 82.236605 90.947092 
" clip-path="url(#p0f269dbfc3)" style="fill: none"/>
    <g clip-path="url(#p0f269dbfc3)">
     <use xlink:href="#mf0c22d12a8" x="82.236605" y="90.947092" style="fill: #d32f2f"/>
    </g>
    <g clip-path="url(#p0f269dbfc3)">
     <use xlink:href="#mc982d0fcfc" x="82.236605" y="90.947092" style="fill: #ffffff"/>
    </g>
   </g>
   <g id="line2d_45">
    <path d="M 82.236605 90.947092 
" clip-path="url(#p0f269dbfc3)" style="fill: none"/>
    <g clip-path="url(#p0f269dbfc3)">
     <use xlink:href="#mea42858829" x="82.236605" y="90.947092" style="fill-opacity: 0; stroke: #d32f2f; stroke-linejoin: miter"/>
    </g>
   </g>
   <g id="line2d_46">
    <path d="M 34.87321 57.08331 
" clip-path="url(#p0f269dbfc3)" style="fill: none"/>
    <g clip-path="url(#p0f269dbfc3)">
     <use xlink:href="#mf0c22d12a8" x="34.87321" y="57.08331" style="fill: #d32f2f"/>
    </g>
    <g clip-path="url(#p0f269dbfc3)">
     <use xlink:href="#mc982d0fcfc" x="34.87321" y="57.08331" style="fill: #ffffff"/>
    </g>
   </g>
   <g id="line2d_47">
    <path d="M 34.87321 57.08331 
" clip-path="url(#p0f269dbfc3)" style="fill: none"/>
    <g clip-path="url(#p0f269dbfc3)">
     <use xlink:href="#mea42858829" x="34.87321" y="57.08331" style="fill-opacity: 0; stroke: #d32f2f; stroke-linejoin: miter"/>
    </g>
   </g>
   <g id="line2d_48">
    <path d="M 82.236605 76.270677 
" clip-path="url(#p0f269dbfc3)" style="fill: none"/>
    <g clip-path="url(#p0f269dbfc3)">
     <use xlink:href="#mf0c22d12a8" x="82.236605" y="76.270677" style="fill: #d32f2f"/>
    </g>
    <g clip-path="url(#p0f269dbfc3)">
     <use xlink:href="#mc982d0fcfc" x="82.236605" y="76.270677" style="fill: #ffffff"/>
    </g>
   </g>
   <g id="line2d_49">
    <path d="M 82.236605 76.270677 
" clip-path="url(#p0f269dbfc3)" style="fill: none"/>
    <g clip-path="url(#p0f269dbfc3)">
     <use xlink:href="#mea42858829" x="82.236605" y="76.270677" style="fill-opacity: 0; stroke: #d32f2f; stroke-linejoin: miter"/>
    </g>
   </g>
   <g id="line2d_50">
    <path d="M 88.157029 54.000455 
" clip-path="url(#p0f269dbfc3)" style="fill: none"/>
    <g clip-path="url(#p0f269dbfc3)">
     <use xlink:href="#mf0c22d12a8" x="88.157029" y="54.000455" style="fill: #d32f2f"/>
    </g>
    <g clip-path="url(#p0f269dbfc3)">
     <use xlink:href="#mc982d0fcfc" x="88.157029" y="54.000455" style="fill: #ffffff"/>
    </g>
   </g>
   <g id="line2d_51">
    <path d="M 88.157029 54.000455 
" clip-path="url(#p0f269dbfc3)" style="fill: none"/>
    <g clip-path="url(#p0f269dbfc3)">
     <use xlink:href="#mea42858829" x="88.157029" y="54.000455" style="fill-opacity: 0; stroke: #d32f2f; stroke-linejoin: miter"/>
    </g>
   </g>
   <g id="line2d_52">
    <path d="M 52.634483 60.171002 
" clip-path="url(#p0f269dbfc3)" style="fill: none"/>
    <g clip-path="url(#p0f269dbfc3)">
     <use xlink:href="#mf0c22d12a8" x="52.634483" y="60.171002" style="fill: #d32f2f"/>
    </g>
    <g clip-path="url(#p0f269dbfc3)">
     <use xlink:href="#mc982d0fcfc" x="52.634483" y="60.171002" style="fill: #ffffff"/>
    </g>
   </g>
   <g id="line2d_53">
    <path d="M 52.634483 60.171002 
" clip-path="url(#p0f269dbfc3)" style="fill: none"/>
    <g clip-path="url(#p0f269dbfc3)">
     <use xlink:href="#mea42858829" x="52.634483" y="60.171002" style="fill-opacity: 0; stroke: #d32f2f; stroke-linejoin: miter"/>
    </g>
   </g>
   <g id="line2d_54">
    <path d="M 99.997878 118.095597 
" clip-path="url(#p0f269dbfc3)" style="fill: none"/>
    <g clip-path="url(#p0f269dbfc3)">
     <use xlink:href="#mf0c22d12a8" x="99.997878" y="118.095597" style="fill: #d32f2f"/>
    </g>
    <g clip-path="url(#p0f269dbfc3)">
     <use xlink:href="#mc982d0fcfc" x="99.997878" y="118.095597" style="fill: #ffffff"/>
    </g>
   </g>
   <g id="line2d_55">
    <path d="M 99.997878 118.095597 
" clip-path="url(#p0f269dbfc3)" style="fill: none"/>
    <g clip-path="url(#p0f269dbfc3)">
     <use xlink:href="#mea42858829" x="99.997878" y="118.095597" style="fill-opacity: 0; stroke: #d32f2f; stroke-linejoin: miter"/>
    </g>
   </g>
   <g id="line2d_56">
    <path d="M 111.838727 74.437451 
" clip-path="url(#p0f269dbfc3)" style="fill: none"/>
    <g clip-path="url(#p0f269dbfc3)">
     <use xlink:href="#mf0c22d12a8" x="111.838727" y="74.437451" style="fill: #d32f2f"/>
    </g>
    <g clip-path="url(#p0f269dbfc3)">
     <use xlink:href="#mc982d0fcfc" x="111.838727" y="74.437451" style="fill: #ffffff"/>
    </g>
   </g>
   <g id="line2d_57">
    <path d="M 111.838727 74.437451 
" clip-path="url(#p0f269dbfc3)" style="fill: none"/>
    <g clip-path="url(#p0f269dbfc3)">
     <use xlink:href="#mea42858829" x="111.838727" y="74.437451" style="fill-opacity: 0; stroke: #d32f2f; stroke-linejoin: miter"/>
    </g>
   </g>
   <g id="line2d_58">
    <path d="M 46.714058 45.735286 
" clip-path="url(#p0f269dbfc3)" style="fill: none"/>
    <g clip-path="url(#p0f269dbfc3)">
     <use xlink:href="#mf0c22d12a8" x="46.714058" y="45.735286" style="fill: #d32f2f"/>
    </g>
    <g clip-path="url(#p0f269dbfc3)">
     <use xlink:href="#mc982d0fcfc" x="46.714058" y="45.735286" style="fill: #ffffff"/>
    </g>
   </g>
   <g id="line2d_59">
    <path d="M 46.714058 45.735286 
" clip-path="url(#p0f269dbfc3)" style="fill: none"/>
    <g clip-path="url(#p0f269dbfc3)">
     <use xlink:href="#mea42858829" x="46.714058" y="45.735286" style="fill-opacity: 0; stroke: #d32f2f; stroke-linejoin: miter"/>
    </g>
   </g>
   <g id="line2d_60">
    <path d="M 99.997878 64.691543 
" clip-path="url(#p0f269dbfc3)" style="fill: none"/>
    <g clip-path="url(#p0f269dbfc3)">
     <use xlink:href="#mf0c22d12a8" x="99.997878" y="64.691543" style="fill: #d32f2f"/>
    </g>
    <g clip-path="url(#p0f269dbfc3)">
     <use xlink:href="#mc982d0fcfc" x="99.997878" y="64.691543" style="fill: #ffffff"/>
    </g>
   </g>
   <g id="line2d_61">
    <path d="M 99.997878 64.691543 
" clip-path="url(#p0f269dbfc3)" style="fill: none"/>
    <g clip-path="url(#p0f269dbfc3)">
     <use xlink:href="#mea42858829" x="99.997878" y="64.691543" style="fill-opacity: 0; stroke: #d32f2f; stroke-linejoin: miter"/>
    </g>
   </g>
   <g id="line2d_62">
    <path d="M 123.679576 56.299915 
" clip-path="url(#p0f269dbfc3)" style="fill: none"/>
    <g clip-path="url(#p0f269dbfc3)">
     <use xlink:href="#mf0c22d12a8" x="123.679576" y="56.299915" style="fill: #d32f2f"/>
    </g>
    <g clip-path="url(#p0f269dbfc3)">
     <use xlink:href="#mc982d0fcfc" x="123.679576" y="56.299915" style="fill: #ffffff"/>
    </g>
   </g>
   <g id="line2d_63">
    <path d="M 123.679576 56.299915 
" clip-path="url(#p0f269dbfc3)" style="fill: none"/>
    <g clip-path="url(#p0f269dbfc3)">
     <use xlink:href="#mea42858829" x="123.679576" y="56.299915" style="fill-opacity: 0; stroke: #d32f2f; stroke-linejoin: miter"/>
    </g>
   </g>
   <g id="line2d_64">
    <path d="M 23.032361 64.126655 
" clip-path="url(#p0f269dbfc3)" style="fill: none"/>
    <g clip-path="url(#p0f269dbfc3)">
     <use xlink:href="#m9fd86fd16b" x="23.032361" y="64.126655" style="fill: #1976d2"/>
    </g>
    <g clip-path="url(#p0f269dbfc3)">
     <use xlink:href="#m66b765d1f5" x="23.032361" y="64.126655" style="fill: #ffffff"/>
    </g>
   </g>
   <g id="line2d_65">
    <path d="M 23.032361 64.126655 
" clip-path="url(#p0f269dbfc3)" style="fill: none"/>
    <g clip-path="url(#p0f269dbfc3)">
     <use xlink:href="#m9ac79be290" x="23.032361" y="64.126655" style="fill-opacity: 0; stroke: #1976d2; stroke-linejoin: miter"/>
    </g>
   </g>
   <g id="line2d_66">
    <path d="M 28.952785 80.920543 
" clip-path="url(#p0f269dbfc3)" style="fill: none"/>
    <g clip-path="url(#p0f269dbfc3)">
     <use xlink:href="#m9fd86fd16b" x="28.952785" y="80.920543" style="fill: #1976d2"/>
    </g>
    <g clip-path="url(#p0f269dbfc3)">
     <use xlink:href="#m66b765d1f5" x="28.952785" y="80.920543" style="fill: #ffffff"/>
    </g>
   </g>
   <g id="line2d_67">
    <path d="M 28.952785 80.920543 
" clip-path="url(#p0f269dbfc3)" style="fill: none"/>
    <g clip-path="url(#p0f269dbfc3)">
     <use xlink:href="#m9ac79be290" x="28.952785" y="80.920543" style="fill-opacity: 0; stroke: #1976d2; stroke-linejoin: miter"/>
    </g>
   </g>
   <g id="line2d_68">
    <path d="M 34.87321 69.987664 
" clip-path="url(#p0f269dbfc3)" style="fill: none"/>
    <g clip-path="url(#p0f269dbfc3)">
     <use xlink:href="#m9fd86fd16b" x="34.87321" y="69.987664" style="fill: #1976d2"/>
    </g>
    <g clip-path="url(#p0f269dbfc3)">
     <use xlink:href="#m66b765d1f5" x="34.87321" y="69.987664" style="fill: #ffffff"/>
    </g>
   </g>
   <g id="line2d_69">
    <path d="M 34.87321 69.987664 
" clip-path="url(#p0f269dbfc3)" style="fill: none"/>
    <g clip-path="url(#p0f269dbfc3)">
     <use xlink:href="#m9ac79be290" x="34.87321" y="69.987664" style="fill-opacity: 0; stroke: #1976d2; stroke-linejoin: miter"/>
    </g>
   </g>
   <g id="line2d_70">
    <path d="M 23.032361 97.844098 
" clip-path="url(#p0f269dbfc3)" style="fill: none"/>
    <g clip-path="url(#p0f269dbfc3)">
     <use xlink:href="#m9fd86fd16b" x="23.032361" y="97.844098" style="fill: #1976d2"/>
    </g>
    <g clip-path="url(#p0f269dbfc3)">
     <use xlink:href="#m66b765d1f5" x="23.032361" y="97.844098" style="fill: #ffffff"/>
    </g>
   </g>
   <g id="line2d_71">
    <path d="M 23.032361 97.844098 
" clip-path="url(#p0f269dbfc3)" style="fill: none"/>
    <g clip-path="url(#p0f269dbfc3)">
     <use xlink:href="#m9ac79be290" x="23.032361" y="97.844098" style="fill-opacity: 0; stroke: #1976d2; stroke-linejoin: miter"/>
    </g>
   </g>
   <g id="line2d_72">
    <path d="M 34.87321 63.610726 
" clip-path="url(#p0f269dbfc3)" style="fill: none"/>
    <g clip-path="url(#p0f269dbfc3)">
     <use xlink:href="#m9fd86fd16b" x="34.87321" y="63.610726" style="fill: #1976d2"/>
    </g>
    <g clip-path="url(#p0f269dbfc3)">
     <use xlink:href="#m66b765d1f5" x="34.87321" y="63.610726" style="fill: #ffffff"/>
    </g>
   </g>
   <g id="line2d_73">
    <path d="M 34.87321 63.610726 
" clip-path="url(#p0f269dbfc3)" style="fill: none"/>
    <g clip-path="url(#p0f269dbfc3)">
     <use xlink:href="#m9ac79be290" x="34.87321" y="63.610726" style="fill-opacity: 0; stroke: #1976d2; stroke-linejoin: miter"/>
    </g>
   </g>
   <g id="line2d_74">
    <path d="M 64.475332 86.432374 
" clip-path="url(#p0f269dbfc3)" style="fill: none"/>
    <g clip-path="url(#p0f269dbfc3)">
     <use xlink:href="#m9fd86fd16b" x="64.475332" y="86.432374" style="fill: #1976d2"/>
    </g>
    <g clip-path="url(#p0f269dbfc3)">
     <use xlink:href="#m66b765d1f5" x="64.475332" y="86.432374" style="fill: #ffffff"/>
    </g>
   </g>
   <g id="line2d_75">
    <path d="M 64.475332 86.432374 
" clip-path="url(#p0f269dbfc3)" style="fill: none"/>
    <g clip-path="url(#p0f269dbfc3)">
     <use xlink:href="#m9ac79be290" x="64.475332" y="86.432374" style="fill-opacity: 0; stroke: #1976d2; stroke-linejoin: miter"/>
    </g>
   </g>
   <g id="line2d_76">
    <path clip-path="url(#p0f269dbfc3)" style="fill: none"/>
    <g clip-path="url(#p0f269dbfc3)"/>
    <g clip-path="url(#p0f269dbfc3)"/>
   </g>
   <g id="line2d_77">
    <path clip-path="url(#p0f269dbfc3)" style="fill: none"/>
    <g clip-path="url(#p0f269dbfc3)"/>
   </g>
   <g id="line2d_78">
    <path d="M 40.793634 89.226482 
" clip-path="url(#p0f269dbfc3)" style="fill: none"/>
    <g clip-path="url(#p0f269dbfc3)">
     <use xlink:href="#m9fd86fd16b" x="40.793634" y="89.226482" style="fill: #1976d2"/>
    </g>
    <g clip-path="url(#p0f269dbfc3)">
     <use xlink:href="#m66b765d1f5" x="40.793634" y="89.226482" style="fill: #ffffff"/>
    </g>
   </g>
   <g id="line2d_79">
    <path d="M 40.793634 89.226482 
" clip-path="url(#p0f269dbfc3)" style="fill: none"/>
    <g clip-path="url(#p0f269dbfc3)">
     <use xlink:href="#m9ac79be290" x="40.793634" y="89.226482" style="fill-opacity: 0; stroke: #1976d2; stroke-linejoin: miter"/>
    </g>
   </g>
   <g id="line2d_80">
    <path d="M 58.554907 66.83018 
" clip-path="url(#p0f269dbfc3)" style="fill: none"/>
    <g clip-path="url(#p0f269dbfc3)">
     <use xlink:href="#m9fd86fd16b" x="58.554907" y="66.83018" style="fill: #1976d2"/>
    </g>
    <g clip-path="url(#p0f269dbfc3)">
     <use xlink:href="#m66b765d1f5" x="58.554907" y="66.83018" style="fill: #ffffff"/>
    </g>
   </g>
   <g id="line2d_81">
    <path d="M 58.554907 66.83018 
" clip-path="url(#p0f269dbfc3)" style="fill: none"/>
    <g clip-path="url(#p0f269dbfc3)">
     <use xlink:href="#m9ac79be290" x="58.554907" y="66.83018" style="fill-opacity: 0; stroke: #1976d2; stroke-linejoin: miter"/>
    </g>
   </g>
   <g id="line2d_82">
    <path clip-path="url(#p0f269dbfc3)" style="fill: none"/>
    <g clip-path="url(#p0f269dbfc3)"/>
    <g clip-path="url(#p0f269dbfc3)"/>
   </g>
   <g id="line2d_83">
    <path clip-path="url(#p0f269dbfc3)" style="fill: none"/>
    <g clip-path="url(#p0f269dbfc3)"/>
   </g>
   <g id="line2d_84">
    <path d="M 28.952785 56.716912 
" clip-path="url(#p0f269dbfc3)" style="fill: none"/>
    <g clip-path="url(#p0f269dbfc3)">
     <use xlink:href="#m9fd86fd16b" x="28.952785" y="56.716912" style="fill: #1976d2"/>
    </g>
    <g clip-path="url(#p0f269dbfc3)">
     <use xlink:href="#m66b765d1f5" x="28.952785" y="56.716912" style="fill: #ffffff"/>
    </g>
   </g>
   <g id="line2d_85">
    <path d="M 28.952785 56.716912 
" clip-path="url(#p0f269dbfc3)" style="fill: none"/>
    <g clip-path="url(#p0f269dbfc3)">
     <use xlink:href="#m9ac79be290" x="28.952785" y="56.716912" style="fill-opacity: 0; stroke: #1976d2; stroke-linejoin: miter"/>
    </g>
   </g>
   <g id="line2d_86">
    <path d="M 40.793634 67.302877 
" clip-path="url(#p0f269dbfc3)" style="fill: none"/>
    <g clip-path="url(#p0f269dbfc3)">
     <use xlink:href="#m9fd86fd16b" x="40.793634" y="67.302877" style="fill: #1976d2"/>
    </g>
    <g clip-path="url(#p0f269dbfc3)">
     <use xlink:href="#m66b765d1f5" x="40.793634" y="67.302877" style="fill: #ffffff"/>
    </g>
   </g>
   <g id="line2d_87">
    <path d="M 40.793634 67.302877 
" clip-path="url(#p0f269dbfc3)" style="fill: none"/>
    <g clip-path="url(#p0f269dbfc3)">
     <use xlink:href="#m9ac79be290" x="40.793634" y="67.302877" style="fill-opacity: 0; stroke: #1976d2; stroke-linejoin: miter"/>
    </g>
   </g>
   <g id="patch_3">
    <path d="M 18 128.16 
L 18 17.28 
" style="fill: none; stroke: #000000; stroke-width: 0.8; stroke-linejoin: miter; stroke-linecap: square"/>
   </g>
   <g id="patch_4">
    <path d="M 18 72.72 
L 129.6 72.72 
" style="fill: none; stroke: #000000; stroke-width: 0.8; stroke-linejoin: miter; stroke-linecap: square"/>
   </g>
   <g id="text_4">
    <!-- ERAP1 -0.30 -->
    <g transform="translate(37.109063 11.28) scale(0.12 -0.12)">
     <defs>
      <path id="DejaVuSans-45" d="M 628 4666 
L 3578 4666 
L 3578 4134 
L 1259 4134 
L 1259 2753 
L 3481 2753 
L 3481 2222 
L 1259 2222 
L 1259 531 
L 3634 531 
L 3634 0 
L 628 0 
L 628 4666 
z
" transform="scale(0.015625)"/>
      <path id="DejaVuSans-52" d="M 2841 2188 
Q 3044 2119 3236 1894 
Q 3428 1669 3622 1275 
L 4263 0 
L 3584 0 
L 2988 1197 
Q 2756 1666 2539 1819 
Q 2322 1972 1947 1972 
L 1259 1972 
L 1259 0 
L 628 0 
L 628 4666 
L 2053 4666 
Q 2853 4666 3247 4331 
Q 3641 3997 3641 3322 
Q 3641 2881 3436 2590 
Q 3231 2300 2841 2188 
z
M 1259 4147 
L 1259 2491 
L 2053 2491 
Q 2509 2491 2742 2702 
Q 2975 2913 2975 3322 
Q 2975 3731 2742 3939 
Q 2509 4147 2053 4147 
L 1259 4147 
z
" transform="scale(0.015625)"/>
      <path id="DejaVuSans-41" d="M 2188 4044 
L 1331 1722 
L 3047 1722 
L 2188 4044 
z
M 1831 4666 
L 2547 4666 
L 4325 0 
L 3669 0 
L 3244 1197 
L 1141 1197 
L 716 0 
L 50 0 
L 1831 4666 
z
" transform="scale(0.015625)"/>
      <path id="DejaVuSans-50" d="M 1259 4147 
L 1259 2394 
L 2053 2394 
Q 2494 2394 2734 2622 
Q 2975 2850 2975 3272 
Q 2975 3691 2734 3919 
Q 2494 4147 2053 4147 
L 1259 4147 
z
M 628 4666 
L 2053 4666 
Q 2838 4666 3239 4311 
Q 3641 3956 3641 3272 
Q 3641 2581 3239 2228 
Q 2838 1875 2053 1875 
L 1259 1875 
L 1259 0 
L 628 0 
L 628 4666 
z
" transform="scale(0.015625)"/>
      <path id="DejaVuSans-31" d="M 794 531 
L 1825 531 
L 1825 4091 
L 703 3866 
L 703 4441 
L 1819 4666 
L 2450 4666 
L 2450 531 
L 3481 531 
L 3481 0 
L 794 0 
L 794 531 
z
" transform="scale(0.015625)"/>
      <path id="DejaVuSans-20" transform="scale(0.015625)"/>
      <path id="DejaVuSans-2d" d="M 313 2009 
L 1997 2009 
L 1997 1497 
L 313 1497 
L 313 2009 
z
" transform="scale(0.015625)"/>
      <path id="DejaVuSans-2e" d="M 684 794 
L 1344 794 
L 1344 0 
L 684 0 
L 684 794 
z
" transform="scale(0.015625)"/>
      <path id="DejaVuSans-33" d="M 2597 2516 
Q 3050 2419 3304 2112 
Q 3559 1806 3559 1356 
Q 3559 666 3084 287 
Q 2609 -91 1734 -91 
Q 1441 -91 1130 -33 
Q 819 25 488 141 
L 488 750 
Q 750 597 1062 519 
Q 1375 441 1716 441 
Q 2309 441 2620 675 
Q 2931 909 2931 1356 
Q 2931 1769 2642 2001 
Q 2353 2234 1838 2234 
L 1294 2234 
L 1294 2753 
L 1863 2753 
Q 2328 2753 2575 2939 
Q 2822 3125 2822 3475 
Q 2822 3834 2567 4026 
Q 2313 4219 1838 4219 
Q 1578 4219 1281 4162 
Q 984 4106 628 3988 
L 628 4550 
Q 988 4650 1302 4700 
Q 1616 4750 1894 4750 
Q 2613 4750 3031 4423 
Q 3450 4097 3450 3541 
Q 3450 3153 3228 2886 
Q 3006 2619 2597 2516 
z
" transform="scale(0.015625)"/>
     </defs>
     <use xlink:href="#DejaVuSans-45"/>
     <use xlink:href="#DejaVuSans-52" transform="translate(63.183594 0)"/>
     <use xlink:href="#DejaVuSans-41" transform="translate(128.666016 0)"/>
     <use xlink:href="#DejaVuSans-50" transform="translate(197.074219 0)"/>
     <use xlink:href="#DejaVuSans-31" transform="translate(257.376953 0)"/>
     <use xlink:href="#DejaVuSans-20" transform="translate(321 0)"/>
     <use xlink:href="#DejaVuSans-2d" transform="translate(352.787109 0)"/>
     <use xlink:href="#DejaVuSans-30" transform="translate(388.871094 0)"/>
     <use xlink:href="#DejaVuSans-2e" transform="translate(452.494141 0)"/>
     <use xlink:href="#DejaVuSans-33" transform="translate(484.28125 0)"/>
     <use xlink:href="#DejaVuSans-30" transform="translate(547.904297 0)"/>
    </g>
   </g>
  </g>
 </g>
 <defs>
  <clipPath id="p0f269dbfc3">
   <rect x="18" y="17.28" width="111.6" height="110.88"/>
  </clipPath>
 </defs>
</svg>
