<?xml version="1.0" encoding="utf-8" standalone="no"?>
<!DOCTYPE svg PUBLIC "-//W3C//DTD SVG 1.1//EN"
  "http://www.w3.org/Graphics/SVG/1.1/DTD/svg11.dtd">
<svg xmlns:xlink="http://www.w3.org/1999/xlink" width="144pt" height="144pt" viewBox="0 0 144 144" xmlns="http://www.w3.org/2000/svg" version="1.1">
 <metadata>
  <rdf:RDF xmlns:dc="http://purl.org/dc/elements/1.1/" xmlns:cc="http://creativecommons.org/ns#" xmlns:rdf="http://www.w3.org/1999/02/22-rdf-syntax-ns#">
   <cc:Work>
    <dc:type rdf:resource="http://purl.org/dc/dcmitype/StillImage"/>
    <dc:date>2026-02-17T13:08:29.944883</dc:date>
    <dc:format>image/svg+xml</dc:format>
    <dc:creator>
     <cc:Agent>
      <dc:title>Matplotlib v3.10.6, https://matplotlib.org/</dc:title>
     </cc:Agent>
    </dc:creator>
   </cc:Work>
  </rdf:RDF>
 </metadata>
 <defs>
  <style type="text/css">*{stroke-linejoin: round; stroke-linecap: butt}</style>
 </defs>
 <g id="figure_1">
  <g id="patch_1">
   <path d="M 0 144 
L 144 144 
L 144 0 
L 0 0 
z
" style="fill: #ffffff"/>
  </g>
  <g id="axes_1">
   <g id="patch_2">
    <path d="M 18 128.16 
L 129.6 128.16 
L 129.6 17.28 
L 18 17.28 
z
" style="fill: #ffffff"/>
   </g>
   <g id="matplotlib.axis_1">
    <g id="xtick_1">
     <g id="line2d_1">
      <defs>
       <path id="m1de5725b67" d="M 0 0 
L 0 3.5 
" style="stroke: #000000; stroke-width: 0.8"/>
      </defs>
      <g>
       <use xlink:href="#m1de5725b67" x="76.31618" y="72.72" style="stroke: #000000; stroke-width: 0.8"/>
      </g>
     </g>
    </g>
    <g id="xtick_2">
     <g id="line2d_2">
      <g>
       <use xlink:href="#m1de5725b67" x="129.6" y="72.72" style="stroke: #000000; stroke-width: 0.8"/>
      </g>
     </g>
    </g>
   </g>
   <g id="matplotlib.axis_2">
    <g id="ytick_1">
     <g id="line2d_3">
      <defs>
       <path id="m07b6ebab5d" d="M 0 0 
L -3.5 0 
" style="stroke: #000000; stroke-width: 0.8"/>
      </defs>
      <g>
       <use xlink:href="#m07b6ebab5d" x="18" y="104.4" style="stroke: #000000; stroke-width: 0.8"/>
      </g>
     </g>
     <g id="text_1">
      <!-- −2 -->
      <g transform="translate(-3.742188 108.199219) scale(0.1 -0.1)">
       <defs>
        <path id="DejaVuSans-2212" d="M 678 2272 
L 4684 2272 
L 4684 1741 
L 678 1741 
L 678 2272 
z
" transform="scale(0.015625)"/>
        <path id="DejaVuSans-32" d="M 1228 531 
L 3431 531 
L 3431 0 
L 469 0 
L 469 531 
Q 828 903 1448 1529 
Q 2069 2156 2228 2338 
Q 2531 2678 2651 2914 
Q 2772 3150 2772 3378 
Q 2772 3750 2511 3984 
Q 2250 4219 1831 4219 
Q 1534 4219 1204 4116 
Q 875 4013 500 3803 
L 500 4441 
Q 881 4594 1212 4672 
Q 1544 4750 1819 4750 
Q 2544 4750 2975 4387 
Q 3406 4025 3406 3419 
Q 3406 3131 3298 2873 
Q 3191 2616 2906 2266 
Q 2828 2175 2409 1742 
Q 1991 1309 1228 531 
z
" transform="scale(0.015625)"/>
       </defs>
       <use xlink:href="#DejaVuSans-2212"/>
       <use xlink:href="#DejaVuSans-32" transform="translate(83.789062 0)"/>
      </g>
     </g>
    </g>
    <g id="ytick_2">
     <g id="line2d_4">
      <g>
       <use xlink:href="#m07b6ebab5d" x="18" y="72.72" style="stroke: #000000; stroke-width: 0.8"/>
      </g>
     </g>
     <g id="text_2">
      <!-- 0 -->
      <g transform="translate(4.6375 76.519219) scale(0.1 -0.1)">
       <defs>
        <path id="DejaVuSans-30" d="M 2034 4250 
Q 1547 4250 1301 3770 
Q 1056 3291 1056 2328 
Q 1056 1369 1301 889 
Q 1547 409 2034 409 
Q 2525 409 2770 889 
Q 3016 1369 3016 2328 
Q 3016 3291 2770 3770 
Q 2525 4250 2034 4250 
z
M 2034 4750 
Q 2819 4750 3233 4129 
Q 3647 3509 3647 2328 
Q 3647 1150 3233 529 
Q 2819 -91 2034 -91 
Q 1250 -91 836 529 
Q 422 1150 422 2328 
Q 422 3509 836 4129 
Q 1250 4750 2034 4750 
z
" transform="scale(0.015625)"/>
       </defs>
       <use xlink:href="#DejaVuSans-30"/>
      </g>
     </g>
    </g>
    <g id="ytick_3">
     <g id="line2d_5">
      <g>
       <use xlink:href="#m07b6ebab5d" x="18" y="41.04" style="stroke: #000000; stroke-width: 0.8"/>
      </g>
     </g>
     <g id="text_3">
      <!-- 2 -->
      <g transform="translate(4.6375 44.839219) scale(0.1 -0.1)">
       <use xlink:href="#DejaVuSans-32"/>
      </g>
     </g>
    </g>
   </g>
   <g id="line2d_6">
    <path d="M 40.793634 69.972982 
" clip-path="url(#p0ac5c00afd)" style="fill: none"/>
    <defs>
     <path id="m12337b3e7d" d="M 0 -4.242641 
L -4.242641 -0 
L -0 4.242641 
L 0 -4.242641 
"/>
    </defs>
    <g clip-path="url(#p0ac5c00afd)">
     <use xlink:href="#m12337b3e7d" x="40.793634" y="69.972982" style="fill: #d32f2f"/>
    </g>
    <defs>
     <path id="m3b15490ddb" d="M 0 -4.242641 
L 4.242641 0 
L -0 4.242641 
L 0 -4.242641 
"/>
    </defs>
    <g clip-path="url(#p0ac5c00afd)">
     <use xlink:href="#m3b15490ddb" x="40.793634" y="69.972982" style="fill: #ffffff"/>
    </g>
   </g>
   <g id="line2d_7">
    <path d="M 40.793634 69.972982 
" clip-path="url(#p0ac5c00afd)" style="fill: none"/>
    <defs>
     <path id="mcddd1e2843" d="M -0 4.242641 
L 4.242641 0 
L 0 -4.242641 
L -4.242641 -0 
z
" style="stroke: #d32f2f; stroke-linejoin: miter"/>
    </defs>
    <g clip-path="url(#p0ac5c00afd)">
     <use xlink:href="#mcddd1e2843" x="40.793634" y="69.972982" style="fill-opacity: 0; stroke: #d32f2f; stroke-linejoin: miter"/>
    </g>
   </g>
   <g id="line2d_8">
    <path d="M 58.554907 73.227291 
" clip-path="url(#p0ac5c00afd)" style="fill: none"/>
    <g clip-path="url(#p0ac5c00afd)">
     <use xlink:href="#m12337b3e7d" x="58.554907" y="73.227291" style="fill: #d32f2f"/>
    </g>
    <g clip-path="url(#p0ac5c00afd)">
     <use xlink:href="#m3b15490ddb" x="58.554907" y="73.227291" style="fill: #ffffff"/>
    </g>
   </g>
   <g id="line2d_9">
    <path d="M 58.554907 73.227291 
" clip-path="url(#p0ac5c00afd)" style="fill: none"/>
    <g clip-path="url(#p0ac5c00afd)">
     <use xlink:href="#mcddd1e2843" x="58.554907" y="73.227291" style="fill-opacity: 0; stroke: #d32f2f; stroke-linejoin: miter"/>
    </g>
   </g>
   <g id="line2d_10">
    <path d="M 64.475332 78.903325 
" clip-path="url(#p0ac5c00afd)" style="fill: none"/>
    <g clip-path="url(#p0ac5c00afd)">
     <use xlink:href="#m12337b3e7d" x="64.475332" y="78.903325" style="fill: #d32f2f"/>
    </g>
    <g clip-path="url(#p0ac5c00afd)">
     <use xlink:href="#m3b15490ddb" x="64.475332" y="78.903325" style="fill: #ffffff"/>
    </g>
   </g>
   <g id="line2d_11">
    <path d="M 64.475332 78.903325 
" clip-path="url(#p0ac5c00afd)" style="fill: none"/>
    <g clip-path="url(#p0ac5c00afd)">
     <use xlink:href="#mcddd1e2843" x="64.475332" y="78.903325" style="fill-opacity: 0; stroke: #d32f2f; stroke-linejoin: miter"/>
    </g>
   </g>
   <g id="line2d_12">
    <path d="M 23.032361 90.069429 
" clip-path="url(#p0ac5c00afd)" style="fill: none"/>
    <defs>
     <path id="m4a8ac18a9a" d="M -0 4.242641 
L 4.242641 0 
L 0 -4.242641 
L -0 4.242641 
"/>
    </defs>
    <g clip-path="url(#p0ac5c00afd)">
     <use xlink:href="#m4a8ac18a9a" x="23.032361" y="90.069429" style="fill: #1976d2"/>
    </g>
    <defs>
     <path id="maacb72e020" d="M -0 4.242641 
L -4.242641 -0 
L 0 -4.242641 
L -0 4.242641 
"/>
    </defs>
    <g clip-path="url(#p0ac5c00afd)">
     <use xlink:href="#maacb72e020" x="23.032361" y="90.069429" style="fill: #ffffff"/>
    </g>
   </g>
   <g id="line2d_13">
    <path d="M 23.032361 90.069429 
" clip-path="url(#p0ac5c00afd)" style="fill: none"/>
    <defs>
     <path id="m182682f2b9" d="M -0 4.242641 
L 4.242641 0 
L 0 -4.242641 
L -4.242641 -0 
z
" style="stroke: #1976d2; stroke-linejoin: miter"/>
    </defs>
    <g clip-path="url(#p0ac5c00afd)">
     <use xlink:href="#m182682f2b9" x="23.032361" y="90.069429" style="fill-opacity: 0; stroke: #1976d2; stroke-linejoin: miter"/>
    </g>
   </g>
   <g id="line2d_14">
    <path d="M 23.032361 101.385924 
" clip-path="url(#p0ac5c00afd)" style="fill: none"/>
    <g clip-path="url(#p0ac5c00afd)">
     <use xlink:href="#m4a8ac18a9a" x="23.032361" y="101.385924" style="fill: #1976d2"/>
    </g>
    <g clip-path="url(#p0ac5c00afd)">
     <use xlink:href="#maacb72e020" x="23.032361" y="101.385924" style="fill: #ffffff"/>
    </g>
   </g>
   <g id="line2d_15">
    <path d="M 23.032361 101.385924 
" clip-path="url(#p0ac5c00afd)" style="fill: none"/>
    <g clip-path="url(#p0ac5c00afd)">
     <use xlink:href="#m182682f2b9" x="23.032361" y="101.385924" style="fill-opacity: 0; stroke: #1976d2; stroke-linejoin: miter"/>
    </g>
   </g>
   <g id="line2d_16">
    <path d="M 23.032361 95.739287 
" clip-path="url(#p0ac5c00afd)" style="fill: none"/>
    <g clip-path="url(#p0ac5c00afd)">
     <use xlink:href="#m4a8ac18a9a" x="23.032361" y="95.739287" style="fill: #1976d2"/>
    </g>
    <g clip-path="url(#p0ac5c00afd)">
     <use xlink:href="#maacb72e020" x="23.032361" y="95.739287" style="fill: #ffffff"/>
    </g>
   </g>
   <g id="line2d_17">
    <path d="M 23.032361 95.739287 
" clip-path="url(#p0ac5c00afd)" style="fill: none"/>
    <g clip-path="url(#p0ac5c00afd)">
     <use xlink:href="#m182682f2b9" x="23.032361" y="95.739287" style="fill-opacity: 0; stroke: #1976d2; stroke-linejoin: miter"/>
    </g>
   </g>
   <g id="line2d_18">
    <path d="M 28.952785 57.557517 
" clip-path="url(#p0ac5c00afd)" style="fill: none"/>
    <g clip-path="url(#p0ac5c00afd)">
     <use xlink:href="#m12337b3e7d" x="28.952785" y="57.557517" style="fill: #d32f2f"/>
    </g>
    <g clip-path="url(#p0ac5c00afd)">
     <use xlink:href="#m3b15490ddb" x="28.952785" y="57.557517" style="fill: #ffffff"/>
    </g>
   </g>
   <g id="line2d_19">
    <path d="M 28.952785 57.557517 
" clip-path="url(#p0ac5c00afd)" style="fill: none"/>
    <g clip-path="url(#p0ac5c00afd)">
     <use xlink:href="#mcddd1e2843" x="28.952785" y="57.557517" style="fill-opacity: 0; stroke: #d32f2f; stroke-linejoin: miter"/>
    </g>
   </g>
   <g id="line2d_20">
    <path d="M 52.634483 66.296138 
" clip-path="url(#p0ac5c00afd)" style="fill: none"/>
    <g clip-path="url(#p0ac5c00afd)">
     <use xlink:href="#m12337b3e7d" x="52.634483" y="66.296138" style="fill: #d32f2f"/>
    </g>
    <g clip-path="url(#p0ac5c00afd)">
     <use xlink:href="#m3b15490ddb" x="52.634483" y="66.296138" style="fill: #ffffff"/>
    </g>
   </g>
   <g id="line2d_21">
    <path d="M 52.634483 66.296138 
" clip-path="url(#p0ac5c00afd)" style="fill: none"/>
    <g clip-path="url(#p0ac5c00afd)">
     <use xlink:href="#mcddd1e2843" x="52.634483" y="66.296138" style="fill-opacity: 0; stroke: #d32f2f; stroke-linejoin: miter"/>
    </g>
   </g>
   <g id="line2d_22">
    <path d="M 82.236605 71.4927 
" clip-path="url(#p0ac5c00afd)" style="fill: none"/>
    <g clip-path="url(#p0ac5c00afd)">
     <use xlink:href="#m12337b3e7d" x="82.236605" y="71.4927" style="fill: #d32f2f"/>
    </g>
    <g clip-path="url(#p0ac5c00afd)">
     <use xlink:href="#m3b15490ddb" x="82.236605" y="71.4927" style="fill: #ffffff"/>
    </g>
   </g>
   <g id="line2d_23">
    <path d="M 82.236605 71.4927 
" clip-path="url(#p0ac5c00afd)" style="fill: none"/>
    <g clip-path="url(#p0ac5c00afd)">
     <use xlink:href="#mcddd1e2843" x="82.236605" y="71.4927" style="fill-opacity: 0; stroke: #d32f2f; stroke-linejoin: miter"/>
    </g>
   </g>
   <g id="line2d_24">
    <path d="M 23.032361 71.845732 
" clip-path="url(#p0ac5c00afd)" style="fill: none"/>
    <g clip-path="url(#p0ac5c00afd)">
     <use xlink:href="#m4a8ac18a9a" x="23.032361" y="71.845732" style="fill: #1976d2"/>
    </g>
    <g clip-path="url(#p0ac5c00afd)">
     <use xlink:href="#maacb72e020" x="23.032361" y="71.845732" style="fill: #ffffff"/>
    </g>
   </g>
   <g id="line2d_25">
    <path d="M 23.032361 71.845732 
" clip-path="url(#p0ac5c00afd)" style="fill: none"/>
    <g clip-path="url(#p0ac5c00afd)">
     <use xlink:href="#m182682f2b9" x="23.032361" y="71.845732" style="fill-opacity: 0; stroke: #1976d2; stroke-linejoin: miter"/>
    </g>
   </g>
   <g id="line2d_26">
    <path d="M 28.952785 74.5125 
" clip-path="url(#p0ac5c00afd)" style="fill: none"/>
    <g clip-path="url(#p0ac5c00afd)">
     <use xlink:href="#m4a8ac18a9a" x="28.952785" y="74.5125" style="fill: #1976d2"/>
    </g>
    <g clip-path="url(#p0ac5c00afd)">
     <use xlink:href="#maacb72e020" x="28.952785" y="74.5125" style="fill: #ffffff"/>
    </g>
   </g>
   <g id="line2d_27">
    <path d="M 28.952785 74.5125 
" clip-path="url(#p0ac5c00afd)" style="fill: none"/>
    <g clip-path="url(#p0ac5c00afd)">
     <use xlink:href="#m182682f2b9" x="28.952785" y="74.5125" style="fill-opacity: 0; stroke: #1976d2; stroke-linejoin: miter"/>
    </g>
   </g>
   <g id="line2d_28">
    <path d="M 23.032361 30.436598 
" clip-path="url(#p0ac5c00afd)" style="fill: none"/>
    <g clip-path="url(#p0ac5c00afd)">
     <use xlink:href="#m12337b3e7d" x="23.032361" y="30.436598" style="fill: #d32f2f"/>
    </g>
    <g clip-path="url(#p0ac5c00afd)">
     <use xlink:href="#m3b15490ddb" x="23.032361" y="30.436598" style="fill: #ffffff"/>
    </g>
   </g>
   <g id="line2d_29">
    <path d="M 23.032361 30.436598 
" clip-path="url(#p0ac5c00afd)" style="fill: none"/>
    <g clip-path="url(#p0ac5c00afd)">
     <use xlink:href="#mcddd1e2843" x="23.032361" y="30.436598" style="fill-opacity: 0; stroke: #d32f2f; stroke-linejoin: miter"/>
    </g>
   </g>
   <g id="line2d_30">
    <path d="M 64.475332 56.041511 
" clip-path="url(#p0ac5c00afd)" style="fill: none"/>
    <g clip-path="url(#p0ac5c00afd)">
     <use xlink:href="#m12337b3e7d" x="64.475332" y="56.041511" style="fill: #d32f2f"/>
    </g>
    <g clip-path="url(#p0ac5c00afd)">
     <use xlink:href="#m3b15490ddb" x="64.475332" y="56.041511" style="fill: #ffffff"/>
    </g>
   </g>
   <g id="line2d_31">
    <path d="M 64.475332 56.041511 
" clip-path="url(#p0ac5c00afd)" style="fill: none"/>
    <g clip-path="url(#p0ac5c00afd)">
     <use xlink:href="#mcddd1e2843" x="64.475332" y="56.041511" style="fill-opacity: 0; stroke: #d32f2f; stroke-linejoin: miter"/>
    </g>
   </g>
   <g id="line2d_32">
    <path d="M 70.395756 78.295781 
" clip-path="url(#p0ac5c00afd)" style="fill: none"/>
    <g clip-path="url(#p0ac5c00afd)">
     <use xlink:href="#m12337b3e7d" x="70.395756" y="78.295781" style="fill: #d32f2f"/>
    </g>
    <g clip-path="url(#p0ac5c00afd)">
     <use xlink:href="#m3b15490ddb" x="70.395756" y="78.295781" style="fill: #ffffff"/>
    </g>
   </g>
   <g id="line2d_33">
    <path d="M 70.395756 78.295781 
" clip-path="url(#p0ac5c00afd)" style="fill: none"/>
    <g clip-path="url(#p0ac5c00afd)">
     <use xlink:href="#mcddd1e2843" x="70.395756" y="78.295781" style="fill-opacity: 0; stroke: #d32f2f; stroke-linejoin: miter"/>
    </g>
   </g>
   <g id="line2d_34">
    <path d="M 28.952785 77.525302 
" clip-path="url(#p0ac5c00afd)" style="fill: none"/>
    <g clip-path="url(#p0ac5c00afd)">
     <use xlink:href="#m4a8ac18a9a" x="28.952785" y="77.525302" style="fill: #1976d2"/>
    </g>
    <g clip-path="url(#p0ac5c00afd)">
     <use xlink:href="#maacb72e020" x="28.952785" y="77.525302" style="fill: #ffffff"/>
    </g>
   </g>
   <g id="line2d_35">
    <path d="M 28.952785 77.525302 
" clip-path="url(#p0ac5c00afd)" style="fill: none"/>
    <g clip-path="url(#p0ac5c00afd)">
     <use xlink:href="#m182682f2b9" x="28.952785" y="77.525302" style="fill-opacity: 0; stroke: #1976d2; stroke-linejoin: miter"/>
    </g>
   </g>
   <g id="line2d_36">
    <path d="M 34.87321 63.700902 
" clip-path="url(#p0ac5c00afd)" style="fill: none"/>
    <g clip-path="url(#p0ac5c00afd)">
     <use xlink:href="#m4a8ac18a9a" x="34.87321" y="63.700902" style="fill: #1976d2"/>
    </g>
    <g clip-path="url(#p0ac5c00afd)">
     <use xlink:href="#maacb72e020" x="34.87321" y="63.700902" style="fill: #ffffff"/>
    </g>
   </g>
   <g id="line2d_37">
    <path d="M 34.87321 63.700902 
" clip-path="url(#p0ac5c00afd)" style="fill: none"/>
    <g clip-path="url(#p0ac5c00afd)">
     <use xlink:href="#m182682f2b9" x="34.87321" y="63.700902" style="fill-opacity: 0; stroke: #1976d2; stroke-linejoin: miter"/>
    </g>
   </g>
   <g id="line2d_38">
    <path d="M 40.793634 76.467334 
" clip-path="url(#p0ac5c00afd)" style="fill: none"/>
    <g clip-path="url(#p0ac5c00afd)">
     <use xlink:href="#m4a8ac18a9a" x="40.793634" y="76.467334" style="fill: #1976d2"/>
    </g>
    <g clip-path="url(#p0ac5c00afd)">
     <use xlink:href="#maacb72e020" x="40.793634" y="76.467334" style="fill: #ffffff"/>
    </g>
   </g>
   <g id="line2d_39">
    <path d="M 40.793634 76.467334 
" clip-path="url(#p0ac5c00afd)" style="fill: none"/>
    <g clip-path="url(#p0ac5c00afd)">
     <use xlink:href="#m182682f2b9" x="40.793634" y="76.467334" style="fill-opacity: 0; stroke: #1976d2; stroke-linejoin: miter"/>
    </g>
   </g>
   <g id="line2d_40">
    <path d="M 23.032361 39.658118 
" clip-path="url(#p0ac5c00afd)" style="fill: none"/>
    <g clip-path="url(#p0ac5c00afd)">
     <use xlink:href="#m12337b3e7d" x="23.032361" y="39.658118" style="fill: #d32f2f"/>
    </g>
    <g clip-path="url(#p0ac5c00afd)">
     <use xlink:href="#m3b15490ddb" x="23.032361" y="39.658118" style="fill: #ffffff"/>
    </g>
   </g>
   <g id="line2d_41">
    <path d="M 23.032361 39.658118 
" clip-path="url(#p0ac5c00afd)" style="fill: none"/>
    <g clip-path="url(#p0ac5c00afd)">
     <use xlink:href="#mcddd1e2843" x="23.032361" y="39.658118" style="fill-opacity: 0; stroke: #d32f2f; stroke-linejoin: miter"/>
    </g>
   </g>
   <g id="line2d_42">
    <path d="M 40.793634 48.80354 
" clip-path="url(#p0ac5c00afd)" style="fill: none"/>
    <g clip-path="url(#p0ac5c00afd)">
     <use xlink:href="#m12337b3e7d" x="40.793634" y="48.80354" style="fill: #d32f2f"/>
    </g>
    <g clip-path="url(#p0ac5c00afd)">
     <use xlink:href="#m3b15490ddb" x="40.793634" y="48.80354" style="fill: #ffffff"/>
    </g>
   </g>
   <g id="line2d_43">
    <path d="M 40.793634 48.80354 
" clip-path="url(#p0ac5c00afd)" style="fill: none"/>
    <g clip-path="url(#p0ac5c00afd)">
     <use xlink:href="#mcddd1e2843" x="40.793634" y="48.80354" style="fill-opacity: 0; stroke: #d32f2f; stroke-linejoin: miter"/>
    </g>
   </g>
   <g id="line2d_44">
    <path d="M 82.236605 94.228317 
" clip-path="url(#p0ac5c00afd)" style="fill: none"/>
    <g clip-path="url(#p0ac5c00afd)">
     <use xlink:href="#m12337b3e7d" x="82.236605" y="94.228317" style="fill: #d32f2f"/>
    </g>
    <g clip-path="url(#p0ac5c00afd)">
     <use xlink:href="#m3b15490ddb" x="82.236605" y="94.228317" style="fill: #ffffff"/>
    </g>
   </g>
   <g id="line2d_45">
    <path d="M 82.236605 94.228317 
" clip-path="url(#p0ac5c00afd)" style="fill: none"/>
    <g clip-path="url(#p0ac5c00afd)">
     <use xlink:href="#mcddd1e2843" x="82.236605" y="94.228317" style="fill-opacity: 0; stroke: #d32f2f; stroke-linejoin: miter"/>
    </g>
   </g>
   <g id="line2d_46">
    <path d="M 34.87321 58.538427 
" clip-path="url(#p0ac5c00afd)" style="fill: none"/>
    <g clip-path="url(#p0ac5c00afd)">
     <use xlink:href="#m12337b3e7d" x="34.87321" y="58.538427" style="fill: #d32f2f"/>
    </g>
    <g clip-path="url(#p0ac5c00afd)">
     <use xlink:href="#m3b15490ddb" x="34.87321" y="58.538427" style="fill: #ffffff"/>
    </g>
   </g>
   <g id="line2d_47">
    <path d="M 34.87321 58.538427 
" clip-path="url(#p0ac5c00afd)" style="fill: none"/>
    <g clip-path="url(#p0ac5c00afd)">
     <use xlink:href="#mcddd1e2843" x="34.87321" y="58.538427" style="fill-opacity: 0; stroke: #d32f2f; stroke-linejoin: miter"/>
    </g>
   </g>
   <g id="line2d_48">
    <path d="M 82.236605 69.289772 
" clip-path="url(#p0ac5c00afd)" style="fill: none"/>
    <g clip-path="url(#p0ac5c00afd)">
     <use xlink:href="#m12337b3e7d" x="82.236605" y="69.289772" style="fill: #d32f2f"/>
    </g>
    <g clip-path="url(#p0ac5c00afd)">
     <use xlink:href="#m3b15490ddb" x="82.236605" y="69.289772" style="fill: #ffffff"/>
    </g>
   </g>
   <g id="line2d_49">
    <path d="M 82.236605 69.289772 
" clip-path="url(#p0ac5c00afd)" style="fill: none"/>
    <g clip-path="url(#p0ac5c00afd)">
     <use xlink:href="#mcddd1e2843" x="82.236605" y="69.289772" style="fill-opacity: 0; stroke: #d32f2f; stroke-linejoin: miter"/>
    </g>
   </g>
   <g id="line2d_50">
    <path d="M 88.157029 74.816771 
" clip-path="url(#p0ac5c00afd)" style="fill: none"/>
    <g clip-path="url(#p0ac5c00afd)">
     <use xlink:href="#m12337b3e7d" x="88.157029" y="74.816771" style="fill: #d32f2f"/>
    </g>
    <g clip-path="url(#p0ac5c00afd)">
     <use xlink:href="#m3b15490ddb" x="88.157029" y="74.816771" style="fill: #ffffff"/>
    </g>
   </g>
   <g id="line2d_51">
    <path d="M 88.157029 74.816771 
" clip-path="url(#p0ac5c00afd)" style="fill: none"/>
    <g clip-path="url(#p0ac5c00afd)">
     <use xlink:href="#mcddd1e2843" x="88.157029" y="74.816771" style="fill-opacity: 0; stroke: #d32f2f; stroke-linejoin: miter"/>
    </g>
   </g>
   <g id="line2d_52">
    <path d="M 52.634483 58.202588 
" clip-path="url(#p0ac5c00afd)" style="fill: none"/>
    <g clip-path="url(#p0ac5c00afd)">
     <use xlink:href="#m12337b3e7d" x="52.634483" y="58.202588" style="fill: #d32f2f"/>
    </g>
    <g clip-path="url(#p0ac5c00afd)">
     <use xlink:href="#m3b15490ddb" x="52.634483" y="58.202588" style="fill: #ffffff"/>
    </g>
   </g>
   <g id="line2d_53">
    <path d="M 52.634483 58.202588 
" clip-path="url(#p0ac5c00afd)" style="fill: none"/>
    <g clip-path="url(#p0ac5c00afd)">
     <use xlink:href="#mcddd1e2843" x="52.634483" y="58.202588" style="fill-opacity: 0; stroke: #d32f2f; stroke-linejoin: miter"/>
    </g>
   </g>
   <g id="line2d_54">
    <path d="M 99.997878 65.620849 
" clip-path="url(#p0ac5c00afd)" style="fill: none"/>
    <g clip-path="url(#p0ac5c00afd)">
     <use xlink:href="#m12337b3e7d" x="99.997878" y="65.620849" style="fill: #d32f2f"/>
    </g>
    <g clip-path="url(#p0ac5c00afd)">
     <use xlink:href="#m3b15490ddb" x="99.997878" y="65.620849" style="fill: #ffffff"/>
    </g>
   </g>
   <g id="line2d_55">
    <path d="M 99.997878 65.620849 
" clip-path="url(#p0ac5c00afd)" style="fill: none"/>
    <g clip-path="url(#p0ac5c00afd)">
     <use xlink:href="#mcddd1e2843" x="99.997878" y="65.620849" style="fill-opacity: 0; stroke: #d32f2f; stroke-linejoin: miter"/>
    </g>
   </g>
   <g id="line2d_56">
    <path d="M 111.838727 92.273977 
" clip-path="url(#p0ac5c00afd)" style="fill: none"/>
    <g clip-path="url(#p0ac5c00afd)">
     <use xlink:href="#m12337b3e7d" x="111.838727" y="92.273977" style="fill: #d32f2f"/>
    </g>
    <g clip-path="url(#p0ac5c00afd)">
     <use xlink:href="#m3b15490ddb" x="111.838727" y="92.273977" style="fill: #ffffff"/>
    </g>
   </g>
   <g id="line2d_57">
    <path d="M 111.838727 92.273977 
" clip-path="url(#p0ac5c00afd)" style="fill: none"/>
    <g clip-path="url(#p0ac5c00afd)">
     <use xlink:href="#mcddd1e2843" x="111.838727" y="92.273977" style="fill-opacity: 0; stroke: #d32f2f; stroke-linejoin: miter"/>
    </g>
   </g>
   <g id="line2d_58">
    <path d="M 46.714058 42.713067 
" clip-path="url(#p0ac5c00afd)" style="fill: none"/>
    <g clip-path="url(#p0ac5c00afd)">
     <use xlink:href="#m12337b3e7d" x="46.714058" y="42.713067" style="fill: #d32f2f"/>
    </g>
    <g clip-path="url(#p0ac5c00afd)">
     <use xlink:href="#m3b15490ddb" x="46.714058" y="42.713067" style="fill: #ffffff"/>
    </g>
   </g>
   <g id="line2d_59">
    <path d="M 46.714058 42.713067 
" clip-path="url(#p0ac5c00afd)" style="fill: none"/>
    <g clip-path="url(#p0ac5c00afd)">
     <use xlink:href="#mcddd1e2843" x="46.714058" y="42.713067" style="fill-opacity: 0; stroke: #d32f2f; stroke-linejoin: miter"/>
    </g>
   </g>
   <g id="line2d_60">
    <path d="M 99.997878 55.448188 
" clip-path="url(#p0ac5c00afd)" style="fill: none"/>
    <g clip-path="url(#p0ac5c00afd)">
     <use xlink:href="#m12337b3e7d" x="99.997878" y="55.448188" style="fill: #d32f2f"/>
    </g>
    <g clip-path="url(#p0ac5c00afd)">
     <use xlink:href="#m3b15490ddb" x="99.997878" y="55.448188" style="fill: #ffffff"/>
    </g>
   </g>
   <g id="line2d_61">
    <path d="M 99.997878 55.448188 
" clip-path="url(#p0ac5c00afd)" style="fill: none"/>
    <g clip-path="url(#p0ac5c00afd)">
     <use xlink:href="#mcddd1e2843" x="99.997878" y="55.448188" style="fill-opacity: 0; stroke: #d32f2f; stroke-linejoin: miter"/>
    </g>
   </g>
   <g id="line2d_62">
    <path d="M 123.679576 74.92026 
" clip-path="url(#p0ac5c00afd)" style="fill: none"/>
    <g clip-path="url(#p0ac5c00afd)">
     <use xlink:href="#m12337b3e7d" x="123.679576" y="74.92026" style="fill: #d32f2f"/>
    </g>
    <g clip-path="url(#p0ac5c00afd)">
     <use xlink:href="#m3b15490ddb" x="123.679576" y="74.92026" style="fill: #ffffff"/>
    </g>
   </g>
   <g id="line2d_63">
    <path d="M 123.679576 74.92026 
" clip-path="url(#p0ac5c00afd)" style="fill: none"/>
    <g clip-path="url(#p0ac5c00afd)">
     <use xlink:href="#mcddd1e2843" x="123.679576" y="74.92026" style="fill-opacity: 0; stroke: #d32f2f; stroke-linejoin: miter"/>
    </g>
   </g>
   <g id="line2d_64">
    <path d="M 23.032361 67.635465 
" clip-path="url(#p0ac5c00afd)" style="fill: none"/>
    <g clip-path="url(#p0ac5c00afd)">
     <use xlink:href="#m4a8ac18a9a" x="23.032361" y="67.635465" style="fill: #1976d2"/>
    </g>
    <g clip-path="url(#p0ac5c00afd)">
     <use xlink:href="#maacb72e020" x="23.032361" y="67.635465" style="fill: #ffffff"/>
    </g>
   </g>
   <g id="line2d_65">
    <path d="M 23.032361 67.635465 
" clip-path="url(#p0ac5c00afd)" style="fill: none"/>
    <g clip-path="url(#p0ac5c00afd)">
     <use xlink:href="#m182682f2b9" x="23.032361" y="67.635465" style="fill-opacity: 0; stroke: #1976d2; stroke-linejoin: miter"/>
    </g>
   </g>
   <g id="line2d_66">
    <path d="M 28.952785 76.875215 
" clip-path="url(#p0ac5c00afd)" style="fill: none"/>
    <g clip-path="url(#p0ac5c00afd)">
     <use xlink:href="#m4a8ac18a9a" x="28.952785" y="76.875215" style="fill: #1976d2"/>
    </g>
    <g clip-path="url(#p0ac5c00afd)">
     <use xlink:href="#maacb72e020" x="28.952785" y="76.875215" style="fill: #ffffff"/>
    </g>
   </g>
   <g id="line2d_67">
    <path d="M 28.952785 76.875215 
" clip-path="url(#p0ac5c00afd)" style="fill: none"/>
    <g clip-path="url(#p0ac5c00afd)">
     <use xlink:href="#m182682f2b9" x="28.952785" y="76.875215" style="fill-opacity: 0; stroke: #1976d2; stroke-linejoin: miter"/>
    </g>
   </g>
   <g id="line2d_68">
    <path d="M 34.87321 74.198435 
" clip-path="url(#p0ac5c00afd)" style="fill: none"/>
    <g clip-path="url(#p0ac5c00afd)">
     <use xlink:href="#m4a8ac18a9a" x="34.87321" y="74.198435" style="fill: #1976d2"/>
    </g>
    <g clip-path="url(#p0ac5c00afd)">
     <use xlink:href="#maacb72e020" x="34.87321" y="74.198435" style="fill: #ffffff"/>
    </g>
   </g>
   <g id="line2d_69">
    <path d="M 34.87321 74.198435 
" clip-path="url(#p0ac5c00afd)" style="fill: none"/>
    <g clip-path="url(#p0ac5c00afd)">
     <use xlink:href="#m182682f2b9" x="34.87321" y="74.198435" style="fill-opacity: 0; stroke: #1976d2; stroke-linejoin: miter"/>
    </g>
   </g>
   <g id="line2d_70">
    <path d="M 23.032361 83.291861 
" clip-path="url(#p0ac5c00afd)" style="fill: none"/>
    <g clip-path="url(#p0ac5c00afd)">
     <use xlink:href="#m4a8ac18a9a" x="23.032361" y="83.291861" style="fill: #1976d2"/>
    </g>
    <g clip-path="url(#p0ac5c00afd)">
     <use xlink:href="#maacb72e020" x="23.032361" y="83.291861" style="fill: #ffffff"/>
    </g>
   </g>
   <g id="line2d_71">
    <path d="M 23.032361 83.291861 
" clip-path="url(#p0ac5c00afd)" style="fill: none"/>
    <g clip-path="url(#p0ac5c00afd)">
     <use xlink:href="#m182682f2b9" x="23.032361" y="83.291861" style="fill-opacity: 0; stroke: #1976d2; stroke-linejoin: miter"/>
    </g>
   </g>
   <g id="line2d_72">
    <path d="M 34.87321 83.947315 
" clip-path="url(#p0ac5c00afd)" style="fill: none"/>
    <g clip-path="url(#p0ac5c00afd)">
     <use xlink:href="#m4a8ac18a9a" x="34.87321" y="83.947315" style="fill: #1976d2"/>
    </g>
    <g clip-path="url(#p0ac5c00afd)">
     <use xlink:href="#maacb72e020" x="34.87321" y="83.947315" style="fill: #ffffff"/>
    </g>
   </g>
   <g id="line2d_73">
    <path d="M 34.87321 83.947315 
" clip-path="url(#p0ac5c00afd)" style="fill: none"/>
    <g clip-path="url(#p0ac5c00afd)">
     <use xlink:href="#m182682f2b9" x="34.87321" y="83.947315" style="fill-opacity: 0; stroke: #1976d2; stroke-linejoin: miter"/>
    </g>
   </g>
   <g id="line2d_74">
    <path d="M 64.475332 92.717 
" clip-path="url(#p0ac5c00afd)" style="fill: none"/>
    <g clip-path="url(#p0ac5c00afd)">
     <use xlink:href="#m4a8ac18a9a" x="64.475332" y="92.717" style="fill: #1976d2"/>
    </g>
    <g clip-path="url(#p0ac5c00afd)">
     <use xlink:href="#maacb72e020" x="64.475332" y="92.717" style="fill: #ffffff"/>
    </g>
   </g>
   <g id="line2d_75">
    <path d="M 64.475332 92.717 
" clip-path="url(#p0ac5c00afd)" style="fill: none"/>
    <g clip-path="url(#p0ac5c00afd)">
     <use xlink:href="#m182682f2b9" x="64.475332" y="92.717" style="fill-opacity: 0; stroke: #1976d2; stroke-linejoin: miter"/>
    </g>
   </g>
   <g id="line2d_76">
    <path clip-path="url(#p0ac5c00afd)" style="fill: none"/>
    <g clip-path="url(#p0ac5c00afd)"/>
    <g clip-path="url(#p0ac5c00afd)"/>
   </g>
   <g id="line2d_77">
    <path clip-path="url(#p0ac5c00afd)" style="fill: none"/>
    <g clip-path="url(#p0ac5c00afd)"/>
   </g>
   <g id="line2d_78">
    <path d="M 40.793634 94.7192 
" clip-path="url(#p0ac5c00afd)" style="fill: none"/>
    <g clip-path="url(#p0ac5c00afd)">
     <use xlink:href="#m4a8ac18a9a" x="40.793634" y="94.7192" style="fill: #1976d2"/>
    </g>
    <g clip-path="url(#p0ac5c00afd)">
     <use xlink:href="#maacb72e020" x="40.793634" y="94.7192" style="fill: #ffffff"/>
    </g>
   </g>
   <g id="line2d_79">
    <path d="M 40.793634 94.7192 
" clip-path="url(#p0ac5c00afd)" style="fill: none"/>
    <g clip-path="url(#p0ac5c00afd)">
     <use xlink:href="#m182682f2b9" x="40.793634" y="94.7192" style="fill-opacity: 0; stroke: #1976d2; stroke-linejoin: miter"/>
    </g>
   </g>
   <g id="line2d_80">
    <path d="M 58.554907 80.407068 
" clip-path="url(#p0ac5c00afd)" style="fill: none"/>
    <g clip-path="url(#p0ac5c00afd)">
     <use xlink:href="#m4a8ac18a9a" x="58.554907" y="80.407068" style="fill: #1976d2"/>
    </g>
    <g clip-path="url(#p0ac5c00afd)">
     <use xlink:href="#maacb72e020" x="58.554907" y="80.407068" style="fill: #ffffff"/>
    </g>
   </g>
   <g id="line2d_81">
    <path d="M 58.554907 80.407068 
" clip-path="url(#p0ac5c00afd)" style="fill: none"/>
    <g clip-path="url(#p0ac5c00afd)">
     <use xlink:href="#m182682f2b9" x="58.554907" y="80.407068" style="fill-opacity: 0; stroke: #1976d2; stroke-linejoin: miter"/>
    </g>
   </g>
   <g id="line2d_82">
    <path clip-path="url(#p0ac5c00afd)" style="fill: none"/>
    <g clip-path="url(#p0ac5c00afd)"/>
    <g clip-path="url(#p0ac5c00afd)"/>
   </g>
   <g id="line2d_83">
    <path clip-path="url(#p0ac5c00afd)" style="fill: none"/>
    <g clip-path="url(#p0ac5c00afd)"/>
   </g>
   <g id="line2d_84">
    <path d="M 28.952785 77.568315 
" clip-path="url(#p0ac5c00afd)" style="fill: none"/>
    <g clip-path="url(#p0ac5c00afd)">
     <use xlink:href="#m4a8ac18a9a" x="28.952785" y="77.568315" style="fill: #1976d2"/>
    </g>
    <g clip-path="url(#p0ac5c00afd)">
     <use xlink:href="#maacb72e020" x="28.952785" y="77.568315" style="fill: #ffffff"/>
    </g>
   </g>
   <g id="line2d_85">
    <path d="M 28.952785 77.568315 
" clip-path="url(#p0ac5c00afd)" style="fill: none"/>
    <g clip-path="url(#p0ac5c00afd)">
     <use xlink:href="#m182682f2b9" x="28.952785" y="77.568315" style="fill-opacity: 0; stroke: #1976d2; stroke-linejoin: miter"/>
    </g>
   </g>
   <g id="line2d_86">
    <path d="M 40.793634 69.233988 
" clip-path="url(#p0ac5c00afd)" style="fill: none"/>
    <g clip-path="url(#p0ac5c00afd)">
     <use xlink:href="#m4a8ac18a9a" x="40.793634" y="69.233988" style="fill: #1976d2"/>
    </g>
    <g clip-path="url(#p0ac5c00afd)">
     <use xlink:href="#maacb72e020" x="40.793634" y="69.233988" style="fill: #ffffff"/>
    </g>
   </g>
   <g id="line2d_87">
    <path d="M 40.793634 69.233988 
" clip-path="url(#p0ac5c00afd)" style="fill: none"/>
    <g clip-path="url(#p0ac5c00afd)">
     <use xlink:href="#m182682f2b9" x="40.793634" y="69.233988" style="fill-opacity: 0; stroke: #1976d2; stroke-linejoin: miter"/>
    </g>
   </g>
   <g id="patch_3">
    <path d="M 18 128.16 
L 18 17.28 
" style="fill: none; stroke: #000000; stroke-width: 0.8; stroke-linejoin: miter; stroke-linecap: square"/>
   </g>
   <g id="patch_4">
    <path d="M 18 72.72 
L 129.6 72.72 
" style="fill: none; stroke: #000000; stroke-width: 0.8; stroke-linejoin: miter; stroke-linecap: square"/>
   </g>
   <g id="text_4">
    <!-- HLA-B -0.62 -->
    <g transform="translate(38.345625 11.28) scale(0.12 -0.12)">
     <defs>
      <path id="DejaVuSans-48" d="M 628 4666 
L 1259 4666 
L 1259 2753 
L 3553 2753 
L 3553 4666 
L 4184 4666 
L 4184 0 
L 3553 0 
L 3553 2222 
L 1259 2222 
L 1259 0 
L 628 0 
L 628 4666 
z
" transform="scale(0.015625)"/>
      <path id="DejaVuSans-4c" d="M 628 4666 
L 1259 4666 
L 1259 531 
L 3531 531 
L 3531 0 
L 628 0 
L 628 4666 
z
" transform="scale(0.015625)"/>
      <path id="DejaVuSans-41" d="M 2188 4044 
L 1331 1722 
L 3047 1722 
L 2188 4044 
z
M 1831 4666 
L 2547 4666 
L 4325 0 
L 3669 0 
L 3244 1197 
L 1141 1197 
L 716 0 
L 50 0 
L 1831 4666 
z
" transform="scale(0.015625)"/>
      <path id="DejaVuSans-2d" d="M 313 2009 
L 1997 2009 
L 1997 1497 
L 313 1497 
L 313 2009 
z
" transform="scale(0.015625)"/>
      <path id="DejaVuSans-42" d="M 1259 2228 
L 1259 519 
L 2272 519 
Q 2781 519 3026 730 
Q 3272 941 3272 1375 
Q 3272 1813 3026 2020 
Q 2781 2228 2272 2228 
L 1259 2228 
z
M 1259 4147 
L 1259 2741 
L 2194 2741 
Q 2656 2741 2882 2914 
Q 3109 3088 3109 3444 
Q 3109 3797 2882 3972 
Q 2656 4147 2194 4147 
L 1259 4147 
z
M 628 4666 
L 2241 4666 
Q 2963 4666 3353 4366 
Q 3744 4066 3744 3513 
Q 3744 3084 3544 2831 
Q 3344 2578 2956 2516 
Q 3422 2416 3680 2098 
Q 3938 1781 3938 1306 
Q 3938 681 3513 340 
Q 3088 0 2303 0 
L 628 0 
L 628 4666 
z
" transform="scale(0.015625)"/>
      <path id="DejaVuSans-20" transform="scale(0.015625)"/>
      <path id="DejaVuSans-2e" d="M 684 794 
L 1344 794 
L 1344 0 
L 684 0 
L 684 794 
z
" transform="scale(0.015625)"/>
      <path id="DejaVuSans-36" d="M 2113 2584 
Q 1688 2584 1439 2293 
Q 1191 2003 1191 1497 
Q 1191 994 1439 701 
Q 1688 409 2113 409 
Q 2538 409 2786 701 
Q 3034 994 3034 1497 
Q 3034 2003 2786 2293 
Q 2538 2584 2113 2584 
z
M 3366 4563 
L 3366 3988 
Q 3128 4100 2886 4159 
Q 2644 4219 2406 4219 
Q 1781 4219 1451 3797 
Q 1122 3375 1075 2522 
Q 1259 2794 1537 2939 
Q 1816 3084 2150 3084 
Q 2853 3084 3261 2657 
Q 3669 2231 3669 1497 
Q 3669 778 3244 343 
Q 2819 -91 2113 -91 
Q 1303 -91 875 529 
Q 447 1150 447 2328 
Q 447 3434 972 4092 
Q 1497 4750 2381 4750 
Q 2619 4750 2861 4703 
Q 3103 4656 3366 4563 
z
" transform="scale(0.015625)"/>
     </defs>
     <use xlink:href="#DejaVuSans-48"/>
     <use xlink:href="#DejaVuSans-4c" transform="translate(75.195312 0)"/>
     <use xlink:href="#DejaVuSans-41" transform="translate(133.158203 0)"/>
     <use xlink:href="#DejaVuSans-2d" transform="translate(199.316406 0)"/>
     <use xlink:href="#DejaVuSans-42" transform="translate(231.775391 0)"/>
     <use xlink:href="#DejaVuSans-20" transform="translate(300.378906 0)"/>
     <use xlink:href="#DejaVuSans-2d" transform="translate(332.166016 0)"/>
     <use xlink:href="#DejaVuSans-30" transform="translate(368.25 0)"/>
     <use xlink:href="#DejaVuSans-2e" transform="translate(431.873047 0)"/>
     <use xlink:href="#DejaVuSans-36" transform="translate(463.660156 0)"/>
     <use xlink:href="#DejaVuSans-32" transform="translate(527.283203 0)"/>
    </g>
   </g>
  </g>
 </g>
 <defs>
  <clipPath id="p0ac5c00afd">
   <rect x="18" y="17.28" width="111.6" height="110.88"/>
  </clipPath>
 </defs>
</svg>
