<?xml version="1.0" encoding="utf-8" standalone="no"?>
<!DOCTYPE svg PUBLIC "-//W3C//DTD SVG 1.1//EN"
  "http://www.w3.org/Graphics/SVG/1.1/DTD/svg11.dtd">
<svg xmlns:xlink="http://www.w3.org/1999/xlink" width="144pt" height="144pt" viewBox="0 0 144 144" xmlns="http://www.w3.org/2000/svg" version="1.1">
 <metadata>
  <rdf:RDF xmlns:dc="http://purl.org/dc/elements/1.1/" xmlns:cc="http://creativecommons.org/ns#" xmlns:rdf="http://www.w3.org/1999/02/22-rdf-syntax-ns#">
   <cc:Work>
    <dc:type rdf:resource="http://purl.org/dc/dcmitype/StillImage"/>
    <dc:date>2026-02-17T13:08:29.487388</dc:date>
    <dc:format>image/svg+xml</dc:format>
    <dc:creator>
     <cc:Agent>
      <dc:title>Matplotlib v3.10.6, https://matplotlib.org/</dc:title>
     </cc:Agent>
    </dc:creator>
   </cc:Work>
  </rdf:RDF>
 </metadata>
 <defs>
  <style type="text/css">*{stroke-linejoin: round; stroke-linecap: butt}</style>
 </defs>
 <g id="figure_1">
  <g id="patch_1">
   <path d="M 0 144 
L 144 144 
L 144 0 
L 0 0 
z
" style="fill: #ffffff"/>
  </g>
  <g id="axes_1">
   <g id="patch_2">
    <path d="M 18 128.16 
L 129.6 128.16 
L 129.6 17.28 
L 18 17.28 
z
" style="fill: #ffffff"/>
   </g>
   <g id="matplotlib.axis_1">
    <g id="xtick_1">
     <g id="line2d_1">
      <defs>
       <path id="m25b384cde9" d="M 0 0 
L 0 3.5 
" style="stroke: #000000; stroke-width: 0.8"/>
      </defs>
      <g>
       <use xlink:href="#m25b384cde9" x="76.31618" y="72.72" style="stroke: #000000; stroke-width: 0.8"/>
      </g>
     </g>
    </g>
    <g id="xtick_2">
     <g id="line2d_2">
      <g>
       <use xlink:href="#m25b384cde9" x="129.6" y="72.72" style="stroke: #000000; stroke-width: 0.8"/>
      </g>
     </g>
    </g>
   </g>
   <g id="matplotlib.axis_2">
    <g id="ytick_1">
     <g id="line2d_3">
      <defs>
       <path id="ma24566247b" d="M 0 0 
L -3.5 0 
" style="stroke: #000000; stroke-width: 0.8"/>
      </defs>
      <g>
       <use xlink:href="#ma24566247b" x="18" y="104.4" style="stroke: #000000; stroke-width: 0.8"/>
      </g>
     </g>
     <g id="text_1">
      <!-- −2 -->
      <g transform="translate(-3.742188 108.199219) scale(0.1 -0.1)">
       <defs>
        <path id="DejaVuSans-2212" d="M 678 2272 
L 4684 2272 
L 4684 1741 
L 678 1741 
L 678 2272 
z
" transform="scale(0.015625)"/>
        <path id="DejaVuSans-32" d="M 1228 531 
L 3431 531 
L 3431 0 
L 469 0 
L 469 531 
Q 828 903 1448 1529 
Q 2069 2156 2228 2338 
Q 2531 2678 2651 2914 
Q 2772 3150 2772 3378 
Q 2772 3750 2511 3984 
Q 2250 4219 1831 4219 
Q 1534 4219 1204 4116 
Q 875 4013 500 3803 
L 500 4441 
Q 881 4594 1212 4672 
Q 1544 4750 1819 4750 
Q 2544 4750 2975 4387 
Q 3406 4025 3406 3419 
Q 3406 3131 3298 2873 
Q 3191 2616 2906 2266 
Q 2828 2175 2409 1742 
Q 1991 1309 1228 531 
z
" transform="scale(0.015625)"/>
       </defs>
       <use xlink:href="#DejaVuSans-2212"/>
       <use xlink:href="#DejaVuSans-32" transform="translate(83.789062 0)"/>
      </g>
     </g>
    </g>
    <g id="ytick_2">
     <g id="line2d_4">
      <g>
       <use xlink:href="#ma24566247b" x="18" y="72.72" style="stroke: #000000; stroke-width: 0.8"/>
      </g>
     </g>
     <g id="text_2">
      <!-- 0 -->
      <g transform="translate(4.6375 76.519219) scale(0.1 -0.1)">
       <defs>
        <path id="DejaVuSans-30" d="M 2034 4250 
Q 1547 4250 1301 3770 
Q 1056 3291 1056 2328 
Q 1056 1369 1301 889 
Q 1547 409 2034 409 
Q 2525 409 2770 889 
Q 3016 1369 3016 2328 
Q 3016 3291 2770 3770 
Q 2525 4250 2034 4250 
z
M 2034 4750 
Q 2819 4750 3233 4129 
Q 3647 3509 3647 2328 
Q 3647 1150 3233 529 
Q 2819 -91 2034 -91 
Q 1250 -91 836 529 
Q 422 1150 422 2328 
Q 422 3509 836 4129 
Q 1250 4750 2034 4750 
z
" transform="scale(0.015625)"/>
       </defs>
       <use xlink:href="#DejaVuSans-30"/>
      </g>
     </g>
    </g>
    <g id="ytick_3">
     <g id="line2d_5">
      <g>
       <use xlink:href="#ma24566247b" x="18" y="41.04" style="stroke: #000000; stroke-width: 0.8"/>
      </g>
     </g>
     <g id="text_3">
      <!-- 2 -->
      <g transform="translate(4.6375 44.839219) scale(0.1 -0.1)">
       <use xlink:href="#DejaVuSans-32"/>
      </g>
     </g>
    </g>
   </g>
   <g id="line2d_6">
    <path d="M 40.793634 72.670074 
" clip-path="url(#p869bf047a8)" style="fill: none"/>
    <defs>
     <path id="mfb4c0473eb" d="M 0 -4.242641 
L -4.242641 -0 
L -0 4.242641 
L 0 -4.242641 
"/>
    </defs>
    <g clip-path="url(#p869bf047a8)">
     <use xlink:href="#mfb4c0473eb" x="40.793634" y="72.670074" style="fill: #d32f2f"/>
    </g>
    <defs>
     <path id="m889fc4f3ac" d="M 0 -4.242641 
L 4.242641 0 
L -0 4.242641 
L 0 -4.242641 
"/>
    </defs>
    <g clip-path="url(#p869bf047a8)">
     <use xlink:href="#m889fc4f3ac" x="40.793634" y="72.670074" style="fill: #ffffff"/>
    </g>
   </g>
   <g id="line2d_7">
    <path d="M 40.793634 72.670074 
" clip-path="url(#p869bf047a8)" style="fill: none"/>
    <defs>
     <path id="mf46198d107" d="M -0 4.242641 
L 4.242641 0 
L 0 -4.242641 
L -4.242641 -0 
z
" style="stroke: #d32f2f; stroke-linejoin: miter"/>
    </defs>
    <g clip-path="url(#p869bf047a8)">
     <use xlink:href="#mf46198d107" x="40.793634" y="72.670074" style="fill-opacity: 0; stroke: #d32f2f; stroke-linejoin: miter"/>
    </g>
   </g>
   <g id="line2d_8">
    <path d="M 58.554907 74.90766 
" clip-path="url(#p869bf047a8)" style="fill: none"/>
    <g clip-path="url(#p869bf047a8)">
     <use xlink:href="#mfb4c0473eb" x="58.554907" y="74.90766" style="fill: #d32f2f"/>
    </g>
    <g clip-path="url(#p869bf047a8)">
     <use xlink:href="#m889fc4f3ac" x="58.554907" y="74.90766" style="fill: #ffffff"/>
    </g>
   </g>
   <g id="line2d_9">
    <path d="M 58.554907 74.90766 
" clip-path="url(#p869bf047a8)" style="fill: none"/>
    <g clip-path="url(#p869bf047a8)">
     <use xlink:href="#mf46198d107" x="58.554907" y="74.90766" style="fill-opacity: 0; stroke: #d32f2f; stroke-linejoin: miter"/>
    </g>
   </g>
   <g id="line2d_10">
    <path d="M 64.475332 70.354215 
" clip-path="url(#p869bf047a8)" style="fill: none"/>
    <g clip-path="url(#p869bf047a8)">
     <use xlink:href="#mfb4c0473eb" x="64.475332" y="70.354215" style="fill: #d32f2f"/>
    </g>
    <g clip-path="url(#p869bf047a8)">
     <use xlink:href="#m889fc4f3ac" x="64.475332" y="70.354215" style="fill: #ffffff"/>
    </g>
   </g>
   <g id="line2d_11">
    <path d="M 64.475332 70.354215 
" clip-path="url(#p869bf047a8)" style="fill: none"/>
    <g clip-path="url(#p869bf047a8)">
     <use xlink:href="#mf46198d107" x="64.475332" y="70.354215" style="fill-opacity: 0; stroke: #d32f2f; stroke-linejoin: miter"/>
    </g>
   </g>
   <g id="line2d_12">
    <path d="M 23.032361 93.138835 
" clip-path="url(#p869bf047a8)" style="fill: none"/>
    <defs>
     <path id="m82a24c1ada" d="M -0 4.242641 
L 4.242641 0 
L 0 -4.242641 
L -0 4.242641 
"/>
    </defs>
    <g clip-path="url(#p869bf047a8)">
     <use xlink:href="#m82a24c1ada" x="23.032361" y="93.138835" style="fill: #1976d2"/>
    </g>
    <defs>
     <path id="mcf8666e563" d="M -0 4.242641 
L -4.242641 -0 
L 0 -4.242641 
L -0 4.242641 
"/>
    </defs>
    <g clip-path="url(#p869bf047a8)">
     <use xlink:href="#mcf8666e563" x="23.032361" y="93.138835" style="fill: #ffffff"/>
    </g>
   </g>
   <g id="line2d_13">
    <path d="M 23.032361 93.138835 
" clip-path="url(#p869bf047a8)" style="fill: none"/>
    <defs>
     <path id="mf79a066bd0" d="M -0 4.242641 
L 4.242641 0 
L 0 -4.242641 
L -4.242641 -0 
z
" style="stroke: #1976d2; stroke-linejoin: miter"/>
    </defs>
    <g clip-path="url(#p869bf047a8)">
     <use xlink:href="#mf79a066bd0" x="23.032361" y="93.138835" style="fill-opacity: 0; stroke: #1976d2; stroke-linejoin: miter"/>
    </g>
   </g>
   <g id="line2d_14">
    <path d="M 23.032361 103.664253 
" clip-path="url(#p869bf047a8)" style="fill: none"/>
    <g clip-path="url(#p869bf047a8)">
     <use xlink:href="#m82a24c1ada" x="23.032361" y="103.664253" style="fill: #1976d2"/>
    </g>
    <g clip-path="url(#p869bf047a8)">
     <use xlink:href="#mcf8666e563" x="23.032361" y="103.664253" style="fill: #ffffff"/>
    </g>
   </g>
   <g id="line2d_15">
    <path d="M 23.032361 103.664253 
" clip-path="url(#p869bf047a8)" style="fill: none"/>
    <g clip-path="url(#p869bf047a8)">
     <use xlink:href="#mf79a066bd0" x="23.032361" y="103.664253" style="fill-opacity: 0; stroke: #1976d2; stroke-linejoin: miter"/>
    </g>
   </g>
   <g id="line2d_16">
    <path d="M 23.032361 94.929807 
" clip-path="url(#p869bf047a8)" style="fill: none"/>
    <g clip-path="url(#p869bf047a8)">
     <use xlink:href="#m82a24c1ada" x="23.032361" y="94.929807" style="fill: #1976d2"/>
    </g>
    <g clip-path="url(#p869bf047a8)">
     <use xlink:href="#mcf8666e563" x="23.032361" y="94.929807" style="fill: #ffffff"/>
    </g>
   </g>
   <g id="line2d_17">
    <path d="M 23.032361 94.929807 
" clip-path="url(#p869bf047a8)" style="fill: none"/>
    <g clip-path="url(#p869bf047a8)">
     <use xlink:href="#mf79a066bd0" x="23.032361" y="94.929807" style="fill-opacity: 0; stroke: #1976d2; stroke-linejoin: miter"/>
    </g>
   </g>
   <g id="line2d_18">
    <path d="M 28.952785 58.82031 
" clip-path="url(#p869bf047a8)" style="fill: none"/>
    <g clip-path="url(#p869bf047a8)">
     <use xlink:href="#mfb4c0473eb" x="28.952785" y="58.82031" style="fill: #d32f2f"/>
    </g>
    <g clip-path="url(#p869bf047a8)">
     <use xlink:href="#m889fc4f3ac" x="28.952785" y="58.82031" style="fill: #ffffff"/>
    </g>
   </g>
   <g id="line2d_19">
    <path d="M 28.952785 58.82031 
" clip-path="url(#p869bf047a8)" style="fill: none"/>
    <g clip-path="url(#p869bf047a8)">
     <use xlink:href="#mf46198d107" x="28.952785" y="58.82031" style="fill-opacity: 0; stroke: #d32f2f; stroke-linejoin: miter"/>
    </g>
   </g>
   <g id="line2d_20">
    <path d="M 52.634483 72.031895 
" clip-path="url(#p869bf047a8)" style="fill: none"/>
    <g clip-path="url(#p869bf047a8)">
     <use xlink:href="#mfb4c0473eb" x="52.634483" y="72.031895" style="fill: #d32f2f"/>
    </g>
    <g clip-path="url(#p869bf047a8)">
     <use xlink:href="#m889fc4f3ac" x="52.634483" y="72.031895" style="fill: #ffffff"/>
    </g>
   </g>
   <g id="line2d_21">
    <path d="M 52.634483 72.031895 
" clip-path="url(#p869bf047a8)" style="fill: none"/>
    <g clip-path="url(#p869bf047a8)">
     <use xlink:href="#mf46198d107" x="52.634483" y="72.031895" style="fill-opacity: 0; stroke: #d32f2f; stroke-linejoin: miter"/>
    </g>
   </g>
   <g id="line2d_22">
    <path d="M 82.236605 61.81608 
" clip-path="url(#p869bf047a8)" style="fill: none"/>
    <g clip-path="url(#p869bf047a8)">
     <use xlink:href="#mfb4c0473eb" x="82.236605" y="61.81608" style="fill: #d32f2f"/>
    </g>
    <g clip-path="url(#p869bf047a8)">
     <use xlink:href="#m889fc4f3ac" x="82.236605" y="61.81608" style="fill: #ffffff"/>
    </g>
   </g>
   <g id="line2d_23">
    <path d="M 82.236605 61.81608 
" clip-path="url(#p869bf047a8)" style="fill: none"/>
    <g clip-path="url(#p869bf047a8)">
     <use xlink:href="#mf46198d107" x="82.236605" y="61.81608" style="fill-opacity: 0; stroke: #d32f2f; stroke-linejoin: miter"/>
    </g>
   </g>
   <g id="line2d_24">
    <path d="M 23.032361 70.685236 
" clip-path="url(#p869bf047a8)" style="fill: none"/>
    <g clip-path="url(#p869bf047a8)">
     <use xlink:href="#m82a24c1ada" x="23.032361" y="70.685236" style="fill: #1976d2"/>
    </g>
    <g clip-path="url(#p869bf047a8)">
     <use xlink:href="#mcf8666e563" x="23.032361" y="70.685236" style="fill: #ffffff"/>
    </g>
   </g>
   <g id="line2d_25">
    <path d="M 23.032361 70.685236 
" clip-path="url(#p869bf047a8)" style="fill: none"/>
    <g clip-path="url(#p869bf047a8)">
     <use xlink:href="#mf79a066bd0" x="23.032361" y="70.685236" style="fill-opacity: 0; stroke: #1976d2; stroke-linejoin: miter"/>
    </g>
   </g>
   <g id="line2d_26">
    <path d="M 28.952785 70.794962 
" clip-path="url(#p869bf047a8)" style="fill: none"/>
    <g clip-path="url(#p869bf047a8)">
     <use xlink:href="#m82a24c1ada" x="28.952785" y="70.794962" style="fill: #1976d2"/>
    </g>
    <g clip-path="url(#p869bf047a8)">
     <use xlink:href="#mcf8666e563" x="28.952785" y="70.794962" style="fill: #ffffff"/>
    </g>
   </g>
   <g id="line2d_27">
    <path d="M 28.952785 70.794962 
" clip-path="url(#p869bf047a8)" style="fill: none"/>
    <g clip-path="url(#p869bf047a8)">
     <use xlink:href="#mf79a066bd0" x="28.952785" y="70.794962" style="fill-opacity: 0; stroke: #1976d2; stroke-linejoin: miter"/>
    </g>
   </g>
   <g id="line2d_28">
    <path d="M 23.032361 43.217024 
" clip-path="url(#p869bf047a8)" style="fill: none"/>
    <g clip-path="url(#p869bf047a8)">
     <use xlink:href="#mfb4c0473eb" x="23.032361" y="43.217024" style="fill: #d32f2f"/>
    </g>
    <g clip-path="url(#p869bf047a8)">
     <use xlink:href="#m889fc4f3ac" x="23.032361" y="43.217024" style="fill: #ffffff"/>
    </g>
   </g>
   <g id="line2d_29">
    <path d="M 23.032361 43.217024 
" clip-path="url(#p869bf047a8)" style="fill: none"/>
    <g clip-path="url(#p869bf047a8)">
     <use xlink:href="#mf46198d107" x="23.032361" y="43.217024" style="fill-opacity: 0; stroke: #d32f2f; stroke-linejoin: miter"/>
    </g>
   </g>
   <g id="line2d_30">
    <path d="M 64.475332 54.407998 
" clip-path="url(#p869bf047a8)" style="fill: none"/>
    <g clip-path="url(#p869bf047a8)">
     <use xlink:href="#mfb4c0473eb" x="64.475332" y="54.407998" style="fill: #d32f2f"/>
    </g>
    <g clip-path="url(#p869bf047a8)">
     <use xlink:href="#m889fc4f3ac" x="64.475332" y="54.407998" style="fill: #ffffff"/>
    </g>
   </g>
   <g id="line2d_31">
    <path d="M 64.475332 54.407998 
" clip-path="url(#p869bf047a8)" style="fill: none"/>
    <g clip-path="url(#p869bf047a8)">
     <use xlink:href="#mf46198d107" x="64.475332" y="54.407998" style="fill-opacity: 0; stroke: #d32f2f; stroke-linejoin: miter"/>
    </g>
   </g>
   <g id="line2d_32">
    <path d="M 70.395756 81.383086 
" clip-path="url(#p869bf047a8)" style="fill: none"/>
    <g clip-path="url(#p869bf047a8)">
     <use xlink:href="#mfb4c0473eb" x="70.395756" y="81.383086" style="fill: #d32f2f"/>
    </g>
    <g clip-path="url(#p869bf047a8)">
     <use xlink:href="#m889fc4f3ac" x="70.395756" y="81.383086" style="fill: #ffffff"/>
    </g>
   </g>
   <g id="line2d_33">
    <path d="M 70.395756 81.383086 
" clip-path="url(#p869bf047a8)" style="fill: none"/>
    <g clip-path="url(#p869bf047a8)">
     <use xlink:href="#mf46198d107" x="70.395756" y="81.383086" style="fill-opacity: 0; stroke: #d32f2f; stroke-linejoin: miter"/>
    </g>
   </g>
   <g id="line2d_34">
    <path d="M 28.952785 76.101962 
" clip-path="url(#p869bf047a8)" style="fill: none"/>
    <g clip-path="url(#p869bf047a8)">
     <use xlink:href="#m82a24c1ada" x="28.952785" y="76.101962" style="fill: #1976d2"/>
    </g>
    <g clip-path="url(#p869bf047a8)">
     <use xlink:href="#mcf8666e563" x="28.952785" y="76.101962" style="fill: #ffffff"/>
    </g>
   </g>
   <g id="line2d_35">
    <path d="M 28.952785 76.101962 
" clip-path="url(#p869bf047a8)" style="fill: none"/>
    <g clip-path="url(#p869bf047a8)">
     <use xlink:href="#mf79a066bd0" x="28.952785" y="76.101962" style="fill-opacity: 0; stroke: #1976d2; stroke-linejoin: miter"/>
    </g>
   </g>
   <g id="line2d_36">
    <path d="M 34.87321 60.423144 
" clip-path="url(#p869bf047a8)" style="fill: none"/>
    <g clip-path="url(#p869bf047a8)">
     <use xlink:href="#m82a24c1ada" x="34.87321" y="60.423144" style="fill: #1976d2"/>
    </g>
    <g clip-path="url(#p869bf047a8)">
     <use xlink:href="#mcf8666e563" x="34.87321" y="60.423144" style="fill: #ffffff"/>
    </g>
   </g>
   <g id="line2d_37">
    <path d="M 34.87321 60.423144 
" clip-path="url(#p869bf047a8)" style="fill: none"/>
    <g clip-path="url(#p869bf047a8)">
     <use xlink:href="#mf79a066bd0" x="34.87321" y="60.423144" style="fill-opacity: 0; stroke: #1976d2; stroke-linejoin: miter"/>
    </g>
   </g>
   <g id="line2d_38">
    <path d="M 40.793634 68.267323 
" clip-path="url(#p869bf047a8)" style="fill: none"/>
    <g clip-path="url(#p869bf047a8)">
     <use xlink:href="#m82a24c1ada" x="40.793634" y="68.267323" style="fill: #1976d2"/>
    </g>
    <g clip-path="url(#p869bf047a8)">
     <use xlink:href="#mcf8666e563" x="40.793634" y="68.267323" style="fill: #ffffff"/>
    </g>
   </g>
   <g id="line2d_39">
    <path d="M 40.793634 68.267323 
" clip-path="url(#p869bf047a8)" style="fill: none"/>
    <g clip-path="url(#p869bf047a8)">
     <use xlink:href="#mf79a066bd0" x="40.793634" y="68.267323" style="fill-opacity: 0; stroke: #1976d2; stroke-linejoin: miter"/>
    </g>
   </g>
   <g id="line2d_40">
    <path d="M 23.032361 41.945321 
" clip-path="url(#p869bf047a8)" style="fill: none"/>
    <g clip-path="url(#p869bf047a8)">
     <use xlink:href="#mfb4c0473eb" x="23.032361" y="41.945321" style="fill: #d32f2f"/>
    </g>
    <g clip-path="url(#p869bf047a8)">
     <use xlink:href="#m889fc4f3ac" x="23.032361" y="41.945321" style="fill: #ffffff"/>
    </g>
   </g>
   <g id="line2d_41">
    <path d="M 23.032361 41.945321 
" clip-path="url(#p869bf047a8)" style="fill: none"/>
    <g clip-path="url(#p869bf047a8)">
     <use xlink:href="#mf46198d107" x="23.032361" y="41.945321" style="fill-opacity: 0; stroke: #d32f2f; stroke-linejoin: miter"/>
    </g>
   </g>
   <g id="line2d_42">
    <path d="M 40.793634 50.273462 
" clip-path="url(#p869bf047a8)" style="fill: none"/>
    <g clip-path="url(#p869bf047a8)">
     <use xlink:href="#mfb4c0473eb" x="40.793634" y="50.273462" style="fill: #d32f2f"/>
    </g>
    <g clip-path="url(#p869bf047a8)">
     <use xlink:href="#m889fc4f3ac" x="40.793634" y="50.273462" style="fill: #ffffff"/>
    </g>
   </g>
   <g id="line2d_43">
    <path d="M 40.793634 50.273462 
" clip-path="url(#p869bf047a8)" style="fill: none"/>
    <g clip-path="url(#p869bf047a8)">
     <use xlink:href="#mf46198d107" x="40.793634" y="50.273462" style="fill-opacity: 0; stroke: #d32f2f; stroke-linejoin: miter"/>
    </g>
   </g>
   <g id="line2d_44">
    <path d="M 82.236605 88.640184 
" clip-path="url(#p869bf047a8)" style="fill: none"/>
    <g clip-path="url(#p869bf047a8)">
     <use xlink:href="#mfb4c0473eb" x="82.236605" y="88.640184" style="fill: #d32f2f"/>
    </g>
    <g clip-path="url(#p869bf047a8)">
     <use xlink:href="#m889fc4f3ac" x="82.236605" y="88.640184" style="fill: #ffffff"/>
    </g>
   </g>
   <g id="line2d_45">
    <path d="M 82.236605 88.640184 
" clip-path="url(#p869bf047a8)" style="fill: none"/>
    <g clip-path="url(#p869bf047a8)">
     <use xlink:href="#mf46198d107" x="82.236605" y="88.640184" style="fill-opacity: 0; stroke: #d32f2f; stroke-linejoin: miter"/>
    </g>
   </g>
   <g id="line2d_46">
    <path d="M 34.87321 61.587394 
" clip-path="url(#p869bf047a8)" style="fill: none"/>
    <g clip-path="url(#p869bf047a8)">
     <use xlink:href="#mfb4c0473eb" x="34.87321" y="61.587394" style="fill: #d32f2f"/>
    </g>
    <g clip-path="url(#p869bf047a8)">
     <use xlink:href="#m889fc4f3ac" x="34.87321" y="61.587394" style="fill: #ffffff"/>
    </g>
   </g>
   <g id="line2d_47">
    <path d="M 34.87321 61.587394 
" clip-path="url(#p869bf047a8)" style="fill: none"/>
    <g clip-path="url(#p869bf047a8)">
     <use xlink:href="#mf46198d107" x="34.87321" y="61.587394" style="fill-opacity: 0; stroke: #d32f2f; stroke-linejoin: miter"/>
    </g>
   </g>
   <g id="line2d_48">
    <path d="M 82.236605 67.230787 
" clip-path="url(#p869bf047a8)" style="fill: none"/>
    <g clip-path="url(#p869bf047a8)">
     <use xlink:href="#mfb4c0473eb" x="82.236605" y="67.230787" style="fill: #d32f2f"/>
    </g>
    <g clip-path="url(#p869bf047a8)">
     <use xlink:href="#m889fc4f3ac" x="82.236605" y="67.230787" style="fill: #ffffff"/>
    </g>
   </g>
   <g id="line2d_49">
    <path d="M 82.236605 67.230787 
" clip-path="url(#p869bf047a8)" style="fill: none"/>
    <g clip-path="url(#p869bf047a8)">
     <use xlink:href="#mf46198d107" x="82.236605" y="67.230787" style="fill-opacity: 0; stroke: #d32f2f; stroke-linejoin: miter"/>
    </g>
   </g>
   <g id="line2d_50">
    <path d="M 88.157029 74.635537 
" clip-path="url(#p869bf047a8)" style="fill: none"/>
    <g clip-path="url(#p869bf047a8)">
     <use xlink:href="#mfb4c0473eb" x="88.157029" y="74.635537" style="fill: #d32f2f"/>
    </g>
    <g clip-path="url(#p869bf047a8)">
     <use xlink:href="#m889fc4f3ac" x="88.157029" y="74.635537" style="fill: #ffffff"/>
    </g>
   </g>
   <g id="line2d_51">
    <path d="M 88.157029 74.635537 
" clip-path="url(#p869bf047a8)" style="fill: none"/>
    <g clip-path="url(#p869bf047a8)">
     <use xlink:href="#mf46198d107" x="88.157029" y="74.635537" style="fill-opacity: 0; stroke: #d32f2f; stroke-linejoin: miter"/>
    </g>
   </g>
   <g id="line2d_52">
    <path d="M 52.634483 55.834267 
" clip-path="url(#p869bf047a8)" style="fill: none"/>
    <g clip-path="url(#p869bf047a8)">
     <use xlink:href="#mfb4c0473eb" x="52.634483" y="55.834267" style="fill: #d32f2f"/>
    </g>
    <g clip-path="url(#p869bf047a8)">
     <use xlink:href="#m889fc4f3ac" x="52.634483" y="55.834267" style="fill: #ffffff"/>
    </g>
   </g>
   <g id="line2d_53">
    <path d="M 52.634483 55.834267 
" clip-path="url(#p869bf047a8)" style="fill: none"/>
    <g clip-path="url(#p869bf047a8)">
     <use xlink:href="#mf46198d107" x="52.634483" y="55.834267" style="fill-opacity: 0; stroke: #d32f2f; stroke-linejoin: miter"/>
    </g>
   </g>
   <g id="line2d_54">
    <path d="M 99.997878 62.982046 
" clip-path="url(#p869bf047a8)" style="fill: none"/>
    <g clip-path="url(#p869bf047a8)">
     <use xlink:href="#mfb4c0473eb" x="99.997878" y="62.982046" style="fill: #d32f2f"/>
    </g>
    <g clip-path="url(#p869bf047a8)">
     <use xlink:href="#m889fc4f3ac" x="99.997878" y="62.982046" style="fill: #ffffff"/>
    </g>
   </g>
   <g id="line2d_55">
    <path d="M 99.997878 62.982046 
" clip-path="url(#p869bf047a8)" style="fill: none"/>
    <g clip-path="url(#p869bf047a8)">
     <use xlink:href="#mf46198d107" x="99.997878" y="62.982046" style="fill-opacity: 0; stroke: #d32f2f; stroke-linejoin: miter"/>
    </g>
   </g>
   <g id="line2d_56">
    <path d="M 111.838727 99.505071 
" clip-path="url(#p869bf047a8)" style="fill: none"/>
    <g clip-path="url(#p869bf047a8)">
     <use xlink:href="#mfb4c0473eb" x="111.838727" y="99.505071" style="fill: #d32f2f"/>
    </g>
    <g clip-path="url(#p869bf047a8)">
     <use xlink:href="#m889fc4f3ac" x="111.838727" y="99.505071" style="fill: #ffffff"/>
    </g>
   </g>
   <g id="line2d_57">
    <path d="M 111.838727 99.505071 
" clip-path="url(#p869bf047a8)" style="fill: none"/>
    <g clip-path="url(#p869bf047a8)">
     <use xlink:href="#mf46198d107" x="111.838727" y="99.505071" style="fill-opacity: 0; stroke: #d32f2f; stroke-linejoin: miter"/>
    </g>
   </g>
   <g id="line2d_58">
    <path d="M 46.714058 42.971505 
" clip-path="url(#p869bf047a8)" style="fill: none"/>
    <g clip-path="url(#p869bf047a8)">
     <use xlink:href="#mfb4c0473eb" x="46.714058" y="42.971505" style="fill: #d32f2f"/>
    </g>
    <g clip-path="url(#p869bf047a8)">
     <use xlink:href="#m889fc4f3ac" x="46.714058" y="42.971505" style="fill: #ffffff"/>
    </g>
   </g>
   <g id="line2d_59">
    <path d="M 46.714058 42.971505 
" clip-path="url(#p869bf047a8)" style="fill: none"/>
    <g clip-path="url(#p869bf047a8)">
     <use xlink:href="#mf46198d107" x="46.714058" y="42.971505" style="fill-opacity: 0; stroke: #d32f2f; stroke-linejoin: miter"/>
    </g>
   </g>
   <g id="line2d_60">
    <path d="M 99.997878 57.688466 
" clip-path="url(#p869bf047a8)" style="fill: none"/>
    <g clip-path="url(#p869bf047a8)">
     <use xlink:href="#mfb4c0473eb" x="99.997878" y="57.688466" style="fill: #d32f2f"/>
    </g>
    <g clip-path="url(#p869bf047a8)">
     <use xlink:href="#m889fc4f3ac" x="99.997878" y="57.688466" style="fill: #ffffff"/>
    </g>
   </g>
   <g id="line2d_61">
    <path d="M 99.997878 57.688466 
" clip-path="url(#p869bf047a8)" style="fill: none"/>
    <g clip-path="url(#p869bf047a8)">
     <use xlink:href="#mf46198d107" x="99.997878" y="57.688466" style="fill-opacity: 0; stroke: #d32f2f; stroke-linejoin: miter"/>
    </g>
   </g>
   <g id="line2d_62">
    <path d="M 123.679576 67.245755 
" clip-path="url(#p869bf047a8)" style="fill: none"/>
    <g clip-path="url(#p869bf047a8)">
     <use xlink:href="#mfb4c0473eb" x="123.679576" y="67.245755" style="fill: #d32f2f"/>
    </g>
    <g clip-path="url(#p869bf047a8)">
     <use xlink:href="#m889fc4f3ac" x="123.679576" y="67.245755" style="fill: #ffffff"/>
    </g>
   </g>
   <g id="line2d_63">
    <path d="M 123.679576 67.245755 
" clip-path="url(#p869bf047a8)" style="fill: none"/>
    <g clip-path="url(#p869bf047a8)">
     <use xlink:href="#mf46198d107" x="123.679576" y="67.245755" style="fill-opacity: 0; stroke: #d32f2f; stroke-linejoin: miter"/>
    </g>
   </g>
   <g id="line2d_64">
    <path d="M 23.032361 62.26264 
" clip-path="url(#p869bf047a8)" style="fill: none"/>
    <g clip-path="url(#p869bf047a8)">
     <use xlink:href="#m82a24c1ada" x="23.032361" y="62.26264" style="fill: #1976d2"/>
    </g>
    <g clip-path="url(#p869bf047a8)">
     <use xlink:href="#mcf8666e563" x="23.032361" y="62.26264" style="fill: #ffffff"/>
    </g>
   </g>
   <g id="line2d_65">
    <path d="M 23.032361 62.26264 
" clip-path="url(#p869bf047a8)" style="fill: none"/>
    <g clip-path="url(#p869bf047a8)">
     <use xlink:href="#mf79a066bd0" x="23.032361" y="62.26264" style="fill-opacity: 0; stroke: #1976d2; stroke-linejoin: miter"/>
    </g>
   </g>
   <g id="line2d_66">
    <path d="M 28.952785 77.415079 
" clip-path="url(#p869bf047a8)" style="fill: none"/>
    <g clip-path="url(#p869bf047a8)">
     <use xlink:href="#m82a24c1ada" x="28.952785" y="77.415079" style="fill: #1976d2"/>
    </g>
    <g clip-path="url(#p869bf047a8)">
     <use xlink:href="#mcf8666e563" x="28.952785" y="77.415079" style="fill: #ffffff"/>
    </g>
   </g>
   <g id="line2d_67">
    <path d="M 28.952785 77.415079 
" clip-path="url(#p869bf047a8)" style="fill: none"/>
    <g clip-path="url(#p869bf047a8)">
     <use xlink:href="#mf79a066bd0" x="28.952785" y="77.415079" style="fill-opacity: 0; stroke: #1976d2; stroke-linejoin: miter"/>
    </g>
   </g>
   <g id="line2d_68">
    <path d="M 34.87321 64.196385 
" clip-path="url(#p869bf047a8)" style="fill: none"/>
    <g clip-path="url(#p869bf047a8)">
     <use xlink:href="#m82a24c1ada" x="34.87321" y="64.196385" style="fill: #1976d2"/>
    </g>
    <g clip-path="url(#p869bf047a8)">
     <use xlink:href="#mcf8666e563" x="34.87321" y="64.196385" style="fill: #ffffff"/>
    </g>
   </g>
   <g id="line2d_69">
    <path d="M 34.87321 64.196385 
" clip-path="url(#p869bf047a8)" style="fill: none"/>
    <g clip-path="url(#p869bf047a8)">
     <use xlink:href="#mf79a066bd0" x="34.87321" y="64.196385" style="fill-opacity: 0; stroke: #1976d2; stroke-linejoin: miter"/>
    </g>
   </g>
   <g id="line2d_70">
    <path d="M 23.032361 91.370216 
" clip-path="url(#p869bf047a8)" style="fill: none"/>
    <g clip-path="url(#p869bf047a8)">
     <use xlink:href="#m82a24c1ada" x="23.032361" y="91.370216" style="fill: #1976d2"/>
    </g>
    <g clip-path="url(#p869bf047a8)">
     <use xlink:href="#mcf8666e563" x="23.032361" y="91.370216" style="fill: #ffffff"/>
    </g>
   </g>
   <g id="line2d_71">
    <path d="M 23.032361 91.370216 
" clip-path="url(#p869bf047a8)" style="fill: none"/>
    <g clip-path="url(#p869bf047a8)">
     <use xlink:href="#mf79a066bd0" x="23.032361" y="91.370216" style="fill-opacity: 0; stroke: #1976d2; stroke-linejoin: miter"/>
    </g>
   </g>
   <g id="line2d_72">
    <path d="M 34.87321 83.065584 
" clip-path="url(#p869bf047a8)" style="fill: none"/>
    <g clip-path="url(#p869bf047a8)">
     <use xlink:href="#m82a24c1ada" x="34.87321" y="83.065584" style="fill: #1976d2"/>
    </g>
    <g clip-path="url(#p869bf047a8)">
     <use xlink:href="#mcf8666e563" x="34.87321" y="83.065584" style="fill: #ffffff"/>
    </g>
   </g>
   <g id="line2d_73">
    <path d="M 34.87321 83.065584 
" clip-path="url(#p869bf047a8)" style="fill: none"/>
    <g clip-path="url(#p869bf047a8)">
     <use xlink:href="#mf79a066bd0" x="34.87321" y="83.065584" style="fill-opacity: 0; stroke: #1976d2; stroke-linejoin: miter"/>
    </g>
   </g>
   <g id="line2d_74">
    <path d="M 64.475332 85.240773 
" clip-path="url(#p869bf047a8)" style="fill: none"/>
    <g clip-path="url(#p869bf047a8)">
     <use xlink:href="#m82a24c1ada" x="64.475332" y="85.240773" style="fill: #1976d2"/>
    </g>
    <g clip-path="url(#p869bf047a8)">
     <use xlink:href="#mcf8666e563" x="64.475332" y="85.240773" style="fill: #ffffff"/>
    </g>
   </g>
   <g id="line2d_75">
    <path d="M 64.475332 85.240773 
" clip-path="url(#p869bf047a8)" style="fill: none"/>
    <g clip-path="url(#p869bf047a8)">
     <use xlink:href="#mf79a066bd0" x="64.475332" y="85.240773" style="fill-opacity: 0; stroke: #1976d2; stroke-linejoin: miter"/>
    </g>
   </g>
   <g id="line2d_76">
    <path clip-path="url(#p869bf047a8)" style="fill: none"/>
    <g clip-path="url(#p869bf047a8)"/>
    <g clip-path="url(#p869bf047a8)"/>
   </g>
   <g id="line2d_77">
    <path clip-path="url(#p869bf047a8)" style="fill: none"/>
    <g clip-path="url(#p869bf047a8)"/>
   </g>
   <g id="line2d_78">
    <path d="M 40.793634 94.327607 
" clip-path="url(#p869bf047a8)" style="fill: none"/>
    <g clip-path="url(#p869bf047a8)">
     <use xlink:href="#m82a24c1ada" x="40.793634" y="94.327607" style="fill: #1976d2"/>
    </g>
    <g clip-path="url(#p869bf047a8)">
     <use xlink:href="#mcf8666e563" x="40.793634" y="94.327607" style="fill: #ffffff"/>
    </g>
   </g>
   <g id="line2d_79">
    <path d="M 40.793634 94.327607 
" clip-path="url(#p869bf047a8)" style="fill: none"/>
    <g clip-path="url(#p869bf047a8)">
     <use xlink:href="#mf79a066bd0" x="40.793634" y="94.327607" style="fill-opacity: 0; stroke: #1976d2; stroke-linejoin: miter"/>
    </g>
   </g>
   <g id="line2d_80">
    <path d="M 58.554907 76.196915 
" clip-path="url(#p869bf047a8)" style="fill: none"/>
    <g clip-path="url(#p869bf047a8)">
     <use xlink:href="#m82a24c1ada" x="58.554907" y="76.196915" style="fill: #1976d2"/>
    </g>
    <g clip-path="url(#p869bf047a8)">
     <use xlink:href="#mcf8666e563" x="58.554907" y="76.196915" style="fill: #ffffff"/>
    </g>
   </g>
   <g id="line2d_81">
    <path d="M 58.554907 76.196915 
" clip-path="url(#p869bf047a8)" style="fill: none"/>
    <g clip-path="url(#p869bf047a8)">
     <use xlink:href="#mf79a066bd0" x="58.554907" y="76.196915" style="fill-opacity: 0; stroke: #1976d2; stroke-linejoin: miter"/>
    </g>
   </g>
   <g id="line2d_82">
    <path clip-path="url(#p869bf047a8)" style="fill: none"/>
    <g clip-path="url(#p869bf047a8)"/>
    <g clip-path="url(#p869bf047a8)"/>
   </g>
   <g id="line2d_83">
    <path clip-path="url(#p869bf047a8)" style="fill: none"/>
    <g clip-path="url(#p869bf047a8)"/>
   </g>
   <g id="line2d_84">
    <path d="M 28.952785 80.849005 
" clip-path="url(#p869bf047a8)" style="fill: none"/>
    <g clip-path="url(#p869bf047a8)">
     <use xlink:href="#m82a24c1ada" x="28.952785" y="80.849005" style="fill: #1976d2"/>
    </g>
    <g clip-path="url(#p869bf047a8)">
     <use xlink:href="#mcf8666e563" x="28.952785" y="80.849005" style="fill: #ffffff"/>
    </g>
   </g>
   <g id="line2d_85">
    <path d="M 28.952785 80.849005 
" clip-path="url(#p869bf047a8)" style="fill: none"/>
    <g clip-path="url(#p869bf047a8)">
     <use xlink:href="#mf79a066bd0" x="28.952785" y="80.849005" style="fill-opacity: 0; stroke: #1976d2; stroke-linejoin: miter"/>
    </g>
   </g>
   <g id="line2d_86">
    <path d="M 40.793634 82.94543 
" clip-path="url(#p869bf047a8)" style="fill: none"/>
    <g clip-path="url(#p869bf047a8)">
     <use xlink:href="#m82a24c1ada" x="40.793634" y="82.94543" style="fill: #1976d2"/>
    </g>
    <g clip-path="url(#p869bf047a8)">
     <use xlink:href="#mcf8666e563" x="40.793634" y="82.94543" style="fill: #ffffff"/>
    </g>
   </g>
   <g id="line2d_87">
    <path d="M 40.793634 82.94543 
" clip-path="url(#p869bf047a8)" style="fill: none"/>
    <g clip-path="url(#p869bf047a8)">
     <use xlink:href="#mf79a066bd0" x="40.793634" y="82.94543" style="fill-opacity: 0; stroke: #1976d2; stroke-linejoin: miter"/>
    </g>
   </g>
   <g id="patch_3">
    <path d="M 18 128.16 
L 18 17.28 
" style="fill: none; stroke: #000000; stroke-width: 0.8; stroke-linejoin: miter; stroke-linecap: square"/>
   </g>
   <g id="patch_4">
    <path d="M 18 72.72 
L 129.6 72.72 
" style="fill: none; stroke: #000000; stroke-width: 0.8; stroke-linejoin: miter; stroke-linecap: square"/>
   </g>
   <g id="text_4">
    <!-- HLA-F -0.54 -->
    <g transform="translate(38.79375 11.28) scale(0.12 -0.12)">
     <defs>
      <path id="DejaVuSans-48" d="M 628 4666 
L 1259 4666 
L 1259 2753 
L 3553 2753 
L 3553 4666 
L 4184 4666 
L 4184 0 
L 3553 0 
L 3553 2222 
L 1259 2222 
L 1259 0 
L 628 0 
L 628 4666 
z
" transform="scale(0.015625)"/>
      <path id="DejaVuSans-4c" d="M 628 4666 
L 1259 4666 
L 1259 531 
L 3531 531 
L 3531 0 
L 628 0 
L 628 4666 
z
" transform="scale(0.015625)"/>
      <path id="DejaVuSans-41" d="M 2188 4044 
L 1331 1722 
L 3047 1722 
L 2188 4044 
z
M 1831 4666 
L 2547 4666 
L 4325 0 
L 3669 0 
L 3244 1197 
L 1141 1197 
L 716 0 
L 50 0 
L 1831 4666 
z
" transform="scale(0.015625)"/>
      <path id="DejaVuSans-2d" d="M 313 2009 
L 1997 2009 
L 1997 1497 
L 313 1497 
L 313 2009 
z
" transform="scale(0.015625)"/>
      <path id="DejaVuSans-46" d="M 628 4666 
L 3309 4666 
L 3309 4134 
L 1259 4134 
L 1259 2759 
L 3109 2759 
L 3109 2228 
L 1259 2228 
L 1259 0 
L 628 0 
L 628 4666 
z
" transform="scale(0.015625)"/>
      <path id="DejaVuSans-20" transform="scale(0.015625)"/>
      <path id="DejaVuSans-2e" d="M 684 794 
L 1344 794 
L 1344 0 
L 684 0 
L 684 794 
z
" transform="scale(0.015625)"/>
      <path id="DejaVuSans-35" d="M 691 4666 
L 3169 4666 
L 3169 4134 
L 1269 4134 
L 1269 2991 
Q 1406 3038 1543 3061 
Q 1681 3084 1819 3084 
Q 2600 3084 3056 2656 
Q 3513 2228 3513 1497 
Q 3513 744 3044 326 
Q 2575 -91 1722 -91 
Q 1428 -91 1123 -41 
Q 819 9 494 109 
L 494 744 
Q 775 591 1075 516 
Q 1375 441 1709 441 
Q 2250 441 2565 725 
Q 2881 1009 2881 1497 
Q 2881 1984 2565 2268 
Q 2250 2553 1709 2553 
Q 1456 2553 1204 2497 
Q 953 2441 691 2322 
L 691 4666 
z
" transform="scale(0.015625)"/>
      <path id="DejaVuSans-34" d="M 2419 4116 
L 825 1625 
L 2419 1625 
L 2419 4116 
z
M 2253 4666 
L 3047 4666 
L 3047 1625 
L 3713 1625 
L 3713 1100 
L 3047 1100 
L 3047 0 
L 2419 0 
L 2419 1100 
L 313 1100 
L 313 1709 
L 2253 4666 
z
" transform="scale(0.015625)"/>
     </defs>
     <use xlink:href="#DejaVuSans-48"/>
     <use xlink:href="#DejaVuSans-4c" transform="translate(75.195312 0)"/>
     <use xlink:href="#DejaVuSans-41" transform="translate(133.158203 0)"/>
     <use xlink:href="#DejaVuSans-2d" transform="translate(199.316406 0)"/>
     <use xlink:href="#DejaVuSans-46" transform="translate(235.400391 0)"/>
     <use xlink:href="#DejaVuSans-20" transform="translate(292.919922 0)"/>
     <use xlink:href="#DejaVuSans-2d" transform="translate(324.707031 0)"/>
     <use xlink:href="#DejaVuSans-30" transform="translate(360.791016 0)"/>
     <use xlink:href="#DejaVuSans-2e" transform="translate(424.414062 0)"/>
     <use xlink:href="#DejaVuSans-35" transform="translate(456.201172 0)"/>
     <use xlink:href="#DejaVuSans-34" transform="translate(519.824219 0)"/>
    </g>
   </g>
  </g>
 </g>
 <defs>
  <clipPath id="p869bf047a8">
   <rect x="18" y="17.28" width="111.6" height="110.88"/>
  </clipPath>
 </defs>
</svg>
