<?xml version="1.0" encoding="utf-8" standalone="no"?>
<!DOCTYPE svg PUBLIC "-//W3C//DTD SVG 1.1//EN"
  "http://www.w3.org/Graphics/SVG/1.1/DTD/svg11.dtd">
<svg xmlns:xlink="http://www.w3.org/1999/xlink" width="144pt" height="144pt" viewBox="0 0 144 144" xmlns="http://www.w3.org/2000/svg" version="1.1">
 <metadata>
  <rdf:RDF xmlns:dc="http://purl.org/dc/elements/1.1/" xmlns:cc="http://creativecommons.org/ns#" xmlns:rdf="http://www.w3.org/1999/02/22-rdf-syntax-ns#">
   <cc:Work>
    <dc:type rdf:resource="http://purl.org/dc/dcmitype/StillImage"/>
    <dc:date>2026-02-17T13:08:29.399325</dc:date>
    <dc:format>image/svg+xml</dc:format>
    <dc:creator>
     <cc:Agent>
      <dc:title>Matplotlib v3.10.6, https://matplotlib.org/</dc:title>
     </cc:Agent>
    </dc:creator>
   </cc:Work>
  </rdf:RDF>
 </metadata>
 <defs>
  <style type="text/css">*{stroke-linejoin: round; stroke-linecap: butt}</style>
 </defs>
 <g id="figure_1">
  <g id="patch_1">
   <path d="M 0 144 
L 144 144 
L 144 0 
L 0 0 
z
" style="fill: #ffffff"/>
  </g>
  <g id="axes_1">
   <g id="patch_2">
    <path d="M 18 128.16 
L 129.6 128.16 
L 129.6 17.28 
L 18 17.28 
z
" style="fill: #ffffff"/>
   </g>
   <g id="matplotlib.axis_1">
    <g id="xtick_1">
     <g id="line2d_1">
      <defs>
       <path id="mde81c273aa" d="M 0 0 
L 0 3.5 
" style="stroke: #000000; stroke-width: 0.8"/>
      </defs>
      <g>
       <use xlink:href="#mde81c273aa" x="76.31618" y="72.72" style="stroke: #000000; stroke-width: 0.8"/>
      </g>
     </g>
    </g>
    <g id="xtick_2">
     <g id="line2d_2">
      <g>
       <use xlink:href="#mde81c273aa" x="129.6" y="72.72" style="stroke: #000000; stroke-width: 0.8"/>
      </g>
     </g>
    </g>
   </g>
   <g id="matplotlib.axis_2">
    <g id="ytick_1">
     <g id="line2d_3">
      <defs>
       <path id="m7f00db7102" d="M 0 0 
L -3.5 0 
" style="stroke: #000000; stroke-width: 0.8"/>
      </defs>
      <g>
       <use xlink:href="#m7f00db7102" x="18" y="104.4" style="stroke: #000000; stroke-width: 0.8"/>
      </g>
     </g>
     <g id="text_1">
      <!-- −2 -->
      <g transform="translate(-3.742188 108.199219) scale(0.1 -0.1)">
       <defs>
        <path id="DejaVuSans-2212" d="M 678 2272 
L 4684 2272 
L 4684 1741 
L 678 1741 
L 678 2272 
z
" transform="scale(0.015625)"/>
        <path id="DejaVuSans-32" d="M 1228 531 
L 3431 531 
L 3431 0 
L 469 0 
L 469 531 
Q 828 903 1448 1529 
Q 2069 2156 2228 2338 
Q 2531 2678 2651 2914 
Q 2772 3150 2772 3378 
Q 2772 3750 2511 3984 
Q 2250 4219 1831 4219 
Q 1534 4219 1204 4116 
Q 875 4013 500 3803 
L 500 4441 
Q 881 4594 1212 4672 
Q 1544 4750 1819 4750 
Q 2544 4750 2975 4387 
Q 3406 4025 3406 3419 
Q 3406 3131 3298 2873 
Q 3191 2616 2906 2266 
Q 2828 2175 2409 1742 
Q 1991 1309 1228 531 
z
" transform="scale(0.015625)"/>
       </defs>
       <use xlink:href="#DejaVuSans-2212"/>
       <use xlink:href="#DejaVuSans-32" transform="translate(83.789062 0)"/>
      </g>
     </g>
    </g>
    <g id="ytick_2">
     <g id="line2d_4">
      <g>
       <use xlink:href="#m7f00db7102" x="18" y="72.72" style="stroke: #000000; stroke-width: 0.8"/>
      </g>
     </g>
     <g id="text_2">
      <!-- 0 -->
      <g transform="translate(4.6375 76.519219) scale(0.1 -0.1)">
       <defs>
        <path id="DejaVuSans-30" d="M 2034 4250 
Q 1547 4250 1301 3770 
Q 1056 3291 1056 2328 
Q 1056 1369 1301 889 
Q 1547 409 2034 409 
Q 2525 409 2770 889 
Q 3016 1369 3016 2328 
Q 3016 3291 2770 3770 
Q 2525 4250 2034 4250 
z
M 2034 4750 
Q 2819 4750 3233 4129 
Q 3647 3509 3647 2328 
Q 3647 1150 3233 529 
Q 2819 -91 2034 -91 
Q 1250 -91 836 529 
Q 422 1150 422 2328 
Q 422 3509 836 4129 
Q 1250 4750 2034 4750 
z
" transform="scale(0.015625)"/>
       </defs>
       <use xlink:href="#DejaVuSans-30"/>
      </g>
     </g>
    </g>
    <g id="ytick_3">
     <g id="line2d_5">
      <g>
       <use xlink:href="#m7f00db7102" x="18" y="41.04" style="stroke: #000000; stroke-width: 0.8"/>
      </g>
     </g>
     <g id="text_3">
      <!-- 2 -->
      <g transform="translate(4.6375 44.839219) scale(0.1 -0.1)">
       <use xlink:href="#DejaVuSans-32"/>
      </g>
     </g>
    </g>
   </g>
   <g id="line2d_6">
    <path d="M 40.793634 77.269424 
" clip-path="url(#pe43c0537b0)" style="fill: none"/>
    <defs>
     <path id="me6e1b4c576" d="M 0 -4.242641 
L -4.242641 -0 
L -0 4.242641 
L 0 -4.242641 
"/>
    </defs>
    <g clip-path="url(#pe43c0537b0)">
     <use xlink:href="#me6e1b4c576" x="40.793634" y="77.269424" style="fill: #d32f2f"/>
    </g>
    <defs>
     <path id="mfcbd195a3a" d="M 0 -4.242641 
L 4.242641 0 
L -0 4.242641 
L 0 -4.242641 
"/>
    </defs>
    <g clip-path="url(#pe43c0537b0)">
     <use xlink:href="#mfcbd195a3a" x="40.793634" y="77.269424" style="fill: #ffffff"/>
    </g>
   </g>
   <g id="line2d_7">
    <path d="M 40.793634 77.269424 
" clip-path="url(#pe43c0537b0)" style="fill: none"/>
    <defs>
     <path id="mc6e8d31915" d="M -0 4.242641 
L 4.242641 0 
L 0 -4.242641 
L -4.242641 -0 
z
" style="stroke: #d32f2f; stroke-linejoin: miter"/>
    </defs>
    <g clip-path="url(#pe43c0537b0)">
     <use xlink:href="#mc6e8d31915" x="40.793634" y="77.269424" style="fill-opacity: 0; stroke: #d32f2f; stroke-linejoin: miter"/>
    </g>
   </g>
   <g id="line2d_8">
    <path d="M 58.554907 74.312066 
" clip-path="url(#pe43c0537b0)" style="fill: none"/>
    <g clip-path="url(#pe43c0537b0)">
     <use xlink:href="#me6e1b4c576" x="58.554907" y="74.312066" style="fill: #d32f2f"/>
    </g>
    <g clip-path="url(#pe43c0537b0)">
     <use xlink:href="#mfcbd195a3a" x="58.554907" y="74.312066" style="fill: #ffffff"/>
    </g>
   </g>
   <g id="line2d_9">
    <path d="M 58.554907 74.312066 
" clip-path="url(#pe43c0537b0)" style="fill: none"/>
    <g clip-path="url(#pe43c0537b0)">
     <use xlink:href="#mc6e8d31915" x="58.554907" y="74.312066" style="fill-opacity: 0; stroke: #d32f2f; stroke-linejoin: miter"/>
    </g>
   </g>
   <g id="line2d_10">
    <path d="M 64.475332 85.692103 
" clip-path="url(#pe43c0537b0)" style="fill: none"/>
    <g clip-path="url(#pe43c0537b0)">
     <use xlink:href="#me6e1b4c576" x="64.475332" y="85.692103" style="fill: #d32f2f"/>
    </g>
    <g clip-path="url(#pe43c0537b0)">
     <use xlink:href="#mfcbd195a3a" x="64.475332" y="85.692103" style="fill: #ffffff"/>
    </g>
   </g>
   <g id="line2d_11">
    <path d="M 64.475332 85.692103 
" clip-path="url(#pe43c0537b0)" style="fill: none"/>
    <g clip-path="url(#pe43c0537b0)">
     <use xlink:href="#mc6e8d31915" x="64.475332" y="85.692103" style="fill-opacity: 0; stroke: #d32f2f; stroke-linejoin: miter"/>
    </g>
   </g>
   <g id="line2d_12">
    <path d="M 23.032361 85.106131 
" clip-path="url(#pe43c0537b0)" style="fill: none"/>
    <defs>
     <path id="medb919b529" d="M -0 4.242641 
L 4.242641 0 
L 0 -4.242641 
L -0 4.242641 
"/>
    </defs>
    <g clip-path="url(#pe43c0537b0)">
     <use xlink:href="#medb919b529" x="23.032361" y="85.106131" style="fill: #1976d2"/>
    </g>
    <defs>
     <path id="mde8c351917" d="M -0 4.242641 
L -4.242641 -0 
L 0 -4.242641 
L -0 4.242641 
"/>
    </defs>
    <g clip-path="url(#pe43c0537b0)">
     <use xlink:href="#mde8c351917" x="23.032361" y="85.106131" style="fill: #ffffff"/>
    </g>
   </g>
   <g id="line2d_13">
    <path d="M 23.032361 85.106131 
" clip-path="url(#pe43c0537b0)" style="fill: none"/>
    <defs>
     <path id="md33264f445" d="M -0 4.242641 
L 4.242641 0 
L 0 -4.242641 
L -4.242641 -0 
z
" style="stroke: #1976d2; stroke-linejoin: miter"/>
    </defs>
    <g clip-path="url(#pe43c0537b0)">
     <use xlink:href="#md33264f445" x="23.032361" y="85.106131" style="fill-opacity: 0; stroke: #1976d2; stroke-linejoin: miter"/>
    </g>
   </g>
   <g id="line2d_14">
    <path d="M 23.032361 85.734652 
" clip-path="url(#pe43c0537b0)" style="fill: none"/>
    <g clip-path="url(#pe43c0537b0)">
     <use xlink:href="#medb919b529" x="23.032361" y="85.734652" style="fill: #1976d2"/>
    </g>
    <g clip-path="url(#pe43c0537b0)">
     <use xlink:href="#mde8c351917" x="23.032361" y="85.734652" style="fill: #ffffff"/>
    </g>
   </g>
   <g id="line2d_15">
    <path d="M 23.032361 85.734652 
" clip-path="url(#pe43c0537b0)" style="fill: none"/>
    <g clip-path="url(#pe43c0537b0)">
     <use xlink:href="#md33264f445" x="23.032361" y="85.734652" style="fill-opacity: 0; stroke: #1976d2; stroke-linejoin: miter"/>
    </g>
   </g>
   <g id="line2d_16">
    <path d="M 23.032361 89.292235 
" clip-path="url(#pe43c0537b0)" style="fill: none"/>
    <g clip-path="url(#pe43c0537b0)">
     <use xlink:href="#medb919b529" x="23.032361" y="89.292235" style="fill: #1976d2"/>
    </g>
    <g clip-path="url(#pe43c0537b0)">
     <use xlink:href="#mde8c351917" x="23.032361" y="89.292235" style="fill: #ffffff"/>
    </g>
   </g>
   <g id="line2d_17">
    <path d="M 23.032361 89.292235 
" clip-path="url(#pe43c0537b0)" style="fill: none"/>
    <g clip-path="url(#pe43c0537b0)">
     <use xlink:href="#md33264f445" x="23.032361" y="89.292235" style="fill-opacity: 0; stroke: #1976d2; stroke-linejoin: miter"/>
    </g>
   </g>
   <g id="line2d_18">
    <path d="M 28.952785 42.566973 
" clip-path="url(#pe43c0537b0)" style="fill: none"/>
    <g clip-path="url(#pe43c0537b0)">
     <use xlink:href="#me6e1b4c576" x="28.952785" y="42.566973" style="fill: #d32f2f"/>
    </g>
    <g clip-path="url(#pe43c0537b0)">
     <use xlink:href="#mfcbd195a3a" x="28.952785" y="42.566973" style="fill: #ffffff"/>
    </g>
   </g>
   <g id="line2d_19">
    <path d="M 28.952785 42.566973 
" clip-path="url(#pe43c0537b0)" style="fill: none"/>
    <g clip-path="url(#pe43c0537b0)">
     <use xlink:href="#mc6e8d31915" x="28.952785" y="42.566973" style="fill-opacity: 0; stroke: #d32f2f; stroke-linejoin: miter"/>
    </g>
   </g>
   <g id="line2d_20">
    <path d="M 52.634483 71.633143 
" clip-path="url(#pe43c0537b0)" style="fill: none"/>
    <g clip-path="url(#pe43c0537b0)">
     <use xlink:href="#me6e1b4c576" x="52.634483" y="71.633143" style="fill: #d32f2f"/>
    </g>
    <g clip-path="url(#pe43c0537b0)">
     <use xlink:href="#mfcbd195a3a" x="52.634483" y="71.633143" style="fill: #ffffff"/>
    </g>
   </g>
   <g id="line2d_21">
    <path d="M 52.634483 71.633143 
" clip-path="url(#pe43c0537b0)" style="fill: none"/>
    <g clip-path="url(#pe43c0537b0)">
     <use xlink:href="#mc6e8d31915" x="52.634483" y="71.633143" style="fill-opacity: 0; stroke: #d32f2f; stroke-linejoin: miter"/>
    </g>
   </g>
   <g id="line2d_22">
    <path d="M 82.236605 64.458933 
" clip-path="url(#pe43c0537b0)" style="fill: none"/>
    <g clip-path="url(#pe43c0537b0)">
     <use xlink:href="#me6e1b4c576" x="82.236605" y="64.458933" style="fill: #d32f2f"/>
    </g>
    <g clip-path="url(#pe43c0537b0)">
     <use xlink:href="#mfcbd195a3a" x="82.236605" y="64.458933" style="fill: #ffffff"/>
    </g>
   </g>
   <g id="line2d_23">
    <path d="M 82.236605 64.458933 
" clip-path="url(#pe43c0537b0)" style="fill: none"/>
    <g clip-path="url(#pe43c0537b0)">
     <use xlink:href="#mc6e8d31915" x="82.236605" y="64.458933" style="fill-opacity: 0; stroke: #d32f2f; stroke-linejoin: miter"/>
    </g>
   </g>
   <g id="line2d_24">
    <path d="M 23.032361 59.219931 
" clip-path="url(#pe43c0537b0)" style="fill: none"/>
    <g clip-path="url(#pe43c0537b0)">
     <use xlink:href="#medb919b529" x="23.032361" y="59.219931" style="fill: #1976d2"/>
    </g>
    <g clip-path="url(#pe43c0537b0)">
     <use xlink:href="#mde8c351917" x="23.032361" y="59.219931" style="fill: #ffffff"/>
    </g>
   </g>
   <g id="line2d_25">
    <path d="M 23.032361 59.219931 
" clip-path="url(#pe43c0537b0)" style="fill: none"/>
    <g clip-path="url(#pe43c0537b0)">
     <use xlink:href="#md33264f445" x="23.032361" y="59.219931" style="fill-opacity: 0; stroke: #1976d2; stroke-linejoin: miter"/>
    </g>
   </g>
   <g id="line2d_26">
    <path d="M 28.952785 89.04797 
" clip-path="url(#pe43c0537b0)" style="fill: none"/>
    <g clip-path="url(#pe43c0537b0)">
     <use xlink:href="#medb919b529" x="28.952785" y="89.04797" style="fill: #1976d2"/>
    </g>
    <g clip-path="url(#pe43c0537b0)">
     <use xlink:href="#mde8c351917" x="28.952785" y="89.04797" style="fill: #ffffff"/>
    </g>
   </g>
   <g id="line2d_27">
    <path d="M 28.952785 89.04797 
" clip-path="url(#pe43c0537b0)" style="fill: none"/>
    <g clip-path="url(#pe43c0537b0)">
     <use xlink:href="#md33264f445" x="28.952785" y="89.04797" style="fill-opacity: 0; stroke: #1976d2; stroke-linejoin: miter"/>
    </g>
   </g>
   <g id="line2d_28">
    <path d="M 23.032361 47.332551 
" clip-path="url(#pe43c0537b0)" style="fill: none"/>
    <g clip-path="url(#pe43c0537b0)">
     <use xlink:href="#me6e1b4c576" x="23.032361" y="47.332551" style="fill: #d32f2f"/>
    </g>
    <g clip-path="url(#pe43c0537b0)">
     <use xlink:href="#mfcbd195a3a" x="23.032361" y="47.332551" style="fill: #ffffff"/>
    </g>
   </g>
   <g id="line2d_29">
    <path d="M 23.032361 47.332551 
" clip-path="url(#pe43c0537b0)" style="fill: none"/>
    <g clip-path="url(#pe43c0537b0)">
     <use xlink:href="#mc6e8d31915" x="23.032361" y="47.332551" style="fill-opacity: 0; stroke: #d32f2f; stroke-linejoin: miter"/>
    </g>
   </g>
   <g id="line2d_30">
    <path d="M 64.475332 92.043723 
" clip-path="url(#pe43c0537b0)" style="fill: none"/>
    <g clip-path="url(#pe43c0537b0)">
     <use xlink:href="#me6e1b4c576" x="64.475332" y="92.043723" style="fill: #d32f2f"/>
    </g>
    <g clip-path="url(#pe43c0537b0)">
     <use xlink:href="#mfcbd195a3a" x="64.475332" y="92.043723" style="fill: #ffffff"/>
    </g>
   </g>
   <g id="line2d_31">
    <path d="M 64.475332 92.043723 
" clip-path="url(#pe43c0537b0)" style="fill: none"/>
    <g clip-path="url(#pe43c0537b0)">
     <use xlink:href="#mc6e8d31915" x="64.475332" y="92.043723" style="fill-opacity: 0; stroke: #d32f2f; stroke-linejoin: miter"/>
    </g>
   </g>
   <g id="line2d_32">
    <path d="M 70.395756 69.619374 
" clip-path="url(#pe43c0537b0)" style="fill: none"/>
    <g clip-path="url(#pe43c0537b0)">
     <use xlink:href="#me6e1b4c576" x="70.395756" y="69.619374" style="fill: #d32f2f"/>
    </g>
    <g clip-path="url(#pe43c0537b0)">
     <use xlink:href="#mfcbd195a3a" x="70.395756" y="69.619374" style="fill: #ffffff"/>
    </g>
   </g>
   <g id="line2d_33">
    <path d="M 70.395756 69.619374 
" clip-path="url(#pe43c0537b0)" style="fill: none"/>
    <g clip-path="url(#pe43c0537b0)">
     <use xlink:href="#mc6e8d31915" x="70.395756" y="69.619374" style="fill-opacity: 0; stroke: #d32f2f; stroke-linejoin: miter"/>
    </g>
   </g>
   <g id="line2d_34">
    <path d="M 28.952785 84.181631 
" clip-path="url(#pe43c0537b0)" style="fill: none"/>
    <g clip-path="url(#pe43c0537b0)">
     <use xlink:href="#medb919b529" x="28.952785" y="84.181631" style="fill: #1976d2"/>
    </g>
    <g clip-path="url(#pe43c0537b0)">
     <use xlink:href="#mde8c351917" x="28.952785" y="84.181631" style="fill: #ffffff"/>
    </g>
   </g>
   <g id="line2d_35">
    <path d="M 28.952785 84.181631 
" clip-path="url(#pe43c0537b0)" style="fill: none"/>
    <g clip-path="url(#pe43c0537b0)">
     <use xlink:href="#md33264f445" x="28.952785" y="84.181631" style="fill-opacity: 0; stroke: #1976d2; stroke-linejoin: miter"/>
    </g>
   </g>
   <g id="line2d_36">
    <path d="M 34.87321 70.748412 
" clip-path="url(#pe43c0537b0)" style="fill: none"/>
    <g clip-path="url(#pe43c0537b0)">
     <use xlink:href="#medb919b529" x="34.87321" y="70.748412" style="fill: #1976d2"/>
    </g>
    <g clip-path="url(#pe43c0537b0)">
     <use xlink:href="#mde8c351917" x="34.87321" y="70.748412" style="fill: #ffffff"/>
    </g>
   </g>
   <g id="line2d_37">
    <path d="M 34.87321 70.748412 
" clip-path="url(#pe43c0537b0)" style="fill: none"/>
    <g clip-path="url(#pe43c0537b0)">
     <use xlink:href="#md33264f445" x="34.87321" y="70.748412" style="fill-opacity: 0; stroke: #1976d2; stroke-linejoin: miter"/>
    </g>
   </g>
   <g id="line2d_38">
    <path d="M 40.793634 92.043723 
" clip-path="url(#pe43c0537b0)" style="fill: none"/>
    <g clip-path="url(#pe43c0537b0)">
     <use xlink:href="#medb919b529" x="40.793634" y="92.043723" style="fill: #1976d2"/>
    </g>
    <g clip-path="url(#pe43c0537b0)">
     <use xlink:href="#mde8c351917" x="40.793634" y="92.043723" style="fill: #ffffff"/>
    </g>
   </g>
   <g id="line2d_39">
    <path d="M 40.793634 92.043723 
" clip-path="url(#pe43c0537b0)" style="fill: none"/>
    <g clip-path="url(#pe43c0537b0)">
     <use xlink:href="#md33264f445" x="40.793634" y="92.043723" style="fill-opacity: 0; stroke: #1976d2; stroke-linejoin: miter"/>
    </g>
   </g>
   <g id="line2d_40">
    <path d="M 23.032361 25.846155 
" clip-path="url(#pe43c0537b0)" style="fill: none"/>
    <g clip-path="url(#pe43c0537b0)">
     <use xlink:href="#me6e1b4c576" x="23.032361" y="25.846155" style="fill: #d32f2f"/>
    </g>
    <g clip-path="url(#pe43c0537b0)">
     <use xlink:href="#mfcbd195a3a" x="23.032361" y="25.846155" style="fill: #ffffff"/>
    </g>
   </g>
   <g id="line2d_41">
    <path d="M 23.032361 25.846155 
" clip-path="url(#pe43c0537b0)" style="fill: none"/>
    <g clip-path="url(#pe43c0537b0)">
     <use xlink:href="#mc6e8d31915" x="23.032361" y="25.846155" style="fill-opacity: 0; stroke: #d32f2f; stroke-linejoin: miter"/>
    </g>
   </g>
   <g id="line2d_42">
    <path d="M 40.793634 42.888077 
" clip-path="url(#pe43c0537b0)" style="fill: none"/>
    <g clip-path="url(#pe43c0537b0)">
     <use xlink:href="#me6e1b4c576" x="40.793634" y="42.888077" style="fill: #d32f2f"/>
    </g>
    <g clip-path="url(#pe43c0537b0)">
     <use xlink:href="#mfcbd195a3a" x="40.793634" y="42.888077" style="fill: #ffffff"/>
    </g>
   </g>
   <g id="line2d_43">
    <path d="M 40.793634 42.888077 
" clip-path="url(#pe43c0537b0)" style="fill: none"/>
    <g clip-path="url(#pe43c0537b0)">
     <use xlink:href="#mc6e8d31915" x="40.793634" y="42.888077" style="fill-opacity: 0; stroke: #d32f2f; stroke-linejoin: miter"/>
    </g>
   </g>
   <g id="line2d_44">
    <path d="M 82.236605 84.482759 
" clip-path="url(#pe43c0537b0)" style="fill: none"/>
    <g clip-path="url(#pe43c0537b0)">
     <use xlink:href="#me6e1b4c576" x="82.236605" y="84.482759" style="fill: #d32f2f"/>
    </g>
    <g clip-path="url(#pe43c0537b0)">
     <use xlink:href="#mfcbd195a3a" x="82.236605" y="84.482759" style="fill: #ffffff"/>
    </g>
   </g>
   <g id="line2d_45">
    <path d="M 82.236605 84.482759 
" clip-path="url(#pe43c0537b0)" style="fill: none"/>
    <g clip-path="url(#pe43c0537b0)">
     <use xlink:href="#mc6e8d31915" x="82.236605" y="84.482759" style="fill-opacity: 0; stroke: #d32f2f; stroke-linejoin: miter"/>
    </g>
   </g>
   <g id="line2d_46">
    <path d="M 34.87321 67.145871 
" clip-path="url(#pe43c0537b0)" style="fill: none"/>
    <g clip-path="url(#pe43c0537b0)">
     <use xlink:href="#me6e1b4c576" x="34.87321" y="67.145871" style="fill: #d32f2f"/>
    </g>
    <g clip-path="url(#pe43c0537b0)">
     <use xlink:href="#mfcbd195a3a" x="34.87321" y="67.145871" style="fill: #ffffff"/>
    </g>
   </g>
   <g id="line2d_47">
    <path d="M 34.87321 67.145871 
" clip-path="url(#pe43c0537b0)" style="fill: none"/>
    <g clip-path="url(#pe43c0537b0)">
     <use xlink:href="#mc6e8d31915" x="34.87321" y="67.145871" style="fill-opacity: 0; stroke: #d32f2f; stroke-linejoin: miter"/>
    </g>
   </g>
   <g id="line2d_48">
    <path d="M 82.236605 54.832644 
" clip-path="url(#pe43c0537b0)" style="fill: none"/>
    <g clip-path="url(#pe43c0537b0)">
     <use xlink:href="#me6e1b4c576" x="82.236605" y="54.832644" style="fill: #d32f2f"/>
    </g>
    <g clip-path="url(#pe43c0537b0)">
     <use xlink:href="#mfcbd195a3a" x="82.236605" y="54.832644" style="fill: #ffffff"/>
    </g>
   </g>
   <g id="line2d_49">
    <path d="M 82.236605 54.832644 
" clip-path="url(#pe43c0537b0)" style="fill: none"/>
    <g clip-path="url(#pe43c0537b0)">
     <use xlink:href="#mc6e8d31915" x="82.236605" y="54.832644" style="fill-opacity: 0; stroke: #d32f2f; stroke-linejoin: miter"/>
    </g>
   </g>
   <g id="line2d_50">
    <path d="M 88.157029 90.735468 
" clip-path="url(#pe43c0537b0)" style="fill: none"/>
    <g clip-path="url(#pe43c0537b0)">
     <use xlink:href="#me6e1b4c576" x="88.157029" y="90.735468" style="fill: #d32f2f"/>
    </g>
    <g clip-path="url(#pe43c0537b0)">
     <use xlink:href="#mfcbd195a3a" x="88.157029" y="90.735468" style="fill: #ffffff"/>
    </g>
   </g>
   <g id="line2d_51">
    <path d="M 88.157029 90.735468 
" clip-path="url(#pe43c0537b0)" style="fill: none"/>
    <g clip-path="url(#pe43c0537b0)">
     <use xlink:href="#mc6e8d31915" x="88.157029" y="90.735468" style="fill-opacity: 0; stroke: #d32f2f; stroke-linejoin: miter"/>
    </g>
   </g>
   <g id="line2d_52">
    <path d="M 52.634483 57.444744 
" clip-path="url(#pe43c0537b0)" style="fill: none"/>
    <g clip-path="url(#pe43c0537b0)">
     <use xlink:href="#me6e1b4c576" x="52.634483" y="57.444744" style="fill: #d32f2f"/>
    </g>
    <g clip-path="url(#pe43c0537b0)">
     <use xlink:href="#mfcbd195a3a" x="52.634483" y="57.444744" style="fill: #ffffff"/>
    </g>
   </g>
   <g id="line2d_53">
    <path d="M 52.634483 57.444744 
" clip-path="url(#pe43c0537b0)" style="fill: none"/>
    <g clip-path="url(#pe43c0537b0)">
     <use xlink:href="#mc6e8d31915" x="52.634483" y="57.444744" style="fill-opacity: 0; stroke: #d32f2f; stroke-linejoin: miter"/>
    </g>
   </g>
   <g id="line2d_54">
    <path d="M 99.997878 53.382803 
" clip-path="url(#pe43c0537b0)" style="fill: none"/>
    <g clip-path="url(#pe43c0537b0)">
     <use xlink:href="#me6e1b4c576" x="99.997878" y="53.382803" style="fill: #d32f2f"/>
    </g>
    <g clip-path="url(#pe43c0537b0)">
     <use xlink:href="#mfcbd195a3a" x="99.997878" y="53.382803" style="fill: #ffffff"/>
    </g>
   </g>
   <g id="line2d_55">
    <path d="M 99.997878 53.382803 
" clip-path="url(#pe43c0537b0)" style="fill: none"/>
    <g clip-path="url(#pe43c0537b0)">
     <use xlink:href="#mc6e8d31915" x="99.997878" y="53.382803" style="fill-opacity: 0; stroke: #d32f2f; stroke-linejoin: miter"/>
    </g>
   </g>
   <g id="line2d_56">
    <path d="M 111.838727 81.287631 
" clip-path="url(#pe43c0537b0)" style="fill: none"/>
    <g clip-path="url(#pe43c0537b0)">
     <use xlink:href="#me6e1b4c576" x="111.838727" y="81.287631" style="fill: #d32f2f"/>
    </g>
    <g clip-path="url(#pe43c0537b0)">
     <use xlink:href="#mfcbd195a3a" x="111.838727" y="81.287631" style="fill: #ffffff"/>
    </g>
   </g>
   <g id="line2d_57">
    <path d="M 111.838727 81.287631 
" clip-path="url(#pe43c0537b0)" style="fill: none"/>
    <g clip-path="url(#pe43c0537b0)">
     <use xlink:href="#mc6e8d31915" x="111.838727" y="81.287631" style="fill-opacity: 0; stroke: #d32f2f; stroke-linejoin: miter"/>
    </g>
   </g>
   <g id="line2d_58">
    <path d="M 46.714058 71.163369 
" clip-path="url(#pe43c0537b0)" style="fill: none"/>
    <g clip-path="url(#pe43c0537b0)">
     <use xlink:href="#me6e1b4c576" x="46.714058" y="71.163369" style="fill: #d32f2f"/>
    </g>
    <g clip-path="url(#pe43c0537b0)">
     <use xlink:href="#mfcbd195a3a" x="46.714058" y="71.163369" style="fill: #ffffff"/>
    </g>
   </g>
   <g id="line2d_59">
    <path d="M 46.714058 71.163369 
" clip-path="url(#pe43c0537b0)" style="fill: none"/>
    <g clip-path="url(#pe43c0537b0)">
     <use xlink:href="#mc6e8d31915" x="46.714058" y="71.163369" style="fill-opacity: 0; stroke: #d32f2f; stroke-linejoin: miter"/>
    </g>
   </g>
   <g id="line2d_60">
    <path d="M 99.997878 71.671277 
" clip-path="url(#pe43c0537b0)" style="fill: none"/>
    <g clip-path="url(#pe43c0537b0)">
     <use xlink:href="#me6e1b4c576" x="99.997878" y="71.671277" style="fill: #d32f2f"/>
    </g>
    <g clip-path="url(#pe43c0537b0)">
     <use xlink:href="#mfcbd195a3a" x="99.997878" y="71.671277" style="fill: #ffffff"/>
    </g>
   </g>
   <g id="line2d_61">
    <path d="M 99.997878 71.671277 
" clip-path="url(#pe43c0537b0)" style="fill: none"/>
    <g clip-path="url(#pe43c0537b0)">
     <use xlink:href="#mc6e8d31915" x="99.997878" y="71.671277" style="fill-opacity: 0; stroke: #d32f2f; stroke-linejoin: miter"/>
    </g>
   </g>
   <g id="line2d_62">
    <path d="M 123.679576 92.043723 
" clip-path="url(#pe43c0537b0)" style="fill: none"/>
    <g clip-path="url(#pe43c0537b0)">
     <use xlink:href="#me6e1b4c576" x="123.679576" y="92.043723" style="fill: #d32f2f"/>
    </g>
    <g clip-path="url(#pe43c0537b0)">
     <use xlink:href="#mfcbd195a3a" x="123.679576" y="92.043723" style="fill: #ffffff"/>
    </g>
   </g>
   <g id="line2d_63">
    <path d="M 123.679576 92.043723 
" clip-path="url(#pe43c0537b0)" style="fill: none"/>
    <g clip-path="url(#pe43c0537b0)">
     <use xlink:href="#mc6e8d31915" x="123.679576" y="92.043723" style="fill-opacity: 0; stroke: #d32f2f; stroke-linejoin: miter"/>
    </g>
   </g>
   <g id="line2d_64">
    <path d="M 23.032361 73.90625 
" clip-path="url(#pe43c0537b0)" style="fill: none"/>
    <g clip-path="url(#pe43c0537b0)">
     <use xlink:href="#medb919b529" x="23.032361" y="73.90625" style="fill: #1976d2"/>
    </g>
    <g clip-path="url(#pe43c0537b0)">
     <use xlink:href="#mde8c351917" x="23.032361" y="73.90625" style="fill: #ffffff"/>
    </g>
   </g>
   <g id="line2d_65">
    <path d="M 23.032361 73.90625 
" clip-path="url(#pe43c0537b0)" style="fill: none"/>
    <g clip-path="url(#pe43c0537b0)">
     <use xlink:href="#md33264f445" x="23.032361" y="73.90625" style="fill-opacity: 0; stroke: #1976d2; stroke-linejoin: miter"/>
    </g>
   </g>
   <g id="line2d_66">
    <path d="M 28.952785 68.157708 
" clip-path="url(#pe43c0537b0)" style="fill: none"/>
    <g clip-path="url(#pe43c0537b0)">
     <use xlink:href="#medb919b529" x="28.952785" y="68.157708" style="fill: #1976d2"/>
    </g>
    <g clip-path="url(#pe43c0537b0)">
     <use xlink:href="#mde8c351917" x="28.952785" y="68.157708" style="fill: #ffffff"/>
    </g>
   </g>
   <g id="line2d_67">
    <path d="M 28.952785 68.157708 
" clip-path="url(#pe43c0537b0)" style="fill: none"/>
    <g clip-path="url(#pe43c0537b0)">
     <use xlink:href="#md33264f445" x="28.952785" y="68.157708" style="fill-opacity: 0; stroke: #1976d2; stroke-linejoin: miter"/>
    </g>
   </g>
   <g id="line2d_68">
    <path d="M 34.87321 59.70508 
" clip-path="url(#pe43c0537b0)" style="fill: none"/>
    <g clip-path="url(#pe43c0537b0)">
     <use xlink:href="#medb919b529" x="34.87321" y="59.70508" style="fill: #1976d2"/>
    </g>
    <g clip-path="url(#pe43c0537b0)">
     <use xlink:href="#mde8c351917" x="34.87321" y="59.70508" style="fill: #ffffff"/>
    </g>
   </g>
   <g id="line2d_69">
    <path d="M 34.87321 59.70508 
" clip-path="url(#pe43c0537b0)" style="fill: none"/>
    <g clip-path="url(#pe43c0537b0)">
     <use xlink:href="#md33264f445" x="34.87321" y="59.70508" style="fill-opacity: 0; stroke: #1976d2; stroke-linejoin: miter"/>
    </g>
   </g>
   <g id="line2d_70">
    <path d="M 23.032361 59.304834 
" clip-path="url(#pe43c0537b0)" style="fill: none"/>
    <g clip-path="url(#pe43c0537b0)">
     <use xlink:href="#medb919b529" x="23.032361" y="59.304834" style="fill: #1976d2"/>
    </g>
    <g clip-path="url(#pe43c0537b0)">
     <use xlink:href="#mde8c351917" x="23.032361" y="59.304834" style="fill: #ffffff"/>
    </g>
   </g>
   <g id="line2d_71">
    <path d="M 23.032361 59.304834 
" clip-path="url(#pe43c0537b0)" style="fill: none"/>
    <g clip-path="url(#pe43c0537b0)">
     <use xlink:href="#md33264f445" x="23.032361" y="59.304834" style="fill-opacity: 0; stroke: #1976d2; stroke-linejoin: miter"/>
    </g>
   </g>
   <g id="line2d_72">
    <path d="M 34.87321 91.155375 
" clip-path="url(#pe43c0537b0)" style="fill: none"/>
    <g clip-path="url(#pe43c0537b0)">
     <use xlink:href="#medb919b529" x="34.87321" y="91.155375" style="fill: #1976d2"/>
    </g>
    <g clip-path="url(#pe43c0537b0)">
     <use xlink:href="#mde8c351917" x="34.87321" y="91.155375" style="fill: #ffffff"/>
    </g>
   </g>
   <g id="line2d_73">
    <path d="M 34.87321 91.155375 
" clip-path="url(#pe43c0537b0)" style="fill: none"/>
    <g clip-path="url(#pe43c0537b0)">
     <use xlink:href="#md33264f445" x="34.87321" y="91.155375" style="fill-opacity: 0; stroke: #1976d2; stroke-linejoin: miter"/>
    </g>
   </g>
   <g id="line2d_74">
    <path d="M 64.475332 83.409793 
" clip-path="url(#pe43c0537b0)" style="fill: none"/>
    <g clip-path="url(#pe43c0537b0)">
     <use xlink:href="#medb919b529" x="64.475332" y="83.409793" style="fill: #1976d2"/>
    </g>
    <g clip-path="url(#pe43c0537b0)">
     <use xlink:href="#mde8c351917" x="64.475332" y="83.409793" style="fill: #ffffff"/>
    </g>
   </g>
   <g id="line2d_75">
    <path d="M 64.475332 83.409793 
" clip-path="url(#pe43c0537b0)" style="fill: none"/>
    <g clip-path="url(#pe43c0537b0)">
     <use xlink:href="#md33264f445" x="64.475332" y="83.409793" style="fill-opacity: 0; stroke: #1976d2; stroke-linejoin: miter"/>
    </g>
   </g>
   <g id="line2d_76">
    <path clip-path="url(#pe43c0537b0)" style="fill: none"/>
    <g clip-path="url(#pe43c0537b0)"/>
    <g clip-path="url(#pe43c0537b0)"/>
   </g>
   <g id="line2d_77">
    <path clip-path="url(#pe43c0537b0)" style="fill: none"/>
    <g clip-path="url(#pe43c0537b0)"/>
   </g>
   <g id="line2d_78">
    <path d="M 40.793634 86.620459 
" clip-path="url(#pe43c0537b0)" style="fill: none"/>
    <g clip-path="url(#pe43c0537b0)">
     <use xlink:href="#medb919b529" x="40.793634" y="86.620459" style="fill: #1976d2"/>
    </g>
    <g clip-path="url(#pe43c0537b0)">
     <use xlink:href="#mde8c351917" x="40.793634" y="86.620459" style="fill: #ffffff"/>
    </g>
   </g>
   <g id="line2d_79">
    <path d="M 40.793634 86.620459 
" clip-path="url(#pe43c0537b0)" style="fill: none"/>
    <g clip-path="url(#pe43c0537b0)">
     <use xlink:href="#md33264f445" x="40.793634" y="86.620459" style="fill-opacity: 0; stroke: #1976d2; stroke-linejoin: miter"/>
    </g>
   </g>
   <g id="line2d_80">
    <path d="M 58.554907 74.824686 
" clip-path="url(#pe43c0537b0)" style="fill: none"/>
    <g clip-path="url(#pe43c0537b0)">
     <use xlink:href="#medb919b529" x="58.554907" y="74.824686" style="fill: #1976d2"/>
    </g>
    <g clip-path="url(#pe43c0537b0)">
     <use xlink:href="#mde8c351917" x="58.554907" y="74.824686" style="fill: #ffffff"/>
    </g>
   </g>
   <g id="line2d_81">
    <path d="M 58.554907 74.824686 
" clip-path="url(#pe43c0537b0)" style="fill: none"/>
    <g clip-path="url(#pe43c0537b0)">
     <use xlink:href="#md33264f445" x="58.554907" y="74.824686" style="fill-opacity: 0; stroke: #1976d2; stroke-linejoin: miter"/>
    </g>
   </g>
   <g id="line2d_82">
    <path clip-path="url(#pe43c0537b0)" style="fill: none"/>
    <g clip-path="url(#pe43c0537b0)"/>
    <g clip-path="url(#pe43c0537b0)"/>
   </g>
   <g id="line2d_83">
    <path clip-path="url(#pe43c0537b0)" style="fill: none"/>
    <g clip-path="url(#pe43c0537b0)"/>
   </g>
   <g id="line2d_84">
    <path d="M 28.952785 85.24006 
" clip-path="url(#pe43c0537b0)" style="fill: none"/>
    <g clip-path="url(#pe43c0537b0)">
     <use xlink:href="#medb919b529" x="28.952785" y="85.24006" style="fill: #1976d2"/>
    </g>
    <g clip-path="url(#pe43c0537b0)">
     <use xlink:href="#mde8c351917" x="28.952785" y="85.24006" style="fill: #ffffff"/>
    </g>
   </g>
   <g id="line2d_85">
    <path d="M 28.952785 85.24006 
" clip-path="url(#pe43c0537b0)" style="fill: none"/>
    <g clip-path="url(#pe43c0537b0)">
     <use xlink:href="#md33264f445" x="28.952785" y="85.24006" style="fill-opacity: 0; stroke: #1976d2; stroke-linejoin: miter"/>
    </g>
   </g>
   <g id="line2d_86">
    <path d="M 40.793634 66.260392 
" clip-path="url(#pe43c0537b0)" style="fill: none"/>
    <g clip-path="url(#pe43c0537b0)">
     <use xlink:href="#medb919b529" x="40.793634" y="66.260392" style="fill: #1976d2"/>
    </g>
    <g clip-path="url(#pe43c0537b0)">
     <use xlink:href="#mde8c351917" x="40.793634" y="66.260392" style="fill: #ffffff"/>
    </g>
   </g>
   <g id="line2d_87">
    <path d="M 40.793634 66.260392 
" clip-path="url(#pe43c0537b0)" style="fill: none"/>
    <g clip-path="url(#pe43c0537b0)">
     <use xlink:href="#md33264f445" x="40.793634" y="66.260392" style="fill-opacity: 0; stroke: #1976d2; stroke-linejoin: miter"/>
    </g>
   </g>
   <g id="patch_3">
    <path d="M 18 128.16 
L 18 17.28 
" style="fill: none; stroke: #000000; stroke-width: 0.8; stroke-linejoin: miter; stroke-linecap: square"/>
   </g>
   <g id="patch_4">
    <path d="M 18 72.72 
L 129.6 72.72 
" style="fill: none; stroke: #000000; stroke-width: 0.8; stroke-linejoin: miter; stroke-linecap: square"/>
   </g>
   <g id="text_4">
    <!-- HLA-G -0.56 -->
    <g transform="translate(37.378125 11.28) scale(0.12 -0.12)">
     <defs>
      <path id="DejaVuSans-48" d="M 628 4666 
L 1259 4666 
L 1259 2753 
L 3553 2753 
L 3553 4666 
L 4184 4666 
L 4184 0 
L 3553 0 
L 3553 2222 
L 1259 2222 
L 1259 0 
L 628 0 
L 628 4666 
z
" transform="scale(0.015625)"/>
      <path id="DejaVuSans-4c" d="M 628 4666 
L 1259 4666 
L 1259 531 
L 3531 531 
L 3531 0 
L 628 0 
L 628 4666 
z
" transform="scale(0.015625)"/>
      <path id="DejaVuSans-41" d="M 2188 4044 
L 1331 1722 
L 3047 1722 
L 2188 4044 
z
M 1831 4666 
L 2547 4666 
L 4325 0 
L 3669 0 
L 3244 1197 
L 1141 1197 
L 716 0 
L 50 0 
L 1831 4666 
z
" transform="scale(0.015625)"/>
      <path id="DejaVuSans-2d" d="M 313 2009 
L 1997 2009 
L 1997 1497 
L 313 1497 
L 313 2009 
z
" transform="scale(0.015625)"/>
      <path id="DejaVuSans-47" d="M 3809 666 
L 3809 1919 
L 2778 1919 
L 2778 2438 
L 4434 2438 
L 4434 434 
Q 4069 175 3628 42 
Q 3188 -91 2688 -91 
Q 1594 -91 976 548 
Q 359 1188 359 2328 
Q 359 3472 976 4111 
Q 1594 4750 2688 4750 
Q 3144 4750 3555 4637 
Q 3966 4525 4313 4306 
L 4313 3634 
Q 3963 3931 3569 4081 
Q 3175 4231 2741 4231 
Q 1884 4231 1454 3753 
Q 1025 3275 1025 2328 
Q 1025 1384 1454 906 
Q 1884 428 2741 428 
Q 3075 428 3337 486 
Q 3600 544 3809 666 
z
" transform="scale(0.015625)"/>
      <path id="DejaVuSans-20" transform="scale(0.015625)"/>
      <path id="DejaVuSans-2e" d="M 684 794 
L 1344 794 
L 1344 0 
L 684 0 
L 684 794 
z
" transform="scale(0.015625)"/>
      <path id="DejaVuSans-35" d="M 691 4666 
L 3169 4666 
L 3169 4134 
L 1269 4134 
L 1269 2991 
Q 1406 3038 1543 3061 
Q 1681 3084 1819 3084 
Q 2600 3084 3056 2656 
Q 3513 2228 3513 1497 
Q 3513 744 3044 326 
Q 2575 -91 1722 -91 
Q 1428 -91 1123 -41 
Q 819 9 494 109 
L 494 744 
Q 775 591 1075 516 
Q 1375 441 1709 441 
Q 2250 441 2565 725 
Q 2881 1009 2881 1497 
Q 2881 1984 2565 2268 
Q 2250 2553 1709 2553 
Q 1456 2553 1204 2497 
Q 953 2441 691 2322 
L 691 4666 
z
" transform="scale(0.015625)"/>
      <path id="DejaVuSans-36" d="M 2113 2584 
Q 1688 2584 1439 2293 
Q 1191 2003 1191 1497 
Q 1191 994 1439 701 
Q 1688 409 2113 409 
Q 2538 409 2786 701 
Q 3034 994 3034 1497 
Q 3034 2003 2786 2293 
Q 2538 2584 2113 2584 
z
M 3366 4563 
L 3366 3988 
Q 3128 4100 2886 4159 
Q 2644 4219 2406 4219 
Q 1781 4219 1451 3797 
Q 1122 3375 1075 2522 
Q 1259 2794 1537 2939 
Q 1816 3084 2150 3084 
Q 2853 3084 3261 2657 
Q 3669 2231 3669 1497 
Q 3669 778 3244 343 
Q 2819 -91 2113 -91 
Q 1303 -91 875 529 
Q 447 1150 447 2328 
Q 447 3434 972 4092 
Q 1497 4750 2381 4750 
Q 2619 4750 2861 4703 
Q 3103 4656 3366 4563 
z
" transform="scale(0.015625)"/>
     </defs>
     <use xlink:href="#DejaVuSans-48"/>
     <use xlink:href="#DejaVuSans-4c" transform="translate(75.195312 0)"/>
     <use xlink:href="#DejaVuSans-41" transform="translate(133.158203 0)"/>
     <use xlink:href="#DejaVuSans-2d" transform="translate(199.316406 0)"/>
     <use xlink:href="#DejaVuSans-47" transform="translate(239.025391 0)"/>
     <use xlink:href="#DejaVuSans-20" transform="translate(316.515625 0)"/>
     <use xlink:href="#DejaVuSans-2d" transform="translate(348.302734 0)"/>
     <use xlink:href="#DejaVuSans-30" transform="translate(384.386719 0)"/>
     <use xlink:href="#DejaVuSans-2e" transform="translate(448.009766 0)"/>
     <use xlink:href="#DejaVuSans-35" transform="translate(479.796875 0)"/>
     <use xlink:href="#DejaVuSans-36" transform="translate(543.419922 0)"/>
    </g>
   </g>
  </g>
 </g>
 <defs>
  <clipPath id="pe43c0537b0">
   <rect x="18" y="17.28" width="111.6" height="110.88"/>
  </clipPath>
 </defs>
</svg>
