<?xml version="1.0" encoding="utf-8" standalone="no"?>
<!DOCTYPE svg PUBLIC "-//W3C//DTD SVG 1.1//EN"
  "http://www.w3.org/Graphics/SVG/1.1/DTD/svg11.dtd">
<svg xmlns:xlink="http://www.w3.org/1999/xlink" width="144pt" height="144pt" viewBox="0 0 144 144" xmlns="http://www.w3.org/2000/svg" version="1.1">
 <metadata>
  <rdf:RDF xmlns:dc="http://purl.org/dc/elements/1.1/" xmlns:cc="http://creativecommons.org/ns#" xmlns:rdf="http://www.w3.org/1999/02/22-rdf-syntax-ns#">
   <cc:Work>
    <dc:type rdf:resource="http://purl.org/dc/dcmitype/StillImage"/>
    <dc:date>2026-02-17T13:08:29.228661</dc:date>
    <dc:format>image/svg+xml</dc:format>
    <dc:creator>
     <cc:Agent>
      <dc:title>Matplotlib v3.10.6, https://matplotlib.org/</dc:title>
     </cc:Agent>
    </dc:creator>
   </cc:Work>
  </rdf:RDF>
 </metadata>
 <defs>
  <style type="text/css">*{stroke-linejoin: round; stroke-linecap: butt}</style>
 </defs>
 <g id="figure_1">
  <g id="patch_1">
   <path d="M 0 144 
L 144 144 
L 144 0 
L 0 0 
z
" style="fill: #ffffff"/>
  </g>
  <g id="axes_1">
   <g id="patch_2">
    <path d="M 18 128.16 
L 129.6 128.16 
L 129.6 17.28 
L 18 17.28 
z
" style="fill: #ffffff"/>
   </g>
   <g id="matplotlib.axis_1">
    <g id="xtick_1">
     <g id="line2d_1">
      <defs>
       <path id="m3b99834f46" d="M 0 0 
L 0 3.5 
" style="stroke: #000000; stroke-width: 0.8"/>
      </defs>
      <g>
       <use xlink:href="#m3b99834f46" x="76.31618" y="72.72" style="stroke: #000000; stroke-width: 0.8"/>
      </g>
     </g>
    </g>
    <g id="xtick_2">
     <g id="line2d_2">
      <g>
       <use xlink:href="#m3b99834f46" x="129.6" y="72.72" style="stroke: #000000; stroke-width: 0.8"/>
      </g>
     </g>
    </g>
   </g>
   <g id="matplotlib.axis_2">
    <g id="ytick_1">
     <g id="line2d_3">
      <defs>
       <path id="ma5d0c7f9c9" d="M 0 0 
L -3.5 0 
" style="stroke: #000000; stroke-width: 0.8"/>
      </defs>
      <g>
       <use xlink:href="#ma5d0c7f9c9" x="18" y="104.4" style="stroke: #000000; stroke-width: 0.8"/>
      </g>
     </g>
     <g id="text_1">
      <!-- −2 -->
      <g transform="translate(-3.742188 108.199219) scale(0.1 -0.1)">
       <defs>
        <path id="DejaVuSans-2212" d="M 678 2272 
L 4684 2272 
L 4684 1741 
L 678 1741 
L 678 2272 
z
" transform="scale(0.015625)"/>
        <path id="DejaVuSans-32" d="M 1228 531 
L 3431 531 
L 3431 0 
L 469 0 
L 469 531 
Q 828 903 1448 1529 
Q 2069 2156 2228 2338 
Q 2531 2678 2651 2914 
Q 2772 3150 2772 3378 
Q 2772 3750 2511 3984 
Q 2250 4219 1831 4219 
Q 1534 4219 1204 4116 
Q 875 4013 500 3803 
L 500 4441 
Q 881 4594 1212 4672 
Q 1544 4750 1819 4750 
Q 2544 4750 2975 4387 
Q 3406 4025 3406 3419 
Q 3406 3131 3298 2873 
Q 3191 2616 2906 2266 
Q 2828 2175 2409 1742 
Q 1991 1309 1228 531 
z
" transform="scale(0.015625)"/>
       </defs>
       <use xlink:href="#DejaVuSans-2212"/>
       <use xlink:href="#DejaVuSans-32" transform="translate(83.789062 0)"/>
      </g>
     </g>
    </g>
    <g id="ytick_2">
     <g id="line2d_4">
      <g>
       <use xlink:href="#ma5d0c7f9c9" x="18" y="72.72" style="stroke: #000000; stroke-width: 0.8"/>
      </g>
     </g>
     <g id="text_2">
      <!-- 0 -->
      <g transform="translate(4.6375 76.519219) scale(0.1 -0.1)">
       <defs>
        <path id="DejaVuSans-30" d="M 2034 4250 
Q 1547 4250 1301 3770 
Q 1056 3291 1056 2328 
Q 1056 1369 1301 889 
Q 1547 409 2034 409 
Q 2525 409 2770 889 
Q 3016 1369 3016 2328 
Q 3016 3291 2770 3770 
Q 2525 4250 2034 4250 
z
M 2034 4750 
Q 2819 4750 3233 4129 
Q 3647 3509 3647 2328 
Q 3647 1150 3233 529 
Q 2819 -91 2034 -91 
Q 1250 -91 836 529 
Q 422 1150 422 2328 
Q 422 3509 836 4129 
Q 1250 4750 2034 4750 
z
" transform="scale(0.015625)"/>
       </defs>
       <use xlink:href="#DejaVuSans-30"/>
      </g>
     </g>
    </g>
    <g id="ytick_3">
     <g id="line2d_5">
      <g>
       <use xlink:href="#ma5d0c7f9c9" x="18" y="41.04" style="stroke: #000000; stroke-width: 0.8"/>
      </g>
     </g>
     <g id="text_3">
      <!-- 2 -->
      <g transform="translate(4.6375 44.839219) scale(0.1 -0.1)">
       <use xlink:href="#DejaVuSans-32"/>
      </g>
     </g>
    </g>
   </g>
   <g id="line2d_6">
    <path d="M 40.793634 71.177524 
" clip-path="url(#p85de2ab528)" style="fill: none"/>
    <defs>
     <path id="m1c439c7db4" d="M 0 -4.242641 
L -4.242641 -0 
L -0 4.242641 
L 0 -4.242641 
"/>
    </defs>
    <g clip-path="url(#p85de2ab528)">
     <use xlink:href="#m1c439c7db4" x="40.793634" y="71.177524" style="fill: #d32f2f"/>
    </g>
    <defs>
     <path id="m4ba902848d" d="M 0 -4.242641 
L 4.242641 0 
L -0 4.242641 
L 0 -4.242641 
"/>
    </defs>
    <g clip-path="url(#p85de2ab528)">
     <use xlink:href="#m4ba902848d" x="40.793634" y="71.177524" style="fill: #ffffff"/>
    </g>
   </g>
   <g id="line2d_7">
    <path d="M 40.793634 71.177524 
" clip-path="url(#p85de2ab528)" style="fill: none"/>
    <defs>
     <path id="mbd72cc4581" d="M -0 4.242641 
L 4.242641 0 
L 0 -4.242641 
L -4.242641 -0 
z
" style="stroke: #d32f2f; stroke-linejoin: miter"/>
    </defs>
    <g clip-path="url(#p85de2ab528)">
     <use xlink:href="#mbd72cc4581" x="40.793634" y="71.177524" style="fill-opacity: 0; stroke: #d32f2f; stroke-linejoin: miter"/>
    </g>
   </g>
   <g id="line2d_8">
    <path d="M 58.554907 75.909443 
" clip-path="url(#p85de2ab528)" style="fill: none"/>
    <g clip-path="url(#p85de2ab528)">
     <use xlink:href="#m1c439c7db4" x="58.554907" y="75.909443" style="fill: #d32f2f"/>
    </g>
    <g clip-path="url(#p85de2ab528)">
     <use xlink:href="#m4ba902848d" x="58.554907" y="75.909443" style="fill: #ffffff"/>
    </g>
   </g>
   <g id="line2d_9">
    <path d="M 58.554907 75.909443 
" clip-path="url(#p85de2ab528)" style="fill: none"/>
    <g clip-path="url(#p85de2ab528)">
     <use xlink:href="#mbd72cc4581" x="58.554907" y="75.909443" style="fill-opacity: 0; stroke: #d32f2f; stroke-linejoin: miter"/>
    </g>
   </g>
   <g id="line2d_10">
    <path d="M 64.475332 78.711481 
" clip-path="url(#p85de2ab528)" style="fill: none"/>
    <g clip-path="url(#p85de2ab528)">
     <use xlink:href="#m1c439c7db4" x="64.475332" y="78.711481" style="fill: #d32f2f"/>
    </g>
    <g clip-path="url(#p85de2ab528)">
     <use xlink:href="#m4ba902848d" x="64.475332" y="78.711481" style="fill: #ffffff"/>
    </g>
   </g>
   <g id="line2d_11">
    <path d="M 64.475332 78.711481 
" clip-path="url(#p85de2ab528)" style="fill: none"/>
    <g clip-path="url(#p85de2ab528)">
     <use xlink:href="#mbd72cc4581" x="64.475332" y="78.711481" style="fill-opacity: 0; stroke: #d32f2f; stroke-linejoin: miter"/>
    </g>
   </g>
   <g id="line2d_12">
    <path d="M 23.032361 89.011688 
" clip-path="url(#p85de2ab528)" style="fill: none"/>
    <defs>
     <path id="m662d0b0152" d="M -0 4.242641 
L 4.242641 0 
L 0 -4.242641 
L -0 4.242641 
"/>
    </defs>
    <g clip-path="url(#p85de2ab528)">
     <use xlink:href="#m662d0b0152" x="23.032361" y="89.011688" style="fill: #1976d2"/>
    </g>
    <defs>
     <path id="mbb303f5373" d="M -0 4.242641 
L -4.242641 -0 
L 0 -4.242641 
L -0 4.242641 
"/>
    </defs>
    <g clip-path="url(#p85de2ab528)">
     <use xlink:href="#mbb303f5373" x="23.032361" y="89.011688" style="fill: #ffffff"/>
    </g>
   </g>
   <g id="line2d_13">
    <path d="M 23.032361 89.011688 
" clip-path="url(#p85de2ab528)" style="fill: none"/>
    <defs>
     <path id="m30d93bf76f" d="M -0 4.242641 
L 4.242641 0 
L 0 -4.242641 
L -4.242641 -0 
z
" style="stroke: #1976d2; stroke-linejoin: miter"/>
    </defs>
    <g clip-path="url(#p85de2ab528)">
     <use xlink:href="#m30d93bf76f" x="23.032361" y="89.011688" style="fill-opacity: 0; stroke: #1976d2; stroke-linejoin: miter"/>
    </g>
   </g>
   <g id="line2d_14">
    <path d="M 23.032361 99.410588 
" clip-path="url(#p85de2ab528)" style="fill: none"/>
    <g clip-path="url(#p85de2ab528)">
     <use xlink:href="#m662d0b0152" x="23.032361" y="99.410588" style="fill: #1976d2"/>
    </g>
    <g clip-path="url(#p85de2ab528)">
     <use xlink:href="#mbb303f5373" x="23.032361" y="99.410588" style="fill: #ffffff"/>
    </g>
   </g>
   <g id="line2d_15">
    <path d="M 23.032361 99.410588 
" clip-path="url(#p85de2ab528)" style="fill: none"/>
    <g clip-path="url(#p85de2ab528)">
     <use xlink:href="#m30d93bf76f" x="23.032361" y="99.410588" style="fill-opacity: 0; stroke: #1976d2; stroke-linejoin: miter"/>
    </g>
   </g>
   <g id="line2d_16">
    <path d="M 23.032361 96.881599 
" clip-path="url(#p85de2ab528)" style="fill: none"/>
    <g clip-path="url(#p85de2ab528)">
     <use xlink:href="#m662d0b0152" x="23.032361" y="96.881599" style="fill: #1976d2"/>
    </g>
    <g clip-path="url(#p85de2ab528)">
     <use xlink:href="#mbb303f5373" x="23.032361" y="96.881599" style="fill: #ffffff"/>
    </g>
   </g>
   <g id="line2d_17">
    <path d="M 23.032361 96.881599 
" clip-path="url(#p85de2ab528)" style="fill: none"/>
    <g clip-path="url(#p85de2ab528)">
     <use xlink:href="#m30d93bf76f" x="23.032361" y="96.881599" style="fill-opacity: 0; stroke: #1976d2; stroke-linejoin: miter"/>
    </g>
   </g>
   <g id="line2d_18">
    <path d="M 28.952785 54.978316 
" clip-path="url(#p85de2ab528)" style="fill: none"/>
    <g clip-path="url(#p85de2ab528)">
     <use xlink:href="#m1c439c7db4" x="28.952785" y="54.978316" style="fill: #d32f2f"/>
    </g>
    <g clip-path="url(#p85de2ab528)">
     <use xlink:href="#m4ba902848d" x="28.952785" y="54.978316" style="fill: #ffffff"/>
    </g>
   </g>
   <g id="line2d_19">
    <path d="M 28.952785 54.978316 
" clip-path="url(#p85de2ab528)" style="fill: none"/>
    <g clip-path="url(#p85de2ab528)">
     <use xlink:href="#mbd72cc4581" x="28.952785" y="54.978316" style="fill-opacity: 0; stroke: #d32f2f; stroke-linejoin: miter"/>
    </g>
   </g>
   <g id="line2d_20">
    <path d="M 52.634483 63.179527 
" clip-path="url(#p85de2ab528)" style="fill: none"/>
    <g clip-path="url(#p85de2ab528)">
     <use xlink:href="#m1c439c7db4" x="52.634483" y="63.179527" style="fill: #d32f2f"/>
    </g>
    <g clip-path="url(#p85de2ab528)">
     <use xlink:href="#m4ba902848d" x="52.634483" y="63.179527" style="fill: #ffffff"/>
    </g>
   </g>
   <g id="line2d_21">
    <path d="M 52.634483 63.179527 
" clip-path="url(#p85de2ab528)" style="fill: none"/>
    <g clip-path="url(#p85de2ab528)">
     <use xlink:href="#mbd72cc4581" x="52.634483" y="63.179527" style="fill-opacity: 0; stroke: #d32f2f; stroke-linejoin: miter"/>
    </g>
   </g>
   <g id="line2d_22">
    <path d="M 82.236605 73.210168 
" clip-path="url(#p85de2ab528)" style="fill: none"/>
    <g clip-path="url(#p85de2ab528)">
     <use xlink:href="#m1c439c7db4" x="82.236605" y="73.210168" style="fill: #d32f2f"/>
    </g>
    <g clip-path="url(#p85de2ab528)">
     <use xlink:href="#m4ba902848d" x="82.236605" y="73.210168" style="fill: #ffffff"/>
    </g>
   </g>
   <g id="line2d_23">
    <path d="M 82.236605 73.210168 
" clip-path="url(#p85de2ab528)" style="fill: none"/>
    <g clip-path="url(#p85de2ab528)">
     <use xlink:href="#mbd72cc4581" x="82.236605" y="73.210168" style="fill-opacity: 0; stroke: #d32f2f; stroke-linejoin: miter"/>
    </g>
   </g>
   <g id="line2d_24">
    <path d="M 23.032361 72.588971 
" clip-path="url(#p85de2ab528)" style="fill: none"/>
    <g clip-path="url(#p85de2ab528)">
     <use xlink:href="#m662d0b0152" x="23.032361" y="72.588971" style="fill: #1976d2"/>
    </g>
    <g clip-path="url(#p85de2ab528)">
     <use xlink:href="#mbb303f5373" x="23.032361" y="72.588971" style="fill: #ffffff"/>
    </g>
   </g>
   <g id="line2d_25">
    <path d="M 23.032361 72.588971 
" clip-path="url(#p85de2ab528)" style="fill: none"/>
    <g clip-path="url(#p85de2ab528)">
     <use xlink:href="#m30d93bf76f" x="23.032361" y="72.588971" style="fill-opacity: 0; stroke: #1976d2; stroke-linejoin: miter"/>
    </g>
   </g>
   <g id="line2d_26">
    <path d="M 28.952785 78.11634 
" clip-path="url(#p85de2ab528)" style="fill: none"/>
    <g clip-path="url(#p85de2ab528)">
     <use xlink:href="#m662d0b0152" x="28.952785" y="78.11634" style="fill: #1976d2"/>
    </g>
    <g clip-path="url(#p85de2ab528)">
     <use xlink:href="#mbb303f5373" x="28.952785" y="78.11634" style="fill: #ffffff"/>
    </g>
   </g>
   <g id="line2d_27">
    <path d="M 28.952785 78.11634 
" clip-path="url(#p85de2ab528)" style="fill: none"/>
    <g clip-path="url(#p85de2ab528)">
     <use xlink:href="#m30d93bf76f" x="28.952785" y="78.11634" style="fill-opacity: 0; stroke: #1976d2; stroke-linejoin: miter"/>
    </g>
   </g>
   <g id="line2d_28">
    <path d="M 23.032361 33.484379 
" clip-path="url(#p85de2ab528)" style="fill: none"/>
    <g clip-path="url(#p85de2ab528)">
     <use xlink:href="#m1c439c7db4" x="23.032361" y="33.484379" style="fill: #d32f2f"/>
    </g>
    <g clip-path="url(#p85de2ab528)">
     <use xlink:href="#m4ba902848d" x="23.032361" y="33.484379" style="fill: #ffffff"/>
    </g>
   </g>
   <g id="line2d_29">
    <path d="M 23.032361 33.484379 
" clip-path="url(#p85de2ab528)" style="fill: none"/>
    <g clip-path="url(#p85de2ab528)">
     <use xlink:href="#mbd72cc4581" x="23.032361" y="33.484379" style="fill-opacity: 0; stroke: #d32f2f; stroke-linejoin: miter"/>
    </g>
   </g>
   <g id="line2d_30">
    <path d="M 64.475332 55.333491 
" clip-path="url(#p85de2ab528)" style="fill: none"/>
    <g clip-path="url(#p85de2ab528)">
     <use xlink:href="#m1c439c7db4" x="64.475332" y="55.333491" style="fill: #d32f2f"/>
    </g>
    <g clip-path="url(#p85de2ab528)">
     <use xlink:href="#m4ba902848d" x="64.475332" y="55.333491" style="fill: #ffffff"/>
    </g>
   </g>
   <g id="line2d_31">
    <path d="M 64.475332 55.333491 
" clip-path="url(#p85de2ab528)" style="fill: none"/>
    <g clip-path="url(#p85de2ab528)">
     <use xlink:href="#mbd72cc4581" x="64.475332" y="55.333491" style="fill-opacity: 0; stroke: #d32f2f; stroke-linejoin: miter"/>
    </g>
   </g>
   <g id="line2d_32">
    <path d="M 70.395756 81.819581 
" clip-path="url(#p85de2ab528)" style="fill: none"/>
    <g clip-path="url(#p85de2ab528)">
     <use xlink:href="#m1c439c7db4" x="70.395756" y="81.819581" style="fill: #d32f2f"/>
    </g>
    <g clip-path="url(#p85de2ab528)">
     <use xlink:href="#m4ba902848d" x="70.395756" y="81.819581" style="fill: #ffffff"/>
    </g>
   </g>
   <g id="line2d_33">
    <path d="M 70.395756 81.819581 
" clip-path="url(#p85de2ab528)" style="fill: none"/>
    <g clip-path="url(#p85de2ab528)">
     <use xlink:href="#mbd72cc4581" x="70.395756" y="81.819581" style="fill-opacity: 0; stroke: #d32f2f; stroke-linejoin: miter"/>
    </g>
   </g>
   <g id="line2d_34">
    <path d="M 28.952785 75.928914 
" clip-path="url(#p85de2ab528)" style="fill: none"/>
    <g clip-path="url(#p85de2ab528)">
     <use xlink:href="#m662d0b0152" x="28.952785" y="75.928914" style="fill: #1976d2"/>
    </g>
    <g clip-path="url(#p85de2ab528)">
     <use xlink:href="#mbb303f5373" x="28.952785" y="75.928914" style="fill: #ffffff"/>
    </g>
   </g>
   <g id="line2d_35">
    <path d="M 28.952785 75.928914 
" clip-path="url(#p85de2ab528)" style="fill: none"/>
    <g clip-path="url(#p85de2ab528)">
     <use xlink:href="#m30d93bf76f" x="28.952785" y="75.928914" style="fill-opacity: 0; stroke: #1976d2; stroke-linejoin: miter"/>
    </g>
   </g>
   <g id="line2d_36">
    <path d="M 34.87321 60.883895 
" clip-path="url(#p85de2ab528)" style="fill: none"/>
    <g clip-path="url(#p85de2ab528)">
     <use xlink:href="#m662d0b0152" x="34.87321" y="60.883895" style="fill: #1976d2"/>
    </g>
    <g clip-path="url(#p85de2ab528)">
     <use xlink:href="#mbb303f5373" x="34.87321" y="60.883895" style="fill: #ffffff"/>
    </g>
   </g>
   <g id="line2d_37">
    <path d="M 34.87321 60.883895 
" clip-path="url(#p85de2ab528)" style="fill: none"/>
    <g clip-path="url(#p85de2ab528)">
     <use xlink:href="#m30d93bf76f" x="34.87321" y="60.883895" style="fill-opacity: 0; stroke: #1976d2; stroke-linejoin: miter"/>
    </g>
   </g>
   <g id="line2d_38">
    <path d="M 40.793634 72.787382 
" clip-path="url(#p85de2ab528)" style="fill: none"/>
    <g clip-path="url(#p85de2ab528)">
     <use xlink:href="#m662d0b0152" x="40.793634" y="72.787382" style="fill: #1976d2"/>
    </g>
    <g clip-path="url(#p85de2ab528)">
     <use xlink:href="#mbb303f5373" x="40.793634" y="72.787382" style="fill: #ffffff"/>
    </g>
   </g>
   <g id="line2d_39">
    <path d="M 40.793634 72.787382 
" clip-path="url(#p85de2ab528)" style="fill: none"/>
    <g clip-path="url(#p85de2ab528)">
     <use xlink:href="#m30d93bf76f" x="40.793634" y="72.787382" style="fill-opacity: 0; stroke: #1976d2; stroke-linejoin: miter"/>
    </g>
   </g>
   <g id="line2d_40">
    <path d="M 23.032361 41.337796 
" clip-path="url(#p85de2ab528)" style="fill: none"/>
    <g clip-path="url(#p85de2ab528)">
     <use xlink:href="#m1c439c7db4" x="23.032361" y="41.337796" style="fill: #d32f2f"/>
    </g>
    <g clip-path="url(#p85de2ab528)">
     <use xlink:href="#m4ba902848d" x="23.032361" y="41.337796" style="fill: #ffffff"/>
    </g>
   </g>
   <g id="line2d_41">
    <path d="M 23.032361 41.337796 
" clip-path="url(#p85de2ab528)" style="fill: none"/>
    <g clip-path="url(#p85de2ab528)">
     <use xlink:href="#mbd72cc4581" x="23.032361" y="41.337796" style="fill-opacity: 0; stroke: #d32f2f; stroke-linejoin: miter"/>
    </g>
   </g>
   <g id="line2d_42">
    <path d="M 40.793634 49.473327 
" clip-path="url(#p85de2ab528)" style="fill: none"/>
    <g clip-path="url(#p85de2ab528)">
     <use xlink:href="#m1c439c7db4" x="40.793634" y="49.473327" style="fill: #d32f2f"/>
    </g>
    <g clip-path="url(#p85de2ab528)">
     <use xlink:href="#m4ba902848d" x="40.793634" y="49.473327" style="fill: #ffffff"/>
    </g>
   </g>
   <g id="line2d_43">
    <path d="M 40.793634 49.473327 
" clip-path="url(#p85de2ab528)" style="fill: none"/>
    <g clip-path="url(#p85de2ab528)">
     <use xlink:href="#mbd72cc4581" x="40.793634" y="49.473327" style="fill-opacity: 0; stroke: #d32f2f; stroke-linejoin: miter"/>
    </g>
   </g>
   <g id="line2d_44">
    <path d="M 82.236605 96.588617 
" clip-path="url(#p85de2ab528)" style="fill: none"/>
    <g clip-path="url(#p85de2ab528)">
     <use xlink:href="#m1c439c7db4" x="82.236605" y="96.588617" style="fill: #d32f2f"/>
    </g>
    <g clip-path="url(#p85de2ab528)">
     <use xlink:href="#m4ba902848d" x="82.236605" y="96.588617" style="fill: #ffffff"/>
    </g>
   </g>
   <g id="line2d_45">
    <path d="M 82.236605 96.588617 
" clip-path="url(#p85de2ab528)" style="fill: none"/>
    <g clip-path="url(#p85de2ab528)">
     <use xlink:href="#mbd72cc4581" x="82.236605" y="96.588617" style="fill-opacity: 0; stroke: #d32f2f; stroke-linejoin: miter"/>
    </g>
   </g>
   <g id="line2d_46">
    <path d="M 34.87321 56.551661 
" clip-path="url(#p85de2ab528)" style="fill: none"/>
    <g clip-path="url(#p85de2ab528)">
     <use xlink:href="#m1c439c7db4" x="34.87321" y="56.551661" style="fill: #d32f2f"/>
    </g>
    <g clip-path="url(#p85de2ab528)">
     <use xlink:href="#m4ba902848d" x="34.87321" y="56.551661" style="fill: #ffffff"/>
    </g>
   </g>
   <g id="line2d_47">
    <path d="M 34.87321 56.551661 
" clip-path="url(#p85de2ab528)" style="fill: none"/>
    <g clip-path="url(#p85de2ab528)">
     <use xlink:href="#mbd72cc4581" x="34.87321" y="56.551661" style="fill-opacity: 0; stroke: #d32f2f; stroke-linejoin: miter"/>
    </g>
   </g>
   <g id="line2d_48">
    <path d="M 82.236605 67.832544 
" clip-path="url(#p85de2ab528)" style="fill: none"/>
    <g clip-path="url(#p85de2ab528)">
     <use xlink:href="#m1c439c7db4" x="82.236605" y="67.832544" style="fill: #d32f2f"/>
    </g>
    <g clip-path="url(#p85de2ab528)">
     <use xlink:href="#m4ba902848d" x="82.236605" y="67.832544" style="fill: #ffffff"/>
    </g>
   </g>
   <g id="line2d_49">
    <path d="M 82.236605 67.832544 
" clip-path="url(#p85de2ab528)" style="fill: none"/>
    <g clip-path="url(#p85de2ab528)">
     <use xlink:href="#mbd72cc4581" x="82.236605" y="67.832544" style="fill-opacity: 0; stroke: #d32f2f; stroke-linejoin: miter"/>
    </g>
   </g>
   <g id="line2d_50">
    <path d="M 88.157029 74.911889 
" clip-path="url(#p85de2ab528)" style="fill: none"/>
    <g clip-path="url(#p85de2ab528)">
     <use xlink:href="#m1c439c7db4" x="88.157029" y="74.911889" style="fill: #d32f2f"/>
    </g>
    <g clip-path="url(#p85de2ab528)">
     <use xlink:href="#m4ba902848d" x="88.157029" y="74.911889" style="fill: #ffffff"/>
    </g>
   </g>
   <g id="line2d_51">
    <path d="M 88.157029 74.911889 
" clip-path="url(#p85de2ab528)" style="fill: none"/>
    <g clip-path="url(#p85de2ab528)">
     <use xlink:href="#mbd72cc4581" x="88.157029" y="74.911889" style="fill-opacity: 0; stroke: #d32f2f; stroke-linejoin: miter"/>
    </g>
   </g>
   <g id="line2d_52">
    <path d="M 52.634483 52.538188 
" clip-path="url(#p85de2ab528)" style="fill: none"/>
    <g clip-path="url(#p85de2ab528)">
     <use xlink:href="#m1c439c7db4" x="52.634483" y="52.538188" style="fill: #d32f2f"/>
    </g>
    <g clip-path="url(#p85de2ab528)">
     <use xlink:href="#m4ba902848d" x="52.634483" y="52.538188" style="fill: #ffffff"/>
    </g>
   </g>
   <g id="line2d_53">
    <path d="M 52.634483 52.538188 
" clip-path="url(#p85de2ab528)" style="fill: none"/>
    <g clip-path="url(#p85de2ab528)">
     <use xlink:href="#mbd72cc4581" x="52.634483" y="52.538188" style="fill-opacity: 0; stroke: #d32f2f; stroke-linejoin: miter"/>
    </g>
   </g>
   <g id="line2d_54">
    <path d="M 99.997878 68.318386 
" clip-path="url(#p85de2ab528)" style="fill: none"/>
    <g clip-path="url(#p85de2ab528)">
     <use xlink:href="#m1c439c7db4" x="99.997878" y="68.318386" style="fill: #d32f2f"/>
    </g>
    <g clip-path="url(#p85de2ab528)">
     <use xlink:href="#m4ba902848d" x="99.997878" y="68.318386" style="fill: #ffffff"/>
    </g>
   </g>
   <g id="line2d_55">
    <path d="M 99.997878 68.318386 
" clip-path="url(#p85de2ab528)" style="fill: none"/>
    <g clip-path="url(#p85de2ab528)">
     <use xlink:href="#mbd72cc4581" x="99.997878" y="68.318386" style="fill-opacity: 0; stroke: #d32f2f; stroke-linejoin: miter"/>
    </g>
   </g>
   <g id="line2d_56">
    <path d="M 111.838727 91.343731 
" clip-path="url(#p85de2ab528)" style="fill: none"/>
    <g clip-path="url(#p85de2ab528)">
     <use xlink:href="#m1c439c7db4" x="111.838727" y="91.343731" style="fill: #d32f2f"/>
    </g>
    <g clip-path="url(#p85de2ab528)">
     <use xlink:href="#m4ba902848d" x="111.838727" y="91.343731" style="fill: #ffffff"/>
    </g>
   </g>
   <g id="line2d_57">
    <path d="M 111.838727 91.343731 
" clip-path="url(#p85de2ab528)" style="fill: none"/>
    <g clip-path="url(#p85de2ab528)">
     <use xlink:href="#mbd72cc4581" x="111.838727" y="91.343731" style="fill-opacity: 0; stroke: #d32f2f; stroke-linejoin: miter"/>
    </g>
   </g>
   <g id="line2d_58">
    <path d="M 46.714058 43.983873 
" clip-path="url(#p85de2ab528)" style="fill: none"/>
    <g clip-path="url(#p85de2ab528)">
     <use xlink:href="#m1c439c7db4" x="46.714058" y="43.983873" style="fill: #d32f2f"/>
    </g>
    <g clip-path="url(#p85de2ab528)">
     <use xlink:href="#m4ba902848d" x="46.714058" y="43.983873" style="fill: #ffffff"/>
    </g>
   </g>
   <g id="line2d_59">
    <path d="M 46.714058 43.983873 
" clip-path="url(#p85de2ab528)" style="fill: none"/>
    <g clip-path="url(#p85de2ab528)">
     <use xlink:href="#mbd72cc4581" x="46.714058" y="43.983873" style="fill-opacity: 0; stroke: #d32f2f; stroke-linejoin: miter"/>
    </g>
   </g>
   <g id="line2d_60">
    <path d="M 99.997878 57.875269 
" clip-path="url(#p85de2ab528)" style="fill: none"/>
    <g clip-path="url(#p85de2ab528)">
     <use xlink:href="#m1c439c7db4" x="99.997878" y="57.875269" style="fill: #d32f2f"/>
    </g>
    <g clip-path="url(#p85de2ab528)">
     <use xlink:href="#m4ba902848d" x="99.997878" y="57.875269" style="fill: #ffffff"/>
    </g>
   </g>
   <g id="line2d_61">
    <path d="M 99.997878 57.875269 
" clip-path="url(#p85de2ab528)" style="fill: none"/>
    <g clip-path="url(#p85de2ab528)">
     <use xlink:href="#mbd72cc4581" x="99.997878" y="57.875269" style="fill-opacity: 0; stroke: #d32f2f; stroke-linejoin: miter"/>
    </g>
   </g>
   <g id="line2d_62">
    <path d="M 123.679576 70.342758 
" clip-path="url(#p85de2ab528)" style="fill: none"/>
    <g clip-path="url(#p85de2ab528)">
     <use xlink:href="#m1c439c7db4" x="123.679576" y="70.342758" style="fill: #d32f2f"/>
    </g>
    <g clip-path="url(#p85de2ab528)">
     <use xlink:href="#m4ba902848d" x="123.679576" y="70.342758" style="fill: #ffffff"/>
    </g>
   </g>
   <g id="line2d_63">
    <path d="M 123.679576 70.342758 
" clip-path="url(#p85de2ab528)" style="fill: none"/>
    <g clip-path="url(#p85de2ab528)">
     <use xlink:href="#mbd72cc4581" x="123.679576" y="70.342758" style="fill-opacity: 0; stroke: #d32f2f; stroke-linejoin: miter"/>
    </g>
   </g>
   <g id="line2d_64">
    <path d="M 23.032361 64.184038 
" clip-path="url(#p85de2ab528)" style="fill: none"/>
    <g clip-path="url(#p85de2ab528)">
     <use xlink:href="#m662d0b0152" x="23.032361" y="64.184038" style="fill: #1976d2"/>
    </g>
    <g clip-path="url(#p85de2ab528)">
     <use xlink:href="#mbb303f5373" x="23.032361" y="64.184038" style="fill: #ffffff"/>
    </g>
   </g>
   <g id="line2d_65">
    <path d="M 23.032361 64.184038 
" clip-path="url(#p85de2ab528)" style="fill: none"/>
    <g clip-path="url(#p85de2ab528)">
     <use xlink:href="#m30d93bf76f" x="23.032361" y="64.184038" style="fill-opacity: 0; stroke: #1976d2; stroke-linejoin: miter"/>
    </g>
   </g>
   <g id="line2d_66">
    <path d="M 28.952785 72.916779 
" clip-path="url(#p85de2ab528)" style="fill: none"/>
    <g clip-path="url(#p85de2ab528)">
     <use xlink:href="#m662d0b0152" x="28.952785" y="72.916779" style="fill: #1976d2"/>
    </g>
    <g clip-path="url(#p85de2ab528)">
     <use xlink:href="#mbb303f5373" x="28.952785" y="72.916779" style="fill: #ffffff"/>
    </g>
   </g>
   <g id="line2d_67">
    <path d="M 28.952785 72.916779 
" clip-path="url(#p85de2ab528)" style="fill: none"/>
    <g clip-path="url(#p85de2ab528)">
     <use xlink:href="#m30d93bf76f" x="28.952785" y="72.916779" style="fill-opacity: 0; stroke: #1976d2; stroke-linejoin: miter"/>
    </g>
   </g>
   <g id="line2d_68">
    <path d="M 34.87321 72.716572 
" clip-path="url(#p85de2ab528)" style="fill: none"/>
    <g clip-path="url(#p85de2ab528)">
     <use xlink:href="#m662d0b0152" x="34.87321" y="72.716572" style="fill: #1976d2"/>
    </g>
    <g clip-path="url(#p85de2ab528)">
     <use xlink:href="#mbb303f5373" x="34.87321" y="72.716572" style="fill: #ffffff"/>
    </g>
   </g>
   <g id="line2d_69">
    <path d="M 34.87321 72.716572 
" clip-path="url(#p85de2ab528)" style="fill: none"/>
    <g clip-path="url(#p85de2ab528)">
     <use xlink:href="#m30d93bf76f" x="34.87321" y="72.716572" style="fill-opacity: 0; stroke: #1976d2; stroke-linejoin: miter"/>
    </g>
   </g>
   <g id="line2d_70">
    <path d="M 23.032361 80.18183 
" clip-path="url(#p85de2ab528)" style="fill: none"/>
    <g clip-path="url(#p85de2ab528)">
     <use xlink:href="#m662d0b0152" x="23.032361" y="80.18183" style="fill: #1976d2"/>
    </g>
    <g clip-path="url(#p85de2ab528)">
     <use xlink:href="#mbb303f5373" x="23.032361" y="80.18183" style="fill: #ffffff"/>
    </g>
   </g>
   <g id="line2d_71">
    <path d="M 23.032361 80.18183 
" clip-path="url(#p85de2ab528)" style="fill: none"/>
    <g clip-path="url(#p85de2ab528)">
     <use xlink:href="#m30d93bf76f" x="23.032361" y="80.18183" style="fill-opacity: 0; stroke: #1976d2; stroke-linejoin: miter"/>
    </g>
   </g>
   <g id="line2d_72">
    <path d="M 34.87321 80.221539 
" clip-path="url(#p85de2ab528)" style="fill: none"/>
    <g clip-path="url(#p85de2ab528)">
     <use xlink:href="#m662d0b0152" x="34.87321" y="80.221539" style="fill: #1976d2"/>
    </g>
    <g clip-path="url(#p85de2ab528)">
     <use xlink:href="#mbb303f5373" x="34.87321" y="80.221539" style="fill: #ffffff"/>
    </g>
   </g>
   <g id="line2d_73">
    <path d="M 34.87321 80.221539 
" clip-path="url(#p85de2ab528)" style="fill: none"/>
    <g clip-path="url(#p85de2ab528)">
     <use xlink:href="#m30d93bf76f" x="34.87321" y="80.221539" style="fill-opacity: 0; stroke: #1976d2; stroke-linejoin: miter"/>
    </g>
   </g>
   <g id="line2d_74">
    <path d="M 64.475332 88.541717 
" clip-path="url(#p85de2ab528)" style="fill: none"/>
    <g clip-path="url(#p85de2ab528)">
     <use xlink:href="#m662d0b0152" x="64.475332" y="88.541717" style="fill: #1976d2"/>
    </g>
    <g clip-path="url(#p85de2ab528)">
     <use xlink:href="#mbb303f5373" x="64.475332" y="88.541717" style="fill: #ffffff"/>
    </g>
   </g>
   <g id="line2d_75">
    <path d="M 64.475332 88.541717 
" clip-path="url(#p85de2ab528)" style="fill: none"/>
    <g clip-path="url(#p85de2ab528)">
     <use xlink:href="#m30d93bf76f" x="64.475332" y="88.541717" style="fill-opacity: 0; stroke: #1976d2; stroke-linejoin: miter"/>
    </g>
   </g>
   <g id="line2d_76">
    <path clip-path="url(#p85de2ab528)" style="fill: none"/>
    <g clip-path="url(#p85de2ab528)"/>
    <g clip-path="url(#p85de2ab528)"/>
   </g>
   <g id="line2d_77">
    <path clip-path="url(#p85de2ab528)" style="fill: none"/>
    <g clip-path="url(#p85de2ab528)"/>
   </g>
   <g id="line2d_78">
    <path d="M 40.793634 94.586905 
" clip-path="url(#p85de2ab528)" style="fill: none"/>
    <g clip-path="url(#p85de2ab528)">
     <use xlink:href="#m662d0b0152" x="40.793634" y="94.586905" style="fill: #1976d2"/>
    </g>
    <g clip-path="url(#p85de2ab528)">
     <use xlink:href="#mbb303f5373" x="40.793634" y="94.586905" style="fill: #ffffff"/>
    </g>
   </g>
   <g id="line2d_79">
    <path d="M 40.793634 94.586905 
" clip-path="url(#p85de2ab528)" style="fill: none"/>
    <g clip-path="url(#p85de2ab528)">
     <use xlink:href="#m30d93bf76f" x="40.793634" y="94.586905" style="fill-opacity: 0; stroke: #1976d2; stroke-linejoin: miter"/>
    </g>
   </g>
   <g id="line2d_80">
    <path d="M 58.554907 83.595807 
" clip-path="url(#p85de2ab528)" style="fill: none"/>
    <g clip-path="url(#p85de2ab528)">
     <use xlink:href="#m662d0b0152" x="58.554907" y="83.595807" style="fill: #1976d2"/>
    </g>
    <g clip-path="url(#p85de2ab528)">
     <use xlink:href="#mbb303f5373" x="58.554907" y="83.595807" style="fill: #ffffff"/>
    </g>
   </g>
   <g id="line2d_81">
    <path d="M 58.554907 83.595807 
" clip-path="url(#p85de2ab528)" style="fill: none"/>
    <g clip-path="url(#p85de2ab528)">
     <use xlink:href="#m30d93bf76f" x="58.554907" y="83.595807" style="fill-opacity: 0; stroke: #1976d2; stroke-linejoin: miter"/>
    </g>
   </g>
   <g id="line2d_82">
    <path clip-path="url(#p85de2ab528)" style="fill: none"/>
    <g clip-path="url(#p85de2ab528)"/>
    <g clip-path="url(#p85de2ab528)"/>
   </g>
   <g id="line2d_83">
    <path clip-path="url(#p85de2ab528)" style="fill: none"/>
    <g clip-path="url(#p85de2ab528)"/>
   </g>
   <g id="line2d_84">
    <path d="M 28.952785 82.02331 
" clip-path="url(#p85de2ab528)" style="fill: none"/>
    <g clip-path="url(#p85de2ab528)">
     <use xlink:href="#m662d0b0152" x="28.952785" y="82.02331" style="fill: #1976d2"/>
    </g>
    <g clip-path="url(#p85de2ab528)">
     <use xlink:href="#mbb303f5373" x="28.952785" y="82.02331" style="fill: #ffffff"/>
    </g>
   </g>
   <g id="line2d_85">
    <path d="M 28.952785 82.02331 
" clip-path="url(#p85de2ab528)" style="fill: none"/>
    <g clip-path="url(#p85de2ab528)">
     <use xlink:href="#m30d93bf76f" x="28.952785" y="82.02331" style="fill-opacity: 0; stroke: #1976d2; stroke-linejoin: miter"/>
    </g>
   </g>
   <g id="line2d_86">
    <path d="M 40.793634 80.67069 
" clip-path="url(#p85de2ab528)" style="fill: none"/>
    <g clip-path="url(#p85de2ab528)">
     <use xlink:href="#m662d0b0152" x="40.793634" y="80.67069" style="fill: #1976d2"/>
    </g>
    <g clip-path="url(#p85de2ab528)">
     <use xlink:href="#mbb303f5373" x="40.793634" y="80.67069" style="fill: #ffffff"/>
    </g>
   </g>
   <g id="line2d_87">
    <path d="M 40.793634 80.67069 
" clip-path="url(#p85de2ab528)" style="fill: none"/>
    <g clip-path="url(#p85de2ab528)">
     <use xlink:href="#m30d93bf76f" x="40.793634" y="80.67069" style="fill-opacity: 0; stroke: #1976d2; stroke-linejoin: miter"/>
    </g>
   </g>
   <g id="patch_3">
    <path d="M 18 128.16 
L 18 17.28 
" style="fill: none; stroke: #000000; stroke-width: 0.8; stroke-linejoin: miter; stroke-linecap: square"/>
   </g>
   <g id="patch_4">
    <path d="M 18 72.72 
L 129.6 72.72 
" style="fill: none; stroke: #000000; stroke-width: 0.8; stroke-linejoin: miter; stroke-linecap: square"/>
   </g>
   <g id="text_4">
    <!-- HLA-C -0.66 -->
    <g transform="translate(38.055 11.28) scale(0.12 -0.12)">
     <defs>
      <path id="DejaVuSans-48" d="M 628 4666 
L 1259 4666 
L 1259 2753 
L 3553 2753 
L 3553 4666 
L 4184 4666 
L 4184 0 
L 3553 0 
L 3553 2222 
L 1259 2222 
L 1259 0 
L 628 0 
L 628 4666 
z
" transform="scale(0.015625)"/>
      <path id="DejaVuSans-4c" d="M 628 4666 
L 1259 4666 
L 1259 531 
L 3531 531 
L 3531 0 
L 628 0 
L 628 4666 
z
" transform="scale(0.015625)"/>
      <path id="DejaVuSans-41" d="M 2188 4044 
L 1331 1722 
L 3047 1722 
L 2188 4044 
z
M 1831 4666 
L 2547 4666 
L 4325 0 
L 3669 0 
L 3244 1197 
L 1141 1197 
L 716 0 
L 50 0 
L 1831 4666 
z
" transform="scale(0.015625)"/>
      <path id="DejaVuSans-2d" d="M 313 2009 
L 1997 2009 
L 1997 1497 
L 313 1497 
L 313 2009 
z
" transform="scale(0.015625)"/>
      <path id="DejaVuSans-43" d="M 4122 4306 
L 4122 3641 
Q 3803 3938 3442 4084 
Q 3081 4231 2675 4231 
Q 1875 4231 1450 3742 
Q 1025 3253 1025 2328 
Q 1025 1406 1450 917 
Q 1875 428 2675 428 
Q 3081 428 3442 575 
Q 3803 722 4122 1019 
L 4122 359 
Q 3791 134 3420 21 
Q 3050 -91 2638 -91 
Q 1578 -91 968 557 
Q 359 1206 359 2328 
Q 359 3453 968 4101 
Q 1578 4750 2638 4750 
Q 3056 4750 3426 4639 
Q 3797 4528 4122 4306 
z
" transform="scale(0.015625)"/>
      <path id="DejaVuSans-20" transform="scale(0.015625)"/>
      <path id="DejaVuSans-2e" d="M 684 794 
L 1344 794 
L 1344 0 
L 684 0 
L 684 794 
z
" transform="scale(0.015625)"/>
      <path id="DejaVuSans-36" d="M 2113 2584 
Q 1688 2584 1439 2293 
Q 1191 2003 1191 1497 
Q 1191 994 1439 701 
Q 1688 409 2113 409 
Q 2538 409 2786 701 
Q 3034 994 3034 1497 
Q 3034 2003 2786 2293 
Q 2538 2584 2113 2584 
z
M 3366 4563 
L 3366 3988 
Q 3128 4100 2886 4159 
Q 2644 4219 2406 4219 
Q 1781 4219 1451 3797 
Q 1122 3375 1075 2522 
Q 1259 2794 1537 2939 
Q 1816 3084 2150 3084 
Q 2853 3084 3261 2657 
Q 3669 2231 3669 1497 
Q 3669 778 3244 343 
Q 2819 -91 2113 -91 
Q 1303 -91 875 529 
Q 447 1150 447 2328 
Q 447 3434 972 4092 
Q 1497 4750 2381 4750 
Q 2619 4750 2861 4703 
Q 3103 4656 3366 4563 
z
" transform="scale(0.015625)"/>
     </defs>
     <use xlink:href="#DejaVuSans-48"/>
     <use xlink:href="#DejaVuSans-4c" transform="translate(75.195312 0)"/>
     <use xlink:href="#DejaVuSans-41" transform="translate(133.158203 0)"/>
     <use xlink:href="#DejaVuSans-2d" transform="translate(199.316406 0)"/>
     <use xlink:href="#DejaVuSans-43" transform="translate(235.400391 0)"/>
     <use xlink:href="#DejaVuSans-20" transform="translate(305.224609 0)"/>
     <use xlink:href="#DejaVuSans-2d" transform="translate(337.011719 0)"/>
     <use xlink:href="#DejaVuSans-30" transform="translate(373.095703 0)"/>
     <use xlink:href="#DejaVuSans-2e" transform="translate(436.71875 0)"/>
     <use xlink:href="#DejaVuSans-36" transform="translate(468.505859 0)"/>
     <use xlink:href="#DejaVuSans-36" transform="translate(532.128906 0)"/>
    </g>
   </g>
  </g>
 </g>
 <defs>
  <clipPath id="p85de2ab528">
   <rect x="18" y="17.28" width="111.6" height="110.88"/>
  </clipPath>
 </defs>
</svg>
