<?xml version="1.0" encoding="utf-8" standalone="no"?>
<!DOCTYPE svg PUBLIC "-//W3C//DTD SVG 1.1//EN"
  "http://www.w3.org/Graphics/SVG/1.1/DTD/svg11.dtd">
<svg xmlns:xlink="http://www.w3.org/1999/xlink" width="144pt" height="144pt" viewBox="0 0 144 144" xmlns="http://www.w3.org/2000/svg" version="1.1">
 <metadata>
  <rdf:RDF xmlns:dc="http://purl.org/dc/elements/1.1/" xmlns:cc="http://creativecommons.org/ns#" xmlns:rdf="http://www.w3.org/1999/02/22-rdf-syntax-ns#">
   <cc:Work>
    <dc:type rdf:resource="http://purl.org/dc/dcmitype/StillImage"/>
    <dc:date>2026-02-17T13:08:27.465975</dc:date>
    <dc:format>image/svg+xml</dc:format>
    <dc:creator>
     <cc:Agent>
      <dc:title>Matplotlib v3.10.6, https://matplotlib.org/</dc:title>
     </cc:Agent>
    </dc:creator>
   </cc:Work>
  </rdf:RDF>
 </metadata>
 <defs>
  <style type="text/css">*{stroke-linejoin: round; stroke-linecap: butt}</style>
 </defs>
 <g id="figure_1">
  <g id="patch_1">
   <path d="M 0 144 
L 144 144 
L 144 0 
L 0 0 
z
" style="fill: #ffffff"/>
  </g>
  <g id="axes_1">
   <g id="patch_2">
    <path d="M 18 128.16 
L 129.6 128.16 
L 129.6 17.28 
L 18 17.28 
z
" style="fill: #ffffff"/>
   </g>
   <g id="matplotlib.axis_1">
    <g id="xtick_1">
     <g id="line2d_1">
      <defs>
       <path id="m6a3cba1c93" d="M 0 0 
L 0 3.5 
" style="stroke: #000000; stroke-width: 0.8"/>
      </defs>
      <g>
       <use xlink:href="#m6a3cba1c93" x="76.31618" y="72.72" style="stroke: #000000; stroke-width: 0.8"/>
      </g>
     </g>
    </g>
    <g id="xtick_2">
     <g id="line2d_2">
      <g>
       <use xlink:href="#m6a3cba1c93" x="129.6" y="72.72" style="stroke: #000000; stroke-width: 0.8"/>
      </g>
     </g>
    </g>
   </g>
   <g id="matplotlib.axis_2">
    <g id="ytick_1">
     <g id="line2d_3">
      <defs>
       <path id="m1f1c3d13df" d="M 0 0 
L -3.5 0 
" style="stroke: #000000; stroke-width: 0.8"/>
      </defs>
      <g>
       <use xlink:href="#m1f1c3d13df" x="18" y="104.4" style="stroke: #000000; stroke-width: 0.8"/>
      </g>
     </g>
     <g id="text_1">
      <!-- −2 -->
      <g transform="translate(-3.742188 108.199219) scale(0.1 -0.1)">
       <defs>
        <path id="DejaVuSans-2212" d="M 678 2272 
L 4684 2272 
L 4684 1741 
L 678 1741 
L 678 2272 
z
" transform="scale(0.015625)"/>
        <path id="DejaVuSans-32" d="M 1228 531 
L 3431 531 
L 3431 0 
L 469 0 
L 469 531 
Q 828 903 1448 1529 
Q 2069 2156 2228 2338 
Q 2531 2678 2651 2914 
Q 2772 3150 2772 3378 
Q 2772 3750 2511 3984 
Q 2250 4219 1831 4219 
Q 1534 4219 1204 4116 
Q 875 4013 500 3803 
L 500 4441 
Q 881 4594 1212 4672 
Q 1544 4750 1819 4750 
Q 2544 4750 2975 4387 
Q 3406 4025 3406 3419 
Q 3406 3131 3298 2873 
Q 3191 2616 2906 2266 
Q 2828 2175 2409 1742 
Q 1991 1309 1228 531 
z
" transform="scale(0.015625)"/>
       </defs>
       <use xlink:href="#DejaVuSans-2212"/>
       <use xlink:href="#DejaVuSans-32" transform="translate(83.789062 0)"/>
      </g>
     </g>
    </g>
    <g id="ytick_2">
     <g id="line2d_4">
      <g>
       <use xlink:href="#m1f1c3d13df" x="18" y="72.72" style="stroke: #000000; stroke-width: 0.8"/>
      </g>
     </g>
     <g id="text_2">
      <!-- 0 -->
      <g transform="translate(4.6375 76.519219) scale(0.1 -0.1)">
       <defs>
        <path id="DejaVuSans-30" d="M 2034 4250 
Q 1547 4250 1301 3770 
Q 1056 3291 1056 2328 
Q 1056 1369 1301 889 
Q 1547 409 2034 409 
Q 2525 409 2770 889 
Q 3016 1369 3016 2328 
Q 3016 3291 2770 3770 
Q 2525 4250 2034 4250 
z
M 2034 4750 
Q 2819 4750 3233 4129 
Q 3647 3509 3647 2328 
Q 3647 1150 3233 529 
Q 2819 -91 2034 -91 
Q 1250 -91 836 529 
Q 422 1150 422 2328 
Q 422 3509 836 4129 
Q 1250 4750 2034 4750 
z
" transform="scale(0.015625)"/>
       </defs>
       <use xlink:href="#DejaVuSans-30"/>
      </g>
     </g>
    </g>
    <g id="ytick_3">
     <g id="line2d_5">
      <g>
       <use xlink:href="#m1f1c3d13df" x="18" y="41.04" style="stroke: #000000; stroke-width: 0.8"/>
      </g>
     </g>
     <g id="text_3">
      <!-- 2 -->
      <g transform="translate(4.6375 44.839219) scale(0.1 -0.1)">
       <use xlink:href="#DejaVuSans-32"/>
      </g>
     </g>
    </g>
   </g>
   <g id="line2d_6">
    <path d="M 40.793634 69.028463 
" clip-path="url(#p1c75fcf2b9)" style="fill: none"/>
    <defs>
     <path id="mbbcb39c9b4" d="M 0 -4.242641 
L -4.242641 -0 
L -0 4.242641 
L 0 -4.242641 
"/>
    </defs>
    <g clip-path="url(#p1c75fcf2b9)">
     <use xlink:href="#mbbcb39c9b4" x="40.793634" y="69.028463" style="fill: #d32f2f"/>
    </g>
    <defs>
     <path id="m2cefd0bc9c" d="M 0 -4.242641 
L 4.242641 0 
L -0 4.242641 
L 0 -4.242641 
"/>
    </defs>
    <g clip-path="url(#p1c75fcf2b9)">
     <use xlink:href="#m2cefd0bc9c" x="40.793634" y="69.028463" style="fill: #ffffff"/>
    </g>
   </g>
   <g id="line2d_7">
    <path d="M 40.793634 69.028463 
" clip-path="url(#p1c75fcf2b9)" style="fill: none"/>
    <defs>
     <path id="m3a91588130" d="M -0 4.242641 
L 4.242641 0 
L 0 -4.242641 
L -4.242641 -0 
z
" style="stroke: #d32f2f; stroke-linejoin: miter"/>
    </defs>
    <g clip-path="url(#p1c75fcf2b9)">
     <use xlink:href="#m3a91588130" x="40.793634" y="69.028463" style="fill-opacity: 0; stroke: #d32f2f; stroke-linejoin: miter"/>
    </g>
   </g>
   <g id="line2d_8">
    <path d="M 58.554907 65.728549 
" clip-path="url(#p1c75fcf2b9)" style="fill: none"/>
    <g clip-path="url(#p1c75fcf2b9)">
     <use xlink:href="#mbbcb39c9b4" x="58.554907" y="65.728549" style="fill: #d32f2f"/>
    </g>
    <g clip-path="url(#p1c75fcf2b9)">
     <use xlink:href="#m2cefd0bc9c" x="58.554907" y="65.728549" style="fill: #ffffff"/>
    </g>
   </g>
   <g id="line2d_9">
    <path d="M 58.554907 65.728549 
" clip-path="url(#p1c75fcf2b9)" style="fill: none"/>
    <g clip-path="url(#p1c75fcf2b9)">
     <use xlink:href="#m3a91588130" x="58.554907" y="65.728549" style="fill-opacity: 0; stroke: #d32f2f; stroke-linejoin: miter"/>
    </g>
   </g>
   <g id="line2d_10">
    <path d="M 64.475332 69.879284 
" clip-path="url(#p1c75fcf2b9)" style="fill: none"/>
    <g clip-path="url(#p1c75fcf2b9)">
     <use xlink:href="#mbbcb39c9b4" x="64.475332" y="69.879284" style="fill: #d32f2f"/>
    </g>
    <g clip-path="url(#p1c75fcf2b9)">
     <use xlink:href="#m2cefd0bc9c" x="64.475332" y="69.879284" style="fill: #ffffff"/>
    </g>
   </g>
   <g id="line2d_11">
    <path d="M 64.475332 69.879284 
" clip-path="url(#p1c75fcf2b9)" style="fill: none"/>
    <g clip-path="url(#p1c75fcf2b9)">
     <use xlink:href="#m3a91588130" x="64.475332" y="69.879284" style="fill-opacity: 0; stroke: #d32f2f; stroke-linejoin: miter"/>
    </g>
   </g>
   <g id="line2d_12">
    <path d="M 23.032361 88.088924 
" clip-path="url(#p1c75fcf2b9)" style="fill: none"/>
    <defs>
     <path id="m4c34041986" d="M -0 4.242641 
L 4.242641 0 
L 0 -4.242641 
L -0 4.242641 
"/>
    </defs>
    <g clip-path="url(#p1c75fcf2b9)">
     <use xlink:href="#m4c34041986" x="23.032361" y="88.088924" style="fill: #1976d2"/>
    </g>
    <defs>
     <path id="m0d35d2bf65" d="M -0 4.242641 
L -4.242641 -0 
L 0 -4.242641 
L -0 4.242641 
"/>
    </defs>
    <g clip-path="url(#p1c75fcf2b9)">
     <use xlink:href="#m0d35d2bf65" x="23.032361" y="88.088924" style="fill: #ffffff"/>
    </g>
   </g>
   <g id="line2d_13">
    <path d="M 23.032361 88.088924 
" clip-path="url(#p1c75fcf2b9)" style="fill: none"/>
    <defs>
     <path id="mdbda3d2dee" d="M -0 4.242641 
L 4.242641 0 
L 0 -4.242641 
L -4.242641 -0 
z
" style="stroke: #1976d2; stroke-linejoin: miter"/>
    </defs>
    <g clip-path="url(#p1c75fcf2b9)">
     <use xlink:href="#mdbda3d2dee" x="23.032361" y="88.088924" style="fill-opacity: 0; stroke: #1976d2; stroke-linejoin: miter"/>
    </g>
   </g>
   <g id="line2d_14">
    <path d="M 23.032361 95.821311 
" clip-path="url(#p1c75fcf2b9)" style="fill: none"/>
    <g clip-path="url(#p1c75fcf2b9)">
     <use xlink:href="#m4c34041986" x="23.032361" y="95.821311" style="fill: #1976d2"/>
    </g>
    <g clip-path="url(#p1c75fcf2b9)">
     <use xlink:href="#m0d35d2bf65" x="23.032361" y="95.821311" style="fill: #ffffff"/>
    </g>
   </g>
   <g id="line2d_15">
    <path d="M 23.032361 95.821311 
" clip-path="url(#p1c75fcf2b9)" style="fill: none"/>
    <g clip-path="url(#p1c75fcf2b9)">
     <use xlink:href="#mdbda3d2dee" x="23.032361" y="95.821311" style="fill-opacity: 0; stroke: #1976d2; stroke-linejoin: miter"/>
    </g>
   </g>
   <g id="line2d_16">
    <path d="M 23.032361 95.553926 
" clip-path="url(#p1c75fcf2b9)" style="fill: none"/>
    <g clip-path="url(#p1c75fcf2b9)">
     <use xlink:href="#m4c34041986" x="23.032361" y="95.553926" style="fill: #1976d2"/>
    </g>
    <g clip-path="url(#p1c75fcf2b9)">
     <use xlink:href="#m0d35d2bf65" x="23.032361" y="95.553926" style="fill: #ffffff"/>
    </g>
   </g>
   <g id="line2d_17">
    <path d="M 23.032361 95.553926 
" clip-path="url(#p1c75fcf2b9)" style="fill: none"/>
    <g clip-path="url(#p1c75fcf2b9)">
     <use xlink:href="#mdbda3d2dee" x="23.032361" y="95.553926" style="fill-opacity: 0; stroke: #1976d2; stroke-linejoin: miter"/>
    </g>
   </g>
   <g id="line2d_18">
    <path d="M 28.952785 57.270466 
" clip-path="url(#p1c75fcf2b9)" style="fill: none"/>
    <g clip-path="url(#p1c75fcf2b9)">
     <use xlink:href="#mbbcb39c9b4" x="28.952785" y="57.270466" style="fill: #d32f2f"/>
    </g>
    <g clip-path="url(#p1c75fcf2b9)">
     <use xlink:href="#m2cefd0bc9c" x="28.952785" y="57.270466" style="fill: #ffffff"/>
    </g>
   </g>
   <g id="line2d_19">
    <path d="M 28.952785 57.270466 
" clip-path="url(#p1c75fcf2b9)" style="fill: none"/>
    <g clip-path="url(#p1c75fcf2b9)">
     <use xlink:href="#m3a91588130" x="28.952785" y="57.270466" style="fill-opacity: 0; stroke: #d32f2f; stroke-linejoin: miter"/>
    </g>
   </g>
   <g id="line2d_20">
    <path d="M 52.634483 64.042636 
" clip-path="url(#p1c75fcf2b9)" style="fill: none"/>
    <g clip-path="url(#p1c75fcf2b9)">
     <use xlink:href="#mbbcb39c9b4" x="52.634483" y="64.042636" style="fill: #d32f2f"/>
    </g>
    <g clip-path="url(#p1c75fcf2b9)">
     <use xlink:href="#m2cefd0bc9c" x="52.634483" y="64.042636" style="fill: #ffffff"/>
    </g>
   </g>
   <g id="line2d_21">
    <path d="M 52.634483 64.042636 
" clip-path="url(#p1c75fcf2b9)" style="fill: none"/>
    <g clip-path="url(#p1c75fcf2b9)">
     <use xlink:href="#m3a91588130" x="52.634483" y="64.042636" style="fill-opacity: 0; stroke: #d32f2f; stroke-linejoin: miter"/>
    </g>
   </g>
   <g id="line2d_22">
    <path d="M 82.236605 75.315677 
" clip-path="url(#p1c75fcf2b9)" style="fill: none"/>
    <g clip-path="url(#p1c75fcf2b9)">
     <use xlink:href="#mbbcb39c9b4" x="82.236605" y="75.315677" style="fill: #d32f2f"/>
    </g>
    <g clip-path="url(#p1c75fcf2b9)">
     <use xlink:href="#m2cefd0bc9c" x="82.236605" y="75.315677" style="fill: #ffffff"/>
    </g>
   </g>
   <g id="line2d_23">
    <path d="M 82.236605 75.315677 
" clip-path="url(#p1c75fcf2b9)" style="fill: none"/>
    <g clip-path="url(#p1c75fcf2b9)">
     <use xlink:href="#m3a91588130" x="82.236605" y="75.315677" style="fill-opacity: 0; stroke: #d32f2f; stroke-linejoin: miter"/>
    </g>
   </g>
   <g id="line2d_24">
    <path d="M 23.032361 66.075075 
" clip-path="url(#p1c75fcf2b9)" style="fill: none"/>
    <g clip-path="url(#p1c75fcf2b9)">
     <use xlink:href="#m4c34041986" x="23.032361" y="66.075075" style="fill: #1976d2"/>
    </g>
    <g clip-path="url(#p1c75fcf2b9)">
     <use xlink:href="#m0d35d2bf65" x="23.032361" y="66.075075" style="fill: #ffffff"/>
    </g>
   </g>
   <g id="line2d_25">
    <path d="M 23.032361 66.075075 
" clip-path="url(#p1c75fcf2b9)" style="fill: none"/>
    <g clip-path="url(#p1c75fcf2b9)">
     <use xlink:href="#mdbda3d2dee" x="23.032361" y="66.075075" style="fill-opacity: 0; stroke: #1976d2; stroke-linejoin: miter"/>
    </g>
   </g>
   <g id="line2d_26">
    <path d="M 28.952785 85.440138 
" clip-path="url(#p1c75fcf2b9)" style="fill: none"/>
    <g clip-path="url(#p1c75fcf2b9)">
     <use xlink:href="#m4c34041986" x="28.952785" y="85.440138" style="fill: #1976d2"/>
    </g>
    <g clip-path="url(#p1c75fcf2b9)">
     <use xlink:href="#m0d35d2bf65" x="28.952785" y="85.440138" style="fill: #ffffff"/>
    </g>
   </g>
   <g id="line2d_27">
    <path d="M 28.952785 85.440138 
" clip-path="url(#p1c75fcf2b9)" style="fill: none"/>
    <g clip-path="url(#p1c75fcf2b9)">
     <use xlink:href="#mdbda3d2dee" x="28.952785" y="85.440138" style="fill-opacity: 0; stroke: #1976d2; stroke-linejoin: miter"/>
    </g>
   </g>
   <g id="line2d_28">
    <path d="M 23.032361 48.429442 
" clip-path="url(#p1c75fcf2b9)" style="fill: none"/>
    <g clip-path="url(#p1c75fcf2b9)">
     <use xlink:href="#mbbcb39c9b4" x="23.032361" y="48.429442" style="fill: #d32f2f"/>
    </g>
    <g clip-path="url(#p1c75fcf2b9)">
     <use xlink:href="#m2cefd0bc9c" x="23.032361" y="48.429442" style="fill: #ffffff"/>
    </g>
   </g>
   <g id="line2d_29">
    <path d="M 23.032361 48.429442 
" clip-path="url(#p1c75fcf2b9)" style="fill: none"/>
    <g clip-path="url(#p1c75fcf2b9)">
     <use xlink:href="#m3a91588130" x="23.032361" y="48.429442" style="fill-opacity: 0; stroke: #d32f2f; stroke-linejoin: miter"/>
    </g>
   </g>
   <g id="line2d_30">
    <path d="M 64.475332 72.086791 
" clip-path="url(#p1c75fcf2b9)" style="fill: none"/>
    <g clip-path="url(#p1c75fcf2b9)">
     <use xlink:href="#mbbcb39c9b4" x="64.475332" y="72.086791" style="fill: #d32f2f"/>
    </g>
    <g clip-path="url(#p1c75fcf2b9)">
     <use xlink:href="#m2cefd0bc9c" x="64.475332" y="72.086791" style="fill: #ffffff"/>
    </g>
   </g>
   <g id="line2d_31">
    <path d="M 64.475332 72.086791 
" clip-path="url(#p1c75fcf2b9)" style="fill: none"/>
    <g clip-path="url(#p1c75fcf2b9)">
     <use xlink:href="#m3a91588130" x="64.475332" y="72.086791" style="fill-opacity: 0; stroke: #d32f2f; stroke-linejoin: miter"/>
    </g>
   </g>
   <g id="line2d_32">
    <path d="M 70.395756 73.302879 
" clip-path="url(#p1c75fcf2b9)" style="fill: none"/>
    <g clip-path="url(#p1c75fcf2b9)">
     <use xlink:href="#mbbcb39c9b4" x="70.395756" y="73.302879" style="fill: #d32f2f"/>
    </g>
    <g clip-path="url(#p1c75fcf2b9)">
     <use xlink:href="#m2cefd0bc9c" x="70.395756" y="73.302879" style="fill: #ffffff"/>
    </g>
   </g>
   <g id="line2d_33">
    <path d="M 70.395756 73.302879 
" clip-path="url(#p1c75fcf2b9)" style="fill: none"/>
    <g clip-path="url(#p1c75fcf2b9)">
     <use xlink:href="#m3a91588130" x="70.395756" y="73.302879" style="fill-opacity: 0; stroke: #d32f2f; stroke-linejoin: miter"/>
    </g>
   </g>
   <g id="line2d_34">
    <path d="M 28.952785 77.16234 
" clip-path="url(#p1c75fcf2b9)" style="fill: none"/>
    <g clip-path="url(#p1c75fcf2b9)">
     <use xlink:href="#m4c34041986" x="28.952785" y="77.16234" style="fill: #1976d2"/>
    </g>
    <g clip-path="url(#p1c75fcf2b9)">
     <use xlink:href="#m0d35d2bf65" x="28.952785" y="77.16234" style="fill: #ffffff"/>
    </g>
   </g>
   <g id="line2d_35">
    <path d="M 28.952785 77.16234 
" clip-path="url(#p1c75fcf2b9)" style="fill: none"/>
    <g clip-path="url(#p1c75fcf2b9)">
     <use xlink:href="#mdbda3d2dee" x="28.952785" y="77.16234" style="fill-opacity: 0; stroke: #1976d2; stroke-linejoin: miter"/>
    </g>
   </g>
   <g id="line2d_36">
    <path d="M 34.87321 55.66034 
" clip-path="url(#p1c75fcf2b9)" style="fill: none"/>
    <g clip-path="url(#p1c75fcf2b9)">
     <use xlink:href="#m4c34041986" x="34.87321" y="55.66034" style="fill: #1976d2"/>
    </g>
    <g clip-path="url(#p1c75fcf2b9)">
     <use xlink:href="#m0d35d2bf65" x="34.87321" y="55.66034" style="fill: #ffffff"/>
    </g>
   </g>
   <g id="line2d_37">
    <path d="M 34.87321 55.66034 
" clip-path="url(#p1c75fcf2b9)" style="fill: none"/>
    <g clip-path="url(#p1c75fcf2b9)">
     <use xlink:href="#mdbda3d2dee" x="34.87321" y="55.66034" style="fill-opacity: 0; stroke: #1976d2; stroke-linejoin: miter"/>
    </g>
   </g>
   <g id="line2d_38">
    <path d="M 40.793634 76.765061 
" clip-path="url(#p1c75fcf2b9)" style="fill: none"/>
    <g clip-path="url(#p1c75fcf2b9)">
     <use xlink:href="#m4c34041986" x="40.793634" y="76.765061" style="fill: #1976d2"/>
    </g>
    <g clip-path="url(#p1c75fcf2b9)">
     <use xlink:href="#m0d35d2bf65" x="40.793634" y="76.765061" style="fill: #ffffff"/>
    </g>
   </g>
   <g id="line2d_39">
    <path d="M 40.793634 76.765061 
" clip-path="url(#p1c75fcf2b9)" style="fill: none"/>
    <g clip-path="url(#p1c75fcf2b9)">
     <use xlink:href="#mdbda3d2dee" x="40.793634" y="76.765061" style="fill-opacity: 0; stroke: #1976d2; stroke-linejoin: miter"/>
    </g>
   </g>
   <g id="line2d_40">
    <path d="M 23.032361 34.676381 
" clip-path="url(#p1c75fcf2b9)" style="fill: none"/>
    <g clip-path="url(#p1c75fcf2b9)">
     <use xlink:href="#mbbcb39c9b4" x="23.032361" y="34.676381" style="fill: #d32f2f"/>
    </g>
    <g clip-path="url(#p1c75fcf2b9)">
     <use xlink:href="#m2cefd0bc9c" x="23.032361" y="34.676381" style="fill: #ffffff"/>
    </g>
   </g>
   <g id="line2d_41">
    <path d="M 23.032361 34.676381 
" clip-path="url(#p1c75fcf2b9)" style="fill: none"/>
    <g clip-path="url(#p1c75fcf2b9)">
     <use xlink:href="#m3a91588130" x="23.032361" y="34.676381" style="fill-opacity: 0; stroke: #d32f2f; stroke-linejoin: miter"/>
    </g>
   </g>
   <g id="line2d_42">
    <path d="M 40.793634 50.09933 
" clip-path="url(#p1c75fcf2b9)" style="fill: none"/>
    <g clip-path="url(#p1c75fcf2b9)">
     <use xlink:href="#mbbcb39c9b4" x="40.793634" y="50.09933" style="fill: #d32f2f"/>
    </g>
    <g clip-path="url(#p1c75fcf2b9)">
     <use xlink:href="#m2cefd0bc9c" x="40.793634" y="50.09933" style="fill: #ffffff"/>
    </g>
   </g>
   <g id="line2d_43">
    <path d="M 40.793634 50.09933 
" clip-path="url(#p1c75fcf2b9)" style="fill: none"/>
    <g clip-path="url(#p1c75fcf2b9)">
     <use xlink:href="#m3a91588130" x="40.793634" y="50.09933" style="fill-opacity: 0; stroke: #d32f2f; stroke-linejoin: miter"/>
    </g>
   </g>
   <g id="line2d_44">
    <path d="M 82.236605 86.136837 
" clip-path="url(#p1c75fcf2b9)" style="fill: none"/>
    <g clip-path="url(#p1c75fcf2b9)">
     <use xlink:href="#mbbcb39c9b4" x="82.236605" y="86.136837" style="fill: #d32f2f"/>
    </g>
    <g clip-path="url(#p1c75fcf2b9)">
     <use xlink:href="#m2cefd0bc9c" x="82.236605" y="86.136837" style="fill: #ffffff"/>
    </g>
   </g>
   <g id="line2d_45">
    <path d="M 82.236605 86.136837 
" clip-path="url(#p1c75fcf2b9)" style="fill: none"/>
    <g clip-path="url(#p1c75fcf2b9)">
     <use xlink:href="#m3a91588130" x="82.236605" y="86.136837" style="fill-opacity: 0; stroke: #d32f2f; stroke-linejoin: miter"/>
    </g>
   </g>
   <g id="line2d_46">
    <path d="M 34.87321 64.745855 
" clip-path="url(#p1c75fcf2b9)" style="fill: none"/>
    <g clip-path="url(#p1c75fcf2b9)">
     <use xlink:href="#mbbcb39c9b4" x="34.87321" y="64.745855" style="fill: #d32f2f"/>
    </g>
    <g clip-path="url(#p1c75fcf2b9)">
     <use xlink:href="#m2cefd0bc9c" x="34.87321" y="64.745855" style="fill: #ffffff"/>
    </g>
   </g>
   <g id="line2d_47">
    <path d="M 34.87321 64.745855 
" clip-path="url(#p1c75fcf2b9)" style="fill: none"/>
    <g clip-path="url(#p1c75fcf2b9)">
     <use xlink:href="#m3a91588130" x="34.87321" y="64.745855" style="fill-opacity: 0; stroke: #d32f2f; stroke-linejoin: miter"/>
    </g>
   </g>
   <g id="line2d_48">
    <path d="M 82.236605 60.486258 
" clip-path="url(#p1c75fcf2b9)" style="fill: none"/>
    <g clip-path="url(#p1c75fcf2b9)">
     <use xlink:href="#mbbcb39c9b4" x="82.236605" y="60.486258" style="fill: #d32f2f"/>
    </g>
    <g clip-path="url(#p1c75fcf2b9)">
     <use xlink:href="#m2cefd0bc9c" x="82.236605" y="60.486258" style="fill: #ffffff"/>
    </g>
   </g>
   <g id="line2d_49">
    <path d="M 82.236605 60.486258 
" clip-path="url(#p1c75fcf2b9)" style="fill: none"/>
    <g clip-path="url(#p1c75fcf2b9)">
     <use xlink:href="#m3a91588130" x="82.236605" y="60.486258" style="fill-opacity: 0; stroke: #d32f2f; stroke-linejoin: miter"/>
    </g>
   </g>
   <g id="line2d_50">
    <path d="M 88.157029 80.561841 
" clip-path="url(#p1c75fcf2b9)" style="fill: none"/>
    <g clip-path="url(#p1c75fcf2b9)">
     <use xlink:href="#mbbcb39c9b4" x="88.157029" y="80.561841" style="fill: #d32f2f"/>
    </g>
    <g clip-path="url(#p1c75fcf2b9)">
     <use xlink:href="#m2cefd0bc9c" x="88.157029" y="80.561841" style="fill: #ffffff"/>
    </g>
   </g>
   <g id="line2d_51">
    <path d="M 88.157029 80.561841 
" clip-path="url(#p1c75fcf2b9)" style="fill: none"/>
    <g clip-path="url(#p1c75fcf2b9)">
     <use xlink:href="#m3a91588130" x="88.157029" y="80.561841" style="fill-opacity: 0; stroke: #d32f2f; stroke-linejoin: miter"/>
    </g>
   </g>
   <g id="line2d_52">
    <path d="M 52.634483 54.475907 
" clip-path="url(#p1c75fcf2b9)" style="fill: none"/>
    <g clip-path="url(#p1c75fcf2b9)">
     <use xlink:href="#mbbcb39c9b4" x="52.634483" y="54.475907" style="fill: #d32f2f"/>
    </g>
    <g clip-path="url(#p1c75fcf2b9)">
     <use xlink:href="#m2cefd0bc9c" x="52.634483" y="54.475907" style="fill: #ffffff"/>
    </g>
   </g>
   <g id="line2d_53">
    <path d="M 52.634483 54.475907 
" clip-path="url(#p1c75fcf2b9)" style="fill: none"/>
    <g clip-path="url(#p1c75fcf2b9)">
     <use xlink:href="#m3a91588130" x="52.634483" y="54.475907" style="fill-opacity: 0; stroke: #d32f2f; stroke-linejoin: miter"/>
    </g>
   </g>
   <g id="line2d_54">
    <path d="M 99.997878 61.824881 
" clip-path="url(#p1c75fcf2b9)" style="fill: none"/>
    <g clip-path="url(#p1c75fcf2b9)">
     <use xlink:href="#mbbcb39c9b4" x="99.997878" y="61.824881" style="fill: #d32f2f"/>
    </g>
    <g clip-path="url(#p1c75fcf2b9)">
     <use xlink:href="#m2cefd0bc9c" x="99.997878" y="61.824881" style="fill: #ffffff"/>
    </g>
   </g>
   <g id="line2d_55">
    <path d="M 99.997878 61.824881 
" clip-path="url(#p1c75fcf2b9)" style="fill: none"/>
    <g clip-path="url(#p1c75fcf2b9)">
     <use xlink:href="#m3a91588130" x="99.997878" y="61.824881" style="fill-opacity: 0; stroke: #d32f2f; stroke-linejoin: miter"/>
    </g>
   </g>
   <g id="line2d_56">
    <path d="M 111.838727 95.926123 
" clip-path="url(#p1c75fcf2b9)" style="fill: none"/>
    <g clip-path="url(#p1c75fcf2b9)">
     <use xlink:href="#mbbcb39c9b4" x="111.838727" y="95.926123" style="fill: #d32f2f"/>
    </g>
    <g clip-path="url(#p1c75fcf2b9)">
     <use xlink:href="#m2cefd0bc9c" x="111.838727" y="95.926123" style="fill: #ffffff"/>
    </g>
   </g>
   <g id="line2d_57">
    <path d="M 111.838727 95.926123 
" clip-path="url(#p1c75fcf2b9)" style="fill: none"/>
    <g clip-path="url(#p1c75fcf2b9)">
     <use xlink:href="#m3a91588130" x="111.838727" y="95.926123" style="fill-opacity: 0; stroke: #d32f2f; stroke-linejoin: miter"/>
    </g>
   </g>
   <g id="line2d_58">
    <path d="M 46.714058 38.369881 
" clip-path="url(#p1c75fcf2b9)" style="fill: none"/>
    <g clip-path="url(#p1c75fcf2b9)">
     <use xlink:href="#mbbcb39c9b4" x="46.714058" y="38.369881" style="fill: #d32f2f"/>
    </g>
    <g clip-path="url(#p1c75fcf2b9)">
     <use xlink:href="#m2cefd0bc9c" x="46.714058" y="38.369881" style="fill: #ffffff"/>
    </g>
   </g>
   <g id="line2d_59">
    <path d="M 46.714058 38.369881 
" clip-path="url(#p1c75fcf2b9)" style="fill: none"/>
    <g clip-path="url(#p1c75fcf2b9)">
     <use xlink:href="#m3a91588130" x="46.714058" y="38.369881" style="fill-opacity: 0; stroke: #d32f2f; stroke-linejoin: miter"/>
    </g>
   </g>
   <g id="line2d_60">
    <path d="M 99.997878 56.875631 
" clip-path="url(#p1c75fcf2b9)" style="fill: none"/>
    <g clip-path="url(#p1c75fcf2b9)">
     <use xlink:href="#mbbcb39c9b4" x="99.997878" y="56.875631" style="fill: #d32f2f"/>
    </g>
    <g clip-path="url(#p1c75fcf2b9)">
     <use xlink:href="#m2cefd0bc9c" x="99.997878" y="56.875631" style="fill: #ffffff"/>
    </g>
   </g>
   <g id="line2d_61">
    <path d="M 99.997878 56.875631 
" clip-path="url(#p1c75fcf2b9)" style="fill: none"/>
    <g clip-path="url(#p1c75fcf2b9)">
     <use xlink:href="#m3a91588130" x="99.997878" y="56.875631" style="fill-opacity: 0; stroke: #d32f2f; stroke-linejoin: miter"/>
    </g>
   </g>
   <g id="line2d_62">
    <path d="M 123.679576 63.330377 
" clip-path="url(#p1c75fcf2b9)" style="fill: none"/>
    <g clip-path="url(#p1c75fcf2b9)">
     <use xlink:href="#mbbcb39c9b4" x="123.679576" y="63.330377" style="fill: #d32f2f"/>
    </g>
    <g clip-path="url(#p1c75fcf2b9)">
     <use xlink:href="#m2cefd0bc9c" x="123.679576" y="63.330377" style="fill: #ffffff"/>
    </g>
   </g>
   <g id="line2d_63">
    <path d="M 123.679576 63.330377 
" clip-path="url(#p1c75fcf2b9)" style="fill: none"/>
    <g clip-path="url(#p1c75fcf2b9)">
     <use xlink:href="#m3a91588130" x="123.679576" y="63.330377" style="fill-opacity: 0; stroke: #d32f2f; stroke-linejoin: miter"/>
    </g>
   </g>
   <g id="line2d_64">
    <path d="M 23.032361 71.282216 
" clip-path="url(#p1c75fcf2b9)" style="fill: none"/>
    <g clip-path="url(#p1c75fcf2b9)">
     <use xlink:href="#m4c34041986" x="23.032361" y="71.282216" style="fill: #1976d2"/>
    </g>
    <g clip-path="url(#p1c75fcf2b9)">
     <use xlink:href="#m0d35d2bf65" x="23.032361" y="71.282216" style="fill: #ffffff"/>
    </g>
   </g>
   <g id="line2d_65">
    <path d="M 23.032361 71.282216 
" clip-path="url(#p1c75fcf2b9)" style="fill: none"/>
    <g clip-path="url(#p1c75fcf2b9)">
     <use xlink:href="#mdbda3d2dee" x="23.032361" y="71.282216" style="fill-opacity: 0; stroke: #1976d2; stroke-linejoin: miter"/>
    </g>
   </g>
   <g id="line2d_66">
    <path d="M 28.952785 78.192124 
" clip-path="url(#p1c75fcf2b9)" style="fill: none"/>
    <g clip-path="url(#p1c75fcf2b9)">
     <use xlink:href="#m4c34041986" x="28.952785" y="78.192124" style="fill: #1976d2"/>
    </g>
    <g clip-path="url(#p1c75fcf2b9)">
     <use xlink:href="#m0d35d2bf65" x="28.952785" y="78.192124" style="fill: #ffffff"/>
    </g>
   </g>
   <g id="line2d_67">
    <path d="M 28.952785 78.192124 
" clip-path="url(#p1c75fcf2b9)" style="fill: none"/>
    <g clip-path="url(#p1c75fcf2b9)">
     <use xlink:href="#mdbda3d2dee" x="28.952785" y="78.192124" style="fill-opacity: 0; stroke: #1976d2; stroke-linejoin: miter"/>
    </g>
   </g>
   <g id="line2d_68">
    <path d="M 34.87321 72.295742 
" clip-path="url(#p1c75fcf2b9)" style="fill: none"/>
    <g clip-path="url(#p1c75fcf2b9)">
     <use xlink:href="#m4c34041986" x="34.87321" y="72.295742" style="fill: #1976d2"/>
    </g>
    <g clip-path="url(#p1c75fcf2b9)">
     <use xlink:href="#m0d35d2bf65" x="34.87321" y="72.295742" style="fill: #ffffff"/>
    </g>
   </g>
   <g id="line2d_69">
    <path d="M 34.87321 72.295742 
" clip-path="url(#p1c75fcf2b9)" style="fill: none"/>
    <g clip-path="url(#p1c75fcf2b9)">
     <use xlink:href="#mdbda3d2dee" x="34.87321" y="72.295742" style="fill-opacity: 0; stroke: #1976d2; stroke-linejoin: miter"/>
    </g>
   </g>
   <g id="line2d_70">
    <path d="M 23.032361 75.670701 
" clip-path="url(#p1c75fcf2b9)" style="fill: none"/>
    <g clip-path="url(#p1c75fcf2b9)">
     <use xlink:href="#m4c34041986" x="23.032361" y="75.670701" style="fill: #1976d2"/>
    </g>
    <g clip-path="url(#p1c75fcf2b9)">
     <use xlink:href="#m0d35d2bf65" x="23.032361" y="75.670701" style="fill: #ffffff"/>
    </g>
   </g>
   <g id="line2d_71">
    <path d="M 23.032361 75.670701 
" clip-path="url(#p1c75fcf2b9)" style="fill: none"/>
    <g clip-path="url(#p1c75fcf2b9)">
     <use xlink:href="#mdbda3d2dee" x="23.032361" y="75.670701" style="fill-opacity: 0; stroke: #1976d2; stroke-linejoin: miter"/>
    </g>
   </g>
   <g id="line2d_72">
    <path d="M 34.87321 82.571781 
" clip-path="url(#p1c75fcf2b9)" style="fill: none"/>
    <g clip-path="url(#p1c75fcf2b9)">
     <use xlink:href="#m4c34041986" x="34.87321" y="82.571781" style="fill: #1976d2"/>
    </g>
    <g clip-path="url(#p1c75fcf2b9)">
     <use xlink:href="#m0d35d2bf65" x="34.87321" y="82.571781" style="fill: #ffffff"/>
    </g>
   </g>
   <g id="line2d_73">
    <path d="M 34.87321 82.571781 
" clip-path="url(#p1c75fcf2b9)" style="fill: none"/>
    <g clip-path="url(#p1c75fcf2b9)">
     <use xlink:href="#mdbda3d2dee" x="34.87321" y="82.571781" style="fill-opacity: 0; stroke: #1976d2; stroke-linejoin: miter"/>
    </g>
   </g>
   <g id="line2d_74">
    <path d="M 64.475332 91.68635 
" clip-path="url(#p1c75fcf2b9)" style="fill: none"/>
    <g clip-path="url(#p1c75fcf2b9)">
     <use xlink:href="#m4c34041986" x="64.475332" y="91.68635" style="fill: #1976d2"/>
    </g>
    <g clip-path="url(#p1c75fcf2b9)">
     <use xlink:href="#m0d35d2bf65" x="64.475332" y="91.68635" style="fill: #ffffff"/>
    </g>
   </g>
   <g id="line2d_75">
    <path d="M 64.475332 91.68635 
" clip-path="url(#p1c75fcf2b9)" style="fill: none"/>
    <g clip-path="url(#p1c75fcf2b9)">
     <use xlink:href="#mdbda3d2dee" x="64.475332" y="91.68635" style="fill-opacity: 0; stroke: #1976d2; stroke-linejoin: miter"/>
    </g>
   </g>
   <g id="line2d_76">
    <path clip-path="url(#p1c75fcf2b9)" style="fill: none"/>
    <g clip-path="url(#p1c75fcf2b9)"/>
    <g clip-path="url(#p1c75fcf2b9)"/>
   </g>
   <g id="line2d_77">
    <path clip-path="url(#p1c75fcf2b9)" style="fill: none"/>
    <g clip-path="url(#p1c75fcf2b9)"/>
   </g>
   <g id="line2d_78">
    <path d="M 40.793634 103.635161 
" clip-path="url(#p1c75fcf2b9)" style="fill: none"/>
    <g clip-path="url(#p1c75fcf2b9)">
     <use xlink:href="#m4c34041986" x="40.793634" y="103.635161" style="fill: #1976d2"/>
    </g>
    <g clip-path="url(#p1c75fcf2b9)">
     <use xlink:href="#m0d35d2bf65" x="40.793634" y="103.635161" style="fill: #ffffff"/>
    </g>
   </g>
   <g id="line2d_79">
    <path d="M 40.793634 103.635161 
" clip-path="url(#p1c75fcf2b9)" style="fill: none"/>
    <g clip-path="url(#p1c75fcf2b9)">
     <use xlink:href="#mdbda3d2dee" x="40.793634" y="103.635161" style="fill-opacity: 0; stroke: #1976d2; stroke-linejoin: miter"/>
    </g>
   </g>
   <g id="line2d_80">
    <path d="M 58.554907 78.606767 
" clip-path="url(#p1c75fcf2b9)" style="fill: none"/>
    <g clip-path="url(#p1c75fcf2b9)">
     <use xlink:href="#m4c34041986" x="58.554907" y="78.606767" style="fill: #1976d2"/>
    </g>
    <g clip-path="url(#p1c75fcf2b9)">
     <use xlink:href="#m0d35d2bf65" x="58.554907" y="78.606767" style="fill: #ffffff"/>
    </g>
   </g>
   <g id="line2d_81">
    <path d="M 58.554907 78.606767 
" clip-path="url(#p1c75fcf2b9)" style="fill: none"/>
    <g clip-path="url(#p1c75fcf2b9)">
     <use xlink:href="#mdbda3d2dee" x="58.554907" y="78.606767" style="fill-opacity: 0; stroke: #1976d2; stroke-linejoin: miter"/>
    </g>
   </g>
   <g id="line2d_82">
    <path clip-path="url(#p1c75fcf2b9)" style="fill: none"/>
    <g clip-path="url(#p1c75fcf2b9)"/>
    <g clip-path="url(#p1c75fcf2b9)"/>
   </g>
   <g id="line2d_83">
    <path clip-path="url(#p1c75fcf2b9)" style="fill: none"/>
    <g clip-path="url(#p1c75fcf2b9)"/>
   </g>
   <g id="line2d_84">
    <path d="M 28.952785 80.149163 
" clip-path="url(#p1c75fcf2b9)" style="fill: none"/>
    <g clip-path="url(#p1c75fcf2b9)">
     <use xlink:href="#m4c34041986" x="28.952785" y="80.149163" style="fill: #1976d2"/>
    </g>
    <g clip-path="url(#p1c75fcf2b9)">
     <use xlink:href="#m0d35d2bf65" x="28.952785" y="80.149163" style="fill: #ffffff"/>
    </g>
   </g>
   <g id="line2d_85">
    <path d="M 28.952785 80.149163 
" clip-path="url(#p1c75fcf2b9)" style="fill: none"/>
    <g clip-path="url(#p1c75fcf2b9)">
     <use xlink:href="#mdbda3d2dee" x="28.952785" y="80.149163" style="fill-opacity: 0; stroke: #1976d2; stroke-linejoin: miter"/>
    </g>
   </g>
   <g id="line2d_86">
    <path d="M 40.793634 84.749299 
" clip-path="url(#p1c75fcf2b9)" style="fill: none"/>
    <g clip-path="url(#p1c75fcf2b9)">
     <use xlink:href="#m4c34041986" x="40.793634" y="84.749299" style="fill: #1976d2"/>
    </g>
    <g clip-path="url(#p1c75fcf2b9)">
     <use xlink:href="#m0d35d2bf65" x="40.793634" y="84.749299" style="fill: #ffffff"/>
    </g>
   </g>
   <g id="line2d_87">
    <path d="M 40.793634 84.749299 
" clip-path="url(#p1c75fcf2b9)" style="fill: none"/>
    <g clip-path="url(#p1c75fcf2b9)">
     <use xlink:href="#mdbda3d2dee" x="40.793634" y="84.749299" style="fill-opacity: 0; stroke: #1976d2; stroke-linejoin: miter"/>
    </g>
   </g>
   <g id="patch_3">
    <path d="M 18 128.16 
L 18 17.28 
" style="fill: none; stroke: #000000; stroke-width: 0.8; stroke-linejoin: miter; stroke-linecap: square"/>
   </g>
   <g id="patch_4">
    <path d="M 18 72.72 
L 129.6 72.72 
" style="fill: none; stroke: #000000; stroke-width: 0.8; stroke-linejoin: miter; stroke-linecap: square"/>
   </g>
   <g id="text_4">
    <!-- HSPA5 -0.54 -->
    <g transform="translate(36.890625 11.28) scale(0.12 -0.12)">
     <defs>
      <path id="DejaVuSans-48" d="M 628 4666 
L 1259 4666 
L 1259 2753 
L 3553 2753 
L 3553 4666 
L 4184 4666 
L 4184 0 
L 3553 0 
L 3553 2222 
L 1259 2222 
L 1259 0 
L 628 0 
L 628 4666 
z
" transform="scale(0.015625)"/>
      <path id="DejaVuSans-53" d="M 3425 4513 
L 3425 3897 
Q 3066 4069 2747 4153 
Q 2428 4238 2131 4238 
Q 1616 4238 1336 4038 
Q 1056 3838 1056 3469 
Q 1056 3159 1242 3001 
Q 1428 2844 1947 2747 
L 2328 2669 
Q 3034 2534 3370 2195 
Q 3706 1856 3706 1288 
Q 3706 609 3251 259 
Q 2797 -91 1919 -91 
Q 1588 -91 1214 -16 
Q 841 59 441 206 
L 441 856 
Q 825 641 1194 531 
Q 1563 422 1919 422 
Q 2459 422 2753 634 
Q 3047 847 3047 1241 
Q 3047 1584 2836 1778 
Q 2625 1972 2144 2069 
L 1759 2144 
Q 1053 2284 737 2584 
Q 422 2884 422 3419 
Q 422 4038 858 4394 
Q 1294 4750 2059 4750 
Q 2388 4750 2728 4690 
Q 3069 4631 3425 4513 
z
" transform="scale(0.015625)"/>
      <path id="DejaVuSans-50" d="M 1259 4147 
L 1259 2394 
L 2053 2394 
Q 2494 2394 2734 2622 
Q 2975 2850 2975 3272 
Q 2975 3691 2734 3919 
Q 2494 4147 2053 4147 
L 1259 4147 
z
M 628 4666 
L 2053 4666 
Q 2838 4666 3239 4311 
Q 3641 3956 3641 3272 
Q 3641 2581 3239 2228 
Q 2838 1875 2053 1875 
L 1259 1875 
L 1259 0 
L 628 0 
L 628 4666 
z
" transform="scale(0.015625)"/>
      <path id="DejaVuSans-41" d="M 2188 4044 
L 1331 1722 
L 3047 1722 
L 2188 4044 
z
M 1831 4666 
L 2547 4666 
L 4325 0 
L 3669 0 
L 3244 1197 
L 1141 1197 
L 716 0 
L 50 0 
L 1831 4666 
z
" transform="scale(0.015625)"/>
      <path id="DejaVuSans-35" d="M 691 4666 
L 3169 4666 
L 3169 4134 
L 1269 4134 
L 1269 2991 
Q 1406 3038 1543 3061 
Q 1681 3084 1819 3084 
Q 2600 3084 3056 2656 
Q 3513 2228 3513 1497 
Q 3513 744 3044 326 
Q 2575 -91 1722 -91 
Q 1428 -91 1123 -41 
Q 819 9 494 109 
L 494 744 
Q 775 591 1075 516 
Q 1375 441 1709 441 
Q 2250 441 2565 725 
Q 2881 1009 2881 1497 
Q 2881 1984 2565 2268 
Q 2250 2553 1709 2553 
Q 1456 2553 1204 2497 
Q 953 2441 691 2322 
L 691 4666 
z
" transform="scale(0.015625)"/>
      <path id="DejaVuSans-20" transform="scale(0.015625)"/>
      <path id="DejaVuSans-2d" d="M 313 2009 
L 1997 2009 
L 1997 1497 
L 313 1497 
L 313 2009 
z
" transform="scale(0.015625)"/>
      <path id="DejaVuSans-2e" d="M 684 794 
L 1344 794 
L 1344 0 
L 684 0 
L 684 794 
z
" transform="scale(0.015625)"/>
      <path id="DejaVuSans-34" d="M 2419 4116 
L 825 1625 
L 2419 1625 
L 2419 4116 
z
M 2253 4666 
L 3047 4666 
L 3047 1625 
L 3713 1625 
L 3713 1100 
L 3047 1100 
L 3047 0 
L 2419 0 
L 2419 1100 
L 313 1100 
L 313 1709 
L 2253 4666 
z
" transform="scale(0.015625)"/>
     </defs>
     <use xlink:href="#DejaVuSans-48"/>
     <use xlink:href="#DejaVuSans-53" transform="translate(75.195312 0)"/>
     <use xlink:href="#DejaVuSans-50" transform="translate(138.671875 0)"/>
     <use xlink:href="#DejaVuSans-41" transform="translate(192.599609 0)"/>
     <use xlink:href="#DejaVuSans-35" transform="translate(261.007812 0)"/>
     <use xlink:href="#DejaVuSans-20" transform="translate(324.630859 0)"/>
     <use xlink:href="#DejaVuSans-2d" transform="translate(356.417969 0)"/>
     <use xlink:href="#DejaVuSans-30" transform="translate(392.501953 0)"/>
     <use xlink:href="#DejaVuSans-2e" transform="translate(456.125 0)"/>
     <use xlink:href="#DejaVuSans-35" transform="translate(487.912109 0)"/>
     <use xlink:href="#DejaVuSans-34" transform="translate(551.535156 0)"/>
    </g>
   </g>
  </g>
 </g>
 <defs>
  <clipPath id="p1c75fcf2b9">
   <rect x="18" y="17.28" width="111.6" height="110.88"/>
  </clipPath>
 </defs>
</svg>
