<?xml version="1.0" encoding="utf-8" standalone="no"?>
<!DOCTYPE svg PUBLIC "-//W3C//DTD SVG 1.1//EN"
  "http://www.w3.org/Graphics/SVG/1.1/DTD/svg11.dtd">
<svg xmlns:xlink="http://www.w3.org/1999/xlink" width="144pt" height="144pt" viewBox="0 0 144 144" xmlns="http://www.w3.org/2000/svg" version="1.1">
 <metadata>
  <rdf:RDF xmlns:dc="http://purl.org/dc/elements/1.1/" xmlns:cc="http://creativecommons.org/ns#" xmlns:rdf="http://www.w3.org/1999/02/22-rdf-syntax-ns#">
   <cc:Work>
    <dc:type rdf:resource="http://purl.org/dc/dcmitype/StillImage"/>
    <dc:date>2026-02-17T13:08:28.690377</dc:date>
    <dc:format>image/svg+xml</dc:format>
    <dc:creator>
     <cc:Agent>
      <dc:title>Matplotlib v3.10.6, https://matplotlib.org/</dc:title>
     </cc:Agent>
    </dc:creator>
   </cc:Work>
  </rdf:RDF>
 </metadata>
 <defs>
  <style type="text/css">*{stroke-linejoin: round; stroke-linecap: butt}</style>
 </defs>
 <g id="figure_1">
  <g id="patch_1">
   <path d="M 0 144 
L 144 144 
L 144 0 
L 0 0 
z
" style="fill: #ffffff"/>
  </g>
  <g id="axes_1">
   <g id="patch_2">
    <path d="M 18 128.16 
L 129.6 128.16 
L 129.6 17.28 
L 18 17.28 
z
" style="fill: #ffffff"/>
   </g>
   <g id="matplotlib.axis_1">
    <g id="xtick_1">
     <g id="line2d_1">
      <defs>
       <path id="m53b0888741" d="M 0 0 
L 0 3.5 
" style="stroke: #000000; stroke-width: 0.8"/>
      </defs>
      <g>
       <use xlink:href="#m53b0888741" x="76.31618" y="72.72" style="stroke: #000000; stroke-width: 0.8"/>
      </g>
     </g>
    </g>
    <g id="xtick_2">
     <g id="line2d_2">
      <g>
       <use xlink:href="#m53b0888741" x="129.6" y="72.72" style="stroke: #000000; stroke-width: 0.8"/>
      </g>
     </g>
    </g>
   </g>
   <g id="matplotlib.axis_2">
    <g id="ytick_1">
     <g id="line2d_3">
      <defs>
       <path id="mb0e4ffb062" d="M 0 0 
L -3.5 0 
" style="stroke: #000000; stroke-width: 0.8"/>
      </defs>
      <g>
       <use xlink:href="#mb0e4ffb062" x="18" y="104.4" style="stroke: #000000; stroke-width: 0.8"/>
      </g>
     </g>
     <g id="text_1">
      <!-- −2 -->
      <g transform="translate(-3.742188 108.199219) scale(0.1 -0.1)">
       <defs>
        <path id="DejaVuSans-2212" d="M 678 2272 
L 4684 2272 
L 4684 1741 
L 678 1741 
L 678 2272 
z
" transform="scale(0.015625)"/>
        <path id="DejaVuSans-32" d="M 1228 531 
L 3431 531 
L 3431 0 
L 469 0 
L 469 531 
Q 828 903 1448 1529 
Q 2069 2156 2228 2338 
Q 2531 2678 2651 2914 
Q 2772 3150 2772 3378 
Q 2772 3750 2511 3984 
Q 2250 4219 1831 4219 
Q 1534 4219 1204 4116 
Q 875 4013 500 3803 
L 500 4441 
Q 881 4594 1212 4672 
Q 1544 4750 1819 4750 
Q 2544 4750 2975 4387 
Q 3406 4025 3406 3419 
Q 3406 3131 3298 2873 
Q 3191 2616 2906 2266 
Q 2828 2175 2409 1742 
Q 1991 1309 1228 531 
z
" transform="scale(0.015625)"/>
       </defs>
       <use xlink:href="#DejaVuSans-2212"/>
       <use xlink:href="#DejaVuSans-32" transform="translate(83.789062 0)"/>
      </g>
     </g>
    </g>
    <g id="ytick_2">
     <g id="line2d_4">
      <g>
       <use xlink:href="#mb0e4ffb062" x="18" y="72.72" style="stroke: #000000; stroke-width: 0.8"/>
      </g>
     </g>
     <g id="text_2">
      <!-- 0 -->
      <g transform="translate(4.6375 76.519219) scale(0.1 -0.1)">
       <defs>
        <path id="DejaVuSans-30" d="M 2034 4250 
Q 1547 4250 1301 3770 
Q 1056 3291 1056 2328 
Q 1056 1369 1301 889 
Q 1547 409 2034 409 
Q 2525 409 2770 889 
Q 3016 1369 3016 2328 
Q 3016 3291 2770 3770 
Q 2525 4250 2034 4250 
z
M 2034 4750 
Q 2819 4750 3233 4129 
Q 3647 3509 3647 2328 
Q 3647 1150 3233 529 
Q 2819 -91 2034 -91 
Q 1250 -91 836 529 
Q 422 1150 422 2328 
Q 422 3509 836 4129 
Q 1250 4750 2034 4750 
z
" transform="scale(0.015625)"/>
       </defs>
       <use xlink:href="#DejaVuSans-30"/>
      </g>
     </g>
    </g>
    <g id="ytick_3">
     <g id="line2d_5">
      <g>
       <use xlink:href="#mb0e4ffb062" x="18" y="41.04" style="stroke: #000000; stroke-width: 0.8"/>
      </g>
     </g>
     <g id="text_3">
      <!-- 2 -->
      <g transform="translate(4.6375 44.839219) scale(0.1 -0.1)">
       <use xlink:href="#DejaVuSans-32"/>
      </g>
     </g>
    </g>
   </g>
   <g id="line2d_6">
    <path d="M 40.793634 72.218936 
" clip-path="url(#pdff70aa93c)" style="fill: none"/>
    <defs>
     <path id="m68b8f5e757" d="M 0 -4.242641 
L -4.242641 -0 
L -0 4.242641 
L 0 -4.242641 
"/>
    </defs>
    <g clip-path="url(#pdff70aa93c)">
     <use xlink:href="#m68b8f5e757" x="40.793634" y="72.218936" style="fill: #d32f2f"/>
    </g>
    <defs>
     <path id="m28e96f6565" d="M 0 -4.242641 
L 4.242641 0 
L -0 4.242641 
L 0 -4.242641 
"/>
    </defs>
    <g clip-path="url(#pdff70aa93c)">
     <use xlink:href="#m28e96f6565" x="40.793634" y="72.218936" style="fill: #ffffff"/>
    </g>
   </g>
   <g id="line2d_7">
    <path d="M 40.793634 72.218936 
" clip-path="url(#pdff70aa93c)" style="fill: none"/>
    <defs>
     <path id="mcf3191c6cc" d="M -0 4.242641 
L 4.242641 0 
L 0 -4.242641 
L -4.242641 -0 
z
" style="stroke: #d32f2f; stroke-linejoin: miter"/>
    </defs>
    <g clip-path="url(#pdff70aa93c)">
     <use xlink:href="#mcf3191c6cc" x="40.793634" y="72.218936" style="fill-opacity: 0; stroke: #d32f2f; stroke-linejoin: miter"/>
    </g>
   </g>
   <g id="line2d_8">
    <path d="M 58.554907 69.227617 
" clip-path="url(#pdff70aa93c)" style="fill: none"/>
    <g clip-path="url(#pdff70aa93c)">
     <use xlink:href="#m68b8f5e757" x="58.554907" y="69.227617" style="fill: #d32f2f"/>
    </g>
    <g clip-path="url(#pdff70aa93c)">
     <use xlink:href="#m28e96f6565" x="58.554907" y="69.227617" style="fill: #ffffff"/>
    </g>
   </g>
   <g id="line2d_9">
    <path d="M 58.554907 69.227617 
" clip-path="url(#pdff70aa93c)" style="fill: none"/>
    <g clip-path="url(#pdff70aa93c)">
     <use xlink:href="#mcf3191c6cc" x="58.554907" y="69.227617" style="fill-opacity: 0; stroke: #d32f2f; stroke-linejoin: miter"/>
    </g>
   </g>
   <g id="line2d_10">
    <path d="M 64.475332 69.571052 
" clip-path="url(#pdff70aa93c)" style="fill: none"/>
    <g clip-path="url(#pdff70aa93c)">
     <use xlink:href="#m68b8f5e757" x="64.475332" y="69.571052" style="fill: #d32f2f"/>
    </g>
    <g clip-path="url(#pdff70aa93c)">
     <use xlink:href="#m28e96f6565" x="64.475332" y="69.571052" style="fill: #ffffff"/>
    </g>
   </g>
   <g id="line2d_11">
    <path d="M 64.475332 69.571052 
" clip-path="url(#pdff70aa93c)" style="fill: none"/>
    <g clip-path="url(#pdff70aa93c)">
     <use xlink:href="#mcf3191c6cc" x="64.475332" y="69.571052" style="fill-opacity: 0; stroke: #d32f2f; stroke-linejoin: miter"/>
    </g>
   </g>
   <g id="line2d_12">
    <path d="M 23.032361 89.233783 
" clip-path="url(#pdff70aa93c)" style="fill: none"/>
    <defs>
     <path id="mb780c8c8b1" d="M -0 4.242641 
L 4.242641 0 
L 0 -4.242641 
L -0 4.242641 
"/>
    </defs>
    <g clip-path="url(#pdff70aa93c)">
     <use xlink:href="#mb780c8c8b1" x="23.032361" y="89.233783" style="fill: #1976d2"/>
    </g>
    <defs>
     <path id="m1f7991d245" d="M -0 4.242641 
L -4.242641 -0 
L 0 -4.242641 
L -0 4.242641 
"/>
    </defs>
    <g clip-path="url(#pdff70aa93c)">
     <use xlink:href="#m1f7991d245" x="23.032361" y="89.233783" style="fill: #ffffff"/>
    </g>
   </g>
   <g id="line2d_13">
    <path d="M 23.032361 89.233783 
" clip-path="url(#pdff70aa93c)" style="fill: none"/>
    <defs>
     <path id="mfa372a36aa" d="M -0 4.242641 
L 4.242641 0 
L 0 -4.242641 
L -4.242641 -0 
z
" style="stroke: #1976d2; stroke-linejoin: miter"/>
    </defs>
    <g clip-path="url(#pdff70aa93c)">
     <use xlink:href="#mfa372a36aa" x="23.032361" y="89.233783" style="fill-opacity: 0; stroke: #1976d2; stroke-linejoin: miter"/>
    </g>
   </g>
   <g id="line2d_14">
    <path d="M 23.032361 93.394632 
" clip-path="url(#pdff70aa93c)" style="fill: none"/>
    <g clip-path="url(#pdff70aa93c)">
     <use xlink:href="#mb780c8c8b1" x="23.032361" y="93.394632" style="fill: #1976d2"/>
    </g>
    <g clip-path="url(#pdff70aa93c)">
     <use xlink:href="#m1f7991d245" x="23.032361" y="93.394632" style="fill: #ffffff"/>
    </g>
   </g>
   <g id="line2d_15">
    <path d="M 23.032361 93.394632 
" clip-path="url(#pdff70aa93c)" style="fill: none"/>
    <g clip-path="url(#pdff70aa93c)">
     <use xlink:href="#mfa372a36aa" x="23.032361" y="93.394632" style="fill-opacity: 0; stroke: #1976d2; stroke-linejoin: miter"/>
    </g>
   </g>
   <g id="line2d_16">
    <path d="M 23.032361 93.566069 
" clip-path="url(#pdff70aa93c)" style="fill: none"/>
    <g clip-path="url(#pdff70aa93c)">
     <use xlink:href="#mb780c8c8b1" x="23.032361" y="93.566069" style="fill: #1976d2"/>
    </g>
    <g clip-path="url(#pdff70aa93c)">
     <use xlink:href="#m1f7991d245" x="23.032361" y="93.566069" style="fill: #ffffff"/>
    </g>
   </g>
   <g id="line2d_17">
    <path d="M 23.032361 93.566069 
" clip-path="url(#pdff70aa93c)" style="fill: none"/>
    <g clip-path="url(#pdff70aa93c)">
     <use xlink:href="#mfa372a36aa" x="23.032361" y="93.566069" style="fill-opacity: 0; stroke: #1976d2; stroke-linejoin: miter"/>
    </g>
   </g>
   <g id="line2d_18">
    <path d="M 28.952785 55.613952 
" clip-path="url(#pdff70aa93c)" style="fill: none"/>
    <g clip-path="url(#pdff70aa93c)">
     <use xlink:href="#m68b8f5e757" x="28.952785" y="55.613952" style="fill: #d32f2f"/>
    </g>
    <g clip-path="url(#pdff70aa93c)">
     <use xlink:href="#m28e96f6565" x="28.952785" y="55.613952" style="fill: #ffffff"/>
    </g>
   </g>
   <g id="line2d_19">
    <path d="M 28.952785 55.613952 
" clip-path="url(#pdff70aa93c)" style="fill: none"/>
    <g clip-path="url(#pdff70aa93c)">
     <use xlink:href="#mcf3191c6cc" x="28.952785" y="55.613952" style="fill-opacity: 0; stroke: #d32f2f; stroke-linejoin: miter"/>
    </g>
   </g>
   <g id="line2d_20">
    <path d="M 52.634483 60.720764 
" clip-path="url(#pdff70aa93c)" style="fill: none"/>
    <g clip-path="url(#pdff70aa93c)">
     <use xlink:href="#m68b8f5e757" x="52.634483" y="60.720764" style="fill: #d32f2f"/>
    </g>
    <g clip-path="url(#pdff70aa93c)">
     <use xlink:href="#m28e96f6565" x="52.634483" y="60.720764" style="fill: #ffffff"/>
    </g>
   </g>
   <g id="line2d_21">
    <path d="M 52.634483 60.720764 
" clip-path="url(#pdff70aa93c)" style="fill: none"/>
    <g clip-path="url(#pdff70aa93c)">
     <use xlink:href="#mcf3191c6cc" x="52.634483" y="60.720764" style="fill-opacity: 0; stroke: #d32f2f; stroke-linejoin: miter"/>
    </g>
   </g>
   <g id="line2d_22">
    <path d="M 82.236605 79.154964 
" clip-path="url(#pdff70aa93c)" style="fill: none"/>
    <g clip-path="url(#pdff70aa93c)">
     <use xlink:href="#m68b8f5e757" x="82.236605" y="79.154964" style="fill: #d32f2f"/>
    </g>
    <g clip-path="url(#pdff70aa93c)">
     <use xlink:href="#m28e96f6565" x="82.236605" y="79.154964" style="fill: #ffffff"/>
    </g>
   </g>
   <g id="line2d_23">
    <path d="M 82.236605 79.154964 
" clip-path="url(#pdff70aa93c)" style="fill: none"/>
    <g clip-path="url(#pdff70aa93c)">
     <use xlink:href="#mcf3191c6cc" x="82.236605" y="79.154964" style="fill-opacity: 0; stroke: #d32f2f; stroke-linejoin: miter"/>
    </g>
   </g>
   <g id="line2d_24">
    <path d="M 23.032361 69.181322 
" clip-path="url(#pdff70aa93c)" style="fill: none"/>
    <g clip-path="url(#pdff70aa93c)">
     <use xlink:href="#mb780c8c8b1" x="23.032361" y="69.181322" style="fill: #1976d2"/>
    </g>
    <g clip-path="url(#pdff70aa93c)">
     <use xlink:href="#m1f7991d245" x="23.032361" y="69.181322" style="fill: #ffffff"/>
    </g>
   </g>
   <g id="line2d_25">
    <path d="M 23.032361 69.181322 
" clip-path="url(#pdff70aa93c)" style="fill: none"/>
    <g clip-path="url(#pdff70aa93c)">
     <use xlink:href="#mfa372a36aa" x="23.032361" y="69.181322" style="fill-opacity: 0; stroke: #1976d2; stroke-linejoin: miter"/>
    </g>
   </g>
   <g id="line2d_26">
    <path d="M 28.952785 56.735964 
" clip-path="url(#pdff70aa93c)" style="fill: none"/>
    <g clip-path="url(#pdff70aa93c)">
     <use xlink:href="#mb780c8c8b1" x="28.952785" y="56.735964" style="fill: #1976d2"/>
    </g>
    <g clip-path="url(#pdff70aa93c)">
     <use xlink:href="#m1f7991d245" x="28.952785" y="56.735964" style="fill: #ffffff"/>
    </g>
   </g>
   <g id="line2d_27">
    <path d="M 28.952785 56.735964 
" clip-path="url(#pdff70aa93c)" style="fill: none"/>
    <g clip-path="url(#pdff70aa93c)">
     <use xlink:href="#mfa372a36aa" x="28.952785" y="56.735964" style="fill-opacity: 0; stroke: #1976d2; stroke-linejoin: miter"/>
    </g>
   </g>
   <g id="line2d_28">
    <path d="M 23.032361 51.247634 
" clip-path="url(#pdff70aa93c)" style="fill: none"/>
    <g clip-path="url(#pdff70aa93c)">
     <use xlink:href="#m68b8f5e757" x="23.032361" y="51.247634" style="fill: #d32f2f"/>
    </g>
    <g clip-path="url(#pdff70aa93c)">
     <use xlink:href="#m28e96f6565" x="23.032361" y="51.247634" style="fill: #ffffff"/>
    </g>
   </g>
   <g id="line2d_29">
    <path d="M 23.032361 51.247634 
" clip-path="url(#pdff70aa93c)" style="fill: none"/>
    <g clip-path="url(#pdff70aa93c)">
     <use xlink:href="#mcf3191c6cc" x="23.032361" y="51.247634" style="fill-opacity: 0; stroke: #d32f2f; stroke-linejoin: miter"/>
    </g>
   </g>
   <g id="line2d_30">
    <path d="M 64.475332 96.636581 
" clip-path="url(#pdff70aa93c)" style="fill: none"/>
    <g clip-path="url(#pdff70aa93c)">
     <use xlink:href="#m68b8f5e757" x="64.475332" y="96.636581" style="fill: #d32f2f"/>
    </g>
    <g clip-path="url(#pdff70aa93c)">
     <use xlink:href="#m28e96f6565" x="64.475332" y="96.636581" style="fill: #ffffff"/>
    </g>
   </g>
   <g id="line2d_31">
    <path d="M 64.475332 96.636581 
" clip-path="url(#pdff70aa93c)" style="fill: none"/>
    <g clip-path="url(#pdff70aa93c)">
     <use xlink:href="#mcf3191c6cc" x="64.475332" y="96.636581" style="fill-opacity: 0; stroke: #d32f2f; stroke-linejoin: miter"/>
    </g>
   </g>
   <g id="line2d_32">
    <path d="M 70.395756 73.241335 
" clip-path="url(#pdff70aa93c)" style="fill: none"/>
    <g clip-path="url(#pdff70aa93c)">
     <use xlink:href="#m68b8f5e757" x="70.395756" y="73.241335" style="fill: #d32f2f"/>
    </g>
    <g clip-path="url(#pdff70aa93c)">
     <use xlink:href="#m28e96f6565" x="70.395756" y="73.241335" style="fill: #ffffff"/>
    </g>
   </g>
   <g id="line2d_33">
    <path d="M 70.395756 73.241335 
" clip-path="url(#pdff70aa93c)" style="fill: none"/>
    <g clip-path="url(#pdff70aa93c)">
     <use xlink:href="#mcf3191c6cc" x="70.395756" y="73.241335" style="fill-opacity: 0; stroke: #d32f2f; stroke-linejoin: miter"/>
    </g>
   </g>
   <g id="line2d_34">
    <path d="M 28.952785 78.510495 
" clip-path="url(#pdff70aa93c)" style="fill: none"/>
    <g clip-path="url(#pdff70aa93c)">
     <use xlink:href="#mb780c8c8b1" x="28.952785" y="78.510495" style="fill: #1976d2"/>
    </g>
    <g clip-path="url(#pdff70aa93c)">
     <use xlink:href="#m1f7991d245" x="28.952785" y="78.510495" style="fill: #ffffff"/>
    </g>
   </g>
   <g id="line2d_35">
    <path d="M 28.952785 78.510495 
" clip-path="url(#pdff70aa93c)" style="fill: none"/>
    <g clip-path="url(#pdff70aa93c)">
     <use xlink:href="#mfa372a36aa" x="28.952785" y="78.510495" style="fill-opacity: 0; stroke: #1976d2; stroke-linejoin: miter"/>
    </g>
   </g>
   <g id="line2d_36">
    <path d="M 34.87321 57.198653 
" clip-path="url(#pdff70aa93c)" style="fill: none"/>
    <g clip-path="url(#pdff70aa93c)">
     <use xlink:href="#mb780c8c8b1" x="34.87321" y="57.198653" style="fill: #1976d2"/>
    </g>
    <g clip-path="url(#pdff70aa93c)">
     <use xlink:href="#m1f7991d245" x="34.87321" y="57.198653" style="fill: #ffffff"/>
    </g>
   </g>
   <g id="line2d_37">
    <path d="M 34.87321 57.198653 
" clip-path="url(#pdff70aa93c)" style="fill: none"/>
    <g clip-path="url(#pdff70aa93c)">
     <use xlink:href="#mfa372a36aa" x="34.87321" y="57.198653" style="fill-opacity: 0; stroke: #1976d2; stroke-linejoin: miter"/>
    </g>
   </g>
   <g id="line2d_38">
    <path d="M 40.793634 56.827178 
" clip-path="url(#pdff70aa93c)" style="fill: none"/>
    <g clip-path="url(#pdff70aa93c)">
     <use xlink:href="#mb780c8c8b1" x="40.793634" y="56.827178" style="fill: #1976d2"/>
    </g>
    <g clip-path="url(#pdff70aa93c)">
     <use xlink:href="#m1f7991d245" x="40.793634" y="56.827178" style="fill: #ffffff"/>
    </g>
   </g>
   <g id="line2d_39">
    <path d="M 40.793634 56.827178 
" clip-path="url(#pdff70aa93c)" style="fill: none"/>
    <g clip-path="url(#pdff70aa93c)">
     <use xlink:href="#mfa372a36aa" x="40.793634" y="56.827178" style="fill-opacity: 0; stroke: #1976d2; stroke-linejoin: miter"/>
    </g>
   </g>
   <g id="line2d_40">
    <path d="M 23.032361 59.381094 
" clip-path="url(#pdff70aa93c)" style="fill: none"/>
    <g clip-path="url(#pdff70aa93c)">
     <use xlink:href="#m68b8f5e757" x="23.032361" y="59.381094" style="fill: #d32f2f"/>
    </g>
    <g clip-path="url(#pdff70aa93c)">
     <use xlink:href="#m28e96f6565" x="23.032361" y="59.381094" style="fill: #ffffff"/>
    </g>
   </g>
   <g id="line2d_41">
    <path d="M 23.032361 59.381094 
" clip-path="url(#pdff70aa93c)" style="fill: none"/>
    <g clip-path="url(#pdff70aa93c)">
     <use xlink:href="#mcf3191c6cc" x="23.032361" y="59.381094" style="fill-opacity: 0; stroke: #d32f2f; stroke-linejoin: miter"/>
    </g>
   </g>
   <g id="line2d_42">
    <path d="M 40.793634 62.79118 
" clip-path="url(#pdff70aa93c)" style="fill: none"/>
    <g clip-path="url(#pdff70aa93c)">
     <use xlink:href="#m68b8f5e757" x="40.793634" y="62.79118" style="fill: #d32f2f"/>
    </g>
    <g clip-path="url(#pdff70aa93c)">
     <use xlink:href="#m28e96f6565" x="40.793634" y="62.79118" style="fill: #ffffff"/>
    </g>
   </g>
   <g id="line2d_43">
    <path d="M 40.793634 62.79118 
" clip-path="url(#pdff70aa93c)" style="fill: none"/>
    <g clip-path="url(#pdff70aa93c)">
     <use xlink:href="#mcf3191c6cc" x="40.793634" y="62.79118" style="fill-opacity: 0; stroke: #d32f2f; stroke-linejoin: miter"/>
    </g>
   </g>
   <g id="line2d_44">
    <path d="M 82.236605 88.256071 
" clip-path="url(#pdff70aa93c)" style="fill: none"/>
    <g clip-path="url(#pdff70aa93c)">
     <use xlink:href="#m68b8f5e757" x="82.236605" y="88.256071" style="fill: #d32f2f"/>
    </g>
    <g clip-path="url(#pdff70aa93c)">
     <use xlink:href="#m28e96f6565" x="82.236605" y="88.256071" style="fill: #ffffff"/>
    </g>
   </g>
   <g id="line2d_45">
    <path d="M 82.236605 88.256071 
" clip-path="url(#pdff70aa93c)" style="fill: none"/>
    <g clip-path="url(#pdff70aa93c)">
     <use xlink:href="#mcf3191c6cc" x="82.236605" y="88.256071" style="fill-opacity: 0; stroke: #d32f2f; stroke-linejoin: miter"/>
    </g>
   </g>
   <g id="line2d_46">
    <path d="M 34.87321 61.955768 
" clip-path="url(#pdff70aa93c)" style="fill: none"/>
    <g clip-path="url(#pdff70aa93c)">
     <use xlink:href="#m68b8f5e757" x="34.87321" y="61.955768" style="fill: #d32f2f"/>
    </g>
    <g clip-path="url(#pdff70aa93c)">
     <use xlink:href="#m28e96f6565" x="34.87321" y="61.955768" style="fill: #ffffff"/>
    </g>
   </g>
   <g id="line2d_47">
    <path d="M 34.87321 61.955768 
" clip-path="url(#pdff70aa93c)" style="fill: none"/>
    <g clip-path="url(#pdff70aa93c)">
     <use xlink:href="#mcf3191c6cc" x="34.87321" y="61.955768" style="fill-opacity: 0; stroke: #d32f2f; stroke-linejoin: miter"/>
    </g>
   </g>
   <g id="line2d_48">
    <path d="M 82.236605 104.321474 
" clip-path="url(#pdff70aa93c)" style="fill: none"/>
    <g clip-path="url(#pdff70aa93c)">
     <use xlink:href="#m68b8f5e757" x="82.236605" y="104.321474" style="fill: #d32f2f"/>
    </g>
    <g clip-path="url(#pdff70aa93c)">
     <use xlink:href="#m28e96f6565" x="82.236605" y="104.321474" style="fill: #ffffff"/>
    </g>
   </g>
   <g id="line2d_49">
    <path d="M 82.236605 104.321474 
" clip-path="url(#pdff70aa93c)" style="fill: none"/>
    <g clip-path="url(#pdff70aa93c)">
     <use xlink:href="#mcf3191c6cc" x="82.236605" y="104.321474" style="fill-opacity: 0; stroke: #d32f2f; stroke-linejoin: miter"/>
    </g>
   </g>
   <g id="line2d_50">
    <path d="M 88.157029 63.629641 
" clip-path="url(#pdff70aa93c)" style="fill: none"/>
    <g clip-path="url(#pdff70aa93c)">
     <use xlink:href="#m68b8f5e757" x="88.157029" y="63.629641" style="fill: #d32f2f"/>
    </g>
    <g clip-path="url(#pdff70aa93c)">
     <use xlink:href="#m28e96f6565" x="88.157029" y="63.629641" style="fill: #ffffff"/>
    </g>
   </g>
   <g id="line2d_51">
    <path d="M 88.157029 63.629641 
" clip-path="url(#pdff70aa93c)" style="fill: none"/>
    <g clip-path="url(#pdff70aa93c)">
     <use xlink:href="#mcf3191c6cc" x="88.157029" y="63.629641" style="fill-opacity: 0; stroke: #d32f2f; stroke-linejoin: miter"/>
    </g>
   </g>
   <g id="line2d_52">
    <path d="M 52.634483 52.939875 
" clip-path="url(#pdff70aa93c)" style="fill: none"/>
    <g clip-path="url(#pdff70aa93c)">
     <use xlink:href="#m68b8f5e757" x="52.634483" y="52.939875" style="fill: #d32f2f"/>
    </g>
    <g clip-path="url(#pdff70aa93c)">
     <use xlink:href="#m28e96f6565" x="52.634483" y="52.939875" style="fill: #ffffff"/>
    </g>
   </g>
   <g id="line2d_53">
    <path d="M 52.634483 52.939875 
" clip-path="url(#pdff70aa93c)" style="fill: none"/>
    <g clip-path="url(#pdff70aa93c)">
     <use xlink:href="#mcf3191c6cc" x="52.634483" y="52.939875" style="fill-opacity: 0; stroke: #d32f2f; stroke-linejoin: miter"/>
    </g>
   </g>
   <g id="line2d_54">
    <path d="M 99.997878 65.222816 
" clip-path="url(#pdff70aa93c)" style="fill: none"/>
    <g clip-path="url(#pdff70aa93c)">
     <use xlink:href="#m68b8f5e757" x="99.997878" y="65.222816" style="fill: #d32f2f"/>
    </g>
    <g clip-path="url(#pdff70aa93c)">
     <use xlink:href="#m28e96f6565" x="99.997878" y="65.222816" style="fill: #ffffff"/>
    </g>
   </g>
   <g id="line2d_55">
    <path d="M 99.997878 65.222816 
" clip-path="url(#pdff70aa93c)" style="fill: none"/>
    <g clip-path="url(#pdff70aa93c)">
     <use xlink:href="#mcf3191c6cc" x="99.997878" y="65.222816" style="fill-opacity: 0; stroke: #d32f2f; stroke-linejoin: miter"/>
    </g>
   </g>
   <g id="line2d_56">
    <path d="M 111.838727 87.020237 
" clip-path="url(#pdff70aa93c)" style="fill: none"/>
    <g clip-path="url(#pdff70aa93c)">
     <use xlink:href="#m68b8f5e757" x="111.838727" y="87.020237" style="fill: #d32f2f"/>
    </g>
    <g clip-path="url(#pdff70aa93c)">
     <use xlink:href="#m28e96f6565" x="111.838727" y="87.020237" style="fill: #ffffff"/>
    </g>
   </g>
   <g id="line2d_57">
    <path d="M 111.838727 87.020237 
" clip-path="url(#pdff70aa93c)" style="fill: none"/>
    <g clip-path="url(#pdff70aa93c)">
     <use xlink:href="#mcf3191c6cc" x="111.838727" y="87.020237" style="fill-opacity: 0; stroke: #d32f2f; stroke-linejoin: miter"/>
    </g>
   </g>
   <g id="line2d_58">
    <path d="M 46.714058 37.395021 
" clip-path="url(#pdff70aa93c)" style="fill: none"/>
    <g clip-path="url(#pdff70aa93c)">
     <use xlink:href="#m68b8f5e757" x="46.714058" y="37.395021" style="fill: #d32f2f"/>
    </g>
    <g clip-path="url(#pdff70aa93c)">
     <use xlink:href="#m28e96f6565" x="46.714058" y="37.395021" style="fill: #ffffff"/>
    </g>
   </g>
   <g id="line2d_59">
    <path d="M 46.714058 37.395021 
" clip-path="url(#pdff70aa93c)" style="fill: none"/>
    <g clip-path="url(#pdff70aa93c)">
     <use xlink:href="#mcf3191c6cc" x="46.714058" y="37.395021" style="fill-opacity: 0; stroke: #d32f2f; stroke-linejoin: miter"/>
    </g>
   </g>
   <g id="line2d_60">
    <path d="M 99.997878 52.928278 
" clip-path="url(#pdff70aa93c)" style="fill: none"/>
    <g clip-path="url(#pdff70aa93c)">
     <use xlink:href="#m68b8f5e757" x="99.997878" y="52.928278" style="fill: #d32f2f"/>
    </g>
    <g clip-path="url(#pdff70aa93c)">
     <use xlink:href="#m28e96f6565" x="99.997878" y="52.928278" style="fill: #ffffff"/>
    </g>
   </g>
   <g id="line2d_61">
    <path d="M 99.997878 52.928278 
" clip-path="url(#pdff70aa93c)" style="fill: none"/>
    <g clip-path="url(#pdff70aa93c)">
     <use xlink:href="#mcf3191c6cc" x="99.997878" y="52.928278" style="fill-opacity: 0; stroke: #d32f2f; stroke-linejoin: miter"/>
    </g>
   </g>
   <g id="line2d_62">
    <path d="M 123.679576 73.838252 
" clip-path="url(#pdff70aa93c)" style="fill: none"/>
    <g clip-path="url(#pdff70aa93c)">
     <use xlink:href="#m68b8f5e757" x="123.679576" y="73.838252" style="fill: #d32f2f"/>
    </g>
    <g clip-path="url(#pdff70aa93c)">
     <use xlink:href="#m28e96f6565" x="123.679576" y="73.838252" style="fill: #ffffff"/>
    </g>
   </g>
   <g id="line2d_63">
    <path d="M 123.679576 73.838252 
" clip-path="url(#pdff70aa93c)" style="fill: none"/>
    <g clip-path="url(#pdff70aa93c)">
     <use xlink:href="#mcf3191c6cc" x="123.679576" y="73.838252" style="fill-opacity: 0; stroke: #d32f2f; stroke-linejoin: miter"/>
    </g>
   </g>
   <g id="line2d_64">
    <path d="M 23.032361 57.954769 
" clip-path="url(#pdff70aa93c)" style="fill: none"/>
    <g clip-path="url(#pdff70aa93c)">
     <use xlink:href="#mb780c8c8b1" x="23.032361" y="57.954769" style="fill: #1976d2"/>
    </g>
    <g clip-path="url(#pdff70aa93c)">
     <use xlink:href="#m1f7991d245" x="23.032361" y="57.954769" style="fill: #ffffff"/>
    </g>
   </g>
   <g id="line2d_65">
    <path d="M 23.032361 57.954769 
" clip-path="url(#pdff70aa93c)" style="fill: none"/>
    <g clip-path="url(#pdff70aa93c)">
     <use xlink:href="#mfa372a36aa" x="23.032361" y="57.954769" style="fill-opacity: 0; stroke: #1976d2; stroke-linejoin: miter"/>
    </g>
   </g>
   <g id="line2d_66">
    <path d="M 28.952785 61.927676 
" clip-path="url(#pdff70aa93c)" style="fill: none"/>
    <g clip-path="url(#pdff70aa93c)">
     <use xlink:href="#mb780c8c8b1" x="28.952785" y="61.927676" style="fill: #1976d2"/>
    </g>
    <g clip-path="url(#pdff70aa93c)">
     <use xlink:href="#m1f7991d245" x="28.952785" y="61.927676" style="fill: #ffffff"/>
    </g>
   </g>
   <g id="line2d_67">
    <path d="M 28.952785 61.927676 
" clip-path="url(#pdff70aa93c)" style="fill: none"/>
    <g clip-path="url(#pdff70aa93c)">
     <use xlink:href="#mfa372a36aa" x="28.952785" y="61.927676" style="fill-opacity: 0; stroke: #1976d2; stroke-linejoin: miter"/>
    </g>
   </g>
   <g id="line2d_68">
    <path d="M 34.87321 65.300665 
" clip-path="url(#pdff70aa93c)" style="fill: none"/>
    <g clip-path="url(#pdff70aa93c)">
     <use xlink:href="#mb780c8c8b1" x="34.87321" y="65.300665" style="fill: #1976d2"/>
    </g>
    <g clip-path="url(#pdff70aa93c)">
     <use xlink:href="#m1f7991d245" x="34.87321" y="65.300665" style="fill: #ffffff"/>
    </g>
   </g>
   <g id="line2d_69">
    <path d="M 34.87321 65.300665 
" clip-path="url(#pdff70aa93c)" style="fill: none"/>
    <g clip-path="url(#pdff70aa93c)">
     <use xlink:href="#mfa372a36aa" x="34.87321" y="65.300665" style="fill-opacity: 0; stroke: #1976d2; stroke-linejoin: miter"/>
    </g>
   </g>
   <g id="line2d_70">
    <path d="M 23.032361 94.080516 
" clip-path="url(#pdff70aa93c)" style="fill: none"/>
    <g clip-path="url(#pdff70aa93c)">
     <use xlink:href="#mb780c8c8b1" x="23.032361" y="94.080516" style="fill: #1976d2"/>
    </g>
    <g clip-path="url(#pdff70aa93c)">
     <use xlink:href="#m1f7991d245" x="23.032361" y="94.080516" style="fill: #ffffff"/>
    </g>
   </g>
   <g id="line2d_71">
    <path d="M 23.032361 94.080516 
" clip-path="url(#pdff70aa93c)" style="fill: none"/>
    <g clip-path="url(#pdff70aa93c)">
     <use xlink:href="#mfa372a36aa" x="23.032361" y="94.080516" style="fill-opacity: 0; stroke: #1976d2; stroke-linejoin: miter"/>
    </g>
   </g>
   <g id="line2d_72">
    <path d="M 34.87321 76.952069 
" clip-path="url(#pdff70aa93c)" style="fill: none"/>
    <g clip-path="url(#pdff70aa93c)">
     <use xlink:href="#mb780c8c8b1" x="34.87321" y="76.952069" style="fill: #1976d2"/>
    </g>
    <g clip-path="url(#pdff70aa93c)">
     <use xlink:href="#m1f7991d245" x="34.87321" y="76.952069" style="fill: #ffffff"/>
    </g>
   </g>
   <g id="line2d_73">
    <path d="M 34.87321 76.952069 
" clip-path="url(#pdff70aa93c)" style="fill: none"/>
    <g clip-path="url(#pdff70aa93c)">
     <use xlink:href="#mfa372a36aa" x="34.87321" y="76.952069" style="fill-opacity: 0; stroke: #1976d2; stroke-linejoin: miter"/>
    </g>
   </g>
   <g id="line2d_74">
    <path d="M 64.475332 91.426801 
" clip-path="url(#pdff70aa93c)" style="fill: none"/>
    <g clip-path="url(#pdff70aa93c)">
     <use xlink:href="#mb780c8c8b1" x="64.475332" y="91.426801" style="fill: #1976d2"/>
    </g>
    <g clip-path="url(#pdff70aa93c)">
     <use xlink:href="#m1f7991d245" x="64.475332" y="91.426801" style="fill: #ffffff"/>
    </g>
   </g>
   <g id="line2d_75">
    <path d="M 64.475332 91.426801 
" clip-path="url(#pdff70aa93c)" style="fill: none"/>
    <g clip-path="url(#pdff70aa93c)">
     <use xlink:href="#mfa372a36aa" x="64.475332" y="91.426801" style="fill-opacity: 0; stroke: #1976d2; stroke-linejoin: miter"/>
    </g>
   </g>
   <g id="line2d_76">
    <path clip-path="url(#pdff70aa93c)" style="fill: none"/>
    <g clip-path="url(#pdff70aa93c)"/>
    <g clip-path="url(#pdff70aa93c)"/>
   </g>
   <g id="line2d_77">
    <path clip-path="url(#pdff70aa93c)" style="fill: none"/>
    <g clip-path="url(#pdff70aa93c)"/>
   </g>
   <g id="line2d_78">
    <path d="M 40.793634 95.364432 
" clip-path="url(#pdff70aa93c)" style="fill: none"/>
    <g clip-path="url(#pdff70aa93c)">
     <use xlink:href="#mb780c8c8b1" x="40.793634" y="95.364432" style="fill: #1976d2"/>
    </g>
    <g clip-path="url(#pdff70aa93c)">
     <use xlink:href="#m1f7991d245" x="40.793634" y="95.364432" style="fill: #ffffff"/>
    </g>
   </g>
   <g id="line2d_79">
    <path d="M 40.793634 95.364432 
" clip-path="url(#pdff70aa93c)" style="fill: none"/>
    <g clip-path="url(#pdff70aa93c)">
     <use xlink:href="#mfa372a36aa" x="40.793634" y="95.364432" style="fill-opacity: 0; stroke: #1976d2; stroke-linejoin: miter"/>
    </g>
   </g>
   <g id="line2d_80">
    <path d="M 58.554907 72.317367 
" clip-path="url(#pdff70aa93c)" style="fill: none"/>
    <g clip-path="url(#pdff70aa93c)">
     <use xlink:href="#mb780c8c8b1" x="58.554907" y="72.317367" style="fill: #1976d2"/>
    </g>
    <g clip-path="url(#pdff70aa93c)">
     <use xlink:href="#m1f7991d245" x="58.554907" y="72.317367" style="fill: #ffffff"/>
    </g>
   </g>
   <g id="line2d_81">
    <path d="M 58.554907 72.317367 
" clip-path="url(#pdff70aa93c)" style="fill: none"/>
    <g clip-path="url(#pdff70aa93c)">
     <use xlink:href="#mfa372a36aa" x="58.554907" y="72.317367" style="fill-opacity: 0; stroke: #1976d2; stroke-linejoin: miter"/>
    </g>
   </g>
   <g id="line2d_82">
    <path clip-path="url(#pdff70aa93c)" style="fill: none"/>
    <g clip-path="url(#pdff70aa93c)"/>
    <g clip-path="url(#pdff70aa93c)"/>
   </g>
   <g id="line2d_83">
    <path clip-path="url(#pdff70aa93c)" style="fill: none"/>
    <g clip-path="url(#pdff70aa93c)"/>
   </g>
   <g id="line2d_84">
    <path d="M 28.952785 91.481803 
" clip-path="url(#pdff70aa93c)" style="fill: none"/>
    <g clip-path="url(#pdff70aa93c)">
     <use xlink:href="#mb780c8c8b1" x="28.952785" y="91.481803" style="fill: #1976d2"/>
    </g>
    <g clip-path="url(#pdff70aa93c)">
     <use xlink:href="#m1f7991d245" x="28.952785" y="91.481803" style="fill: #ffffff"/>
    </g>
   </g>
   <g id="line2d_85">
    <path d="M 28.952785 91.481803 
" clip-path="url(#pdff70aa93c)" style="fill: none"/>
    <g clip-path="url(#pdff70aa93c)">
     <use xlink:href="#mfa372a36aa" x="28.952785" y="91.481803" style="fill-opacity: 0; stroke: #1976d2; stroke-linejoin: miter"/>
    </g>
   </g>
   <g id="line2d_86">
    <path d="M 40.793634 67.519738 
" clip-path="url(#pdff70aa93c)" style="fill: none"/>
    <g clip-path="url(#pdff70aa93c)">
     <use xlink:href="#mb780c8c8b1" x="40.793634" y="67.519738" style="fill: #1976d2"/>
    </g>
    <g clip-path="url(#pdff70aa93c)">
     <use xlink:href="#m1f7991d245" x="40.793634" y="67.519738" style="fill: #ffffff"/>
    </g>
   </g>
   <g id="line2d_87">
    <path d="M 40.793634 67.519738 
" clip-path="url(#pdff70aa93c)" style="fill: none"/>
    <g clip-path="url(#pdff70aa93c)">
     <use xlink:href="#mfa372a36aa" x="40.793634" y="67.519738" style="fill-opacity: 0; stroke: #1976d2; stroke-linejoin: miter"/>
    </g>
   </g>
   <g id="patch_3">
    <path d="M 18 128.16 
L 18 17.28 
" style="fill: none; stroke: #000000; stroke-width: 0.8; stroke-linejoin: miter; stroke-linecap: square"/>
   </g>
   <g id="patch_4">
    <path d="M 18 72.72 
L 129.6 72.72 
" style="fill: none; stroke: #000000; stroke-width: 0.8; stroke-linejoin: miter; stroke-linecap: square"/>
   </g>
   <g id="text_4">
    <!-- PDIA3 -0.55 -->
    <g transform="translate(38.439375 11.28) scale(0.12 -0.12)">
     <defs>
      <path id="DejaVuSans-50" d="M 1259 4147 
L 1259 2394 
L 2053 2394 
Q 2494 2394 2734 2622 
Q 2975 2850 2975 3272 
Q 2975 3691 2734 3919 
Q 2494 4147 2053 4147 
L 1259 4147 
z
M 628 4666 
L 2053 4666 
Q 2838 4666 3239 4311 
Q 3641 3956 3641 3272 
Q 3641 2581 3239 2228 
Q 2838 1875 2053 1875 
L 1259 1875 
L 1259 0 
L 628 0 
L 628 4666 
z
" transform="scale(0.015625)"/>
      <path id="DejaVuSans-44" d="M 1259 4147 
L 1259 519 
L 2022 519 
Q 2988 519 3436 956 
Q 3884 1394 3884 2338 
Q 3884 3275 3436 3711 
Q 2988 4147 2022 4147 
L 1259 4147 
z
M 628 4666 
L 1925 4666 
Q 3281 4666 3915 4102 
Q 4550 3538 4550 2338 
Q 4550 1131 3912 565 
Q 3275 0 1925 0 
L 628 0 
L 628 4666 
z
" transform="scale(0.015625)"/>
      <path id="DejaVuSans-49" d="M 628 4666 
L 1259 4666 
L 1259 0 
L 628 0 
L 628 4666 
z
" transform="scale(0.015625)"/>
      <path id="DejaVuSans-41" d="M 2188 4044 
L 1331 1722 
L 3047 1722 
L 2188 4044 
z
M 1831 4666 
L 2547 4666 
L 4325 0 
L 3669 0 
L 3244 1197 
L 1141 1197 
L 716 0 
L 50 0 
L 1831 4666 
z
" transform="scale(0.015625)"/>
      <path id="DejaVuSans-33" d="M 2597 2516 
Q 3050 2419 3304 2112 
Q 3559 1806 3559 1356 
Q 3559 666 3084 287 
Q 2609 -91 1734 -91 
Q 1441 -91 1130 -33 
Q 819 25 488 141 
L 488 750 
Q 750 597 1062 519 
Q 1375 441 1716 441 
Q 2309 441 2620 675 
Q 2931 909 2931 1356 
Q 2931 1769 2642 2001 
Q 2353 2234 1838 2234 
L 1294 2234 
L 1294 2753 
L 1863 2753 
Q 2328 2753 2575 2939 
Q 2822 3125 2822 3475 
Q 2822 3834 2567 4026 
Q 2313 4219 1838 4219 
Q 1578 4219 1281 4162 
Q 984 4106 628 3988 
L 628 4550 
Q 988 4650 1302 4700 
Q 1616 4750 1894 4750 
Q 2613 4750 3031 4423 
Q 3450 4097 3450 3541 
Q 3450 3153 3228 2886 
Q 3006 2619 2597 2516 
z
" transform="scale(0.015625)"/>
      <path id="DejaVuSans-20" transform="scale(0.015625)"/>
      <path id="DejaVuSans-2d" d="M 313 2009 
L 1997 2009 
L 1997 1497 
L 313 1497 
L 313 2009 
z
" transform="scale(0.015625)"/>
      <path id="DejaVuSans-2e" d="M 684 794 
L 1344 794 
L 1344 0 
L 684 0 
L 684 794 
z
" transform="scale(0.015625)"/>
      <path id="DejaVuSans-35" d="M 691 4666 
L 3169 4666 
L 3169 4134 
L 1269 4134 
L 1269 2991 
Q 1406 3038 1543 3061 
Q 1681 3084 1819 3084 
Q 2600 3084 3056 2656 
Q 3513 2228 3513 1497 
Q 3513 744 3044 326 
Q 2575 -91 1722 -91 
Q 1428 -91 1123 -41 
Q 819 9 494 109 
L 494 744 
Q 775 591 1075 516 
Q 1375 441 1709 441 
Q 2250 441 2565 725 
Q 2881 1009 2881 1497 
Q 2881 1984 2565 2268 
Q 2250 2553 1709 2553 
Q 1456 2553 1204 2497 
Q 953 2441 691 2322 
L 691 4666 
z
" transform="scale(0.015625)"/>
     </defs>
     <use xlink:href="#DejaVuSans-50"/>
     <use xlink:href="#DejaVuSans-44" transform="translate(60.302734 0)"/>
     <use xlink:href="#DejaVuSans-49" transform="translate(137.304688 0)"/>
     <use xlink:href="#DejaVuSans-41" transform="translate(166.796875 0)"/>
     <use xlink:href="#DejaVuSans-33" transform="translate(235.205078 0)"/>
     <use xlink:href="#DejaVuSans-20" transform="translate(298.828125 0)"/>
     <use xlink:href="#DejaVuSans-2d" transform="translate(330.615234 0)"/>
     <use xlink:href="#DejaVuSans-30" transform="translate(366.699219 0)"/>
     <use xlink:href="#DejaVuSans-2e" transform="translate(430.322266 0)"/>
     <use xlink:href="#DejaVuSans-35" transform="translate(462.109375 0)"/>
     <use xlink:href="#DejaVuSans-35" transform="translate(525.732422 0)"/>
    </g>
   </g>
  </g>
 </g>
 <defs>
  <clipPath id="pdff70aa93c">
   <rect x="18" y="17.28" width="111.6" height="110.88"/>
  </clipPath>
 </defs>
</svg>
