<?xml version="1.0" encoding="utf-8" standalone="no"?>
<!DOCTYPE svg PUBLIC "-//W3C//DTD SVG 1.1//EN"
  "http://www.w3.org/Graphics/SVG/1.1/DTD/svg11.dtd">
<svg xmlns:xlink="http://www.w3.org/1999/xlink" width="144pt" height="144pt" viewBox="0 0 144 144" xmlns="http://www.w3.org/2000/svg" version="1.1">
 <metadata>
  <rdf:RDF xmlns:dc="http://purl.org/dc/elements/1.1/" xmlns:cc="http://creativecommons.org/ns#" xmlns:rdf="http://www.w3.org/1999/02/22-rdf-syntax-ns#">
   <cc:Work>
    <dc:type rdf:resource="http://purl.org/dc/dcmitype/StillImage"/>
    <dc:date>2026-02-17T13:08:28.247605</dc:date>
    <dc:format>image/svg+xml</dc:format>
    <dc:creator>
     <cc:Agent>
      <dc:title>Matplotlib v3.10.6, https://matplotlib.org/</dc:title>
     </cc:Agent>
    </dc:creator>
   </cc:Work>
  </rdf:RDF>
 </metadata>
 <defs>
  <style type="text/css">*{stroke-linejoin: round; stroke-linecap: butt}</style>
 </defs>
 <g id="figure_1">
  <g id="patch_1">
   <path d="M 0 144 
L 144 144 
L 144 0 
L 0 0 
z
" style="fill: #ffffff"/>
  </g>
  <g id="axes_1">
   <g id="patch_2">
    <path d="M 18 128.16 
L 129.6 128.16 
L 129.6 17.28 
L 18 17.28 
z
" style="fill: #ffffff"/>
   </g>
   <g id="matplotlib.axis_1">
    <g id="xtick_1">
     <g id="line2d_1">
      <defs>
       <path id="ma46f34fe7d" d="M 0 0 
L 0 3.5 
" style="stroke: #000000; stroke-width: 0.8"/>
      </defs>
      <g>
       <use xlink:href="#ma46f34fe7d" x="76.31618" y="72.72" style="stroke: #000000; stroke-width: 0.8"/>
      </g>
     </g>
    </g>
    <g id="xtick_2">
     <g id="line2d_2">
      <g>
       <use xlink:href="#ma46f34fe7d" x="129.6" y="72.72" style="stroke: #000000; stroke-width: 0.8"/>
      </g>
     </g>
    </g>
   </g>
   <g id="matplotlib.axis_2">
    <g id="ytick_1">
     <g id="line2d_3">
      <defs>
       <path id="m4a16b80a07" d="M 0 0 
L -3.5 0 
" style="stroke: #000000; stroke-width: 0.8"/>
      </defs>
      <g>
       <use xlink:href="#m4a16b80a07" x="18" y="104.4" style="stroke: #000000; stroke-width: 0.8"/>
      </g>
     </g>
     <g id="text_1">
      <!-- −2 -->
      <g transform="translate(-3.742188 108.199219) scale(0.1 -0.1)">
       <defs>
        <path id="DejaVuSans-2212" d="M 678 2272 
L 4684 2272 
L 4684 1741 
L 678 1741 
L 678 2272 
z
" transform="scale(0.015625)"/>
        <path id="DejaVuSans-32" d="M 1228 531 
L 3431 531 
L 3431 0 
L 469 0 
L 469 531 
Q 828 903 1448 1529 
Q 2069 2156 2228 2338 
Q 2531 2678 2651 2914 
Q 2772 3150 2772 3378 
Q 2772 3750 2511 3984 
Q 2250 4219 1831 4219 
Q 1534 4219 1204 4116 
Q 875 4013 500 3803 
L 500 4441 
Q 881 4594 1212 4672 
Q 1544 4750 1819 4750 
Q 2544 4750 2975 4387 
Q 3406 4025 3406 3419 
Q 3406 3131 3298 2873 
Q 3191 2616 2906 2266 
Q 2828 2175 2409 1742 
Q 1991 1309 1228 531 
z
" transform="scale(0.015625)"/>
       </defs>
       <use xlink:href="#DejaVuSans-2212"/>
       <use xlink:href="#DejaVuSans-32" transform="translate(83.789062 0)"/>
      </g>
     </g>
    </g>
    <g id="ytick_2">
     <g id="line2d_4">
      <g>
       <use xlink:href="#m4a16b80a07" x="18" y="72.72" style="stroke: #000000; stroke-width: 0.8"/>
      </g>
     </g>
     <g id="text_2">
      <!-- 0 -->
      <g transform="translate(4.6375 76.519219) scale(0.1 -0.1)">
       <defs>
        <path id="DejaVuSans-30" d="M 2034 4250 
Q 1547 4250 1301 3770 
Q 1056 3291 1056 2328 
Q 1056 1369 1301 889 
Q 1547 409 2034 409 
Q 2525 409 2770 889 
Q 3016 1369 3016 2328 
Q 3016 3291 2770 3770 
Q 2525 4250 2034 4250 
z
M 2034 4750 
Q 2819 4750 3233 4129 
Q 3647 3509 3647 2328 
Q 3647 1150 3233 529 
Q 2819 -91 2034 -91 
Q 1250 -91 836 529 
Q 422 1150 422 2328 
Q 422 3509 836 4129 
Q 1250 4750 2034 4750 
z
" transform="scale(0.015625)"/>
       </defs>
       <use xlink:href="#DejaVuSans-30"/>
      </g>
     </g>
    </g>
    <g id="ytick_3">
     <g id="line2d_5">
      <g>
       <use xlink:href="#m4a16b80a07" x="18" y="41.04" style="stroke: #000000; stroke-width: 0.8"/>
      </g>
     </g>
     <g id="text_3">
      <!-- 2 -->
      <g transform="translate(4.6375 44.839219) scale(0.1 -0.1)">
       <use xlink:href="#DejaVuSans-32"/>
      </g>
     </g>
    </g>
   </g>
   <g id="line2d_6">
    <path d="M 40.793634 82.049767 
" clip-path="url(#p0021d0fa5c)" style="fill: none"/>
    <defs>
     <path id="m8e5f23c3ff" d="M 0 -4.242641 
L -4.242641 -0 
L -0 4.242641 
L 0 -4.242641 
"/>
    </defs>
    <g clip-path="url(#p0021d0fa5c)">
     <use xlink:href="#m8e5f23c3ff" x="40.793634" y="82.049767" style="fill: #d32f2f"/>
    </g>
    <defs>
     <path id="m1f3d900469" d="M 0 -4.242641 
L 4.242641 0 
L -0 4.242641 
L 0 -4.242641 
"/>
    </defs>
    <g clip-path="url(#p0021d0fa5c)">
     <use xlink:href="#m1f3d900469" x="40.793634" y="82.049767" style="fill: #ffffff"/>
    </g>
   </g>
   <g id="line2d_7">
    <path d="M 40.793634 82.049767 
" clip-path="url(#p0021d0fa5c)" style="fill: none"/>
    <defs>
     <path id="m308c5a8d1a" d="M -0 4.242641 
L 4.242641 0 
L 0 -4.242641 
L -4.242641 -0 
z
" style="stroke: #d32f2f; stroke-linejoin: miter"/>
    </defs>
    <g clip-path="url(#p0021d0fa5c)">
     <use xlink:href="#m308c5a8d1a" x="40.793634" y="82.049767" style="fill-opacity: 0; stroke: #d32f2f; stroke-linejoin: miter"/>
    </g>
   </g>
   <g id="line2d_8">
    <path d="M 58.554907 70.173301 
" clip-path="url(#p0021d0fa5c)" style="fill: none"/>
    <g clip-path="url(#p0021d0fa5c)">
     <use xlink:href="#m8e5f23c3ff" x="58.554907" y="70.173301" style="fill: #d32f2f"/>
    </g>
    <g clip-path="url(#p0021d0fa5c)">
     <use xlink:href="#m1f3d900469" x="58.554907" y="70.173301" style="fill: #ffffff"/>
    </g>
   </g>
   <g id="line2d_9">
    <path d="M 58.554907 70.173301 
" clip-path="url(#p0021d0fa5c)" style="fill: none"/>
    <g clip-path="url(#p0021d0fa5c)">
     <use xlink:href="#m308c5a8d1a" x="58.554907" y="70.173301" style="fill-opacity: 0; stroke: #d32f2f; stroke-linejoin: miter"/>
    </g>
   </g>
   <g id="line2d_10">
    <path d="M 64.475332 72.755561 
" clip-path="url(#p0021d0fa5c)" style="fill: none"/>
    <g clip-path="url(#p0021d0fa5c)">
     <use xlink:href="#m8e5f23c3ff" x="64.475332" y="72.755561" style="fill: #d32f2f"/>
    </g>
    <g clip-path="url(#p0021d0fa5c)">
     <use xlink:href="#m1f3d900469" x="64.475332" y="72.755561" style="fill: #ffffff"/>
    </g>
   </g>
   <g id="line2d_11">
    <path d="M 64.475332 72.755561 
" clip-path="url(#p0021d0fa5c)" style="fill: none"/>
    <g clip-path="url(#p0021d0fa5c)">
     <use xlink:href="#m308c5a8d1a" x="64.475332" y="72.755561" style="fill-opacity: 0; stroke: #d32f2f; stroke-linejoin: miter"/>
    </g>
   </g>
   <g id="line2d_12">
    <path d="M 23.032361 95.214642 
" clip-path="url(#p0021d0fa5c)" style="fill: none"/>
    <defs>
     <path id="m1e972aed00" d="M -0 4.242641 
L 4.242641 0 
L 0 -4.242641 
L -0 4.242641 
"/>
    </defs>
    <g clip-path="url(#p0021d0fa5c)">
     <use xlink:href="#m1e972aed00" x="23.032361" y="95.214642" style="fill: #1976d2"/>
    </g>
    <defs>
     <path id="mb79b1847dd" d="M -0 4.242641 
L -4.242641 -0 
L 0 -4.242641 
L -0 4.242641 
"/>
    </defs>
    <g clip-path="url(#p0021d0fa5c)">
     <use xlink:href="#mb79b1847dd" x="23.032361" y="95.214642" style="fill: #ffffff"/>
    </g>
   </g>
   <g id="line2d_13">
    <path d="M 23.032361 95.214642 
" clip-path="url(#p0021d0fa5c)" style="fill: none"/>
    <defs>
     <path id="m960b6bb9de" d="M -0 4.242641 
L 4.242641 0 
L 0 -4.242641 
L -4.242641 -0 
z
" style="stroke: #1976d2; stroke-linejoin: miter"/>
    </defs>
    <g clip-path="url(#p0021d0fa5c)">
     <use xlink:href="#m960b6bb9de" x="23.032361" y="95.214642" style="fill-opacity: 0; stroke: #1976d2; stroke-linejoin: miter"/>
    </g>
   </g>
   <g id="line2d_14">
    <path d="M 23.032361 107.529684 
" clip-path="url(#p0021d0fa5c)" style="fill: none"/>
    <g clip-path="url(#p0021d0fa5c)">
     <use xlink:href="#m1e972aed00" x="23.032361" y="107.529684" style="fill: #1976d2"/>
    </g>
    <g clip-path="url(#p0021d0fa5c)">
     <use xlink:href="#mb79b1847dd" x="23.032361" y="107.529684" style="fill: #ffffff"/>
    </g>
   </g>
   <g id="line2d_15">
    <path d="M 23.032361 107.529684 
" clip-path="url(#p0021d0fa5c)" style="fill: none"/>
    <g clip-path="url(#p0021d0fa5c)">
     <use xlink:href="#m960b6bb9de" x="23.032361" y="107.529684" style="fill-opacity: 0; stroke: #1976d2; stroke-linejoin: miter"/>
    </g>
   </g>
   <g id="line2d_16">
    <path d="M 23.032361 79.080588 
" clip-path="url(#p0021d0fa5c)" style="fill: none"/>
    <g clip-path="url(#p0021d0fa5c)">
     <use xlink:href="#m1e972aed00" x="23.032361" y="79.080588" style="fill: #1976d2"/>
    </g>
    <g clip-path="url(#p0021d0fa5c)">
     <use xlink:href="#mb79b1847dd" x="23.032361" y="79.080588" style="fill: #ffffff"/>
    </g>
   </g>
   <g id="line2d_17">
    <path d="M 23.032361 79.080588 
" clip-path="url(#p0021d0fa5c)" style="fill: none"/>
    <g clip-path="url(#p0021d0fa5c)">
     <use xlink:href="#m960b6bb9de" x="23.032361" y="79.080588" style="fill-opacity: 0; stroke: #1976d2; stroke-linejoin: miter"/>
    </g>
   </g>
   <g id="line2d_18">
    <path d="M 28.952785 79.099414 
" clip-path="url(#p0021d0fa5c)" style="fill: none"/>
    <g clip-path="url(#p0021d0fa5c)">
     <use xlink:href="#m8e5f23c3ff" x="28.952785" y="79.099414" style="fill: #d32f2f"/>
    </g>
    <g clip-path="url(#p0021d0fa5c)">
     <use xlink:href="#m1f3d900469" x="28.952785" y="79.099414" style="fill: #ffffff"/>
    </g>
   </g>
   <g id="line2d_19">
    <path d="M 28.952785 79.099414 
" clip-path="url(#p0021d0fa5c)" style="fill: none"/>
    <g clip-path="url(#p0021d0fa5c)">
     <use xlink:href="#m308c5a8d1a" x="28.952785" y="79.099414" style="fill-opacity: 0; stroke: #d32f2f; stroke-linejoin: miter"/>
    </g>
   </g>
   <g id="line2d_20">
    <path d="M 52.634483 65.337845 
" clip-path="url(#p0021d0fa5c)" style="fill: none"/>
    <g clip-path="url(#p0021d0fa5c)">
     <use xlink:href="#m8e5f23c3ff" x="52.634483" y="65.337845" style="fill: #d32f2f"/>
    </g>
    <g clip-path="url(#p0021d0fa5c)">
     <use xlink:href="#m1f3d900469" x="52.634483" y="65.337845" style="fill: #ffffff"/>
    </g>
   </g>
   <g id="line2d_21">
    <path d="M 52.634483 65.337845 
" clip-path="url(#p0021d0fa5c)" style="fill: none"/>
    <g clip-path="url(#p0021d0fa5c)">
     <use xlink:href="#m308c5a8d1a" x="52.634483" y="65.337845" style="fill-opacity: 0; stroke: #d32f2f; stroke-linejoin: miter"/>
    </g>
   </g>
   <g id="line2d_22">
    <path d="M 82.236605 62.225418 
" clip-path="url(#p0021d0fa5c)" style="fill: none"/>
    <g clip-path="url(#p0021d0fa5c)">
     <use xlink:href="#m8e5f23c3ff" x="82.236605" y="62.225418" style="fill: #d32f2f"/>
    </g>
    <g clip-path="url(#p0021d0fa5c)">
     <use xlink:href="#m1f3d900469" x="82.236605" y="62.225418" style="fill: #ffffff"/>
    </g>
   </g>
   <g id="line2d_23">
    <path d="M 82.236605 62.225418 
" clip-path="url(#p0021d0fa5c)" style="fill: none"/>
    <g clip-path="url(#p0021d0fa5c)">
     <use xlink:href="#m308c5a8d1a" x="82.236605" y="62.225418" style="fill-opacity: 0; stroke: #d32f2f; stroke-linejoin: miter"/>
    </g>
   </g>
   <g id="line2d_24">
    <path d="M 23.032361 76.607333 
" clip-path="url(#p0021d0fa5c)" style="fill: none"/>
    <g clip-path="url(#p0021d0fa5c)">
     <use xlink:href="#m1e972aed00" x="23.032361" y="76.607333" style="fill: #1976d2"/>
    </g>
    <g clip-path="url(#p0021d0fa5c)">
     <use xlink:href="#mb79b1847dd" x="23.032361" y="76.607333" style="fill: #ffffff"/>
    </g>
   </g>
   <g id="line2d_25">
    <path d="M 23.032361 76.607333 
" clip-path="url(#p0021d0fa5c)" style="fill: none"/>
    <g clip-path="url(#p0021d0fa5c)">
     <use xlink:href="#m960b6bb9de" x="23.032361" y="76.607333" style="fill-opacity: 0; stroke: #1976d2; stroke-linejoin: miter"/>
    </g>
   </g>
   <g id="line2d_26">
    <path d="M 28.952785 50.162845 
" clip-path="url(#p0021d0fa5c)" style="fill: none"/>
    <g clip-path="url(#p0021d0fa5c)">
     <use xlink:href="#m1e972aed00" x="28.952785" y="50.162845" style="fill: #1976d2"/>
    </g>
    <g clip-path="url(#p0021d0fa5c)">
     <use xlink:href="#mb79b1847dd" x="28.952785" y="50.162845" style="fill: #ffffff"/>
    </g>
   </g>
   <g id="line2d_27">
    <path d="M 28.952785 50.162845 
" clip-path="url(#p0021d0fa5c)" style="fill: none"/>
    <g clip-path="url(#p0021d0fa5c)">
     <use xlink:href="#m960b6bb9de" x="28.952785" y="50.162845" style="fill-opacity: 0; stroke: #1976d2; stroke-linejoin: miter"/>
    </g>
   </g>
   <g id="line2d_28">
    <path d="M 23.032361 57.281741 
" clip-path="url(#p0021d0fa5c)" style="fill: none"/>
    <g clip-path="url(#p0021d0fa5c)">
     <use xlink:href="#m8e5f23c3ff" x="23.032361" y="57.281741" style="fill: #d32f2f"/>
    </g>
    <g clip-path="url(#p0021d0fa5c)">
     <use xlink:href="#m1f3d900469" x="23.032361" y="57.281741" style="fill: #ffffff"/>
    </g>
   </g>
   <g id="line2d_29">
    <path d="M 23.032361 57.281741 
" clip-path="url(#p0021d0fa5c)" style="fill: none"/>
    <g clip-path="url(#p0021d0fa5c)">
     <use xlink:href="#m308c5a8d1a" x="23.032361" y="57.281741" style="fill-opacity: 0; stroke: #d32f2f; stroke-linejoin: miter"/>
    </g>
   </g>
   <g id="line2d_30">
    <path d="M 64.475332 52.517439 
" clip-path="url(#p0021d0fa5c)" style="fill: none"/>
    <g clip-path="url(#p0021d0fa5c)">
     <use xlink:href="#m8e5f23c3ff" x="64.475332" y="52.517439" style="fill: #d32f2f"/>
    </g>
    <g clip-path="url(#p0021d0fa5c)">
     <use xlink:href="#m1f3d900469" x="64.475332" y="52.517439" style="fill: #ffffff"/>
    </g>
   </g>
   <g id="line2d_31">
    <path d="M 64.475332 52.517439 
" clip-path="url(#p0021d0fa5c)" style="fill: none"/>
    <g clip-path="url(#p0021d0fa5c)">
     <use xlink:href="#m308c5a8d1a" x="64.475332" y="52.517439" style="fill-opacity: 0; stroke: #d32f2f; stroke-linejoin: miter"/>
    </g>
   </g>
   <g id="line2d_32">
    <path d="M 70.395756 67.427667 
" clip-path="url(#p0021d0fa5c)" style="fill: none"/>
    <g clip-path="url(#p0021d0fa5c)">
     <use xlink:href="#m8e5f23c3ff" x="70.395756" y="67.427667" style="fill: #d32f2f"/>
    </g>
    <g clip-path="url(#p0021d0fa5c)">
     <use xlink:href="#m1f3d900469" x="70.395756" y="67.427667" style="fill: #ffffff"/>
    </g>
   </g>
   <g id="line2d_33">
    <path d="M 70.395756 67.427667 
" clip-path="url(#p0021d0fa5c)" style="fill: none"/>
    <g clip-path="url(#p0021d0fa5c)">
     <use xlink:href="#m308c5a8d1a" x="70.395756" y="67.427667" style="fill-opacity: 0; stroke: #d32f2f; stroke-linejoin: miter"/>
    </g>
   </g>
   <g id="line2d_34">
    <path d="M 28.952785 83.663858 
" clip-path="url(#p0021d0fa5c)" style="fill: none"/>
    <g clip-path="url(#p0021d0fa5c)">
     <use xlink:href="#m1e972aed00" x="28.952785" y="83.663858" style="fill: #1976d2"/>
    </g>
    <g clip-path="url(#p0021d0fa5c)">
     <use xlink:href="#mb79b1847dd" x="28.952785" y="83.663858" style="fill: #ffffff"/>
    </g>
   </g>
   <g id="line2d_35">
    <path d="M 28.952785 83.663858 
" clip-path="url(#p0021d0fa5c)" style="fill: none"/>
    <g clip-path="url(#p0021d0fa5c)">
     <use xlink:href="#m960b6bb9de" x="28.952785" y="83.663858" style="fill-opacity: 0; stroke: #1976d2; stroke-linejoin: miter"/>
    </g>
   </g>
   <g id="line2d_36">
    <path d="M 34.87321 69.086601 
" clip-path="url(#p0021d0fa5c)" style="fill: none"/>
    <g clip-path="url(#p0021d0fa5c)">
     <use xlink:href="#m1e972aed00" x="34.87321" y="69.086601" style="fill: #1976d2"/>
    </g>
    <g clip-path="url(#p0021d0fa5c)">
     <use xlink:href="#mb79b1847dd" x="34.87321" y="69.086601" style="fill: #ffffff"/>
    </g>
   </g>
   <g id="line2d_37">
    <path d="M 34.87321 69.086601 
" clip-path="url(#p0021d0fa5c)" style="fill: none"/>
    <g clip-path="url(#p0021d0fa5c)">
     <use xlink:href="#m960b6bb9de" x="34.87321" y="69.086601" style="fill-opacity: 0; stroke: #1976d2; stroke-linejoin: miter"/>
    </g>
   </g>
   <g id="line2d_38">
    <path d="M 40.793634 58.697408 
" clip-path="url(#p0021d0fa5c)" style="fill: none"/>
    <g clip-path="url(#p0021d0fa5c)">
     <use xlink:href="#m1e972aed00" x="40.793634" y="58.697408" style="fill: #1976d2"/>
    </g>
    <g clip-path="url(#p0021d0fa5c)">
     <use xlink:href="#mb79b1847dd" x="40.793634" y="58.697408" style="fill: #ffffff"/>
    </g>
   </g>
   <g id="line2d_39">
    <path d="M 40.793634 58.697408 
" clip-path="url(#p0021d0fa5c)" style="fill: none"/>
    <g clip-path="url(#p0021d0fa5c)">
     <use xlink:href="#m960b6bb9de" x="40.793634" y="58.697408" style="fill-opacity: 0; stroke: #1976d2; stroke-linejoin: miter"/>
    </g>
   </g>
   <g id="line2d_40">
    <path d="M 23.032361 76.998313 
" clip-path="url(#p0021d0fa5c)" style="fill: none"/>
    <g clip-path="url(#p0021d0fa5c)">
     <use xlink:href="#m8e5f23c3ff" x="23.032361" y="76.998313" style="fill: #d32f2f"/>
    </g>
    <g clip-path="url(#p0021d0fa5c)">
     <use xlink:href="#m1f3d900469" x="23.032361" y="76.998313" style="fill: #ffffff"/>
    </g>
   </g>
   <g id="line2d_41">
    <path d="M 23.032361 76.998313 
" clip-path="url(#p0021d0fa5c)" style="fill: none"/>
    <g clip-path="url(#p0021d0fa5c)">
     <use xlink:href="#m308c5a8d1a" x="23.032361" y="76.998313" style="fill-opacity: 0; stroke: #d32f2f; stroke-linejoin: miter"/>
    </g>
   </g>
   <g id="line2d_42">
    <path d="M 40.793634 76.104711 
" clip-path="url(#p0021d0fa5c)" style="fill: none"/>
    <g clip-path="url(#p0021d0fa5c)">
     <use xlink:href="#m8e5f23c3ff" x="40.793634" y="76.104711" style="fill: #d32f2f"/>
    </g>
    <g clip-path="url(#p0021d0fa5c)">
     <use xlink:href="#m1f3d900469" x="40.793634" y="76.104711" style="fill: #ffffff"/>
    </g>
   </g>
   <g id="line2d_43">
    <path d="M 40.793634 76.104711 
" clip-path="url(#p0021d0fa5c)" style="fill: none"/>
    <g clip-path="url(#p0021d0fa5c)">
     <use xlink:href="#m308c5a8d1a" x="40.793634" y="76.104711" style="fill-opacity: 0; stroke: #d32f2f; stroke-linejoin: miter"/>
    </g>
   </g>
   <g id="line2d_44">
    <path d="M 82.236605 85.259734 
" clip-path="url(#p0021d0fa5c)" style="fill: none"/>
    <g clip-path="url(#p0021d0fa5c)">
     <use xlink:href="#m8e5f23c3ff" x="82.236605" y="85.259734" style="fill: #d32f2f"/>
    </g>
    <g clip-path="url(#p0021d0fa5c)">
     <use xlink:href="#m1f3d900469" x="82.236605" y="85.259734" style="fill: #ffffff"/>
    </g>
   </g>
   <g id="line2d_45">
    <path d="M 82.236605 85.259734 
" clip-path="url(#p0021d0fa5c)" style="fill: none"/>
    <g clip-path="url(#p0021d0fa5c)">
     <use xlink:href="#m308c5a8d1a" x="82.236605" y="85.259734" style="fill-opacity: 0; stroke: #d32f2f; stroke-linejoin: miter"/>
    </g>
   </g>
   <g id="line2d_46">
    <path d="M 34.87321 63.066187 
" clip-path="url(#p0021d0fa5c)" style="fill: none"/>
    <g clip-path="url(#p0021d0fa5c)">
     <use xlink:href="#m8e5f23c3ff" x="34.87321" y="63.066187" style="fill: #d32f2f"/>
    </g>
    <g clip-path="url(#p0021d0fa5c)">
     <use xlink:href="#m1f3d900469" x="34.87321" y="63.066187" style="fill: #ffffff"/>
    </g>
   </g>
   <g id="line2d_47">
    <path d="M 34.87321 63.066187 
" clip-path="url(#p0021d0fa5c)" style="fill: none"/>
    <g clip-path="url(#p0021d0fa5c)">
     <use xlink:href="#m308c5a8d1a" x="34.87321" y="63.066187" style="fill-opacity: 0; stroke: #d32f2f; stroke-linejoin: miter"/>
    </g>
   </g>
   <g id="line2d_48">
    <path d="M 82.236605 118.305711 
" clip-path="url(#p0021d0fa5c)" style="fill: none"/>
    <g clip-path="url(#p0021d0fa5c)">
     <use xlink:href="#m8e5f23c3ff" x="82.236605" y="118.305711" style="fill: #d32f2f"/>
    </g>
    <g clip-path="url(#p0021d0fa5c)">
     <use xlink:href="#m1f3d900469" x="82.236605" y="118.305711" style="fill: #ffffff"/>
    </g>
   </g>
   <g id="line2d_49">
    <path d="M 82.236605 118.305711 
" clip-path="url(#p0021d0fa5c)" style="fill: none"/>
    <g clip-path="url(#p0021d0fa5c)">
     <use xlink:href="#m308c5a8d1a" x="82.236605" y="118.305711" style="fill-opacity: 0; stroke: #d32f2f; stroke-linejoin: miter"/>
    </g>
   </g>
   <g id="line2d_50">
    <path d="M 88.157029 55.743034 
" clip-path="url(#p0021d0fa5c)" style="fill: none"/>
    <g clip-path="url(#p0021d0fa5c)">
     <use xlink:href="#m8e5f23c3ff" x="88.157029" y="55.743034" style="fill: #d32f2f"/>
    </g>
    <g clip-path="url(#p0021d0fa5c)">
     <use xlink:href="#m1f3d900469" x="88.157029" y="55.743034" style="fill: #ffffff"/>
    </g>
   </g>
   <g id="line2d_51">
    <path d="M 88.157029 55.743034 
" clip-path="url(#p0021d0fa5c)" style="fill: none"/>
    <g clip-path="url(#p0021d0fa5c)">
     <use xlink:href="#m308c5a8d1a" x="88.157029" y="55.743034" style="fill-opacity: 0; stroke: #d32f2f; stroke-linejoin: miter"/>
    </g>
   </g>
   <g id="line2d_52">
    <path d="M 52.634483 60.16708 
" clip-path="url(#p0021d0fa5c)" style="fill: none"/>
    <g clip-path="url(#p0021d0fa5c)">
     <use xlink:href="#m8e5f23c3ff" x="52.634483" y="60.16708" style="fill: #d32f2f"/>
    </g>
    <g clip-path="url(#p0021d0fa5c)">
     <use xlink:href="#m1f3d900469" x="52.634483" y="60.16708" style="fill: #ffffff"/>
    </g>
   </g>
   <g id="line2d_53">
    <path d="M 52.634483 60.16708 
" clip-path="url(#p0021d0fa5c)" style="fill: none"/>
    <g clip-path="url(#p0021d0fa5c)">
     <use xlink:href="#m308c5a8d1a" x="52.634483" y="60.16708" style="fill-opacity: 0; stroke: #d32f2f; stroke-linejoin: miter"/>
    </g>
   </g>
   <g id="line2d_54">
    <path d="M 99.997878 56.942657 
" clip-path="url(#p0021d0fa5c)" style="fill: none"/>
    <g clip-path="url(#p0021d0fa5c)">
     <use xlink:href="#m8e5f23c3ff" x="99.997878" y="56.942657" style="fill: #d32f2f"/>
    </g>
    <g clip-path="url(#p0021d0fa5c)">
     <use xlink:href="#m1f3d900469" x="99.997878" y="56.942657" style="fill: #ffffff"/>
    </g>
   </g>
   <g id="line2d_55">
    <path d="M 99.997878 56.942657 
" clip-path="url(#p0021d0fa5c)" style="fill: none"/>
    <g clip-path="url(#p0021d0fa5c)">
     <use xlink:href="#m308c5a8d1a" x="99.997878" y="56.942657" style="fill-opacity: 0; stroke: #d32f2f; stroke-linejoin: miter"/>
    </g>
   </g>
   <g id="line2d_56">
    <path d="M 111.838727 63.084097 
" clip-path="url(#p0021d0fa5c)" style="fill: none"/>
    <g clip-path="url(#p0021d0fa5c)">
     <use xlink:href="#m8e5f23c3ff" x="111.838727" y="63.084097" style="fill: #d32f2f"/>
    </g>
    <g clip-path="url(#p0021d0fa5c)">
     <use xlink:href="#m1f3d900469" x="111.838727" y="63.084097" style="fill: #ffffff"/>
    </g>
   </g>
   <g id="line2d_57">
    <path d="M 111.838727 63.084097 
" clip-path="url(#p0021d0fa5c)" style="fill: none"/>
    <g clip-path="url(#p0021d0fa5c)">
     <use xlink:href="#m308c5a8d1a" x="111.838727" y="63.084097" style="fill-opacity: 0; stroke: #d32f2f; stroke-linejoin: miter"/>
    </g>
   </g>
   <g id="line2d_58">
    <path d="M 46.714058 57.95784 
" clip-path="url(#p0021d0fa5c)" style="fill: none"/>
    <g clip-path="url(#p0021d0fa5c)">
     <use xlink:href="#m8e5f23c3ff" x="46.714058" y="57.95784" style="fill: #d32f2f"/>
    </g>
    <g clip-path="url(#p0021d0fa5c)">
     <use xlink:href="#m1f3d900469" x="46.714058" y="57.95784" style="fill: #ffffff"/>
    </g>
   </g>
   <g id="line2d_59">
    <path d="M 46.714058 57.95784 
" clip-path="url(#p0021d0fa5c)" style="fill: none"/>
    <g clip-path="url(#p0021d0fa5c)">
     <use xlink:href="#m308c5a8d1a" x="46.714058" y="57.95784" style="fill-opacity: 0; stroke: #d32f2f; stroke-linejoin: miter"/>
    </g>
   </g>
   <g id="line2d_60">
    <path d="M 99.997878 77.768819 
" clip-path="url(#p0021d0fa5c)" style="fill: none"/>
    <g clip-path="url(#p0021d0fa5c)">
     <use xlink:href="#m8e5f23c3ff" x="99.997878" y="77.768819" style="fill: #d32f2f"/>
    </g>
    <g clip-path="url(#p0021d0fa5c)">
     <use xlink:href="#m1f3d900469" x="99.997878" y="77.768819" style="fill: #ffffff"/>
    </g>
   </g>
   <g id="line2d_61">
    <path d="M 99.997878 77.768819 
" clip-path="url(#p0021d0fa5c)" style="fill: none"/>
    <g clip-path="url(#p0021d0fa5c)">
     <use xlink:href="#m308c5a8d1a" x="99.997878" y="77.768819" style="fill-opacity: 0; stroke: #d32f2f; stroke-linejoin: miter"/>
    </g>
   </g>
   <g id="line2d_62">
    <path d="M 123.679576 37.527994 
" clip-path="url(#p0021d0fa5c)" style="fill: none"/>
    <g clip-path="url(#p0021d0fa5c)">
     <use xlink:href="#m8e5f23c3ff" x="123.679576" y="37.527994" style="fill: #d32f2f"/>
    </g>
    <g clip-path="url(#p0021d0fa5c)">
     <use xlink:href="#m1f3d900469" x="123.679576" y="37.527994" style="fill: #ffffff"/>
    </g>
   </g>
   <g id="line2d_63">
    <path d="M 123.679576 37.527994 
" clip-path="url(#p0021d0fa5c)" style="fill: none"/>
    <g clip-path="url(#p0021d0fa5c)">
     <use xlink:href="#m308c5a8d1a" x="123.679576" y="37.527994" style="fill-opacity: 0; stroke: #d32f2f; stroke-linejoin: miter"/>
    </g>
   </g>
   <g id="line2d_64">
    <path d="M 23.032361 54.226908 
" clip-path="url(#p0021d0fa5c)" style="fill: none"/>
    <g clip-path="url(#p0021d0fa5c)">
     <use xlink:href="#m1e972aed00" x="23.032361" y="54.226908" style="fill: #1976d2"/>
    </g>
    <g clip-path="url(#p0021d0fa5c)">
     <use xlink:href="#mb79b1847dd" x="23.032361" y="54.226908" style="fill: #ffffff"/>
    </g>
   </g>
   <g id="line2d_65">
    <path d="M 23.032361 54.226908 
" clip-path="url(#p0021d0fa5c)" style="fill: none"/>
    <g clip-path="url(#p0021d0fa5c)">
     <use xlink:href="#m960b6bb9de" x="23.032361" y="54.226908" style="fill-opacity: 0; stroke: #1976d2; stroke-linejoin: miter"/>
    </g>
   </g>
   <g id="line2d_66">
    <path d="M 28.952785 76.662466 
" clip-path="url(#p0021d0fa5c)" style="fill: none"/>
    <g clip-path="url(#p0021d0fa5c)">
     <use xlink:href="#m1e972aed00" x="28.952785" y="76.662466" style="fill: #1976d2"/>
    </g>
    <g clip-path="url(#p0021d0fa5c)">
     <use xlink:href="#mb79b1847dd" x="28.952785" y="76.662466" style="fill: #ffffff"/>
    </g>
   </g>
   <g id="line2d_67">
    <path d="M 28.952785 76.662466 
" clip-path="url(#p0021d0fa5c)" style="fill: none"/>
    <g clip-path="url(#p0021d0fa5c)">
     <use xlink:href="#m960b6bb9de" x="28.952785" y="76.662466" style="fill-opacity: 0; stroke: #1976d2; stroke-linejoin: miter"/>
    </g>
   </g>
   <g id="line2d_68">
    <path d="M 34.87321 53.466032 
" clip-path="url(#p0021d0fa5c)" style="fill: none"/>
    <g clip-path="url(#p0021d0fa5c)">
     <use xlink:href="#m1e972aed00" x="34.87321" y="53.466032" style="fill: #1976d2"/>
    </g>
    <g clip-path="url(#p0021d0fa5c)">
     <use xlink:href="#mb79b1847dd" x="34.87321" y="53.466032" style="fill: #ffffff"/>
    </g>
   </g>
   <g id="line2d_69">
    <path d="M 34.87321 53.466032 
" clip-path="url(#p0021d0fa5c)" style="fill: none"/>
    <g clip-path="url(#p0021d0fa5c)">
     <use xlink:href="#m960b6bb9de" x="34.87321" y="53.466032" style="fill-opacity: 0; stroke: #1976d2; stroke-linejoin: miter"/>
    </g>
   </g>
   <g id="line2d_70">
    <path d="M 23.032361 88.754902 
" clip-path="url(#p0021d0fa5c)" style="fill: none"/>
    <g clip-path="url(#p0021d0fa5c)">
     <use xlink:href="#m1e972aed00" x="23.032361" y="88.754902" style="fill: #1976d2"/>
    </g>
    <g clip-path="url(#p0021d0fa5c)">
     <use xlink:href="#mb79b1847dd" x="23.032361" y="88.754902" style="fill: #ffffff"/>
    </g>
   </g>
   <g id="line2d_71">
    <path d="M 23.032361 88.754902 
" clip-path="url(#p0021d0fa5c)" style="fill: none"/>
    <g clip-path="url(#p0021d0fa5c)">
     <use xlink:href="#m960b6bb9de" x="23.032361" y="88.754902" style="fill-opacity: 0; stroke: #1976d2; stroke-linejoin: miter"/>
    </g>
   </g>
   <g id="line2d_72">
    <path d="M 34.87321 71.907316 
" clip-path="url(#p0021d0fa5c)" style="fill: none"/>
    <g clip-path="url(#p0021d0fa5c)">
     <use xlink:href="#m1e972aed00" x="34.87321" y="71.907316" style="fill: #1976d2"/>
    </g>
    <g clip-path="url(#p0021d0fa5c)">
     <use xlink:href="#mb79b1847dd" x="34.87321" y="71.907316" style="fill: #ffffff"/>
    </g>
   </g>
   <g id="line2d_73">
    <path d="M 34.87321 71.907316 
" clip-path="url(#p0021d0fa5c)" style="fill: none"/>
    <g clip-path="url(#p0021d0fa5c)">
     <use xlink:href="#m960b6bb9de" x="34.87321" y="71.907316" style="fill-opacity: 0; stroke: #1976d2; stroke-linejoin: miter"/>
    </g>
   </g>
   <g id="line2d_74">
    <path d="M 64.475332 79.37297 
" clip-path="url(#p0021d0fa5c)" style="fill: none"/>
    <g clip-path="url(#p0021d0fa5c)">
     <use xlink:href="#m1e972aed00" x="64.475332" y="79.37297" style="fill: #1976d2"/>
    </g>
    <g clip-path="url(#p0021d0fa5c)">
     <use xlink:href="#mb79b1847dd" x="64.475332" y="79.37297" style="fill: #ffffff"/>
    </g>
   </g>
   <g id="line2d_75">
    <path d="M 64.475332 79.37297 
" clip-path="url(#p0021d0fa5c)" style="fill: none"/>
    <g clip-path="url(#p0021d0fa5c)">
     <use xlink:href="#m960b6bb9de" x="64.475332" y="79.37297" style="fill-opacity: 0; stroke: #1976d2; stroke-linejoin: miter"/>
    </g>
   </g>
   <g id="line2d_76">
    <path clip-path="url(#p0021d0fa5c)" style="fill: none"/>
    <g clip-path="url(#p0021d0fa5c)"/>
    <g clip-path="url(#p0021d0fa5c)"/>
   </g>
   <g id="line2d_77">
    <path clip-path="url(#p0021d0fa5c)" style="fill: none"/>
    <g clip-path="url(#p0021d0fa5c)"/>
   </g>
   <g id="line2d_78">
    <path d="M 40.793634 82.498913 
" clip-path="url(#p0021d0fa5c)" style="fill: none"/>
    <g clip-path="url(#p0021d0fa5c)">
     <use xlink:href="#m1e972aed00" x="40.793634" y="82.498913" style="fill: #1976d2"/>
    </g>
    <g clip-path="url(#p0021d0fa5c)">
     <use xlink:href="#mb79b1847dd" x="40.793634" y="82.498913" style="fill: #ffffff"/>
    </g>
   </g>
   <g id="line2d_79">
    <path d="M 40.793634 82.498913 
" clip-path="url(#p0021d0fa5c)" style="fill: none"/>
    <g clip-path="url(#p0021d0fa5c)">
     <use xlink:href="#m960b6bb9de" x="40.793634" y="82.498913" style="fill-opacity: 0; stroke: #1976d2; stroke-linejoin: miter"/>
    </g>
   </g>
   <g id="line2d_80">
    <path d="M 58.554907 75.753654 
" clip-path="url(#p0021d0fa5c)" style="fill: none"/>
    <g clip-path="url(#p0021d0fa5c)">
     <use xlink:href="#m1e972aed00" x="58.554907" y="75.753654" style="fill: #1976d2"/>
    </g>
    <g clip-path="url(#p0021d0fa5c)">
     <use xlink:href="#mb79b1847dd" x="58.554907" y="75.753654" style="fill: #ffffff"/>
    </g>
   </g>
   <g id="line2d_81">
    <path d="M 58.554907 75.753654 
" clip-path="url(#p0021d0fa5c)" style="fill: none"/>
    <g clip-path="url(#p0021d0fa5c)">
     <use xlink:href="#m960b6bb9de" x="58.554907" y="75.753654" style="fill-opacity: 0; stroke: #1976d2; stroke-linejoin: miter"/>
    </g>
   </g>
   <g id="line2d_82">
    <path clip-path="url(#p0021d0fa5c)" style="fill: none"/>
    <g clip-path="url(#p0021d0fa5c)"/>
    <g clip-path="url(#p0021d0fa5c)"/>
   </g>
   <g id="line2d_83">
    <path clip-path="url(#p0021d0fa5c)" style="fill: none"/>
    <g clip-path="url(#p0021d0fa5c)"/>
   </g>
   <g id="line2d_84">
    <path d="M 28.952785 89.101192 
" clip-path="url(#p0021d0fa5c)" style="fill: none"/>
    <g clip-path="url(#p0021d0fa5c)">
     <use xlink:href="#m1e972aed00" x="28.952785" y="89.101192" style="fill: #1976d2"/>
    </g>
    <g clip-path="url(#p0021d0fa5c)">
     <use xlink:href="#mb79b1847dd" x="28.952785" y="89.101192" style="fill: #ffffff"/>
    </g>
   </g>
   <g id="line2d_85">
    <path d="M 28.952785 89.101192 
" clip-path="url(#p0021d0fa5c)" style="fill: none"/>
    <g clip-path="url(#p0021d0fa5c)">
     <use xlink:href="#m960b6bb9de" x="28.952785" y="89.101192" style="fill-opacity: 0; stroke: #1976d2; stroke-linejoin: miter"/>
    </g>
   </g>
   <g id="line2d_86">
    <path d="M 40.793634 89.120106 
" clip-path="url(#p0021d0fa5c)" style="fill: none"/>
    <g clip-path="url(#p0021d0fa5c)">
     <use xlink:href="#m1e972aed00" x="40.793634" y="89.120106" style="fill: #1976d2"/>
    </g>
    <g clip-path="url(#p0021d0fa5c)">
     <use xlink:href="#mb79b1847dd" x="40.793634" y="89.120106" style="fill: #ffffff"/>
    </g>
   </g>
   <g id="line2d_87">
    <path d="M 40.793634 89.120106 
" clip-path="url(#p0021d0fa5c)" style="fill: none"/>
    <g clip-path="url(#p0021d0fa5c)">
     <use xlink:href="#m960b6bb9de" x="40.793634" y="89.120106" style="fill-opacity: 0; stroke: #1976d2; stroke-linejoin: miter"/>
    </g>
   </g>
   <g id="patch_3">
    <path d="M 18 128.16 
L 18 17.28 
" style="fill: none; stroke: #000000; stroke-width: 0.8; stroke-linejoin: miter; stroke-linecap: square"/>
   </g>
   <g id="patch_4">
    <path d="M 18 72.72 
L 129.6 72.72 
" style="fill: none; stroke: #000000; stroke-width: 0.8; stroke-linejoin: miter; stroke-linecap: square"/>
   </g>
   <g id="text_4">
    <!-- SAR1B 0.22 -->
    <g transform="translate(38.404688 11.28) scale(0.12 -0.12)">
     <defs>
      <path id="DejaVuSans-53" d="M 3425 4513 
L 3425 3897 
Q 3066 4069 2747 4153 
Q 2428 4238 2131 4238 
Q 1616 4238 1336 4038 
Q 1056 3838 1056 3469 
Q 1056 3159 1242 3001 
Q 1428 2844 1947 2747 
L 2328 2669 
Q 3034 2534 3370 2195 
Q 3706 1856 3706 1288 
Q 3706 609 3251 259 
Q 2797 -91 1919 -91 
Q 1588 -91 1214 -16 
Q 841 59 441 206 
L 441 856 
Q 825 641 1194 531 
Q 1563 422 1919 422 
Q 2459 422 2753 634 
Q 3047 847 3047 1241 
Q 3047 1584 2836 1778 
Q 2625 1972 2144 2069 
L 1759 2144 
Q 1053 2284 737 2584 
Q 422 2884 422 3419 
Q 422 4038 858 4394 
Q 1294 4750 2059 4750 
Q 2388 4750 2728 4690 
Q 3069 4631 3425 4513 
z
" transform="scale(0.015625)"/>
      <path id="DejaVuSans-41" d="M 2188 4044 
L 1331 1722 
L 3047 1722 
L 2188 4044 
z
M 1831 4666 
L 2547 4666 
L 4325 0 
L 3669 0 
L 3244 1197 
L 1141 1197 
L 716 0 
L 50 0 
L 1831 4666 
z
" transform="scale(0.015625)"/>
      <path id="DejaVuSans-52" d="M 2841 2188 
Q 3044 2119 3236 1894 
Q 3428 1669 3622 1275 
L 4263 0 
L 3584 0 
L 2988 1197 
Q 2756 1666 2539 1819 
Q 2322 1972 1947 1972 
L 1259 1972 
L 1259 0 
L 628 0 
L 628 4666 
L 2053 4666 
Q 2853 4666 3247 4331 
Q 3641 3997 3641 3322 
Q 3641 2881 3436 2590 
Q 3231 2300 2841 2188 
z
M 1259 4147 
L 1259 2491 
L 2053 2491 
Q 2509 2491 2742 2702 
Q 2975 2913 2975 3322 
Q 2975 3731 2742 3939 
Q 2509 4147 2053 4147 
L 1259 4147 
z
" transform="scale(0.015625)"/>
      <path id="DejaVuSans-31" d="M 794 531 
L 1825 531 
L 1825 4091 
L 703 3866 
L 703 4441 
L 1819 4666 
L 2450 4666 
L 2450 531 
L 3481 531 
L 3481 0 
L 794 0 
L 794 531 
z
" transform="scale(0.015625)"/>
      <path id="DejaVuSans-42" d="M 1259 2228 
L 1259 519 
L 2272 519 
Q 2781 519 3026 730 
Q 3272 941 3272 1375 
Q 3272 1813 3026 2020 
Q 2781 2228 2272 2228 
L 1259 2228 
z
M 1259 4147 
L 1259 2741 
L 2194 2741 
Q 2656 2741 2882 2914 
Q 3109 3088 3109 3444 
Q 3109 3797 2882 3972 
Q 2656 4147 2194 4147 
L 1259 4147 
z
M 628 4666 
L 2241 4666 
Q 2963 4666 3353 4366 
Q 3744 4066 3744 3513 
Q 3744 3084 3544 2831 
Q 3344 2578 2956 2516 
Q 3422 2416 3680 2098 
Q 3938 1781 3938 1306 
Q 3938 681 3513 340 
Q 3088 0 2303 0 
L 628 0 
L 628 4666 
z
" transform="scale(0.015625)"/>
      <path id="DejaVuSans-20" transform="scale(0.015625)"/>
      <path id="DejaVuSans-2e" d="M 684 794 
L 1344 794 
L 1344 0 
L 684 0 
L 684 794 
z
" transform="scale(0.015625)"/>
     </defs>
     <use xlink:href="#DejaVuSans-53"/>
     <use xlink:href="#DejaVuSans-41" transform="translate(65.351562 0)"/>
     <use xlink:href="#DejaVuSans-52" transform="translate(133.759766 0)"/>
     <use xlink:href="#DejaVuSans-31" transform="translate(203.242188 0)"/>
     <use xlink:href="#DejaVuSans-42" transform="translate(266.865234 0)"/>
     <use xlink:href="#DejaVuSans-20" transform="translate(335.46875 0)"/>
     <use xlink:href="#DejaVuSans-30" transform="translate(367.255859 0)"/>
     <use xlink:href="#DejaVuSans-2e" transform="translate(430.878906 0)"/>
     <use xlink:href="#DejaVuSans-32" transform="translate(462.666016 0)"/>
     <use xlink:href="#DejaVuSans-32" transform="translate(526.289062 0)"/>
    </g>
   </g>
  </g>
 </g>
 <defs>
  <clipPath id="p0021d0fa5c">
   <rect x="18" y="17.28" width="111.6" height="110.88"/>
  </clipPath>
 </defs>
</svg>
