<?xml version="1.0" encoding="utf-8" standalone="no"?>
<!DOCTYPE svg PUBLIC "-//W3C//DTD SVG 1.1//EN"
  "http://www.w3.org/Graphics/SVG/1.1/DTD/svg11.dtd">
<svg xmlns:xlink="http://www.w3.org/1999/xlink" width="144pt" height="144pt" viewBox="0 0 144 144" xmlns="http://www.w3.org/2000/svg" version="1.1">
 <metadata>
  <rdf:RDF xmlns:dc="http://purl.org/dc/elements/1.1/" xmlns:cc="http://creativecommons.org/ns#" xmlns:rdf="http://www.w3.org/1999/02/22-rdf-syntax-ns#">
   <cc:Work>
    <dc:type rdf:resource="http://purl.org/dc/dcmitype/StillImage"/>
    <dc:date>2026-02-17T13:08:28.334896</dc:date>
    <dc:format>image/svg+xml</dc:format>
    <dc:creator>
     <cc:Agent>
      <dc:title>Matplotlib v3.10.6, https://matplotlib.org/</dc:title>
     </cc:Agent>
    </dc:creator>
   </cc:Work>
  </rdf:RDF>
 </metadata>
 <defs>
  <style type="text/css">*{stroke-linejoin: round; stroke-linecap: butt}</style>
 </defs>
 <g id="figure_1">
  <g id="patch_1">
   <path d="M 0 144 
L 144 144 
L 144 0 
L 0 0 
z
" style="fill: #ffffff"/>
  </g>
  <g id="axes_1">
   <g id="patch_2">
    <path d="M 18 128.16 
L 129.6 128.16 
L 129.6 17.28 
L 18 17.28 
z
" style="fill: #ffffff"/>
   </g>
   <g id="matplotlib.axis_1">
    <g id="xtick_1">
     <g id="line2d_1">
      <defs>
       <path id="m8542c3f2f6" d="M 0 0 
L 0 3.5 
" style="stroke: #000000; stroke-width: 0.8"/>
      </defs>
      <g>
       <use xlink:href="#m8542c3f2f6" x="76.31618" y="72.72" style="stroke: #000000; stroke-width: 0.8"/>
      </g>
     </g>
    </g>
    <g id="xtick_2">
     <g id="line2d_2">
      <g>
       <use xlink:href="#m8542c3f2f6" x="129.6" y="72.72" style="stroke: #000000; stroke-width: 0.8"/>
      </g>
     </g>
    </g>
   </g>
   <g id="matplotlib.axis_2">
    <g id="ytick_1">
     <g id="line2d_3">
      <defs>
       <path id="md7334781dd" d="M 0 0 
L -3.5 0 
" style="stroke: #000000; stroke-width: 0.8"/>
      </defs>
      <g>
       <use xlink:href="#md7334781dd" x="18" y="104.4" style="stroke: #000000; stroke-width: 0.8"/>
      </g>
     </g>
     <g id="text_1">
      <!-- −2 -->
      <g transform="translate(-3.742188 108.199219) scale(0.1 -0.1)">
       <defs>
        <path id="DejaVuSans-2212" d="M 678 2272 
L 4684 2272 
L 4684 1741 
L 678 1741 
L 678 2272 
z
" transform="scale(0.015625)"/>
        <path id="DejaVuSans-32" d="M 1228 531 
L 3431 531 
L 3431 0 
L 469 0 
L 469 531 
Q 828 903 1448 1529 
Q 2069 2156 2228 2338 
Q 2531 2678 2651 2914 
Q 2772 3150 2772 3378 
Q 2772 3750 2511 3984 
Q 2250 4219 1831 4219 
Q 1534 4219 1204 4116 
Q 875 4013 500 3803 
L 500 4441 
Q 881 4594 1212 4672 
Q 1544 4750 1819 4750 
Q 2544 4750 2975 4387 
Q 3406 4025 3406 3419 
Q 3406 3131 3298 2873 
Q 3191 2616 2906 2266 
Q 2828 2175 2409 1742 
Q 1991 1309 1228 531 
z
" transform="scale(0.015625)"/>
       </defs>
       <use xlink:href="#DejaVuSans-2212"/>
       <use xlink:href="#DejaVuSans-32" transform="translate(83.789062 0)"/>
      </g>
     </g>
    </g>
    <g id="ytick_2">
     <g id="line2d_4">
      <g>
       <use xlink:href="#md7334781dd" x="18" y="72.72" style="stroke: #000000; stroke-width: 0.8"/>
      </g>
     </g>
     <g id="text_2">
      <!-- 0 -->
      <g transform="translate(4.6375 76.519219) scale(0.1 -0.1)">
       <defs>
        <path id="DejaVuSans-30" d="M 2034 4250 
Q 1547 4250 1301 3770 
Q 1056 3291 1056 2328 
Q 1056 1369 1301 889 
Q 1547 409 2034 409 
Q 2525 409 2770 889 
Q 3016 1369 3016 2328 
Q 3016 3291 2770 3770 
Q 2525 4250 2034 4250 
z
M 2034 4750 
Q 2819 4750 3233 4129 
Q 3647 3509 3647 2328 
Q 3647 1150 3233 529 
Q 2819 -91 2034 -91 
Q 1250 -91 836 529 
Q 422 1150 422 2328 
Q 422 3509 836 4129 
Q 1250 4750 2034 4750 
z
" transform="scale(0.015625)"/>
       </defs>
       <use xlink:href="#DejaVuSans-30"/>
      </g>
     </g>
    </g>
    <g id="ytick_3">
     <g id="line2d_5">
      <g>
       <use xlink:href="#md7334781dd" x="18" y="41.04" style="stroke: #000000; stroke-width: 0.8"/>
      </g>
     </g>
     <g id="text_3">
      <!-- 2 -->
      <g transform="translate(4.6375 44.839219) scale(0.1 -0.1)">
       <use xlink:href="#DejaVuSans-32"/>
      </g>
     </g>
    </g>
   </g>
   <g id="line2d_6">
    <path d="M 40.793634 85.430312 
" clip-path="url(#pd95368a4c6)" style="fill: none"/>
    <defs>
     <path id="mc8d95679ec" d="M 0 -4.242641 
L -4.242641 -0 
L -0 4.242641 
L 0 -4.242641 
"/>
    </defs>
    <g clip-path="url(#pd95368a4c6)">
     <use xlink:href="#mc8d95679ec" x="40.793634" y="85.430312" style="fill: #d32f2f"/>
    </g>
    <defs>
     <path id="mdc25b81934" d="M 0 -4.242641 
L 4.242641 0 
L -0 4.242641 
L 0 -4.242641 
"/>
    </defs>
    <g clip-path="url(#pd95368a4c6)">
     <use xlink:href="#mdc25b81934" x="40.793634" y="85.430312" style="fill: #ffffff"/>
    </g>
   </g>
   <g id="line2d_7">
    <path d="M 40.793634 85.430312 
" clip-path="url(#pd95368a4c6)" style="fill: none"/>
    <defs>
     <path id="m0919ec510a" d="M -0 4.242641 
L 4.242641 0 
L 0 -4.242641 
L -4.242641 -0 
z
" style="stroke: #d32f2f; stroke-linejoin: miter"/>
    </defs>
    <g clip-path="url(#pd95368a4c6)">
     <use xlink:href="#m0919ec510a" x="40.793634" y="85.430312" style="fill-opacity: 0; stroke: #d32f2f; stroke-linejoin: miter"/>
    </g>
   </g>
   <g id="line2d_8">
    <path d="M 58.554907 79.299244 
" clip-path="url(#pd95368a4c6)" style="fill: none"/>
    <g clip-path="url(#pd95368a4c6)">
     <use xlink:href="#mc8d95679ec" x="58.554907" y="79.299244" style="fill: #d32f2f"/>
    </g>
    <g clip-path="url(#pd95368a4c6)">
     <use xlink:href="#mdc25b81934" x="58.554907" y="79.299244" style="fill: #ffffff"/>
    </g>
   </g>
   <g id="line2d_9">
    <path d="M 58.554907 79.299244 
" clip-path="url(#pd95368a4c6)" style="fill: none"/>
    <g clip-path="url(#pd95368a4c6)">
     <use xlink:href="#m0919ec510a" x="58.554907" y="79.299244" style="fill-opacity: 0; stroke: #d32f2f; stroke-linejoin: miter"/>
    </g>
   </g>
   <g id="line2d_10">
    <path d="M 64.475332 67.783085 
" clip-path="url(#pd95368a4c6)" style="fill: none"/>
    <g clip-path="url(#pd95368a4c6)">
     <use xlink:href="#mc8d95679ec" x="64.475332" y="67.783085" style="fill: #d32f2f"/>
    </g>
    <g clip-path="url(#pd95368a4c6)">
     <use xlink:href="#mdc25b81934" x="64.475332" y="67.783085" style="fill: #ffffff"/>
    </g>
   </g>
   <g id="line2d_11">
    <path d="M 64.475332 67.783085 
" clip-path="url(#pd95368a4c6)" style="fill: none"/>
    <g clip-path="url(#pd95368a4c6)">
     <use xlink:href="#m0919ec510a" x="64.475332" y="67.783085" style="fill-opacity: 0; stroke: #d32f2f; stroke-linejoin: miter"/>
    </g>
   </g>
   <g id="line2d_12">
    <path d="M 23.032361 102.07119 
" clip-path="url(#pd95368a4c6)" style="fill: none"/>
    <defs>
     <path id="m9a9a05e126" d="M -0 4.242641 
L 4.242641 0 
L 0 -4.242641 
L -0 4.242641 
"/>
    </defs>
    <g clip-path="url(#pd95368a4c6)">
     <use xlink:href="#m9a9a05e126" x="23.032361" y="102.07119" style="fill: #1976d2"/>
    </g>
    <defs>
     <path id="me68e5b6902" d="M -0 4.242641 
L -4.242641 -0 
L 0 -4.242641 
L -0 4.242641 
"/>
    </defs>
    <g clip-path="url(#pd95368a4c6)">
     <use xlink:href="#me68e5b6902" x="23.032361" y="102.07119" style="fill: #ffffff"/>
    </g>
   </g>
   <g id="line2d_13">
    <path d="M 23.032361 102.07119 
" clip-path="url(#pd95368a4c6)" style="fill: none"/>
    <defs>
     <path id="mb554dfb6ef" d="M -0 4.242641 
L 4.242641 0 
L 0 -4.242641 
L -4.242641 -0 
z
" style="stroke: #1976d2; stroke-linejoin: miter"/>
    </defs>
    <g clip-path="url(#pd95368a4c6)">
     <use xlink:href="#mb554dfb6ef" x="23.032361" y="102.07119" style="fill-opacity: 0; stroke: #1976d2; stroke-linejoin: miter"/>
    </g>
   </g>
   <g id="line2d_14">
    <path d="M 23.032361 109.888841 
" clip-path="url(#pd95368a4c6)" style="fill: none"/>
    <g clip-path="url(#pd95368a4c6)">
     <use xlink:href="#m9a9a05e126" x="23.032361" y="109.888841" style="fill: #1976d2"/>
    </g>
    <g clip-path="url(#pd95368a4c6)">
     <use xlink:href="#me68e5b6902" x="23.032361" y="109.888841" style="fill: #ffffff"/>
    </g>
   </g>
   <g id="line2d_15">
    <path d="M 23.032361 109.888841 
" clip-path="url(#pd95368a4c6)" style="fill: none"/>
    <g clip-path="url(#pd95368a4c6)">
     <use xlink:href="#mb554dfb6ef" x="23.032361" y="109.888841" style="fill-opacity: 0; stroke: #1976d2; stroke-linejoin: miter"/>
    </g>
   </g>
   <g id="line2d_16">
    <path d="M 23.032361 77.053137 
" clip-path="url(#pd95368a4c6)" style="fill: none"/>
    <g clip-path="url(#pd95368a4c6)">
     <use xlink:href="#m9a9a05e126" x="23.032361" y="77.053137" style="fill: #1976d2"/>
    </g>
    <g clip-path="url(#pd95368a4c6)">
     <use xlink:href="#me68e5b6902" x="23.032361" y="77.053137" style="fill: #ffffff"/>
    </g>
   </g>
   <g id="line2d_17">
    <path d="M 23.032361 77.053137 
" clip-path="url(#pd95368a4c6)" style="fill: none"/>
    <g clip-path="url(#pd95368a4c6)">
     <use xlink:href="#mb554dfb6ef" x="23.032361" y="77.053137" style="fill-opacity: 0; stroke: #1976d2; stroke-linejoin: miter"/>
    </g>
   </g>
   <g id="line2d_18">
    <path d="M 28.952785 64.856031 
" clip-path="url(#pd95368a4c6)" style="fill: none"/>
    <g clip-path="url(#pd95368a4c6)">
     <use xlink:href="#mc8d95679ec" x="28.952785" y="64.856031" style="fill: #d32f2f"/>
    </g>
    <g clip-path="url(#pd95368a4c6)">
     <use xlink:href="#mdc25b81934" x="28.952785" y="64.856031" style="fill: #ffffff"/>
    </g>
   </g>
   <g id="line2d_19">
    <path d="M 28.952785 64.856031 
" clip-path="url(#pd95368a4c6)" style="fill: none"/>
    <g clip-path="url(#pd95368a4c6)">
     <use xlink:href="#m0919ec510a" x="28.952785" y="64.856031" style="fill-opacity: 0; stroke: #d32f2f; stroke-linejoin: miter"/>
    </g>
   </g>
   <g id="line2d_20">
    <path d="M 52.634483 83.512474 
" clip-path="url(#pd95368a4c6)" style="fill: none"/>
    <g clip-path="url(#pd95368a4c6)">
     <use xlink:href="#mc8d95679ec" x="52.634483" y="83.512474" style="fill: #d32f2f"/>
    </g>
    <g clip-path="url(#pd95368a4c6)">
     <use xlink:href="#mdc25b81934" x="52.634483" y="83.512474" style="fill: #ffffff"/>
    </g>
   </g>
   <g id="line2d_21">
    <path d="M 52.634483 83.512474 
" clip-path="url(#pd95368a4c6)" style="fill: none"/>
    <g clip-path="url(#pd95368a4c6)">
     <use xlink:href="#m0919ec510a" x="52.634483" y="83.512474" style="fill-opacity: 0; stroke: #d32f2f; stroke-linejoin: miter"/>
    </g>
   </g>
   <g id="line2d_22">
    <path d="M 82.236605 59.058108 
" clip-path="url(#pd95368a4c6)" style="fill: none"/>
    <g clip-path="url(#pd95368a4c6)">
     <use xlink:href="#mc8d95679ec" x="82.236605" y="59.058108" style="fill: #d32f2f"/>
    </g>
    <g clip-path="url(#pd95368a4c6)">
     <use xlink:href="#mdc25b81934" x="82.236605" y="59.058108" style="fill: #ffffff"/>
    </g>
   </g>
   <g id="line2d_23">
    <path d="M 82.236605 59.058108 
" clip-path="url(#pd95368a4c6)" style="fill: none"/>
    <g clip-path="url(#pd95368a4c6)">
     <use xlink:href="#m0919ec510a" x="82.236605" y="59.058108" style="fill-opacity: 0; stroke: #d32f2f; stroke-linejoin: miter"/>
    </g>
   </g>
   <g id="line2d_24">
    <path d="M 23.032361 84.049853 
" clip-path="url(#pd95368a4c6)" style="fill: none"/>
    <g clip-path="url(#pd95368a4c6)">
     <use xlink:href="#m9a9a05e126" x="23.032361" y="84.049853" style="fill: #1976d2"/>
    </g>
    <g clip-path="url(#pd95368a4c6)">
     <use xlink:href="#me68e5b6902" x="23.032361" y="84.049853" style="fill: #ffffff"/>
    </g>
   </g>
   <g id="line2d_25">
    <path d="M 23.032361 84.049853 
" clip-path="url(#pd95368a4c6)" style="fill: none"/>
    <g clip-path="url(#pd95368a4c6)">
     <use xlink:href="#mb554dfb6ef" x="23.032361" y="84.049853" style="fill-opacity: 0; stroke: #1976d2; stroke-linejoin: miter"/>
    </g>
   </g>
   <g id="line2d_26">
    <path d="M 28.952785 62.952541 
" clip-path="url(#pd95368a4c6)" style="fill: none"/>
    <g clip-path="url(#pd95368a4c6)">
     <use xlink:href="#m9a9a05e126" x="28.952785" y="62.952541" style="fill: #1976d2"/>
    </g>
    <g clip-path="url(#pd95368a4c6)">
     <use xlink:href="#me68e5b6902" x="28.952785" y="62.952541" style="fill: #ffffff"/>
    </g>
   </g>
   <g id="line2d_27">
    <path d="M 28.952785 62.952541 
" clip-path="url(#pd95368a4c6)" style="fill: none"/>
    <g clip-path="url(#pd95368a4c6)">
     <use xlink:href="#mb554dfb6ef" x="28.952785" y="62.952541" style="fill-opacity: 0; stroke: #1976d2; stroke-linejoin: miter"/>
    </g>
   </g>
   <g id="line2d_28">
    <path d="M 23.032361 58.647384 
" clip-path="url(#pd95368a4c6)" style="fill: none"/>
    <g clip-path="url(#pd95368a4c6)">
     <use xlink:href="#mc8d95679ec" x="23.032361" y="58.647384" style="fill: #d32f2f"/>
    </g>
    <g clip-path="url(#pd95368a4c6)">
     <use xlink:href="#mdc25b81934" x="23.032361" y="58.647384" style="fill: #ffffff"/>
    </g>
   </g>
   <g id="line2d_29">
    <path d="M 23.032361 58.647384 
" clip-path="url(#pd95368a4c6)" style="fill: none"/>
    <g clip-path="url(#pd95368a4c6)">
     <use xlink:href="#m0919ec510a" x="23.032361" y="58.647384" style="fill-opacity: 0; stroke: #d32f2f; stroke-linejoin: miter"/>
    </g>
   </g>
   <g id="line2d_30">
    <path d="M 64.475332 69.811455 
" clip-path="url(#pd95368a4c6)" style="fill: none"/>
    <g clip-path="url(#pd95368a4c6)">
     <use xlink:href="#mc8d95679ec" x="64.475332" y="69.811455" style="fill: #d32f2f"/>
    </g>
    <g clip-path="url(#pd95368a4c6)">
     <use xlink:href="#mdc25b81934" x="64.475332" y="69.811455" style="fill: #ffffff"/>
    </g>
   </g>
   <g id="line2d_31">
    <path d="M 64.475332 69.811455 
" clip-path="url(#pd95368a4c6)" style="fill: none"/>
    <g clip-path="url(#pd95368a4c6)">
     <use xlink:href="#m0919ec510a" x="64.475332" y="69.811455" style="fill-opacity: 0; stroke: #d32f2f; stroke-linejoin: miter"/>
    </g>
   </g>
   <g id="line2d_32">
    <path d="M 70.395756 70.749715 
" clip-path="url(#pd95368a4c6)" style="fill: none"/>
    <g clip-path="url(#pd95368a4c6)">
     <use xlink:href="#mc8d95679ec" x="70.395756" y="70.749715" style="fill: #d32f2f"/>
    </g>
    <g clip-path="url(#pd95368a4c6)">
     <use xlink:href="#mdc25b81934" x="70.395756" y="70.749715" style="fill: #ffffff"/>
    </g>
   </g>
   <g id="line2d_33">
    <path d="M 70.395756 70.749715 
" clip-path="url(#pd95368a4c6)" style="fill: none"/>
    <g clip-path="url(#pd95368a4c6)">
     <use xlink:href="#m0919ec510a" x="70.395756" y="70.749715" style="fill-opacity: 0; stroke: #d32f2f; stroke-linejoin: miter"/>
    </g>
   </g>
   <g id="line2d_34">
    <path d="M 28.952785 85.472532 
" clip-path="url(#pd95368a4c6)" style="fill: none"/>
    <g clip-path="url(#pd95368a4c6)">
     <use xlink:href="#m9a9a05e126" x="28.952785" y="85.472532" style="fill: #1976d2"/>
    </g>
    <g clip-path="url(#pd95368a4c6)">
     <use xlink:href="#me68e5b6902" x="28.952785" y="85.472532" style="fill: #ffffff"/>
    </g>
   </g>
   <g id="line2d_35">
    <path d="M 28.952785 85.472532 
" clip-path="url(#pd95368a4c6)" style="fill: none"/>
    <g clip-path="url(#pd95368a4c6)">
     <use xlink:href="#mb554dfb6ef" x="28.952785" y="85.472532" style="fill-opacity: 0; stroke: #1976d2; stroke-linejoin: miter"/>
    </g>
   </g>
   <g id="line2d_36">
    <path d="M 34.87321 78.528959 
" clip-path="url(#pd95368a4c6)" style="fill: none"/>
    <g clip-path="url(#pd95368a4c6)">
     <use xlink:href="#m9a9a05e126" x="34.87321" y="78.528959" style="fill: #1976d2"/>
    </g>
    <g clip-path="url(#pd95368a4c6)">
     <use xlink:href="#me68e5b6902" x="34.87321" y="78.528959" style="fill: #ffffff"/>
    </g>
   </g>
   <g id="line2d_37">
    <path d="M 34.87321 78.528959 
" clip-path="url(#pd95368a4c6)" style="fill: none"/>
    <g clip-path="url(#pd95368a4c6)">
     <use xlink:href="#mb554dfb6ef" x="34.87321" y="78.528959" style="fill-opacity: 0; stroke: #1976d2; stroke-linejoin: miter"/>
    </g>
   </g>
   <g id="line2d_38">
    <path d="M 40.793634 61.231949 
" clip-path="url(#pd95368a4c6)" style="fill: none"/>
    <g clip-path="url(#pd95368a4c6)">
     <use xlink:href="#m9a9a05e126" x="40.793634" y="61.231949" style="fill: #1976d2"/>
    </g>
    <g clip-path="url(#pd95368a4c6)">
     <use xlink:href="#me68e5b6902" x="40.793634" y="61.231949" style="fill: #ffffff"/>
    </g>
   </g>
   <g id="line2d_39">
    <path d="M 40.793634 61.231949 
" clip-path="url(#pd95368a4c6)" style="fill: none"/>
    <g clip-path="url(#pd95368a4c6)">
     <use xlink:href="#mb554dfb6ef" x="40.793634" y="61.231949" style="fill-opacity: 0; stroke: #1976d2; stroke-linejoin: miter"/>
    </g>
   </g>
   <g id="line2d_40">
    <path d="M 23.032361 65.055087 
" clip-path="url(#pd95368a4c6)" style="fill: none"/>
    <g clip-path="url(#pd95368a4c6)">
     <use xlink:href="#mc8d95679ec" x="23.032361" y="65.055087" style="fill: #d32f2f"/>
    </g>
    <g clip-path="url(#pd95368a4c6)">
     <use xlink:href="#mdc25b81934" x="23.032361" y="65.055087" style="fill: #ffffff"/>
    </g>
   </g>
   <g id="line2d_41">
    <path d="M 23.032361 65.055087 
" clip-path="url(#pd95368a4c6)" style="fill: none"/>
    <g clip-path="url(#pd95368a4c6)">
     <use xlink:href="#m0919ec510a" x="23.032361" y="65.055087" style="fill-opacity: 0; stroke: #d32f2f; stroke-linejoin: miter"/>
    </g>
   </g>
   <g id="line2d_42">
    <path d="M 40.793634 55.908899 
" clip-path="url(#pd95368a4c6)" style="fill: none"/>
    <g clip-path="url(#pd95368a4c6)">
     <use xlink:href="#mc8d95679ec" x="40.793634" y="55.908899" style="fill: #d32f2f"/>
    </g>
    <g clip-path="url(#pd95368a4c6)">
     <use xlink:href="#mdc25b81934" x="40.793634" y="55.908899" style="fill: #ffffff"/>
    </g>
   </g>
   <g id="line2d_43">
    <path d="M 40.793634 55.908899 
" clip-path="url(#pd95368a4c6)" style="fill: none"/>
    <g clip-path="url(#pd95368a4c6)">
     <use xlink:href="#m0919ec510a" x="40.793634" y="55.908899" style="fill-opacity: 0; stroke: #d32f2f; stroke-linejoin: miter"/>
    </g>
   </g>
   <g id="line2d_44">
    <path d="M 82.236605 92.165093 
" clip-path="url(#pd95368a4c6)" style="fill: none"/>
    <g clip-path="url(#pd95368a4c6)">
     <use xlink:href="#mc8d95679ec" x="82.236605" y="92.165093" style="fill: #d32f2f"/>
    </g>
    <g clip-path="url(#pd95368a4c6)">
     <use xlink:href="#mdc25b81934" x="82.236605" y="92.165093" style="fill: #ffffff"/>
    </g>
   </g>
   <g id="line2d_45">
    <path d="M 82.236605 92.165093 
" clip-path="url(#pd95368a4c6)" style="fill: none"/>
    <g clip-path="url(#pd95368a4c6)">
     <use xlink:href="#m0919ec510a" x="82.236605" y="92.165093" style="fill-opacity: 0; stroke: #d32f2f; stroke-linejoin: miter"/>
    </g>
   </g>
   <g id="line2d_46">
    <path d="M 34.87321 55.327954 
" clip-path="url(#pd95368a4c6)" style="fill: none"/>
    <g clip-path="url(#pd95368a4c6)">
     <use xlink:href="#mc8d95679ec" x="34.87321" y="55.327954" style="fill: #d32f2f"/>
    </g>
    <g clip-path="url(#pd95368a4c6)">
     <use xlink:href="#mdc25b81934" x="34.87321" y="55.327954" style="fill: #ffffff"/>
    </g>
   </g>
   <g id="line2d_47">
    <path d="M 34.87321 55.327954 
" clip-path="url(#pd95368a4c6)" style="fill: none"/>
    <g clip-path="url(#pd95368a4c6)">
     <use xlink:href="#m0919ec510a" x="34.87321" y="55.327954" style="fill-opacity: 0; stroke: #d32f2f; stroke-linejoin: miter"/>
    </g>
   </g>
   <g id="line2d_48">
    <path d="M 82.236605 63.634293 
" clip-path="url(#pd95368a4c6)" style="fill: none"/>
    <g clip-path="url(#pd95368a4c6)">
     <use xlink:href="#mc8d95679ec" x="82.236605" y="63.634293" style="fill: #d32f2f"/>
    </g>
    <g clip-path="url(#pd95368a4c6)">
     <use xlink:href="#mdc25b81934" x="82.236605" y="63.634293" style="fill: #ffffff"/>
    </g>
   </g>
   <g id="line2d_49">
    <path d="M 82.236605 63.634293 
" clip-path="url(#pd95368a4c6)" style="fill: none"/>
    <g clip-path="url(#pd95368a4c6)">
     <use xlink:href="#m0919ec510a" x="82.236605" y="63.634293" style="fill-opacity: 0; stroke: #d32f2f; stroke-linejoin: miter"/>
    </g>
   </g>
   <g id="line2d_50">
    <path d="M 88.157029 54.644646 
" clip-path="url(#pd95368a4c6)" style="fill: none"/>
    <g clip-path="url(#pd95368a4c6)">
     <use xlink:href="#mc8d95679ec" x="88.157029" y="54.644646" style="fill: #d32f2f"/>
    </g>
    <g clip-path="url(#pd95368a4c6)">
     <use xlink:href="#mdc25b81934" x="88.157029" y="54.644646" style="fill: #ffffff"/>
    </g>
   </g>
   <g id="line2d_51">
    <path d="M 88.157029 54.644646 
" clip-path="url(#pd95368a4c6)" style="fill: none"/>
    <g clip-path="url(#pd95368a4c6)">
     <use xlink:href="#m0919ec510a" x="88.157029" y="54.644646" style="fill-opacity: 0; stroke: #d32f2f; stroke-linejoin: miter"/>
    </g>
   </g>
   <g id="line2d_52">
    <path d="M 52.634483 67.611211 
" clip-path="url(#pd95368a4c6)" style="fill: none"/>
    <g clip-path="url(#pd95368a4c6)">
     <use xlink:href="#mc8d95679ec" x="52.634483" y="67.611211" style="fill: #d32f2f"/>
    </g>
    <g clip-path="url(#pd95368a4c6)">
     <use xlink:href="#mdc25b81934" x="52.634483" y="67.611211" style="fill: #ffffff"/>
    </g>
   </g>
   <g id="line2d_53">
    <path d="M 52.634483 67.611211 
" clip-path="url(#pd95368a4c6)" style="fill: none"/>
    <g clip-path="url(#pd95368a4c6)">
     <use xlink:href="#m0919ec510a" x="52.634483" y="67.611211" style="fill-opacity: 0; stroke: #d32f2f; stroke-linejoin: miter"/>
    </g>
   </g>
   <g id="line2d_54">
    <path d="M 99.997878 119.214526 
" clip-path="url(#pd95368a4c6)" style="fill: none"/>
    <g clip-path="url(#pd95368a4c6)">
     <use xlink:href="#mc8d95679ec" x="99.997878" y="119.214526" style="fill: #d32f2f"/>
    </g>
    <g clip-path="url(#pd95368a4c6)">
     <use xlink:href="#mdc25b81934" x="99.997878" y="119.214526" style="fill: #ffffff"/>
    </g>
   </g>
   <g id="line2d_55">
    <path d="M 99.997878 119.214526 
" clip-path="url(#pd95368a4c6)" style="fill: none"/>
    <g clip-path="url(#pd95368a4c6)">
     <use xlink:href="#m0919ec510a" x="99.997878" y="119.214526" style="fill-opacity: 0; stroke: #d32f2f; stroke-linejoin: miter"/>
    </g>
   </g>
   <g id="line2d_56">
    <path d="M 111.838727 71.641038 
" clip-path="url(#pd95368a4c6)" style="fill: none"/>
    <g clip-path="url(#pd95368a4c6)">
     <use xlink:href="#mc8d95679ec" x="111.838727" y="71.641038" style="fill: #d32f2f"/>
    </g>
    <g clip-path="url(#pd95368a4c6)">
     <use xlink:href="#mdc25b81934" x="111.838727" y="71.641038" style="fill: #ffffff"/>
    </g>
   </g>
   <g id="line2d_57">
    <path d="M 111.838727 71.641038 
" clip-path="url(#pd95368a4c6)" style="fill: none"/>
    <g clip-path="url(#pd95368a4c6)">
     <use xlink:href="#m0919ec510a" x="111.838727" y="71.641038" style="fill-opacity: 0; stroke: #d32f2f; stroke-linejoin: miter"/>
    </g>
   </g>
   <g id="line2d_58">
    <path d="M 46.714058 62.87933 
" clip-path="url(#pd95368a4c6)" style="fill: none"/>
    <g clip-path="url(#pd95368a4c6)">
     <use xlink:href="#mc8d95679ec" x="46.714058" y="62.87933" style="fill: #d32f2f"/>
    </g>
    <g clip-path="url(#pd95368a4c6)">
     <use xlink:href="#mdc25b81934" x="46.714058" y="62.87933" style="fill: #ffffff"/>
    </g>
   </g>
   <g id="line2d_59">
    <path d="M 46.714058 62.87933 
" clip-path="url(#pd95368a4c6)" style="fill: none"/>
    <g clip-path="url(#pd95368a4c6)">
     <use xlink:href="#m0919ec510a" x="46.714058" y="62.87933" style="fill-opacity: 0; stroke: #d32f2f; stroke-linejoin: miter"/>
    </g>
   </g>
   <g id="line2d_60">
    <path d="M 99.997878 60.751594 
" clip-path="url(#pd95368a4c6)" style="fill: none"/>
    <g clip-path="url(#pd95368a4c6)">
     <use xlink:href="#mc8d95679ec" x="99.997878" y="60.751594" style="fill: #d32f2f"/>
    </g>
    <g clip-path="url(#pd95368a4c6)">
     <use xlink:href="#mdc25b81934" x="99.997878" y="60.751594" style="fill: #ffffff"/>
    </g>
   </g>
   <g id="line2d_61">
    <path d="M 99.997878 60.751594 
" clip-path="url(#pd95368a4c6)" style="fill: none"/>
    <g clip-path="url(#pd95368a4c6)">
     <use xlink:href="#m0919ec510a" x="99.997878" y="60.751594" style="fill-opacity: 0; stroke: #d32f2f; stroke-linejoin: miter"/>
    </g>
   </g>
   <g id="line2d_62">
    <path d="M 123.679576 46.066555 
" clip-path="url(#pd95368a4c6)" style="fill: none"/>
    <g clip-path="url(#pd95368a4c6)">
     <use xlink:href="#mc8d95679ec" x="123.679576" y="46.066555" style="fill: #d32f2f"/>
    </g>
    <g clip-path="url(#pd95368a4c6)">
     <use xlink:href="#mdc25b81934" x="123.679576" y="46.066555" style="fill: #ffffff"/>
    </g>
   </g>
   <g id="line2d_63">
    <path d="M 123.679576 46.066555 
" clip-path="url(#pd95368a4c6)" style="fill: none"/>
    <g clip-path="url(#pd95368a4c6)">
     <use xlink:href="#m0919ec510a" x="123.679576" y="46.066555" style="fill-opacity: 0; stroke: #d32f2f; stroke-linejoin: miter"/>
    </g>
   </g>
   <g id="line2d_64">
    <path d="M 23.032361 57.52761 
" clip-path="url(#pd95368a4c6)" style="fill: none"/>
    <g clip-path="url(#pd95368a4c6)">
     <use xlink:href="#m9a9a05e126" x="23.032361" y="57.52761" style="fill: #1976d2"/>
    </g>
    <g clip-path="url(#pd95368a4c6)">
     <use xlink:href="#me68e5b6902" x="23.032361" y="57.52761" style="fill: #ffffff"/>
    </g>
   </g>
   <g id="line2d_65">
    <path d="M 23.032361 57.52761 
" clip-path="url(#pd95368a4c6)" style="fill: none"/>
    <g clip-path="url(#pd95368a4c6)">
     <use xlink:href="#mb554dfb6ef" x="23.032361" y="57.52761" style="fill-opacity: 0; stroke: #1976d2; stroke-linejoin: miter"/>
    </g>
   </g>
   <g id="line2d_66">
    <path d="M 28.952785 83.196773 
" clip-path="url(#pd95368a4c6)" style="fill: none"/>
    <g clip-path="url(#pd95368a4c6)">
     <use xlink:href="#m9a9a05e126" x="28.952785" y="83.196773" style="fill: #1976d2"/>
    </g>
    <g clip-path="url(#pd95368a4c6)">
     <use xlink:href="#me68e5b6902" x="28.952785" y="83.196773" style="fill: #ffffff"/>
    </g>
   </g>
   <g id="line2d_67">
    <path d="M 28.952785 83.196773 
" clip-path="url(#pd95368a4c6)" style="fill: none"/>
    <g clip-path="url(#pd95368a4c6)">
     <use xlink:href="#mb554dfb6ef" x="28.952785" y="83.196773" style="fill-opacity: 0; stroke: #1976d2; stroke-linejoin: miter"/>
    </g>
   </g>
   <g id="line2d_68">
    <path d="M 34.87321 53.511021 
" clip-path="url(#pd95368a4c6)" style="fill: none"/>
    <g clip-path="url(#pd95368a4c6)">
     <use xlink:href="#m9a9a05e126" x="34.87321" y="53.511021" style="fill: #1976d2"/>
    </g>
    <g clip-path="url(#pd95368a4c6)">
     <use xlink:href="#me68e5b6902" x="34.87321" y="53.511021" style="fill: #ffffff"/>
    </g>
   </g>
   <g id="line2d_69">
    <path d="M 34.87321 53.511021 
" clip-path="url(#pd95368a4c6)" style="fill: none"/>
    <g clip-path="url(#pd95368a4c6)">
     <use xlink:href="#mb554dfb6ef" x="34.87321" y="53.511021" style="fill-opacity: 0; stroke: #1976d2; stroke-linejoin: miter"/>
    </g>
   </g>
   <g id="line2d_70">
    <path d="M 23.032361 79.455662 
" clip-path="url(#pd95368a4c6)" style="fill: none"/>
    <g clip-path="url(#pd95368a4c6)">
     <use xlink:href="#m9a9a05e126" x="23.032361" y="79.455662" style="fill: #1976d2"/>
    </g>
    <g clip-path="url(#pd95368a4c6)">
     <use xlink:href="#me68e5b6902" x="23.032361" y="79.455662" style="fill: #ffffff"/>
    </g>
   </g>
   <g id="line2d_71">
    <path d="M 23.032361 79.455662 
" clip-path="url(#pd95368a4c6)" style="fill: none"/>
    <g clip-path="url(#pd95368a4c6)">
     <use xlink:href="#mb554dfb6ef" x="23.032361" y="79.455662" style="fill-opacity: 0; stroke: #1976d2; stroke-linejoin: miter"/>
    </g>
   </g>
   <g id="line2d_72">
    <path d="M 34.87321 63.09659 
" clip-path="url(#pd95368a4c6)" style="fill: none"/>
    <g clip-path="url(#pd95368a4c6)">
     <use xlink:href="#m9a9a05e126" x="34.87321" y="63.09659" style="fill: #1976d2"/>
    </g>
    <g clip-path="url(#pd95368a4c6)">
     <use xlink:href="#me68e5b6902" x="34.87321" y="63.09659" style="fill: #ffffff"/>
    </g>
   </g>
   <g id="line2d_73">
    <path d="M 34.87321 63.09659 
" clip-path="url(#pd95368a4c6)" style="fill: none"/>
    <g clip-path="url(#pd95368a4c6)">
     <use xlink:href="#mb554dfb6ef" x="34.87321" y="63.09659" style="fill-opacity: 0; stroke: #1976d2; stroke-linejoin: miter"/>
    </g>
   </g>
   <g id="line2d_74">
    <path d="M 64.475332 85.046199 
" clip-path="url(#pd95368a4c6)" style="fill: none"/>
    <g clip-path="url(#pd95368a4c6)">
     <use xlink:href="#m9a9a05e126" x="64.475332" y="85.046199" style="fill: #1976d2"/>
    </g>
    <g clip-path="url(#pd95368a4c6)">
     <use xlink:href="#me68e5b6902" x="64.475332" y="85.046199" style="fill: #ffffff"/>
    </g>
   </g>
   <g id="line2d_75">
    <path d="M 64.475332 85.046199 
" clip-path="url(#pd95368a4c6)" style="fill: none"/>
    <g clip-path="url(#pd95368a4c6)">
     <use xlink:href="#mb554dfb6ef" x="64.475332" y="85.046199" style="fill-opacity: 0; stroke: #1976d2; stroke-linejoin: miter"/>
    </g>
   </g>
   <g id="line2d_76">
    <path clip-path="url(#pd95368a4c6)" style="fill: none"/>
    <g clip-path="url(#pd95368a4c6)"/>
    <g clip-path="url(#pd95368a4c6)"/>
   </g>
   <g id="line2d_77">
    <path clip-path="url(#pd95368a4c6)" style="fill: none"/>
    <g clip-path="url(#pd95368a4c6)"/>
   </g>
   <g id="line2d_78">
    <path d="M 40.793634 89.858059 
" clip-path="url(#pd95368a4c6)" style="fill: none"/>
    <g clip-path="url(#pd95368a4c6)">
     <use xlink:href="#m9a9a05e126" x="40.793634" y="89.858059" style="fill: #1976d2"/>
    </g>
    <g clip-path="url(#pd95368a4c6)">
     <use xlink:href="#me68e5b6902" x="40.793634" y="89.858059" style="fill: #ffffff"/>
    </g>
   </g>
   <g id="line2d_79">
    <path d="M 40.793634 89.858059 
" clip-path="url(#pd95368a4c6)" style="fill: none"/>
    <g clip-path="url(#pd95368a4c6)">
     <use xlink:href="#mb554dfb6ef" x="40.793634" y="89.858059" style="fill-opacity: 0; stroke: #1976d2; stroke-linejoin: miter"/>
    </g>
   </g>
   <g id="line2d_80">
    <path d="M 58.554907 68.269716 
" clip-path="url(#pd95368a4c6)" style="fill: none"/>
    <g clip-path="url(#pd95368a4c6)">
     <use xlink:href="#m9a9a05e126" x="58.554907" y="68.269716" style="fill: #1976d2"/>
    </g>
    <g clip-path="url(#pd95368a4c6)">
     <use xlink:href="#me68e5b6902" x="58.554907" y="68.269716" style="fill: #ffffff"/>
    </g>
   </g>
   <g id="line2d_81">
    <path d="M 58.554907 68.269716 
" clip-path="url(#pd95368a4c6)" style="fill: none"/>
    <g clip-path="url(#pd95368a4c6)">
     <use xlink:href="#mb554dfb6ef" x="58.554907" y="68.269716" style="fill-opacity: 0; stroke: #1976d2; stroke-linejoin: miter"/>
    </g>
   </g>
   <g id="line2d_82">
    <path clip-path="url(#pd95368a4c6)" style="fill: none"/>
    <g clip-path="url(#pd95368a4c6)"/>
    <g clip-path="url(#pd95368a4c6)"/>
   </g>
   <g id="line2d_83">
    <path clip-path="url(#pd95368a4c6)" style="fill: none"/>
    <g clip-path="url(#pd95368a4c6)"/>
   </g>
   <g id="line2d_84">
    <path d="M 28.952785 58.730279 
" clip-path="url(#pd95368a4c6)" style="fill: none"/>
    <g clip-path="url(#pd95368a4c6)">
     <use xlink:href="#m9a9a05e126" x="28.952785" y="58.730279" style="fill: #1976d2"/>
    </g>
    <g clip-path="url(#pd95368a4c6)">
     <use xlink:href="#me68e5b6902" x="28.952785" y="58.730279" style="fill: #ffffff"/>
    </g>
   </g>
   <g id="line2d_85">
    <path d="M 28.952785 58.730279 
" clip-path="url(#pd95368a4c6)" style="fill: none"/>
    <g clip-path="url(#pd95368a4c6)">
     <use xlink:href="#mb554dfb6ef" x="28.952785" y="58.730279" style="fill-opacity: 0; stroke: #1976d2; stroke-linejoin: miter"/>
    </g>
   </g>
   <g id="line2d_86">
    <path d="M 40.793634 62.45527 
" clip-path="url(#pd95368a4c6)" style="fill: none"/>
    <g clip-path="url(#pd95368a4c6)">
     <use xlink:href="#m9a9a05e126" x="40.793634" y="62.45527" style="fill: #1976d2"/>
    </g>
    <g clip-path="url(#pd95368a4c6)">
     <use xlink:href="#me68e5b6902" x="40.793634" y="62.45527" style="fill: #ffffff"/>
    </g>
   </g>
   <g id="line2d_87">
    <path d="M 40.793634 62.45527 
" clip-path="url(#pd95368a4c6)" style="fill: none"/>
    <g clip-path="url(#pd95368a4c6)">
     <use xlink:href="#mb554dfb6ef" x="40.793634" y="62.45527" style="fill-opacity: 0; stroke: #1976d2; stroke-linejoin: miter"/>
    </g>
   </g>
   <g id="patch_3">
    <path d="M 18 128.16 
L 18 17.28 
" style="fill: none; stroke: #000000; stroke-width: 0.8; stroke-linejoin: miter; stroke-linecap: square"/>
   </g>
   <g id="patch_4">
    <path d="M 18 72.72 
L 129.6 72.72 
" style="fill: none; stroke: #000000; stroke-width: 0.8; stroke-linejoin: miter; stroke-linecap: square"/>
   </g>
   <g id="text_4">
    <!-- SEC13 -0.07 -->
    <g transform="translate(36.944063 11.28) scale(0.12 -0.12)">
     <defs>
      <path id="DejaVuSans-53" d="M 3425 4513 
L 3425 3897 
Q 3066 4069 2747 4153 
Q 2428 4238 2131 4238 
Q 1616 4238 1336 4038 
Q 1056 3838 1056 3469 
Q 1056 3159 1242 3001 
Q 1428 2844 1947 2747 
L 2328 2669 
Q 3034 2534 3370 2195 
Q 3706 1856 3706 1288 
Q 3706 609 3251 259 
Q 2797 -91 1919 -91 
Q 1588 -91 1214 -16 
Q 841 59 441 206 
L 441 856 
Q 825 641 1194 531 
Q 1563 422 1919 422 
Q 2459 422 2753 634 
Q 3047 847 3047 1241 
Q 3047 1584 2836 1778 
Q 2625 1972 2144 2069 
L 1759 2144 
Q 1053 2284 737 2584 
Q 422 2884 422 3419 
Q 422 4038 858 4394 
Q 1294 4750 2059 4750 
Q 2388 4750 2728 4690 
Q 3069 4631 3425 4513 
z
" transform="scale(0.015625)"/>
      <path id="DejaVuSans-45" d="M 628 4666 
L 3578 4666 
L 3578 4134 
L 1259 4134 
L 1259 2753 
L 3481 2753 
L 3481 2222 
L 1259 2222 
L 1259 531 
L 3634 531 
L 3634 0 
L 628 0 
L 628 4666 
z
" transform="scale(0.015625)"/>
      <path id="DejaVuSans-43" d="M 4122 4306 
L 4122 3641 
Q 3803 3938 3442 4084 
Q 3081 4231 2675 4231 
Q 1875 4231 1450 3742 
Q 1025 3253 1025 2328 
Q 1025 1406 1450 917 
Q 1875 428 2675 428 
Q 3081 428 3442 575 
Q 3803 722 4122 1019 
L 4122 359 
Q 3791 134 3420 21 
Q 3050 -91 2638 -91 
Q 1578 -91 968 557 
Q 359 1206 359 2328 
Q 359 3453 968 4101 
Q 1578 4750 2638 4750 
Q 3056 4750 3426 4639 
Q 3797 4528 4122 4306 
z
" transform="scale(0.015625)"/>
      <path id="DejaVuSans-31" d="M 794 531 
L 1825 531 
L 1825 4091 
L 703 3866 
L 703 4441 
L 1819 4666 
L 2450 4666 
L 2450 531 
L 3481 531 
L 3481 0 
L 794 0 
L 794 531 
z
" transform="scale(0.015625)"/>
      <path id="DejaVuSans-33" d="M 2597 2516 
Q 3050 2419 3304 2112 
Q 3559 1806 3559 1356 
Q 3559 666 3084 287 
Q 2609 -91 1734 -91 
Q 1441 -91 1130 -33 
Q 819 25 488 141 
L 488 750 
Q 750 597 1062 519 
Q 1375 441 1716 441 
Q 2309 441 2620 675 
Q 2931 909 2931 1356 
Q 2931 1769 2642 2001 
Q 2353 2234 1838 2234 
L 1294 2234 
L 1294 2753 
L 1863 2753 
Q 2328 2753 2575 2939 
Q 2822 3125 2822 3475 
Q 2822 3834 2567 4026 
Q 2313 4219 1838 4219 
Q 1578 4219 1281 4162 
Q 984 4106 628 3988 
L 628 4550 
Q 988 4650 1302 4700 
Q 1616 4750 1894 4750 
Q 2613 4750 3031 4423 
Q 3450 4097 3450 3541 
Q 3450 3153 3228 2886 
Q 3006 2619 2597 2516 
z
" transform="scale(0.015625)"/>
      <path id="DejaVuSans-20" transform="scale(0.015625)"/>
      <path id="DejaVuSans-2d" d="M 313 2009 
L 1997 2009 
L 1997 1497 
L 313 1497 
L 313 2009 
z
" transform="scale(0.015625)"/>
      <path id="DejaVuSans-2e" d="M 684 794 
L 1344 794 
L 1344 0 
L 684 0 
L 684 794 
z
" transform="scale(0.015625)"/>
      <path id="DejaVuSans-37" d="M 525 4666 
L 3525 4666 
L 3525 4397 
L 1831 0 
L 1172 0 
L 2766 4134 
L 525 4134 
L 525 4666 
z
" transform="scale(0.015625)"/>
     </defs>
     <use xlink:href="#DejaVuSans-53"/>
     <use xlink:href="#DejaVuSans-45" transform="translate(63.476562 0)"/>
     <use xlink:href="#DejaVuSans-43" transform="translate(126.660156 0)"/>
     <use xlink:href="#DejaVuSans-31" transform="translate(196.484375 0)"/>
     <use xlink:href="#DejaVuSans-33" transform="translate(260.107422 0)"/>
     <use xlink:href="#DejaVuSans-20" transform="translate(323.730469 0)"/>
     <use xlink:href="#DejaVuSans-2d" transform="translate(355.517578 0)"/>
     <use xlink:href="#DejaVuSans-30" transform="translate(391.601562 0)"/>
     <use xlink:href="#DejaVuSans-2e" transform="translate(455.224609 0)"/>
     <use xlink:href="#DejaVuSans-30" transform="translate(487.011719 0)"/>
     <use xlink:href="#DejaVuSans-37" transform="translate(550.634766 0)"/>
    </g>
   </g>
  </g>
 </g>
 <defs>
  <clipPath id="pd95368a4c6">
   <rect x="18" y="17.28" width="111.6" height="110.88"/>
  </clipPath>
 </defs>
</svg>
