<?xml version="1.0" encoding="utf-8" standalone="no"?>
<!DOCTYPE svg PUBLIC "-//W3C//DTD SVG 1.1//EN"
  "http://www.w3.org/Graphics/SVG/1.1/DTD/svg11.dtd">
<svg xmlns:xlink="http://www.w3.org/1999/xlink" width="144pt" height="144pt" viewBox="0 0 144 144" xmlns="http://www.w3.org/2000/svg" version="1.1">
 <metadata>
  <rdf:RDF xmlns:dc="http://purl.org/dc/elements/1.1/" xmlns:cc="http://creativecommons.org/ns#" xmlns:rdf="http://www.w3.org/1999/02/22-rdf-syntax-ns#">
   <cc:Work>
    <dc:type rdf:resource="http://purl.org/dc/dcmitype/StillImage"/>
    <dc:date>2026-02-17T13:08:27.557943</dc:date>
    <dc:format>image/svg+xml</dc:format>
    <dc:creator>
     <cc:Agent>
      <dc:title>Matplotlib v3.10.6, https://matplotlib.org/</dc:title>
     </cc:Agent>
    </dc:creator>
   </cc:Work>
  </rdf:RDF>
 </metadata>
 <defs>
  <style type="text/css">*{stroke-linejoin: round; stroke-linecap: butt}</style>
 </defs>
 <g id="figure_1">
  <g id="patch_1">
   <path d="M 0 144 
L 144 144 
L 144 0 
L 0 0 
z
" style="fill: #ffffff"/>
  </g>
  <g id="axes_1">
   <g id="patch_2">
    <path d="M 18 128.16 
L 129.6 128.16 
L 129.6 17.28 
L 18 17.28 
z
" style="fill: #ffffff"/>
   </g>
   <g id="matplotlib.axis_1">
    <g id="xtick_1">
     <g id="line2d_1">
      <defs>
       <path id="m1f3e72f0f2" d="M 0 0 
L 0 3.5 
" style="stroke: #000000; stroke-width: 0.8"/>
      </defs>
      <g>
       <use xlink:href="#m1f3e72f0f2" x="76.31618" y="72.72" style="stroke: #000000; stroke-width: 0.8"/>
      </g>
     </g>
    </g>
    <g id="xtick_2">
     <g id="line2d_2">
      <g>
       <use xlink:href="#m1f3e72f0f2" x="129.6" y="72.72" style="stroke: #000000; stroke-width: 0.8"/>
      </g>
     </g>
    </g>
   </g>
   <g id="matplotlib.axis_2">
    <g id="ytick_1">
     <g id="line2d_3">
      <defs>
       <path id="m8ba82393ca" d="M 0 0 
L -3.5 0 
" style="stroke: #000000; stroke-width: 0.8"/>
      </defs>
      <g>
       <use xlink:href="#m8ba82393ca" x="18" y="104.4" style="stroke: #000000; stroke-width: 0.8"/>
      </g>
     </g>
     <g id="text_1">
      <!-- −2 -->
      <g transform="translate(-3.742188 108.199219) scale(0.1 -0.1)">
       <defs>
        <path id="DejaVuSans-2212" d="M 678 2272 
L 4684 2272 
L 4684 1741 
L 678 1741 
L 678 2272 
z
" transform="scale(0.015625)"/>
        <path id="DejaVuSans-32" d="M 1228 531 
L 3431 531 
L 3431 0 
L 469 0 
L 469 531 
Q 828 903 1448 1529 
Q 2069 2156 2228 2338 
Q 2531 2678 2651 2914 
Q 2772 3150 2772 3378 
Q 2772 3750 2511 3984 
Q 2250 4219 1831 4219 
Q 1534 4219 1204 4116 
Q 875 4013 500 3803 
L 500 4441 
Q 881 4594 1212 4672 
Q 1544 4750 1819 4750 
Q 2544 4750 2975 4387 
Q 3406 4025 3406 3419 
Q 3406 3131 3298 2873 
Q 3191 2616 2906 2266 
Q 2828 2175 2409 1742 
Q 1991 1309 1228 531 
z
" transform="scale(0.015625)"/>
       </defs>
       <use xlink:href="#DejaVuSans-2212"/>
       <use xlink:href="#DejaVuSans-32" transform="translate(83.789062 0)"/>
      </g>
     </g>
    </g>
    <g id="ytick_2">
     <g id="line2d_4">
      <g>
       <use xlink:href="#m8ba82393ca" x="18" y="72.72" style="stroke: #000000; stroke-width: 0.8"/>
      </g>
     </g>
     <g id="text_2">
      <!-- 0 -->
      <g transform="translate(4.6375 76.519219) scale(0.1 -0.1)">
       <defs>
        <path id="DejaVuSans-30" d="M 2034 4250 
Q 1547 4250 1301 3770 
Q 1056 3291 1056 2328 
Q 1056 1369 1301 889 
Q 1547 409 2034 409 
Q 2525 409 2770 889 
Q 3016 1369 3016 2328 
Q 3016 3291 2770 3770 
Q 2525 4250 2034 4250 
z
M 2034 4750 
Q 2819 4750 3233 4129 
Q 3647 3509 3647 2328 
Q 3647 1150 3233 529 
Q 2819 -91 2034 -91 
Q 1250 -91 836 529 
Q 422 1150 422 2328 
Q 422 3509 836 4129 
Q 1250 4750 2034 4750 
z
" transform="scale(0.015625)"/>
       </defs>
       <use xlink:href="#DejaVuSans-30"/>
      </g>
     </g>
    </g>
    <g id="ytick_3">
     <g id="line2d_5">
      <g>
       <use xlink:href="#m8ba82393ca" x="18" y="41.04" style="stroke: #000000; stroke-width: 0.8"/>
      </g>
     </g>
     <g id="text_3">
      <!-- 2 -->
      <g transform="translate(4.6375 44.839219) scale(0.1 -0.1)">
       <use xlink:href="#DejaVuSans-32"/>
      </g>
     </g>
    </g>
   </g>
   <g id="line2d_6">
    <path d="M 40.793634 81.893799 
" clip-path="url(#p83f5a72589)" style="fill: none"/>
    <defs>
     <path id="mf24e2526d2" d="M 0 -4.242641 
L -4.242641 -0 
L -0 4.242641 
L 0 -4.242641 
"/>
    </defs>
    <g clip-path="url(#p83f5a72589)">
     <use xlink:href="#mf24e2526d2" x="40.793634" y="81.893799" style="fill: #d32f2f"/>
    </g>
    <defs>
     <path id="ma0c4505269" d="M 0 -4.242641 
L 4.242641 0 
L -0 4.242641 
L 0 -4.242641 
"/>
    </defs>
    <g clip-path="url(#p83f5a72589)">
     <use xlink:href="#ma0c4505269" x="40.793634" y="81.893799" style="fill: #ffffff"/>
    </g>
   </g>
   <g id="line2d_7">
    <path d="M 40.793634 81.893799 
" clip-path="url(#p83f5a72589)" style="fill: none"/>
    <defs>
     <path id="m77a5b26c3b" d="M -0 4.242641 
L 4.242641 0 
L 0 -4.242641 
L -4.242641 -0 
z
" style="stroke: #d32f2f; stroke-linejoin: miter"/>
    </defs>
    <g clip-path="url(#p83f5a72589)">
     <use xlink:href="#m77a5b26c3b" x="40.793634" y="81.893799" style="fill-opacity: 0; stroke: #d32f2f; stroke-linejoin: miter"/>
    </g>
   </g>
   <g id="line2d_8">
    <path d="M 58.554907 82.642313 
" clip-path="url(#p83f5a72589)" style="fill: none"/>
    <g clip-path="url(#p83f5a72589)">
     <use xlink:href="#mf24e2526d2" x="58.554907" y="82.642313" style="fill: #d32f2f"/>
    </g>
    <g clip-path="url(#p83f5a72589)">
     <use xlink:href="#ma0c4505269" x="58.554907" y="82.642313" style="fill: #ffffff"/>
    </g>
   </g>
   <g id="line2d_9">
    <path d="M 58.554907 82.642313 
" clip-path="url(#p83f5a72589)" style="fill: none"/>
    <g clip-path="url(#p83f5a72589)">
     <use xlink:href="#m77a5b26c3b" x="58.554907" y="82.642313" style="fill-opacity: 0; stroke: #d32f2f; stroke-linejoin: miter"/>
    </g>
   </g>
   <g id="line2d_10">
    <path d="M 64.475332 71.133541 
" clip-path="url(#p83f5a72589)" style="fill: none"/>
    <g clip-path="url(#p83f5a72589)">
     <use xlink:href="#mf24e2526d2" x="64.475332" y="71.133541" style="fill: #d32f2f"/>
    </g>
    <g clip-path="url(#p83f5a72589)">
     <use xlink:href="#ma0c4505269" x="64.475332" y="71.133541" style="fill: #ffffff"/>
    </g>
   </g>
   <g id="line2d_11">
    <path d="M 64.475332 71.133541 
" clip-path="url(#p83f5a72589)" style="fill: none"/>
    <g clip-path="url(#p83f5a72589)">
     <use xlink:href="#m77a5b26c3b" x="64.475332" y="71.133541" style="fill-opacity: 0; stroke: #d32f2f; stroke-linejoin: miter"/>
    </g>
   </g>
   <g id="line2d_12">
    <path d="M 23.032361 98.848709 
" clip-path="url(#p83f5a72589)" style="fill: none"/>
    <defs>
     <path id="mebe51e6ad8" d="M -0 4.242641 
L 4.242641 0 
L 0 -4.242641 
L -0 4.242641 
"/>
    </defs>
    <g clip-path="url(#p83f5a72589)">
     <use xlink:href="#mebe51e6ad8" x="23.032361" y="98.848709" style="fill: #1976d2"/>
    </g>
    <defs>
     <path id="m2d6b62f997" d="M -0 4.242641 
L -4.242641 -0 
L 0 -4.242641 
L -0 4.242641 
"/>
    </defs>
    <g clip-path="url(#p83f5a72589)">
     <use xlink:href="#m2d6b62f997" x="23.032361" y="98.848709" style="fill: #ffffff"/>
    </g>
   </g>
   <g id="line2d_13">
    <path d="M 23.032361 98.848709 
" clip-path="url(#p83f5a72589)" style="fill: none"/>
    <defs>
     <path id="m63b23d1fcf" d="M -0 4.242641 
L 4.242641 0 
L 0 -4.242641 
L -4.242641 -0 
z
" style="stroke: #1976d2; stroke-linejoin: miter"/>
    </defs>
    <g clip-path="url(#p83f5a72589)">
     <use xlink:href="#m63b23d1fcf" x="23.032361" y="98.848709" style="fill-opacity: 0; stroke: #1976d2; stroke-linejoin: miter"/>
    </g>
   </g>
   <g id="line2d_14">
    <path d="M 23.032361 107.052246 
" clip-path="url(#p83f5a72589)" style="fill: none"/>
    <g clip-path="url(#p83f5a72589)">
     <use xlink:href="#mebe51e6ad8" x="23.032361" y="107.052246" style="fill: #1976d2"/>
    </g>
    <g clip-path="url(#p83f5a72589)">
     <use xlink:href="#m2d6b62f997" x="23.032361" y="107.052246" style="fill: #ffffff"/>
    </g>
   </g>
   <g id="line2d_15">
    <path d="M 23.032361 107.052246 
" clip-path="url(#p83f5a72589)" style="fill: none"/>
    <g clip-path="url(#p83f5a72589)">
     <use xlink:href="#m63b23d1fcf" x="23.032361" y="107.052246" style="fill-opacity: 0; stroke: #1976d2; stroke-linejoin: miter"/>
    </g>
   </g>
   <g id="line2d_16">
    <path d="M 23.032361 77.563385 
" clip-path="url(#p83f5a72589)" style="fill: none"/>
    <g clip-path="url(#p83f5a72589)">
     <use xlink:href="#mebe51e6ad8" x="23.032361" y="77.563385" style="fill: #1976d2"/>
    </g>
    <g clip-path="url(#p83f5a72589)">
     <use xlink:href="#m2d6b62f997" x="23.032361" y="77.563385" style="fill: #ffffff"/>
    </g>
   </g>
   <g id="line2d_17">
    <path d="M 23.032361 77.563385 
" clip-path="url(#p83f5a72589)" style="fill: none"/>
    <g clip-path="url(#p83f5a72589)">
     <use xlink:href="#m63b23d1fcf" x="23.032361" y="77.563385" style="fill-opacity: 0; stroke: #1976d2; stroke-linejoin: miter"/>
    </g>
   </g>
   <g id="line2d_18">
    <path d="M 28.952785 58.056496 
" clip-path="url(#p83f5a72589)" style="fill: none"/>
    <g clip-path="url(#p83f5a72589)">
     <use xlink:href="#mf24e2526d2" x="28.952785" y="58.056496" style="fill: #d32f2f"/>
    </g>
    <g clip-path="url(#p83f5a72589)">
     <use xlink:href="#ma0c4505269" x="28.952785" y="58.056496" style="fill: #ffffff"/>
    </g>
   </g>
   <g id="line2d_19">
    <path d="M 28.952785 58.056496 
" clip-path="url(#p83f5a72589)" style="fill: none"/>
    <g clip-path="url(#p83f5a72589)">
     <use xlink:href="#m77a5b26c3b" x="28.952785" y="58.056496" style="fill-opacity: 0; stroke: #d32f2f; stroke-linejoin: miter"/>
    </g>
   </g>
   <g id="line2d_20">
    <path d="M 52.634483 70.938273 
" clip-path="url(#p83f5a72589)" style="fill: none"/>
    <g clip-path="url(#p83f5a72589)">
     <use xlink:href="#mf24e2526d2" x="52.634483" y="70.938273" style="fill: #d32f2f"/>
    </g>
    <g clip-path="url(#p83f5a72589)">
     <use xlink:href="#ma0c4505269" x="52.634483" y="70.938273" style="fill: #ffffff"/>
    </g>
   </g>
   <g id="line2d_21">
    <path d="M 52.634483 70.938273 
" clip-path="url(#p83f5a72589)" style="fill: none"/>
    <g clip-path="url(#p83f5a72589)">
     <use xlink:href="#m77a5b26c3b" x="52.634483" y="70.938273" style="fill-opacity: 0; stroke: #d32f2f; stroke-linejoin: miter"/>
    </g>
   </g>
   <g id="line2d_22">
    <path d="M 82.236605 66.152989 
" clip-path="url(#p83f5a72589)" style="fill: none"/>
    <g clip-path="url(#p83f5a72589)">
     <use xlink:href="#mf24e2526d2" x="82.236605" y="66.152989" style="fill: #d32f2f"/>
    </g>
    <g clip-path="url(#p83f5a72589)">
     <use xlink:href="#ma0c4505269" x="82.236605" y="66.152989" style="fill: #ffffff"/>
    </g>
   </g>
   <g id="line2d_23">
    <path d="M 82.236605 66.152989 
" clip-path="url(#p83f5a72589)" style="fill: none"/>
    <g clip-path="url(#p83f5a72589)">
     <use xlink:href="#m77a5b26c3b" x="82.236605" y="66.152989" style="fill-opacity: 0; stroke: #d32f2f; stroke-linejoin: miter"/>
    </g>
   </g>
   <g id="line2d_24">
    <path d="M 23.032361 79.516403 
" clip-path="url(#p83f5a72589)" style="fill: none"/>
    <g clip-path="url(#p83f5a72589)">
     <use xlink:href="#mebe51e6ad8" x="23.032361" y="79.516403" style="fill: #1976d2"/>
    </g>
    <g clip-path="url(#p83f5a72589)">
     <use xlink:href="#m2d6b62f997" x="23.032361" y="79.516403" style="fill: #ffffff"/>
    </g>
   </g>
   <g id="line2d_25">
    <path d="M 23.032361 79.516403 
" clip-path="url(#p83f5a72589)" style="fill: none"/>
    <g clip-path="url(#p83f5a72589)">
     <use xlink:href="#m63b23d1fcf" x="23.032361" y="79.516403" style="fill-opacity: 0; stroke: #1976d2; stroke-linejoin: miter"/>
    </g>
   </g>
   <g id="line2d_26">
    <path d="M 28.952785 56.186979 
" clip-path="url(#p83f5a72589)" style="fill: none"/>
    <g clip-path="url(#p83f5a72589)">
     <use xlink:href="#mebe51e6ad8" x="28.952785" y="56.186979" style="fill: #1976d2"/>
    </g>
    <g clip-path="url(#p83f5a72589)">
     <use xlink:href="#m2d6b62f997" x="28.952785" y="56.186979" style="fill: #ffffff"/>
    </g>
   </g>
   <g id="line2d_27">
    <path d="M 28.952785 56.186979 
" clip-path="url(#p83f5a72589)" style="fill: none"/>
    <g clip-path="url(#p83f5a72589)">
     <use xlink:href="#m63b23d1fcf" x="28.952785" y="56.186979" style="fill-opacity: 0; stroke: #1976d2; stroke-linejoin: miter"/>
    </g>
   </g>
   <g id="line2d_28">
    <path d="M 23.032361 64.456813 
" clip-path="url(#p83f5a72589)" style="fill: none"/>
    <g clip-path="url(#p83f5a72589)">
     <use xlink:href="#mf24e2526d2" x="23.032361" y="64.456813" style="fill: #d32f2f"/>
    </g>
    <g clip-path="url(#p83f5a72589)">
     <use xlink:href="#ma0c4505269" x="23.032361" y="64.456813" style="fill: #ffffff"/>
    </g>
   </g>
   <g id="line2d_29">
    <path d="M 23.032361 64.456813 
" clip-path="url(#p83f5a72589)" style="fill: none"/>
    <g clip-path="url(#p83f5a72589)">
     <use xlink:href="#m77a5b26c3b" x="23.032361" y="64.456813" style="fill-opacity: 0; stroke: #d32f2f; stroke-linejoin: miter"/>
    </g>
   </g>
   <g id="line2d_30">
    <path d="M 64.475332 90.044873 
" clip-path="url(#p83f5a72589)" style="fill: none"/>
    <g clip-path="url(#p83f5a72589)">
     <use xlink:href="#mf24e2526d2" x="64.475332" y="90.044873" style="fill: #d32f2f"/>
    </g>
    <g clip-path="url(#p83f5a72589)">
     <use xlink:href="#ma0c4505269" x="64.475332" y="90.044873" style="fill: #ffffff"/>
    </g>
   </g>
   <g id="line2d_31">
    <path d="M 64.475332 90.044873 
" clip-path="url(#p83f5a72589)" style="fill: none"/>
    <g clip-path="url(#p83f5a72589)">
     <use xlink:href="#m77a5b26c3b" x="64.475332" y="90.044873" style="fill-opacity: 0; stroke: #d32f2f; stroke-linejoin: miter"/>
    </g>
   </g>
   <g id="line2d_32">
    <path d="M 70.395756 67.336671 
" clip-path="url(#p83f5a72589)" style="fill: none"/>
    <g clip-path="url(#p83f5a72589)">
     <use xlink:href="#mf24e2526d2" x="70.395756" y="67.336671" style="fill: #d32f2f"/>
    </g>
    <g clip-path="url(#p83f5a72589)">
     <use xlink:href="#ma0c4505269" x="70.395756" y="67.336671" style="fill: #ffffff"/>
    </g>
   </g>
   <g id="line2d_33">
    <path d="M 70.395756 67.336671 
" clip-path="url(#p83f5a72589)" style="fill: none"/>
    <g clip-path="url(#p83f5a72589)">
     <use xlink:href="#m77a5b26c3b" x="70.395756" y="67.336671" style="fill-opacity: 0; stroke: #d32f2f; stroke-linejoin: miter"/>
    </g>
   </g>
   <g id="line2d_34">
    <path d="M 28.952785 84.838262 
" clip-path="url(#p83f5a72589)" style="fill: none"/>
    <g clip-path="url(#p83f5a72589)">
     <use xlink:href="#mebe51e6ad8" x="28.952785" y="84.838262" style="fill: #1976d2"/>
    </g>
    <g clip-path="url(#p83f5a72589)">
     <use xlink:href="#m2d6b62f997" x="28.952785" y="84.838262" style="fill: #ffffff"/>
    </g>
   </g>
   <g id="line2d_35">
    <path d="M 28.952785 84.838262 
" clip-path="url(#p83f5a72589)" style="fill: none"/>
    <g clip-path="url(#p83f5a72589)">
     <use xlink:href="#m63b23d1fcf" x="28.952785" y="84.838262" style="fill-opacity: 0; stroke: #1976d2; stroke-linejoin: miter"/>
    </g>
   </g>
   <g id="line2d_36">
    <path d="M 34.87321 63.4405 
" clip-path="url(#p83f5a72589)" style="fill: none"/>
    <g clip-path="url(#p83f5a72589)">
     <use xlink:href="#mebe51e6ad8" x="34.87321" y="63.4405" style="fill: #1976d2"/>
    </g>
    <g clip-path="url(#p83f5a72589)">
     <use xlink:href="#m2d6b62f997" x="34.87321" y="63.4405" style="fill: #ffffff"/>
    </g>
   </g>
   <g id="line2d_37">
    <path d="M 34.87321 63.4405 
" clip-path="url(#p83f5a72589)" style="fill: none"/>
    <g clip-path="url(#p83f5a72589)">
     <use xlink:href="#m63b23d1fcf" x="34.87321" y="63.4405" style="fill-opacity: 0; stroke: #1976d2; stroke-linejoin: miter"/>
    </g>
   </g>
   <g id="line2d_38">
    <path d="M 40.793634 51.638317 
" clip-path="url(#p83f5a72589)" style="fill: none"/>
    <g clip-path="url(#p83f5a72589)">
     <use xlink:href="#mebe51e6ad8" x="40.793634" y="51.638317" style="fill: #1976d2"/>
    </g>
    <g clip-path="url(#p83f5a72589)">
     <use xlink:href="#m2d6b62f997" x="40.793634" y="51.638317" style="fill: #ffffff"/>
    </g>
   </g>
   <g id="line2d_39">
    <path d="M 40.793634 51.638317 
" clip-path="url(#p83f5a72589)" style="fill: none"/>
    <g clip-path="url(#p83f5a72589)">
     <use xlink:href="#m63b23d1fcf" x="40.793634" y="51.638317" style="fill-opacity: 0; stroke: #1976d2; stroke-linejoin: miter"/>
    </g>
   </g>
   <g id="line2d_40">
    <path d="M 23.032361 80.553095 
" clip-path="url(#p83f5a72589)" style="fill: none"/>
    <g clip-path="url(#p83f5a72589)">
     <use xlink:href="#mf24e2526d2" x="23.032361" y="80.553095" style="fill: #d32f2f"/>
    </g>
    <g clip-path="url(#p83f5a72589)">
     <use xlink:href="#ma0c4505269" x="23.032361" y="80.553095" style="fill: #ffffff"/>
    </g>
   </g>
   <g id="line2d_41">
    <path d="M 23.032361 80.553095 
" clip-path="url(#p83f5a72589)" style="fill: none"/>
    <g clip-path="url(#p83f5a72589)">
     <use xlink:href="#m77a5b26c3b" x="23.032361" y="80.553095" style="fill-opacity: 0; stroke: #d32f2f; stroke-linejoin: miter"/>
    </g>
   </g>
   <g id="line2d_42">
    <path d="M 40.793634 68.593366 
" clip-path="url(#p83f5a72589)" style="fill: none"/>
    <g clip-path="url(#p83f5a72589)">
     <use xlink:href="#mf24e2526d2" x="40.793634" y="68.593366" style="fill: #d32f2f"/>
    </g>
    <g clip-path="url(#p83f5a72589)">
     <use xlink:href="#ma0c4505269" x="40.793634" y="68.593366" style="fill: #ffffff"/>
    </g>
   </g>
   <g id="line2d_43">
    <path d="M 40.793634 68.593366 
" clip-path="url(#p83f5a72589)" style="fill: none"/>
    <g clip-path="url(#p83f5a72589)">
     <use xlink:href="#m77a5b26c3b" x="40.793634" y="68.593366" style="fill-opacity: 0; stroke: #d32f2f; stroke-linejoin: miter"/>
    </g>
   </g>
   <g id="line2d_44">
    <path d="M 82.236605 76.835664 
" clip-path="url(#p83f5a72589)" style="fill: none"/>
    <g clip-path="url(#p83f5a72589)">
     <use xlink:href="#mf24e2526d2" x="82.236605" y="76.835664" style="fill: #d32f2f"/>
    </g>
    <g clip-path="url(#p83f5a72589)">
     <use xlink:href="#ma0c4505269" x="82.236605" y="76.835664" style="fill: #ffffff"/>
    </g>
   </g>
   <g id="line2d_45">
    <path d="M 82.236605 76.835664 
" clip-path="url(#p83f5a72589)" style="fill: none"/>
    <g clip-path="url(#p83f5a72589)">
     <use xlink:href="#m77a5b26c3b" x="82.236605" y="76.835664" style="fill-opacity: 0; stroke: #d32f2f; stroke-linejoin: miter"/>
    </g>
   </g>
   <g id="line2d_46">
    <path d="M 34.87321 72.983478 
" clip-path="url(#p83f5a72589)" style="fill: none"/>
    <g clip-path="url(#p83f5a72589)">
     <use xlink:href="#mf24e2526d2" x="34.87321" y="72.983478" style="fill: #d32f2f"/>
    </g>
    <g clip-path="url(#p83f5a72589)">
     <use xlink:href="#ma0c4505269" x="34.87321" y="72.983478" style="fill: #ffffff"/>
    </g>
   </g>
   <g id="line2d_47">
    <path d="M 34.87321 72.983478 
" clip-path="url(#p83f5a72589)" style="fill: none"/>
    <g clip-path="url(#p83f5a72589)">
     <use xlink:href="#m77a5b26c3b" x="34.87321" y="72.983478" style="fill-opacity: 0; stroke: #d32f2f; stroke-linejoin: miter"/>
    </g>
   </g>
   <g id="line2d_48">
    <path d="M 82.236605 81.97847 
" clip-path="url(#p83f5a72589)" style="fill: none"/>
    <g clip-path="url(#p83f5a72589)">
     <use xlink:href="#mf24e2526d2" x="82.236605" y="81.97847" style="fill: #d32f2f"/>
    </g>
    <g clip-path="url(#p83f5a72589)">
     <use xlink:href="#ma0c4505269" x="82.236605" y="81.97847" style="fill: #ffffff"/>
    </g>
   </g>
   <g id="line2d_49">
    <path d="M 82.236605 81.97847 
" clip-path="url(#p83f5a72589)" style="fill: none"/>
    <g clip-path="url(#p83f5a72589)">
     <use xlink:href="#m77a5b26c3b" x="82.236605" y="81.97847" style="fill-opacity: 0; stroke: #d32f2f; stroke-linejoin: miter"/>
    </g>
   </g>
   <g id="line2d_50">
    <path d="M 88.157029 53.057042 
" clip-path="url(#p83f5a72589)" style="fill: none"/>
    <g clip-path="url(#p83f5a72589)">
     <use xlink:href="#mf24e2526d2" x="88.157029" y="53.057042" style="fill: #d32f2f"/>
    </g>
    <g clip-path="url(#p83f5a72589)">
     <use xlink:href="#ma0c4505269" x="88.157029" y="53.057042" style="fill: #ffffff"/>
    </g>
   </g>
   <g id="line2d_51">
    <path d="M 88.157029 53.057042 
" clip-path="url(#p83f5a72589)" style="fill: none"/>
    <g clip-path="url(#p83f5a72589)">
     <use xlink:href="#m77a5b26c3b" x="88.157029" y="53.057042" style="fill-opacity: 0; stroke: #d32f2f; stroke-linejoin: miter"/>
    </g>
   </g>
   <g id="line2d_52">
    <path d="M 52.634483 61.350058 
" clip-path="url(#p83f5a72589)" style="fill: none"/>
    <g clip-path="url(#p83f5a72589)">
     <use xlink:href="#mf24e2526d2" x="52.634483" y="61.350058" style="fill: #d32f2f"/>
    </g>
    <g clip-path="url(#p83f5a72589)">
     <use xlink:href="#ma0c4505269" x="52.634483" y="61.350058" style="fill: #ffffff"/>
    </g>
   </g>
   <g id="line2d_53">
    <path d="M 52.634483 61.350058 
" clip-path="url(#p83f5a72589)" style="fill: none"/>
    <g clip-path="url(#p83f5a72589)">
     <use xlink:href="#m77a5b26c3b" x="52.634483" y="61.350058" style="fill-opacity: 0; stroke: #d32f2f; stroke-linejoin: miter"/>
    </g>
   </g>
   <g id="line2d_54">
    <path d="M 99.997878 80.014315 
" clip-path="url(#p83f5a72589)" style="fill: none"/>
    <g clip-path="url(#p83f5a72589)">
     <use xlink:href="#mf24e2526d2" x="99.997878" y="80.014315" style="fill: #d32f2f"/>
    </g>
    <g clip-path="url(#p83f5a72589)">
     <use xlink:href="#ma0c4505269" x="99.997878" y="80.014315" style="fill: #ffffff"/>
    </g>
   </g>
   <g id="line2d_55">
    <path d="M 99.997878 80.014315 
" clip-path="url(#p83f5a72589)" style="fill: none"/>
    <g clip-path="url(#p83f5a72589)">
     <use xlink:href="#m77a5b26c3b" x="99.997878" y="80.014315" style="fill-opacity: 0; stroke: #d32f2f; stroke-linejoin: miter"/>
    </g>
   </g>
   <g id="line2d_56">
    <path d="M 111.838727 76.711823 
" clip-path="url(#p83f5a72589)" style="fill: none"/>
    <g clip-path="url(#p83f5a72589)">
     <use xlink:href="#mf24e2526d2" x="111.838727" y="76.711823" style="fill: #d32f2f"/>
    </g>
    <g clip-path="url(#p83f5a72589)">
     <use xlink:href="#ma0c4505269" x="111.838727" y="76.711823" style="fill: #ffffff"/>
    </g>
   </g>
   <g id="line2d_57">
    <path d="M 111.838727 76.711823 
" clip-path="url(#p83f5a72589)" style="fill: none"/>
    <g clip-path="url(#p83f5a72589)">
     <use xlink:href="#m77a5b26c3b" x="111.838727" y="76.711823" style="fill-opacity: 0; stroke: #d32f2f; stroke-linejoin: miter"/>
    </g>
   </g>
   <g id="line2d_58">
    <path d="M 46.714058 46.47832 
" clip-path="url(#p83f5a72589)" style="fill: none"/>
    <g clip-path="url(#p83f5a72589)">
     <use xlink:href="#mf24e2526d2" x="46.714058" y="46.47832" style="fill: #d32f2f"/>
    </g>
    <g clip-path="url(#p83f5a72589)">
     <use xlink:href="#ma0c4505269" x="46.714058" y="46.47832" style="fill: #ffffff"/>
    </g>
   </g>
   <g id="line2d_59">
    <path d="M 46.714058 46.47832 
" clip-path="url(#p83f5a72589)" style="fill: none"/>
    <g clip-path="url(#p83f5a72589)">
     <use xlink:href="#m77a5b26c3b" x="46.714058" y="46.47832" style="fill-opacity: 0; stroke: #d32f2f; stroke-linejoin: miter"/>
    </g>
   </g>
   <g id="line2d_60">
    <path d="M 99.997878 75.084764 
" clip-path="url(#p83f5a72589)" style="fill: none"/>
    <g clip-path="url(#p83f5a72589)">
     <use xlink:href="#mf24e2526d2" x="99.997878" y="75.084764" style="fill: #d32f2f"/>
    </g>
    <g clip-path="url(#p83f5a72589)">
     <use xlink:href="#ma0c4505269" x="99.997878" y="75.084764" style="fill: #ffffff"/>
    </g>
   </g>
   <g id="line2d_61">
    <path d="M 99.997878 75.084764 
" clip-path="url(#p83f5a72589)" style="fill: none"/>
    <g clip-path="url(#p83f5a72589)">
     <use xlink:href="#m77a5b26c3b" x="99.997878" y="75.084764" style="fill-opacity: 0; stroke: #d32f2f; stroke-linejoin: miter"/>
    </g>
   </g>
   <g id="line2d_62">
    <path d="M 123.679576 42.981936 
" clip-path="url(#p83f5a72589)" style="fill: none"/>
    <g clip-path="url(#p83f5a72589)">
     <use xlink:href="#mf24e2526d2" x="123.679576" y="42.981936" style="fill: #d32f2f"/>
    </g>
    <g clip-path="url(#p83f5a72589)">
     <use xlink:href="#ma0c4505269" x="123.679576" y="42.981936" style="fill: #ffffff"/>
    </g>
   </g>
   <g id="line2d_63">
    <path d="M 123.679576 42.981936 
" clip-path="url(#p83f5a72589)" style="fill: none"/>
    <g clip-path="url(#p83f5a72589)">
     <use xlink:href="#m77a5b26c3b" x="123.679576" y="42.981936" style="fill-opacity: 0; stroke: #d32f2f; stroke-linejoin: miter"/>
    </g>
   </g>
   <g id="line2d_64">
    <path d="M 23.032361 58.720812 
" clip-path="url(#p83f5a72589)" style="fill: none"/>
    <g clip-path="url(#p83f5a72589)">
     <use xlink:href="#mebe51e6ad8" x="23.032361" y="58.720812" style="fill: #1976d2"/>
    </g>
    <g clip-path="url(#p83f5a72589)">
     <use xlink:href="#m2d6b62f997" x="23.032361" y="58.720812" style="fill: #ffffff"/>
    </g>
   </g>
   <g id="line2d_65">
    <path d="M 23.032361 58.720812 
" clip-path="url(#p83f5a72589)" style="fill: none"/>
    <g clip-path="url(#p83f5a72589)">
     <use xlink:href="#m63b23d1fcf" x="23.032361" y="58.720812" style="fill-opacity: 0; stroke: #1976d2; stroke-linejoin: miter"/>
    </g>
   </g>
   <g id="line2d_66">
    <path d="M 28.952785 78.017128 
" clip-path="url(#p83f5a72589)" style="fill: none"/>
    <g clip-path="url(#p83f5a72589)">
     <use xlink:href="#mebe51e6ad8" x="28.952785" y="78.017128" style="fill: #1976d2"/>
    </g>
    <g clip-path="url(#p83f5a72589)">
     <use xlink:href="#m2d6b62f997" x="28.952785" y="78.017128" style="fill: #ffffff"/>
    </g>
   </g>
   <g id="line2d_67">
    <path d="M 28.952785 78.017128 
" clip-path="url(#p83f5a72589)" style="fill: none"/>
    <g clip-path="url(#p83f5a72589)">
     <use xlink:href="#m63b23d1fcf" x="28.952785" y="78.017128" style="fill-opacity: 0; stroke: #1976d2; stroke-linejoin: miter"/>
    </g>
   </g>
   <g id="line2d_68">
    <path d="M 34.87321 51.765255 
" clip-path="url(#p83f5a72589)" style="fill: none"/>
    <g clip-path="url(#p83f5a72589)">
     <use xlink:href="#mebe51e6ad8" x="34.87321" y="51.765255" style="fill: #1976d2"/>
    </g>
    <g clip-path="url(#p83f5a72589)">
     <use xlink:href="#m2d6b62f997" x="34.87321" y="51.765255" style="fill: #ffffff"/>
    </g>
   </g>
   <g id="line2d_69">
    <path d="M 34.87321 51.765255 
" clip-path="url(#p83f5a72589)" style="fill: none"/>
    <g clip-path="url(#p83f5a72589)">
     <use xlink:href="#m63b23d1fcf" x="34.87321" y="51.765255" style="fill-opacity: 0; stroke: #1976d2; stroke-linejoin: miter"/>
    </g>
   </g>
   <g id="line2d_70">
    <path d="M 23.032361 109.425133 
" clip-path="url(#p83f5a72589)" style="fill: none"/>
    <g clip-path="url(#p83f5a72589)">
     <use xlink:href="#mebe51e6ad8" x="23.032361" y="109.425133" style="fill: #1976d2"/>
    </g>
    <g clip-path="url(#p83f5a72589)">
     <use xlink:href="#m2d6b62f997" x="23.032361" y="109.425133" style="fill: #ffffff"/>
    </g>
   </g>
   <g id="line2d_71">
    <path d="M 23.032361 109.425133 
" clip-path="url(#p83f5a72589)" style="fill: none"/>
    <g clip-path="url(#p83f5a72589)">
     <use xlink:href="#m63b23d1fcf" x="23.032361" y="109.425133" style="fill-opacity: 0; stroke: #1976d2; stroke-linejoin: miter"/>
    </g>
   </g>
   <g id="line2d_72">
    <path d="M 34.87321 60.546176 
" clip-path="url(#p83f5a72589)" style="fill: none"/>
    <g clip-path="url(#p83f5a72589)">
     <use xlink:href="#mebe51e6ad8" x="34.87321" y="60.546176" style="fill: #1976d2"/>
    </g>
    <g clip-path="url(#p83f5a72589)">
     <use xlink:href="#m2d6b62f997" x="34.87321" y="60.546176" style="fill: #ffffff"/>
    </g>
   </g>
   <g id="line2d_73">
    <path d="M 34.87321 60.546176 
" clip-path="url(#p83f5a72589)" style="fill: none"/>
    <g clip-path="url(#p83f5a72589)">
     <use xlink:href="#m63b23d1fcf" x="34.87321" y="60.546176" style="fill-opacity: 0; stroke: #1976d2; stroke-linejoin: miter"/>
    </g>
   </g>
   <g id="line2d_74">
    <path d="M 64.475332 92.494472 
" clip-path="url(#p83f5a72589)" style="fill: none"/>
    <g clip-path="url(#p83f5a72589)">
     <use xlink:href="#mebe51e6ad8" x="64.475332" y="92.494472" style="fill: #1976d2"/>
    </g>
    <g clip-path="url(#p83f5a72589)">
     <use xlink:href="#m2d6b62f997" x="64.475332" y="92.494472" style="fill: #ffffff"/>
    </g>
   </g>
   <g id="line2d_75">
    <path d="M 64.475332 92.494472 
" clip-path="url(#p83f5a72589)" style="fill: none"/>
    <g clip-path="url(#p83f5a72589)">
     <use xlink:href="#m63b23d1fcf" x="64.475332" y="92.494472" style="fill-opacity: 0; stroke: #1976d2; stroke-linejoin: miter"/>
    </g>
   </g>
   <g id="line2d_76">
    <path clip-path="url(#p83f5a72589)" style="fill: none"/>
    <g clip-path="url(#p83f5a72589)"/>
    <g clip-path="url(#p83f5a72589)"/>
   </g>
   <g id="line2d_77">
    <path clip-path="url(#p83f5a72589)" style="fill: none"/>
    <g clip-path="url(#p83f5a72589)"/>
   </g>
   <g id="line2d_78">
    <path d="M 40.793634 93.677573 
" clip-path="url(#p83f5a72589)" style="fill: none"/>
    <g clip-path="url(#p83f5a72589)">
     <use xlink:href="#mebe51e6ad8" x="40.793634" y="93.677573" style="fill: #1976d2"/>
    </g>
    <g clip-path="url(#p83f5a72589)">
     <use xlink:href="#m2d6b62f997" x="40.793634" y="93.677573" style="fill: #ffffff"/>
    </g>
   </g>
   <g id="line2d_79">
    <path d="M 40.793634 93.677573 
" clip-path="url(#p83f5a72589)" style="fill: none"/>
    <g clip-path="url(#p83f5a72589)">
     <use xlink:href="#m63b23d1fcf" x="40.793634" y="93.677573" style="fill-opacity: 0; stroke: #1976d2; stroke-linejoin: miter"/>
    </g>
   </g>
   <g id="line2d_80">
    <path d="M 58.554907 67.312427 
" clip-path="url(#p83f5a72589)" style="fill: none"/>
    <g clip-path="url(#p83f5a72589)">
     <use xlink:href="#mebe51e6ad8" x="58.554907" y="67.312427" style="fill: #1976d2"/>
    </g>
    <g clip-path="url(#p83f5a72589)">
     <use xlink:href="#m2d6b62f997" x="58.554907" y="67.312427" style="fill: #ffffff"/>
    </g>
   </g>
   <g id="line2d_81">
    <path d="M 58.554907 67.312427 
" clip-path="url(#p83f5a72589)" style="fill: none"/>
    <g clip-path="url(#p83f5a72589)">
     <use xlink:href="#m63b23d1fcf" x="58.554907" y="67.312427" style="fill-opacity: 0; stroke: #1976d2; stroke-linejoin: miter"/>
    </g>
   </g>
   <g id="line2d_82">
    <path clip-path="url(#p83f5a72589)" style="fill: none"/>
    <g clip-path="url(#p83f5a72589)"/>
    <g clip-path="url(#p83f5a72589)"/>
   </g>
   <g id="line2d_83">
    <path clip-path="url(#p83f5a72589)" style="fill: none"/>
    <g clip-path="url(#p83f5a72589)"/>
   </g>
   <g id="line2d_84">
    <path d="M 28.952785 56.423312 
" clip-path="url(#p83f5a72589)" style="fill: none"/>
    <g clip-path="url(#p83f5a72589)">
     <use xlink:href="#mebe51e6ad8" x="28.952785" y="56.423312" style="fill: #1976d2"/>
    </g>
    <g clip-path="url(#p83f5a72589)">
     <use xlink:href="#m2d6b62f997" x="28.952785" y="56.423312" style="fill: #ffffff"/>
    </g>
   </g>
   <g id="line2d_85">
    <path d="M 28.952785 56.423312 
" clip-path="url(#p83f5a72589)" style="fill: none"/>
    <g clip-path="url(#p83f5a72589)">
     <use xlink:href="#m63b23d1fcf" x="28.952785" y="56.423312" style="fill-opacity: 0; stroke: #1976d2; stroke-linejoin: miter"/>
    </g>
   </g>
   <g id="line2d_86">
    <path d="M 40.793634 54.243413 
" clip-path="url(#p83f5a72589)" style="fill: none"/>
    <g clip-path="url(#p83f5a72589)">
     <use xlink:href="#mebe51e6ad8" x="40.793634" y="54.243413" style="fill: #1976d2"/>
    </g>
    <g clip-path="url(#p83f5a72589)">
     <use xlink:href="#m2d6b62f997" x="40.793634" y="54.243413" style="fill: #ffffff"/>
    </g>
   </g>
   <g id="line2d_87">
    <path d="M 40.793634 54.243413 
" clip-path="url(#p83f5a72589)" style="fill: none"/>
    <g clip-path="url(#p83f5a72589)">
     <use xlink:href="#m63b23d1fcf" x="40.793634" y="54.243413" style="fill-opacity: 0; stroke: #1976d2; stroke-linejoin: miter"/>
    </g>
   </g>
   <g id="patch_3">
    <path d="M 18 128.16 
L 18 17.28 
" style="fill: none; stroke: #000000; stroke-width: 0.8; stroke-linejoin: miter; stroke-linecap: square"/>
   </g>
   <g id="patch_4">
    <path d="M 18 72.72 
L 129.6 72.72 
" style="fill: none; stroke: #000000; stroke-width: 0.8; stroke-linejoin: miter; stroke-linecap: square"/>
   </g>
   <g id="text_4">
    <!-- SEC23A -0.02 -->
    <g transform="translate(32.839687 11.28) scale(0.12 -0.12)">
     <defs>
      <path id="DejaVuSans-53" d="M 3425 4513 
L 3425 3897 
Q 3066 4069 2747 4153 
Q 2428 4238 2131 4238 
Q 1616 4238 1336 4038 
Q 1056 3838 1056 3469 
Q 1056 3159 1242 3001 
Q 1428 2844 1947 2747 
L 2328 2669 
Q 3034 2534 3370 2195 
Q 3706 1856 3706 1288 
Q 3706 609 3251 259 
Q 2797 -91 1919 -91 
Q 1588 -91 1214 -16 
Q 841 59 441 206 
L 441 856 
Q 825 641 1194 531 
Q 1563 422 1919 422 
Q 2459 422 2753 634 
Q 3047 847 3047 1241 
Q 3047 1584 2836 1778 
Q 2625 1972 2144 2069 
L 1759 2144 
Q 1053 2284 737 2584 
Q 422 2884 422 3419 
Q 422 4038 858 4394 
Q 1294 4750 2059 4750 
Q 2388 4750 2728 4690 
Q 3069 4631 3425 4513 
z
" transform="scale(0.015625)"/>
      <path id="DejaVuSans-45" d="M 628 4666 
L 3578 4666 
L 3578 4134 
L 1259 4134 
L 1259 2753 
L 3481 2753 
L 3481 2222 
L 1259 2222 
L 1259 531 
L 3634 531 
L 3634 0 
L 628 0 
L 628 4666 
z
" transform="scale(0.015625)"/>
      <path id="DejaVuSans-43" d="M 4122 4306 
L 4122 3641 
Q 3803 3938 3442 4084 
Q 3081 4231 2675 4231 
Q 1875 4231 1450 3742 
Q 1025 3253 1025 2328 
Q 1025 1406 1450 917 
Q 1875 428 2675 428 
Q 3081 428 3442 575 
Q 3803 722 4122 1019 
L 4122 359 
Q 3791 134 3420 21 
Q 3050 -91 2638 -91 
Q 1578 -91 968 557 
Q 359 1206 359 2328 
Q 359 3453 968 4101 
Q 1578 4750 2638 4750 
Q 3056 4750 3426 4639 
Q 3797 4528 4122 4306 
z
" transform="scale(0.015625)"/>
      <path id="DejaVuSans-33" d="M 2597 2516 
Q 3050 2419 3304 2112 
Q 3559 1806 3559 1356 
Q 3559 666 3084 287 
Q 2609 -91 1734 -91 
Q 1441 -91 1130 -33 
Q 819 25 488 141 
L 488 750 
Q 750 597 1062 519 
Q 1375 441 1716 441 
Q 2309 441 2620 675 
Q 2931 909 2931 1356 
Q 2931 1769 2642 2001 
Q 2353 2234 1838 2234 
L 1294 2234 
L 1294 2753 
L 1863 2753 
Q 2328 2753 2575 2939 
Q 2822 3125 2822 3475 
Q 2822 3834 2567 4026 
Q 2313 4219 1838 4219 
Q 1578 4219 1281 4162 
Q 984 4106 628 3988 
L 628 4550 
Q 988 4650 1302 4700 
Q 1616 4750 1894 4750 
Q 2613 4750 3031 4423 
Q 3450 4097 3450 3541 
Q 3450 3153 3228 2886 
Q 3006 2619 2597 2516 
z
" transform="scale(0.015625)"/>
      <path id="DejaVuSans-41" d="M 2188 4044 
L 1331 1722 
L 3047 1722 
L 2188 4044 
z
M 1831 4666 
L 2547 4666 
L 4325 0 
L 3669 0 
L 3244 1197 
L 1141 1197 
L 716 0 
L 50 0 
L 1831 4666 
z
" transform="scale(0.015625)"/>
      <path id="DejaVuSans-20" transform="scale(0.015625)"/>
      <path id="DejaVuSans-2d" d="M 313 2009 
L 1997 2009 
L 1997 1497 
L 313 1497 
L 313 2009 
z
" transform="scale(0.015625)"/>
      <path id="DejaVuSans-2e" d="M 684 794 
L 1344 794 
L 1344 0 
L 684 0 
L 684 794 
z
" transform="scale(0.015625)"/>
     </defs>
     <use xlink:href="#DejaVuSans-53"/>
     <use xlink:href="#DejaVuSans-45" transform="translate(63.476562 0)"/>
     <use xlink:href="#DejaVuSans-43" transform="translate(126.660156 0)"/>
     <use xlink:href="#DejaVuSans-32" transform="translate(196.484375 0)"/>
     <use xlink:href="#DejaVuSans-33" transform="translate(260.107422 0)"/>
     <use xlink:href="#DejaVuSans-41" transform="translate(323.730469 0)"/>
     <use xlink:href="#DejaVuSans-20" transform="translate(392.138672 0)"/>
     <use xlink:href="#DejaVuSans-2d" transform="translate(423.925781 0)"/>
     <use xlink:href="#DejaVuSans-30" transform="translate(460.009766 0)"/>
     <use xlink:href="#DejaVuSans-2e" transform="translate(523.632812 0)"/>
     <use xlink:href="#DejaVuSans-30" transform="translate(555.419922 0)"/>
     <use xlink:href="#DejaVuSans-32" transform="translate(619.042969 0)"/>
    </g>
   </g>
  </g>
 </g>
 <defs>
  <clipPath id="p83f5a72589">
   <rect x="18" y="17.28" width="111.6" height="110.88"/>
  </clipPath>
 </defs>
</svg>
