<?xml version="1.0" encoding="utf-8" standalone="no"?>
<!DOCTYPE svg PUBLIC "-//W3C//DTD SVG 1.1//EN"
  "http://www.w3.org/Graphics/SVG/1.1/DTD/svg11.dtd">
<svg xmlns:xlink="http://www.w3.org/1999/xlink" width="144pt" height="144pt" viewBox="0 0 144 144" xmlns="http://www.w3.org/2000/svg" version="1.1">
 <metadata>
  <rdf:RDF xmlns:dc="http://purl.org/dc/elements/1.1/" xmlns:cc="http://creativecommons.org/ns#" xmlns:rdf="http://www.w3.org/1999/02/22-rdf-syntax-ns#">
   <cc:Work>
    <dc:type rdf:resource="http://purl.org/dc/dcmitype/StillImage"/>
    <dc:date>2026-02-17T13:08:28.128204</dc:date>
    <dc:format>image/svg+xml</dc:format>
    <dc:creator>
     <cc:Agent>
      <dc:title>Matplotlib v3.10.6, https://matplotlib.org/</dc:title>
     </cc:Agent>
    </dc:creator>
   </cc:Work>
  </rdf:RDF>
 </metadata>
 <defs>
  <style type="text/css">*{stroke-linejoin: round; stroke-linecap: butt}</style>
 </defs>
 <g id="figure_1">
  <g id="patch_1">
   <path d="M 0 144 
L 144 144 
L 144 0 
L 0 0 
z
" style="fill: #ffffff"/>
  </g>
  <g id="axes_1">
   <g id="patch_2">
    <path d="M 18 128.16 
L 129.6 128.16 
L 129.6 17.28 
L 18 17.28 
z
" style="fill: #ffffff"/>
   </g>
   <g id="matplotlib.axis_1">
    <g id="xtick_1">
     <g id="line2d_1">
      <defs>
       <path id="m7487e59964" d="M 0 0 
L 0 3.5 
" style="stroke: #000000; stroke-width: 0.8"/>
      </defs>
      <g>
       <use xlink:href="#m7487e59964" x="76.31618" y="72.72" style="stroke: #000000; stroke-width: 0.8"/>
      </g>
     </g>
    </g>
    <g id="xtick_2">
     <g id="line2d_2">
      <g>
       <use xlink:href="#m7487e59964" x="129.6" y="72.72" style="stroke: #000000; stroke-width: 0.8"/>
      </g>
     </g>
    </g>
   </g>
   <g id="matplotlib.axis_2">
    <g id="ytick_1">
     <g id="line2d_3">
      <defs>
       <path id="m83a472ff53" d="M 0 0 
L -3.5 0 
" style="stroke: #000000; stroke-width: 0.8"/>
      </defs>
      <g>
       <use xlink:href="#m83a472ff53" x="18" y="104.4" style="stroke: #000000; stroke-width: 0.8"/>
      </g>
     </g>
     <g id="text_1">
      <!-- −2 -->
      <g transform="translate(-3.742188 108.199219) scale(0.1 -0.1)">
       <defs>
        <path id="DejaVuSans-2212" d="M 678 2272 
L 4684 2272 
L 4684 1741 
L 678 1741 
L 678 2272 
z
" transform="scale(0.015625)"/>
        <path id="DejaVuSans-32" d="M 1228 531 
L 3431 531 
L 3431 0 
L 469 0 
L 469 531 
Q 828 903 1448 1529 
Q 2069 2156 2228 2338 
Q 2531 2678 2651 2914 
Q 2772 3150 2772 3378 
Q 2772 3750 2511 3984 
Q 2250 4219 1831 4219 
Q 1534 4219 1204 4116 
Q 875 4013 500 3803 
L 500 4441 
Q 881 4594 1212 4672 
Q 1544 4750 1819 4750 
Q 2544 4750 2975 4387 
Q 3406 4025 3406 3419 
Q 3406 3131 3298 2873 
Q 3191 2616 2906 2266 
Q 2828 2175 2409 1742 
Q 1991 1309 1228 531 
z
" transform="scale(0.015625)"/>
       </defs>
       <use xlink:href="#DejaVuSans-2212"/>
       <use xlink:href="#DejaVuSans-32" transform="translate(83.789062 0)"/>
      </g>
     </g>
    </g>
    <g id="ytick_2">
     <g id="line2d_4">
      <g>
       <use xlink:href="#m83a472ff53" x="18" y="72.72" style="stroke: #000000; stroke-width: 0.8"/>
      </g>
     </g>
     <g id="text_2">
      <!-- 0 -->
      <g transform="translate(4.6375 76.519219) scale(0.1 -0.1)">
       <defs>
        <path id="DejaVuSans-30" d="M 2034 4250 
Q 1547 4250 1301 3770 
Q 1056 3291 1056 2328 
Q 1056 1369 1301 889 
Q 1547 409 2034 409 
Q 2525 409 2770 889 
Q 3016 1369 3016 2328 
Q 3016 3291 2770 3770 
Q 2525 4250 2034 4250 
z
M 2034 4750 
Q 2819 4750 3233 4129 
Q 3647 3509 3647 2328 
Q 3647 1150 3233 529 
Q 2819 -91 2034 -91 
Q 1250 -91 836 529 
Q 422 1150 422 2328 
Q 422 3509 836 4129 
Q 1250 4750 2034 4750 
z
" transform="scale(0.015625)"/>
       </defs>
       <use xlink:href="#DejaVuSans-30"/>
      </g>
     </g>
    </g>
    <g id="ytick_3">
     <g id="line2d_5">
      <g>
       <use xlink:href="#m83a472ff53" x="18" y="41.04" style="stroke: #000000; stroke-width: 0.8"/>
      </g>
     </g>
     <g id="text_3">
      <!-- 2 -->
      <g transform="translate(4.6375 44.839219) scale(0.1 -0.1)">
       <use xlink:href="#DejaVuSans-32"/>
      </g>
     </g>
    </g>
   </g>
   <g id="line2d_6">
    <path d="M 40.793634 83.031433 
" clip-path="url(#p5dc4d4891c)" style="fill: none"/>
    <defs>
     <path id="mf3e91bac54" d="M 0 -4.242641 
L -4.242641 -0 
L -0 4.242641 
L 0 -4.242641 
"/>
    </defs>
    <g clip-path="url(#p5dc4d4891c)">
     <use xlink:href="#mf3e91bac54" x="40.793634" y="83.031433" style="fill: #d32f2f"/>
    </g>
    <defs>
     <path id="m6d0a480a08" d="M 0 -4.242641 
L 4.242641 0 
L -0 4.242641 
L 0 -4.242641 
"/>
    </defs>
    <g clip-path="url(#p5dc4d4891c)">
     <use xlink:href="#m6d0a480a08" x="40.793634" y="83.031433" style="fill: #ffffff"/>
    </g>
   </g>
   <g id="line2d_7">
    <path d="M 40.793634 83.031433 
" clip-path="url(#p5dc4d4891c)" style="fill: none"/>
    <defs>
     <path id="mc41f022e07" d="M -0 4.242641 
L 4.242641 0 
L 0 -4.242641 
L -4.242641 -0 
z
" style="stroke: #d32f2f; stroke-linejoin: miter"/>
    </defs>
    <g clip-path="url(#p5dc4d4891c)">
     <use xlink:href="#mc41f022e07" x="40.793634" y="83.031433" style="fill-opacity: 0; stroke: #d32f2f; stroke-linejoin: miter"/>
    </g>
   </g>
   <g id="line2d_8">
    <path d="M 58.554907 80.324475 
" clip-path="url(#p5dc4d4891c)" style="fill: none"/>
    <g clip-path="url(#p5dc4d4891c)">
     <use xlink:href="#mf3e91bac54" x="58.554907" y="80.324475" style="fill: #d32f2f"/>
    </g>
    <g clip-path="url(#p5dc4d4891c)">
     <use xlink:href="#m6d0a480a08" x="58.554907" y="80.324475" style="fill: #ffffff"/>
    </g>
   </g>
   <g id="line2d_9">
    <path d="M 58.554907 80.324475 
" clip-path="url(#p5dc4d4891c)" style="fill: none"/>
    <g clip-path="url(#p5dc4d4891c)">
     <use xlink:href="#mc41f022e07" x="58.554907" y="80.324475" style="fill-opacity: 0; stroke: #d32f2f; stroke-linejoin: miter"/>
    </g>
   </g>
   <g id="line2d_10">
    <path d="M 64.475332 61.582331 
" clip-path="url(#p5dc4d4891c)" style="fill: none"/>
    <g clip-path="url(#p5dc4d4891c)">
     <use xlink:href="#mf3e91bac54" x="64.475332" y="61.582331" style="fill: #d32f2f"/>
    </g>
    <g clip-path="url(#p5dc4d4891c)">
     <use xlink:href="#m6d0a480a08" x="64.475332" y="61.582331" style="fill: #ffffff"/>
    </g>
   </g>
   <g id="line2d_11">
    <path d="M 64.475332 61.582331 
" clip-path="url(#p5dc4d4891c)" style="fill: none"/>
    <g clip-path="url(#p5dc4d4891c)">
     <use xlink:href="#mc41f022e07" x="64.475332" y="61.582331" style="fill-opacity: 0; stroke: #d32f2f; stroke-linejoin: miter"/>
    </g>
   </g>
   <g id="line2d_12">
    <path d="M 23.032361 106.205209 
" clip-path="url(#p5dc4d4891c)" style="fill: none"/>
    <defs>
     <path id="m94a54326ed" d="M -0 4.242641 
L 4.242641 0 
L 0 -4.242641 
L -0 4.242641 
"/>
    </defs>
    <g clip-path="url(#p5dc4d4891c)">
     <use xlink:href="#m94a54326ed" x="23.032361" y="106.205209" style="fill: #1976d2"/>
    </g>
    <defs>
     <path id="md78f8fbd3a" d="M -0 4.242641 
L -4.242641 -0 
L 0 -4.242641 
L -0 4.242641 
"/>
    </defs>
    <g clip-path="url(#p5dc4d4891c)">
     <use xlink:href="#md78f8fbd3a" x="23.032361" y="106.205209" style="fill: #ffffff"/>
    </g>
   </g>
   <g id="line2d_13">
    <path d="M 23.032361 106.205209 
" clip-path="url(#p5dc4d4891c)" style="fill: none"/>
    <defs>
     <path id="mb8d9b8a9cb" d="M -0 4.242641 
L 4.242641 0 
L 0 -4.242641 
L -4.242641 -0 
z
" style="stroke: #1976d2; stroke-linejoin: miter"/>
    </defs>
    <g clip-path="url(#p5dc4d4891c)">
     <use xlink:href="#mb8d9b8a9cb" x="23.032361" y="106.205209" style="fill-opacity: 0; stroke: #1976d2; stroke-linejoin: miter"/>
    </g>
   </g>
   <g id="line2d_14">
    <path d="M 23.032361 108.852258 
" clip-path="url(#p5dc4d4891c)" style="fill: none"/>
    <g clip-path="url(#p5dc4d4891c)">
     <use xlink:href="#m94a54326ed" x="23.032361" y="108.852258" style="fill: #1976d2"/>
    </g>
    <g clip-path="url(#p5dc4d4891c)">
     <use xlink:href="#md78f8fbd3a" x="23.032361" y="108.852258" style="fill: #ffffff"/>
    </g>
   </g>
   <g id="line2d_15">
    <path d="M 23.032361 108.852258 
" clip-path="url(#p5dc4d4891c)" style="fill: none"/>
    <g clip-path="url(#p5dc4d4891c)">
     <use xlink:href="#mb8d9b8a9cb" x="23.032361" y="108.852258" style="fill-opacity: 0; stroke: #1976d2; stroke-linejoin: miter"/>
    </g>
   </g>
   <g id="line2d_16">
    <path d="M 23.032361 66.014576 
" clip-path="url(#p5dc4d4891c)" style="fill: none"/>
    <g clip-path="url(#p5dc4d4891c)">
     <use xlink:href="#m94a54326ed" x="23.032361" y="66.014576" style="fill: #1976d2"/>
    </g>
    <g clip-path="url(#p5dc4d4891c)">
     <use xlink:href="#md78f8fbd3a" x="23.032361" y="66.014576" style="fill: #ffffff"/>
    </g>
   </g>
   <g id="line2d_17">
    <path d="M 23.032361 66.014576 
" clip-path="url(#p5dc4d4891c)" style="fill: none"/>
    <g clip-path="url(#p5dc4d4891c)">
     <use xlink:href="#mb8d9b8a9cb" x="23.032361" y="66.014576" style="fill-opacity: 0; stroke: #1976d2; stroke-linejoin: miter"/>
    </g>
   </g>
   <g id="line2d_18">
    <path d="M 28.952785 74.591103 
" clip-path="url(#p5dc4d4891c)" style="fill: none"/>
    <g clip-path="url(#p5dc4d4891c)">
     <use xlink:href="#mf3e91bac54" x="28.952785" y="74.591103" style="fill: #d32f2f"/>
    </g>
    <g clip-path="url(#p5dc4d4891c)">
     <use xlink:href="#m6d0a480a08" x="28.952785" y="74.591103" style="fill: #ffffff"/>
    </g>
   </g>
   <g id="line2d_19">
    <path d="M 28.952785 74.591103 
" clip-path="url(#p5dc4d4891c)" style="fill: none"/>
    <g clip-path="url(#p5dc4d4891c)">
     <use xlink:href="#mc41f022e07" x="28.952785" y="74.591103" style="fill-opacity: 0; stroke: #d32f2f; stroke-linejoin: miter"/>
    </g>
   </g>
   <g id="line2d_20">
    <path d="M 52.634483 77.414606 
" clip-path="url(#p5dc4d4891c)" style="fill: none"/>
    <g clip-path="url(#p5dc4d4891c)">
     <use xlink:href="#mf3e91bac54" x="52.634483" y="77.414606" style="fill: #d32f2f"/>
    </g>
    <g clip-path="url(#p5dc4d4891c)">
     <use xlink:href="#m6d0a480a08" x="52.634483" y="77.414606" style="fill: #ffffff"/>
    </g>
   </g>
   <g id="line2d_21">
    <path d="M 52.634483 77.414606 
" clip-path="url(#p5dc4d4891c)" style="fill: none"/>
    <g clip-path="url(#p5dc4d4891c)">
     <use xlink:href="#mc41f022e07" x="52.634483" y="77.414606" style="fill-opacity: 0; stroke: #d32f2f; stroke-linejoin: miter"/>
    </g>
   </g>
   <g id="line2d_22">
    <path d="M 82.236605 56.769863 
" clip-path="url(#p5dc4d4891c)" style="fill: none"/>
    <g clip-path="url(#p5dc4d4891c)">
     <use xlink:href="#mf3e91bac54" x="82.236605" y="56.769863" style="fill: #d32f2f"/>
    </g>
    <g clip-path="url(#p5dc4d4891c)">
     <use xlink:href="#m6d0a480a08" x="82.236605" y="56.769863" style="fill: #ffffff"/>
    </g>
   </g>
   <g id="line2d_23">
    <path d="M 82.236605 56.769863 
" clip-path="url(#p5dc4d4891c)" style="fill: none"/>
    <g clip-path="url(#p5dc4d4891c)">
     <use xlink:href="#mc41f022e07" x="82.236605" y="56.769863" style="fill-opacity: 0; stroke: #d32f2f; stroke-linejoin: miter"/>
    </g>
   </g>
   <g id="line2d_24">
    <path d="M 23.032361 83.694434 
" clip-path="url(#p5dc4d4891c)" style="fill: none"/>
    <g clip-path="url(#p5dc4d4891c)">
     <use xlink:href="#m94a54326ed" x="23.032361" y="83.694434" style="fill: #1976d2"/>
    </g>
    <g clip-path="url(#p5dc4d4891c)">
     <use xlink:href="#md78f8fbd3a" x="23.032361" y="83.694434" style="fill: #ffffff"/>
    </g>
   </g>
   <g id="line2d_25">
    <path d="M 23.032361 83.694434 
" clip-path="url(#p5dc4d4891c)" style="fill: none"/>
    <g clip-path="url(#p5dc4d4891c)">
     <use xlink:href="#mb8d9b8a9cb" x="23.032361" y="83.694434" style="fill-opacity: 0; stroke: #1976d2; stroke-linejoin: miter"/>
    </g>
   </g>
   <g id="line2d_26">
    <path d="M 28.952785 57.764424 
" clip-path="url(#p5dc4d4891c)" style="fill: none"/>
    <g clip-path="url(#p5dc4d4891c)">
     <use xlink:href="#m94a54326ed" x="28.952785" y="57.764424" style="fill: #1976d2"/>
    </g>
    <g clip-path="url(#p5dc4d4891c)">
     <use xlink:href="#md78f8fbd3a" x="28.952785" y="57.764424" style="fill: #ffffff"/>
    </g>
   </g>
   <g id="line2d_27">
    <path d="M 28.952785 57.764424 
" clip-path="url(#p5dc4d4891c)" style="fill: none"/>
    <g clip-path="url(#p5dc4d4891c)">
     <use xlink:href="#mb8d9b8a9cb" x="28.952785" y="57.764424" style="fill-opacity: 0; stroke: #1976d2; stroke-linejoin: miter"/>
    </g>
   </g>
   <g id="line2d_28">
    <path d="M 23.032361 66.6433 
" clip-path="url(#p5dc4d4891c)" style="fill: none"/>
    <g clip-path="url(#p5dc4d4891c)">
     <use xlink:href="#mf3e91bac54" x="23.032361" y="66.6433" style="fill: #d32f2f"/>
    </g>
    <g clip-path="url(#p5dc4d4891c)">
     <use xlink:href="#m6d0a480a08" x="23.032361" y="66.6433" style="fill: #ffffff"/>
    </g>
   </g>
   <g id="line2d_29">
    <path d="M 23.032361 66.6433 
" clip-path="url(#p5dc4d4891c)" style="fill: none"/>
    <g clip-path="url(#p5dc4d4891c)">
     <use xlink:href="#mc41f022e07" x="23.032361" y="66.6433" style="fill-opacity: 0; stroke: #d32f2f; stroke-linejoin: miter"/>
    </g>
   </g>
   <g id="line2d_30">
    <path d="M 64.475332 90.660779 
" clip-path="url(#p5dc4d4891c)" style="fill: none"/>
    <g clip-path="url(#p5dc4d4891c)">
     <use xlink:href="#mf3e91bac54" x="64.475332" y="90.660779" style="fill: #d32f2f"/>
    </g>
    <g clip-path="url(#p5dc4d4891c)">
     <use xlink:href="#m6d0a480a08" x="64.475332" y="90.660779" style="fill: #ffffff"/>
    </g>
   </g>
   <g id="line2d_31">
    <path d="M 64.475332 90.660779 
" clip-path="url(#p5dc4d4891c)" style="fill: none"/>
    <g clip-path="url(#p5dc4d4891c)">
     <use xlink:href="#mc41f022e07" x="64.475332" y="90.660779" style="fill-opacity: 0; stroke: #d32f2f; stroke-linejoin: miter"/>
    </g>
   </g>
   <g id="line2d_32">
    <path d="M 70.395756 65.549217 
" clip-path="url(#p5dc4d4891c)" style="fill: none"/>
    <g clip-path="url(#p5dc4d4891c)">
     <use xlink:href="#mf3e91bac54" x="70.395756" y="65.549217" style="fill: #d32f2f"/>
    </g>
    <g clip-path="url(#p5dc4d4891c)">
     <use xlink:href="#m6d0a480a08" x="70.395756" y="65.549217" style="fill: #ffffff"/>
    </g>
   </g>
   <g id="line2d_33">
    <path d="M 70.395756 65.549217 
" clip-path="url(#p5dc4d4891c)" style="fill: none"/>
    <g clip-path="url(#p5dc4d4891c)">
     <use xlink:href="#mc41f022e07" x="70.395756" y="65.549217" style="fill-opacity: 0; stroke: #d32f2f; stroke-linejoin: miter"/>
    </g>
   </g>
   <g id="line2d_34">
    <path d="M 28.952785 87.170868 
" clip-path="url(#p5dc4d4891c)" style="fill: none"/>
    <g clip-path="url(#p5dc4d4891c)">
     <use xlink:href="#m94a54326ed" x="28.952785" y="87.170868" style="fill: #1976d2"/>
    </g>
    <g clip-path="url(#p5dc4d4891c)">
     <use xlink:href="#md78f8fbd3a" x="28.952785" y="87.170868" style="fill: #ffffff"/>
    </g>
   </g>
   <g id="line2d_35">
    <path d="M 28.952785 87.170868 
" clip-path="url(#p5dc4d4891c)" style="fill: none"/>
    <g clip-path="url(#p5dc4d4891c)">
     <use xlink:href="#mb8d9b8a9cb" x="28.952785" y="87.170868" style="fill-opacity: 0; stroke: #1976d2; stroke-linejoin: miter"/>
    </g>
   </g>
   <g id="line2d_36">
    <path d="M 34.87321 75.782162 
" clip-path="url(#p5dc4d4891c)" style="fill: none"/>
    <g clip-path="url(#p5dc4d4891c)">
     <use xlink:href="#m94a54326ed" x="34.87321" y="75.782162" style="fill: #1976d2"/>
    </g>
    <g clip-path="url(#p5dc4d4891c)">
     <use xlink:href="#md78f8fbd3a" x="34.87321" y="75.782162" style="fill: #ffffff"/>
    </g>
   </g>
   <g id="line2d_37">
    <path d="M 34.87321 75.782162 
" clip-path="url(#p5dc4d4891c)" style="fill: none"/>
    <g clip-path="url(#p5dc4d4891c)">
     <use xlink:href="#mb8d9b8a9cb" x="34.87321" y="75.782162" style="fill-opacity: 0; stroke: #1976d2; stroke-linejoin: miter"/>
    </g>
   </g>
   <g id="line2d_38">
    <path d="M 40.793634 51.504769 
" clip-path="url(#p5dc4d4891c)" style="fill: none"/>
    <g clip-path="url(#p5dc4d4891c)">
     <use xlink:href="#m94a54326ed" x="40.793634" y="51.504769" style="fill: #1976d2"/>
    </g>
    <g clip-path="url(#p5dc4d4891c)">
     <use xlink:href="#md78f8fbd3a" x="40.793634" y="51.504769" style="fill: #ffffff"/>
    </g>
   </g>
   <g id="line2d_39">
    <path d="M 40.793634 51.504769 
" clip-path="url(#p5dc4d4891c)" style="fill: none"/>
    <g clip-path="url(#p5dc4d4891c)">
     <use xlink:href="#mb8d9b8a9cb" x="40.793634" y="51.504769" style="fill-opacity: 0; stroke: #1976d2; stroke-linejoin: miter"/>
    </g>
   </g>
   <g id="line2d_40">
    <path d="M 23.032361 56.855783 
" clip-path="url(#p5dc4d4891c)" style="fill: none"/>
    <g clip-path="url(#p5dc4d4891c)">
     <use xlink:href="#mf3e91bac54" x="23.032361" y="56.855783" style="fill: #d32f2f"/>
    </g>
    <g clip-path="url(#p5dc4d4891c)">
     <use xlink:href="#m6d0a480a08" x="23.032361" y="56.855783" style="fill: #ffffff"/>
    </g>
   </g>
   <g id="line2d_41">
    <path d="M 23.032361 56.855783 
" clip-path="url(#p5dc4d4891c)" style="fill: none"/>
    <g clip-path="url(#p5dc4d4891c)">
     <use xlink:href="#mc41f022e07" x="23.032361" y="56.855783" style="fill-opacity: 0; stroke: #d32f2f; stroke-linejoin: miter"/>
    </g>
   </g>
   <g id="line2d_42">
    <path d="M 40.793634 58.496522 
" clip-path="url(#p5dc4d4891c)" style="fill: none"/>
    <g clip-path="url(#p5dc4d4891c)">
     <use xlink:href="#mf3e91bac54" x="40.793634" y="58.496522" style="fill: #d32f2f"/>
    </g>
    <g clip-path="url(#p5dc4d4891c)">
     <use xlink:href="#m6d0a480a08" x="40.793634" y="58.496522" style="fill: #ffffff"/>
    </g>
   </g>
   <g id="line2d_43">
    <path d="M 40.793634 58.496522 
" clip-path="url(#p5dc4d4891c)" style="fill: none"/>
    <g clip-path="url(#p5dc4d4891c)">
     <use xlink:href="#mc41f022e07" x="40.793634" y="58.496522" style="fill-opacity: 0; stroke: #d32f2f; stroke-linejoin: miter"/>
    </g>
   </g>
   <g id="line2d_44">
    <path d="M 82.236605 108.179815 
" clip-path="url(#p5dc4d4891c)" style="fill: none"/>
    <g clip-path="url(#p5dc4d4891c)">
     <use xlink:href="#mf3e91bac54" x="82.236605" y="108.179815" style="fill: #d32f2f"/>
    </g>
    <g clip-path="url(#p5dc4d4891c)">
     <use xlink:href="#m6d0a480a08" x="82.236605" y="108.179815" style="fill: #ffffff"/>
    </g>
   </g>
   <g id="line2d_45">
    <path d="M 82.236605 108.179815 
" clip-path="url(#p5dc4d4891c)" style="fill: none"/>
    <g clip-path="url(#p5dc4d4891c)">
     <use xlink:href="#mc41f022e07" x="82.236605" y="108.179815" style="fill-opacity: 0; stroke: #d32f2f; stroke-linejoin: miter"/>
    </g>
   </g>
   <g id="line2d_46">
    <path d="M 34.87321 68.634764 
" clip-path="url(#p5dc4d4891c)" style="fill: none"/>
    <g clip-path="url(#p5dc4d4891c)">
     <use xlink:href="#mf3e91bac54" x="34.87321" y="68.634764" style="fill: #d32f2f"/>
    </g>
    <g clip-path="url(#p5dc4d4891c)">
     <use xlink:href="#m6d0a480a08" x="34.87321" y="68.634764" style="fill: #ffffff"/>
    </g>
   </g>
   <g id="line2d_47">
    <path d="M 34.87321 68.634764 
" clip-path="url(#p5dc4d4891c)" style="fill: none"/>
    <g clip-path="url(#p5dc4d4891c)">
     <use xlink:href="#mc41f022e07" x="34.87321" y="68.634764" style="fill-opacity: 0; stroke: #d32f2f; stroke-linejoin: miter"/>
    </g>
   </g>
   <g id="line2d_48">
    <path d="M 82.236605 61.931319 
" clip-path="url(#p5dc4d4891c)" style="fill: none"/>
    <g clip-path="url(#p5dc4d4891c)">
     <use xlink:href="#mf3e91bac54" x="82.236605" y="61.931319" style="fill: #d32f2f"/>
    </g>
    <g clip-path="url(#p5dc4d4891c)">
     <use xlink:href="#m6d0a480a08" x="82.236605" y="61.931319" style="fill: #ffffff"/>
    </g>
   </g>
   <g id="line2d_49">
    <path d="M 82.236605 61.931319 
" clip-path="url(#p5dc4d4891c)" style="fill: none"/>
    <g clip-path="url(#p5dc4d4891c)">
     <use xlink:href="#mc41f022e07" x="82.236605" y="61.931319" style="fill-opacity: 0; stroke: #d32f2f; stroke-linejoin: miter"/>
    </g>
   </g>
   <g id="line2d_50">
    <path d="M 88.157029 53.262994 
" clip-path="url(#p5dc4d4891c)" style="fill: none"/>
    <g clip-path="url(#p5dc4d4891c)">
     <use xlink:href="#mf3e91bac54" x="88.157029" y="53.262994" style="fill: #d32f2f"/>
    </g>
    <g clip-path="url(#p5dc4d4891c)">
     <use xlink:href="#m6d0a480a08" x="88.157029" y="53.262994" style="fill: #ffffff"/>
    </g>
   </g>
   <g id="line2d_51">
    <path d="M 88.157029 53.262994 
" clip-path="url(#p5dc4d4891c)" style="fill: none"/>
    <g clip-path="url(#p5dc4d4891c)">
     <use xlink:href="#mc41f022e07" x="88.157029" y="53.262994" style="fill-opacity: 0; stroke: #d32f2f; stroke-linejoin: miter"/>
    </g>
   </g>
   <g id="line2d_52">
    <path d="M 52.634483 59.772999 
" clip-path="url(#p5dc4d4891c)" style="fill: none"/>
    <g clip-path="url(#p5dc4d4891c)">
     <use xlink:href="#mf3e91bac54" x="52.634483" y="59.772999" style="fill: #d32f2f"/>
    </g>
    <g clip-path="url(#p5dc4d4891c)">
     <use xlink:href="#m6d0a480a08" x="52.634483" y="59.772999" style="fill: #ffffff"/>
    </g>
   </g>
   <g id="line2d_53">
    <path d="M 52.634483 59.772999 
" clip-path="url(#p5dc4d4891c)" style="fill: none"/>
    <g clip-path="url(#p5dc4d4891c)">
     <use xlink:href="#mc41f022e07" x="52.634483" y="59.772999" style="fill-opacity: 0; stroke: #d32f2f; stroke-linejoin: miter"/>
    </g>
   </g>
   <g id="line2d_54">
    <path d="M 99.997878 68.293332 
" clip-path="url(#p5dc4d4891c)" style="fill: none"/>
    <g clip-path="url(#p5dc4d4891c)">
     <use xlink:href="#mf3e91bac54" x="99.997878" y="68.293332" style="fill: #d32f2f"/>
    </g>
    <g clip-path="url(#p5dc4d4891c)">
     <use xlink:href="#m6d0a480a08" x="99.997878" y="68.293332" style="fill: #ffffff"/>
    </g>
   </g>
   <g id="line2d_55">
    <path d="M 99.997878 68.293332 
" clip-path="url(#p5dc4d4891c)" style="fill: none"/>
    <g clip-path="url(#p5dc4d4891c)">
     <use xlink:href="#mc41f022e07" x="99.997878" y="68.293332" style="fill-opacity: 0; stroke: #d32f2f; stroke-linejoin: miter"/>
    </g>
   </g>
   <g id="line2d_56">
    <path d="M 111.838727 86.57395 
" clip-path="url(#p5dc4d4891c)" style="fill: none"/>
    <g clip-path="url(#p5dc4d4891c)">
     <use xlink:href="#mf3e91bac54" x="111.838727" y="86.57395" style="fill: #d32f2f"/>
    </g>
    <g clip-path="url(#p5dc4d4891c)">
     <use xlink:href="#m6d0a480a08" x="111.838727" y="86.57395" style="fill: #ffffff"/>
    </g>
   </g>
   <g id="line2d_57">
    <path d="M 111.838727 86.57395 
" clip-path="url(#p5dc4d4891c)" style="fill: none"/>
    <g clip-path="url(#p5dc4d4891c)">
     <use xlink:href="#mc41f022e07" x="111.838727" y="86.57395" style="fill-opacity: 0; stroke: #d32f2f; stroke-linejoin: miter"/>
    </g>
   </g>
   <g id="line2d_58">
    <path d="M 46.714058 54.804555 
" clip-path="url(#p5dc4d4891c)" style="fill: none"/>
    <g clip-path="url(#p5dc4d4891c)">
     <use xlink:href="#mf3e91bac54" x="46.714058" y="54.804555" style="fill: #d32f2f"/>
    </g>
    <g clip-path="url(#p5dc4d4891c)">
     <use xlink:href="#m6d0a480a08" x="46.714058" y="54.804555" style="fill: #ffffff"/>
    </g>
   </g>
   <g id="line2d_59">
    <path d="M 46.714058 54.804555 
" clip-path="url(#p5dc4d4891c)" style="fill: none"/>
    <g clip-path="url(#p5dc4d4891c)">
     <use xlink:href="#mc41f022e07" x="46.714058" y="54.804555" style="fill-opacity: 0; stroke: #d32f2f; stroke-linejoin: miter"/>
    </g>
   </g>
   <g id="line2d_60">
    <path d="M 99.997878 63.001058 
" clip-path="url(#p5dc4d4891c)" style="fill: none"/>
    <g clip-path="url(#p5dc4d4891c)">
     <use xlink:href="#mf3e91bac54" x="99.997878" y="63.001058" style="fill: #d32f2f"/>
    </g>
    <g clip-path="url(#p5dc4d4891c)">
     <use xlink:href="#m6d0a480a08" x="99.997878" y="63.001058" style="fill: #ffffff"/>
    </g>
   </g>
   <g id="line2d_61">
    <path d="M 99.997878 63.001058 
" clip-path="url(#p5dc4d4891c)" style="fill: none"/>
    <g clip-path="url(#p5dc4d4891c)">
     <use xlink:href="#mc41f022e07" x="99.997878" y="63.001058" style="fill-opacity: 0; stroke: #d32f2f; stroke-linejoin: miter"/>
    </g>
   </g>
   <g id="line2d_62">
    <path d="M 123.679576 41.344173 
" clip-path="url(#p5dc4d4891c)" style="fill: none"/>
    <g clip-path="url(#p5dc4d4891c)">
     <use xlink:href="#mf3e91bac54" x="123.679576" y="41.344173" style="fill: #d32f2f"/>
    </g>
    <g clip-path="url(#p5dc4d4891c)">
     <use xlink:href="#m6d0a480a08" x="123.679576" y="41.344173" style="fill: #ffffff"/>
    </g>
   </g>
   <g id="line2d_63">
    <path d="M 123.679576 41.344173 
" clip-path="url(#p5dc4d4891c)" style="fill: none"/>
    <g clip-path="url(#p5dc4d4891c)">
     <use xlink:href="#mc41f022e07" x="123.679576" y="41.344173" style="fill-opacity: 0; stroke: #d32f2f; stroke-linejoin: miter"/>
    </g>
   </g>
   <g id="line2d_64">
    <path d="M 23.032361 64.213456 
" clip-path="url(#p5dc4d4891c)" style="fill: none"/>
    <g clip-path="url(#p5dc4d4891c)">
     <use xlink:href="#m94a54326ed" x="23.032361" y="64.213456" style="fill: #1976d2"/>
    </g>
    <g clip-path="url(#p5dc4d4891c)">
     <use xlink:href="#md78f8fbd3a" x="23.032361" y="64.213456" style="fill: #ffffff"/>
    </g>
   </g>
   <g id="line2d_65">
    <path d="M 23.032361 64.213456 
" clip-path="url(#p5dc4d4891c)" style="fill: none"/>
    <g clip-path="url(#p5dc4d4891c)">
     <use xlink:href="#mb8d9b8a9cb" x="23.032361" y="64.213456" style="fill-opacity: 0; stroke: #1976d2; stroke-linejoin: miter"/>
    </g>
   </g>
   <g id="line2d_66">
    <path d="M 28.952785 81.48389 
" clip-path="url(#p5dc4d4891c)" style="fill: none"/>
    <g clip-path="url(#p5dc4d4891c)">
     <use xlink:href="#m94a54326ed" x="28.952785" y="81.48389" style="fill: #1976d2"/>
    </g>
    <g clip-path="url(#p5dc4d4891c)">
     <use xlink:href="#md78f8fbd3a" x="28.952785" y="81.48389" style="fill: #ffffff"/>
    </g>
   </g>
   <g id="line2d_67">
    <path d="M 28.952785 81.48389 
" clip-path="url(#p5dc4d4891c)" style="fill: none"/>
    <g clip-path="url(#p5dc4d4891c)">
     <use xlink:href="#mb8d9b8a9cb" x="28.952785" y="81.48389" style="fill-opacity: 0; stroke: #1976d2; stroke-linejoin: miter"/>
    </g>
   </g>
   <g id="line2d_68">
    <path d="M 34.87321 66.566251 
" clip-path="url(#p5dc4d4891c)" style="fill: none"/>
    <g clip-path="url(#p5dc4d4891c)">
     <use xlink:href="#m94a54326ed" x="34.87321" y="66.566251" style="fill: #1976d2"/>
    </g>
    <g clip-path="url(#p5dc4d4891c)">
     <use xlink:href="#md78f8fbd3a" x="34.87321" y="66.566251" style="fill: #ffffff"/>
    </g>
   </g>
   <g id="line2d_69">
    <path d="M 34.87321 66.566251 
" clip-path="url(#p5dc4d4891c)" style="fill: none"/>
    <g clip-path="url(#p5dc4d4891c)">
     <use xlink:href="#mb8d9b8a9cb" x="34.87321" y="66.566251" style="fill-opacity: 0; stroke: #1976d2; stroke-linejoin: miter"/>
    </g>
   </g>
   <g id="line2d_70">
    <path d="M 23.032361 73.089875 
" clip-path="url(#p5dc4d4891c)" style="fill: none"/>
    <g clip-path="url(#p5dc4d4891c)">
     <use xlink:href="#m94a54326ed" x="23.032361" y="73.089875" style="fill: #1976d2"/>
    </g>
    <g clip-path="url(#p5dc4d4891c)">
     <use xlink:href="#md78f8fbd3a" x="23.032361" y="73.089875" style="fill: #ffffff"/>
    </g>
   </g>
   <g id="line2d_71">
    <path d="M 23.032361 73.089875 
" clip-path="url(#p5dc4d4891c)" style="fill: none"/>
    <g clip-path="url(#p5dc4d4891c)">
     <use xlink:href="#mb8d9b8a9cb" x="23.032361" y="73.089875" style="fill-opacity: 0; stroke: #1976d2; stroke-linejoin: miter"/>
    </g>
   </g>
   <g id="line2d_72">
    <path d="M 34.87321 63.866125 
" clip-path="url(#p5dc4d4891c)" style="fill: none"/>
    <g clip-path="url(#p5dc4d4891c)">
     <use xlink:href="#m94a54326ed" x="34.87321" y="63.866125" style="fill: #1976d2"/>
    </g>
    <g clip-path="url(#p5dc4d4891c)">
     <use xlink:href="#md78f8fbd3a" x="34.87321" y="63.866125" style="fill: #ffffff"/>
    </g>
   </g>
   <g id="line2d_73">
    <path d="M 34.87321 63.866125 
" clip-path="url(#p5dc4d4891c)" style="fill: none"/>
    <g clip-path="url(#p5dc4d4891c)">
     <use xlink:href="#mb8d9b8a9cb" x="34.87321" y="63.866125" style="fill-opacity: 0; stroke: #1976d2; stroke-linejoin: miter"/>
    </g>
   </g>
   <g id="line2d_74">
    <path d="M 64.475332 71.160838 
" clip-path="url(#p5dc4d4891c)" style="fill: none"/>
    <g clip-path="url(#p5dc4d4891c)">
     <use xlink:href="#m94a54326ed" x="64.475332" y="71.160838" style="fill: #1976d2"/>
    </g>
    <g clip-path="url(#p5dc4d4891c)">
     <use xlink:href="#md78f8fbd3a" x="64.475332" y="71.160838" style="fill: #ffffff"/>
    </g>
   </g>
   <g id="line2d_75">
    <path d="M 64.475332 71.160838 
" clip-path="url(#p5dc4d4891c)" style="fill: none"/>
    <g clip-path="url(#p5dc4d4891c)">
     <use xlink:href="#mb8d9b8a9cb" x="64.475332" y="71.160838" style="fill-opacity: 0; stroke: #1976d2; stroke-linejoin: miter"/>
    </g>
   </g>
   <g id="line2d_76">
    <path clip-path="url(#p5dc4d4891c)" style="fill: none"/>
    <g clip-path="url(#p5dc4d4891c)"/>
    <g clip-path="url(#p5dc4d4891c)"/>
   </g>
   <g id="line2d_77">
    <path clip-path="url(#p5dc4d4891c)" style="fill: none"/>
    <g clip-path="url(#p5dc4d4891c)"/>
   </g>
   <g id="line2d_78">
    <path d="M 40.793634 96.731438 
" clip-path="url(#p5dc4d4891c)" style="fill: none"/>
    <g clip-path="url(#p5dc4d4891c)">
     <use xlink:href="#m94a54326ed" x="40.793634" y="96.731438" style="fill: #1976d2"/>
    </g>
    <g clip-path="url(#p5dc4d4891c)">
     <use xlink:href="#md78f8fbd3a" x="40.793634" y="96.731438" style="fill: #ffffff"/>
    </g>
   </g>
   <g id="line2d_79">
    <path d="M 40.793634 96.731438 
" clip-path="url(#p5dc4d4891c)" style="fill: none"/>
    <g clip-path="url(#p5dc4d4891c)">
     <use xlink:href="#mb8d9b8a9cb" x="40.793634" y="96.731438" style="fill-opacity: 0; stroke: #1976d2; stroke-linejoin: miter"/>
    </g>
   </g>
   <g id="line2d_80">
    <path d="M 58.554907 71.182514 
" clip-path="url(#p5dc4d4891c)" style="fill: none"/>
    <g clip-path="url(#p5dc4d4891c)">
     <use xlink:href="#m94a54326ed" x="58.554907" y="71.182514" style="fill: #1976d2"/>
    </g>
    <g clip-path="url(#p5dc4d4891c)">
     <use xlink:href="#md78f8fbd3a" x="58.554907" y="71.182514" style="fill: #ffffff"/>
    </g>
   </g>
   <g id="line2d_81">
    <path d="M 58.554907 71.182514 
" clip-path="url(#p5dc4d4891c)" style="fill: none"/>
    <g clip-path="url(#p5dc4d4891c)">
     <use xlink:href="#mb8d9b8a9cb" x="58.554907" y="71.182514" style="fill-opacity: 0; stroke: #1976d2; stroke-linejoin: miter"/>
    </g>
   </g>
   <g id="line2d_82">
    <path clip-path="url(#p5dc4d4891c)" style="fill: none"/>
    <g clip-path="url(#p5dc4d4891c)"/>
    <g clip-path="url(#p5dc4d4891c)"/>
   </g>
   <g id="line2d_83">
    <path clip-path="url(#p5dc4d4891c)" style="fill: none"/>
    <g clip-path="url(#p5dc4d4891c)"/>
   </g>
   <g id="line2d_84">
    <path d="M 28.952785 72.871523 
" clip-path="url(#p5dc4d4891c)" style="fill: none"/>
    <g clip-path="url(#p5dc4d4891c)">
     <use xlink:href="#m94a54326ed" x="28.952785" y="72.871523" style="fill: #1976d2"/>
    </g>
    <g clip-path="url(#p5dc4d4891c)">
     <use xlink:href="#md78f8fbd3a" x="28.952785" y="72.871523" style="fill: #ffffff"/>
    </g>
   </g>
   <g id="line2d_85">
    <path d="M 28.952785 72.871523 
" clip-path="url(#p5dc4d4891c)" style="fill: none"/>
    <g clip-path="url(#p5dc4d4891c)">
     <use xlink:href="#mb8d9b8a9cb" x="28.952785" y="72.871523" style="fill-opacity: 0; stroke: #1976d2; stroke-linejoin: miter"/>
    </g>
   </g>
   <g id="line2d_86">
    <path d="M 40.793634 65.817255 
" clip-path="url(#p5dc4d4891c)" style="fill: none"/>
    <g clip-path="url(#p5dc4d4891c)">
     <use xlink:href="#m94a54326ed" x="40.793634" y="65.817255" style="fill: #1976d2"/>
    </g>
    <g clip-path="url(#p5dc4d4891c)">
     <use xlink:href="#md78f8fbd3a" x="40.793634" y="65.817255" style="fill: #ffffff"/>
    </g>
   </g>
   <g id="line2d_87">
    <path d="M 40.793634 65.817255 
" clip-path="url(#p5dc4d4891c)" style="fill: none"/>
    <g clip-path="url(#p5dc4d4891c)">
     <use xlink:href="#mb8d9b8a9cb" x="40.793634" y="65.817255" style="fill-opacity: 0; stroke: #1976d2; stroke-linejoin: miter"/>
    </g>
   </g>
   <g id="patch_3">
    <path d="M 18 128.16 
L 18 17.28 
" style="fill: none; stroke: #000000; stroke-width: 0.8; stroke-linejoin: miter; stroke-linecap: square"/>
   </g>
   <g id="patch_4">
    <path d="M 18 72.72 
L 129.6 72.72 
" style="fill: none; stroke: #000000; stroke-width: 0.8; stroke-linejoin: miter; stroke-linecap: square"/>
   </g>
   <g id="text_4">
    <!-- SEC24D 0.08 -->
    <g transform="translate(34.48875 11.28) scale(0.12 -0.12)">
     <defs>
      <path id="DejaVuSans-53" d="M 3425 4513 
L 3425 3897 
Q 3066 4069 2747 4153 
Q 2428 4238 2131 4238 
Q 1616 4238 1336 4038 
Q 1056 3838 1056 3469 
Q 1056 3159 1242 3001 
Q 1428 2844 1947 2747 
L 2328 2669 
Q 3034 2534 3370 2195 
Q 3706 1856 3706 1288 
Q 3706 609 3251 259 
Q 2797 -91 1919 -91 
Q 1588 -91 1214 -16 
Q 841 59 441 206 
L 441 856 
Q 825 641 1194 531 
Q 1563 422 1919 422 
Q 2459 422 2753 634 
Q 3047 847 3047 1241 
Q 3047 1584 2836 1778 
Q 2625 1972 2144 2069 
L 1759 2144 
Q 1053 2284 737 2584 
Q 422 2884 422 3419 
Q 422 4038 858 4394 
Q 1294 4750 2059 4750 
Q 2388 4750 2728 4690 
Q 3069 4631 3425 4513 
z
" transform="scale(0.015625)"/>
      <path id="DejaVuSans-45" d="M 628 4666 
L 3578 4666 
L 3578 4134 
L 1259 4134 
L 1259 2753 
L 3481 2753 
L 3481 2222 
L 1259 2222 
L 1259 531 
L 3634 531 
L 3634 0 
L 628 0 
L 628 4666 
z
" transform="scale(0.015625)"/>
      <path id="DejaVuSans-43" d="M 4122 4306 
L 4122 3641 
Q 3803 3938 3442 4084 
Q 3081 4231 2675 4231 
Q 1875 4231 1450 3742 
Q 1025 3253 1025 2328 
Q 1025 1406 1450 917 
Q 1875 428 2675 428 
Q 3081 428 3442 575 
Q 3803 722 4122 1019 
L 4122 359 
Q 3791 134 3420 21 
Q 3050 -91 2638 -91 
Q 1578 -91 968 557 
Q 359 1206 359 2328 
Q 359 3453 968 4101 
Q 1578 4750 2638 4750 
Q 3056 4750 3426 4639 
Q 3797 4528 4122 4306 
z
" transform="scale(0.015625)"/>
      <path id="DejaVuSans-34" d="M 2419 4116 
L 825 1625 
L 2419 1625 
L 2419 4116 
z
M 2253 4666 
L 3047 4666 
L 3047 1625 
L 3713 1625 
L 3713 1100 
L 3047 1100 
L 3047 0 
L 2419 0 
L 2419 1100 
L 313 1100 
L 313 1709 
L 2253 4666 
z
" transform="scale(0.015625)"/>
      <path id="DejaVuSans-44" d="M 1259 4147 
L 1259 519 
L 2022 519 
Q 2988 519 3436 956 
Q 3884 1394 3884 2338 
Q 3884 3275 3436 3711 
Q 2988 4147 2022 4147 
L 1259 4147 
z
M 628 4666 
L 1925 4666 
Q 3281 4666 3915 4102 
Q 4550 3538 4550 2338 
Q 4550 1131 3912 565 
Q 3275 0 1925 0 
L 628 0 
L 628 4666 
z
" transform="scale(0.015625)"/>
      <path id="DejaVuSans-20" transform="scale(0.015625)"/>
      <path id="DejaVuSans-2e" d="M 684 794 
L 1344 794 
L 1344 0 
L 684 0 
L 684 794 
z
" transform="scale(0.015625)"/>
      <path id="DejaVuSans-38" d="M 2034 2216 
Q 1584 2216 1326 1975 
Q 1069 1734 1069 1313 
Q 1069 891 1326 650 
Q 1584 409 2034 409 
Q 2484 409 2743 651 
Q 3003 894 3003 1313 
Q 3003 1734 2745 1975 
Q 2488 2216 2034 2216 
z
M 1403 2484 
Q 997 2584 770 2862 
Q 544 3141 544 3541 
Q 544 4100 942 4425 
Q 1341 4750 2034 4750 
Q 2731 4750 3128 4425 
Q 3525 4100 3525 3541 
Q 3525 3141 3298 2862 
Q 3072 2584 2669 2484 
Q 3125 2378 3379 2068 
Q 3634 1759 3634 1313 
Q 3634 634 3220 271 
Q 2806 -91 2034 -91 
Q 1263 -91 848 271 
Q 434 634 434 1313 
Q 434 1759 690 2068 
Q 947 2378 1403 2484 
z
M 1172 3481 
Q 1172 3119 1398 2916 
Q 1625 2713 2034 2713 
Q 2441 2713 2670 2916 
Q 2900 3119 2900 3481 
Q 2900 3844 2670 4047 
Q 2441 4250 2034 4250 
Q 1625 4250 1398 4047 
Q 1172 3844 1172 3481 
z
" transform="scale(0.015625)"/>
     </defs>
     <use xlink:href="#DejaVuSans-53"/>
     <use xlink:href="#DejaVuSans-45" transform="translate(63.476562 0)"/>
     <use xlink:href="#DejaVuSans-43" transform="translate(126.660156 0)"/>
     <use xlink:href="#DejaVuSans-32" transform="translate(196.484375 0)"/>
     <use xlink:href="#DejaVuSans-34" transform="translate(260.107422 0)"/>
     <use xlink:href="#DejaVuSans-44" transform="translate(323.730469 0)"/>
     <use xlink:href="#DejaVuSans-20" transform="translate(400.732422 0)"/>
     <use xlink:href="#DejaVuSans-30" transform="translate(432.519531 0)"/>
     <use xlink:href="#DejaVuSans-2e" transform="translate(496.142578 0)"/>
     <use xlink:href="#DejaVuSans-30" transform="translate(527.929688 0)"/>
     <use xlink:href="#DejaVuSans-38" transform="translate(591.552734 0)"/>
    </g>
   </g>
  </g>
 </g>
 <defs>
  <clipPath id="p5dc4d4891c">
   <rect x="18" y="17.28" width="111.6" height="110.88"/>
  </clipPath>
 </defs>
</svg>
