<?xml version="1.0" encoding="utf-8" standalone="no"?>
<!DOCTYPE svg PUBLIC "-//W3C//DTD SVG 1.1//EN"
  "http://www.w3.org/Graphics/SVG/1.1/DTD/svg11.dtd">
<svg xmlns:xlink="http://www.w3.org/1999/xlink" width="144pt" height="144pt" viewBox="0 0 144 144" xmlns="http://www.w3.org/2000/svg" version="1.1">
 <metadata>
  <rdf:RDF xmlns:dc="http://purl.org/dc/elements/1.1/" xmlns:cc="http://creativecommons.org/ns#" xmlns:rdf="http://www.w3.org/1999/02/22-rdf-syntax-ns#">
   <cc:Work>
    <dc:type rdf:resource="http://purl.org/dc/dcmitype/StillImage"/>
    <dc:date>2026-02-17T13:08:28.781489</dc:date>
    <dc:format>image/svg+xml</dc:format>
    <dc:creator>
     <cc:Agent>
      <dc:title>Matplotlib v3.10.6, https://matplotlib.org/</dc:title>
     </cc:Agent>
    </dc:creator>
   </cc:Work>
  </rdf:RDF>
 </metadata>
 <defs>
  <style type="text/css">*{stroke-linejoin: round; stroke-linecap: butt}</style>
 </defs>
 <g id="figure_1">
  <g id="patch_1">
   <path d="M 0 144 
L 144 144 
L 144 0 
L 0 0 
z
" style="fill: #ffffff"/>
  </g>
  <g id="axes_1">
   <g id="patch_2">
    <path d="M 18 128.16 
L 129.6 128.16 
L 129.6 17.28 
L 18 17.28 
z
" style="fill: #ffffff"/>
   </g>
   <g id="matplotlib.axis_1">
    <g id="xtick_1">
     <g id="line2d_1">
      <defs>
       <path id="m93ec58e2fd" d="M 0 0 
L 0 3.5 
" style="stroke: #000000; stroke-width: 0.8"/>
      </defs>
      <g>
       <use xlink:href="#m93ec58e2fd" x="76.31618" y="72.72" style="stroke: #000000; stroke-width: 0.8"/>
      </g>
     </g>
    </g>
    <g id="xtick_2">
     <g id="line2d_2">
      <g>
       <use xlink:href="#m93ec58e2fd" x="129.6" y="72.72" style="stroke: #000000; stroke-width: 0.8"/>
      </g>
     </g>
    </g>
   </g>
   <g id="matplotlib.axis_2">
    <g id="ytick_1">
     <g id="line2d_3">
      <defs>
       <path id="m233fa5c395" d="M 0 0 
L -3.5 0 
" style="stroke: #000000; stroke-width: 0.8"/>
      </defs>
      <g>
       <use xlink:href="#m233fa5c395" x="18" y="104.4" style="stroke: #000000; stroke-width: 0.8"/>
      </g>
     </g>
     <g id="text_1">
      <!-- −2 -->
      <g transform="translate(-3.742188 108.199219) scale(0.1 -0.1)">
       <defs>
        <path id="DejaVuSans-2212" d="M 678 2272 
L 4684 2272 
L 4684 1741 
L 678 1741 
L 678 2272 
z
" transform="scale(0.015625)"/>
        <path id="DejaVuSans-32" d="M 1228 531 
L 3431 531 
L 3431 0 
L 469 0 
L 469 531 
Q 828 903 1448 1529 
Q 2069 2156 2228 2338 
Q 2531 2678 2651 2914 
Q 2772 3150 2772 3378 
Q 2772 3750 2511 3984 
Q 2250 4219 1831 4219 
Q 1534 4219 1204 4116 
Q 875 4013 500 3803 
L 500 4441 
Q 881 4594 1212 4672 
Q 1544 4750 1819 4750 
Q 2544 4750 2975 4387 
Q 3406 4025 3406 3419 
Q 3406 3131 3298 2873 
Q 3191 2616 2906 2266 
Q 2828 2175 2409 1742 
Q 1991 1309 1228 531 
z
" transform="scale(0.015625)"/>
       </defs>
       <use xlink:href="#DejaVuSans-2212"/>
       <use xlink:href="#DejaVuSans-32" transform="translate(83.789062 0)"/>
      </g>
     </g>
    </g>
    <g id="ytick_2">
     <g id="line2d_4">
      <g>
       <use xlink:href="#m233fa5c395" x="18" y="72.72" style="stroke: #000000; stroke-width: 0.8"/>
      </g>
     </g>
     <g id="text_2">
      <!-- 0 -->
      <g transform="translate(4.6375 76.519219) scale(0.1 -0.1)">
       <defs>
        <path id="DejaVuSans-30" d="M 2034 4250 
Q 1547 4250 1301 3770 
Q 1056 3291 1056 2328 
Q 1056 1369 1301 889 
Q 1547 409 2034 409 
Q 2525 409 2770 889 
Q 3016 1369 3016 2328 
Q 3016 3291 2770 3770 
Q 2525 4250 2034 4250 
z
M 2034 4750 
Q 2819 4750 3233 4129 
Q 3647 3509 3647 2328 
Q 3647 1150 3233 529 
Q 2819 -91 2034 -91 
Q 1250 -91 836 529 
Q 422 1150 422 2328 
Q 422 3509 836 4129 
Q 1250 4750 2034 4750 
z
" transform="scale(0.015625)"/>
       </defs>
       <use xlink:href="#DejaVuSans-30"/>
      </g>
     </g>
    </g>
    <g id="ytick_3">
     <g id="line2d_5">
      <g>
       <use xlink:href="#m233fa5c395" x="18" y="41.04" style="stroke: #000000; stroke-width: 0.8"/>
      </g>
     </g>
     <g id="text_3">
      <!-- 2 -->
      <g transform="translate(4.6375 44.839219) scale(0.1 -0.1)">
       <use xlink:href="#DejaVuSans-32"/>
      </g>
     </g>
    </g>
   </g>
   <g id="line2d_6">
    <path d="M 40.793634 70.572885 
" clip-path="url(#pa6f3b7b3b5)" style="fill: none"/>
    <defs>
     <path id="mdf52550eff" d="M 0 -4.242641 
L -4.242641 -0 
L -0 4.242641 
L 0 -4.242641 
"/>
    </defs>
    <g clip-path="url(#pa6f3b7b3b5)">
     <use xlink:href="#mdf52550eff" x="40.793634" y="70.572885" style="fill: #d32f2f"/>
    </g>
    <defs>
     <path id="mdfb4d389f3" d="M 0 -4.242641 
L 4.242641 0 
L -0 4.242641 
L 0 -4.242641 
"/>
    </defs>
    <g clip-path="url(#pa6f3b7b3b5)">
     <use xlink:href="#mdfb4d389f3" x="40.793634" y="70.572885" style="fill: #ffffff"/>
    </g>
   </g>
   <g id="line2d_7">
    <path d="M 40.793634 70.572885 
" clip-path="url(#pa6f3b7b3b5)" style="fill: none"/>
    <defs>
     <path id="m9f5aaf51f8" d="M -0 4.242641 
L 4.242641 0 
L 0 -4.242641 
L -4.242641 -0 
z
" style="stroke: #d32f2f; stroke-linejoin: miter"/>
    </defs>
    <g clip-path="url(#pa6f3b7b3b5)">
     <use xlink:href="#m9f5aaf51f8" x="40.793634" y="70.572885" style="fill-opacity: 0; stroke: #d32f2f; stroke-linejoin: miter"/>
    </g>
   </g>
   <g id="line2d_8">
    <path d="M 58.554907 71.929827 
" clip-path="url(#pa6f3b7b3b5)" style="fill: none"/>
    <g clip-path="url(#pa6f3b7b3b5)">
     <use xlink:href="#mdf52550eff" x="58.554907" y="71.929827" style="fill: #d32f2f"/>
    </g>
    <g clip-path="url(#pa6f3b7b3b5)">
     <use xlink:href="#mdfb4d389f3" x="58.554907" y="71.929827" style="fill: #ffffff"/>
    </g>
   </g>
   <g id="line2d_9">
    <path d="M 58.554907 71.929827 
" clip-path="url(#pa6f3b7b3b5)" style="fill: none"/>
    <g clip-path="url(#pa6f3b7b3b5)">
     <use xlink:href="#m9f5aaf51f8" x="58.554907" y="71.929827" style="fill-opacity: 0; stroke: #d32f2f; stroke-linejoin: miter"/>
    </g>
   </g>
   <g id="line2d_10">
    <path d="M 64.475332 74.773486 
" clip-path="url(#pa6f3b7b3b5)" style="fill: none"/>
    <g clip-path="url(#pa6f3b7b3b5)">
     <use xlink:href="#mdf52550eff" x="64.475332" y="74.773486" style="fill: #d32f2f"/>
    </g>
    <g clip-path="url(#pa6f3b7b3b5)">
     <use xlink:href="#mdfb4d389f3" x="64.475332" y="74.773486" style="fill: #ffffff"/>
    </g>
   </g>
   <g id="line2d_11">
    <path d="M 64.475332 74.773486 
" clip-path="url(#pa6f3b7b3b5)" style="fill: none"/>
    <g clip-path="url(#pa6f3b7b3b5)">
     <use xlink:href="#m9f5aaf51f8" x="64.475332" y="74.773486" style="fill-opacity: 0; stroke: #d32f2f; stroke-linejoin: miter"/>
    </g>
   </g>
   <g id="line2d_12">
    <path d="M 23.032361 88.830527 
" clip-path="url(#pa6f3b7b3b5)" style="fill: none"/>
    <defs>
     <path id="m4fb0d16819" d="M -0 4.242641 
L 4.242641 0 
L 0 -4.242641 
L -0 4.242641 
"/>
    </defs>
    <g clip-path="url(#pa6f3b7b3b5)">
     <use xlink:href="#m4fb0d16819" x="23.032361" y="88.830527" style="fill: #1976d2"/>
    </g>
    <defs>
     <path id="m6d445ef754" d="M -0 4.242641 
L -4.242641 -0 
L 0 -4.242641 
L -0 4.242641 
"/>
    </defs>
    <g clip-path="url(#pa6f3b7b3b5)">
     <use xlink:href="#m6d445ef754" x="23.032361" y="88.830527" style="fill: #ffffff"/>
    </g>
   </g>
   <g id="line2d_13">
    <path d="M 23.032361 88.830527 
" clip-path="url(#pa6f3b7b3b5)" style="fill: none"/>
    <defs>
     <path id="me2cecee11d" d="M -0 4.242641 
L 4.242641 0 
L 0 -4.242641 
L -4.242641 -0 
z
" style="stroke: #1976d2; stroke-linejoin: miter"/>
    </defs>
    <g clip-path="url(#pa6f3b7b3b5)">
     <use xlink:href="#me2cecee11d" x="23.032361" y="88.830527" style="fill-opacity: 0; stroke: #1976d2; stroke-linejoin: miter"/>
    </g>
   </g>
   <g id="line2d_14">
    <path d="M 23.032361 97.309283 
" clip-path="url(#pa6f3b7b3b5)" style="fill: none"/>
    <g clip-path="url(#pa6f3b7b3b5)">
     <use xlink:href="#m4fb0d16819" x="23.032361" y="97.309283" style="fill: #1976d2"/>
    </g>
    <g clip-path="url(#pa6f3b7b3b5)">
     <use xlink:href="#m6d445ef754" x="23.032361" y="97.309283" style="fill: #ffffff"/>
    </g>
   </g>
   <g id="line2d_15">
    <path d="M 23.032361 97.309283 
" clip-path="url(#pa6f3b7b3b5)" style="fill: none"/>
    <g clip-path="url(#pa6f3b7b3b5)">
     <use xlink:href="#me2cecee11d" x="23.032361" y="97.309283" style="fill-opacity: 0; stroke: #1976d2; stroke-linejoin: miter"/>
    </g>
   </g>
   <g id="line2d_16">
    <path d="M 23.032361 97.677849 
" clip-path="url(#pa6f3b7b3b5)" style="fill: none"/>
    <g clip-path="url(#pa6f3b7b3b5)">
     <use xlink:href="#m4fb0d16819" x="23.032361" y="97.677849" style="fill: #1976d2"/>
    </g>
    <g clip-path="url(#pa6f3b7b3b5)">
     <use xlink:href="#m6d445ef754" x="23.032361" y="97.677849" style="fill: #ffffff"/>
    </g>
   </g>
   <g id="line2d_17">
    <path d="M 23.032361 97.677849 
" clip-path="url(#pa6f3b7b3b5)" style="fill: none"/>
    <g clip-path="url(#pa6f3b7b3b5)">
     <use xlink:href="#me2cecee11d" x="23.032361" y="97.677849" style="fill-opacity: 0; stroke: #1976d2; stroke-linejoin: miter"/>
    </g>
   </g>
   <g id="line2d_18">
    <path d="M 28.952785 57.788767 
" clip-path="url(#pa6f3b7b3b5)" style="fill: none"/>
    <g clip-path="url(#pa6f3b7b3b5)">
     <use xlink:href="#mdf52550eff" x="28.952785" y="57.788767" style="fill: #d32f2f"/>
    </g>
    <g clip-path="url(#pa6f3b7b3b5)">
     <use xlink:href="#mdfb4d389f3" x="28.952785" y="57.788767" style="fill: #ffffff"/>
    </g>
   </g>
   <g id="line2d_19">
    <path d="M 28.952785 57.788767 
" clip-path="url(#pa6f3b7b3b5)" style="fill: none"/>
    <g clip-path="url(#pa6f3b7b3b5)">
     <use xlink:href="#m9f5aaf51f8" x="28.952785" y="57.788767" style="fill-opacity: 0; stroke: #d32f2f; stroke-linejoin: miter"/>
    </g>
   </g>
   <g id="line2d_20">
    <path d="M 52.634483 65.403516 
" clip-path="url(#pa6f3b7b3b5)" style="fill: none"/>
    <g clip-path="url(#pa6f3b7b3b5)">
     <use xlink:href="#mdf52550eff" x="52.634483" y="65.403516" style="fill: #d32f2f"/>
    </g>
    <g clip-path="url(#pa6f3b7b3b5)">
     <use xlink:href="#mdfb4d389f3" x="52.634483" y="65.403516" style="fill: #ffffff"/>
    </g>
   </g>
   <g id="line2d_21">
    <path d="M 52.634483 65.403516 
" clip-path="url(#pa6f3b7b3b5)" style="fill: none"/>
    <g clip-path="url(#pa6f3b7b3b5)">
     <use xlink:href="#m9f5aaf51f8" x="52.634483" y="65.403516" style="fill-opacity: 0; stroke: #d32f2f; stroke-linejoin: miter"/>
    </g>
   </g>
   <g id="line2d_22">
    <path d="M 82.236605 75.1117 
" clip-path="url(#pa6f3b7b3b5)" style="fill: none"/>
    <g clip-path="url(#pa6f3b7b3b5)">
     <use xlink:href="#mdf52550eff" x="82.236605" y="75.1117" style="fill: #d32f2f"/>
    </g>
    <g clip-path="url(#pa6f3b7b3b5)">
     <use xlink:href="#mdfb4d389f3" x="82.236605" y="75.1117" style="fill: #ffffff"/>
    </g>
   </g>
   <g id="line2d_23">
    <path d="M 82.236605 75.1117 
" clip-path="url(#pa6f3b7b3b5)" style="fill: none"/>
    <g clip-path="url(#pa6f3b7b3b5)">
     <use xlink:href="#m9f5aaf51f8" x="82.236605" y="75.1117" style="fill-opacity: 0; stroke: #d32f2f; stroke-linejoin: miter"/>
    </g>
   </g>
   <g id="line2d_24">
    <path d="M 23.032361 70.83675 
" clip-path="url(#pa6f3b7b3b5)" style="fill: none"/>
    <g clip-path="url(#pa6f3b7b3b5)">
     <use xlink:href="#m4fb0d16819" x="23.032361" y="70.83675" style="fill: #1976d2"/>
    </g>
    <g clip-path="url(#pa6f3b7b3b5)">
     <use xlink:href="#m6d445ef754" x="23.032361" y="70.83675" style="fill: #ffffff"/>
    </g>
   </g>
   <g id="line2d_25">
    <path d="M 23.032361 70.83675 
" clip-path="url(#pa6f3b7b3b5)" style="fill: none"/>
    <g clip-path="url(#pa6f3b7b3b5)">
     <use xlink:href="#me2cecee11d" x="23.032361" y="70.83675" style="fill-opacity: 0; stroke: #1976d2; stroke-linejoin: miter"/>
    </g>
   </g>
   <g id="line2d_26">
    <path d="M 28.952785 71.862345 
" clip-path="url(#pa6f3b7b3b5)" style="fill: none"/>
    <g clip-path="url(#pa6f3b7b3b5)">
     <use xlink:href="#m4fb0d16819" x="28.952785" y="71.862345" style="fill: #1976d2"/>
    </g>
    <g clip-path="url(#pa6f3b7b3b5)">
     <use xlink:href="#m6d445ef754" x="28.952785" y="71.862345" style="fill: #ffffff"/>
    </g>
   </g>
   <g id="line2d_27">
    <path d="M 28.952785 71.862345 
" clip-path="url(#pa6f3b7b3b5)" style="fill: none"/>
    <g clip-path="url(#pa6f3b7b3b5)">
     <use xlink:href="#me2cecee11d" x="28.952785" y="71.862345" style="fill-opacity: 0; stroke: #1976d2; stroke-linejoin: miter"/>
    </g>
   </g>
   <g id="line2d_28">
    <path d="M 23.032361 40.011322 
" clip-path="url(#pa6f3b7b3b5)" style="fill: none"/>
    <g clip-path="url(#pa6f3b7b3b5)">
     <use xlink:href="#mdf52550eff" x="23.032361" y="40.011322" style="fill: #d32f2f"/>
    </g>
    <g clip-path="url(#pa6f3b7b3b5)">
     <use xlink:href="#mdfb4d389f3" x="23.032361" y="40.011322" style="fill: #ffffff"/>
    </g>
   </g>
   <g id="line2d_29">
    <path d="M 23.032361 40.011322 
" clip-path="url(#pa6f3b7b3b5)" style="fill: none"/>
    <g clip-path="url(#pa6f3b7b3b5)">
     <use xlink:href="#m9f5aaf51f8" x="23.032361" y="40.011322" style="fill-opacity: 0; stroke: #d32f2f; stroke-linejoin: miter"/>
    </g>
   </g>
   <g id="line2d_30">
    <path d="M 64.475332 66.503986 
" clip-path="url(#pa6f3b7b3b5)" style="fill: none"/>
    <g clip-path="url(#pa6f3b7b3b5)">
     <use xlink:href="#mdf52550eff" x="64.475332" y="66.503986" style="fill: #d32f2f"/>
    </g>
    <g clip-path="url(#pa6f3b7b3b5)">
     <use xlink:href="#mdfb4d389f3" x="64.475332" y="66.503986" style="fill: #ffffff"/>
    </g>
   </g>
   <g id="line2d_31">
    <path d="M 64.475332 66.503986 
" clip-path="url(#pa6f3b7b3b5)" style="fill: none"/>
    <g clip-path="url(#pa6f3b7b3b5)">
     <use xlink:href="#m9f5aaf51f8" x="64.475332" y="66.503986" style="fill-opacity: 0; stroke: #d32f2f; stroke-linejoin: miter"/>
    </g>
   </g>
   <g id="line2d_32">
    <path d="M 70.395756 68.158724 
" clip-path="url(#pa6f3b7b3b5)" style="fill: none"/>
    <g clip-path="url(#pa6f3b7b3b5)">
     <use xlink:href="#mdf52550eff" x="70.395756" y="68.158724" style="fill: #d32f2f"/>
    </g>
    <g clip-path="url(#pa6f3b7b3b5)">
     <use xlink:href="#mdfb4d389f3" x="70.395756" y="68.158724" style="fill: #ffffff"/>
    </g>
   </g>
   <g id="line2d_33">
    <path d="M 70.395756 68.158724 
" clip-path="url(#pa6f3b7b3b5)" style="fill: none"/>
    <g clip-path="url(#pa6f3b7b3b5)">
     <use xlink:href="#m9f5aaf51f8" x="70.395756" y="68.158724" style="fill-opacity: 0; stroke: #d32f2f; stroke-linejoin: miter"/>
    </g>
   </g>
   <g id="line2d_34">
    <path d="M 28.952785 79.79933 
" clip-path="url(#pa6f3b7b3b5)" style="fill: none"/>
    <g clip-path="url(#pa6f3b7b3b5)">
     <use xlink:href="#m4fb0d16819" x="28.952785" y="79.79933" style="fill: #1976d2"/>
    </g>
    <g clip-path="url(#pa6f3b7b3b5)">
     <use xlink:href="#m6d445ef754" x="28.952785" y="79.79933" style="fill: #ffffff"/>
    </g>
   </g>
   <g id="line2d_35">
    <path d="M 28.952785 79.79933 
" clip-path="url(#pa6f3b7b3b5)" style="fill: none"/>
    <g clip-path="url(#pa6f3b7b3b5)">
     <use xlink:href="#me2cecee11d" x="28.952785" y="79.79933" style="fill-opacity: 0; stroke: #1976d2; stroke-linejoin: miter"/>
    </g>
   </g>
   <g id="line2d_36">
    <path d="M 34.87321 65.827386 
" clip-path="url(#pa6f3b7b3b5)" style="fill: none"/>
    <g clip-path="url(#pa6f3b7b3b5)">
     <use xlink:href="#m4fb0d16819" x="34.87321" y="65.827386" style="fill: #1976d2"/>
    </g>
    <g clip-path="url(#pa6f3b7b3b5)">
     <use xlink:href="#m6d445ef754" x="34.87321" y="65.827386" style="fill: #ffffff"/>
    </g>
   </g>
   <g id="line2d_37">
    <path d="M 34.87321 65.827386 
" clip-path="url(#pa6f3b7b3b5)" style="fill: none"/>
    <g clip-path="url(#pa6f3b7b3b5)">
     <use xlink:href="#me2cecee11d" x="34.87321" y="65.827386" style="fill-opacity: 0; stroke: #1976d2; stroke-linejoin: miter"/>
    </g>
   </g>
   <g id="line2d_38">
    <path d="M 40.793634 72.533915 
" clip-path="url(#pa6f3b7b3b5)" style="fill: none"/>
    <g clip-path="url(#pa6f3b7b3b5)">
     <use xlink:href="#m4fb0d16819" x="40.793634" y="72.533915" style="fill: #1976d2"/>
    </g>
    <g clip-path="url(#pa6f3b7b3b5)">
     <use xlink:href="#m6d445ef754" x="40.793634" y="72.533915" style="fill: #ffffff"/>
    </g>
   </g>
   <g id="line2d_39">
    <path d="M 40.793634 72.533915 
" clip-path="url(#pa6f3b7b3b5)" style="fill: none"/>
    <g clip-path="url(#pa6f3b7b3b5)">
     <use xlink:href="#me2cecee11d" x="40.793634" y="72.533915" style="fill-opacity: 0; stroke: #1976d2; stroke-linejoin: miter"/>
    </g>
   </g>
   <g id="line2d_40">
    <path d="M 23.032361 36.322081 
" clip-path="url(#pa6f3b7b3b5)" style="fill: none"/>
    <g clip-path="url(#pa6f3b7b3b5)">
     <use xlink:href="#mdf52550eff" x="23.032361" y="36.322081" style="fill: #d32f2f"/>
    </g>
    <g clip-path="url(#pa6f3b7b3b5)">
     <use xlink:href="#mdfb4d389f3" x="23.032361" y="36.322081" style="fill: #ffffff"/>
    </g>
   </g>
   <g id="line2d_41">
    <path d="M 23.032361 36.322081 
" clip-path="url(#pa6f3b7b3b5)" style="fill: none"/>
    <g clip-path="url(#pa6f3b7b3b5)">
     <use xlink:href="#m9f5aaf51f8" x="23.032361" y="36.322081" style="fill-opacity: 0; stroke: #d32f2f; stroke-linejoin: miter"/>
    </g>
   </g>
   <g id="line2d_42">
    <path d="M 40.793634 55.505828 
" clip-path="url(#pa6f3b7b3b5)" style="fill: none"/>
    <g clip-path="url(#pa6f3b7b3b5)">
     <use xlink:href="#mdf52550eff" x="40.793634" y="55.505828" style="fill: #d32f2f"/>
    </g>
    <g clip-path="url(#pa6f3b7b3b5)">
     <use xlink:href="#mdfb4d389f3" x="40.793634" y="55.505828" style="fill: #ffffff"/>
    </g>
   </g>
   <g id="line2d_43">
    <path d="M 40.793634 55.505828 
" clip-path="url(#pa6f3b7b3b5)" style="fill: none"/>
    <g clip-path="url(#pa6f3b7b3b5)">
     <use xlink:href="#m9f5aaf51f8" x="40.793634" y="55.505828" style="fill-opacity: 0; stroke: #d32f2f; stroke-linejoin: miter"/>
    </g>
   </g>
   <g id="line2d_44">
    <path d="M 82.236605 91.941197 
" clip-path="url(#pa6f3b7b3b5)" style="fill: none"/>
    <g clip-path="url(#pa6f3b7b3b5)">
     <use xlink:href="#mdf52550eff" x="82.236605" y="91.941197" style="fill: #d32f2f"/>
    </g>
    <g clip-path="url(#pa6f3b7b3b5)">
     <use xlink:href="#mdfb4d389f3" x="82.236605" y="91.941197" style="fill: #ffffff"/>
    </g>
   </g>
   <g id="line2d_45">
    <path d="M 82.236605 91.941197 
" clip-path="url(#pa6f3b7b3b5)" style="fill: none"/>
    <g clip-path="url(#pa6f3b7b3b5)">
     <use xlink:href="#m9f5aaf51f8" x="82.236605" y="91.941197" style="fill-opacity: 0; stroke: #d32f2f; stroke-linejoin: miter"/>
    </g>
   </g>
   <g id="line2d_46">
    <path d="M 34.87321 55.42488 
" clip-path="url(#pa6f3b7b3b5)" style="fill: none"/>
    <g clip-path="url(#pa6f3b7b3b5)">
     <use xlink:href="#mdf52550eff" x="34.87321" y="55.42488" style="fill: #d32f2f"/>
    </g>
    <g clip-path="url(#pa6f3b7b3b5)">
     <use xlink:href="#mdfb4d389f3" x="34.87321" y="55.42488" style="fill: #ffffff"/>
    </g>
   </g>
   <g id="line2d_47">
    <path d="M 34.87321 55.42488 
" clip-path="url(#pa6f3b7b3b5)" style="fill: none"/>
    <g clip-path="url(#pa6f3b7b3b5)">
     <use xlink:href="#m9f5aaf51f8" x="34.87321" y="55.42488" style="fill-opacity: 0; stroke: #d32f2f; stroke-linejoin: miter"/>
    </g>
   </g>
   <g id="line2d_48">
    <path d="M 82.236605 83.335681 
" clip-path="url(#pa6f3b7b3b5)" style="fill: none"/>
    <g clip-path="url(#pa6f3b7b3b5)">
     <use xlink:href="#mdf52550eff" x="82.236605" y="83.335681" style="fill: #d32f2f"/>
    </g>
    <g clip-path="url(#pa6f3b7b3b5)">
     <use xlink:href="#mdfb4d389f3" x="82.236605" y="83.335681" style="fill: #ffffff"/>
    </g>
   </g>
   <g id="line2d_49">
    <path d="M 82.236605 83.335681 
" clip-path="url(#pa6f3b7b3b5)" style="fill: none"/>
    <g clip-path="url(#pa6f3b7b3b5)">
     <use xlink:href="#m9f5aaf51f8" x="82.236605" y="83.335681" style="fill-opacity: 0; stroke: #d32f2f; stroke-linejoin: miter"/>
    </g>
   </g>
   <g id="line2d_50">
    <path d="M 88.157029 70.032745 
" clip-path="url(#pa6f3b7b3b5)" style="fill: none"/>
    <g clip-path="url(#pa6f3b7b3b5)">
     <use xlink:href="#mdf52550eff" x="88.157029" y="70.032745" style="fill: #d32f2f"/>
    </g>
    <g clip-path="url(#pa6f3b7b3b5)">
     <use xlink:href="#mdfb4d389f3" x="88.157029" y="70.032745" style="fill: #ffffff"/>
    </g>
   </g>
   <g id="line2d_51">
    <path d="M 88.157029 70.032745 
" clip-path="url(#pa6f3b7b3b5)" style="fill: none"/>
    <g clip-path="url(#pa6f3b7b3b5)">
     <use xlink:href="#m9f5aaf51f8" x="88.157029" y="70.032745" style="fill-opacity: 0; stroke: #d32f2f; stroke-linejoin: miter"/>
    </g>
   </g>
   <g id="line2d_52">
    <path d="M 52.634483 52.698699 
" clip-path="url(#pa6f3b7b3b5)" style="fill: none"/>
    <g clip-path="url(#pa6f3b7b3b5)">
     <use xlink:href="#mdf52550eff" x="52.634483" y="52.698699" style="fill: #d32f2f"/>
    </g>
    <g clip-path="url(#pa6f3b7b3b5)">
     <use xlink:href="#mdfb4d389f3" x="52.634483" y="52.698699" style="fill: #ffffff"/>
    </g>
   </g>
   <g id="line2d_53">
    <path d="M 52.634483 52.698699 
" clip-path="url(#pa6f3b7b3b5)" style="fill: none"/>
    <g clip-path="url(#pa6f3b7b3b5)">
     <use xlink:href="#m9f5aaf51f8" x="52.634483" y="52.698699" style="fill-opacity: 0; stroke: #d32f2f; stroke-linejoin: miter"/>
    </g>
   </g>
   <g id="line2d_54">
    <path d="M 99.997878 82.133233 
" clip-path="url(#pa6f3b7b3b5)" style="fill: none"/>
    <g clip-path="url(#pa6f3b7b3b5)">
     <use xlink:href="#mdf52550eff" x="99.997878" y="82.133233" style="fill: #d32f2f"/>
    </g>
    <g clip-path="url(#pa6f3b7b3b5)">
     <use xlink:href="#mdfb4d389f3" x="99.997878" y="82.133233" style="fill: #ffffff"/>
    </g>
   </g>
   <g id="line2d_55">
    <path d="M 99.997878 82.133233 
" clip-path="url(#pa6f3b7b3b5)" style="fill: none"/>
    <g clip-path="url(#pa6f3b7b3b5)">
     <use xlink:href="#m9f5aaf51f8" x="99.997878" y="82.133233" style="fill-opacity: 0; stroke: #d32f2f; stroke-linejoin: miter"/>
    </g>
   </g>
   <g id="line2d_56">
    <path d="M 111.838727 89.486289 
" clip-path="url(#pa6f3b7b3b5)" style="fill: none"/>
    <g clip-path="url(#pa6f3b7b3b5)">
     <use xlink:href="#mdf52550eff" x="111.838727" y="89.486289" style="fill: #d32f2f"/>
    </g>
    <g clip-path="url(#pa6f3b7b3b5)">
     <use xlink:href="#mdfb4d389f3" x="111.838727" y="89.486289" style="fill: #ffffff"/>
    </g>
   </g>
   <g id="line2d_57">
    <path d="M 111.838727 89.486289 
" clip-path="url(#pa6f3b7b3b5)" style="fill: none"/>
    <g clip-path="url(#pa6f3b7b3b5)">
     <use xlink:href="#m9f5aaf51f8" x="111.838727" y="89.486289" style="fill-opacity: 0; stroke: #d32f2f; stroke-linejoin: miter"/>
    </g>
   </g>
   <g id="line2d_58">
    <path d="M 46.714058 40.991946 
" clip-path="url(#pa6f3b7b3b5)" style="fill: none"/>
    <g clip-path="url(#pa6f3b7b3b5)">
     <use xlink:href="#mdf52550eff" x="46.714058" y="40.991946" style="fill: #d32f2f"/>
    </g>
    <g clip-path="url(#pa6f3b7b3b5)">
     <use xlink:href="#mdfb4d389f3" x="46.714058" y="40.991946" style="fill: #ffffff"/>
    </g>
   </g>
   <g id="line2d_59">
    <path d="M 46.714058 40.991946 
" clip-path="url(#pa6f3b7b3b5)" style="fill: none"/>
    <g clip-path="url(#pa6f3b7b3b5)">
     <use xlink:href="#m9f5aaf51f8" x="46.714058" y="40.991946" style="fill-opacity: 0; stroke: #d32f2f; stroke-linejoin: miter"/>
    </g>
   </g>
   <g id="line2d_60">
    <path d="M 99.997878 60.149701 
" clip-path="url(#pa6f3b7b3b5)" style="fill: none"/>
    <g clip-path="url(#pa6f3b7b3b5)">
     <use xlink:href="#mdf52550eff" x="99.997878" y="60.149701" style="fill: #d32f2f"/>
    </g>
    <g clip-path="url(#pa6f3b7b3b5)">
     <use xlink:href="#mdfb4d389f3" x="99.997878" y="60.149701" style="fill: #ffffff"/>
    </g>
   </g>
   <g id="line2d_61">
    <path d="M 99.997878 60.149701 
" clip-path="url(#pa6f3b7b3b5)" style="fill: none"/>
    <g clip-path="url(#pa6f3b7b3b5)">
     <use xlink:href="#m9f5aaf51f8" x="99.997878" y="60.149701" style="fill-opacity: 0; stroke: #d32f2f; stroke-linejoin: miter"/>
    </g>
   </g>
   <g id="line2d_62">
    <path d="M 123.679576 54.491894 
" clip-path="url(#pa6f3b7b3b5)" style="fill: none"/>
    <g clip-path="url(#pa6f3b7b3b5)">
     <use xlink:href="#mdf52550eff" x="123.679576" y="54.491894" style="fill: #d32f2f"/>
    </g>
    <g clip-path="url(#pa6f3b7b3b5)">
     <use xlink:href="#mdfb4d389f3" x="123.679576" y="54.491894" style="fill: #ffffff"/>
    </g>
   </g>
   <g id="line2d_63">
    <path d="M 123.679576 54.491894 
" clip-path="url(#pa6f3b7b3b5)" style="fill: none"/>
    <g clip-path="url(#pa6f3b7b3b5)">
     <use xlink:href="#m9f5aaf51f8" x="123.679576" y="54.491894" style="fill-opacity: 0; stroke: #d32f2f; stroke-linejoin: miter"/>
    </g>
   </g>
   <g id="line2d_64">
    <path d="M 23.032361 65.307947 
" clip-path="url(#pa6f3b7b3b5)" style="fill: none"/>
    <g clip-path="url(#pa6f3b7b3b5)">
     <use xlink:href="#m4fb0d16819" x="23.032361" y="65.307947" style="fill: #1976d2"/>
    </g>
    <g clip-path="url(#pa6f3b7b3b5)">
     <use xlink:href="#m6d445ef754" x="23.032361" y="65.307947" style="fill: #ffffff"/>
    </g>
   </g>
   <g id="line2d_65">
    <path d="M 23.032361 65.307947 
" clip-path="url(#pa6f3b7b3b5)" style="fill: none"/>
    <g clip-path="url(#pa6f3b7b3b5)">
     <use xlink:href="#me2cecee11d" x="23.032361" y="65.307947" style="fill-opacity: 0; stroke: #1976d2; stroke-linejoin: miter"/>
    </g>
   </g>
   <g id="line2d_66">
    <path d="M 28.952785 77.932792 
" clip-path="url(#pa6f3b7b3b5)" style="fill: none"/>
    <g clip-path="url(#pa6f3b7b3b5)">
     <use xlink:href="#m4fb0d16819" x="28.952785" y="77.932792" style="fill: #1976d2"/>
    </g>
    <g clip-path="url(#pa6f3b7b3b5)">
     <use xlink:href="#m6d445ef754" x="28.952785" y="77.932792" style="fill: #ffffff"/>
    </g>
   </g>
   <g id="line2d_67">
    <path d="M 28.952785 77.932792 
" clip-path="url(#pa6f3b7b3b5)" style="fill: none"/>
    <g clip-path="url(#pa6f3b7b3b5)">
     <use xlink:href="#me2cecee11d" x="28.952785" y="77.932792" style="fill-opacity: 0; stroke: #1976d2; stroke-linejoin: miter"/>
    </g>
   </g>
   <g id="line2d_68">
    <path d="M 34.87321 74.654504 
" clip-path="url(#pa6f3b7b3b5)" style="fill: none"/>
    <g clip-path="url(#pa6f3b7b3b5)">
     <use xlink:href="#m4fb0d16819" x="34.87321" y="74.654504" style="fill: #1976d2"/>
    </g>
    <g clip-path="url(#pa6f3b7b3b5)">
     <use xlink:href="#m6d445ef754" x="34.87321" y="74.654504" style="fill: #ffffff"/>
    </g>
   </g>
   <g id="line2d_69">
    <path d="M 34.87321 74.654504 
" clip-path="url(#pa6f3b7b3b5)" style="fill: none"/>
    <g clip-path="url(#pa6f3b7b3b5)">
     <use xlink:href="#me2cecee11d" x="34.87321" y="74.654504" style="fill-opacity: 0; stroke: #1976d2; stroke-linejoin: miter"/>
    </g>
   </g>
   <g id="line2d_70">
    <path d="M 23.032361 76.205465 
" clip-path="url(#pa6f3b7b3b5)" style="fill: none"/>
    <g clip-path="url(#pa6f3b7b3b5)">
     <use xlink:href="#m4fb0d16819" x="23.032361" y="76.205465" style="fill: #1976d2"/>
    </g>
    <g clip-path="url(#pa6f3b7b3b5)">
     <use xlink:href="#m6d445ef754" x="23.032361" y="76.205465" style="fill: #ffffff"/>
    </g>
   </g>
   <g id="line2d_71">
    <path d="M 23.032361 76.205465 
" clip-path="url(#pa6f3b7b3b5)" style="fill: none"/>
    <g clip-path="url(#pa6f3b7b3b5)">
     <use xlink:href="#me2cecee11d" x="23.032361" y="76.205465" style="fill-opacity: 0; stroke: #1976d2; stroke-linejoin: miter"/>
    </g>
   </g>
   <g id="line2d_72">
    <path d="M 34.87321 83.083552 
" clip-path="url(#pa6f3b7b3b5)" style="fill: none"/>
    <g clip-path="url(#pa6f3b7b3b5)">
     <use xlink:href="#m4fb0d16819" x="34.87321" y="83.083552" style="fill: #1976d2"/>
    </g>
    <g clip-path="url(#pa6f3b7b3b5)">
     <use xlink:href="#m6d445ef754" x="34.87321" y="83.083552" style="fill: #ffffff"/>
    </g>
   </g>
   <g id="line2d_73">
    <path d="M 34.87321 83.083552 
" clip-path="url(#pa6f3b7b3b5)" style="fill: none"/>
    <g clip-path="url(#pa6f3b7b3b5)">
     <use xlink:href="#me2cecee11d" x="34.87321" y="83.083552" style="fill-opacity: 0; stroke: #1976d2; stroke-linejoin: miter"/>
    </g>
   </g>
   <g id="line2d_74">
    <path d="M 64.475332 97.25455 
" clip-path="url(#pa6f3b7b3b5)" style="fill: none"/>
    <g clip-path="url(#pa6f3b7b3b5)">
     <use xlink:href="#m4fb0d16819" x="64.475332" y="97.25455" style="fill: #1976d2"/>
    </g>
    <g clip-path="url(#pa6f3b7b3b5)">
     <use xlink:href="#m6d445ef754" x="64.475332" y="97.25455" style="fill: #ffffff"/>
    </g>
   </g>
   <g id="line2d_75">
    <path d="M 64.475332 97.25455 
" clip-path="url(#pa6f3b7b3b5)" style="fill: none"/>
    <g clip-path="url(#pa6f3b7b3b5)">
     <use xlink:href="#me2cecee11d" x="64.475332" y="97.25455" style="fill-opacity: 0; stroke: #1976d2; stroke-linejoin: miter"/>
    </g>
   </g>
   <g id="line2d_76">
    <path clip-path="url(#pa6f3b7b3b5)" style="fill: none"/>
    <g clip-path="url(#pa6f3b7b3b5)"/>
    <g clip-path="url(#pa6f3b7b3b5)"/>
   </g>
   <g id="line2d_77">
    <path clip-path="url(#pa6f3b7b3b5)" style="fill: none"/>
    <g clip-path="url(#pa6f3b7b3b5)"/>
   </g>
   <g id="line2d_78">
    <path d="M 40.793634 99.168965 
" clip-path="url(#pa6f3b7b3b5)" style="fill: none"/>
    <g clip-path="url(#pa6f3b7b3b5)">
     <use xlink:href="#m4fb0d16819" x="40.793634" y="99.168965" style="fill: #1976d2"/>
    </g>
    <g clip-path="url(#pa6f3b7b3b5)">
     <use xlink:href="#m6d445ef754" x="40.793634" y="99.168965" style="fill: #ffffff"/>
    </g>
   </g>
   <g id="line2d_79">
    <path d="M 40.793634 99.168965 
" clip-path="url(#pa6f3b7b3b5)" style="fill: none"/>
    <g clip-path="url(#pa6f3b7b3b5)">
     <use xlink:href="#me2cecee11d" x="40.793634" y="99.168965" style="fill-opacity: 0; stroke: #1976d2; stroke-linejoin: miter"/>
    </g>
   </g>
   <g id="line2d_80">
    <path d="M 58.554907 83.864314 
" clip-path="url(#pa6f3b7b3b5)" style="fill: none"/>
    <g clip-path="url(#pa6f3b7b3b5)">
     <use xlink:href="#m4fb0d16819" x="58.554907" y="83.864314" style="fill: #1976d2"/>
    </g>
    <g clip-path="url(#pa6f3b7b3b5)">
     <use xlink:href="#m6d445ef754" x="58.554907" y="83.864314" style="fill: #ffffff"/>
    </g>
   </g>
   <g id="line2d_81">
    <path d="M 58.554907 83.864314 
" clip-path="url(#pa6f3b7b3b5)" style="fill: none"/>
    <g clip-path="url(#pa6f3b7b3b5)">
     <use xlink:href="#me2cecee11d" x="58.554907" y="83.864314" style="fill-opacity: 0; stroke: #1976d2; stroke-linejoin: miter"/>
    </g>
   </g>
   <g id="line2d_82">
    <path clip-path="url(#pa6f3b7b3b5)" style="fill: none"/>
    <g clip-path="url(#pa6f3b7b3b5)"/>
    <g clip-path="url(#pa6f3b7b3b5)"/>
   </g>
   <g id="line2d_83">
    <path clip-path="url(#pa6f3b7b3b5)" style="fill: none"/>
    <g clip-path="url(#pa6f3b7b3b5)"/>
   </g>
   <g id="line2d_84">
    <path d="M 28.952785 77.541874 
" clip-path="url(#pa6f3b7b3b5)" style="fill: none"/>
    <g clip-path="url(#pa6f3b7b3b5)">
     <use xlink:href="#m4fb0d16819" x="28.952785" y="77.541874" style="fill: #1976d2"/>
    </g>
    <g clip-path="url(#pa6f3b7b3b5)">
     <use xlink:href="#m6d445ef754" x="28.952785" y="77.541874" style="fill: #ffffff"/>
    </g>
   </g>
   <g id="line2d_85">
    <path d="M 28.952785 77.541874 
" clip-path="url(#pa6f3b7b3b5)" style="fill: none"/>
    <g clip-path="url(#pa6f3b7b3b5)">
     <use xlink:href="#me2cecee11d" x="28.952785" y="77.541874" style="fill-opacity: 0; stroke: #1976d2; stroke-linejoin: miter"/>
    </g>
   </g>
   <g id="line2d_86">
    <path d="M 40.793634 60.773275 
" clip-path="url(#pa6f3b7b3b5)" style="fill: none"/>
    <g clip-path="url(#pa6f3b7b3b5)">
     <use xlink:href="#m4fb0d16819" x="40.793634" y="60.773275" style="fill: #1976d2"/>
    </g>
    <g clip-path="url(#pa6f3b7b3b5)">
     <use xlink:href="#m6d445ef754" x="40.793634" y="60.773275" style="fill: #ffffff"/>
    </g>
   </g>
   <g id="line2d_87">
    <path d="M 40.793634 60.773275 
" clip-path="url(#pa6f3b7b3b5)" style="fill: none"/>
    <g clip-path="url(#pa6f3b7b3b5)">
     <use xlink:href="#me2cecee11d" x="40.793634" y="60.773275" style="fill-opacity: 0; stroke: #1976d2; stroke-linejoin: miter"/>
    </g>
   </g>
   <g id="patch_3">
    <path d="M 18 128.16 
L 18 17.28 
" style="fill: none; stroke: #000000; stroke-width: 0.8; stroke-linejoin: miter; stroke-linecap: square"/>
   </g>
   <g id="patch_4">
    <path d="M 18 72.72 
L 129.6 72.72 
" style="fill: none; stroke: #000000; stroke-width: 0.8; stroke-linejoin: miter; stroke-linecap: square"/>
   </g>
   <g id="text_4">
    <!-- TAP1 -0.60 -->
    <g transform="translate(41.629687 11.28) scale(0.12 -0.12)">
     <defs>
      <path id="DejaVuSans-54" d="M -19 4666 
L 3928 4666 
L 3928 4134 
L 2272 4134 
L 2272 0 
L 1638 0 
L 1638 4134 
L -19 4134 
L -19 4666 
z
" transform="scale(0.015625)"/>
      <path id="DejaVuSans-41" d="M 2188 4044 
L 1331 1722 
L 3047 1722 
L 2188 4044 
z
M 1831 4666 
L 2547 4666 
L 4325 0 
L 3669 0 
L 3244 1197 
L 1141 1197 
L 716 0 
L 50 0 
L 1831 4666 
z
" transform="scale(0.015625)"/>
      <path id="DejaVuSans-50" d="M 1259 4147 
L 1259 2394 
L 2053 2394 
Q 2494 2394 2734 2622 
Q 2975 2850 2975 3272 
Q 2975 3691 2734 3919 
Q 2494 4147 2053 4147 
L 1259 4147 
z
M 628 4666 
L 2053 4666 
Q 2838 4666 3239 4311 
Q 3641 3956 3641 3272 
Q 3641 2581 3239 2228 
Q 2838 1875 2053 1875 
L 1259 1875 
L 1259 0 
L 628 0 
L 628 4666 
z
" transform="scale(0.015625)"/>
      <path id="DejaVuSans-31" d="M 794 531 
L 1825 531 
L 1825 4091 
L 703 3866 
L 703 4441 
L 1819 4666 
L 2450 4666 
L 2450 531 
L 3481 531 
L 3481 0 
L 794 0 
L 794 531 
z
" transform="scale(0.015625)"/>
      <path id="DejaVuSans-20" transform="scale(0.015625)"/>
      <path id="DejaVuSans-2d" d="M 313 2009 
L 1997 2009 
L 1997 1497 
L 313 1497 
L 313 2009 
z
" transform="scale(0.015625)"/>
      <path id="DejaVuSans-2e" d="M 684 794 
L 1344 794 
L 1344 0 
L 684 0 
L 684 794 
z
" transform="scale(0.015625)"/>
      <path id="DejaVuSans-36" d="M 2113 2584 
Q 1688 2584 1439 2293 
Q 1191 2003 1191 1497 
Q 1191 994 1439 701 
Q 1688 409 2113 409 
Q 2538 409 2786 701 
Q 3034 994 3034 1497 
Q 3034 2003 2786 2293 
Q 2538 2584 2113 2584 
z
M 3366 4563 
L 3366 3988 
Q 3128 4100 2886 4159 
Q 2644 4219 2406 4219 
Q 1781 4219 1451 3797 
Q 1122 3375 1075 2522 
Q 1259 2794 1537 2939 
Q 1816 3084 2150 3084 
Q 2853 3084 3261 2657 
Q 3669 2231 3669 1497 
Q 3669 778 3244 343 
Q 2819 -91 2113 -91 
Q 1303 -91 875 529 
Q 447 1150 447 2328 
Q 447 3434 972 4092 
Q 1497 4750 2381 4750 
Q 2619 4750 2861 4703 
Q 3103 4656 3366 4563 
z
" transform="scale(0.015625)"/>
     </defs>
     <use xlink:href="#DejaVuSans-54"/>
     <use xlink:href="#DejaVuSans-41" transform="translate(53.333984 0)"/>
     <use xlink:href="#DejaVuSans-50" transform="translate(121.742188 0)"/>
     <use xlink:href="#DejaVuSans-31" transform="translate(182.044922 0)"/>
     <use xlink:href="#DejaVuSans-20" transform="translate(245.667969 0)"/>
     <use xlink:href="#DejaVuSans-2d" transform="translate(277.455078 0)"/>
     <use xlink:href="#DejaVuSans-30" transform="translate(313.539062 0)"/>
     <use xlink:href="#DejaVuSans-2e" transform="translate(377.162109 0)"/>
     <use xlink:href="#DejaVuSans-36" transform="translate(408.949219 0)"/>
     <use xlink:href="#DejaVuSans-30" transform="translate(472.572266 0)"/>
    </g>
   </g>
  </g>
 </g>
 <defs>
  <clipPath id="pa6f3b7b3b5">
   <rect x="18" y="17.28" width="111.6" height="110.88"/>
  </clipPath>
 </defs>
</svg>
