<?xml version="1.0" encoding="utf-8" standalone="no"?>
<!DOCTYPE svg PUBLIC "-//W3C//DTD SVG 1.1//EN"
  "http://www.w3.org/Graphics/SVG/1.1/DTD/svg11.dtd">
<svg xmlns:xlink="http://www.w3.org/1999/xlink" width="144pt" height="144pt" viewBox="0 0 144 144" xmlns="http://www.w3.org/2000/svg" version="1.1">
 <metadata>
  <rdf:RDF xmlns:dc="http://purl.org/dc/elements/1.1/" xmlns:cc="http://creativecommons.org/ns#" xmlns:rdf="http://www.w3.org/1999/02/22-rdf-syntax-ns#">
   <cc:Work>
    <dc:type rdf:resource="http://purl.org/dc/dcmitype/StillImage"/>
    <dc:date>2026-02-17T13:08:29.855280</dc:date>
    <dc:format>image/svg+xml</dc:format>
    <dc:creator>
     <cc:Agent>
      <dc:title>Matplotlib v3.10.6, https://matplotlib.org/</dc:title>
     </cc:Agent>
    </dc:creator>
   </cc:Work>
  </rdf:RDF>
 </metadata>
 <defs>
  <style type="text/css">*{stroke-linejoin: round; stroke-linecap: butt}</style>
 </defs>
 <g id="figure_1">
  <g id="patch_1">
   <path d="M 0 144 
L 144 144 
L 144 0 
L 0 0 
z
" style="fill: #ffffff"/>
  </g>
  <g id="axes_1">
   <g id="patch_2">
    <path d="M 18 128.16 
L 129.6 128.16 
L 129.6 17.28 
L 18 17.28 
z
" style="fill: #ffffff"/>
   </g>
   <g id="matplotlib.axis_1">
    <g id="xtick_1">
     <g id="line2d_1">
      <defs>
       <path id="mf144ddf2d3" d="M 0 0 
L 0 3.5 
" style="stroke: #000000; stroke-width: 0.8"/>
      </defs>
      <g>
       <use xlink:href="#mf144ddf2d3" x="76.31618" y="72.72" style="stroke: #000000; stroke-width: 0.8"/>
      </g>
     </g>
    </g>
    <g id="xtick_2">
     <g id="line2d_2">
      <g>
       <use xlink:href="#mf144ddf2d3" x="129.6" y="72.72" style="stroke: #000000; stroke-width: 0.8"/>
      </g>
     </g>
    </g>
   </g>
   <g id="matplotlib.axis_2">
    <g id="ytick_1">
     <g id="line2d_3">
      <defs>
       <path id="md8a0f19f87" d="M 0 0 
L -3.5 0 
" style="stroke: #000000; stroke-width: 0.8"/>
      </defs>
      <g>
       <use xlink:href="#md8a0f19f87" x="18" y="104.4" style="stroke: #000000; stroke-width: 0.8"/>
      </g>
     </g>
     <g id="text_1">
      <!-- −2 -->
      <g transform="translate(-3.742188 108.199219) scale(0.1 -0.1)">
       <defs>
        <path id="DejaVuSans-2212" d="M 678 2272 
L 4684 2272 
L 4684 1741 
L 678 1741 
L 678 2272 
z
" transform="scale(0.015625)"/>
        <path id="DejaVuSans-32" d="M 1228 531 
L 3431 531 
L 3431 0 
L 469 0 
L 469 531 
Q 828 903 1448 1529 
Q 2069 2156 2228 2338 
Q 2531 2678 2651 2914 
Q 2772 3150 2772 3378 
Q 2772 3750 2511 3984 
Q 2250 4219 1831 4219 
Q 1534 4219 1204 4116 
Q 875 4013 500 3803 
L 500 4441 
Q 881 4594 1212 4672 
Q 1544 4750 1819 4750 
Q 2544 4750 2975 4387 
Q 3406 4025 3406 3419 
Q 3406 3131 3298 2873 
Q 3191 2616 2906 2266 
Q 2828 2175 2409 1742 
Q 1991 1309 1228 531 
z
" transform="scale(0.015625)"/>
       </defs>
       <use xlink:href="#DejaVuSans-2212"/>
       <use xlink:href="#DejaVuSans-32" transform="translate(83.789062 0)"/>
      </g>
     </g>
    </g>
    <g id="ytick_2">
     <g id="line2d_4">
      <g>
       <use xlink:href="#md8a0f19f87" x="18" y="72.72" style="stroke: #000000; stroke-width: 0.8"/>
      </g>
     </g>
     <g id="text_2">
      <!-- 0 -->
      <g transform="translate(4.6375 76.519219) scale(0.1 -0.1)">
       <defs>
        <path id="DejaVuSans-30" d="M 2034 4250 
Q 1547 4250 1301 3770 
Q 1056 3291 1056 2328 
Q 1056 1369 1301 889 
Q 1547 409 2034 409 
Q 2525 409 2770 889 
Q 3016 1369 3016 2328 
Q 3016 3291 2770 3770 
Q 2525 4250 2034 4250 
z
M 2034 4750 
Q 2819 4750 3233 4129 
Q 3647 3509 3647 2328 
Q 3647 1150 3233 529 
Q 2819 -91 2034 -91 
Q 1250 -91 836 529 
Q 422 1150 422 2328 
Q 422 3509 836 4129 
Q 1250 4750 2034 4750 
z
" transform="scale(0.015625)"/>
       </defs>
       <use xlink:href="#DejaVuSans-30"/>
      </g>
     </g>
    </g>
    <g id="ytick_3">
     <g id="line2d_5">
      <g>
       <use xlink:href="#md8a0f19f87" x="18" y="41.04" style="stroke: #000000; stroke-width: 0.8"/>
      </g>
     </g>
     <g id="text_3">
      <!-- 2 -->
      <g transform="translate(4.6375 44.839219) scale(0.1 -0.1)">
       <use xlink:href="#DejaVuSans-32"/>
      </g>
     </g>
    </g>
   </g>
   <g id="line2d_6">
    <path d="M 40.793634 67.255404 
" clip-path="url(#pa6c9ebeb63)" style="fill: none"/>
    <defs>
     <path id="ma0930f3077" d="M 0 -4.242641 
L -4.242641 -0 
L -0 4.242641 
L 0 -4.242641 
"/>
    </defs>
    <g clip-path="url(#pa6c9ebeb63)">
     <use xlink:href="#ma0930f3077" x="40.793634" y="67.255404" style="fill: #d32f2f"/>
    </g>
    <defs>
     <path id="m172e7f48a7" d="M 0 -4.242641 
L 4.242641 0 
L -0 4.242641 
L 0 -4.242641 
"/>
    </defs>
    <g clip-path="url(#pa6c9ebeb63)">
     <use xlink:href="#m172e7f48a7" x="40.793634" y="67.255404" style="fill: #ffffff"/>
    </g>
   </g>
   <g id="line2d_7">
    <path d="M 40.793634 67.255404 
" clip-path="url(#pa6c9ebeb63)" style="fill: none"/>
    <defs>
     <path id="m4aa55dbb0d" d="M -0 4.242641 
L 4.242641 0 
L 0 -4.242641 
L -4.242641 -0 
z
" style="stroke: #d32f2f; stroke-linejoin: miter"/>
    </defs>
    <g clip-path="url(#pa6c9ebeb63)">
     <use xlink:href="#m4aa55dbb0d" x="40.793634" y="67.255404" style="fill-opacity: 0; stroke: #d32f2f; stroke-linejoin: miter"/>
    </g>
   </g>
   <g id="line2d_8">
    <path d="M 58.554907 69.289932 
" clip-path="url(#pa6c9ebeb63)" style="fill: none"/>
    <g clip-path="url(#pa6c9ebeb63)">
     <use xlink:href="#ma0930f3077" x="58.554907" y="69.289932" style="fill: #d32f2f"/>
    </g>
    <g clip-path="url(#pa6c9ebeb63)">
     <use xlink:href="#m172e7f48a7" x="58.554907" y="69.289932" style="fill: #ffffff"/>
    </g>
   </g>
   <g id="line2d_9">
    <path d="M 58.554907 69.289932 
" clip-path="url(#pa6c9ebeb63)" style="fill: none"/>
    <g clip-path="url(#pa6c9ebeb63)">
     <use xlink:href="#m4aa55dbb0d" x="58.554907" y="69.289932" style="fill-opacity: 0; stroke: #d32f2f; stroke-linejoin: miter"/>
    </g>
   </g>
   <g id="line2d_10">
    <path d="M 64.475332 74.187546 
" clip-path="url(#pa6c9ebeb63)" style="fill: none"/>
    <g clip-path="url(#pa6c9ebeb63)">
     <use xlink:href="#ma0930f3077" x="64.475332" y="74.187546" style="fill: #d32f2f"/>
    </g>
    <g clip-path="url(#pa6c9ebeb63)">
     <use xlink:href="#m172e7f48a7" x="64.475332" y="74.187546" style="fill: #ffffff"/>
    </g>
   </g>
   <g id="line2d_11">
    <path d="M 64.475332 74.187546 
" clip-path="url(#pa6c9ebeb63)" style="fill: none"/>
    <g clip-path="url(#pa6c9ebeb63)">
     <use xlink:href="#m4aa55dbb0d" x="64.475332" y="74.187546" style="fill-opacity: 0; stroke: #d32f2f; stroke-linejoin: miter"/>
    </g>
   </g>
   <g id="line2d_12">
    <path d="M 23.032361 94.173688 
" clip-path="url(#pa6c9ebeb63)" style="fill: none"/>
    <defs>
     <path id="m70aec44e95" d="M -0 4.242641 
L 4.242641 0 
L 0 -4.242641 
L -0 4.242641 
"/>
    </defs>
    <g clip-path="url(#pa6c9ebeb63)">
     <use xlink:href="#m70aec44e95" x="23.032361" y="94.173688" style="fill: #1976d2"/>
    </g>
    <defs>
     <path id="mf472d66cbe" d="M -0 4.242641 
L -4.242641 -0 
L 0 -4.242641 
L -0 4.242641 
"/>
    </defs>
    <g clip-path="url(#pa6c9ebeb63)">
     <use xlink:href="#mf472d66cbe" x="23.032361" y="94.173688" style="fill: #ffffff"/>
    </g>
   </g>
   <g id="line2d_13">
    <path d="M 23.032361 94.173688 
" clip-path="url(#pa6c9ebeb63)" style="fill: none"/>
    <defs>
     <path id="m823496dc68" d="M -0 4.242641 
L 4.242641 0 
L 0 -4.242641 
L -4.242641 -0 
z
" style="stroke: #1976d2; stroke-linejoin: miter"/>
    </defs>
    <g clip-path="url(#pa6c9ebeb63)">
     <use xlink:href="#m823496dc68" x="23.032361" y="94.173688" style="fill-opacity: 0; stroke: #1976d2; stroke-linejoin: miter"/>
    </g>
   </g>
   <g id="line2d_14">
    <path d="M 23.032361 107.605062 
" clip-path="url(#pa6c9ebeb63)" style="fill: none"/>
    <g clip-path="url(#pa6c9ebeb63)">
     <use xlink:href="#m70aec44e95" x="23.032361" y="107.605062" style="fill: #1976d2"/>
    </g>
    <g clip-path="url(#pa6c9ebeb63)">
     <use xlink:href="#mf472d66cbe" x="23.032361" y="107.605062" style="fill: #ffffff"/>
    </g>
   </g>
   <g id="line2d_15">
    <path d="M 23.032361 107.605062 
" clip-path="url(#pa6c9ebeb63)" style="fill: none"/>
    <g clip-path="url(#pa6c9ebeb63)">
     <use xlink:href="#m823496dc68" x="23.032361" y="107.605062" style="fill-opacity: 0; stroke: #1976d2; stroke-linejoin: miter"/>
    </g>
   </g>
   <g id="line2d_16">
    <path d="M 23.032361 91.050206 
" clip-path="url(#pa6c9ebeb63)" style="fill: none"/>
    <g clip-path="url(#pa6c9ebeb63)">
     <use xlink:href="#m70aec44e95" x="23.032361" y="91.050206" style="fill: #1976d2"/>
    </g>
    <g clip-path="url(#pa6c9ebeb63)">
     <use xlink:href="#mf472d66cbe" x="23.032361" y="91.050206" style="fill: #ffffff"/>
    </g>
   </g>
   <g id="line2d_17">
    <path d="M 23.032361 91.050206 
" clip-path="url(#pa6c9ebeb63)" style="fill: none"/>
    <g clip-path="url(#pa6c9ebeb63)">
     <use xlink:href="#m823496dc68" x="23.032361" y="91.050206" style="fill-opacity: 0; stroke: #1976d2; stroke-linejoin: miter"/>
    </g>
   </g>
   <g id="line2d_18">
    <path d="M 28.952785 58.22332 
" clip-path="url(#pa6c9ebeb63)" style="fill: none"/>
    <g clip-path="url(#pa6c9ebeb63)">
     <use xlink:href="#ma0930f3077" x="28.952785" y="58.22332" style="fill: #d32f2f"/>
    </g>
    <g clip-path="url(#pa6c9ebeb63)">
     <use xlink:href="#m172e7f48a7" x="28.952785" y="58.22332" style="fill: #ffffff"/>
    </g>
   </g>
   <g id="line2d_19">
    <path d="M 28.952785 58.22332 
" clip-path="url(#pa6c9ebeb63)" style="fill: none"/>
    <g clip-path="url(#pa6c9ebeb63)">
     <use xlink:href="#m4aa55dbb0d" x="28.952785" y="58.22332" style="fill-opacity: 0; stroke: #d32f2f; stroke-linejoin: miter"/>
    </g>
   </g>
   <g id="line2d_20">
    <path d="M 52.634483 71.633766 
" clip-path="url(#pa6c9ebeb63)" style="fill: none"/>
    <g clip-path="url(#pa6c9ebeb63)">
     <use xlink:href="#ma0930f3077" x="52.634483" y="71.633766" style="fill: #d32f2f"/>
    </g>
    <g clip-path="url(#pa6c9ebeb63)">
     <use xlink:href="#m172e7f48a7" x="52.634483" y="71.633766" style="fill: #ffffff"/>
    </g>
   </g>
   <g id="line2d_21">
    <path d="M 52.634483 71.633766 
" clip-path="url(#pa6c9ebeb63)" style="fill: none"/>
    <g clip-path="url(#pa6c9ebeb63)">
     <use xlink:href="#m4aa55dbb0d" x="52.634483" y="71.633766" style="fill-opacity: 0; stroke: #d32f2f; stroke-linejoin: miter"/>
    </g>
   </g>
   <g id="line2d_22">
    <path d="M 82.236605 64.88055 
" clip-path="url(#pa6c9ebeb63)" style="fill: none"/>
    <g clip-path="url(#pa6c9ebeb63)">
     <use xlink:href="#ma0930f3077" x="82.236605" y="64.88055" style="fill: #d32f2f"/>
    </g>
    <g clip-path="url(#pa6c9ebeb63)">
     <use xlink:href="#m172e7f48a7" x="82.236605" y="64.88055" style="fill: #ffffff"/>
    </g>
   </g>
   <g id="line2d_23">
    <path d="M 82.236605 64.88055 
" clip-path="url(#pa6c9ebeb63)" style="fill: none"/>
    <g clip-path="url(#pa6c9ebeb63)">
     <use xlink:href="#m4aa55dbb0d" x="82.236605" y="64.88055" style="fill-opacity: 0; stroke: #d32f2f; stroke-linejoin: miter"/>
    </g>
   </g>
   <g id="line2d_24">
    <path d="M 23.032361 71.244072 
" clip-path="url(#pa6c9ebeb63)" style="fill: none"/>
    <g clip-path="url(#pa6c9ebeb63)">
     <use xlink:href="#m70aec44e95" x="23.032361" y="71.244072" style="fill: #1976d2"/>
    </g>
    <g clip-path="url(#pa6c9ebeb63)">
     <use xlink:href="#mf472d66cbe" x="23.032361" y="71.244072" style="fill: #ffffff"/>
    </g>
   </g>
   <g id="line2d_25">
    <path d="M 23.032361 71.244072 
" clip-path="url(#pa6c9ebeb63)" style="fill: none"/>
    <g clip-path="url(#pa6c9ebeb63)">
     <use xlink:href="#m823496dc68" x="23.032361" y="71.244072" style="fill-opacity: 0; stroke: #1976d2; stroke-linejoin: miter"/>
    </g>
   </g>
   <g id="line2d_26">
    <path d="M 28.952785 69.606867 
" clip-path="url(#pa6c9ebeb63)" style="fill: none"/>
    <g clip-path="url(#pa6c9ebeb63)">
     <use xlink:href="#m70aec44e95" x="28.952785" y="69.606867" style="fill: #1976d2"/>
    </g>
    <g clip-path="url(#pa6c9ebeb63)">
     <use xlink:href="#mf472d66cbe" x="28.952785" y="69.606867" style="fill: #ffffff"/>
    </g>
   </g>
   <g id="line2d_27">
    <path d="M 28.952785 69.606867 
" clip-path="url(#pa6c9ebeb63)" style="fill: none"/>
    <g clip-path="url(#pa6c9ebeb63)">
     <use xlink:href="#m823496dc68" x="28.952785" y="69.606867" style="fill-opacity: 0; stroke: #1976d2; stroke-linejoin: miter"/>
    </g>
   </g>
   <g id="line2d_28">
    <path d="M 23.032361 43.045158 
" clip-path="url(#pa6c9ebeb63)" style="fill: none"/>
    <g clip-path="url(#pa6c9ebeb63)">
     <use xlink:href="#ma0930f3077" x="23.032361" y="43.045158" style="fill: #d32f2f"/>
    </g>
    <g clip-path="url(#pa6c9ebeb63)">
     <use xlink:href="#m172e7f48a7" x="23.032361" y="43.045158" style="fill: #ffffff"/>
    </g>
   </g>
   <g id="line2d_29">
    <path d="M 23.032361 43.045158 
" clip-path="url(#pa6c9ebeb63)" style="fill: none"/>
    <g clip-path="url(#pa6c9ebeb63)">
     <use xlink:href="#m4aa55dbb0d" x="23.032361" y="43.045158" style="fill-opacity: 0; stroke: #d32f2f; stroke-linejoin: miter"/>
    </g>
   </g>
   <g id="line2d_30">
    <path d="M 64.475332 67.616916 
" clip-path="url(#pa6c9ebeb63)" style="fill: none"/>
    <g clip-path="url(#pa6c9ebeb63)">
     <use xlink:href="#ma0930f3077" x="64.475332" y="67.616916" style="fill: #d32f2f"/>
    </g>
    <g clip-path="url(#pa6c9ebeb63)">
     <use xlink:href="#m172e7f48a7" x="64.475332" y="67.616916" style="fill: #ffffff"/>
    </g>
   </g>
   <g id="line2d_31">
    <path d="M 64.475332 67.616916 
" clip-path="url(#pa6c9ebeb63)" style="fill: none"/>
    <g clip-path="url(#pa6c9ebeb63)">
     <use xlink:href="#m4aa55dbb0d" x="64.475332" y="67.616916" style="fill-opacity: 0; stroke: #d32f2f; stroke-linejoin: miter"/>
    </g>
   </g>
   <g id="line2d_32">
    <path d="M 70.395756 81.190275 
" clip-path="url(#pa6c9ebeb63)" style="fill: none"/>
    <g clip-path="url(#pa6c9ebeb63)">
     <use xlink:href="#ma0930f3077" x="70.395756" y="81.190275" style="fill: #d32f2f"/>
    </g>
    <g clip-path="url(#pa6c9ebeb63)">
     <use xlink:href="#m172e7f48a7" x="70.395756" y="81.190275" style="fill: #ffffff"/>
    </g>
   </g>
   <g id="line2d_33">
    <path d="M 70.395756 81.190275 
" clip-path="url(#pa6c9ebeb63)" style="fill: none"/>
    <g clip-path="url(#pa6c9ebeb63)">
     <use xlink:href="#m4aa55dbb0d" x="70.395756" y="81.190275" style="fill-opacity: 0; stroke: #d32f2f; stroke-linejoin: miter"/>
    </g>
   </g>
   <g id="line2d_34">
    <path d="M 28.952785 76.937272 
" clip-path="url(#pa6c9ebeb63)" style="fill: none"/>
    <g clip-path="url(#pa6c9ebeb63)">
     <use xlink:href="#m70aec44e95" x="28.952785" y="76.937272" style="fill: #1976d2"/>
    </g>
    <g clip-path="url(#pa6c9ebeb63)">
     <use xlink:href="#mf472d66cbe" x="28.952785" y="76.937272" style="fill: #ffffff"/>
    </g>
   </g>
   <g id="line2d_35">
    <path d="M 28.952785 76.937272 
" clip-path="url(#pa6c9ebeb63)" style="fill: none"/>
    <g clip-path="url(#pa6c9ebeb63)">
     <use xlink:href="#m823496dc68" x="28.952785" y="76.937272" style="fill-opacity: 0; stroke: #1976d2; stroke-linejoin: miter"/>
    </g>
   </g>
   <g id="line2d_36">
    <path d="M 34.87321 59.966882 
" clip-path="url(#pa6c9ebeb63)" style="fill: none"/>
    <g clip-path="url(#pa6c9ebeb63)">
     <use xlink:href="#m70aec44e95" x="34.87321" y="59.966882" style="fill: #1976d2"/>
    </g>
    <g clip-path="url(#pa6c9ebeb63)">
     <use xlink:href="#mf472d66cbe" x="34.87321" y="59.966882" style="fill: #ffffff"/>
    </g>
   </g>
   <g id="line2d_37">
    <path d="M 34.87321 59.966882 
" clip-path="url(#pa6c9ebeb63)" style="fill: none"/>
    <g clip-path="url(#pa6c9ebeb63)">
     <use xlink:href="#m823496dc68" x="34.87321" y="59.966882" style="fill-opacity: 0; stroke: #1976d2; stroke-linejoin: miter"/>
    </g>
   </g>
   <g id="line2d_38">
    <path d="M 40.793634 71.951066 
" clip-path="url(#pa6c9ebeb63)" style="fill: none"/>
    <g clip-path="url(#pa6c9ebeb63)">
     <use xlink:href="#m70aec44e95" x="40.793634" y="71.951066" style="fill: #1976d2"/>
    </g>
    <g clip-path="url(#pa6c9ebeb63)">
     <use xlink:href="#mf472d66cbe" x="40.793634" y="71.951066" style="fill: #ffffff"/>
    </g>
   </g>
   <g id="line2d_39">
    <path d="M 40.793634 71.951066 
" clip-path="url(#pa6c9ebeb63)" style="fill: none"/>
    <g clip-path="url(#pa6c9ebeb63)">
     <use xlink:href="#m823496dc68" x="40.793634" y="71.951066" style="fill-opacity: 0; stroke: #1976d2; stroke-linejoin: miter"/>
    </g>
   </g>
   <g id="line2d_40">
    <path d="M 23.032361 41.750749 
" clip-path="url(#pa6c9ebeb63)" style="fill: none"/>
    <g clip-path="url(#pa6c9ebeb63)">
     <use xlink:href="#ma0930f3077" x="23.032361" y="41.750749" style="fill: #d32f2f"/>
    </g>
    <g clip-path="url(#pa6c9ebeb63)">
     <use xlink:href="#m172e7f48a7" x="23.032361" y="41.750749" style="fill: #ffffff"/>
    </g>
   </g>
   <g id="line2d_41">
    <path d="M 23.032361 41.750749 
" clip-path="url(#pa6c9ebeb63)" style="fill: none"/>
    <g clip-path="url(#pa6c9ebeb63)">
     <use xlink:href="#m4aa55dbb0d" x="23.032361" y="41.750749" style="fill-opacity: 0; stroke: #d32f2f; stroke-linejoin: miter"/>
    </g>
   </g>
   <g id="line2d_42">
    <path d="M 40.793634 49.375923 
" clip-path="url(#pa6c9ebeb63)" style="fill: none"/>
    <g clip-path="url(#pa6c9ebeb63)">
     <use xlink:href="#ma0930f3077" x="40.793634" y="49.375923" style="fill: #d32f2f"/>
    </g>
    <g clip-path="url(#pa6c9ebeb63)">
     <use xlink:href="#m172e7f48a7" x="40.793634" y="49.375923" style="fill: #ffffff"/>
    </g>
   </g>
   <g id="line2d_43">
    <path d="M 40.793634 49.375923 
" clip-path="url(#pa6c9ebeb63)" style="fill: none"/>
    <g clip-path="url(#pa6c9ebeb63)">
     <use xlink:href="#m4aa55dbb0d" x="40.793634" y="49.375923" style="fill-opacity: 0; stroke: #d32f2f; stroke-linejoin: miter"/>
    </g>
   </g>
   <g id="line2d_44">
    <path d="M 82.236605 95.427521 
" clip-path="url(#pa6c9ebeb63)" style="fill: none"/>
    <g clip-path="url(#pa6c9ebeb63)">
     <use xlink:href="#ma0930f3077" x="82.236605" y="95.427521" style="fill: #d32f2f"/>
    </g>
    <g clip-path="url(#pa6c9ebeb63)">
     <use xlink:href="#m172e7f48a7" x="82.236605" y="95.427521" style="fill: #ffffff"/>
    </g>
   </g>
   <g id="line2d_45">
    <path d="M 82.236605 95.427521 
" clip-path="url(#pa6c9ebeb63)" style="fill: none"/>
    <g clip-path="url(#pa6c9ebeb63)">
     <use xlink:href="#m4aa55dbb0d" x="82.236605" y="95.427521" style="fill-opacity: 0; stroke: #d32f2f; stroke-linejoin: miter"/>
    </g>
   </g>
   <g id="line2d_46">
    <path d="M 34.87321 56.265604 
" clip-path="url(#pa6c9ebeb63)" style="fill: none"/>
    <g clip-path="url(#pa6c9ebeb63)">
     <use xlink:href="#ma0930f3077" x="34.87321" y="56.265604" style="fill: #d32f2f"/>
    </g>
    <g clip-path="url(#pa6c9ebeb63)">
     <use xlink:href="#m172e7f48a7" x="34.87321" y="56.265604" style="fill: #ffffff"/>
    </g>
   </g>
   <g id="line2d_47">
    <path d="M 34.87321 56.265604 
" clip-path="url(#pa6c9ebeb63)" style="fill: none"/>
    <g clip-path="url(#pa6c9ebeb63)">
     <use xlink:href="#m4aa55dbb0d" x="34.87321" y="56.265604" style="fill-opacity: 0; stroke: #d32f2f; stroke-linejoin: miter"/>
    </g>
   </g>
   <g id="line2d_48">
    <path d="M 82.236605 71.210574 
" clip-path="url(#pa6c9ebeb63)" style="fill: none"/>
    <g clip-path="url(#pa6c9ebeb63)">
     <use xlink:href="#ma0930f3077" x="82.236605" y="71.210574" style="fill: #d32f2f"/>
    </g>
    <g clip-path="url(#pa6c9ebeb63)">
     <use xlink:href="#m172e7f48a7" x="82.236605" y="71.210574" style="fill: #ffffff"/>
    </g>
   </g>
   <g id="line2d_49">
    <path d="M 82.236605 71.210574 
" clip-path="url(#pa6c9ebeb63)" style="fill: none"/>
    <g clip-path="url(#pa6c9ebeb63)">
     <use xlink:href="#m4aa55dbb0d" x="82.236605" y="71.210574" style="fill-opacity: 0; stroke: #d32f2f; stroke-linejoin: miter"/>
    </g>
   </g>
   <g id="line2d_50">
    <path d="M 88.157029 70.3915 
" clip-path="url(#pa6c9ebeb63)" style="fill: none"/>
    <g clip-path="url(#pa6c9ebeb63)">
     <use xlink:href="#ma0930f3077" x="88.157029" y="70.3915" style="fill: #d32f2f"/>
    </g>
    <g clip-path="url(#pa6c9ebeb63)">
     <use xlink:href="#m172e7f48a7" x="88.157029" y="70.3915" style="fill: #ffffff"/>
    </g>
   </g>
   <g id="line2d_51">
    <path d="M 88.157029 70.3915 
" clip-path="url(#pa6c9ebeb63)" style="fill: none"/>
    <g clip-path="url(#pa6c9ebeb63)">
     <use xlink:href="#m4aa55dbb0d" x="88.157029" y="70.3915" style="fill-opacity: 0; stroke: #d32f2f; stroke-linejoin: miter"/>
    </g>
   </g>
   <g id="line2d_52">
    <path d="M 52.634483 58.925233 
" clip-path="url(#pa6c9ebeb63)" style="fill: none"/>
    <g clip-path="url(#pa6c9ebeb63)">
     <use xlink:href="#ma0930f3077" x="52.634483" y="58.925233" style="fill: #d32f2f"/>
    </g>
    <g clip-path="url(#pa6c9ebeb63)">
     <use xlink:href="#m172e7f48a7" x="52.634483" y="58.925233" style="fill: #ffffff"/>
    </g>
   </g>
   <g id="line2d_53">
    <path d="M 52.634483 58.925233 
" clip-path="url(#pa6c9ebeb63)" style="fill: none"/>
    <g clip-path="url(#pa6c9ebeb63)">
     <use xlink:href="#m4aa55dbb0d" x="52.634483" y="58.925233" style="fill-opacity: 0; stroke: #d32f2f; stroke-linejoin: miter"/>
    </g>
   </g>
   <g id="line2d_54">
    <path d="M 99.997878 65.845214 
" clip-path="url(#pa6c9ebeb63)" style="fill: none"/>
    <g clip-path="url(#pa6c9ebeb63)">
     <use xlink:href="#ma0930f3077" x="99.997878" y="65.845214" style="fill: #d32f2f"/>
    </g>
    <g clip-path="url(#pa6c9ebeb63)">
     <use xlink:href="#m172e7f48a7" x="99.997878" y="65.845214" style="fill: #ffffff"/>
    </g>
   </g>
   <g id="line2d_55">
    <path d="M 99.997878 65.845214 
" clip-path="url(#pa6c9ebeb63)" style="fill: none"/>
    <g clip-path="url(#pa6c9ebeb63)">
     <use xlink:href="#m4aa55dbb0d" x="99.997878" y="65.845214" style="fill-opacity: 0; stroke: #d32f2f; stroke-linejoin: miter"/>
    </g>
   </g>
   <g id="line2d_56">
    <path d="M 111.838727 93.427885 
" clip-path="url(#pa6c9ebeb63)" style="fill: none"/>
    <g clip-path="url(#pa6c9ebeb63)">
     <use xlink:href="#ma0930f3077" x="111.838727" y="93.427885" style="fill: #d32f2f"/>
    </g>
    <g clip-path="url(#pa6c9ebeb63)">
     <use xlink:href="#m172e7f48a7" x="111.838727" y="93.427885" style="fill: #ffffff"/>
    </g>
   </g>
   <g id="line2d_57">
    <path d="M 111.838727 93.427885 
" clip-path="url(#pa6c9ebeb63)" style="fill: none"/>
    <g clip-path="url(#pa6c9ebeb63)">
     <use xlink:href="#m4aa55dbb0d" x="111.838727" y="93.427885" style="fill-opacity: 0; stroke: #d32f2f; stroke-linejoin: miter"/>
    </g>
   </g>
   <g id="line2d_58">
    <path d="M 46.714058 38.226341 
" clip-path="url(#pa6c9ebeb63)" style="fill: none"/>
    <g clip-path="url(#pa6c9ebeb63)">
     <use xlink:href="#ma0930f3077" x="46.714058" y="38.226341" style="fill: #d32f2f"/>
    </g>
    <g clip-path="url(#pa6c9ebeb63)">
     <use xlink:href="#m172e7f48a7" x="46.714058" y="38.226341" style="fill: #ffffff"/>
    </g>
   </g>
   <g id="line2d_59">
    <path d="M 46.714058 38.226341 
" clip-path="url(#pa6c9ebeb63)" style="fill: none"/>
    <g clip-path="url(#pa6c9ebeb63)">
     <use xlink:href="#m4aa55dbb0d" x="46.714058" y="38.226341" style="fill-opacity: 0; stroke: #d32f2f; stroke-linejoin: miter"/>
    </g>
   </g>
   <g id="line2d_60">
    <path d="M 99.997878 55.045504 
" clip-path="url(#pa6c9ebeb63)" style="fill: none"/>
    <g clip-path="url(#pa6c9ebeb63)">
     <use xlink:href="#ma0930f3077" x="99.997878" y="55.045504" style="fill: #d32f2f"/>
    </g>
    <g clip-path="url(#pa6c9ebeb63)">
     <use xlink:href="#m172e7f48a7" x="99.997878" y="55.045504" style="fill: #ffffff"/>
    </g>
   </g>
   <g id="line2d_61">
    <path d="M 99.997878 55.045504 
" clip-path="url(#pa6c9ebeb63)" style="fill: none"/>
    <g clip-path="url(#pa6c9ebeb63)">
     <use xlink:href="#m4aa55dbb0d" x="99.997878" y="55.045504" style="fill-opacity: 0; stroke: #d32f2f; stroke-linejoin: miter"/>
    </g>
   </g>
   <g id="line2d_62">
    <path d="M 123.679576 63.105312 
" clip-path="url(#pa6c9ebeb63)" style="fill: none"/>
    <g clip-path="url(#pa6c9ebeb63)">
     <use xlink:href="#ma0930f3077" x="123.679576" y="63.105312" style="fill: #d32f2f"/>
    </g>
    <g clip-path="url(#pa6c9ebeb63)">
     <use xlink:href="#m172e7f48a7" x="123.679576" y="63.105312" style="fill: #ffffff"/>
    </g>
   </g>
   <g id="line2d_63">
    <path d="M 123.679576 63.105312 
" clip-path="url(#pa6c9ebeb63)" style="fill: none"/>
    <g clip-path="url(#pa6c9ebeb63)">
     <use xlink:href="#m4aa55dbb0d" x="123.679576" y="63.105312" style="fill-opacity: 0; stroke: #d32f2f; stroke-linejoin: miter"/>
    </g>
   </g>
   <g id="line2d_64">
    <path d="M 23.032361 73.610131 
" clip-path="url(#pa6c9ebeb63)" style="fill: none"/>
    <g clip-path="url(#pa6c9ebeb63)">
     <use xlink:href="#m70aec44e95" x="23.032361" y="73.610131" style="fill: #1976d2"/>
    </g>
    <g clip-path="url(#pa6c9ebeb63)">
     <use xlink:href="#mf472d66cbe" x="23.032361" y="73.610131" style="fill: #ffffff"/>
    </g>
   </g>
   <g id="line2d_65">
    <path d="M 23.032361 73.610131 
" clip-path="url(#pa6c9ebeb63)" style="fill: none"/>
    <g clip-path="url(#pa6c9ebeb63)">
     <use xlink:href="#m823496dc68" x="23.032361" y="73.610131" style="fill-opacity: 0; stroke: #1976d2; stroke-linejoin: miter"/>
    </g>
   </g>
   <g id="line2d_66">
    <path d="M 28.952785 86.574256 
" clip-path="url(#pa6c9ebeb63)" style="fill: none"/>
    <g clip-path="url(#pa6c9ebeb63)">
     <use xlink:href="#m70aec44e95" x="28.952785" y="86.574256" style="fill: #1976d2"/>
    </g>
    <g clip-path="url(#pa6c9ebeb63)">
     <use xlink:href="#mf472d66cbe" x="28.952785" y="86.574256" style="fill: #ffffff"/>
    </g>
   </g>
   <g id="line2d_67">
    <path d="M 28.952785 86.574256 
" clip-path="url(#pa6c9ebeb63)" style="fill: none"/>
    <g clip-path="url(#pa6c9ebeb63)">
     <use xlink:href="#m823496dc68" x="28.952785" y="86.574256" style="fill-opacity: 0; stroke: #1976d2; stroke-linejoin: miter"/>
    </g>
   </g>
   <g id="line2d_68">
    <path d="M 34.87321 73.220211 
" clip-path="url(#pa6c9ebeb63)" style="fill: none"/>
    <g clip-path="url(#pa6c9ebeb63)">
     <use xlink:href="#m70aec44e95" x="34.87321" y="73.220211" style="fill: #1976d2"/>
    </g>
    <g clip-path="url(#pa6c9ebeb63)">
     <use xlink:href="#mf472d66cbe" x="34.87321" y="73.220211" style="fill: #ffffff"/>
    </g>
   </g>
   <g id="line2d_69">
    <path d="M 34.87321 73.220211 
" clip-path="url(#pa6c9ebeb63)" style="fill: none"/>
    <g clip-path="url(#pa6c9ebeb63)">
     <use xlink:href="#m823496dc68" x="34.87321" y="73.220211" style="fill-opacity: 0; stroke: #1976d2; stroke-linejoin: miter"/>
    </g>
   </g>
   <g id="line2d_70">
    <path d="M 23.032361 88.198034 
" clip-path="url(#pa6c9ebeb63)" style="fill: none"/>
    <g clip-path="url(#pa6c9ebeb63)">
     <use xlink:href="#m70aec44e95" x="23.032361" y="88.198034" style="fill: #1976d2"/>
    </g>
    <g clip-path="url(#pa6c9ebeb63)">
     <use xlink:href="#mf472d66cbe" x="23.032361" y="88.198034" style="fill: #ffffff"/>
    </g>
   </g>
   <g id="line2d_71">
    <path d="M 23.032361 88.198034 
" clip-path="url(#pa6c9ebeb63)" style="fill: none"/>
    <g clip-path="url(#pa6c9ebeb63)">
     <use xlink:href="#m823496dc68" x="23.032361" y="88.198034" style="fill-opacity: 0; stroke: #1976d2; stroke-linejoin: miter"/>
    </g>
   </g>
   <g id="line2d_72">
    <path d="M 34.87321 79.037938 
" clip-path="url(#pa6c9ebeb63)" style="fill: none"/>
    <g clip-path="url(#pa6c9ebeb63)">
     <use xlink:href="#m70aec44e95" x="34.87321" y="79.037938" style="fill: #1976d2"/>
    </g>
    <g clip-path="url(#pa6c9ebeb63)">
     <use xlink:href="#mf472d66cbe" x="34.87321" y="79.037938" style="fill: #ffffff"/>
    </g>
   </g>
   <g id="line2d_73">
    <path d="M 34.87321 79.037938 
" clip-path="url(#pa6c9ebeb63)" style="fill: none"/>
    <g clip-path="url(#pa6c9ebeb63)">
     <use xlink:href="#m823496dc68" x="34.87321" y="79.037938" style="fill-opacity: 0; stroke: #1976d2; stroke-linejoin: miter"/>
    </g>
   </g>
   <g id="line2d_74">
    <path d="M 64.475332 88.738759 
" clip-path="url(#pa6c9ebeb63)" style="fill: none"/>
    <g clip-path="url(#pa6c9ebeb63)">
     <use xlink:href="#m70aec44e95" x="64.475332" y="88.738759" style="fill: #1976d2"/>
    </g>
    <g clip-path="url(#pa6c9ebeb63)">
     <use xlink:href="#mf472d66cbe" x="64.475332" y="88.738759" style="fill: #ffffff"/>
    </g>
   </g>
   <g id="line2d_75">
    <path d="M 64.475332 88.738759 
" clip-path="url(#pa6c9ebeb63)" style="fill: none"/>
    <g clip-path="url(#pa6c9ebeb63)">
     <use xlink:href="#m823496dc68" x="64.475332" y="88.738759" style="fill-opacity: 0; stroke: #1976d2; stroke-linejoin: miter"/>
    </g>
   </g>
   <g id="line2d_76">
    <path clip-path="url(#pa6c9ebeb63)" style="fill: none"/>
    <g clip-path="url(#pa6c9ebeb63)"/>
    <g clip-path="url(#pa6c9ebeb63)"/>
   </g>
   <g id="line2d_77">
    <path clip-path="url(#pa6c9ebeb63)" style="fill: none"/>
    <g clip-path="url(#pa6c9ebeb63)"/>
   </g>
   <g id="line2d_78">
    <path d="M 40.793634 95.60256 
" clip-path="url(#pa6c9ebeb63)" style="fill: none"/>
    <g clip-path="url(#pa6c9ebeb63)">
     <use xlink:href="#m70aec44e95" x="40.793634" y="95.60256" style="fill: #1976d2"/>
    </g>
    <g clip-path="url(#pa6c9ebeb63)">
     <use xlink:href="#mf472d66cbe" x="40.793634" y="95.60256" style="fill: #ffffff"/>
    </g>
   </g>
   <g id="line2d_79">
    <path d="M 40.793634 95.60256 
" clip-path="url(#pa6c9ebeb63)" style="fill: none"/>
    <g clip-path="url(#pa6c9ebeb63)">
     <use xlink:href="#m823496dc68" x="40.793634" y="95.60256" style="fill-opacity: 0; stroke: #1976d2; stroke-linejoin: miter"/>
    </g>
   </g>
   <g id="line2d_80">
    <path d="M 58.554907 69.310127 
" clip-path="url(#pa6c9ebeb63)" style="fill: none"/>
    <g clip-path="url(#pa6c9ebeb63)">
     <use xlink:href="#m70aec44e95" x="58.554907" y="69.310127" style="fill: #1976d2"/>
    </g>
    <g clip-path="url(#pa6c9ebeb63)">
     <use xlink:href="#mf472d66cbe" x="58.554907" y="69.310127" style="fill: #ffffff"/>
    </g>
   </g>
   <g id="line2d_81">
    <path d="M 58.554907 69.310127 
" clip-path="url(#pa6c9ebeb63)" style="fill: none"/>
    <g clip-path="url(#pa6c9ebeb63)">
     <use xlink:href="#m823496dc68" x="58.554907" y="69.310127" style="fill-opacity: 0; stroke: #1976d2; stroke-linejoin: miter"/>
    </g>
   </g>
   <g id="line2d_82">
    <path clip-path="url(#pa6c9ebeb63)" style="fill: none"/>
    <g clip-path="url(#pa6c9ebeb63)"/>
    <g clip-path="url(#pa6c9ebeb63)"/>
   </g>
   <g id="line2d_83">
    <path clip-path="url(#pa6c9ebeb63)" style="fill: none"/>
    <g clip-path="url(#pa6c9ebeb63)"/>
   </g>
   <g id="line2d_84">
    <path d="M 28.952785 80.198291 
" clip-path="url(#pa6c9ebeb63)" style="fill: none"/>
    <g clip-path="url(#pa6c9ebeb63)">
     <use xlink:href="#m70aec44e95" x="28.952785" y="80.198291" style="fill: #1976d2"/>
    </g>
    <g clip-path="url(#pa6c9ebeb63)">
     <use xlink:href="#mf472d66cbe" x="28.952785" y="80.198291" style="fill: #ffffff"/>
    </g>
   </g>
   <g id="line2d_85">
    <path d="M 28.952785 80.198291 
" clip-path="url(#pa6c9ebeb63)" style="fill: none"/>
    <g clip-path="url(#pa6c9ebeb63)">
     <use xlink:href="#m823496dc68" x="28.952785" y="80.198291" style="fill-opacity: 0; stroke: #1976d2; stroke-linejoin: miter"/>
    </g>
   </g>
   <g id="line2d_86">
    <path d="M 40.793634 67.746488 
" clip-path="url(#pa6c9ebeb63)" style="fill: none"/>
    <g clip-path="url(#pa6c9ebeb63)">
     <use xlink:href="#m70aec44e95" x="40.793634" y="67.746488" style="fill: #1976d2"/>
    </g>
    <g clip-path="url(#pa6c9ebeb63)">
     <use xlink:href="#mf472d66cbe" x="40.793634" y="67.746488" style="fill: #ffffff"/>
    </g>
   </g>
   <g id="line2d_87">
    <path d="M 40.793634 67.746488 
" clip-path="url(#pa6c9ebeb63)" style="fill: none"/>
    <g clip-path="url(#pa6c9ebeb63)">
     <use xlink:href="#m823496dc68" x="40.793634" y="67.746488" style="fill-opacity: 0; stroke: #1976d2; stroke-linejoin: miter"/>
    </g>
   </g>
   <g id="patch_3">
    <path d="M 18 128.16 
L 18 17.28 
" style="fill: none; stroke: #000000; stroke-width: 0.8; stroke-linejoin: miter; stroke-linecap: square"/>
   </g>
   <g id="patch_4">
    <path d="M 18 72.72 
L 129.6 72.72 
" style="fill: none; stroke: #000000; stroke-width: 0.8; stroke-linejoin: miter; stroke-linecap: square"/>
   </g>
   <g id="text_4">
    <!-- TAPBP -0.53 -->
    <g transform="translate(37.712812 11.28) scale(0.12 -0.12)">
     <defs>
      <path id="DejaVuSans-54" d="M -19 4666 
L 3928 4666 
L 3928 4134 
L 2272 4134 
L 2272 0 
L 1638 0 
L 1638 4134 
L -19 4134 
L -19 4666 
z
" transform="scale(0.015625)"/>
      <path id="DejaVuSans-41" d="M 2188 4044 
L 1331 1722 
L 3047 1722 
L 2188 4044 
z
M 1831 4666 
L 2547 4666 
L 4325 0 
L 3669 0 
L 3244 1197 
L 1141 1197 
L 716 0 
L 50 0 
L 1831 4666 
z
" transform="scale(0.015625)"/>
      <path id="DejaVuSans-50" d="M 1259 4147 
L 1259 2394 
L 2053 2394 
Q 2494 2394 2734 2622 
Q 2975 2850 2975 3272 
Q 2975 3691 2734 3919 
Q 2494 4147 2053 4147 
L 1259 4147 
z
M 628 4666 
L 2053 4666 
Q 2838 4666 3239 4311 
Q 3641 3956 3641 3272 
Q 3641 2581 3239 2228 
Q 2838 1875 2053 1875 
L 1259 1875 
L 1259 0 
L 628 0 
L 628 4666 
z
" transform="scale(0.015625)"/>
      <path id="DejaVuSans-42" d="M 1259 2228 
L 1259 519 
L 2272 519 
Q 2781 519 3026 730 
Q 3272 941 3272 1375 
Q 3272 1813 3026 2020 
Q 2781 2228 2272 2228 
L 1259 2228 
z
M 1259 4147 
L 1259 2741 
L 2194 2741 
Q 2656 2741 2882 2914 
Q 3109 3088 3109 3444 
Q 3109 3797 2882 3972 
Q 2656 4147 2194 4147 
L 1259 4147 
z
M 628 4666 
L 2241 4666 
Q 2963 4666 3353 4366 
Q 3744 4066 3744 3513 
Q 3744 3084 3544 2831 
Q 3344 2578 2956 2516 
Q 3422 2416 3680 2098 
Q 3938 1781 3938 1306 
Q 3938 681 3513 340 
Q 3088 0 2303 0 
L 628 0 
L 628 4666 
z
" transform="scale(0.015625)"/>
      <path id="DejaVuSans-20" transform="scale(0.015625)"/>
      <path id="DejaVuSans-2d" d="M 313 2009 
L 1997 2009 
L 1997 1497 
L 313 1497 
L 313 2009 
z
" transform="scale(0.015625)"/>
      <path id="DejaVuSans-2e" d="M 684 794 
L 1344 794 
L 1344 0 
L 684 0 
L 684 794 
z
" transform="scale(0.015625)"/>
      <path id="DejaVuSans-35" d="M 691 4666 
L 3169 4666 
L 3169 4134 
L 1269 4134 
L 1269 2991 
Q 1406 3038 1543 3061 
Q 1681 3084 1819 3084 
Q 2600 3084 3056 2656 
Q 3513 2228 3513 1497 
Q 3513 744 3044 326 
Q 2575 -91 1722 -91 
Q 1428 -91 1123 -41 
Q 819 9 494 109 
L 494 744 
Q 775 591 1075 516 
Q 1375 441 1709 441 
Q 2250 441 2565 725 
Q 2881 1009 2881 1497 
Q 2881 1984 2565 2268 
Q 2250 2553 1709 2553 
Q 1456 2553 1204 2497 
Q 953 2441 691 2322 
L 691 4666 
z
" transform="scale(0.015625)"/>
      <path id="DejaVuSans-33" d="M 2597 2516 
Q 3050 2419 3304 2112 
Q 3559 1806 3559 1356 
Q 3559 666 3084 287 
Q 2609 -91 1734 -91 
Q 1441 -91 1130 -33 
Q 819 25 488 141 
L 488 750 
Q 750 597 1062 519 
Q 1375 441 1716 441 
Q 2309 441 2620 675 
Q 2931 909 2931 1356 
Q 2931 1769 2642 2001 
Q 2353 2234 1838 2234 
L 1294 2234 
L 1294 2753 
L 1863 2753 
Q 2328 2753 2575 2939 
Q 2822 3125 2822 3475 
Q 2822 3834 2567 4026 
Q 2313 4219 1838 4219 
Q 1578 4219 1281 4162 
Q 984 4106 628 3988 
L 628 4550 
Q 988 4650 1302 4700 
Q 1616 4750 1894 4750 
Q 2613 4750 3031 4423 
Q 3450 4097 3450 3541 
Q 3450 3153 3228 2886 
Q 3006 2619 2597 2516 
z
" transform="scale(0.015625)"/>
     </defs>
     <use xlink:href="#DejaVuSans-54"/>
     <use xlink:href="#DejaVuSans-41" transform="translate(53.333984 0)"/>
     <use xlink:href="#DejaVuSans-50" transform="translate(121.742188 0)"/>
     <use xlink:href="#DejaVuSans-42" transform="translate(182.044922 0)"/>
     <use xlink:href="#DejaVuSans-50" transform="translate(250.648438 0)"/>
     <use xlink:href="#DejaVuSans-20" transform="translate(310.951172 0)"/>
     <use xlink:href="#DejaVuSans-2d" transform="translate(342.738281 0)"/>
     <use xlink:href="#DejaVuSans-30" transform="translate(378.822266 0)"/>
     <use xlink:href="#DejaVuSans-2e" transform="translate(442.445312 0)"/>
     <use xlink:href="#DejaVuSans-35" transform="translate(474.232422 0)"/>
     <use xlink:href="#DejaVuSans-33" transform="translate(537.855469 0)"/>
    </g>
   </g>
  </g>
 </g>
 <defs>
  <clipPath id="pa6c9ebeb63">
   <rect x="18" y="17.28" width="111.6" height="110.88"/>
  </clipPath>
 </defs>
</svg>
