<?xml version="1.0" encoding="utf-8" standalone="no"?>
<!DOCTYPE svg PUBLIC "-//W3C//DTD SVG 1.1//EN"
  "http://www.w3.org/Graphics/SVG/1.1/DTD/svg11.dtd">
<svg xmlns:xlink="http://www.w3.org/1999/xlink" width="432pt" height="144pt" viewBox="0 0 432 144" xmlns="http://www.w3.org/2000/svg" version="1.1">
 <metadata>
  <rdf:RDF xmlns:dc="http://purl.org/dc/elements/1.1/" xmlns:cc="http://creativecommons.org/ns#" xmlns:rdf="http://www.w3.org/1999/02/22-rdf-syntax-ns#">
   <cc:Work>
    <dc:type rdf:resource="http://purl.org/dc/dcmitype/StillImage"/>
    <dc:date>2025-09-29T12:04:42.150253</dc:date>
    <dc:format>image/svg+xml</dc:format>
    <dc:creator>
     <cc:Agent>
      <dc:title>Matplotlib v3.10.6, https://matplotlib.org/</dc:title>
     </cc:Agent>
    </dc:creator>
   </cc:Work>
  </rdf:RDF>
 </metadata>
 <defs>
  <style type="text/css">*{stroke-linejoin: round; stroke-linecap: butt}</style>
 </defs>
 <g id="figure_1">
  <g id="patch_1">
   <path d="M 0 144 
L 432 144 
L 432 0 
L 0 0 
z
" style="fill: #ffffff"/>
  </g>
  <g id="axes_1">
   <g id="patch_2">
    <path d="M 54 128.16 
L 388.8 128.16 
L 388.8 17.28 
L 54 17.28 
z
" style="fill: #ffffff"/>
   </g>
   <g id="FillBetweenPolyCollection_1">
    <defs>
     <path id="m413f818c2b" d="M 80.291354 -15.84043 
L 80.291354 -15.84 
L 81.769736 -15.84 
L 83.248118 -15.84 
L 84.726501 -15.84 
L 86.204883 -15.84 
L 87.683266 -15.84 
L 89.161648 -15.84 
L 90.64003 -15.84 
L 92.118413 -15.84 
L 93.596795 -15.84 
L 95.075178 -15.84 
L 96.55356 -15.84 
L 98.031942 -15.84 
L 99.510325 -15.84 
L 100.988707 -15.84 
L 102.46709 -15.84 
L 103.945472 -15.84 
L 105.423854 -15.84 
L 106.902237 -15.84 
L 108.380619 -15.84 
L 109.859001 -15.84 
L 111.337384 -15.84 
L 112.815766 -15.84 
L 114.294149 -15.84 
L 115.772531 -15.84 
L 117.250913 -15.84 
L 118.729296 -15.84 
L 120.207678 -15.84 
L 121.686061 -15.84 
L 123.164443 -15.84 
L 124.642825 -15.84 
L 126.121208 -15.84 
L 127.59959 -15.84 
L 129.077973 -15.84 
L 130.556355 -15.84 
L 132.034737 -15.84 
L 133.51312 -15.84 
L 134.991502 -15.84 
L 136.469885 -15.84 
L 137.948267 -15.84 
L 139.426649 -15.84 
L 140.905032 -15.84 
L 142.383414 -15.84 
L 143.861797 -15.84 
L 145.340179 -15.84 
L 146.818561 -15.84 
L 148.296944 -15.84 
L 149.775326 -15.84 
L 151.253709 -15.84 
L 152.732091 -15.84 
L 154.210473 -15.84 
L 155.688856 -15.84 
L 157.167238 -15.84 
L 158.645621 -15.84 
L 160.124003 -15.84 
L 161.602385 -15.84 
L 163.080768 -15.84 
L 164.55915 -15.84 
L 166.037533 -15.84 
L 167.515915 -15.84 
L 168.994297 -15.84 
L 170.47268 -15.84 
L 171.951062 -15.84 
L 173.429445 -15.84 
L 174.907827 -15.84 
L 176.386209 -15.84 
L 177.864592 -15.84 
L 179.342974 -15.84 
L 180.821357 -15.84 
L 182.299739 -15.84 
L 183.778121 -15.84 
L 185.256504 -15.84 
L 186.734886 -15.84 
L 188.213269 -15.84 
L 189.691651 -15.84 
L 191.170033 -15.84 
L 192.648416 -15.84 
L 194.126798 -15.84 
L 195.605181 -15.84 
L 197.083563 -15.84 
L 198.561945 -15.84 
L 200.040328 -15.84 
L 201.51871 -15.84 
L 202.997092 -15.84 
L 204.475475 -15.84 
L 205.953857 -15.84 
L 207.43224 -15.84 
L 208.910622 -15.84 
L 210.389004 -15.84 
L 211.867387 -15.84 
L 213.345769 -15.84 
L 214.824152 -15.84 
L 216.302534 -15.84 
L 217.780916 -15.84 
L 219.259299 -15.84 
L 220.737681 -15.84 
L 222.216064 -15.84 
L 223.694446 -15.84 
L 225.172828 -15.84 
L 226.651211 -15.84 
L 228.129593 -15.84 
L 229.607976 -15.84 
L 231.086358 -15.84 
L 232.56474 -15.84 
L 234.043123 -15.84 
L 235.521505 -15.84 
L 236.999888 -15.84 
L 238.47827 -15.84 
L 239.956652 -15.84 
L 241.435035 -15.84 
L 242.913417 -15.84 
L 244.3918 -15.84 
L 245.870182 -15.84 
L 247.348564 -15.84 
L 248.826947 -15.84 
L 250.305329 -15.84 
L 251.783712 -15.84 
L 253.262094 -15.84 
L 254.740476 -15.84 
L 256.218859 -15.84 
L 257.697241 -15.84 
L 259.175624 -15.84 
L 260.654006 -15.84 
L 262.132388 -15.84 
L 263.610771 -15.84 
L 265.089153 -15.84 
L 266.567536 -15.84 
L 268.045918 -15.84 
L 269.5243 -15.84 
L 271.002683 -15.84 
L 272.481065 -15.84 
L 273.959448 -15.84 
L 275.43783 -15.84 
L 276.916212 -15.84 
L 278.394595 -15.84 
L 279.872977 -15.84 
L 281.35136 -15.84 
L 282.829742 -15.84 
L 284.308124 -15.84 
L 285.786507 -15.84 
L 287.264889 -15.84 
L 288.743272 -15.84 
L 290.221654 -15.84 
L 291.700036 -15.84 
L 293.178419 -15.84 
L 294.656801 -15.84 
L 296.135183 -15.84 
L 297.613566 -15.84 
L 299.091948 -15.84 
L 300.570331 -15.84 
L 302.048713 -15.84 
L 303.527095 -15.84 
L 305.005478 -15.84 
L 306.48386 -15.84 
L 307.962243 -15.84 
L 309.440625 -15.84 
L 310.919007 -15.84 
L 312.39739 -15.84 
L 313.875772 -15.84 
L 315.354155 -15.84 
L 316.832537 -15.84 
L 318.310919 -15.84 
L 319.789302 -15.84 
L 321.267684 -15.84 
L 322.746067 -15.84 
L 324.224449 -15.84 
L 325.702831 -15.84 
L 327.181214 -15.84 
L 328.659596 -15.84 
L 330.137979 -15.84 
L 331.616361 -15.84 
L 333.094743 -15.84 
L 334.573126 -15.84 
L 336.051508 -15.84 
L 337.529891 -15.84 
L 339.008273 -15.84 
L 340.486655 -15.84 
L 341.965038 -15.84 
L 343.44342 -15.84 
L 344.921803 -15.84 
L 346.400185 -15.84 
L 347.878567 -15.84 
L 349.35695 -15.84 
L 350.835332 -15.84 
L 352.313715 -15.84 
L 353.792097 -15.84 
L 355.270479 -15.84 
L 356.748862 -15.84 
L 358.227244 -15.84 
L 359.705627 -15.84 
L 361.184009 -15.84 
L 362.662391 -15.84 
L 364.140774 -15.84 
L 365.619156 -15.84 
L 367.097539 -15.84 
L 368.575921 -15.84 
L 370.054303 -15.84 
L 371.532686 -15.84 
L 373.011068 -15.84 
L 374.489451 -15.84 
L 374.489451 -15.840212 
L 374.489451 -15.840212 
L 373.011068 -15.840529 
L 371.532686 -15.841194 
L 370.054303 -15.842426 
L 368.575921 -15.844443 
L 367.097539 -15.847336 
L 365.619156 -15.850937 
L 364.140774 -15.854758 
L 362.662391 -15.85812 
L 361.184009 -15.860468 
L 359.705627 -15.861739 
L 358.227244 -15.862549 
L 356.748862 -15.864062 
L 355.270479 -15.867588 
L 353.792097 -15.874167 
L 352.313715 -15.884429 
L 350.835332 -15.89886 
L 349.35695 -15.918333 
L 347.878567 -15.944561 
L 346.400185 -15.980052 
L 344.921803 -16.027353 
L 343.44342 -16.087785 
L 341.965038 -16.160409 
L 340.486655 -16.242148 
L 339.008273 -16.329504 
L 337.529891 -16.421135 
L 336.051508 -16.519617 
L 334.573126 -16.630924 
L 333.094743 -16.761824 
L 331.616361 -16.917304 
L 330.137979 -17.100429 
L 328.659596 -17.315133 
L 327.181214 -17.569574 
L 325.702831 -17.876548 
L 324.224449 -18.249546 
L 322.746067 -18.696884 
L 321.267684 -19.218598 
L 319.789302 -19.808997 
L 318.310919 -20.463153 
L 316.832537 -21.182278 
L 315.354155 -21.974054 
L 313.875772 -22.848664 
L 312.39739 -23.815042 
L 310.919007 -24.881253 
L 309.440625 -26.058533 
L 307.962243 -27.364291 
L 306.48386 -28.819039 
L 305.005478 -30.436517 
L 303.527095 -32.212844 
L 302.048713 -34.124679 
L 300.570331 -36.14339 
L 299.091948 -38.261532 
L 297.613566 -40.51645 
L 296.135183 -42.993643 
L 294.656801 -45.803558 
L 293.178419 -49.042465 
L 291.700036 -52.758967 
L 290.221654 -56.945143 
L 288.743272 -61.556025 
L 287.264889 -66.539971 
L 285.786507 -71.849405 
L 284.308124 -77.413109 
L 282.829742 -83.088868 
L 281.35136 -88.648069 
L 279.872977 -93.82915 
L 278.394595 -98.433833 
L 276.916212 -102.389583 
L 275.43783 -105.725472 
L 273.959448 -108.488844 
L 272.481065 -110.68048 
L 271.002683 -112.254095 
L 269.5243 -113.15743 
L 268.045918 -113.368606 
L 266.567536 -112.916471 
L 265.089153 -111.906642 
L 263.610771 -110.55953 
L 262.132388 -109.227468 
L 260.654006 -108.347428 
L 259.175624 -108.316927 
L 257.697241 -109.326296 
L 256.218859 -111.215681 
L 254.740476 -113.43959 
L 253.262094 -115.198922 
L 251.783712 -115.723973 
L 250.305329 -114.590404 
L 248.826947 -111.902574 
L 247.348564 -108.244284 
L 245.870182 -104.439293 
L 244.3918 -101.271922 
L 242.913417 -99.309916 
L 241.435035 -98.867995 
L 239.956652 -100.043676 
L 238.47827 -102.726585 
L 236.999888 -106.542321 
L 235.521505 -110.79088 
L 234.043123 -114.496549 
L 232.56474 -116.64 
L 231.086358 -116.509144 
L 229.607976 -113.984632 
L 228.129593 -109.581309 
L 226.651211 -104.211186 
L 225.172828 -98.80589 
L 223.694446 -94.005029 
L 222.216064 -90.047836 
L 220.737681 -86.87304 
L 219.259299 -84.329751 
L 217.780916 -82.369746 
L 216.302534 -81.117849 
L 214.824152 -80.780273 
L 213.345769 -81.43451 
L 211.867387 -82.822562 
L 210.389004 -84.296609 
L 208.910622 -85.001376 
L 207.43224 -84.232971 
L 205.953857 -81.778962 
L 204.475475 -78.029579 
L 202.997092 -73.785155 
L 201.51871 -69.875361 
L 200.040328 -66.809214 
L 198.561945 -64.627611 
L 197.083563 -62.990115 
L 195.605181 -61.403902 
L 194.126798 -59.461707 
L 192.648416 -56.991664 
L 191.170033 -54.090187 
L 189.691651 -51.067037 
L 188.213269 -48.358146 
L 186.734886 -46.453747 
L 185.256504 -45.855648 
L 183.778121 -47.034968 
L 182.299739 -50.336053 
L 180.821357 -55.792285 
L 179.342974 -62.896365 
L 177.864592 -70.466638 
L 176.386209 -76.786574 
L 174.907827 -80.086418 
L 173.429445 -79.207832 
L 171.951062 -74.105506 
L 170.47268 -65.877798 
L 168.994297 -56.295732 
L 167.515915 -47.110994 
L 166.037533 -39.523312 
L 164.55915 -34.02109 
L 163.080768 -30.544045 
L 161.602385 -28.760581 
L 160.124003 -28.274634 
L 158.645621 -28.698199 
L 157.167238 -29.634502 
L 155.688856 -30.656459 
L 154.210473 -31.3405 
L 152.732091 -31.358751 
L 151.253709 -30.579603 
L 149.775326 -29.110072 
L 148.296944 -27.244954 
L 146.818561 -25.345471 
L 145.340179 -23.710768 
L 143.861797 -22.501103 
L 142.383414 -21.731854 
L 140.905032 -21.31707 
L 139.426649 -21.126306 
L 137.948267 -21.028996 
L 136.469885 -20.919762 
L 134.991502 -20.730093 
L 133.51312 -20.432663 
L 132.034737 -20.039749 
L 130.556355 -19.594133 
L 129.077973 -19.152695 
L 127.59959 -18.767191 
L 126.121208 -18.469183 
L 124.642825 -18.264165 
L 123.164443 -18.135354 
L 121.686061 -18.053382 
L 120.207678 -17.986811 
L 118.729296 -17.909851 
L 117.250913 -17.806209 
L 115.772531 -17.669836 
L 114.294149 -17.503782 
L 112.815766 -17.317874 
L 111.337384 -17.125517 
L 109.859001 -16.940029 
L 108.380619 -16.771426 
L 106.902237 -16.624715 
L 105.423854 -16.500174 
L 103.945472 -16.395151 
L 102.46709 -16.306176 
L 100.988707 -16.230256 
L 99.510325 -16.165057 
L 98.031942 -16.10848 
L 96.55356 -16.058464 
L 95.075178 -16.01334 
L 93.596795 -15.972394 
L 92.118413 -15.936053 
L 90.64003 -15.905412 
L 89.161648 -15.881414 
L 87.683266 -15.8642 
L 86.204883 -15.852983 
L 84.726501 -15.84637 
L 83.248118 -15.842851 
L 81.769736 -15.841161 
L 80.291354 -15.84043 
z
" style="stroke: #1976d2; stroke-width: 2"/>
    </defs>
    <g clip-path="url(#pd388d8f5b4)">
     <use xlink:href="#m413f818c2b" x="0" y="144" style="fill: #1976d2; fill-opacity: 0.25; stroke: #1976d2; stroke-width: 2"/>
    </g>
   </g>
   <g id="patch_3">
    <path d="M 54 128.16 
L 147.0744 128.16 
L 147.0744 17.28 
L 54 17.28 
z
" clip-path="url(#pd388d8f5b4)" style="fill: #616161; opacity: 0.2; stroke: #616161; stroke-linejoin: miter"/>
   </g>
   <g id="patch_4">
    <path d="M 54 128.16 
L 127.656 128.16 
L 127.656 17.28 
L 54 17.28 
z
" clip-path="url(#pd388d8f5b4)" style="fill: #616161; opacity: 0.1; stroke: #616161; stroke-linejoin: miter"/>
   </g>
   <g id="patch_5">
    <path d="M 295.7256 128.16 
L 388.8 128.16 
L 388.8 17.28 
L 295.7256 17.28 
z
" clip-path="url(#pd388d8f5b4)" style="fill: #616161; opacity: 0.2; stroke: #616161; stroke-linejoin: miter"/>
   </g>
   <g id="patch_6">
    <path d="M 315.144 128.16 
L 388.8 128.16 
L 388.8 17.28 
L 315.144 17.28 
z
" clip-path="url(#pd388d8f5b4)" style="fill: #616161; opacity: 0.1; stroke: #616161; stroke-linejoin: miter"/>
   </g>
   <g id="matplotlib.axis_1">
    <g id="xtick_1">
     <g id="line2d_1">
      <defs>
       <path id="m9162eeb17a" d="M 0 0 
L 0 3.5 
" style="stroke: #000000; stroke-width: 0.8"/>
      </defs>
      <g>
       <use xlink:href="#m9162eeb17a" x="54" y="128.16" style="stroke: #000000; stroke-width: 0.8"/>
      </g>
     </g>
     <g id="text_1">
      <!-- −1.00 -->
      <g transform="translate(38.677344 142.758438) scale(0.1 -0.1)">
       <defs>
        <path id="DejaVuSans-2212" d="M 678 2272 
L 4684 2272 
L 4684 1741 
L 678 1741 
L 678 2272 
z
" transform="scale(0.015625)"/>
        <path id="DejaVuSans-31" d="M 794 531 
L 1825 531 
L 1825 4091 
L 703 3866 
L 703 4441 
L 1819 4666 
L 2450 4666 
L 2450 531 
L 3481 531 
L 3481 0 
L 794 0 
L 794 531 
z
" transform="scale(0.015625)"/>
        <path id="DejaVuSans-2e" d="M 684 794 
L 1344 794 
L 1344 0 
L 684 0 
L 684 794 
z
" transform="scale(0.015625)"/>
        <path id="DejaVuSans-30" d="M 2034 4250 
Q 1547 4250 1301 3770 
Q 1056 3291 1056 2328 
Q 1056 1369 1301 889 
Q 1547 409 2034 409 
Q 2525 409 2770 889 
Q 3016 1369 3016 2328 
Q 3016 3291 2770 3770 
Q 2525 4250 2034 4250 
z
M 2034 4750 
Q 2819 4750 3233 4129 
Q 3647 3509 3647 2328 
Q 3647 1150 3233 529 
Q 2819 -91 2034 -91 
Q 1250 -91 836 529 
Q 422 1150 422 2328 
Q 422 3509 836 4129 
Q 1250 4750 2034 4750 
z
" transform="scale(0.015625)"/>
       </defs>
       <use xlink:href="#DejaVuSans-2212"/>
       <use xlink:href="#DejaVuSans-31" transform="translate(83.789062 0)"/>
       <use xlink:href="#DejaVuSans-2e" transform="translate(147.412109 0)"/>
       <use xlink:href="#DejaVuSans-30" transform="translate(179.199219 0)"/>
       <use xlink:href="#DejaVuSans-30" transform="translate(242.822266 0)"/>
      </g>
     </g>
    </g>
    <g id="xtick_2">
     <g id="line2d_2">
      <g>
       <use xlink:href="#m9162eeb17a" x="95.85" y="128.16" style="stroke: #000000; stroke-width: 0.8"/>
      </g>
     </g>
     <g id="text_2">
      <!-- −0.75 -->
      <g transform="translate(80.527344 142.758438) scale(0.1 -0.1)">
       <defs>
        <path id="DejaVuSans-37" d="M 525 4666 
L 3525 4666 
L 3525 4397 
L 1831 0 
L 1172 0 
L 2766 4134 
L 525 4134 
L 525 4666 
z
" transform="scale(0.015625)"/>
        <path id="DejaVuSans-35" d="M 691 4666 
L 3169 4666 
L 3169 4134 
L 1269 4134 
L 1269 2991 
Q 1406 3038 1543 3061 
Q 1681 3084 1819 3084 
Q 2600 3084 3056 2656 
Q 3513 2228 3513 1497 
Q 3513 744 3044 326 
Q 2575 -91 1722 -91 
Q 1428 -91 1123 -41 
Q 819 9 494 109 
L 494 744 
Q 775 591 1075 516 
Q 1375 441 1709 441 
Q 2250 441 2565 725 
Q 2881 1009 2881 1497 
Q 2881 1984 2565 2268 
Q 2250 2553 1709 2553 
Q 1456 2553 1204 2497 
Q 953 2441 691 2322 
L 691 4666 
z
" transform="scale(0.015625)"/>
       </defs>
       <use xlink:href="#DejaVuSans-2212"/>
       <use xlink:href="#DejaVuSans-30" transform="translate(83.789062 0)"/>
       <use xlink:href="#DejaVuSans-2e" transform="translate(147.412109 0)"/>
       <use xlink:href="#DejaVuSans-37" transform="translate(179.199219 0)"/>
       <use xlink:href="#DejaVuSans-35" transform="translate(242.822266 0)"/>
      </g>
     </g>
    </g>
    <g id="xtick_3">
     <g id="line2d_3">
      <g>
       <use xlink:href="#m9162eeb17a" x="137.7" y="128.16" style="stroke: #000000; stroke-width: 0.8"/>
      </g>
     </g>
     <g id="text_3">
      <!-- −0.50 -->
      <g transform="translate(122.377344 142.758438) scale(0.1 -0.1)">
       <use xlink:href="#DejaVuSans-2212"/>
       <use xlink:href="#DejaVuSans-30" transform="translate(83.789062 0)"/>
       <use xlink:href="#DejaVuSans-2e" transform="translate(147.412109 0)"/>
       <use xlink:href="#DejaVuSans-35" transform="translate(179.199219 0)"/>
       <use xlink:href="#DejaVuSans-30" transform="translate(242.822266 0)"/>
      </g>
     </g>
    </g>
    <g id="xtick_4">
     <g id="line2d_4">
      <g>
       <use xlink:href="#m9162eeb17a" x="179.55" y="128.16" style="stroke: #000000; stroke-width: 0.8"/>
      </g>
     </g>
     <g id="text_4">
      <!-- −0.25 -->
      <g transform="translate(164.227344 142.758438) scale(0.1 -0.1)">
       <defs>
        <path id="DejaVuSans-32" d="M 1228 531 
L 3431 531 
L 3431 0 
L 469 0 
L 469 531 
Q 828 903 1448 1529 
Q 2069 2156 2228 2338 
Q 2531 2678 2651 2914 
Q 2772 3150 2772 3378 
Q 2772 3750 2511 3984 
Q 2250 4219 1831 4219 
Q 1534 4219 1204 4116 
Q 875 4013 500 3803 
L 500 4441 
Q 881 4594 1212 4672 
Q 1544 4750 1819 4750 
Q 2544 4750 2975 4387 
Q 3406 4025 3406 3419 
Q 3406 3131 3298 2873 
Q 3191 2616 2906 2266 
Q 2828 2175 2409 1742 
Q 1991 1309 1228 531 
z
" transform="scale(0.015625)"/>
       </defs>
       <use xlink:href="#DejaVuSans-2212"/>
       <use xlink:href="#DejaVuSans-30" transform="translate(83.789062 0)"/>
       <use xlink:href="#DejaVuSans-2e" transform="translate(147.412109 0)"/>
       <use xlink:href="#DejaVuSans-32" transform="translate(179.199219 0)"/>
       <use xlink:href="#DejaVuSans-35" transform="translate(242.822266 0)"/>
      </g>
     </g>
    </g>
    <g id="xtick_5">
     <g id="line2d_5">
      <g>
       <use xlink:href="#m9162eeb17a" x="221.4" y="128.16" style="stroke: #000000; stroke-width: 0.8"/>
      </g>
     </g>
     <g id="text_5">
      <!-- 0.00 -->
      <g transform="translate(210.267188 142.758438) scale(0.1 -0.1)">
       <use xlink:href="#DejaVuSans-30"/>
       <use xlink:href="#DejaVuSans-2e" transform="translate(63.623047 0)"/>
       <use xlink:href="#DejaVuSans-30" transform="translate(95.410156 0)"/>
       <use xlink:href="#DejaVuSans-30" transform="translate(159.033203 0)"/>
      </g>
     </g>
    </g>
    <g id="xtick_6">
     <g id="line2d_6">
      <g>
       <use xlink:href="#m9162eeb17a" x="263.25" y="128.16" style="stroke: #000000; stroke-width: 0.8"/>
      </g>
     </g>
     <g id="text_6">
      <!-- 0.25 -->
      <g transform="translate(252.117188 142.758438) scale(0.1 -0.1)">
       <use xlink:href="#DejaVuSans-30"/>
       <use xlink:href="#DejaVuSans-2e" transform="translate(63.623047 0)"/>
       <use xlink:href="#DejaVuSans-32" transform="translate(95.410156 0)"/>
       <use xlink:href="#DejaVuSans-35" transform="translate(159.033203 0)"/>
      </g>
     </g>
    </g>
    <g id="xtick_7">
     <g id="line2d_7">
      <g>
       <use xlink:href="#m9162eeb17a" x="305.1" y="128.16" style="stroke: #000000; stroke-width: 0.8"/>
      </g>
     </g>
     <g id="text_7">
      <!-- 0.50 -->
      <g transform="translate(293.967188 142.758438) scale(0.1 -0.1)">
       <use xlink:href="#DejaVuSans-30"/>
       <use xlink:href="#DejaVuSans-2e" transform="translate(63.623047 0)"/>
       <use xlink:href="#DejaVuSans-35" transform="translate(95.410156 0)"/>
       <use xlink:href="#DejaVuSans-30" transform="translate(159.033203 0)"/>
      </g>
     </g>
    </g>
    <g id="xtick_8">
     <g id="line2d_8">
      <g>
       <use xlink:href="#m9162eeb17a" x="346.95" y="128.16" style="stroke: #000000; stroke-width: 0.8"/>
      </g>
     </g>
     <g id="text_8">
      <!-- 0.75 -->
      <g transform="translate(335.817188 142.758438) scale(0.1 -0.1)">
       <use xlink:href="#DejaVuSans-30"/>
       <use xlink:href="#DejaVuSans-2e" transform="translate(63.623047 0)"/>
       <use xlink:href="#DejaVuSans-37" transform="translate(95.410156 0)"/>
       <use xlink:href="#DejaVuSans-35" transform="translate(159.033203 0)"/>
      </g>
     </g>
    </g>
    <g id="xtick_9">
     <g id="line2d_9">
      <g>
       <use xlink:href="#m9162eeb17a" x="388.8" y="128.16" style="stroke: #000000; stroke-width: 0.8"/>
      </g>
     </g>
     <g id="text_9">
      <!-- 1.00 -->
      <g transform="translate(377.667188 142.758438) scale(0.1 -0.1)">
       <use xlink:href="#DejaVuSans-31"/>
       <use xlink:href="#DejaVuSans-2e" transform="translate(63.623047 0)"/>
       <use xlink:href="#DejaVuSans-30" transform="translate(95.410156 0)"/>
       <use xlink:href="#DejaVuSans-30" transform="translate(159.033203 0)"/>
      </g>
     </g>
    </g>
    <g id="text_10">
     <!-- ~bNAbs -->
     <g transform="translate(201.096094 156.436563) scale(0.1 -0.1)">
      <defs>
       <path id="DejaVuSans-7e" d="M 4684 2553 
L 4684 1997 
Q 4356 1750 4076 1644 
Q 3797 1538 3494 1538 
Q 3150 1538 2694 1722 
Q 2659 1734 2644 1741 
Q 2622 1750 2575 1766 
Q 2091 1959 1797 1959 
Q 1522 1959 1253 1839 
Q 984 1719 678 1459 
L 678 2016 
Q 1006 2263 1286 2370 
Q 1566 2478 1869 2478 
Q 2213 2478 2672 2291 
Q 2703 2278 2719 2272 
Q 2744 2263 2788 2247 
Q 3272 2053 3566 2053 
Q 3834 2053 4098 2172 
Q 4363 2291 4684 2553 
z
" transform="scale(0.015625)"/>
       <path id="DejaVuSans-62" d="M 3116 1747 
Q 3116 2381 2855 2742 
Q 2594 3103 2138 3103 
Q 1681 3103 1420 2742 
Q 1159 2381 1159 1747 
Q 1159 1113 1420 752 
Q 1681 391 2138 391 
Q 2594 391 2855 752 
Q 3116 1113 3116 1747 
z
M 1159 2969 
Q 1341 3281 1617 3432 
Q 1894 3584 2278 3584 
Q 2916 3584 3314 3078 
Q 3713 2572 3713 1747 
Q 3713 922 3314 415 
Q 2916 -91 2278 -91 
Q 1894 -91 1617 61 
Q 1341 213 1159 525 
L 1159 0 
L 581 0 
L 581 4863 
L 1159 4863 
L 1159 2969 
z
" transform="scale(0.015625)"/>
       <path id="DejaVuSans-4e" d="M 628 4666 
L 1478 4666 
L 3547 763 
L 3547 4666 
L 4159 4666 
L 4159 0 
L 3309 0 
L 1241 3903 
L 1241 0 
L 628 0 
L 628 4666 
z
" transform="scale(0.015625)"/>
       <path id="DejaVuSans-41" d="M 2188 4044 
L 1331 1722 
L 3047 1722 
L 2188 4044 
z
M 1831 4666 
L 2547 4666 
L 4325 0 
L 3669 0 
L 3244 1197 
L 1141 1197 
L 716 0 
L 50 0 
L 1831 4666 
z
" transform="scale(0.015625)"/>
       <path id="DejaVuSans-73" d="M 2834 3397 
L 2834 2853 
Q 2591 2978 2328 3040 
Q 2066 3103 1784 3103 
Q 1356 3103 1142 2972 
Q 928 2841 928 2578 
Q 928 2378 1081 2264 
Q 1234 2150 1697 2047 
L 1894 2003 
Q 2506 1872 2764 1633 
Q 3022 1394 3022 966 
Q 3022 478 2636 193 
Q 2250 -91 1575 -91 
Q 1294 -91 989 -36 
Q 684 19 347 128 
L 347 722 
Q 666 556 975 473 
Q 1284 391 1588 391 
Q 1994 391 2212 530 
Q 2431 669 2431 922 
Q 2431 1156 2273 1281 
Q 2116 1406 1581 1522 
L 1381 1569 
Q 847 1681 609 1914 
Q 372 2147 372 2553 
Q 372 3047 722 3315 
Q 1072 3584 1716 3584 
Q 2034 3584 2315 3537 
Q 2597 3491 2834 3397 
z
" transform="scale(0.015625)"/>
      </defs>
      <use xlink:href="#DejaVuSans-7e"/>
      <use xlink:href="#DejaVuSans-62" transform="translate(83.789062 0)"/>
      <use xlink:href="#DejaVuSans-4e" transform="translate(147.265625 0)"/>
      <use xlink:href="#DejaVuSans-41" transform="translate(222.070312 0)"/>
      <use xlink:href="#DejaVuSans-62" transform="translate(290.478516 0)"/>
      <use xlink:href="#DejaVuSans-73" transform="translate(353.955078 0)"/>
     </g>
    </g>
   </g>
   <g id="matplotlib.axis_2">
    <g id="text_11">
     <!-- Density -->
     <g transform="translate(47.920312 91.728594) rotate(-90) scale(0.1 -0.1)">
      <defs>
       <path id="DejaVuSans-44" d="M 1259 4147 
L 1259 519 
L 2022 519 
Q 2988 519 3436 956 
Q 3884 1394 3884 2338 
Q 3884 3275 3436 3711 
Q 2988 4147 2022 4147 
L 1259 4147 
z
M 628 4666 
L 1925 4666 
Q 3281 4666 3915 4102 
Q 4550 3538 4550 2338 
Q 4550 1131 3912 565 
Q 3275 0 1925 0 
L 628 0 
L 628 4666 
z
" transform="scale(0.015625)"/>
       <path id="DejaVuSans-65" d="M 3597 1894 
L 3597 1613 
L 953 1613 
Q 991 1019 1311 708 
Q 1631 397 2203 397 
Q 2534 397 2845 478 
Q 3156 559 3463 722 
L 3463 178 
Q 3153 47 2828 -22 
Q 2503 -91 2169 -91 
Q 1331 -91 842 396 
Q 353 884 353 1716 
Q 353 2575 817 3079 
Q 1281 3584 2069 3584 
Q 2775 3584 3186 3129 
Q 3597 2675 3597 1894 
z
M 3022 2063 
Q 3016 2534 2758 2815 
Q 2500 3097 2075 3097 
Q 1594 3097 1305 2825 
Q 1016 2553 972 2059 
L 3022 2063 
z
" transform="scale(0.015625)"/>
       <path id="DejaVuSans-6e" d="M 3513 2113 
L 3513 0 
L 2938 0 
L 2938 2094 
Q 2938 2591 2744 2837 
Q 2550 3084 2163 3084 
Q 1697 3084 1428 2787 
Q 1159 2491 1159 1978 
L 1159 0 
L 581 0 
L 581 3500 
L 1159 3500 
L 1159 2956 
Q 1366 3272 1645 3428 
Q 1925 3584 2291 3584 
Q 2894 3584 3203 3211 
Q 3513 2838 3513 2113 
z
" transform="scale(0.015625)"/>
       <path id="DejaVuSans-69" d="M 603 3500 
L 1178 3500 
L 1178 0 
L 603 0 
L 603 3500 
z
M 603 4863 
L 1178 4863 
L 1178 4134 
L 603 4134 
L 603 4863 
z
" transform="scale(0.015625)"/>
       <path id="DejaVuSans-74" d="M 1172 4494 
L 1172 3500 
L 2356 3500 
L 2356 3053 
L 1172 3053 
L 1172 1153 
Q 1172 725 1289 603 
Q 1406 481 1766 481 
L 2356 481 
L 2356 0 
L 1766 0 
Q 1100 0 847 248 
Q 594 497 594 1153 
L 594 3053 
L 172 3053 
L 172 3500 
L 594 3500 
L 594 4494 
L 1172 4494 
z
" transform="scale(0.015625)"/>
       <path id="DejaVuSans-79" d="M 2059 -325 
Q 1816 -950 1584 -1140 
Q 1353 -1331 966 -1331 
L 506 -1331 
L 506 -850 
L 844 -850 
Q 1081 -850 1212 -737 
Q 1344 -625 1503 -206 
L 1606 56 
L 191 3500 
L 800 3500 
L 1894 763 
L 2988 3500 
L 3597 3500 
L 2059 -325 
z
" transform="scale(0.015625)"/>
      </defs>
      <use xlink:href="#DejaVuSans-44"/>
      <use xlink:href="#DejaVuSans-65" transform="translate(77.001953 0)"/>
      <use xlink:href="#DejaVuSans-6e" transform="translate(138.525391 0)"/>
      <use xlink:href="#DejaVuSans-73" transform="translate(201.904297 0)"/>
      <use xlink:href="#DejaVuSans-69" transform="translate(254.003906 0)"/>
      <use xlink:href="#DejaVuSans-74" transform="translate(281.787109 0)"/>
      <use xlink:href="#DejaVuSans-79" transform="translate(320.996094 0)"/>
     </g>
    </g>
   </g>
   <g id="LineCollection_1">
    <path d="M 282.285311 128.16 
L 282.285311 125.388 
" clip-path="url(#pd388d8f5b4)" style="fill: none; stroke: #1976d2"/>
    <path d="M 259.164307 128.16 
L 259.164307 125.388 
" clip-path="url(#pd388d8f5b4)" style="fill: none; stroke: #1976d2"/>
    <path d="M 232.703602 128.16 
L 232.703602 125.388 
" clip-path="url(#pd388d8f5b4)" style="fill: none; stroke: #1976d2"/>
    <path d="M 160.810482 128.16 
L 160.810482 125.388 
" clip-path="url(#pd388d8f5b4)" style="fill: none; stroke: #1976d2"/>
    <path d="M 220.687363 128.16 
L 220.687363 125.388 
" clip-path="url(#pd388d8f5b4)" style="fill: none; stroke: #1976d2"/>
    <path d="M 258.393606 128.16 
L 258.393606 125.388 
" clip-path="url(#pd388d8f5b4)" style="fill: none; stroke: #1976d2"/>
    <path d="M 236.755401 128.16 
L 236.755401 125.388 
" clip-path="url(#pd388d8f5b4)" style="fill: none; stroke: #1976d2"/>
    <path d="M 257.494456 128.16 
L 257.494456 125.388 
" clip-path="url(#pd388d8f5b4)" style="fill: none; stroke: #1976d2"/>
    <path d="M 229.651882 128.16 
L 229.651882 125.388 
" clip-path="url(#pd388d8f5b4)" style="fill: none; stroke: #1976d2"/>
    <path d="M 252.543902 128.16 
L 252.543902 125.388 
" clip-path="url(#pd388d8f5b4)" style="fill: none; stroke: #1976d2"/>
    <path d="M 228.079401 128.16 
L 228.079401 125.388 
" clip-path="url(#pd388d8f5b4)" style="fill: none; stroke: #1976d2"/>
    <path d="M 225.895751 128.16 
L 225.895751 125.388 
" clip-path="url(#pd388d8f5b4)" style="fill: none; stroke: #1976d2"/>
    <path d="M 174.256287 128.16 
L 174.256287 125.388 
" clip-path="url(#pd388d8f5b4)" style="fill: none; stroke: #1976d2"/>
    <path d="M 240.924403 128.16 
L 240.924403 125.388 
" clip-path="url(#pd388d8f5b4)" style="fill: none; stroke: #1976d2"/>
    <path d="M 280.74391 128.16 
L 280.74391 125.388 
" clip-path="url(#pd388d8f5b4)" style="fill: none; stroke: #1976d2"/>
    <path d="M 260.65835 128.16 
L 260.65835 125.388 
" clip-path="url(#pd388d8f5b4)" style="fill: none; stroke: #1976d2"/>
    <path d="M 257.506952 128.16 
L 257.506952 125.388 
" clip-path="url(#pd388d8f5b4)" style="fill: none; stroke: #1976d2"/>
    <path d="M 247.386011 128.16 
L 247.386011 125.388 
" clip-path="url(#pd388d8f5b4)" style="fill: none; stroke: #1976d2"/>
    <path d="M 285.368111 128.16 
L 285.368111 125.388 
" clip-path="url(#pd388d8f5b4)" style="fill: none; stroke: #1976d2"/>
    <path d="M 213.050749 128.16 
L 213.050749 125.388 
" clip-path="url(#pd388d8f5b4)" style="fill: none; stroke: #1976d2"/>
    <path d="M 283.312911 128.16 
L 283.312911 125.388 
" clip-path="url(#pd388d8f5b4)" style="fill: none; stroke: #1976d2"/>
    <path d="M 183.892593 128.16 
L 183.892593 125.388 
" clip-path="url(#pd388d8f5b4)" style="fill: none; stroke: #1976d2"/>
    <path d="M 261.091057 128.16 
L 261.091057 125.388 
" clip-path="url(#pd388d8f5b4)" style="fill: none; stroke: #1976d2"/>
    <path d="M 250.172805 128.16 
L 250.172805 125.388 
" clip-path="url(#pd388d8f5b4)" style="fill: none; stroke: #1976d2"/>
    <path d="M 265.760046 128.16 
L 265.760046 125.388 
" clip-path="url(#pd388d8f5b4)" style="fill: none; stroke: #1976d2"/>
    <path d="M 252.473493 128.16 
L 252.473493 125.388 
" clip-path="url(#pd388d8f5b4)" style="fill: none; stroke: #1976d2"/>
    <path d="M 284.212061 128.16 
L 284.212061 125.388 
" clip-path="url(#pd388d8f5b4)" style="fill: none; stroke: #1976d2"/>
    <path d="M 247.904175 128.16 
L 247.904175 125.388 
" clip-path="url(#pd388d8f5b4)" style="fill: none; stroke: #1976d2"/>
    <path d="M 275.86281 128.16 
L 275.86281 125.388 
" clip-path="url(#pd388d8f5b4)" style="fill: none; stroke: #1976d2"/>
    <path d="M 261.476407 128.16 
L 261.476407 125.388 
" clip-path="url(#pd388d8f5b4)" style="fill: none; stroke: #1976d2"/>
    <path d="M 246.062404 128.16 
L 246.062404 125.388 
" clip-path="url(#pd388d8f5b4)" style="fill: none; stroke: #1976d2"/>
    <path d="M 268.798058 128.16 
L 268.798058 125.388 
" clip-path="url(#pd388d8f5b4)" style="fill: none; stroke: #1976d2"/>
    <path d="M 214.335249 128.16 
L 214.335249 125.388 
" clip-path="url(#pd388d8f5b4)" style="fill: none; stroke: #1976d2"/>
    <path d="M 211.380898 128.16 
L 211.380898 125.388 
" clip-path="url(#pd388d8f5b4)" style="fill: none; stroke: #1976d2"/>
    <path d="M 193.269445 128.16 
L 193.269445 125.388 
" clip-path="url(#pd388d8f5b4)" style="fill: none; stroke: #1976d2"/>
    <path d="M 229.492351 128.16 
L 229.492351 125.388 
" clip-path="url(#pd388d8f5b4)" style="fill: none; stroke: #1976d2"/>
    <path d="M 209.126804 128.16 
L 209.126804 125.388 
" clip-path="url(#pd388d8f5b4)" style="fill: none; stroke: #1976d2"/>
    <path d="M 235.196115 128.16 
L 235.196115 125.388 
" clip-path="url(#pd388d8f5b4)" style="fill: none; stroke: #1976d2"/>
    <path d="M 270.082559 128.16 
L 270.082559 125.388 
" clip-path="url(#pd388d8f5b4)" style="fill: none; stroke: #1976d2"/>
    <path d="M 286.524161 128.16 
L 286.524161 125.388 
" clip-path="url(#pd388d8f5b4)" style="fill: none; stroke: #1976d2"/>
    <path d="M 291.019912 128.16 
L 291.019912 125.388 
" clip-path="url(#pd388d8f5b4)" style="fill: none; stroke: #1976d2"/>
    <path d="M 289.221612 128.16 
L 289.221612 125.388 
" clip-path="url(#pd388d8f5b4)" style="fill: none; stroke: #1976d2"/>
    <path d="M 284.821303 128.16 
L 284.821303 125.388 
" clip-path="url(#pd388d8f5b4)" style="fill: none; stroke: #1976d2"/>
    <path d="M 272.266209 128.16 
L 272.266209 125.388 
" clip-path="url(#pd388d8f5b4)" style="fill: none; stroke: #1976d2"/>
    <path d="M 187.874544 128.16 
L 187.874544 125.388 
" clip-path="url(#pd388d8f5b4)" style="fill: none; stroke: #1976d2"/>
    <path d="M 179.499786 128.16 
L 179.499786 125.388 
" clip-path="url(#pd388d8f5b4)" style="fill: none; stroke: #1976d2"/>
    <path d="M 212.408498 128.16 
L 212.408498 125.388 
" clip-path="url(#pd388d8f5b4)" style="fill: none; stroke: #1976d2"/>
    <path d="M 179.268393 128.16 
L 179.268393 125.388 
" clip-path="url(#pd388d8f5b4)" style="fill: none; stroke: #1976d2"/>
    <path d="M 277.27576 128.16 
L 277.27576 125.388 
" clip-path="url(#pd388d8f5b4)" style="fill: none; stroke: #1976d2"/>
    <path d="M 272.137759 128.16 
L 272.137759 125.388 
" clip-path="url(#pd388d8f5b4)" style="fill: none; stroke: #1976d2"/>
    <path d="M 235.914853 128.16 
L 235.914853 125.388 
" clip-path="url(#pd388d8f5b4)" style="fill: none; stroke: #1976d2"/>
    <path d="M 273.165359 128.16 
L 273.165359 125.388 
" clip-path="url(#pd388d8f5b4)" style="fill: none; stroke: #1976d2"/>
    <path d="M 206.371347 128.16 
L 206.371347 125.388 
" clip-path="url(#pd388d8f5b4)" style="fill: none; stroke: #1976d2"/>
    <path d="M 235.272602 128.16 
L 235.272602 125.388 
" clip-path="url(#pd388d8f5b4)" style="fill: none; stroke: #1976d2"/>
    <path d="M 283.020293 128.16 
L 283.020293 125.388 
" clip-path="url(#pd388d8f5b4)" style="fill: none; stroke: #1976d2"/>
    <path d="M 270.082559 128.16 
L 270.082559 125.388 
" clip-path="url(#pd388d8f5b4)" style="fill: none; stroke: #1976d2"/>
    <path d="M 269.697208 128.16 
L 269.697208 125.388 
" clip-path="url(#pd388d8f5b4)" style="fill: none; stroke: #1976d2"/>
    <path d="M 265.972158 128.16 
L 265.972158 125.388 
" clip-path="url(#pd388d8f5b4)" style="fill: none; stroke: #1976d2"/>
    <path d="M 202.260947 128.16 
L 202.260947 125.388 
" clip-path="url(#pd388d8f5b4)" style="fill: none; stroke: #1976d2"/>
    <path d="M 271.880859 128.16 
L 271.880859 125.388 
" clip-path="url(#pd388d8f5b4)" style="fill: none; stroke: #1976d2"/>
    <path d="M 252.998706 128.16 
L 252.998706 125.388 
" clip-path="url(#pd388d8f5b4)" style="fill: none; stroke: #1976d2"/>
    <path d="M 242.237722 128.16 
L 242.237722 125.388 
" clip-path="url(#pd388d8f5b4)" style="fill: none; stroke: #1976d2"/>
    <path d="M 263.146257 128.16 
L 263.146257 125.388 
" clip-path="url(#pd388d8f5b4)" style="fill: none; stroke: #1976d2"/>
    <path d="M 187.103844 128.16 
L 187.103844 125.388 
" clip-path="url(#pd388d8f5b4)" style="fill: none; stroke: #1976d2"/>
    <path d="M 209.068798 128.16 
L 209.068798 125.388 
" clip-path="url(#pd388d8f5b4)" style="fill: none; stroke: #1976d2"/>
    <path d="M 213.949899 128.16 
L 213.949899 125.388 
" clip-path="url(#pd388d8f5b4)" style="fill: none; stroke: #1976d2"/>
    <path d="M 225.895751 128.16 
L 225.895751 125.388 
" clip-path="url(#pd388d8f5b4)" style="fill: none; stroke: #1976d2"/>
    <path d="M 195.453095 128.16 
L 195.453095 125.388 
" clip-path="url(#pd388d8f5b4)" style="fill: none; stroke: #1976d2"/>
    <path d="M 280.48701 128.16 
L 280.48701 125.388 
" clip-path="url(#pd388d8f5b4)" style="fill: none; stroke: #1976d2"/>
    <path d="M 279.84476 128.16 
L 279.84476 125.388 
" clip-path="url(#pd388d8f5b4)" style="fill: none; stroke: #1976d2"/>
    <path d="M 236.171753 128.16 
L 236.171753 125.388 
" clip-path="url(#pd388d8f5b4)" style="fill: none; stroke: #1976d2"/>
    <path d="M 203.218842 128.16 
L 203.218842 125.388 
" clip-path="url(#pd388d8f5b4)" style="fill: none; stroke: #1976d2"/>
    <path d="M 254.797006 128.16 
L 254.797006 125.388 
" clip-path="url(#pd388d8f5b4)" style="fill: none; stroke: #1976d2"/>
    <path d="M 250.686605 128.16 
L 250.686605 125.388 
" clip-path="url(#pd388d8f5b4)" style="fill: none; stroke: #1976d2"/>
    <path d="M 265.201458 128.16 
L 265.201458 125.388 
" clip-path="url(#pd388d8f5b4)" style="fill: none; stroke: #1976d2"/>
    <path d="M 176.777468 128.16 
L 176.777468 125.388 
" clip-path="url(#pd388d8f5b4)" style="fill: none; stroke: #1976d2"/>
    <path d="M 222.29915 128.16 
L 222.29915 125.388 
" clip-path="url(#pd388d8f5b4)" style="fill: none; stroke: #1976d2"/>
    <path d="M 182.736543 128.16 
L 182.736543 125.388 
" clip-path="url(#pd388d8f5b4)" style="fill: none; stroke: #1976d2"/>
    <path d="M 216.887252 128.16 
L 216.887252 125.388 
" clip-path="url(#pd388d8f5b4)" style="fill: none; stroke: #1976d2"/>
    <path d="M 285.496561 128.16 
L 285.496561 125.388 
" clip-path="url(#pd388d8f5b4)" style="fill: none; stroke: #1976d2"/>
    <path d="M 265.458358 128.16 
L 265.458358 125.388 
" clip-path="url(#pd388d8f5b4)" style="fill: none; stroke: #1976d2"/>
    <path d="M 230.905302 128.16 
L 230.905302 125.388 
" clip-path="url(#pd388d8f5b4)" style="fill: none; stroke: #1976d2"/>
    <path d="M 268.798058 128.16 
L 268.798058 125.388 
" clip-path="url(#pd388d8f5b4)" style="fill: none; stroke: #1976d2"/>
    <path d="M 233.088952 128.16 
L 233.088952 125.388 
" clip-path="url(#pd388d8f5b4)" style="fill: none; stroke: #1976d2"/>
    <path d="M 199.691946 128.16 
L 199.691946 125.388 
" clip-path="url(#pd388d8f5b4)" style="fill: none; stroke: #1976d2"/>
    <path d="M 279.84476 128.16 
L 279.84476 125.388 
" clip-path="url(#pd388d8f5b4)" style="fill: none; stroke: #1976d2"/>
    <path d="M 237.327803 128.16 
L 237.327803 125.388 
" clip-path="url(#pd388d8f5b4)" style="fill: none; stroke: #1976d2"/>
    <path d="M 207.249202 128.16 
L 207.249202 125.388 
" clip-path="url(#pd388d8f5b4)" style="fill: none; stroke: #1976d2"/>
    <path d="M 257.91388 128.16 
L 257.91388 125.388 
" clip-path="url(#pd388d8f5b4)" style="fill: none; stroke: #1976d2"/>
    <path d="M 260.270748 128.16 
L 260.270748 125.388 
" clip-path="url(#pd388d8f5b4)" style="fill: none; stroke: #1976d2"/>
    <path d="M 244.264104 128.16 
L 244.264104 125.388 
" clip-path="url(#pd388d8f5b4)" style="fill: none; stroke: #1976d2"/>
    <path d="M 235.144152 128.16 
L 235.144152 125.388 
" clip-path="url(#pd388d8f5b4)" style="fill: none; stroke: #1976d2"/>
    <path d="M 158.879202 128.16 
L 158.879202 125.388 
" clip-path="url(#pd388d8f5b4)" style="fill: none; stroke: #1976d2"/>
    <path d="M 232.318252 128.16 
L 232.318252 125.388 
" clip-path="url(#pd388d8f5b4)" style="fill: none; stroke: #1976d2"/>
    <path d="M 210.335188 128.16 
L 210.335188 125.388 
" clip-path="url(#pd388d8f5b4)" style="fill: none; stroke: #1976d2"/>
    <path d="M 259.035857 128.16 
L 259.035857 125.388 
" clip-path="url(#pd388d8f5b4)" style="fill: none; stroke: #1976d2"/>
    <path d="M 178.253611 128.16 
L 178.253611 125.388 
" clip-path="url(#pd388d8f5b4)" style="fill: none; stroke: #1976d2"/>
    <path d="M 183.764143 128.16 
L 183.764143 125.388 
" clip-path="url(#pd388d8f5b4)" style="fill: none; stroke: #1976d2"/>
    <path d="M 242.465804 128.16 
L 242.465804 125.388 
" clip-path="url(#pd388d8f5b4)" style="fill: none; stroke: #1976d2"/>
    <path d="M 309.259815 128.16 
L 309.259815 125.388 
" clip-path="url(#pd388d8f5b4)" style="fill: none; stroke: #1976d2"/>
    <path d="M 270.724809 128.16 
L 270.724809 125.388 
" clip-path="url(#pd388d8f5b4)" style="fill: none; stroke: #1976d2"/>
    <path d="M 271.367059 128.16 
L 271.367059 125.388 
" clip-path="url(#pd388d8f5b4)" style="fill: none; stroke: #1976d2"/>
    <path d="M 238.355403 128.16 
L 238.355403 125.388 
" clip-path="url(#pd388d8f5b4)" style="fill: none; stroke: #1976d2"/>
    <path d="M 246.833104 128.16 
L 246.833104 125.388 
" clip-path="url(#pd388d8f5b4)" style="fill: none; stroke: #1976d2"/>
    <path d="M 257.751356 128.16 
L 257.751356 125.388 
" clip-path="url(#pd388d8f5b4)" style="fill: none; stroke: #1976d2"/>
    <path d="M 252.984786 128.16 
L 252.984786 125.388 
" clip-path="url(#pd388d8f5b4)" style="fill: none; stroke: #1976d2"/>
    <path d="M 268.541158 128.16 
L 268.541158 125.388 
" clip-path="url(#pd388d8f5b4)" style="fill: none; stroke: #1976d2"/>
    <path d="M 255.953056 128.16 
L 255.953056 125.388 
" clip-path="url(#pd388d8f5b4)" style="fill: none; stroke: #1976d2"/>
    <path d="M 297.442413 128.16 
L 297.442413 125.388 
" clip-path="url(#pd388d8f5b4)" style="fill: none; stroke: #1976d2"/>
    <path d="M 281.836272 128.16 
L 281.836272 125.388 
" clip-path="url(#pd388d8f5b4)" style="fill: none; stroke: #1976d2"/>
    <path d="M 265.715258 128.16 
L 265.715258 125.388 
" clip-path="url(#pd388d8f5b4)" style="fill: none; stroke: #1976d2"/>
    <path d="M 278.17491 128.16 
L 278.17491 125.388 
" clip-path="url(#pd388d8f5b4)" style="fill: none; stroke: #1976d2"/>
    <path d="M 247.475355 128.16 
L 247.475355 125.388 
" clip-path="url(#pd388d8f5b4)" style="fill: none; stroke: #1976d2"/>
    <path d="M 260.191907 128.16 
L 260.191907 125.388 
" clip-path="url(#pd388d8f5b4)" style="fill: none; stroke: #1976d2"/>
    <path d="M 298.341563 128.16 
L 298.341563 125.388 
" clip-path="url(#pd388d8f5b4)" style="fill: none; stroke: #1976d2"/>
    <path d="M 296.286363 128.16 
L 296.286363 125.388 
" clip-path="url(#pd388d8f5b4)" style="fill: none; stroke: #1976d2"/>
    <path d="M 235.840794 128.16 
L 235.840794 125.388 
" clip-path="url(#pd388d8f5b4)" style="fill: none; stroke: #1976d2"/>
    <path d="M 249.659005 128.16 
L 249.659005 125.388 
" clip-path="url(#pd388d8f5b4)" style="fill: none; stroke: #1976d2"/>
    <path d="M 193.927544 128.16 
L 193.927544 125.388 
" clip-path="url(#pd388d8f5b4)" style="fill: none; stroke: #1976d2"/>
    <path d="M 290.763012 128.16 
L 290.763012 125.388 
" clip-path="url(#pd388d8f5b4)" style="fill: none; stroke: #1976d2"/>
    <path d="M 220.6293 128.16 
L 220.6293 125.388 
" clip-path="url(#pd388d8f5b4)" style="fill: none; stroke: #1976d2"/>
   </g>
   <g id="patch_7">
    <path d="M 54 128.16 
L 54 17.28 
" style="fill: none; stroke: #000000; stroke-width: 0.8; stroke-linejoin: miter; stroke-linecap: square"/>
   </g>
   <g id="patch_8">
    <path d="M 54 128.16 
L 388.8 128.16 
" style="fill: none; stroke: #000000; stroke-width: 0.8; stroke-linejoin: miter; stroke-linecap: square"/>
   </g>
  </g>
 </g>
 <defs>
  <clipPath id="pd388d8f5b4">
   <rect x="54" y="17.28" width="334.8" height="110.88"/>
  </clipPath>
 </defs>
</svg>
