<?xml version="1.0" encoding="utf-8" standalone="no"?>
<!DOCTYPE svg PUBLIC "-//W3C//DTD SVG 1.1//EN"
  "http://www.w3.org/Graphics/SVG/1.1/DTD/svg11.dtd">
<svg xmlns:xlink="http://www.w3.org/1999/xlink" width="720pt" height="216pt" viewBox="0 0 720 216" xmlns="http://www.w3.org/2000/svg" version="1.1">
 <metadata>
  <rdf:RDF xmlns:dc="http://purl.org/dc/elements/1.1/" xmlns:cc="http://creativecommons.org/ns#" xmlns:rdf="http://www.w3.org/1999/02/22-rdf-syntax-ns#">
   <cc:Work>
    <dc:type rdf:resource="http://purl.org/dc/dcmitype/StillImage"/>
    <dc:date>2026-02-16T10:13:58.255449</dc:date>
    <dc:format>image/svg+xml</dc:format>
    <dc:creator>
     <cc:Agent>
      <dc:title>Matplotlib v3.10.6, https://matplotlib.org/</dc:title>
     </cc:Agent>
    </dc:creator>
   </cc:Work>
  </rdf:RDF>
 </metadata>
 <defs>
  <style type="text/css">*{stroke-linejoin: round; stroke-linecap: butt}</style>
 </defs>
 <g id="figure_1">
  <g id="patch_1">
   <path d="M 0 216 
L 720 216 
L 720 0 
L 0 0 
z
" style="fill: #ffffff"/>
  </g>
  <g id="axes_1">
   <g id="patch_2">
    <path d="M 90 192.24 
L 648 192.24 
L 648 25.92 
L 90 25.92 
z
" style="fill: #ffffff"/>
   </g>
   <g id="line2d_1">
    <path d="M 115.363636 157.997647 
L 121.827129 153.527482 
L 136.982905 142.927081 
L 141.886244 139.82169 
L 146.120946 137.396942 
L 149.90989 135.483675 
L 153.253076 134.033853 
L 156.373382 132.910809 
L 159.27081 132.089442 
L 162.168238 131.501974 
L 165.734303 131.052538 
L 181.781595 129.288156 
L 198.051765 127.722694 
L 214.544815 126.358012 
L 231.483624 125.181455 
L 248.645311 124.213653 
L 266.029877 123.454743 
L 283.860201 122.898698 
L 302.136284 122.552521 
L 320.858124 122.422153 
L 322.641157 122.421176 
L 322.641157 122.421176 
" clip-path="url(#pe925b9a984)" style="fill: none; stroke: #d32f2f; stroke-opacity: 0.8; stroke-width: 2; stroke-linecap: square"/>
   </g>
   <g id="line2d_2">
    <path d="M 192.034031 184.68 
L 380.366832 184.68 
L 380.366832 184.68 
" clip-path="url(#pe925b9a984)" style="fill: none; stroke: #1976d2; stroke-opacity: 0.8; stroke-width: 2; stroke-linecap: square"/>
   </g>
   <g id="line2d_3">
    <path d="M 187.353571 175.785882 
L 193.148426 168.762651 
L 202.955105 156.861935 
L 207.189807 152.103407 
L 210.755872 148.434635 
L 213.876178 145.552901 
L 216.550727 143.374349 
L 219.002397 141.647673 
L 221.231187 140.327483 
L 229.700591 135.961734 
L 240.175907 130.786962 
L 250.205464 126.082791 
L 259.789263 121.834471 
L 268.927305 118.023928 
L 277.842467 114.546366 
L 286.53475 111.396967 
L 294.781275 108.640676 
L 302.804921 106.185645 
L 310.828567 103.96418 
L 318.629334 102.037669 
L 326.207222 100.395038 
L 333.56223 99.024296 
L 340.917239 97.881429 
L 348.049369 96.997964 
L 355.181499 96.342776 
L 362.090749 95.932256 
L 369 95.748704 
L 371.005911 95.738824 
L 371.005911 95.738824 
" clip-path="url(#pe925b9a984)" style="fill: none; stroke: #d32f2f; stroke-opacity: 0.8; stroke-width: 2; stroke-linecap: square"/>
   </g>
   <g id="line2d_4">
    <path d="M 155.704745 184.68 
L 212.316025 184.569881 
L 229.92347 184.235789 
L 248.199553 183.664855 
L 266.921393 182.857066 
L 286.311871 181.79781 
L 306.593865 180.464637 
L 327.767375 178.846699 
L 350.05528 176.916583 
L 362.090749 175.785882 
L 362.090749 175.785882 
" clip-path="url(#pe925b9a984)" style="fill: none; stroke: #1976d2; stroke-opacity: 0.8; stroke-width: 2; stroke-linecap: square"/>
   </g>
   <g id="line2d_5">
    <path d="M 132.302444 184.68 
L 135.868509 177.047076 
L 141.217607 164.97912 
L 147.45822 151.0001 
L 151.024285 143.562665 
L 153.921713 138.039974 
L 156.373382 133.84198 
L 158.602173 130.478391 
L 160.608084 127.873649 
L 162.391117 125.93285 
L 163.95127 124.55024 
L 165.511424 123.48479 
L 166.848698 122.840345 
L 168.185972 122.458367 
L 173.535069 121.67472 
L 185.793417 120.049745 
L 198.497524 118.592744 
L 211.647388 117.313008 
L 225.24301 116.217511 
L 239.28439 115.310647 
L 253.994408 114.58454 
L 269.595942 114.040482 
L 286.088992 113.68961 
L 303.919316 113.534123 
L 308.822655 113.527059 
L 308.822655 113.527059 
" clip-path="url(#pe925b9a984)" style="fill: none; stroke: #d32f2f; stroke-opacity: 0.8; stroke-width: 2; stroke-linecap: square"/>
   </g>
   <g id="line2d_6">
    <path d="M 163.505512 175.785882 
L 191.142515 169.405336 
L 198.051765 168.143902 
L 204.0695 167.269114 
L 210.310113 166.603163 
L 234.158172 164.352511 
L 255.554561 162.5524 
L 275.390797 161.10275 
L 294.112638 159.955684 
L 311.720083 159.095828 
L 328.658891 158.488836 
L 344.929062 158.126692 
L 360.530596 157.998233 
L 361.644991 157.997647 
L 361.644991 157.997647 
" clip-path="url(#pe925b9a984)" style="fill: none; stroke: #1976d2; stroke-opacity: 0.8; stroke-width: 2; stroke-linecap: square"/>
   </g>
   <g id="line2d_7">
    <path d="M 116.478032 184.68 
L 138.320179 168.668778 
L 144.337913 164.631916 
L 149.464132 161.454293 
L 154.144592 158.814343 
L 160.830963 155.375083 
L 180.44432 145.486562 
L 195.600096 138.0859 
L 208.74996 131.904423 
L 220.785429 126.489867 
L 231.929382 121.720265 
L 242.404697 117.480493 
L 252.211376 113.749809 
L 261.572296 110.424644 
L 270.487458 107.489988 
L 279.179741 104.862942 
L 287.426266 102.598547 
L 295.449912 100.621126 
L 303.250679 98.923756 
L 310.828567 97.498091 
L 318.183576 96.334496 
L 322.641157 95.738824 
L 322.641157 95.738824 
" clip-path="url(#pe925b9a984)" style="fill: none; stroke: #d32f2f; stroke-opacity: 0.8; stroke-width: 2; stroke-linecap: square"/>
   </g>
   <g id="line2d_8">
    <path d="M 124.501678 166.891765 
L 128.067742 158.531226 
L 133.193961 145.85974 
L 140.32609 128.285913 
L 143.892155 120.107202 
L 146.789583 114.006745 
L 149.241253 109.339335 
L 151.470043 105.566034 
L 153.475955 102.607532 
L 155.258987 100.36499 
L 156.81914 98.728714 
L 158.379294 97.419737 
L 159.716568 96.57496 
L 161.053842 96.000707 
L 162.168238 95.738824 
L 174.649465 94.052387 
L 187.57645 92.530254 
L 200.949193 91.181597 
L 214.767695 90.013408 
L 229.031954 89.030252 
L 243.964851 88.22353 
L 259.789263 87.593811 
L 276.505193 87.152873 
L 294.558396 86.901769 
L 309.045534 86.844706 
L 309.045534 86.844706 
" clip-path="url(#pe925b9a984)" style="fill: none; stroke: #d32f2f; stroke-opacity: 0.8; stroke-width: 2; stroke-linecap: square"/>
   </g>
   <g id="line2d_9">
    <path d="M 143.446397 140.209412 
L 147.012462 131.469064 
L 152.584438 117.11302 
L 158.602173 101.763871 
L 161.945359 93.798448 
L 164.842786 87.453152 
L 167.294456 82.60886 
L 169.523247 78.705667 
L 171.529158 75.660328 
L 173.31219 73.368015 
L 174.872344 71.711763 
L 176.209618 70.570861 
L 177.546892 69.70321 
L 178.884167 69.123922 
L 183.564627 67.819106 
L 192.925547 65.39268 
L 202.509347 63.142583 
L 212.093146 61.120246 
L 221.899824 59.277079 
L 231.929382 57.618523 
L 242.181818 56.148987 
L 252.657134 54.871773 
L 263.355328 53.788992 
L 274.499281 52.885572 
L 286.088992 52.173711 
L 297.901582 51.670482 
L 310.382809 51.363738 
L 322.641157 51.268235 
L 322.641157 51.268235 
" clip-path="url(#pe925b9a984)" style="fill: none; stroke: #d32f2f; stroke-opacity: 0.8; stroke-width: 2; stroke-linecap: square"/>
   </g>
   <g id="line2d_10">
    <path d="M 143.669276 149.103529 
L 147.681099 138.677384 
L 155.927624 116.388109 
L 160.608084 104.130534 
L 163.95127 95.935426 
L 166.848698 89.385347 
L 169.300367 84.3444 
L 171.529158 80.230504 
L 173.535069 76.959957 
L 175.318102 74.432309 
L 177.101134 72.293178 
L 178.661288 70.763793 
L 179.998562 69.723253 
L 181.335836 68.941968 
L 189.136603 65.063266 
L 196.93737 61.432318 
L 204.738137 58.04486 
L 212.538904 54.896627 
L 220.339671 51.983356 
L 228.363317 49.227484 
L 236.386963 46.711041 
L 244.410609 44.429386 
L 252.434255 42.377879 
L 260.457901 40.55188 
L 268.704426 38.905269 
L 276.950951 37.48693 
L 285.197476 36.291825 
L 293.66688 35.291494 
L 302.136284 34.515855 
L 310.605688 33.959451 
L 319.297971 33.610647 
L 327.990254 33.48112 
L 328.88177 33.48 
L 328.88177 33.48 
" clip-path="url(#pe925b9a984)" style="fill: none; stroke: #d32f2f; stroke-opacity: 0.8; stroke-width: 2; stroke-linecap: square"/>
   </g>
   <g id="line2d_11">
    <path d="M 173.089311 184.68 
L 204.0695 178.541136 
L 212.316025 177.216246 
L 219.448155 176.284922 
L 226.357405 175.608325 
L 254.440166 173.241316 
L 278.956862 171.393866 
L 301.244768 169.933331 
L 321.97252 168.794418 
L 341.585876 167.937944 
L 360.084838 167.349453 
L 377.915162 167.003133 
L 394.85397 166.891765 
L 394.85397 166.891765 
" clip-path="url(#pe925b9a984)" style="fill: none; stroke: #1976d2; stroke-opacity: 0.8; stroke-width: 2; stroke-linecap: square"/>
   </g>
   <g id="line2d_12">
    <path d="M 213.876178 184.68 
L 236.832721 173.95393 
L 244.410609 170.710013 
L 250.874101 168.176108 
L 257.560473 165.808762 
L 280.739895 157.893566 
L 299.015977 151.882588 
L 315.063269 146.835822 
L 329.550407 142.509046 
L 342.923151 138.741338 
L 355.627257 135.39037 
L 367.662726 132.443968 
L 379.252436 129.836661 
L 390.17351 127.603436 
L 400.871705 125.641743 
L 411.124141 123.98548 
L 421.153699 122.589817 
L 422.490973 122.421176 
L 422.490973 122.421176 
" clip-path="url(#pe925b9a984)" style="fill: none; stroke: #1976d2; stroke-opacity: 0.8; stroke-width: 2; stroke-linecap: square"/>
   </g>
   <g id="line2d_13">
    <path d="M 367.885605 184.68 
L 376.800767 177.999121 
L 385.938808 171.228663 
L 391.287905 167.529559 
L 395.745486 164.699933 
L 399.757309 162.408845 
L 403.323374 160.616424 
L 406.66656 159.176359 
L 409.786867 158.067532 
L 421.599457 154.478094 
L 434.749321 150.697555 
L 447.007669 147.400493 
L 458.820259 144.452237 
L 470.187091 141.846341 
L 481.108164 139.573019 
L 491.58348 137.619562 
L 501.613037 135.970729 
L 511.419716 134.580041 
L 521.003515 133.443686 
L 530.364435 132.556673 
L 539.502476 131.912922 
L 548.417639 131.505347 
L 557.109922 131.325943 
L 559.78447 131.315294 
L 559.78447 131.315294 
" clip-path="url(#pe925b9a984)" style="fill: none; stroke: #1976d2; stroke-opacity: 0.8; stroke-width: 2; stroke-linecap: square"/>
   </g>
   <g id="line2d_14">
    <path d="M 405.552165 184.68 
L 433.189168 178.997861 
L 443.664483 177.107272 
L 452.579645 175.722191 
L 487.794536 170.803801 
L 512.311232 167.600859 
L 533.261863 165.085563 
L 551.983703 163.059057 
L 569.145391 161.420283 
L 585.415562 160.088684 
L 600.794216 159.052797 
L 615.504234 158.28529 
L 622.636364 157.997647 
L 622.636364 157.997647 
" clip-path="url(#pe925b9a984)" style="fill: none; stroke: #1976d2; stroke-opacity: 0.8; stroke-width: 2; stroke-linecap: square"/>
   </g>
   <g id="matplotlib.axis_1">
    <g id="xtick_1">
     <g id="line2d_15">
      <defs>
       <path id="m3a0bbc1ca1" d="M 0 0 
L 0 3.5 
" style="stroke: #000000; stroke-width: 0.8"/>
      </defs>
      <g>
       <use xlink:href="#m3a0bbc1ca1" x="131.856686" y="192.24" style="stroke: #000000; stroke-width: 0.8"/>
      </g>
     </g>
     <g id="text_1">
      <!-- 2006 -->
      <g transform="translate(119.131686 206.838437) scale(0.1 -0.1)">
       <defs>
        <path id="DejaVuSans-32" d="M 1228 531 
L 3431 531 
L 3431 0 
L 469 0 
L 469 531 
Q 828 903 1448 1529 
Q 2069 2156 2228 2338 
Q 2531 2678 2651 2914 
Q 2772 3150 2772 3378 
Q 2772 3750 2511 3984 
Q 2250 4219 1831 4219 
Q 1534 4219 1204 4116 
Q 875 4013 500 3803 
L 500 4441 
Q 881 4594 1212 4672 
Q 1544 4750 1819 4750 
Q 2544 4750 2975 4387 
Q 3406 4025 3406 3419 
Q 3406 3131 3298 2873 
Q 3191 2616 2906 2266 
Q 2828 2175 2409 1742 
Q 1991 1309 1228 531 
z
" transform="scale(0.015625)"/>
        <path id="DejaVuSans-30" d="M 2034 4250 
Q 1547 4250 1301 3770 
Q 1056 3291 1056 2328 
Q 1056 1369 1301 889 
Q 1547 409 2034 409 
Q 2525 409 2770 889 
Q 3016 1369 3016 2328 
Q 3016 3291 2770 3770 
Q 2525 4250 2034 4250 
z
M 2034 4750 
Q 2819 4750 3233 4129 
Q 3647 3509 3647 2328 
Q 3647 1150 3233 529 
Q 2819 -91 2034 -91 
Q 1250 -91 836 529 
Q 422 1150 422 2328 
Q 422 3509 836 4129 
Q 1250 4750 2034 4750 
z
" transform="scale(0.015625)"/>
        <path id="DejaVuSans-36" d="M 2113 2584 
Q 1688 2584 1439 2293 
Q 1191 2003 1191 1497 
Q 1191 994 1439 701 
Q 1688 409 2113 409 
Q 2538 409 2786 701 
Q 3034 994 3034 1497 
Q 3034 2003 2786 2293 
Q 2538 2584 2113 2584 
z
M 3366 4563 
L 3366 3988 
Q 3128 4100 2886 4159 
Q 2644 4219 2406 4219 
Q 1781 4219 1451 3797 
Q 1122 3375 1075 2522 
Q 1259 2794 1537 2939 
Q 1816 3084 2150 3084 
Q 2853 3084 3261 2657 
Q 3669 2231 3669 1497 
Q 3669 778 3244 343 
Q 2819 -91 2113 -91 
Q 1303 -91 875 529 
Q 447 1150 447 2328 
Q 447 3434 972 4092 
Q 1497 4750 2381 4750 
Q 2619 4750 2861 4703 
Q 3103 4656 3366 4563 
z
" transform="scale(0.015625)"/>
       </defs>
       <use xlink:href="#DejaVuSans-32"/>
       <use xlink:href="#DejaVuSans-30" transform="translate(63.623047 0)"/>
       <use xlink:href="#DejaVuSans-30" transform="translate(127.246094 0)"/>
       <use xlink:href="#DejaVuSans-36" transform="translate(190.869141 0)"/>
      </g>
     </g>
    </g>
    <g id="xtick_2">
     <g id="line2d_16">
      <g>
       <use xlink:href="#m3a0bbc1ca1" x="213.207541" y="192.24" style="stroke: #000000; stroke-width: 0.8"/>
      </g>
     </g>
     <g id="text_2">
      <!-- 2007 -->
      <g transform="translate(200.482541 206.838437) scale(0.1 -0.1)">
       <defs>
        <path id="DejaVuSans-37" d="M 525 4666 
L 3525 4666 
L 3525 4397 
L 1831 0 
L 1172 0 
L 2766 4134 
L 525 4134 
L 525 4666 
z
" transform="scale(0.015625)"/>
       </defs>
       <use xlink:href="#DejaVuSans-32"/>
       <use xlink:href="#DejaVuSans-30" transform="translate(63.623047 0)"/>
       <use xlink:href="#DejaVuSans-30" transform="translate(127.246094 0)"/>
       <use xlink:href="#DejaVuSans-37" transform="translate(190.869141 0)"/>
      </g>
     </g>
    </g>
    <g id="xtick_3">
     <g id="line2d_17">
      <g>
       <use xlink:href="#m3a0bbc1ca1" x="294.558396" y="192.24" style="stroke: #000000; stroke-width: 0.8"/>
      </g>
     </g>
     <g id="text_3">
      <!-- 2008 -->
      <g transform="translate(281.833396 206.838437) scale(0.1 -0.1)">
       <defs>
        <path id="DejaVuSans-38" d="M 2034 2216 
Q 1584 2216 1326 1975 
Q 1069 1734 1069 1313 
Q 1069 891 1326 650 
Q 1584 409 2034 409 
Q 2484 409 2743 651 
Q 3003 894 3003 1313 
Q 3003 1734 2745 1975 
Q 2488 2216 2034 2216 
z
M 1403 2484 
Q 997 2584 770 2862 
Q 544 3141 544 3541 
Q 544 4100 942 4425 
Q 1341 4750 2034 4750 
Q 2731 4750 3128 4425 
Q 3525 4100 3525 3541 
Q 3525 3141 3298 2862 
Q 3072 2584 2669 2484 
Q 3125 2378 3379 2068 
Q 3634 1759 3634 1313 
Q 3634 634 3220 271 
Q 2806 -91 2034 -91 
Q 1263 -91 848 271 
Q 434 634 434 1313 
Q 434 1759 690 2068 
Q 947 2378 1403 2484 
z
M 1172 3481 
Q 1172 3119 1398 2916 
Q 1625 2713 2034 2713 
Q 2441 2713 2670 2916 
Q 2900 3119 2900 3481 
Q 2900 3844 2670 4047 
Q 2441 4250 2034 4250 
Q 1625 4250 1398 4047 
Q 1172 3844 1172 3481 
z
" transform="scale(0.015625)"/>
       </defs>
       <use xlink:href="#DejaVuSans-32"/>
       <use xlink:href="#DejaVuSans-30" transform="translate(63.623047 0)"/>
       <use xlink:href="#DejaVuSans-30" transform="translate(127.246094 0)"/>
       <use xlink:href="#DejaVuSans-38" transform="translate(190.869141 0)"/>
      </g>
     </g>
    </g>
    <g id="xtick_4">
     <g id="line2d_18">
      <g>
       <use xlink:href="#m3a0bbc1ca1" x="376.13213" y="192.24" style="stroke: #000000; stroke-width: 0.8"/>
      </g>
     </g>
     <g id="text_4">
      <!-- 2009 -->
      <g transform="translate(363.40713 206.838437) scale(0.1 -0.1)">
       <defs>
        <path id="DejaVuSans-39" d="M 703 97 
L 703 672 
Q 941 559 1184 500 
Q 1428 441 1663 441 
Q 2288 441 2617 861 
Q 2947 1281 2994 2138 
Q 2813 1869 2534 1725 
Q 2256 1581 1919 1581 
Q 1219 1581 811 2004 
Q 403 2428 403 3163 
Q 403 3881 828 4315 
Q 1253 4750 1959 4750 
Q 2769 4750 3195 4129 
Q 3622 3509 3622 2328 
Q 3622 1225 3098 567 
Q 2575 -91 1691 -91 
Q 1453 -91 1209 -44 
Q 966 3 703 97 
z
M 1959 2075 
Q 2384 2075 2632 2365 
Q 2881 2656 2881 3163 
Q 2881 3666 2632 3958 
Q 2384 4250 1959 4250 
Q 1534 4250 1286 3958 
Q 1038 3666 1038 3163 
Q 1038 2656 1286 2365 
Q 1534 2075 1959 2075 
z
" transform="scale(0.015625)"/>
       </defs>
       <use xlink:href="#DejaVuSans-32"/>
       <use xlink:href="#DejaVuSans-30" transform="translate(63.623047 0)"/>
       <use xlink:href="#DejaVuSans-30" transform="translate(127.246094 0)"/>
       <use xlink:href="#DejaVuSans-39" transform="translate(190.869141 0)"/>
      </g>
     </g>
    </g>
    <g id="xtick_5">
     <g id="line2d_19">
      <g>
       <use xlink:href="#m3a0bbc1ca1" x="457.482985" y="192.24" style="stroke: #000000; stroke-width: 0.8"/>
      </g>
     </g>
     <g id="text_5">
      <!-- 2010 -->
      <g transform="translate(444.757985 206.838437) scale(0.1 -0.1)">
       <defs>
        <path id="DejaVuSans-31" d="M 794 531 
L 1825 531 
L 1825 4091 
L 703 3866 
L 703 4441 
L 1819 4666 
L 2450 4666 
L 2450 531 
L 3481 531 
L 3481 0 
L 794 0 
L 794 531 
z
" transform="scale(0.015625)"/>
       </defs>
       <use xlink:href="#DejaVuSans-32"/>
       <use xlink:href="#DejaVuSans-30" transform="translate(63.623047 0)"/>
       <use xlink:href="#DejaVuSans-31" transform="translate(127.246094 0)"/>
       <use xlink:href="#DejaVuSans-30" transform="translate(190.869141 0)"/>
      </g>
     </g>
    </g>
    <g id="xtick_6">
     <g id="line2d_20">
      <g>
       <use xlink:href="#m3a0bbc1ca1" x="538.833839" y="192.24" style="stroke: #000000; stroke-width: 0.8"/>
      </g>
     </g>
     <g id="text_6">
      <!-- 2011 -->
      <g transform="translate(526.108839 206.838437) scale(0.1 -0.1)">
       <use xlink:href="#DejaVuSans-32"/>
       <use xlink:href="#DejaVuSans-30" transform="translate(63.623047 0)"/>
       <use xlink:href="#DejaVuSans-31" transform="translate(127.246094 0)"/>
       <use xlink:href="#DejaVuSans-31" transform="translate(190.869141 0)"/>
      </g>
     </g>
    </g>
    <g id="xtick_7">
     <g id="line2d_21">
      <g>
       <use xlink:href="#m3a0bbc1ca1" x="620.184694" y="192.24" style="stroke: #000000; stroke-width: 0.8"/>
      </g>
     </g>
     <g id="text_7">
      <!-- 2012 -->
      <g transform="translate(607.459694 206.838437) scale(0.1 -0.1)">
       <use xlink:href="#DejaVuSans-32"/>
       <use xlink:href="#DejaVuSans-30" transform="translate(63.623047 0)"/>
       <use xlink:href="#DejaVuSans-31" transform="translate(127.246094 0)"/>
       <use xlink:href="#DejaVuSans-32" transform="translate(190.869141 0)"/>
      </g>
     </g>
    </g>
    <g id="text_8">
     <!-- Date (year) -->
     <g transform="translate(340.403125 220.516562) scale(0.1 -0.1)">
      <defs>
       <path id="DejaVuSans-44" d="M 1259 4147 
L 1259 519 
L 2022 519 
Q 2988 519 3436 956 
Q 3884 1394 3884 2338 
Q 3884 3275 3436 3711 
Q 2988 4147 2022 4147 
L 1259 4147 
z
M 628 4666 
L 1925 4666 
Q 3281 4666 3915 4102 
Q 4550 3538 4550 2338 
Q 4550 1131 3912 565 
Q 3275 0 1925 0 
L 628 0 
L 628 4666 
z
" transform="scale(0.015625)"/>
       <path id="DejaVuSans-61" d="M 2194 1759 
Q 1497 1759 1228 1600 
Q 959 1441 959 1056 
Q 959 750 1161 570 
Q 1363 391 1709 391 
Q 2188 391 2477 730 
Q 2766 1069 2766 1631 
L 2766 1759 
L 2194 1759 
z
M 3341 1997 
L 3341 0 
L 2766 0 
L 2766 531 
Q 2569 213 2275 61 
Q 1981 -91 1556 -91 
Q 1019 -91 701 211 
Q 384 513 384 1019 
Q 384 1609 779 1909 
Q 1175 2209 1959 2209 
L 2766 2209 
L 2766 2266 
Q 2766 2663 2505 2880 
Q 2244 3097 1772 3097 
Q 1472 3097 1187 3025 
Q 903 2953 641 2809 
L 641 3341 
Q 956 3463 1253 3523 
Q 1550 3584 1831 3584 
Q 2591 3584 2966 3190 
Q 3341 2797 3341 1997 
z
" transform="scale(0.015625)"/>
       <path id="DejaVuSans-74" d="M 1172 4494 
L 1172 3500 
L 2356 3500 
L 2356 3053 
L 1172 3053 
L 1172 1153 
Q 1172 725 1289 603 
Q 1406 481 1766 481 
L 2356 481 
L 2356 0 
L 1766 0 
Q 1100 0 847 248 
Q 594 497 594 1153 
L 594 3053 
L 172 3053 
L 172 3500 
L 594 3500 
L 594 4494 
L 1172 4494 
z
" transform="scale(0.015625)"/>
       <path id="DejaVuSans-65" d="M 3597 1894 
L 3597 1613 
L 953 1613 
Q 991 1019 1311 708 
Q 1631 397 2203 397 
Q 2534 397 2845 478 
Q 3156 559 3463 722 
L 3463 178 
Q 3153 47 2828 -22 
Q 2503 -91 2169 -91 
Q 1331 -91 842 396 
Q 353 884 353 1716 
Q 353 2575 817 3079 
Q 1281 3584 2069 3584 
Q 2775 3584 3186 3129 
Q 3597 2675 3597 1894 
z
M 3022 2063 
Q 3016 2534 2758 2815 
Q 2500 3097 2075 3097 
Q 1594 3097 1305 2825 
Q 1016 2553 972 2059 
L 3022 2063 
z
" transform="scale(0.015625)"/>
       <path id="DejaVuSans-20" transform="scale(0.015625)"/>
       <path id="DejaVuSans-28" d="M 1984 4856 
Q 1566 4138 1362 3434 
Q 1159 2731 1159 2009 
Q 1159 1288 1364 580 
Q 1569 -128 1984 -844 
L 1484 -844 
Q 1016 -109 783 600 
Q 550 1309 550 2009 
Q 550 2706 781 3412 
Q 1013 4119 1484 4856 
L 1984 4856 
z
" transform="scale(0.015625)"/>
       <path id="DejaVuSans-79" d="M 2059 -325 
Q 1816 -950 1584 -1140 
Q 1353 -1331 966 -1331 
L 506 -1331 
L 506 -850 
L 844 -850 
Q 1081 -850 1212 -737 
Q 1344 -625 1503 -206 
L 1606 56 
L 191 3500 
L 800 3500 
L 1894 763 
L 2988 3500 
L 3597 3500 
L 2059 -325 
z
" transform="scale(0.015625)"/>
       <path id="DejaVuSans-72" d="M 2631 2963 
Q 2534 3019 2420 3045 
Q 2306 3072 2169 3072 
Q 1681 3072 1420 2755 
Q 1159 2438 1159 1844 
L 1159 0 
L 581 0 
L 581 3500 
L 1159 3500 
L 1159 2956 
Q 1341 3275 1631 3429 
Q 1922 3584 2338 3584 
Q 2397 3584 2469 3576 
Q 2541 3569 2628 3553 
L 2631 2963 
z
" transform="scale(0.015625)"/>
       <path id="DejaVuSans-29" d="M 513 4856 
L 1013 4856 
Q 1481 4119 1714 3412 
Q 1947 2706 1947 2009 
Q 1947 1309 1714 600 
Q 1481 -109 1013 -844 
L 513 -844 
Q 928 -128 1133 580 
Q 1338 1288 1338 2009 
Q 1338 2731 1133 3434 
Q 928 4138 513 4856 
z
" transform="scale(0.015625)"/>
      </defs>
      <use xlink:href="#DejaVuSans-44"/>
      <use xlink:href="#DejaVuSans-61" transform="translate(77.001953 0)"/>
      <use xlink:href="#DejaVuSans-74" transform="translate(138.28125 0)"/>
      <use xlink:href="#DejaVuSans-65" transform="translate(177.490234 0)"/>
      <use xlink:href="#DejaVuSans-20" transform="translate(239.013672 0)"/>
      <use xlink:href="#DejaVuSans-28" transform="translate(270.800781 0)"/>
      <use xlink:href="#DejaVuSans-79" transform="translate(309.814453 0)"/>
      <use xlink:href="#DejaVuSans-65" transform="translate(368.994141 0)"/>
      <use xlink:href="#DejaVuSans-61" transform="translate(430.517578 0)"/>
      <use xlink:href="#DejaVuSans-72" transform="translate(491.796875 0)"/>
      <use xlink:href="#DejaVuSans-29" transform="translate(532.910156 0)"/>
     </g>
    </g>
   </g>
   <g id="matplotlib.axis_2">
    <g id="ytick_1">
     <g id="line2d_22">
      <defs>
       <path id="mc962179bb0" d="M 0 0 
L -3.5 0 
" style="stroke: #000000; stroke-width: 0.8"/>
      </defs>
      <g>
       <use xlink:href="#mc962179bb0" x="90" y="184.68" style="stroke: #000000; stroke-width: 0.8"/>
      </g>
     </g>
     <g id="text_9">
      <!-- 0 -->
      <g transform="translate(76.6375 188.479219) scale(0.1 -0.1)">
       <use xlink:href="#DejaVuSans-30"/>
      </g>
     </g>
    </g>
    <g id="ytick_2">
     <g id="line2d_23">
      <g>
       <use xlink:href="#mc962179bb0" x="90" y="152.661176" style="stroke: #000000; stroke-width: 0.8"/>
      </g>
     </g>
     <g id="text_10">
      <!-- 20 -->
      <g transform="translate(70.275 156.460395) scale(0.1 -0.1)">
       <use xlink:href="#DejaVuSans-32"/>
       <use xlink:href="#DejaVuSans-30" transform="translate(63.623047 0)"/>
      </g>
     </g>
    </g>
    <g id="ytick_3">
     <g id="line2d_24">
      <g>
       <use xlink:href="#mc962179bb0" x="90" y="120.642353" style="stroke: #000000; stroke-width: 0.8"/>
      </g>
     </g>
     <g id="text_11">
      <!-- 40 -->
      <g transform="translate(70.275 124.441572) scale(0.1 -0.1)">
       <defs>
        <path id="DejaVuSans-34" d="M 2419 4116 
L 825 1625 
L 2419 1625 
L 2419 4116 
z
M 2253 4666 
L 3047 4666 
L 3047 1625 
L 3713 1625 
L 3713 1100 
L 3047 1100 
L 3047 0 
L 2419 0 
L 2419 1100 
L 313 1100 
L 313 1709 
L 2253 4666 
z
" transform="scale(0.015625)"/>
       </defs>
       <use xlink:href="#DejaVuSans-34"/>
       <use xlink:href="#DejaVuSans-30" transform="translate(63.623047 0)"/>
      </g>
     </g>
    </g>
    <g id="ytick_4">
     <g id="line2d_25">
      <g>
       <use xlink:href="#mc962179bb0" x="90" y="88.623529" style="stroke: #000000; stroke-width: 0.8"/>
      </g>
     </g>
     <g id="text_12">
      <!-- 60 -->
      <g transform="translate(70.275 92.422748) scale(0.1 -0.1)">
       <use xlink:href="#DejaVuSans-36"/>
       <use xlink:href="#DejaVuSans-30" transform="translate(63.623047 0)"/>
      </g>
     </g>
    </g>
    <g id="ytick_5">
     <g id="line2d_26">
      <g>
       <use xlink:href="#mc962179bb0" x="90" y="56.604706" style="stroke: #000000; stroke-width: 0.8"/>
      </g>
     </g>
     <g id="text_13">
      <!-- 80 -->
      <g transform="translate(70.275 60.403925) scale(0.1 -0.1)">
       <use xlink:href="#DejaVuSans-38"/>
       <use xlink:href="#DejaVuSans-30" transform="translate(63.623047 0)"/>
      </g>
     </g>
    </g>
    <g id="text_14">
     <!-- breadth -->
     <g transform="translate(64.195312 128.640937) rotate(-90) scale(0.1 -0.1)">
      <defs>
       <path id="DejaVuSans-62" d="M 3116 1747 
Q 3116 2381 2855 2742 
Q 2594 3103 2138 3103 
Q 1681 3103 1420 2742 
Q 1159 2381 1159 1747 
Q 1159 1113 1420 752 
Q 1681 391 2138 391 
Q 2594 391 2855 752 
Q 3116 1113 3116 1747 
z
M 1159 2969 
Q 1341 3281 1617 3432 
Q 1894 3584 2278 3584 
Q 2916 3584 3314 3078 
Q 3713 2572 3713 1747 
Q 3713 922 3314 415 
Q 2916 -91 2278 -91 
Q 1894 -91 1617 61 
Q 1341 213 1159 525 
L 1159 0 
L 581 0 
L 581 4863 
L 1159 4863 
L 1159 2969 
z
" transform="scale(0.015625)"/>
       <path id="DejaVuSans-64" d="M 2906 2969 
L 2906 4863 
L 3481 4863 
L 3481 0 
L 2906 0 
L 2906 525 
Q 2725 213 2448 61 
Q 2172 -91 1784 -91 
Q 1150 -91 751 415 
Q 353 922 353 1747 
Q 353 2572 751 3078 
Q 1150 3584 1784 3584 
Q 2172 3584 2448 3432 
Q 2725 3281 2906 2969 
z
M 947 1747 
Q 947 1113 1208 752 
Q 1469 391 1925 391 
Q 2381 391 2643 752 
Q 2906 1113 2906 1747 
Q 2906 2381 2643 2742 
Q 2381 3103 1925 3103 
Q 1469 3103 1208 2742 
Q 947 2381 947 1747 
z
" transform="scale(0.015625)"/>
       <path id="DejaVuSans-68" d="M 3513 2113 
L 3513 0 
L 2938 0 
L 2938 2094 
Q 2938 2591 2744 2837 
Q 2550 3084 2163 3084 
Q 1697 3084 1428 2787 
Q 1159 2491 1159 1978 
L 1159 0 
L 581 0 
L 581 4863 
L 1159 4863 
L 1159 2956 
Q 1366 3272 1645 3428 
Q 1925 3584 2291 3584 
Q 2894 3584 3203 3211 
Q 3513 2838 3513 2113 
z
" transform="scale(0.015625)"/>
      </defs>
      <use xlink:href="#DejaVuSans-62"/>
      <use xlink:href="#DejaVuSans-72" transform="translate(63.476562 0)"/>
      <use xlink:href="#DejaVuSans-65" transform="translate(102.339844 0)"/>
      <use xlink:href="#DejaVuSans-61" transform="translate(163.863281 0)"/>
      <use xlink:href="#DejaVuSans-64" transform="translate(225.142578 0)"/>
      <use xlink:href="#DejaVuSans-74" transform="translate(288.619141 0)"/>
      <use xlink:href="#DejaVuSans-68" transform="translate(327.828125 0)"/>
     </g>
    </g>
   </g>
   <g id="line2d_27">
    <path d="M 115.363636 157.997647 
L 163.505512 131.315294 
L 322.641157 122.421176 
" clip-path="url(#pe925b9a984)" style="fill: none"/>
    <defs>
     <path id="m94d0e769e5" d="M 0 -7.071068 
L -7.071068 -0 
L -0 7.071068 
L 0 -7.071068 
"/>
    </defs>
    <g clip-path="url(#pe925b9a984)">
     <use xlink:href="#m94d0e769e5" x="115.363636" y="157.997647" style="fill: #d32f2f"/>
     <use xlink:href="#m94d0e769e5" x="163.505512" y="131.315294" style="fill: #d32f2f"/>
     <use xlink:href="#m94d0e769e5" x="322.641157" y="122.421176" style="fill: #d32f2f"/>
    </g>
    <defs>
     <path id="me3d47ff8b5" d="M 0 -7.071068 
L 7.071068 0 
L -0 7.071068 
L 0 -7.071068 
"/>
    </defs>
    <g clip-path="url(#pe925b9a984)">
     <use xlink:href="#me3d47ff8b5" x="115.363636" y="157.997647" style="fill: #ffffff"/>
     <use xlink:href="#me3d47ff8b5" x="163.505512" y="131.315294" style="fill: #ffffff"/>
     <use xlink:href="#me3d47ff8b5" x="322.641157" y="122.421176" style="fill: #ffffff"/>
    </g>
   </g>
   <g id="line2d_28">
    <path d="M 115.363636 157.997647 
L 163.505512 131.315294 
L 322.641157 122.421176 
" clip-path="url(#pe925b9a984)" style="fill: none"/>
    <defs>
     <path id="mb18886b7c5" d="M -0 7.071068 
L 7.071068 0 
L 0 -7.071068 
L -7.071068 -0 
z
" style="stroke: #d32f2f; stroke-width: 1.5; stroke-linejoin: miter"/>
    </defs>
    <g clip-path="url(#pe925b9a984)">
     <use xlink:href="#mb18886b7c5" x="115.363636" y="157.997647" style="fill-opacity: 0; stroke: #d32f2f; stroke-width: 1.5; stroke-linejoin: miter"/>
     <use xlink:href="#mb18886b7c5" x="163.505512" y="131.315294" style="fill-opacity: 0; stroke: #d32f2f; stroke-width: 1.5; stroke-linejoin: miter"/>
     <use xlink:href="#mb18886b7c5" x="322.641157" y="122.421176" style="fill-opacity: 0; stroke: #d32f2f; stroke-width: 1.5; stroke-linejoin: miter"/>
    </g>
   </g>
   <g id="line2d_29">
    <path d="M 192.034031 184.68 
L 231.037865 184.68 
L 380.366832 184.68 
" clip-path="url(#pe925b9a984)" style="fill: none"/>
    <defs>
     <path id="mb80da69338" d="M -0 7.071068 
L 7.071068 0 
L 0 -7.071068 
L -0 7.071068 
"/>
    </defs>
    <g clip-path="url(#pe925b9a984)">
     <use xlink:href="#mb80da69338" x="192.034031" y="184.68" style="fill: #1976d2"/>
     <use xlink:href="#mb80da69338" x="231.037865" y="184.68" style="fill: #1976d2"/>
     <use xlink:href="#mb80da69338" x="380.366832" y="184.68" style="fill: #1976d2"/>
    </g>
    <defs>
     <path id="m43ebd48374" d="M -0 7.071068 
L -7.071068 -0 
L 0 -7.071068 
L -0 7.071068 
"/>
    </defs>
    <g clip-path="url(#pe925b9a984)">
     <use xlink:href="#m43ebd48374" x="192.034031" y="184.68" style="fill: #ffffff"/>
     <use xlink:href="#m43ebd48374" x="231.037865" y="184.68" style="fill: #ffffff"/>
     <use xlink:href="#m43ebd48374" x="380.366832" y="184.68" style="fill: #ffffff"/>
    </g>
   </g>
   <g id="line2d_30">
    <path d="M 192.034031 184.68 
L 231.037865 184.68 
L 380.366832 184.68 
" clip-path="url(#pe925b9a984)" style="fill: none"/>
    <defs>
     <path id="m6ded679aa7" d="M -0 7.071068 
L 7.071068 0 
L 0 -7.071068 
L -7.071068 -0 
z
" style="stroke: #1976d2; stroke-width: 1.5; stroke-linejoin: miter"/>
    </defs>
    <g clip-path="url(#pe925b9a984)">
     <use xlink:href="#m6ded679aa7" x="192.034031" y="184.68" style="fill-opacity: 0; stroke: #1976d2; stroke-width: 1.5; stroke-linejoin: miter"/>
     <use xlink:href="#m6ded679aa7" x="231.037865" y="184.68" style="fill-opacity: 0; stroke: #1976d2; stroke-width: 1.5; stroke-linejoin: miter"/>
     <use xlink:href="#m6ded679aa7" x="380.366832" y="184.68" style="fill-opacity: 0; stroke: #1976d2; stroke-width: 1.5; stroke-linejoin: miter"/>
    </g>
   </g>
   <g id="line2d_31">
    <path d="M 187.353571 175.785882 
L 221.454066 140.209412 
L 371.005911 95.738824 
" clip-path="url(#pe925b9a984)" style="fill: none"/>
    <g clip-path="url(#pe925b9a984)">
     <use xlink:href="#m94d0e769e5" x="187.353571" y="175.785882" style="fill: #d32f2f"/>
     <use xlink:href="#m94d0e769e5" x="221.454066" y="140.209412" style="fill: #d32f2f"/>
     <use xlink:href="#m94d0e769e5" x="371.005911" y="95.738824" style="fill: #d32f2f"/>
    </g>
    <g clip-path="url(#pe925b9a984)">
     <use xlink:href="#me3d47ff8b5" x="187.353571" y="175.785882" style="fill: #ffffff"/>
     <use xlink:href="#me3d47ff8b5" x="221.454066" y="140.209412" style="fill: #ffffff"/>
     <use xlink:href="#me3d47ff8b5" x="371.005911" y="95.738824" style="fill: #ffffff"/>
    </g>
   </g>
   <g id="line2d_32">
    <path d="M 187.353571 175.785882 
L 221.454066 140.209412 
L 371.005911 95.738824 
" clip-path="url(#pe925b9a984)" style="fill: none"/>
    <g clip-path="url(#pe925b9a984)">
     <use xlink:href="#mb18886b7c5" x="187.353571" y="175.785882" style="fill-opacity: 0; stroke: #d32f2f; stroke-width: 1.5; stroke-linejoin: miter"/>
     <use xlink:href="#mb18886b7c5" x="221.454066" y="140.209412" style="fill-opacity: 0; stroke: #d32f2f; stroke-width: 1.5; stroke-linejoin: miter"/>
     <use xlink:href="#mb18886b7c5" x="371.005911" y="95.738824" style="fill-opacity: 0; stroke: #d32f2f; stroke-width: 1.5; stroke-linejoin: miter"/>
    </g>
   </g>
   <g id="line2d_33">
    <path d="M 155.704745 184.68 
L 195.154338 184.68 
L 362.090749 175.785882 
" clip-path="url(#pe925b9a984)" style="fill: none"/>
    <g clip-path="url(#pe925b9a984)">
     <use xlink:href="#mb80da69338" x="155.704745" y="184.68" style="fill: #1976d2"/>
     <use xlink:href="#mb80da69338" x="195.154338" y="184.68" style="fill: #1976d2"/>
     <use xlink:href="#mb80da69338" x="362.090749" y="175.785882" style="fill: #1976d2"/>
    </g>
    <g clip-path="url(#pe925b9a984)">
     <use xlink:href="#m43ebd48374" x="155.704745" y="184.68" style="fill: #ffffff"/>
     <use xlink:href="#m43ebd48374" x="195.154338" y="184.68" style="fill: #ffffff"/>
     <use xlink:href="#m43ebd48374" x="362.090749" y="175.785882" style="fill: #ffffff"/>
    </g>
   </g>
   <g id="line2d_34">
    <path d="M 155.704745 184.68 
L 195.154338 184.68 
L 362.090749 175.785882 
" clip-path="url(#pe925b9a984)" style="fill: none"/>
    <g clip-path="url(#pe925b9a984)">
     <use xlink:href="#m6ded679aa7" x="155.704745" y="184.68" style="fill-opacity: 0; stroke: #1976d2; stroke-width: 1.5; stroke-linejoin: miter"/>
     <use xlink:href="#m6ded679aa7" x="195.154338" y="184.68" style="fill-opacity: 0; stroke: #1976d2; stroke-width: 1.5; stroke-linejoin: miter"/>
     <use xlink:href="#m6ded679aa7" x="362.090749" y="175.785882" style="fill-opacity: 0; stroke: #1976d2; stroke-width: 1.5; stroke-linejoin: miter"/>
    </g>
   </g>
   <g id="line2d_35">
    <path d="M 132.302444 184.68 
L 168.408851 122.421176 
L 308.822655 113.527059 
" clip-path="url(#pe925b9a984)" style="fill: none"/>
    <g clip-path="url(#pe925b9a984)">
     <use xlink:href="#m94d0e769e5" x="132.302444" y="184.68" style="fill: #d32f2f"/>
     <use xlink:href="#m94d0e769e5" x="168.408851" y="122.421176" style="fill: #d32f2f"/>
     <use xlink:href="#m94d0e769e5" x="308.822655" y="113.527059" style="fill: #d32f2f"/>
    </g>
    <g clip-path="url(#pe925b9a984)">
     <use xlink:href="#me3d47ff8b5" x="132.302444" y="184.68" style="fill: #ffffff"/>
     <use xlink:href="#me3d47ff8b5" x="168.408851" y="122.421176" style="fill: #ffffff"/>
     <use xlink:href="#me3d47ff8b5" x="308.822655" y="113.527059" style="fill: #ffffff"/>
    </g>
   </g>
   <g id="line2d_36">
    <path d="M 132.302444 184.68 
L 168.408851 122.421176 
L 308.822655 113.527059 
" clip-path="url(#pe925b9a984)" style="fill: none"/>
    <g clip-path="url(#pe925b9a984)">
     <use xlink:href="#mb18886b7c5" x="132.302444" y="184.68" style="fill-opacity: 0; stroke: #d32f2f; stroke-width: 1.5; stroke-linejoin: miter"/>
     <use xlink:href="#mb18886b7c5" x="168.408851" y="122.421176" style="fill-opacity: 0; stroke: #d32f2f; stroke-width: 1.5; stroke-linejoin: miter"/>
     <use xlink:href="#mb18886b7c5" x="308.822655" y="113.527059" style="fill-opacity: 0; stroke: #d32f2f; stroke-width: 1.5; stroke-linejoin: miter"/>
    </g>
   </g>
   <g id="line2d_37">
    <path d="M 163.505512 175.785882 
L 207.412686 166.891765 
L 361.644991 157.997647 
" clip-path="url(#pe925b9a984)" style="fill: none"/>
    <g clip-path="url(#pe925b9a984)">
     <use xlink:href="#mb80da69338" x="163.505512" y="175.785882" style="fill: #1976d2"/>
     <use xlink:href="#mb80da69338" x="207.412686" y="166.891765" style="fill: #1976d2"/>
     <use xlink:href="#mb80da69338" x="361.644991" y="157.997647" style="fill: #1976d2"/>
    </g>
    <g clip-path="url(#pe925b9a984)">
     <use xlink:href="#m43ebd48374" x="163.505512" y="175.785882" style="fill: #ffffff"/>
     <use xlink:href="#m43ebd48374" x="207.412686" y="166.891765" style="fill: #ffffff"/>
     <use xlink:href="#m43ebd48374" x="361.644991" y="157.997647" style="fill: #ffffff"/>
    </g>
   </g>
   <g id="line2d_38">
    <path d="M 163.505512 175.785882 
L 207.412686 166.891765 
L 361.644991 157.997647 
" clip-path="url(#pe925b9a984)" style="fill: none"/>
    <g clip-path="url(#pe925b9a984)">
     <use xlink:href="#m6ded679aa7" x="163.505512" y="175.785882" style="fill-opacity: 0; stroke: #1976d2; stroke-width: 1.5; stroke-linejoin: miter"/>
     <use xlink:href="#m6ded679aa7" x="207.412686" y="166.891765" style="fill-opacity: 0; stroke: #1976d2; stroke-width: 1.5; stroke-linejoin: miter"/>
     <use xlink:href="#m6ded679aa7" x="361.644991" y="157.997647" style="fill-opacity: 0; stroke: #1976d2; stroke-width: 1.5; stroke-linejoin: miter"/>
    </g>
   </g>
   <g id="line2d_39">
    <path d="M 116.478032 184.68 
L 155.704745 157.997647 
L 322.641157 95.738824 
" clip-path="url(#pe925b9a984)" style="fill: none"/>
    <g clip-path="url(#pe925b9a984)">
     <use xlink:href="#m94d0e769e5" x="116.478032" y="184.68" style="fill: #d32f2f"/>
     <use xlink:href="#m94d0e769e5" x="155.704745" y="157.997647" style="fill: #d32f2f"/>
     <use xlink:href="#m94d0e769e5" x="322.641157" y="95.738824" style="fill: #d32f2f"/>
    </g>
    <g clip-path="url(#pe925b9a984)">
     <use xlink:href="#me3d47ff8b5" x="116.478032" y="184.68" style="fill: #ffffff"/>
     <use xlink:href="#me3d47ff8b5" x="155.704745" y="157.997647" style="fill: #ffffff"/>
     <use xlink:href="#me3d47ff8b5" x="322.641157" y="95.738824" style="fill: #ffffff"/>
    </g>
   </g>
   <g id="line2d_40">
    <path d="M 116.478032 184.68 
L 155.704745 157.997647 
L 322.641157 95.738824 
" clip-path="url(#pe925b9a984)" style="fill: none"/>
    <g clip-path="url(#pe925b9a984)">
     <use xlink:href="#mb18886b7c5" x="116.478032" y="184.68" style="fill-opacity: 0; stroke: #d32f2f; stroke-width: 1.5; stroke-linejoin: miter"/>
     <use xlink:href="#mb18886b7c5" x="155.704745" y="157.997647" style="fill-opacity: 0; stroke: #d32f2f; stroke-width: 1.5; stroke-linejoin: miter"/>
     <use xlink:href="#mb18886b7c5" x="322.641157" y="95.738824" style="fill-opacity: 0; stroke: #d32f2f; stroke-width: 1.5; stroke-linejoin: miter"/>
    </g>
   </g>
   <g id="line2d_41">
    <path d="M 124.501678 166.891765 
L 162.168238 95.738824 
L 309.045534 86.844706 
" clip-path="url(#pe925b9a984)" style="fill: none"/>
    <g clip-path="url(#pe925b9a984)">
     <use xlink:href="#m94d0e769e5" x="124.501678" y="166.891765" style="fill: #d32f2f"/>
     <use xlink:href="#m94d0e769e5" x="162.168238" y="95.738824" style="fill: #d32f2f"/>
     <use xlink:href="#m94d0e769e5" x="309.045534" y="86.844706" style="fill: #d32f2f"/>
    </g>
    <g clip-path="url(#pe925b9a984)">
     <use xlink:href="#me3d47ff8b5" x="124.501678" y="166.891765" style="fill: #ffffff"/>
     <use xlink:href="#me3d47ff8b5" x="162.168238" y="95.738824" style="fill: #ffffff"/>
     <use xlink:href="#me3d47ff8b5" x="309.045534" y="86.844706" style="fill: #ffffff"/>
    </g>
   </g>
   <g id="line2d_42">
    <path d="M 124.501678 166.891765 
L 162.168238 95.738824 
L 309.045534 86.844706 
" clip-path="url(#pe925b9a984)" style="fill: none"/>
    <g clip-path="url(#pe925b9a984)">
     <use xlink:href="#mb18886b7c5" x="124.501678" y="166.891765" style="fill-opacity: 0; stroke: #d32f2f; stroke-width: 1.5; stroke-linejoin: miter"/>
     <use xlink:href="#mb18886b7c5" x="162.168238" y="95.738824" style="fill-opacity: 0; stroke: #d32f2f; stroke-width: 1.5; stroke-linejoin: miter"/>
     <use xlink:href="#mb18886b7c5" x="309.045534" y="86.844706" style="fill-opacity: 0; stroke: #d32f2f; stroke-width: 1.5; stroke-linejoin: miter"/>
    </g>
   </g>
   <g id="line2d_43">
    <path d="M 143.446397 140.209412 
L 179.107046 69.056471 
L 322.641157 51.268235 
" clip-path="url(#pe925b9a984)" style="fill: none"/>
    <g clip-path="url(#pe925b9a984)">
     <use xlink:href="#m94d0e769e5" x="143.446397" y="140.209412" style="fill: #d32f2f"/>
     <use xlink:href="#m94d0e769e5" x="179.107046" y="69.056471" style="fill: #d32f2f"/>
     <use xlink:href="#m94d0e769e5" x="322.641157" y="51.268235" style="fill: #d32f2f"/>
    </g>
    <g clip-path="url(#pe925b9a984)">
     <use xlink:href="#me3d47ff8b5" x="143.446397" y="140.209412" style="fill: #ffffff"/>
     <use xlink:href="#me3d47ff8b5" x="179.107046" y="69.056471" style="fill: #ffffff"/>
     <use xlink:href="#me3d47ff8b5" x="322.641157" y="51.268235" style="fill: #ffffff"/>
    </g>
   </g>
   <g id="line2d_44">
    <path d="M 143.446397 140.209412 
L 179.107046 69.056471 
L 322.641157 51.268235 
" clip-path="url(#pe925b9a984)" style="fill: none"/>
    <g clip-path="url(#pe925b9a984)">
     <use xlink:href="#mb18886b7c5" x="143.446397" y="140.209412" style="fill-opacity: 0; stroke: #d32f2f; stroke-width: 1.5; stroke-linejoin: miter"/>
     <use xlink:href="#mb18886b7c5" x="179.107046" y="69.056471" style="fill-opacity: 0; stroke: #d32f2f; stroke-width: 1.5; stroke-linejoin: miter"/>
     <use xlink:href="#mb18886b7c5" x="322.641157" y="51.268235" style="fill-opacity: 0; stroke: #d32f2f; stroke-width: 1.5; stroke-linejoin: miter"/>
    </g>
   </g>
   <g id="line2d_45">
    <path d="M 143.669276 149.103529 
L 181.112957 69.056471 
L 328.88177 33.48 
" clip-path="url(#pe925b9a984)" style="fill: none"/>
    <g clip-path="url(#pe925b9a984)">
     <use xlink:href="#m94d0e769e5" x="143.669276" y="149.103529" style="fill: #d32f2f"/>
     <use xlink:href="#m94d0e769e5" x="181.112957" y="69.056471" style="fill: #d32f2f"/>
     <use xlink:href="#m94d0e769e5" x="328.88177" y="33.48" style="fill: #d32f2f"/>
    </g>
    <g clip-path="url(#pe925b9a984)">
     <use xlink:href="#me3d47ff8b5" x="143.669276" y="149.103529" style="fill: #ffffff"/>
     <use xlink:href="#me3d47ff8b5" x="181.112957" y="69.056471" style="fill: #ffffff"/>
     <use xlink:href="#me3d47ff8b5" x="328.88177" y="33.48" style="fill: #ffffff"/>
    </g>
   </g>
   <g id="line2d_46">
    <path d="M 143.669276 149.103529 
L 181.112957 69.056471 
L 328.88177 33.48 
" clip-path="url(#pe925b9a984)" style="fill: none"/>
    <g clip-path="url(#pe925b9a984)">
     <use xlink:href="#mb18886b7c5" x="143.669276" y="149.103529" style="fill-opacity: 0; stroke: #d32f2f; stroke-width: 1.5; stroke-linejoin: miter"/>
     <use xlink:href="#mb18886b7c5" x="181.112957" y="69.056471" style="fill-opacity: 0; stroke: #d32f2f; stroke-width: 1.5; stroke-linejoin: miter"/>
     <use xlink:href="#mb18886b7c5" x="328.88177" y="33.48" style="fill-opacity: 0; stroke: #d32f2f; stroke-width: 1.5; stroke-linejoin: miter"/>
    </g>
   </g>
   <g id="line2d_47">
    <path d="M 173.089311 184.68 
L 224.351494 175.785882 
L 394.85397 166.891765 
" clip-path="url(#pe925b9a984)" style="fill: none"/>
    <g clip-path="url(#pe925b9a984)">
     <use xlink:href="#mb80da69338" x="173.089311" y="184.68" style="fill: #1976d2"/>
     <use xlink:href="#mb80da69338" x="224.351494" y="175.785882" style="fill: #1976d2"/>
     <use xlink:href="#mb80da69338" x="394.85397" y="166.891765" style="fill: #1976d2"/>
    </g>
    <g clip-path="url(#pe925b9a984)">
     <use xlink:href="#m43ebd48374" x="173.089311" y="184.68" style="fill: #ffffff"/>
     <use xlink:href="#m43ebd48374" x="224.351494" y="175.785882" style="fill: #ffffff"/>
     <use xlink:href="#m43ebd48374" x="394.85397" y="166.891765" style="fill: #ffffff"/>
    </g>
   </g>
   <g id="line2d_48">
    <path d="M 173.089311 184.68 
L 224.351494 175.785882 
L 394.85397 166.891765 
" clip-path="url(#pe925b9a984)" style="fill: none"/>
    <g clip-path="url(#pe925b9a984)">
     <use xlink:href="#m6ded679aa7" x="173.089311" y="184.68" style="fill-opacity: 0; stroke: #1976d2; stroke-width: 1.5; stroke-linejoin: miter"/>
     <use xlink:href="#m6ded679aa7" x="224.351494" y="175.785882" style="fill-opacity: 0; stroke: #1976d2; stroke-width: 1.5; stroke-linejoin: miter"/>
     <use xlink:href="#m6ded679aa7" x="394.85397" y="166.891765" style="fill-opacity: 0; stroke: #1976d2; stroke-width: 1.5; stroke-linejoin: miter"/>
    </g>
   </g>
   <g id="line2d_49">
    <path d="M 213.876178 184.68 
L 254.440166 166.891765 
L 422.490973 122.421176 
" clip-path="url(#pe925b9a984)" style="fill: none"/>
    <g clip-path="url(#pe925b9a984)">
     <use xlink:href="#mb80da69338" x="213.876178" y="184.68" style="fill: #1976d2"/>
     <use xlink:href="#mb80da69338" x="254.440166" y="166.891765" style="fill: #1976d2"/>
     <use xlink:href="#mb80da69338" x="422.490973" y="122.421176" style="fill: #1976d2"/>
    </g>
    <g clip-path="url(#pe925b9a984)">
     <use xlink:href="#m43ebd48374" x="213.876178" y="184.68" style="fill: #ffffff"/>
     <use xlink:href="#m43ebd48374" x="254.440166" y="166.891765" style="fill: #ffffff"/>
     <use xlink:href="#m43ebd48374" x="422.490973" y="122.421176" style="fill: #ffffff"/>
    </g>
   </g>
   <g id="line2d_50">
    <path d="M 213.876178 184.68 
L 254.440166 166.891765 
L 422.490973 122.421176 
" clip-path="url(#pe925b9a984)" style="fill: none"/>
    <g clip-path="url(#pe925b9a984)">
     <use xlink:href="#m6ded679aa7" x="213.876178" y="184.68" style="fill-opacity: 0; stroke: #1976d2; stroke-width: 1.5; stroke-linejoin: miter"/>
     <use xlink:href="#m6ded679aa7" x="254.440166" y="166.891765" style="fill-opacity: 0; stroke: #1976d2; stroke-width: 1.5; stroke-linejoin: miter"/>
     <use xlink:href="#m6ded679aa7" x="422.490973" y="122.421176" style="fill-opacity: 0; stroke: #1976d2; stroke-width: 1.5; stroke-linejoin: miter"/>
    </g>
   </g>
   <g id="line2d_51">
    <path d="M 367.885605 184.68 
L 410.009746 157.997647 
L 559.78447 131.315294 
" clip-path="url(#pe925b9a984)" style="fill: none"/>
    <g clip-path="url(#pe925b9a984)">
     <use xlink:href="#mb80da69338" x="367.885605" y="184.68" style="fill: #1976d2"/>
     <use xlink:href="#mb80da69338" x="410.009746" y="157.997647" style="fill: #1976d2"/>
     <use xlink:href="#mb80da69338" x="559.78447" y="131.315294" style="fill: #1976d2"/>
    </g>
    <g clip-path="url(#pe925b9a984)">
     <use xlink:href="#m43ebd48374" x="367.885605" y="184.68" style="fill: #ffffff"/>
     <use xlink:href="#m43ebd48374" x="410.009746" y="157.997647" style="fill: #ffffff"/>
     <use xlink:href="#m43ebd48374" x="559.78447" y="131.315294" style="fill: #ffffff"/>
    </g>
   </g>
   <g id="line2d_52">
    <path d="M 367.885605 184.68 
L 410.009746 157.997647 
L 559.78447 131.315294 
" clip-path="url(#pe925b9a984)" style="fill: none"/>
    <g clip-path="url(#pe925b9a984)">
     <use xlink:href="#m6ded679aa7" x="367.885605" y="184.68" style="fill-opacity: 0; stroke: #1976d2; stroke-width: 1.5; stroke-linejoin: miter"/>
     <use xlink:href="#m6ded679aa7" x="410.009746" y="157.997647" style="fill-opacity: 0; stroke: #1976d2; stroke-width: 1.5; stroke-linejoin: miter"/>
     <use xlink:href="#m6ded679aa7" x="559.78447" y="131.315294" style="fill-opacity: 0; stroke: #1976d2; stroke-width: 1.5; stroke-linejoin: miter"/>
    </g>
   </g>
   <g id="line2d_53">
    <path d="M 405.552165 184.68 
L 452.133887 175.785882 
L 622.636364 157.997647 
" clip-path="url(#pe925b9a984)" style="fill: none"/>
    <g clip-path="url(#pe925b9a984)">
     <use xlink:href="#mb80da69338" x="405.552165" y="184.68" style="fill: #1976d2"/>
     <use xlink:href="#mb80da69338" x="452.133887" y="175.785882" style="fill: #1976d2"/>
     <use xlink:href="#mb80da69338" x="622.636364" y="157.997647" style="fill: #1976d2"/>
    </g>
    <g clip-path="url(#pe925b9a984)">
     <use xlink:href="#m43ebd48374" x="405.552165" y="184.68" style="fill: #ffffff"/>
     <use xlink:href="#m43ebd48374" x="452.133887" y="175.785882" style="fill: #ffffff"/>
     <use xlink:href="#m43ebd48374" x="622.636364" y="157.997647" style="fill: #ffffff"/>
    </g>
   </g>
   <g id="line2d_54">
    <path d="M 405.552165 184.68 
L 452.133887 175.785882 
L 622.636364 157.997647 
" clip-path="url(#pe925b9a984)" style="fill: none"/>
    <g clip-path="url(#pe925b9a984)">
     <use xlink:href="#m6ded679aa7" x="405.552165" y="184.68" style="fill-opacity: 0; stroke: #1976d2; stroke-width: 1.5; stroke-linejoin: miter"/>
     <use xlink:href="#m6ded679aa7" x="452.133887" y="175.785882" style="fill-opacity: 0; stroke: #1976d2; stroke-width: 1.5; stroke-linejoin: miter"/>
     <use xlink:href="#m6ded679aa7" x="622.636364" y="157.997647" style="fill-opacity: 0; stroke: #1976d2; stroke-width: 1.5; stroke-linejoin: miter"/>
    </g>
   </g>
   <g id="patch_3">
    <path d="M 90 192.24 
L 90 25.92 
" style="fill: none; stroke: #000000; stroke-width: 0.8; stroke-linejoin: miter; stroke-linecap: square"/>
   </g>
   <g id="patch_4">
    <path d="M 90 192.24 
L 648 192.24 
" style="fill: none; stroke: #000000; stroke-width: 0.8; stroke-linejoin: miter; stroke-linecap: square"/>
   </g>
  </g>
 </g>
 <defs>
  <clipPath id="pe925b9a984">
   <rect x="90" y="25.92" width="558" height="166.32"/>
  </clipPath>
 </defs>
</svg>
