<?xml version="1.0" encoding="utf-8" standalone="no"?>
<!DOCTYPE svg PUBLIC "-//W3C//DTD SVG 1.1//EN"
  "http://www.w3.org/Graphics/SVG/1.1/DTD/svg11.dtd">
<svg xmlns:xlink="http://www.w3.org/1999/xlink" width="720pt" height="216pt" viewBox="0 0 720 216" xmlns="http://www.w3.org/2000/svg" version="1.1">
 <metadata>
  <rdf:RDF xmlns:dc="http://purl.org/dc/elements/1.1/" xmlns:cc="http://creativecommons.org/ns#" xmlns:rdf="http://www.w3.org/1999/02/22-rdf-syntax-ns#">
   <cc:Work>
    <dc:type rdf:resource="http://purl.org/dc/dcmitype/StillImage"/>
    <dc:date>2026-02-17T13:05:38.253360</dc:date>
    <dc:format>image/svg+xml</dc:format>
    <dc:creator>
     <cc:Agent>
      <dc:title>Matplotlib v3.10.6, https://matplotlib.org/</dc:title>
     </cc:Agent>
    </dc:creator>
   </cc:Work>
  </rdf:RDF>
 </metadata>
 <defs>
  <style type="text/css">*{stroke-linejoin: round; stroke-linecap: butt}</style>
 </defs>
 <g id="figure_1">
  <g id="patch_1">
   <path d="M 0 216 
L 720 216 
L 720 0 
L 0 0 
z
" style="fill: #ffffff"/>
  </g>
  <g id="axes_1">
   <g id="patch_2">
    <path d="M 90 192.24 
L 648 192.24 
L 648 25.92 
L 90 25.92 
z
" style="fill: #ffffff"/>
   </g>
   <g id="line2d_1">
    <path d="M 169.714286 151.92 
L 181.953599 147.841039 
L 210.511997 138.179967 
L 220.711425 135.030467 
L 228.870967 132.746757 
L 237.030509 130.733957 
L 243.150166 129.436142 
L 249.269822 128.34635 
L 255.389479 127.488426 
L 261.509136 126.886214 
L 271.708563 126.284334 
L 304.346732 124.581126 
L 336.984901 123.099846 
L 369.62307 121.833148 
L 404.301124 120.714185 
L 438.979179 119.820365 
L 473.657233 119.142877 
L 510.375173 118.651542 
L 547.093113 118.382405 
L 575.651511 118.32 
L 575.651511 118.32 
" clip-path="url(#p25645bb590)" style="fill: none; stroke: #d32f2f; stroke-opacity: 0.8; stroke-width: 2; stroke-linecap: square"/>
   </g>
   <g id="line2d_2">
    <path d="M 169.714286 177.12 
L 538.549721 177.12 
L 538.549721 177.12 
" clip-path="url(#p25645bb590)" style="fill: none; stroke: #1976d2; stroke-opacity: 0.8; stroke-width: 2; stroke-linecap: square"/>
   </g>
   <g id="line2d_3">
    <path d="M 169.714286 168.72 
L 180.558581 162.386382 
L 198.632405 151.771446 
L 205.861935 147.77719 
L 213.091465 144.066832 
L 218.513612 141.526541 
L 223.93576 139.237856 
L 229.357907 137.240168 
L 234.780055 135.57287 
L 243.816967 133.284677 
L 263.698174 128.44562 
L 283.579381 123.834911 
L 301.653206 119.85731 
L 319.727031 116.098048 
L 337.800855 112.571232 
L 354.067297 109.607495 
L 370.33374 106.853748 
L 386.600182 104.320273 
L 402.866624 102.017354 
L 419.133066 99.955272 
L 433.592126 98.332809 
L 448.051186 96.915984 
L 462.510246 95.71202 
L 476.969305 94.728139 
L 491.428365 93.971563 
L 505.887425 93.449515 
L 520.346485 93.169215 
L 529.383397 93.12 
L 529.383397 93.12 
" clip-path="url(#p25645bb590)" style="fill: none; stroke: #d32f2f; stroke-opacity: 0.8; stroke-width: 2; stroke-linecap: square"/>
   </g>
   <g id="line2d_4">
    <path d="M 169.714286 177.12 
L 281.425438 177.010767 
L 317.985451 176.664398 
L 354.545464 176.093948 
L 393.136589 175.263593 
L 431.727715 174.214423 
L 472.349952 172.891059 
L 515.0033 171.279702 
L 559.687761 169.370835 
L 573.905544 168.72 
L 573.905544 168.72 
" clip-path="url(#p25645bb590)" style="fill: none; stroke: #1976d2; stroke-opacity: 0.8; stroke-width: 2; stroke-linecap: square"/>
   </g>
   <g id="line2d_5">
    <path d="M 169.714286 177.12 
L 174.925864 171.783492 
L 181.874636 164.327075 
L 199.246564 145.466875 
L 204.458143 140.161775 
L 209.669721 135.199423 
L 213.144107 132.13156 
L 216.618493 129.290963 
L 220.092879 126.707607 
L 223.567264 124.411464 
L 227.04165 122.432509 
L 230.516036 120.800716 
L 233.990421 119.546058 
L 237.464807 118.698509 
L 240.939193 118.283029 
L 265.259893 116.644527 
L 289.580593 115.219522 
L 315.638486 113.915337 
L 341.696379 112.826286 
L 369.491464 111.884301 
L 399.023743 111.111294 
L 430.293214 110.524114 
L 463.299879 110.133365 
L 498.043736 109.942177 
L 515.415664 109.92 
L 515.415664 109.92 
" clip-path="url(#p25645bb590)" style="fill: none; stroke: #d32f2f; stroke-opacity: 0.8; stroke-width: 2; stroke-linecap: square"/>
   </g>
   <g id="line2d_6">
    <path d="M 169.714286 168.72 
L 222.363074 162.836874 
L 236.01276 161.611398 
L 247.71249 160.765352 
L 259.412221 160.141512 
L 308.161099 157.918416 
L 351.060111 156.181013 
L 390.059214 154.812951 
L 427.108361 153.726718 
L 462.207553 152.912109 
L 495.35679 152.353501 
L 528.506027 152.017532 
L 557.755353 151.92 
L 557.755353 151.92 
" clip-path="url(#p25645bb590)" style="fill: none; stroke: #1976d2; stroke-opacity: 0.8; stroke-width: 2; stroke-linecap: square"/>
   </g>
   <g id="line2d_7">
    <path d="M 169.714286 177.12 
L 210.292654 162.737311 
L 222.466165 158.752688 
L 232.610757 155.675539 
L 240.726431 153.413326 
L 250.871023 150.849387 
L 291.449391 140.952342 
L 321.883168 133.75961 
L 348.259107 127.757248 
L 372.606128 122.456607 
L 394.924231 117.837534 
L 415.213415 113.865953 
L 435.5026 110.136602 
L 453.762865 107.007682 
L 472.023131 104.112934 
L 488.254479 101.750951 
L 504.485826 99.600833 
L 520.717173 97.675209 
L 536.948521 95.986711 
L 553.179868 94.547968 
L 567.382297 93.503875 
L 573.469053 93.12 
L 573.469053 93.12 
" clip-path="url(#p25645bb590)" style="fill: none; stroke: #d32f2f; stroke-opacity: 0.8; stroke-width: 2; stroke-linecap: square"/>
   </g>
   <g id="line2d_8">
    <path d="M 169.714286 160.32 
L 175.162754 154.201849 
L 182.427379 145.645293 
L 200.588941 123.992125 
L 206.037409 117.906109 
L 211.485878 112.219041 
L 215.11819 108.707564 
L 218.750502 105.460792 
L 222.382815 102.513683 
L 226.015127 99.901196 
L 229.647439 97.658288 
L 233.279752 95.819918 
L 236.912064 94.421043 
L 238.72822 93.897341 
L 240.544376 93.496621 
L 242.360532 93.223255 
L 249.625157 92.70009 
L 275.051344 91.101312 
L 300.47753 89.716652 
L 327.719872 88.455753 
L 356.778371 87.346856 
L 385.83687 86.462414 
L 416.711525 85.746676 
L 449.402336 85.2147 
L 483.909303 84.874885 
L 522.048583 84.725309 
L 531.129363 84.72 
L 531.129363 84.72 
" clip-path="url(#p25645bb590)" style="fill: none; stroke: #d32f2f; stroke-opacity: 0.8; stroke-width: 2; stroke-linecap: square"/>
   </g>
   <g id="line2d_9">
    <path d="M 169.714286 135.12 
L 175.004828 128.911947 
L 182.058883 120.256529 
L 197.930509 100.561787 
L 203.221051 94.347474 
L 208.511593 88.504546 
L 212.038621 84.873683 
L 215.565649 81.495028 
L 219.092677 78.403439 
L 222.619705 75.633777 
L 226.146732 73.220899 
L 229.67376 71.199665 
L 233.200788 69.604935 
L 234.964302 68.978403 
L 236.727816 68.471568 
L 238.49133 68.088789 
L 245.545386 67.112372 
L 264.94404 64.659715 
L 284.342693 62.446907 
L 303.741347 60.46439 
L 323.14 58.702603 
L 342.538654 57.151988 
L 363.700822 55.690016 
L 384.862989 54.455568 
L 406.025157 53.436234 
L 428.950838 52.560313 
L 451.87652 51.906508 
L 476.565715 51.432713 
L 501.254911 51.178514 
L 520.653564 51.12 
L 520.653564 51.12 
" clip-path="url(#p25645bb590)" style="fill: none; stroke: #d32f2f; stroke-opacity: 0.8; stroke-width: 2; stroke-linecap: square"/>
   </g>
   <g id="line2d_10">
    <path d="M 169.714286 143.52 
L 175.182495 136.720965 
L 184.296177 124.93697 
L 197.055332 108.33818 
L 202.523542 101.491334 
L 207.991751 94.962232 
L 213.45996 88.859977 
L 217.105433 85.082822 
L 220.750906 81.576193 
L 224.396379 78.372417 
L 228.041852 75.503821 
L 231.687325 73.00273 
L 235.332798 70.901473 
L 238.978271 69.232375 
L 240.801007 68.569988 
L 244.44648 67.573441 
L 259.028372 64.086063 
L 273.610263 60.811796 
L 288.192155 57.747137 
L 302.774046 54.888584 
L 317.355938 52.232635 
L 333.760566 49.482508 
L 350.165194 46.979384 
L 366.569822 44.718276 
L 382.97445 42.694198 
L 399.379078 40.902165 
L 415.783706 39.33719 
L 432.188334 37.994287 
L 448.592962 36.86847 
L 464.99759 35.954752 
L 481.402218 35.248147 
L 499.629582 34.699878 
L 517.856947 34.394308 
L 532.438838 34.32 
L 532.438838 34.32 
" clip-path="url(#p25645bb590)" style="fill: none; stroke: #d32f2f; stroke-opacity: 0.8; stroke-width: 2; stroke-linecap: square"/>
   </g>
   <g id="line2d_11">
    <path d="M 169.714286 177.12 
L 228.640657 171.469806 
L 246.100323 170.101682 
L 261.37753 169.14367 
L 276.654737 168.441045 
L 333.398651 166.149451 
L 381.412731 164.424578 
L 425.061895 163.066838 
L 466.528601 161.994148 
L 505.812848 161.19966 
L 542.914638 160.669895 
L 577.833969 160.385878 
L 604.023467 160.32 
L 604.023467 160.32 
" clip-path="url(#p25645bb590)" style="fill: none; stroke: #1976d2; stroke-opacity: 0.8; stroke-width: 2; stroke-linecap: square"/>
   </g>
   <g id="line2d_12">
    <path d="M 169.714286 177.12 
L 212.828254 167.386146 
L 227.199577 164.387408 
L 239.517853 162.015094 
L 251.83613 159.870993 
L 299.05619 152.081518 
L 336.01102 146.213451 
L 366.806712 141.537361 
L 395.549357 137.390507 
L 422.238957 133.760336 
L 446.87551 130.623605 
L 471.512063 127.715955 
L 494.09557 125.271341 
L 516.679077 123.055972 
L 537.209538 121.255722 
L 557.739999 119.672662 
L 578.270461 118.32 
L 578.270461 118.32 
" clip-path="url(#p25645bb590)" style="fill: none; stroke: #1976d2; stroke-opacity: 0.8; stroke-width: 2; stroke-linecap: square"/>
   </g>
   <g id="line2d_13">
    <path d="M 169.714286 177.12 
L 186.711139 170.978907 
L 203.707991 164.887956 
L 213.150687 161.696969 
L 222.593383 158.744775 
L 230.14754 156.608545 
L 237.701697 154.717022 
L 245.255854 153.111039 
L 250.921472 152.118503 
L 271.695403 149.056949 
L 298.134952 145.365656 
L 322.685961 142.160391 
L 345.348432 139.411892 
L 368.010902 136.883547 
L 388.784834 134.774547 
L 409.558765 132.879298 
L 430.332696 131.211555 
L 449.218088 129.904423 
L 468.10348 128.807014 
L 486.988872 127.929664 
L 505.874264 127.282707 
L 524.759656 126.876478 
L 541.756509 126.725235 
L 545.533588 126.72 
L 545.533588 126.72 
" clip-path="url(#p25645bb590)" style="fill: none; stroke: #1976d2; stroke-opacity: 0.8; stroke-width: 2; stroke-linecap: square"/>
   </g>
   <g id="line2d_14">
    <path d="M 169.714286 177.12 
L 223.124192 171.819618 
L 244.488155 169.957134 
L 261.579325 168.676017 
L 332.080402 163.92995 
L 381.217516 160.843406 
L 421.809045 158.505098 
L 458.127782 156.619928 
L 492.310122 155.058336 
L 524.356066 153.809368 
L 554.265614 152.854094 
L 584.175162 152.122927 
L 594.857143 151.92 
L 594.857143 151.92 
" clip-path="url(#p25645bb590)" style="fill: none; stroke: #1976d2; stroke-opacity: 0.8; stroke-width: 2; stroke-linecap: square"/>
   </g>
   <g id="matplotlib.axis_1">
    <g id="xtick_1">
     <g id="line2d_15">
      <defs>
       <path id="mb6c467c62d" d="M 0 0 
L 0 3.5 
" style="stroke: #000000; stroke-width: 0.8"/>
      </defs>
      <g>
       <use xlink:href="#mb6c467c62d" x="90" y="192.24" style="stroke: #000000; stroke-width: 0.8"/>
      </g>
     </g>
     <g id="text_1">
      <!-- 0.0 -->
      <g transform="translate(82.048438 206.838437) scale(0.1 -0.1)">
       <defs>
        <path id="DejaVuSans-30" d="M 2034 4250 
Q 1547 4250 1301 3770 
Q 1056 3291 1056 2328 
Q 1056 1369 1301 889 
Q 1547 409 2034 409 
Q 2525 409 2770 889 
Q 3016 1369 3016 2328 
Q 3016 3291 2770 3770 
Q 2525 4250 2034 4250 
z
M 2034 4750 
Q 2819 4750 3233 4129 
Q 3647 3509 3647 2328 
Q 3647 1150 3233 529 
Q 2819 -91 2034 -91 
Q 1250 -91 836 529 
Q 422 1150 422 2328 
Q 422 3509 836 4129 
Q 1250 4750 2034 4750 
z
" transform="scale(0.015625)"/>
        <path id="DejaVuSans-2e" d="M 684 794 
L 1344 794 
L 1344 0 
L 684 0 
L 684 794 
z
" transform="scale(0.015625)"/>
       </defs>
       <use xlink:href="#DejaVuSans-30"/>
       <use xlink:href="#DejaVuSans-2e" transform="translate(63.623047 0)"/>
       <use xlink:href="#DejaVuSans-30" transform="translate(95.410156 0)"/>
      </g>
     </g>
    </g>
    <g id="xtick_2">
     <g id="line2d_16">
      <g>
       <use xlink:href="#mb6c467c62d" x="169.714286" y="192.24" style="stroke: #000000; stroke-width: 0.8"/>
      </g>
     </g>
     <g id="text_2">
      <!-- 0.5 -->
      <g transform="translate(161.762723 206.838437) scale(0.1 -0.1)">
       <defs>
        <path id="DejaVuSans-35" d="M 691 4666 
L 3169 4666 
L 3169 4134 
L 1269 4134 
L 1269 2991 
Q 1406 3038 1543 3061 
Q 1681 3084 1819 3084 
Q 2600 3084 3056 2656 
Q 3513 2228 3513 1497 
Q 3513 744 3044 326 
Q 2575 -91 1722 -91 
Q 1428 -91 1123 -41 
Q 819 9 494 109 
L 494 744 
Q 775 591 1075 516 
Q 1375 441 1709 441 
Q 2250 441 2565 725 
Q 2881 1009 2881 1497 
Q 2881 1984 2565 2268 
Q 2250 2553 1709 2553 
Q 1456 2553 1204 2497 
Q 953 2441 691 2322 
L 691 4666 
z
" transform="scale(0.015625)"/>
       </defs>
       <use xlink:href="#DejaVuSans-30"/>
       <use xlink:href="#DejaVuSans-2e" transform="translate(63.623047 0)"/>
       <use xlink:href="#DejaVuSans-35" transform="translate(95.410156 0)"/>
      </g>
     </g>
    </g>
    <g id="xtick_3">
     <g id="line2d_17">
      <g>
       <use xlink:href="#mb6c467c62d" x="249.428571" y="192.24" style="stroke: #000000; stroke-width: 0.8"/>
      </g>
     </g>
     <g id="text_3">
      <!-- 1.0 -->
      <g transform="translate(241.477009 206.838437) scale(0.1 -0.1)">
       <defs>
        <path id="DejaVuSans-31" d="M 794 531 
L 1825 531 
L 1825 4091 
L 703 3866 
L 703 4441 
L 1819 4666 
L 2450 4666 
L 2450 531 
L 3481 531 
L 3481 0 
L 794 0 
L 794 531 
z
" transform="scale(0.015625)"/>
       </defs>
       <use xlink:href="#DejaVuSans-31"/>
       <use xlink:href="#DejaVuSans-2e" transform="translate(63.623047 0)"/>
       <use xlink:href="#DejaVuSans-30" transform="translate(95.410156 0)"/>
      </g>
     </g>
    </g>
    <g id="xtick_4">
     <g id="line2d_18">
      <g>
       <use xlink:href="#mb6c467c62d" x="329.142857" y="192.24" style="stroke: #000000; stroke-width: 0.8"/>
      </g>
     </g>
     <g id="text_4">
      <!-- 1.5 -->
      <g transform="translate(321.191295 206.838437) scale(0.1 -0.1)">
       <use xlink:href="#DejaVuSans-31"/>
       <use xlink:href="#DejaVuSans-2e" transform="translate(63.623047 0)"/>
       <use xlink:href="#DejaVuSans-35" transform="translate(95.410156 0)"/>
      </g>
     </g>
    </g>
    <g id="xtick_5">
     <g id="line2d_19">
      <g>
       <use xlink:href="#mb6c467c62d" x="408.857143" y="192.24" style="stroke: #000000; stroke-width: 0.8"/>
      </g>
     </g>
     <g id="text_5">
      <!-- 2.0 -->
      <g transform="translate(400.90558 206.838437) scale(0.1 -0.1)">
       <defs>
        <path id="DejaVuSans-32" d="M 1228 531 
L 3431 531 
L 3431 0 
L 469 0 
L 469 531 
Q 828 903 1448 1529 
Q 2069 2156 2228 2338 
Q 2531 2678 2651 2914 
Q 2772 3150 2772 3378 
Q 2772 3750 2511 3984 
Q 2250 4219 1831 4219 
Q 1534 4219 1204 4116 
Q 875 4013 500 3803 
L 500 4441 
Q 881 4594 1212 4672 
Q 1544 4750 1819 4750 
Q 2544 4750 2975 4387 
Q 3406 4025 3406 3419 
Q 3406 3131 3298 2873 
Q 3191 2616 2906 2266 
Q 2828 2175 2409 1742 
Q 1991 1309 1228 531 
z
" transform="scale(0.015625)"/>
       </defs>
       <use xlink:href="#DejaVuSans-32"/>
       <use xlink:href="#DejaVuSans-2e" transform="translate(63.623047 0)"/>
       <use xlink:href="#DejaVuSans-30" transform="translate(95.410156 0)"/>
      </g>
     </g>
    </g>
    <g id="xtick_6">
     <g id="line2d_20">
      <g>
       <use xlink:href="#mb6c467c62d" x="488.571429" y="192.24" style="stroke: #000000; stroke-width: 0.8"/>
      </g>
     </g>
     <g id="text_6">
      <!-- 2.5 -->
      <g transform="translate(480.619866 206.838437) scale(0.1 -0.1)">
       <use xlink:href="#DejaVuSans-32"/>
       <use xlink:href="#DejaVuSans-2e" transform="translate(63.623047 0)"/>
       <use xlink:href="#DejaVuSans-35" transform="translate(95.410156 0)"/>
      </g>
     </g>
    </g>
    <g id="xtick_7">
     <g id="line2d_21">
      <g>
       <use xlink:href="#mb6c467c62d" x="568.285714" y="192.24" style="stroke: #000000; stroke-width: 0.8"/>
      </g>
     </g>
     <g id="text_7">
      <!-- 3.0 -->
      <g transform="translate(560.334152 206.838437) scale(0.1 -0.1)">
       <defs>
        <path id="DejaVuSans-33" d="M 2597 2516 
Q 3050 2419 3304 2112 
Q 3559 1806 3559 1356 
Q 3559 666 3084 287 
Q 2609 -91 1734 -91 
Q 1441 -91 1130 -33 
Q 819 25 488 141 
L 488 750 
Q 750 597 1062 519 
Q 1375 441 1716 441 
Q 2309 441 2620 675 
Q 2931 909 2931 1356 
Q 2931 1769 2642 2001 
Q 2353 2234 1838 2234 
L 1294 2234 
L 1294 2753 
L 1863 2753 
Q 2328 2753 2575 2939 
Q 2822 3125 2822 3475 
Q 2822 3834 2567 4026 
Q 2313 4219 1838 4219 
Q 1578 4219 1281 4162 
Q 984 4106 628 3988 
L 628 4550 
Q 988 4650 1302 4700 
Q 1616 4750 1894 4750 
Q 2613 4750 3031 4423 
Q 3450 4097 3450 3541 
Q 3450 3153 3228 2886 
Q 3006 2619 2597 2516 
z
" transform="scale(0.015625)"/>
       </defs>
       <use xlink:href="#DejaVuSans-33"/>
       <use xlink:href="#DejaVuSans-2e" transform="translate(63.623047 0)"/>
       <use xlink:href="#DejaVuSans-30" transform="translate(95.410156 0)"/>
      </g>
     </g>
    </g>
    <g id="xtick_8">
     <g id="line2d_22">
      <g>
       <use xlink:href="#mb6c467c62d" x="648" y="192.24" style="stroke: #000000; stroke-width: 0.8"/>
      </g>
     </g>
     <g id="text_8">
      <!-- 3.5 -->
      <g transform="translate(640.048437 206.838437) scale(0.1 -0.1)">
       <use xlink:href="#DejaVuSans-33"/>
       <use xlink:href="#DejaVuSans-2e" transform="translate(63.623047 0)"/>
       <use xlink:href="#DejaVuSans-35" transform="translate(95.410156 0)"/>
      </g>
     </g>
    </g>
    <g id="text_9">
     <!-- Time Post HIV Infection (Years) -->
     <g transform="translate(292.396094 220.516562) scale(0.1 -0.1)">
      <defs>
       <path id="DejaVuSans-54" d="M -19 4666 
L 3928 4666 
L 3928 4134 
L 2272 4134 
L 2272 0 
L 1638 0 
L 1638 4134 
L -19 4134 
L -19 4666 
z
" transform="scale(0.015625)"/>
       <path id="DejaVuSans-69" d="M 603 3500 
L 1178 3500 
L 1178 0 
L 603 0 
L 603 3500 
z
M 603 4863 
L 1178 4863 
L 1178 4134 
L 603 4134 
L 603 4863 
z
" transform="scale(0.015625)"/>
       <path id="DejaVuSans-6d" d="M 3328 2828 
Q 3544 3216 3844 3400 
Q 4144 3584 4550 3584 
Q 5097 3584 5394 3201 
Q 5691 2819 5691 2113 
L 5691 0 
L 5113 0 
L 5113 2094 
Q 5113 2597 4934 2840 
Q 4756 3084 4391 3084 
Q 3944 3084 3684 2787 
Q 3425 2491 3425 1978 
L 3425 0 
L 2847 0 
L 2847 2094 
Q 2847 2600 2669 2842 
Q 2491 3084 2119 3084 
Q 1678 3084 1418 2786 
Q 1159 2488 1159 1978 
L 1159 0 
L 581 0 
L 581 3500 
L 1159 3500 
L 1159 2956 
Q 1356 3278 1631 3431 
Q 1906 3584 2284 3584 
Q 2666 3584 2933 3390 
Q 3200 3197 3328 2828 
z
" transform="scale(0.015625)"/>
       <path id="DejaVuSans-65" d="M 3597 1894 
L 3597 1613 
L 953 1613 
Q 991 1019 1311 708 
Q 1631 397 2203 397 
Q 2534 397 2845 478 
Q 3156 559 3463 722 
L 3463 178 
Q 3153 47 2828 -22 
Q 2503 -91 2169 -91 
Q 1331 -91 842 396 
Q 353 884 353 1716 
Q 353 2575 817 3079 
Q 1281 3584 2069 3584 
Q 2775 3584 3186 3129 
Q 3597 2675 3597 1894 
z
M 3022 2063 
Q 3016 2534 2758 2815 
Q 2500 3097 2075 3097 
Q 1594 3097 1305 2825 
Q 1016 2553 972 2059 
L 3022 2063 
z
" transform="scale(0.015625)"/>
       <path id="DejaVuSans-20" transform="scale(0.015625)"/>
       <path id="DejaVuSans-50" d="M 1259 4147 
L 1259 2394 
L 2053 2394 
Q 2494 2394 2734 2622 
Q 2975 2850 2975 3272 
Q 2975 3691 2734 3919 
Q 2494 4147 2053 4147 
L 1259 4147 
z
M 628 4666 
L 2053 4666 
Q 2838 4666 3239 4311 
Q 3641 3956 3641 3272 
Q 3641 2581 3239 2228 
Q 2838 1875 2053 1875 
L 1259 1875 
L 1259 0 
L 628 0 
L 628 4666 
z
" transform="scale(0.015625)"/>
       <path id="DejaVuSans-6f" d="M 1959 3097 
Q 1497 3097 1228 2736 
Q 959 2375 959 1747 
Q 959 1119 1226 758 
Q 1494 397 1959 397 
Q 2419 397 2687 759 
Q 2956 1122 2956 1747 
Q 2956 2369 2687 2733 
Q 2419 3097 1959 3097 
z
M 1959 3584 
Q 2709 3584 3137 3096 
Q 3566 2609 3566 1747 
Q 3566 888 3137 398 
Q 2709 -91 1959 -91 
Q 1206 -91 779 398 
Q 353 888 353 1747 
Q 353 2609 779 3096 
Q 1206 3584 1959 3584 
z
" transform="scale(0.015625)"/>
       <path id="DejaVuSans-73" d="M 2834 3397 
L 2834 2853 
Q 2591 2978 2328 3040 
Q 2066 3103 1784 3103 
Q 1356 3103 1142 2972 
Q 928 2841 928 2578 
Q 928 2378 1081 2264 
Q 1234 2150 1697 2047 
L 1894 2003 
Q 2506 1872 2764 1633 
Q 3022 1394 3022 966 
Q 3022 478 2636 193 
Q 2250 -91 1575 -91 
Q 1294 -91 989 -36 
Q 684 19 347 128 
L 347 722 
Q 666 556 975 473 
Q 1284 391 1588 391 
Q 1994 391 2212 530 
Q 2431 669 2431 922 
Q 2431 1156 2273 1281 
Q 2116 1406 1581 1522 
L 1381 1569 
Q 847 1681 609 1914 
Q 372 2147 372 2553 
Q 372 3047 722 3315 
Q 1072 3584 1716 3584 
Q 2034 3584 2315 3537 
Q 2597 3491 2834 3397 
z
" transform="scale(0.015625)"/>
       <path id="DejaVuSans-74" d="M 1172 4494 
L 1172 3500 
L 2356 3500 
L 2356 3053 
L 1172 3053 
L 1172 1153 
Q 1172 725 1289 603 
Q 1406 481 1766 481 
L 2356 481 
L 2356 0 
L 1766 0 
Q 1100 0 847 248 
Q 594 497 594 1153 
L 594 3053 
L 172 3053 
L 172 3500 
L 594 3500 
L 594 4494 
L 1172 4494 
z
" transform="scale(0.015625)"/>
       <path id="DejaVuSans-48" d="M 628 4666 
L 1259 4666 
L 1259 2753 
L 3553 2753 
L 3553 4666 
L 4184 4666 
L 4184 0 
L 3553 0 
L 3553 2222 
L 1259 2222 
L 1259 0 
L 628 0 
L 628 4666 
z
" transform="scale(0.015625)"/>
       <path id="DejaVuSans-49" d="M 628 4666 
L 1259 4666 
L 1259 0 
L 628 0 
L 628 4666 
z
" transform="scale(0.015625)"/>
       <path id="DejaVuSans-56" d="M 1831 0 
L 50 4666 
L 709 4666 
L 2188 738 
L 3669 4666 
L 4325 4666 
L 2547 0 
L 1831 0 
z
" transform="scale(0.015625)"/>
       <path id="DejaVuSans-6e" d="M 3513 2113 
L 3513 0 
L 2938 0 
L 2938 2094 
Q 2938 2591 2744 2837 
Q 2550 3084 2163 3084 
Q 1697 3084 1428 2787 
Q 1159 2491 1159 1978 
L 1159 0 
L 581 0 
L 581 3500 
L 1159 3500 
L 1159 2956 
Q 1366 3272 1645 3428 
Q 1925 3584 2291 3584 
Q 2894 3584 3203 3211 
Q 3513 2838 3513 2113 
z
" transform="scale(0.015625)"/>
       <path id="DejaVuSans-66" d="M 2375 4863 
L 2375 4384 
L 1825 4384 
Q 1516 4384 1395 4259 
Q 1275 4134 1275 3809 
L 1275 3500 
L 2222 3500 
L 2222 3053 
L 1275 3053 
L 1275 0 
L 697 0 
L 697 3053 
L 147 3053 
L 147 3500 
L 697 3500 
L 697 3744 
Q 697 4328 969 4595 
Q 1241 4863 1831 4863 
L 2375 4863 
z
" transform="scale(0.015625)"/>
       <path id="DejaVuSans-63" d="M 3122 3366 
L 3122 2828 
Q 2878 2963 2633 3030 
Q 2388 3097 2138 3097 
Q 1578 3097 1268 2742 
Q 959 2388 959 1747 
Q 959 1106 1268 751 
Q 1578 397 2138 397 
Q 2388 397 2633 464 
Q 2878 531 3122 666 
L 3122 134 
Q 2881 22 2623 -34 
Q 2366 -91 2075 -91 
Q 1284 -91 818 406 
Q 353 903 353 1747 
Q 353 2603 823 3093 
Q 1294 3584 2113 3584 
Q 2378 3584 2631 3529 
Q 2884 3475 3122 3366 
z
" transform="scale(0.015625)"/>
       <path id="DejaVuSans-28" d="M 1984 4856 
Q 1566 4138 1362 3434 
Q 1159 2731 1159 2009 
Q 1159 1288 1364 580 
Q 1569 -128 1984 -844 
L 1484 -844 
Q 1016 -109 783 600 
Q 550 1309 550 2009 
Q 550 2706 781 3412 
Q 1013 4119 1484 4856 
L 1984 4856 
z
" transform="scale(0.015625)"/>
       <path id="DejaVuSans-59" d="M -13 4666 
L 666 4666 
L 1959 2747 
L 3244 4666 
L 3922 4666 
L 2272 2222 
L 2272 0 
L 1638 0 
L 1638 2222 
L -13 4666 
z
" transform="scale(0.015625)"/>
       <path id="DejaVuSans-61" d="M 2194 1759 
Q 1497 1759 1228 1600 
Q 959 1441 959 1056 
Q 959 750 1161 570 
Q 1363 391 1709 391 
Q 2188 391 2477 730 
Q 2766 1069 2766 1631 
L 2766 1759 
L 2194 1759 
z
M 3341 1997 
L 3341 0 
L 2766 0 
L 2766 531 
Q 2569 213 2275 61 
Q 1981 -91 1556 -91 
Q 1019 -91 701 211 
Q 384 513 384 1019 
Q 384 1609 779 1909 
Q 1175 2209 1959 2209 
L 2766 2209 
L 2766 2266 
Q 2766 2663 2505 2880 
Q 2244 3097 1772 3097 
Q 1472 3097 1187 3025 
Q 903 2953 641 2809 
L 641 3341 
Q 956 3463 1253 3523 
Q 1550 3584 1831 3584 
Q 2591 3584 2966 3190 
Q 3341 2797 3341 1997 
z
" transform="scale(0.015625)"/>
       <path id="DejaVuSans-72" d="M 2631 2963 
Q 2534 3019 2420 3045 
Q 2306 3072 2169 3072 
Q 1681 3072 1420 2755 
Q 1159 2438 1159 1844 
L 1159 0 
L 581 0 
L 581 3500 
L 1159 3500 
L 1159 2956 
Q 1341 3275 1631 3429 
Q 1922 3584 2338 3584 
Q 2397 3584 2469 3576 
Q 2541 3569 2628 3553 
L 2631 2963 
z
" transform="scale(0.015625)"/>
       <path id="DejaVuSans-29" d="M 513 4856 
L 1013 4856 
Q 1481 4119 1714 3412 
Q 1947 2706 1947 2009 
Q 1947 1309 1714 600 
Q 1481 -109 1013 -844 
L 513 -844 
Q 928 -128 1133 580 
Q 1338 1288 1338 2009 
Q 1338 2731 1133 3434 
Q 928 4138 513 4856 
z
" transform="scale(0.015625)"/>
      </defs>
      <use xlink:href="#DejaVuSans-54"/>
      <use xlink:href="#DejaVuSans-69" transform="translate(57.958984 0)"/>
      <use xlink:href="#DejaVuSans-6d" transform="translate(85.742188 0)"/>
      <use xlink:href="#DejaVuSans-65" transform="translate(183.154297 0)"/>
      <use xlink:href="#DejaVuSans-20" transform="translate(244.677734 0)"/>
      <use xlink:href="#DejaVuSans-50" transform="translate(276.464844 0)"/>
      <use xlink:href="#DejaVuSans-6f" transform="translate(333.142578 0)"/>
      <use xlink:href="#DejaVuSans-73" transform="translate(394.324219 0)"/>
      <use xlink:href="#DejaVuSans-74" transform="translate(446.423828 0)"/>
      <use xlink:href="#DejaVuSans-20" transform="translate(485.632812 0)"/>
      <use xlink:href="#DejaVuSans-48" transform="translate(517.419922 0)"/>
      <use xlink:href="#DejaVuSans-49" transform="translate(592.615234 0)"/>
      <use xlink:href="#DejaVuSans-56" transform="translate(622.107422 0)"/>
      <use xlink:href="#DejaVuSans-20" transform="translate(690.515625 0)"/>
      <use xlink:href="#DejaVuSans-49" transform="translate(722.302734 0)"/>
      <use xlink:href="#DejaVuSans-6e" transform="translate(751.794922 0)"/>
      <use xlink:href="#DejaVuSans-66" transform="translate(815.173828 0)"/>
      <use xlink:href="#DejaVuSans-65" transform="translate(850.378906 0)"/>
      <use xlink:href="#DejaVuSans-63" transform="translate(911.902344 0)"/>
      <use xlink:href="#DejaVuSans-74" transform="translate(966.882812 0)"/>
      <use xlink:href="#DejaVuSans-69" transform="translate(1006.091797 0)"/>
      <use xlink:href="#DejaVuSans-6f" transform="translate(1033.875 0)"/>
      <use xlink:href="#DejaVuSans-6e" transform="translate(1095.056641 0)"/>
      <use xlink:href="#DejaVuSans-20" transform="translate(1158.435547 0)"/>
      <use xlink:href="#DejaVuSans-28" transform="translate(1190.222656 0)"/>
      <use xlink:href="#DejaVuSans-59" transform="translate(1229.236328 0)"/>
      <use xlink:href="#DejaVuSans-65" transform="translate(1277.070312 0)"/>
      <use xlink:href="#DejaVuSans-61" transform="translate(1338.59375 0)"/>
      <use xlink:href="#DejaVuSans-72" transform="translate(1399.873047 0)"/>
      <use xlink:href="#DejaVuSans-73" transform="translate(1440.986328 0)"/>
      <use xlink:href="#DejaVuSans-29" transform="translate(1493.085938 0)"/>
     </g>
    </g>
   </g>
   <g id="matplotlib.axis_2">
    <g id="ytick_1">
     <g id="line2d_23">
      <defs>
       <path id="m18a1df9ec7" d="M 0 0 
L -3.5 0 
" style="stroke: #000000; stroke-width: 0.8"/>
      </defs>
      <g>
       <use xlink:href="#m18a1df9ec7" x="90" y="177.12" style="stroke: #000000; stroke-width: 0.8"/>
      </g>
     </g>
     <g id="text_10">
      <!-- 0 -->
      <g transform="translate(76.6375 180.919219) scale(0.1 -0.1)">
       <use xlink:href="#DejaVuSans-30"/>
      </g>
     </g>
    </g>
    <g id="ytick_2">
     <g id="line2d_24">
      <g>
       <use xlink:href="#m18a1df9ec7" x="90" y="146.88" style="stroke: #000000; stroke-width: 0.8"/>
      </g>
     </g>
     <g id="text_11">
      <!-- 20 -->
      <g transform="translate(70.275 150.679219) scale(0.1 -0.1)">
       <use xlink:href="#DejaVuSans-32"/>
       <use xlink:href="#DejaVuSans-30" transform="translate(63.623047 0)"/>
      </g>
     </g>
    </g>
    <g id="ytick_3">
     <g id="line2d_25">
      <g>
       <use xlink:href="#m18a1df9ec7" x="90" y="116.64" style="stroke: #000000; stroke-width: 0.8"/>
      </g>
     </g>
     <g id="text_12">
      <!-- 40 -->
      <g transform="translate(70.275 120.439219) scale(0.1 -0.1)">
       <defs>
        <path id="DejaVuSans-34" d="M 2419 4116 
L 825 1625 
L 2419 1625 
L 2419 4116 
z
M 2253 4666 
L 3047 4666 
L 3047 1625 
L 3713 1625 
L 3713 1100 
L 3047 1100 
L 3047 0 
L 2419 0 
L 2419 1100 
L 313 1100 
L 313 1709 
L 2253 4666 
z
" transform="scale(0.015625)"/>
       </defs>
       <use xlink:href="#DejaVuSans-34"/>
       <use xlink:href="#DejaVuSans-30" transform="translate(63.623047 0)"/>
      </g>
     </g>
    </g>
    <g id="ytick_4">
     <g id="line2d_26">
      <g>
       <use xlink:href="#m18a1df9ec7" x="90" y="86.4" style="stroke: #000000; stroke-width: 0.8"/>
      </g>
     </g>
     <g id="text_13">
      <!-- 60 -->
      <g transform="translate(70.275 90.199219) scale(0.1 -0.1)">
       <defs>
        <path id="DejaVuSans-36" d="M 2113 2584 
Q 1688 2584 1439 2293 
Q 1191 2003 1191 1497 
Q 1191 994 1439 701 
Q 1688 409 2113 409 
Q 2538 409 2786 701 
Q 3034 994 3034 1497 
Q 3034 2003 2786 2293 
Q 2538 2584 2113 2584 
z
M 3366 4563 
L 3366 3988 
Q 3128 4100 2886 4159 
Q 2644 4219 2406 4219 
Q 1781 4219 1451 3797 
Q 1122 3375 1075 2522 
Q 1259 2794 1537 2939 
Q 1816 3084 2150 3084 
Q 2853 3084 3261 2657 
Q 3669 2231 3669 1497 
Q 3669 778 3244 343 
Q 2819 -91 2113 -91 
Q 1303 -91 875 529 
Q 447 1150 447 2328 
Q 447 3434 972 4092 
Q 1497 4750 2381 4750 
Q 2619 4750 2861 4703 
Q 3103 4656 3366 4563 
z
" transform="scale(0.015625)"/>
       </defs>
       <use xlink:href="#DejaVuSans-36"/>
       <use xlink:href="#DejaVuSans-30" transform="translate(63.623047 0)"/>
      </g>
     </g>
    </g>
    <g id="ytick_5">
     <g id="line2d_27">
      <g>
       <use xlink:href="#m18a1df9ec7" x="90" y="56.16" style="stroke: #000000; stroke-width: 0.8"/>
      </g>
     </g>
     <g id="text_14">
      <!-- 80 -->
      <g transform="translate(70.275 59.959219) scale(0.1 -0.1)">
       <defs>
        <path id="DejaVuSans-38" d="M 2034 2216 
Q 1584 2216 1326 1975 
Q 1069 1734 1069 1313 
Q 1069 891 1326 650 
Q 1584 409 2034 409 
Q 2484 409 2743 651 
Q 3003 894 3003 1313 
Q 3003 1734 2745 1975 
Q 2488 2216 2034 2216 
z
M 1403 2484 
Q 997 2584 770 2862 
Q 544 3141 544 3541 
Q 544 4100 942 4425 
Q 1341 4750 2034 4750 
Q 2731 4750 3128 4425 
Q 3525 4100 3525 3541 
Q 3525 3141 3298 2862 
Q 3072 2584 2669 2484 
Q 3125 2378 3379 2068 
Q 3634 1759 3634 1313 
Q 3634 634 3220 271 
Q 2806 -91 2034 -91 
Q 1263 -91 848 271 
Q 434 634 434 1313 
Q 434 1759 690 2068 
Q 947 2378 1403 2484 
z
M 1172 3481 
Q 1172 3119 1398 2916 
Q 1625 2713 2034 2713 
Q 2441 2713 2670 2916 
Q 2900 3119 2900 3481 
Q 2900 3844 2670 4047 
Q 2441 4250 2034 4250 
Q 1625 4250 1398 4047 
Q 1172 3844 1172 3481 
z
" transform="scale(0.015625)"/>
       </defs>
       <use xlink:href="#DejaVuSans-38"/>
       <use xlink:href="#DejaVuSans-30" transform="translate(63.623047 0)"/>
      </g>
     </g>
    </g>
    <g id="ytick_6">
     <g id="line2d_28">
      <g>
       <use xlink:href="#m18a1df9ec7" x="90" y="25.92" style="stroke: #000000; stroke-width: 0.8"/>
      </g>
     </g>
     <g id="text_15">
      <!-- 100 -->
      <g transform="translate(63.9125 29.719219) scale(0.1 -0.1)">
       <use xlink:href="#DejaVuSans-31"/>
       <use xlink:href="#DejaVuSans-30" transform="translate(63.623047 0)"/>
       <use xlink:href="#DejaVuSans-30" transform="translate(127.246094 0)"/>
      </g>
     </g>
    </g>
    <g id="text_16">
     <!-- Breadth (%) -->
     <g transform="translate(57.832812 139.138594) rotate(-90) scale(0.1 -0.1)">
      <defs>
       <path id="DejaVuSans-42" d="M 1259 2228 
L 1259 519 
L 2272 519 
Q 2781 519 3026 730 
Q 3272 941 3272 1375 
Q 3272 1813 3026 2020 
Q 2781 2228 2272 2228 
L 1259 2228 
z
M 1259 4147 
L 1259 2741 
L 2194 2741 
Q 2656 2741 2882 2914 
Q 3109 3088 3109 3444 
Q 3109 3797 2882 3972 
Q 2656 4147 2194 4147 
L 1259 4147 
z
M 628 4666 
L 2241 4666 
Q 2963 4666 3353 4366 
Q 3744 4066 3744 3513 
Q 3744 3084 3544 2831 
Q 3344 2578 2956 2516 
Q 3422 2416 3680 2098 
Q 3938 1781 3938 1306 
Q 3938 681 3513 340 
Q 3088 0 2303 0 
L 628 0 
L 628 4666 
z
" transform="scale(0.015625)"/>
       <path id="DejaVuSans-64" d="M 2906 2969 
L 2906 4863 
L 3481 4863 
L 3481 0 
L 2906 0 
L 2906 525 
Q 2725 213 2448 61 
Q 2172 -91 1784 -91 
Q 1150 -91 751 415 
Q 353 922 353 1747 
Q 353 2572 751 3078 
Q 1150 3584 1784 3584 
Q 2172 3584 2448 3432 
Q 2725 3281 2906 2969 
z
M 947 1747 
Q 947 1113 1208 752 
Q 1469 391 1925 391 
Q 2381 391 2643 752 
Q 2906 1113 2906 1747 
Q 2906 2381 2643 2742 
Q 2381 3103 1925 3103 
Q 1469 3103 1208 2742 
Q 947 2381 947 1747 
z
" transform="scale(0.015625)"/>
       <path id="DejaVuSans-68" d="M 3513 2113 
L 3513 0 
L 2938 0 
L 2938 2094 
Q 2938 2591 2744 2837 
Q 2550 3084 2163 3084 
Q 1697 3084 1428 2787 
Q 1159 2491 1159 1978 
L 1159 0 
L 581 0 
L 581 4863 
L 1159 4863 
L 1159 2956 
Q 1366 3272 1645 3428 
Q 1925 3584 2291 3584 
Q 2894 3584 3203 3211 
Q 3513 2838 3513 2113 
z
" transform="scale(0.015625)"/>
       <path id="DejaVuSans-25" d="M 4653 2053 
Q 4381 2053 4226 1822 
Q 4072 1591 4072 1178 
Q 4072 772 4226 539 
Q 4381 306 4653 306 
Q 4919 306 5073 539 
Q 5228 772 5228 1178 
Q 5228 1588 5073 1820 
Q 4919 2053 4653 2053 
z
M 4653 2450 
Q 5147 2450 5437 2106 
Q 5728 1763 5728 1178 
Q 5728 594 5436 251 
Q 5144 -91 4653 -91 
Q 4153 -91 3862 251 
Q 3572 594 3572 1178 
Q 3572 1766 3864 2108 
Q 4156 2450 4653 2450 
z
M 1428 4353 
Q 1159 4353 1004 4120 
Q 850 3888 850 3481 
Q 850 3069 1003 2837 
Q 1156 2606 1428 2606 
Q 1700 2606 1854 2837 
Q 2009 3069 2009 3481 
Q 2009 3884 1853 4118 
Q 1697 4353 1428 4353 
z
M 4250 4750 
L 4750 4750 
L 1831 -91 
L 1331 -91 
L 4250 4750 
z
M 1428 4750 
Q 1922 4750 2215 4408 
Q 2509 4066 2509 3481 
Q 2509 2891 2217 2550 
Q 1925 2209 1428 2209 
Q 931 2209 642 2551 
Q 353 2894 353 3481 
Q 353 4063 643 4406 
Q 934 4750 1428 4750 
z
" transform="scale(0.015625)"/>
      </defs>
      <use xlink:href="#DejaVuSans-42"/>
      <use xlink:href="#DejaVuSans-72" transform="translate(68.603516 0)"/>
      <use xlink:href="#DejaVuSans-65" transform="translate(107.466797 0)"/>
      <use xlink:href="#DejaVuSans-61" transform="translate(168.990234 0)"/>
      <use xlink:href="#DejaVuSans-64" transform="translate(230.269531 0)"/>
      <use xlink:href="#DejaVuSans-74" transform="translate(293.746094 0)"/>
      <use xlink:href="#DejaVuSans-68" transform="translate(332.955078 0)"/>
      <use xlink:href="#DejaVuSans-20" transform="translate(396.333984 0)"/>
      <use xlink:href="#DejaVuSans-28" transform="translate(428.121094 0)"/>
      <use xlink:href="#DejaVuSans-25" transform="translate(467.134766 0)"/>
      <use xlink:href="#DejaVuSans-29" transform="translate(562.154297 0)"/>
     </g>
    </g>
   </g>
   <g id="line2d_29">
    <path d="M 169.714286 151.92 
L 263.99648 126.72 
L 575.651511 118.32 
" clip-path="url(#p25645bb590)" style="fill: none"/>
    <defs>
     <path id="m2401232fad" d="M 0 -7.071068 
L -7.071068 -0 
L -0 7.071068 
L 0 -7.071068 
"/>
    </defs>
    <g clip-path="url(#p25645bb590)">
     <use xlink:href="#m2401232fad" x="169.714286" y="151.92" style="fill: #d32f2f"/>
     <use xlink:href="#m2401232fad" x="263.99648" y="126.72" style="fill: #d32f2f"/>
     <use xlink:href="#m2401232fad" x="575.651511" y="118.32" style="fill: #d32f2f"/>
    </g>
    <defs>
     <path id="mc2b2082946" d="M 0 -7.071068 
L 7.071068 0 
L -0 7.071068 
L 0 -7.071068 
"/>
    </defs>
    <g clip-path="url(#p25645bb590)">
     <use xlink:href="#mc2b2082946" x="169.714286" y="151.92" style="fill: #ffffff"/>
     <use xlink:href="#mc2b2082946" x="263.99648" y="126.72" style="fill: #ffffff"/>
     <use xlink:href="#mc2b2082946" x="575.651511" y="118.32" style="fill: #ffffff"/>
    </g>
   </g>
   <g id="line2d_30">
    <path d="M 169.714286 151.92 
L 263.99648 126.72 
L 575.651511 118.32 
" clip-path="url(#p25645bb590)" style="fill: none"/>
    <defs>
     <path id="m757f27758d" d="M -0 7.071068 
L 7.071068 0 
L 0 -7.071068 
L -7.071068 -0 
z
" style="stroke: #d32f2f; stroke-width: 1.5; stroke-linejoin: miter"/>
    </defs>
    <g clip-path="url(#p25645bb590)">
     <use xlink:href="#m757f27758d" x="169.714286" y="151.92" style="fill-opacity: 0; stroke: #d32f2f; stroke-width: 1.5; stroke-linejoin: miter"/>
     <use xlink:href="#m757f27758d" x="263.99648" y="126.72" style="fill-opacity: 0; stroke: #d32f2f; stroke-width: 1.5; stroke-linejoin: miter"/>
     <use xlink:href="#m757f27758d" x="575.651511" y="118.32" style="fill-opacity: 0; stroke: #d32f2f; stroke-width: 1.5; stroke-linejoin: miter"/>
    </g>
   </g>
   <g id="line2d_31">
    <path d="M 169.714286 177.12 
L 246.100323 177.12 
L 538.549721 177.12 
" clip-path="url(#p25645bb590)" style="fill: none"/>
    <defs>
     <path id="mbcf46296bc" d="M -0 7.071068 
L 7.071068 0 
L 0 -7.071068 
L -0 7.071068 
"/>
    </defs>
    <g clip-path="url(#p25645bb590)">
     <use xlink:href="#mbcf46296bc" x="169.714286" y="177.12" style="fill: #1976d2"/>
     <use xlink:href="#mbcf46296bc" x="246.100323" y="177.12" style="fill: #1976d2"/>
     <use xlink:href="#mbcf46296bc" x="538.549721" y="177.12" style="fill: #1976d2"/>
    </g>
    <defs>
     <path id="m63d39a49e4" d="M -0 7.071068 
L -7.071068 -0 
L 0 -7.071068 
L -0 7.071068 
"/>
    </defs>
    <g clip-path="url(#p25645bb590)">
     <use xlink:href="#m63d39a49e4" x="169.714286" y="177.12" style="fill: #ffffff"/>
     <use xlink:href="#m63d39a49e4" x="246.100323" y="177.12" style="fill: #ffffff"/>
     <use xlink:href="#m63d39a49e4" x="538.549721" y="177.12" style="fill: #ffffff"/>
    </g>
   </g>
   <g id="line2d_32">
    <path d="M 169.714286 177.12 
L 246.100323 177.12 
L 538.549721 177.12 
" clip-path="url(#p25645bb590)" style="fill: none"/>
    <defs>
     <path id="mcd64b87bb7" d="M -0 7.071068 
L 7.071068 0 
L 0 -7.071068 
L -7.071068 -0 
z
" style="stroke: #1976d2; stroke-width: 1.5; stroke-linejoin: miter"/>
    </defs>
    <g clip-path="url(#p25645bb590)">
     <use xlink:href="#mcd64b87bb7" x="169.714286" y="177.12" style="fill-opacity: 0; stroke: #1976d2; stroke-width: 1.5; stroke-linejoin: miter"/>
     <use xlink:href="#mcd64b87bb7" x="246.100323" y="177.12" style="fill-opacity: 0; stroke: #1976d2; stroke-width: 1.5; stroke-linejoin: miter"/>
     <use xlink:href="#mcd64b87bb7" x="538.549721" y="177.12" style="fill-opacity: 0; stroke: #1976d2; stroke-width: 1.5; stroke-linejoin: miter"/>
    </g>
   </g>
   <g id="line2d_33">
    <path d="M 169.714286 168.72 
L 236.497507 135.12 
L 529.383397 93.12 
" clip-path="url(#p25645bb590)" style="fill: none"/>
    <g clip-path="url(#p25645bb590)">
     <use xlink:href="#m2401232fad" x="169.714286" y="168.72" style="fill: #d32f2f"/>
     <use xlink:href="#m2401232fad" x="236.497507" y="135.12" style="fill: #d32f2f"/>
     <use xlink:href="#m2401232fad" x="529.383397" y="93.12" style="fill: #d32f2f"/>
    </g>
    <g clip-path="url(#p25645bb590)">
     <use xlink:href="#mc2b2082946" x="169.714286" y="168.72" style="fill: #ffffff"/>
     <use xlink:href="#mc2b2082946" x="236.497507" y="135.12" style="fill: #ffffff"/>
     <use xlink:href="#mc2b2082946" x="529.383397" y="93.12" style="fill: #ffffff"/>
    </g>
   </g>
   <g id="line2d_34">
    <path d="M 169.714286 168.72 
L 236.497507 135.12 
L 529.383397 93.12 
" clip-path="url(#p25645bb590)" style="fill: none"/>
    <g clip-path="url(#p25645bb590)">
     <use xlink:href="#m757f27758d" x="169.714286" y="168.72" style="fill-opacity: 0; stroke: #d32f2f; stroke-width: 1.5; stroke-linejoin: miter"/>
     <use xlink:href="#m757f27758d" x="236.497507" y="135.12" style="fill-opacity: 0; stroke: #d32f2f; stroke-width: 1.5; stroke-linejoin: miter"/>
     <use xlink:href="#m757f27758d" x="529.383397" y="93.12" style="fill-opacity: 0; stroke: #d32f2f; stroke-width: 1.5; stroke-linejoin: miter"/>
    </g>
   </g>
   <g id="line2d_35">
    <path d="M 169.714286 177.12 
L 246.973306 177.12 
L 573.905544 168.72 
" clip-path="url(#p25645bb590)" style="fill: none"/>
    <g clip-path="url(#p25645bb590)">
     <use xlink:href="#mbcf46296bc" x="169.714286" y="177.12" style="fill: #1976d2"/>
     <use xlink:href="#mbcf46296bc" x="246.973306" y="177.12" style="fill: #1976d2"/>
     <use xlink:href="#mbcf46296bc" x="573.905544" y="168.72" style="fill: #1976d2"/>
    </g>
    <g clip-path="url(#p25645bb590)">
     <use xlink:href="#m63d39a49e4" x="169.714286" y="177.12" style="fill: #ffffff"/>
     <use xlink:href="#m63d39a49e4" x="246.973306" y="177.12" style="fill: #ffffff"/>
     <use xlink:href="#m63d39a49e4" x="573.905544" y="168.72" style="fill: #ffffff"/>
    </g>
   </g>
   <g id="line2d_36">
    <path d="M 169.714286 177.12 
L 246.973306 177.12 
L 573.905544 168.72 
" clip-path="url(#p25645bb590)" style="fill: none"/>
    <g clip-path="url(#p25645bb590)">
     <use xlink:href="#mcd64b87bb7" x="169.714286" y="177.12" style="fill-opacity: 0; stroke: #1976d2; stroke-width: 1.5; stroke-linejoin: miter"/>
     <use xlink:href="#mcd64b87bb7" x="246.973306" y="177.12" style="fill-opacity: 0; stroke: #1976d2; stroke-width: 1.5; stroke-linejoin: miter"/>
     <use xlink:href="#mcd64b87bb7" x="573.905544" y="168.72" style="fill-opacity: 0; stroke: #1976d2; stroke-width: 1.5; stroke-linejoin: miter"/>
    </g>
   </g>
   <g id="line2d_37">
    <path d="M 169.714286 177.12 
L 240.425931 118.32 
L 515.415664 109.92 
" clip-path="url(#p25645bb590)" style="fill: none"/>
    <g clip-path="url(#p25645bb590)">
     <use xlink:href="#m2401232fad" x="169.714286" y="177.12" style="fill: #d32f2f"/>
     <use xlink:href="#m2401232fad" x="240.425931" y="118.32" style="fill: #d32f2f"/>
     <use xlink:href="#m2401232fad" x="515.415664" y="109.92" style="fill: #d32f2f"/>
    </g>
    <g clip-path="url(#p25645bb590)">
     <use xlink:href="#mc2b2082946" x="169.714286" y="177.12" style="fill: #ffffff"/>
     <use xlink:href="#mc2b2082946" x="240.425931" y="118.32" style="fill: #ffffff"/>
     <use xlink:href="#mc2b2082946" x="515.415664" y="109.92" style="fill: #ffffff"/>
    </g>
   </g>
   <g id="line2d_38">
    <path d="M 169.714286 177.12 
L 240.425931 118.32 
L 515.415664 109.92 
" clip-path="url(#p25645bb590)" style="fill: none"/>
    <g clip-path="url(#p25645bb590)">
     <use xlink:href="#m757f27758d" x="169.714286" y="177.12" style="fill-opacity: 0; stroke: #d32f2f; stroke-width: 1.5; stroke-linejoin: miter"/>
     <use xlink:href="#m757f27758d" x="240.425931" y="118.32" style="fill-opacity: 0; stroke: #d32f2f; stroke-width: 1.5; stroke-linejoin: miter"/>
     <use xlink:href="#m757f27758d" x="515.415664" y="109.92" style="fill-opacity: 0; stroke: #d32f2f; stroke-width: 1.5; stroke-linejoin: miter"/>
    </g>
   </g>
   <g id="line2d_39">
    <path d="M 169.714286 168.72 
L 255.703139 160.32 
L 557.755353 151.92 
" clip-path="url(#p25645bb590)" style="fill: none"/>
    <g clip-path="url(#p25645bb590)">
     <use xlink:href="#mbcf46296bc" x="169.714286" y="168.72" style="fill: #1976d2"/>
     <use xlink:href="#mbcf46296bc" x="255.703139" y="160.32" style="fill: #1976d2"/>
     <use xlink:href="#mbcf46296bc" x="557.755353" y="151.92" style="fill: #1976d2"/>
    </g>
    <g clip-path="url(#p25645bb590)">
     <use xlink:href="#m63d39a49e4" x="169.714286" y="168.72" style="fill: #ffffff"/>
     <use xlink:href="#m63d39a49e4" x="255.703139" y="160.32" style="fill: #ffffff"/>
     <use xlink:href="#m63d39a49e4" x="557.755353" y="151.92" style="fill: #ffffff"/>
    </g>
   </g>
   <g id="line2d_40">
    <path d="M 169.714286 168.72 
L 255.703139 160.32 
L 557.755353 151.92 
" clip-path="url(#p25645bb590)" style="fill: none"/>
    <g clip-path="url(#p25645bb590)">
     <use xlink:href="#mcd64b87bb7" x="169.714286" y="168.72" style="fill-opacity: 0; stroke: #1976d2; stroke-width: 1.5; stroke-linejoin: miter"/>
     <use xlink:href="#mcd64b87bb7" x="255.703139" y="160.32" style="fill-opacity: 0; stroke: #1976d2; stroke-width: 1.5; stroke-linejoin: miter"/>
     <use xlink:href="#mcd64b87bb7" x="557.755353" y="151.92" style="fill-opacity: 0; stroke: #1976d2; stroke-width: 1.5; stroke-linejoin: miter"/>
    </g>
   </g>
   <g id="line2d_41">
    <path d="M 169.714286 177.12 
L 246.536814 151.92 
L 573.469053 93.12 
" clip-path="url(#p25645bb590)" style="fill: none"/>
    <g clip-path="url(#p25645bb590)">
     <use xlink:href="#m2401232fad" x="169.714286" y="177.12" style="fill: #d32f2f"/>
     <use xlink:href="#m2401232fad" x="246.536814" y="151.92" style="fill: #d32f2f"/>
     <use xlink:href="#m2401232fad" x="573.469053" y="93.12" style="fill: #d32f2f"/>
    </g>
    <g clip-path="url(#p25645bb590)">
     <use xlink:href="#mc2b2082946" x="169.714286" y="177.12" style="fill: #ffffff"/>
     <use xlink:href="#mc2b2082946" x="246.536814" y="151.92" style="fill: #ffffff"/>
     <use xlink:href="#mc2b2082946" x="573.469053" y="93.12" style="fill: #ffffff"/>
    </g>
   </g>
   <g id="line2d_42">
    <path d="M 169.714286 177.12 
L 246.536814 151.92 
L 573.469053 93.12 
" clip-path="url(#p25645bb590)" style="fill: none"/>
    <g clip-path="url(#p25645bb590)">
     <use xlink:href="#m757f27758d" x="169.714286" y="177.12" style="fill-opacity: 0; stroke: #d32f2f; stroke-width: 1.5; stroke-linejoin: miter"/>
     <use xlink:href="#m757f27758d" x="246.536814" y="151.92" style="fill-opacity: 0; stroke: #d32f2f; stroke-width: 1.5; stroke-linejoin: miter"/>
     <use xlink:href="#m757f27758d" x="573.469053" y="93.12" style="fill-opacity: 0; stroke: #d32f2f; stroke-width: 1.5; stroke-linejoin: miter"/>
    </g>
   </g>
   <g id="line2d_43">
    <path d="M 169.714286 160.32 
L 243.481373 93.12 
L 531.129363 84.72 
" clip-path="url(#p25645bb590)" style="fill: none"/>
    <g clip-path="url(#p25645bb590)">
     <use xlink:href="#m2401232fad" x="169.714286" y="160.32" style="fill: #d32f2f"/>
     <use xlink:href="#m2401232fad" x="243.481373" y="93.12" style="fill: #d32f2f"/>
     <use xlink:href="#m2401232fad" x="531.129363" y="84.72" style="fill: #d32f2f"/>
    </g>
    <g clip-path="url(#p25645bb590)">
     <use xlink:href="#mc2b2082946" x="169.714286" y="160.32" style="fill: #ffffff"/>
     <use xlink:href="#mc2b2082946" x="243.481373" y="93.12" style="fill: #ffffff"/>
     <use xlink:href="#mc2b2082946" x="531.129363" y="84.72" style="fill: #ffffff"/>
    </g>
   </g>
   <g id="line2d_44">
    <path d="M 169.714286 160.32 
L 243.481373 93.12 
L 531.129363 84.72 
" clip-path="url(#p25645bb590)" style="fill: none"/>
    <g clip-path="url(#p25645bb590)">
     <use xlink:href="#m757f27758d" x="169.714286" y="160.32" style="fill-opacity: 0; stroke: #d32f2f; stroke-width: 1.5; stroke-linejoin: miter"/>
     <use xlink:href="#m757f27758d" x="243.481373" y="93.12" style="fill-opacity: 0; stroke: #d32f2f; stroke-width: 1.5; stroke-linejoin: miter"/>
     <use xlink:href="#m757f27758d" x="531.129363" y="84.72" style="fill-opacity: 0; stroke: #d32f2f; stroke-width: 1.5; stroke-linejoin: miter"/>
    </g>
   </g>
   <g id="line2d_45">
    <path d="M 169.714286 135.12 
L 239.552948 67.92 
L 520.653564 51.12 
" clip-path="url(#p25645bb590)" style="fill: none"/>
    <g clip-path="url(#p25645bb590)">
     <use xlink:href="#m2401232fad" x="169.714286" y="135.12" style="fill: #d32f2f"/>
     <use xlink:href="#m2401232fad" x="239.552948" y="67.92" style="fill: #d32f2f"/>
     <use xlink:href="#m2401232fad" x="520.653564" y="51.12" style="fill: #d32f2f"/>
    </g>
    <g clip-path="url(#p25645bb590)">
     <use xlink:href="#mc2b2082946" x="169.714286" y="135.12" style="fill: #ffffff"/>
     <use xlink:href="#mc2b2082946" x="239.552948" y="67.92" style="fill: #ffffff"/>
     <use xlink:href="#mc2b2082946" x="520.653564" y="51.12" style="fill: #ffffff"/>
    </g>
   </g>
   <g id="line2d_46">
    <path d="M 169.714286 135.12 
L 239.552948 67.92 
L 520.653564 51.12 
" clip-path="url(#p25645bb590)" style="fill: none"/>
    <g clip-path="url(#p25645bb590)">
     <use xlink:href="#m757f27758d" x="169.714286" y="135.12" style="fill-opacity: 0; stroke: #d32f2f; stroke-width: 1.5; stroke-linejoin: miter"/>
     <use xlink:href="#m757f27758d" x="239.552948" y="67.92" style="fill-opacity: 0; stroke: #d32f2f; stroke-width: 1.5; stroke-linejoin: miter"/>
     <use xlink:href="#m757f27758d" x="520.653564" y="51.12" style="fill-opacity: 0; stroke: #d32f2f; stroke-width: 1.5; stroke-linejoin: miter"/>
    </g>
   </g>
   <g id="line2d_47">
    <path d="M 169.714286 143.52 
L 243.044881 67.92 
L 532.438838 34.32 
" clip-path="url(#p25645bb590)" style="fill: none"/>
    <g clip-path="url(#p25645bb590)">
     <use xlink:href="#m2401232fad" x="169.714286" y="143.52" style="fill: #d32f2f"/>
     <use xlink:href="#m2401232fad" x="243.044881" y="67.92" style="fill: #d32f2f"/>
     <use xlink:href="#m2401232fad" x="532.438838" y="34.32" style="fill: #d32f2f"/>
    </g>
    <g clip-path="url(#p25645bb590)">
     <use xlink:href="#mc2b2082946" x="169.714286" y="143.52" style="fill: #ffffff"/>
     <use xlink:href="#mc2b2082946" x="243.044881" y="67.92" style="fill: #ffffff"/>
     <use xlink:href="#mc2b2082946" x="532.438838" y="34.32" style="fill: #ffffff"/>
    </g>
   </g>
   <g id="line2d_48">
    <path d="M 169.714286 143.52 
L 243.044881 67.92 
L 532.438838 34.32 
" clip-path="url(#p25645bb590)" style="fill: none"/>
    <g clip-path="url(#p25645bb590)">
     <use xlink:href="#m757f27758d" x="169.714286" y="143.52" style="fill-opacity: 0; stroke: #d32f2f; stroke-width: 1.5; stroke-linejoin: miter"/>
     <use xlink:href="#m757f27758d" x="243.044881" y="67.92" style="fill-opacity: 0; stroke: #d32f2f; stroke-width: 1.5; stroke-linejoin: miter"/>
     <use xlink:href="#m757f27758d" x="532.438838" y="34.32" style="fill-opacity: 0; stroke: #d32f2f; stroke-width: 1.5; stroke-linejoin: miter"/>
    </g>
   </g>
   <g id="line2d_49">
    <path d="M 169.714286 177.12 
L 270.107363 168.72 
L 604.023467 160.32 
" clip-path="url(#p25645bb590)" style="fill: none"/>
    <g clip-path="url(#p25645bb590)">
     <use xlink:href="#mbcf46296bc" x="169.714286" y="177.12" style="fill: #1976d2"/>
     <use xlink:href="#mbcf46296bc" x="270.107363" y="168.72" style="fill: #1976d2"/>
     <use xlink:href="#mbcf46296bc" x="604.023467" y="160.32" style="fill: #1976d2"/>
    </g>
    <g clip-path="url(#p25645bb590)">
     <use xlink:href="#m63d39a49e4" x="169.714286" y="177.12" style="fill: #ffffff"/>
     <use xlink:href="#m63d39a49e4" x="270.107363" y="168.72" style="fill: #ffffff"/>
     <use xlink:href="#m63d39a49e4" x="604.023467" y="160.32" style="fill: #ffffff"/>
    </g>
   </g>
   <g id="line2d_50">
    <path d="M 169.714286 177.12 
L 270.107363 168.72 
L 604.023467 160.32 
" clip-path="url(#p25645bb590)" style="fill: none"/>
    <g clip-path="url(#p25645bb590)">
     <use xlink:href="#mcd64b87bb7" x="169.714286" y="177.12" style="fill-opacity: 0; stroke: #1976d2; stroke-width: 1.5; stroke-linejoin: miter"/>
     <use xlink:href="#mcd64b87bb7" x="270.107363" y="168.72" style="fill-opacity: 0; stroke: #1976d2; stroke-width: 1.5; stroke-linejoin: miter"/>
     <use xlink:href="#mcd64b87bb7" x="604.023467" y="160.32" style="fill-opacity: 0; stroke: #1976d2; stroke-width: 1.5; stroke-linejoin: miter"/>
    </g>
   </g>
   <g id="line2d_51">
    <path d="M 169.714286 177.12 
L 249.155764 160.32 
L 578.270461 118.32 
" clip-path="url(#p25645bb590)" style="fill: none"/>
    <g clip-path="url(#p25645bb590)">
     <use xlink:href="#mbcf46296bc" x="169.714286" y="177.12" style="fill: #1976d2"/>
     <use xlink:href="#mbcf46296bc" x="249.155764" y="160.32" style="fill: #1976d2"/>
     <use xlink:href="#mbcf46296bc" x="578.270461" y="118.32" style="fill: #1976d2"/>
    </g>
    <g clip-path="url(#p25645bb590)">
     <use xlink:href="#m63d39a49e4" x="169.714286" y="177.12" style="fill: #ffffff"/>
     <use xlink:href="#m63d39a49e4" x="249.155764" y="160.32" style="fill: #ffffff"/>
     <use xlink:href="#m63d39a49e4" x="578.270461" y="118.32" style="fill: #ffffff"/>
    </g>
   </g>
   <g id="line2d_52">
    <path d="M 169.714286 177.12 
L 249.155764 160.32 
L 578.270461 118.32 
" clip-path="url(#p25645bb590)" style="fill: none"/>
    <g clip-path="url(#p25645bb590)">
     <use xlink:href="#mcd64b87bb7" x="169.714286" y="177.12" style="fill-opacity: 0; stroke: #1976d2; stroke-width: 1.5; stroke-linejoin: miter"/>
     <use xlink:href="#mcd64b87bb7" x="249.155764" y="160.32" style="fill-opacity: 0; stroke: #1976d2; stroke-width: 1.5; stroke-linejoin: miter"/>
     <use xlink:href="#mcd64b87bb7" x="578.270461" y="118.32" style="fill-opacity: 0; stroke: #1976d2; stroke-width: 1.5; stroke-linejoin: miter"/>
    </g>
   </g>
   <g id="line2d_53">
    <path d="M 169.714286 177.12 
L 252.211206 151.92 
L 545.533588 126.72 
" clip-path="url(#p25645bb590)" style="fill: none"/>
    <g clip-path="url(#p25645bb590)">
     <use xlink:href="#mbcf46296bc" x="169.714286" y="177.12" style="fill: #1976d2"/>
     <use xlink:href="#mbcf46296bc" x="252.211206" y="151.92" style="fill: #1976d2"/>
     <use xlink:href="#mbcf46296bc" x="545.533588" y="126.72" style="fill: #1976d2"/>
    </g>
    <g clip-path="url(#p25645bb590)">
     <use xlink:href="#m63d39a49e4" x="169.714286" y="177.12" style="fill: #ffffff"/>
     <use xlink:href="#m63d39a49e4" x="252.211206" y="151.92" style="fill: #ffffff"/>
     <use xlink:href="#m63d39a49e4" x="545.533588" y="126.72" style="fill: #ffffff"/>
    </g>
   </g>
   <g id="line2d_54">
    <path d="M 169.714286 177.12 
L 252.211206 151.92 
L 545.533588 126.72 
" clip-path="url(#p25645bb590)" style="fill: none"/>
    <g clip-path="url(#p25645bb590)">
     <use xlink:href="#mcd64b87bb7" x="169.714286" y="177.12" style="fill-opacity: 0; stroke: #1976d2; stroke-width: 1.5; stroke-linejoin: miter"/>
     <use xlink:href="#mcd64b87bb7" x="252.211206" y="151.92" style="fill-opacity: 0; stroke: #1976d2; stroke-width: 1.5; stroke-linejoin: miter"/>
     <use xlink:href="#mcd64b87bb7" x="545.533588" y="126.72" style="fill-opacity: 0; stroke: #1976d2; stroke-width: 1.5; stroke-linejoin: miter"/>
    </g>
   </g>
   <g id="line2d_55">
    <path d="M 169.714286 177.12 
L 260.941038 168.72 
L 594.857143 151.92 
" clip-path="url(#p25645bb590)" style="fill: none"/>
    <g clip-path="url(#p25645bb590)">
     <use xlink:href="#mbcf46296bc" x="169.714286" y="177.12" style="fill: #1976d2"/>
     <use xlink:href="#mbcf46296bc" x="260.941038" y="168.72" style="fill: #1976d2"/>
     <use xlink:href="#mbcf46296bc" x="594.857143" y="151.92" style="fill: #1976d2"/>
    </g>
    <g clip-path="url(#p25645bb590)">
     <use xlink:href="#m63d39a49e4" x="169.714286" y="177.12" style="fill: #ffffff"/>
     <use xlink:href="#m63d39a49e4" x="260.941038" y="168.72" style="fill: #ffffff"/>
     <use xlink:href="#m63d39a49e4" x="594.857143" y="151.92" style="fill: #ffffff"/>
    </g>
   </g>
   <g id="line2d_56">
    <path d="M 169.714286 177.12 
L 260.941038 168.72 
L 594.857143 151.92 
" clip-path="url(#p25645bb590)" style="fill: none"/>
    <g clip-path="url(#p25645bb590)">
     <use xlink:href="#mcd64b87bb7" x="169.714286" y="177.12" style="fill-opacity: 0; stroke: #1976d2; stroke-width: 1.5; stroke-linejoin: miter"/>
     <use xlink:href="#mcd64b87bb7" x="260.941038" y="168.72" style="fill-opacity: 0; stroke: #1976d2; stroke-width: 1.5; stroke-linejoin: miter"/>
     <use xlink:href="#mcd64b87bb7" x="594.857143" y="151.92" style="fill-opacity: 0; stroke: #1976d2; stroke-width: 1.5; stroke-linejoin: miter"/>
    </g>
   </g>
   <g id="patch_3">
    <path d="M 90 192.24 
L 90 25.92 
" style="fill: none; stroke: #000000; stroke-width: 0.8; stroke-linejoin: miter; stroke-linecap: square"/>
   </g>
   <g id="patch_4">
    <path d="M 90 192.24 
L 648 192.24 
" style="fill: none; stroke: #000000; stroke-width: 0.8; stroke-linejoin: miter; stroke-linecap: square"/>
   </g>
  </g>
 </g>
 <defs>
  <clipPath id="p25645bb590">
   <rect x="90" y="25.92" width="558" height="166.32"/>
  </clipPath>
 </defs>
</svg>
