<?xml version="1.0" encoding="utf-8" standalone="no"?>
<!DOCTYPE svg PUBLIC "-//W3C//DTD SVG 1.1//EN"
  "http://www.w3.org/Graphics/SVG/1.1/DTD/svg11.dtd">
<svg xmlns:xlink="http://www.w3.org/1999/xlink" width="1152pt" height="144pt" viewBox="0 0 1152 144" xmlns="http://www.w3.org/2000/svg" version="1.1">
 <metadata>
  <rdf:RDF xmlns:dc="http://purl.org/dc/elements/1.1/" xmlns:cc="http://creativecommons.org/ns#" xmlns:rdf="http://www.w3.org/1999/02/22-rdf-syntax-ns#">
   <cc:Work>
    <dc:type rdf:resource="http://purl.org/dc/dcmitype/StillImage"/>
    <dc:date>2026-02-23T15:42:37.977923</dc:date>
    <dc:format>image/svg+xml</dc:format>
    <dc:creator>
     <cc:Agent>
      <dc:title>Matplotlib v3.10.6, https://matplotlib.org/</dc:title>
     </cc:Agent>
    </dc:creator>
   </cc:Work>
  </rdf:RDF>
 </metadata>
 <defs>
  <style type="text/css">*{stroke-linejoin: round; stroke-linecap: butt}</style>
 </defs>
 <g id="figure_1">
  <g id="patch_1">
   <path d="M 0 144 
L 1152 144 
L 1152 0 
L 0 0 
z
" style="fill: #ffffff"/>
  </g>
  <g id="axes_1">
   <g id="patch_2">
    <path d="M 144 128.16 
L 1036.8 128.16 
L 1036.8 17.28 
L 144 17.28 
z
" style="fill: #ffffff"/>
   </g>
   <g id="patch_3">
    <path d="M 199.8 128.16 
L 255.6 128.16 
L 255.6 17.28 
L 199.8 17.28 
z
" clip-path="url(#p395e7a35e5)" style="fill: #cccccc; opacity: 0.3; stroke: #cccccc; stroke-linejoin: miter"/>
   </g>
   <g id="patch_4">
    <path d="M 311.4 128.16 
L 367.2 128.16 
L 367.2 17.28 
L 311.4 17.28 
z
" clip-path="url(#p395e7a35e5)" style="fill: #cccccc; opacity: 0.3; stroke: #cccccc; stroke-linejoin: miter"/>
   </g>
   <g id="patch_5">
    <path d="M 423 128.16 
L 478.8 128.16 
L 478.8 17.28 
L 423 17.28 
z
" clip-path="url(#p395e7a35e5)" style="fill: #cccccc; opacity: 0.3; stroke: #cccccc; stroke-linejoin: miter"/>
   </g>
   <g id="patch_6">
    <path d="M 534.6 128.16 
L 590.4 128.16 
L 590.4 17.28 
L 534.6 17.28 
z
" clip-path="url(#p395e7a35e5)" style="fill: #cccccc; opacity: 0.3; stroke: #cccccc; stroke-linejoin: miter"/>
   </g>
   <g id="patch_7">
    <path d="M 646.2 128.16 
L 702 128.16 
L 702 17.28 
L 646.2 17.28 
z
" clip-path="url(#p395e7a35e5)" style="fill: #cccccc; opacity: 0.3; stroke: #cccccc; stroke-linejoin: miter"/>
   </g>
   <g id="patch_8">
    <path d="M 757.8 128.16 
L 813.6 128.16 
L 813.6 17.28 
L 757.8 17.28 
z
" clip-path="url(#p395e7a35e5)" style="fill: #cccccc; opacity: 0.3; stroke: #cccccc; stroke-linejoin: miter"/>
   </g>
   <g id="patch_9">
    <path d="M 869.4 128.16 
L 925.2 128.16 
L 925.2 17.28 
L 869.4 17.28 
z
" clip-path="url(#p395e7a35e5)" style="fill: #cccccc; opacity: 0.3; stroke: #cccccc; stroke-linejoin: miter"/>
   </g>
   <g id="patch_10">
    <path d="M 148.65 128.16 
L 157.95 128.16 
L 157.95 22.565388 
L 148.65 22.565388 
z
" clip-path="url(#p395e7a35e5)" style="fill: #9a0007"/>
   </g>
   <g id="patch_11">
    <path d="M 167.25 128.16 
L 176.55 128.16 
L 176.55 22.561269 
L 167.25 22.561269 
z
" clip-path="url(#p395e7a35e5)" style="fill: #9a0007"/>
   </g>
   <g id="patch_12">
    <path d="M 185.85 128.16 
L 195.15 128.16 
L 195.15 22.714921 
L 185.85 22.714921 
z
" clip-path="url(#p395e7a35e5)" style="fill: #9a0007"/>
   </g>
   <g id="patch_13">
    <path d="M 204.45 128.16 
L 213.75 128.16 
L 213.75 22.661326 
L 204.45 22.661326 
z
" clip-path="url(#p395e7a35e5)" style="fill: #9a0007"/>
   </g>
   <g id="patch_14">
    <path d="M 223.05 128.16 
L 232.35 128.16 
L 232.35 22.854026 
L 223.05 22.854026 
z
" clip-path="url(#p395e7a35e5)" style="fill: #9a0007"/>
   </g>
   <g id="patch_15">
    <path d="M 241.65 128.16 
L 250.95 128.16 
L 250.95 22.76889 
L 241.65 22.76889 
z
" clip-path="url(#p395e7a35e5)" style="fill: #9a0007"/>
   </g>
   <g id="patch_16">
    <path d="M 260.25 128.16 
L 269.55 128.16 
L 269.55 22.560029 
L 260.25 22.560029 
z
" clip-path="url(#p395e7a35e5)" style="fill: #9a0007"/>
   </g>
   <g id="patch_17">
    <path d="M 278.85 128.16 
L 288.15 128.16 
L 288.15 22.664183 
L 278.85 22.664183 
z
" clip-path="url(#p395e7a35e5)" style="fill: #9a0007"/>
   </g>
   <g id="patch_18">
    <path d="M 297.45 128.16 
L 306.75 128.16 
L 306.75 22.657329 
L 297.45 22.657329 
z
" clip-path="url(#p395e7a35e5)" style="fill: #9a0007"/>
   </g>
   <g id="patch_19">
    <path d="M 316.05 128.16 
L 325.35 128.16 
L 325.35 22.64298 
L 316.05 22.64298 
z
" clip-path="url(#p395e7a35e5)" style="fill: #9a0007"/>
   </g>
   <g id="patch_20">
    <path d="M 334.65 128.16 
L 343.95 128.16 
L 343.95 22.969611 
L 334.65 22.969611 
z
" clip-path="url(#p395e7a35e5)" style="fill: #9a0007"/>
   </g>
   <g id="patch_21">
    <path d="M 353.25 128.16 
L 362.55 128.16 
L 362.55 23.385188 
L 353.25 23.385188 
z
" clip-path="url(#p395e7a35e5)" style="fill: #9a0007"/>
   </g>
   <g id="patch_22">
    <path d="M 371.85 128.16 
L 381.15 128.16 
L 381.15 22.699716 
L 371.85 22.699716 
z
" clip-path="url(#p395e7a35e5)" style="fill: #9a0007"/>
   </g>
   <g id="patch_23">
    <path d="M 390.45 128.16 
L 399.75 128.16 
L 399.75 22.700215 
L 390.45 22.700215 
z
" clip-path="url(#p395e7a35e5)" style="fill: #9a0007"/>
   </g>
   <g id="patch_24">
    <path d="M 409.05 128.16 
L 418.35 128.16 
L 418.35 128.16 
L 409.05 128.16 
z
" clip-path="url(#p395e7a35e5)" style="fill: #9a0007"/>
   </g>
   <g id="patch_25">
    <path d="M 427.65 128.16 
L 436.95 128.16 
L 436.95 22.64833 
L 427.65 22.64833 
z
" clip-path="url(#p395e7a35e5)" style="fill: #9a0007"/>
   </g>
   <g id="patch_26">
    <path d="M 446.25 128.16 
L 455.55 128.16 
L 455.55 22.637342 
L 446.25 22.637342 
z
" clip-path="url(#p395e7a35e5)" style="fill: #9a0007"/>
   </g>
   <g id="patch_27">
    <path d="M 464.85 128.16 
L 474.15 128.16 
L 474.15 22.659854 
L 464.85 22.659854 
z
" clip-path="url(#p395e7a35e5)" style="fill: #9a0007"/>
   </g>
   <g id="patch_28">
    <path d="M 483.45 128.16 
L 492.75 128.16 
L 492.75 22.70882 
L 483.45 22.70882 
z
" clip-path="url(#p395e7a35e5)" style="fill: #9a0007"/>
   </g>
   <g id="patch_29">
    <path d="M 502.05 128.16 
L 511.35 128.16 
L 511.35 22.660542 
L 502.05 22.660542 
z
" clip-path="url(#p395e7a35e5)" style="fill: #9a0007"/>
   </g>
   <g id="patch_30">
    <path d="M 520.65 128.16 
L 529.95 128.16 
L 529.95 22.647125 
L 520.65 22.647125 
z
" clip-path="url(#p395e7a35e5)" style="fill: #9a0007"/>
   </g>
   <g id="patch_31">
    <path d="M 539.25 128.16 
L 548.55 128.16 
L 548.55 22.673342 
L 539.25 22.673342 
z
" clip-path="url(#p395e7a35e5)" style="fill: #9a0007"/>
   </g>
   <g id="patch_32">
    <path d="M 557.85 128.16 
L 567.15 128.16 
L 567.15 22.659144 
L 557.85 22.659144 
z
" clip-path="url(#p395e7a35e5)" style="fill: #9a0007"/>
   </g>
   <g id="patch_33">
    <path d="M 576.45 128.16 
L 585.75 128.16 
L 585.75 22.786705 
L 576.45 22.786705 
z
" clip-path="url(#p395e7a35e5)" style="fill: #9a0007"/>
   </g>
   <g id="patch_34">
    <path d="M 595.05 128.16 
L 604.35 128.16 
L 604.35 22.745901 
L 595.05 22.745901 
z
" clip-path="url(#p395e7a35e5)" style="fill: #9a0007"/>
   </g>
   <g id="patch_35">
    <path d="M 613.65 128.16 
L 622.95 128.16 
L 622.95 22.709325 
L 613.65 22.709325 
z
" clip-path="url(#p395e7a35e5)" style="fill: #9a0007"/>
   </g>
   <g id="patch_36">
    <path d="M 632.25 128.16 
L 641.55 128.16 
L 641.55 22.758995 
L 632.25 22.758995 
z
" clip-path="url(#p395e7a35e5)" style="fill: #9a0007"/>
   </g>
   <g id="patch_37">
    <path d="M 650.85 128.16 
L 660.15 128.16 
L 660.15 22.928548 
L 650.85 22.928548 
z
" clip-path="url(#p395e7a35e5)" style="fill: #9a0007"/>
   </g>
   <g id="patch_38">
    <path d="M 669.45 128.16 
L 678.75 128.16 
L 678.75 23.382614 
L 669.45 23.382614 
z
" clip-path="url(#p395e7a35e5)" style="fill: #9a0007"/>
   </g>
   <g id="patch_39">
    <path d="M 688.05 128.16 
L 697.35 128.16 
L 697.35 22.863386 
L 688.05 22.863386 
z
" clip-path="url(#p395e7a35e5)" style="fill: #9a0007"/>
   </g>
   <g id="patch_40">
    <path d="M 706.65 128.16 
L 715.95 128.16 
L 715.95 22.683537 
L 706.65 22.683537 
z
" clip-path="url(#p395e7a35e5)" style="fill: #9a0007"/>
   </g>
   <g id="patch_41">
    <path d="M 725.25 128.16 
L 734.55 128.16 
L 734.55 22.706994 
L 725.25 22.706994 
z
" clip-path="url(#p395e7a35e5)" style="fill: #9a0007"/>
   </g>
   <g id="patch_42">
    <path d="M 743.85 128.16 
L 753.15 128.16 
L 753.15 22.751123 
L 743.85 22.751123 
z
" clip-path="url(#p395e7a35e5)" style="fill: #9a0007"/>
   </g>
   <g id="patch_43">
    <path d="M 762.45 128.16 
L 771.75 128.16 
L 771.75 23.15816 
L 762.45 23.15816 
z
" clip-path="url(#p395e7a35e5)" style="fill: #9a0007"/>
   </g>
   <g id="patch_44">
    <path d="M 781.05 128.16 
L 790.35 128.16 
L 790.35 23.265779 
L 781.05 23.265779 
z
" clip-path="url(#p395e7a35e5)" style="fill: #9a0007"/>
   </g>
   <g id="patch_45">
    <path d="M 799.65 128.16 
L 808.95 128.16 
L 808.95 22.94012 
L 799.65 22.94012 
z
" clip-path="url(#p395e7a35e5)" style="fill: #9a0007"/>
   </g>
   <g id="patch_46">
    <path d="M 818.25 128.16 
L 827.55 128.16 
L 827.55 128.16 
L 818.25 128.16 
z
" clip-path="url(#p395e7a35e5)" style="fill: #9a0007"/>
   </g>
   <g id="patch_47">
    <path d="M 836.85 128.16 
L 846.15 128.16 
L 846.15 23.464568 
L 836.85 23.464568 
z
" clip-path="url(#p395e7a35e5)" style="fill: #9a0007"/>
   </g>
   <g id="patch_48">
    <path d="M 855.45 128.16 
L 864.75 128.16 
L 864.75 22.882694 
L 855.45 22.882694 
z
" clip-path="url(#p395e7a35e5)" style="fill: #9a0007"/>
   </g>
   <g id="patch_49">
    <path d="M 874.05 128.16 
L 883.35 128.16 
L 883.35 22.838644 
L 874.05 22.838644 
z
" clip-path="url(#p395e7a35e5)" style="fill: #9a0007"/>
   </g>
   <g id="patch_50">
    <path d="M 892.65 128.16 
L 901.95 128.16 
L 901.95 22.733939 
L 892.65 22.733939 
z
" clip-path="url(#p395e7a35e5)" style="fill: #9a0007"/>
   </g>
   <g id="patch_51">
    <path d="M 911.25 128.16 
L 920.55 128.16 
L 920.55 22.918949 
L 911.25 22.918949 
z
" clip-path="url(#p395e7a35e5)" style="fill: #9a0007"/>
   </g>
   <g id="patch_52">
    <path d="M 929.85 128.16 
L 939.15 128.16 
L 939.15 64.310636 
L 929.85 64.310636 
z
" clip-path="url(#p395e7a35e5)" style="fill: #9a0007"/>
   </g>
   <g id="patch_53">
    <path d="M 948.45 128.16 
L 957.75 128.16 
L 957.75 87.442246 
L 948.45 87.442246 
z
" clip-path="url(#p395e7a35e5)" style="fill: #9a0007"/>
   </g>
   <g id="patch_54">
    <path d="M 967.05 128.16 
L 976.35 128.16 
L 976.35 75.925687 
L 967.05 75.925687 
z
" clip-path="url(#p395e7a35e5)" style="fill: #9a0007"/>
   </g>
   <g id="patch_55">
    <path d="M 985.65 128.16 
L 994.95 128.16 
L 994.95 76.510545 
L 985.65 76.510545 
z
" clip-path="url(#p395e7a35e5)" style="fill: #9a0007"/>
   </g>
   <g id="patch_56">
    <path d="M 1004.25 128.16 
L 1013.55 128.16 
L 1013.55 99.104933 
L 1004.25 99.104933 
z
" clip-path="url(#p395e7a35e5)" style="fill: #9a0007"/>
   </g>
   <g id="patch_57">
    <path d="M 1022.85 128.16 
L 1032.15 128.16 
L 1032.15 24.786154 
L 1022.85 24.786154 
z
" clip-path="url(#p395e7a35e5)" style="fill: #9a0007"/>
   </g>
   <g id="matplotlib.axis_1">
    <g id="xtick_1">
     <g id="line2d_1">
      <defs>
       <path id="md5cee5ee76" d="M 0 0 
L 0 3.5 
" style="stroke: #000000; stroke-width: 0.8"/>
      </defs>
      <g>
       <use xlink:href="#md5cee5ee76" x="171.9" y="128.16" style="stroke: #000000; stroke-width: 0.8"/>
      </g>
     </g>
     <g id="text_1">
      <!-- 100008 -->
      <g transform="translate(174.659375 173.335) rotate(-90) scale(0.1 -0.1)">
       <defs>
        <path id="DejaVuSans-31" d="M 794 531 
L 1825 531 
L 1825 4091 
L 703 3866 
L 703 4441 
L 1819 4666 
L 2450 4666 
L 2450 531 
L 3481 531 
L 3481 0 
L 794 0 
L 794 531 
z
" transform="scale(0.015625)"/>
        <path id="DejaVuSans-30" d="M 2034 4250 
Q 1547 4250 1301 3770 
Q 1056 3291 1056 2328 
Q 1056 1369 1301 889 
Q 1547 409 2034 409 
Q 2525 409 2770 889 
Q 3016 1369 3016 2328 
Q 3016 3291 2770 3770 
Q 2525 4250 2034 4250 
z
M 2034 4750 
Q 2819 4750 3233 4129 
Q 3647 3509 3647 2328 
Q 3647 1150 3233 529 
Q 2819 -91 2034 -91 
Q 1250 -91 836 529 
Q 422 1150 422 2328 
Q 422 3509 836 4129 
Q 1250 4750 2034 4750 
z
" transform="scale(0.015625)"/>
        <path id="DejaVuSans-38" d="M 2034 2216 
Q 1584 2216 1326 1975 
Q 1069 1734 1069 1313 
Q 1069 891 1326 650 
Q 1584 409 2034 409 
Q 2484 409 2743 651 
Q 3003 894 3003 1313 
Q 3003 1734 2745 1975 
Q 2488 2216 2034 2216 
z
M 1403 2484 
Q 997 2584 770 2862 
Q 544 3141 544 3541 
Q 544 4100 942 4425 
Q 1341 4750 2034 4750 
Q 2731 4750 3128 4425 
Q 3525 4100 3525 3541 
Q 3525 3141 3298 2862 
Q 3072 2584 2669 2484 
Q 3125 2378 3379 2068 
Q 3634 1759 3634 1313 
Q 3634 634 3220 271 
Q 2806 -91 2034 -91 
Q 1263 -91 848 271 
Q 434 634 434 1313 
Q 434 1759 690 2068 
Q 947 2378 1403 2484 
z
M 1172 3481 
Q 1172 3119 1398 2916 
Q 1625 2713 2034 2713 
Q 2441 2713 2670 2916 
Q 2900 3119 2900 3481 
Q 2900 3844 2670 4047 
Q 2441 4250 2034 4250 
Q 1625 4250 1398 4047 
Q 1172 3844 1172 3481 
z
" transform="scale(0.015625)"/>
       </defs>
       <use xlink:href="#DejaVuSans-31"/>
       <use xlink:href="#DejaVuSans-30" transform="translate(63.623047 0)"/>
       <use xlink:href="#DejaVuSans-30" transform="translate(127.246094 0)"/>
       <use xlink:href="#DejaVuSans-30" transform="translate(190.869141 0)"/>
       <use xlink:href="#DejaVuSans-30" transform="translate(254.492188 0)"/>
       <use xlink:href="#DejaVuSans-38" transform="translate(318.115234 0)"/>
      </g>
     </g>
    </g>
    <g id="xtick_2">
     <g id="line2d_2">
      <g>
       <use xlink:href="#md5cee5ee76" x="227.7" y="128.16" style="stroke: #000000; stroke-width: 0.8"/>
      </g>
     </g>
     <g id="text_2">
      <!-- 100137 -->
      <g transform="translate(230.459375 173.335) rotate(-90) scale(0.1 -0.1)">
       <defs>
        <path id="DejaVuSans-33" d="M 2597 2516 
Q 3050 2419 3304 2112 
Q 3559 1806 3559 1356 
Q 3559 666 3084 287 
Q 2609 -91 1734 -91 
Q 1441 -91 1130 -33 
Q 819 25 488 141 
L 488 750 
Q 750 597 1062 519 
Q 1375 441 1716 441 
Q 2309 441 2620 675 
Q 2931 909 2931 1356 
Q 2931 1769 2642 2001 
Q 2353 2234 1838 2234 
L 1294 2234 
L 1294 2753 
L 1863 2753 
Q 2328 2753 2575 2939 
Q 2822 3125 2822 3475 
Q 2822 3834 2567 4026 
Q 2313 4219 1838 4219 
Q 1578 4219 1281 4162 
Q 984 4106 628 3988 
L 628 4550 
Q 988 4650 1302 4700 
Q 1616 4750 1894 4750 
Q 2613 4750 3031 4423 
Q 3450 4097 3450 3541 
Q 3450 3153 3228 2886 
Q 3006 2619 2597 2516 
z
" transform="scale(0.015625)"/>
        <path id="DejaVuSans-37" d="M 525 4666 
L 3525 4666 
L 3525 4397 
L 1831 0 
L 1172 0 
L 2766 4134 
L 525 4134 
L 525 4666 
z
" transform="scale(0.015625)"/>
       </defs>
       <use xlink:href="#DejaVuSans-31"/>
       <use xlink:href="#DejaVuSans-30" transform="translate(63.623047 0)"/>
       <use xlink:href="#DejaVuSans-30" transform="translate(127.246094 0)"/>
       <use xlink:href="#DejaVuSans-31" transform="translate(190.869141 0)"/>
       <use xlink:href="#DejaVuSans-33" transform="translate(254.492188 0)"/>
       <use xlink:href="#DejaVuSans-37" transform="translate(318.115234 0)"/>
      </g>
     </g>
    </g>
    <g id="xtick_3">
     <g id="line2d_3">
      <g>
       <use xlink:href="#md5cee5ee76" x="283.5" y="128.16" style="stroke: #000000; stroke-width: 0.8"/>
      </g>
     </g>
     <g id="text_3">
      <!-- 100177 -->
      <g transform="translate(286.259375 173.335) rotate(-90) scale(0.1 -0.1)">
       <use xlink:href="#DejaVuSans-31"/>
       <use xlink:href="#DejaVuSans-30" transform="translate(63.623047 0)"/>
       <use xlink:href="#DejaVuSans-30" transform="translate(127.246094 0)"/>
       <use xlink:href="#DejaVuSans-31" transform="translate(190.869141 0)"/>
       <use xlink:href="#DejaVuSans-37" transform="translate(254.492188 0)"/>
       <use xlink:href="#DejaVuSans-37" transform="translate(318.115234 0)"/>
      </g>
     </g>
    </g>
    <g id="xtick_4">
     <g id="line2d_4">
      <g>
       <use xlink:href="#md5cee5ee76" x="339.3" y="128.16" style="stroke: #000000; stroke-width: 0.8"/>
      </g>
     </g>
     <g id="text_4">
      <!-- 100200 -->
      <g transform="translate(342.059375 173.335) rotate(-90) scale(0.1 -0.1)">
       <defs>
        <path id="DejaVuSans-32" d="M 1228 531 
L 3431 531 
L 3431 0 
L 469 0 
L 469 531 
Q 828 903 1448 1529 
Q 2069 2156 2228 2338 
Q 2531 2678 2651 2914 
Q 2772 3150 2772 3378 
Q 2772 3750 2511 3984 
Q 2250 4219 1831 4219 
Q 1534 4219 1204 4116 
Q 875 4013 500 3803 
L 500 4441 
Q 881 4594 1212 4672 
Q 1544 4750 1819 4750 
Q 2544 4750 2975 4387 
Q 3406 4025 3406 3419 
Q 3406 3131 3298 2873 
Q 3191 2616 2906 2266 
Q 2828 2175 2409 1742 
Q 1991 1309 1228 531 
z
" transform="scale(0.015625)"/>
       </defs>
       <use xlink:href="#DejaVuSans-31"/>
       <use xlink:href="#DejaVuSans-30" transform="translate(63.623047 0)"/>
       <use xlink:href="#DejaVuSans-30" transform="translate(127.246094 0)"/>
       <use xlink:href="#DejaVuSans-32" transform="translate(190.869141 0)"/>
       <use xlink:href="#DejaVuSans-30" transform="translate(254.492188 0)"/>
       <use xlink:href="#DejaVuSans-30" transform="translate(318.115234 0)"/>
      </g>
     </g>
    </g>
    <g id="xtick_5">
     <g id="line2d_5">
      <g>
       <use xlink:href="#md5cee5ee76" x="395.1" y="128.16" style="stroke: #000000; stroke-width: 0.8"/>
      </g>
     </g>
     <g id="text_5">
      <!-- 100206 -->
      <g transform="translate(397.859375 173.335) rotate(-90) scale(0.1 -0.1)">
       <defs>
        <path id="DejaVuSans-36" d="M 2113 2584 
Q 1688 2584 1439 2293 
Q 1191 2003 1191 1497 
Q 1191 994 1439 701 
Q 1688 409 2113 409 
Q 2538 409 2786 701 
Q 3034 994 3034 1497 
Q 3034 2003 2786 2293 
Q 2538 2584 2113 2584 
z
M 3366 4563 
L 3366 3988 
Q 3128 4100 2886 4159 
Q 2644 4219 2406 4219 
Q 1781 4219 1451 3797 
Q 1122 3375 1075 2522 
Q 1259 2794 1537 2939 
Q 1816 3084 2150 3084 
Q 2853 3084 3261 2657 
Q 3669 2231 3669 1497 
Q 3669 778 3244 343 
Q 2819 -91 2113 -91 
Q 1303 -91 875 529 
Q 447 1150 447 2328 
Q 447 3434 972 4092 
Q 1497 4750 2381 4750 
Q 2619 4750 2861 4703 
Q 3103 4656 3366 4563 
z
" transform="scale(0.015625)"/>
       </defs>
       <use xlink:href="#DejaVuSans-31"/>
       <use xlink:href="#DejaVuSans-30" transform="translate(63.623047 0)"/>
       <use xlink:href="#DejaVuSans-30" transform="translate(127.246094 0)"/>
       <use xlink:href="#DejaVuSans-32" transform="translate(190.869141 0)"/>
       <use xlink:href="#DejaVuSans-30" transform="translate(254.492188 0)"/>
       <use xlink:href="#DejaVuSans-36" transform="translate(318.115234 0)"/>
      </g>
     </g>
    </g>
    <g id="xtick_6">
     <g id="line2d_6">
      <g>
       <use xlink:href="#md5cee5ee76" x="450.9" y="128.16" style="stroke: #000000; stroke-width: 0.8"/>
      </g>
     </g>
     <g id="text_6">
      <!-- 100217 -->
      <g transform="translate(453.659375 173.335) rotate(-90) scale(0.1 -0.1)">
       <use xlink:href="#DejaVuSans-31"/>
       <use xlink:href="#DejaVuSans-30" transform="translate(63.623047 0)"/>
       <use xlink:href="#DejaVuSans-30" transform="translate(127.246094 0)"/>
       <use xlink:href="#DejaVuSans-32" transform="translate(190.869141 0)"/>
       <use xlink:href="#DejaVuSans-31" transform="translate(254.492188 0)"/>
       <use xlink:href="#DejaVuSans-37" transform="translate(318.115234 0)"/>
      </g>
     </g>
    </g>
    <g id="xtick_7">
     <g id="line2d_7">
      <g>
       <use xlink:href="#md5cee5ee76" x="506.7" y="128.16" style="stroke: #000000; stroke-width: 0.8"/>
      </g>
     </g>
     <g id="text_7">
      <!-- 100248 -->
      <g transform="translate(509.459375 173.335) rotate(-90) scale(0.1 -0.1)">
       <defs>
        <path id="DejaVuSans-34" d="M 2419 4116 
L 825 1625 
L 2419 1625 
L 2419 4116 
z
M 2253 4666 
L 3047 4666 
L 3047 1625 
L 3713 1625 
L 3713 1100 
L 3047 1100 
L 3047 0 
L 2419 0 
L 2419 1100 
L 313 1100 
L 313 1709 
L 2253 4666 
z
" transform="scale(0.015625)"/>
       </defs>
       <use xlink:href="#DejaVuSans-31"/>
       <use xlink:href="#DejaVuSans-30" transform="translate(63.623047 0)"/>
       <use xlink:href="#DejaVuSans-30" transform="translate(127.246094 0)"/>
       <use xlink:href="#DejaVuSans-32" transform="translate(190.869141 0)"/>
       <use xlink:href="#DejaVuSans-34" transform="translate(254.492188 0)"/>
       <use xlink:href="#DejaVuSans-38" transform="translate(318.115234 0)"/>
      </g>
     </g>
    </g>
    <g id="xtick_8">
     <g id="line2d_8">
      <g>
       <use xlink:href="#md5cee5ee76" x="562.5" y="128.16" style="stroke: #000000; stroke-width: 0.8"/>
      </g>
     </g>
     <g id="text_8">
      <!-- 100255 -->
      <g transform="translate(565.259375 173.335) rotate(-90) scale(0.1 -0.1)">
       <defs>
        <path id="DejaVuSans-35" d="M 691 4666 
L 3169 4666 
L 3169 4134 
L 1269 4134 
L 1269 2991 
Q 1406 3038 1543 3061 
Q 1681 3084 1819 3084 
Q 2600 3084 3056 2656 
Q 3513 2228 3513 1497 
Q 3513 744 3044 326 
Q 2575 -91 1722 -91 
Q 1428 -91 1123 -41 
Q 819 9 494 109 
L 494 744 
Q 775 591 1075 516 
Q 1375 441 1709 441 
Q 2250 441 2565 725 
Q 2881 1009 2881 1497 
Q 2881 1984 2565 2268 
Q 2250 2553 1709 2553 
Q 1456 2553 1204 2497 
Q 953 2441 691 2322 
L 691 4666 
z
" transform="scale(0.015625)"/>
       </defs>
       <use xlink:href="#DejaVuSans-31"/>
       <use xlink:href="#DejaVuSans-30" transform="translate(63.623047 0)"/>
       <use xlink:href="#DejaVuSans-30" transform="translate(127.246094 0)"/>
       <use xlink:href="#DejaVuSans-32" transform="translate(190.869141 0)"/>
       <use xlink:href="#DejaVuSans-35" transform="translate(254.492188 0)"/>
       <use xlink:href="#DejaVuSans-35" transform="translate(318.115234 0)"/>
      </g>
     </g>
    </g>
    <g id="xtick_9">
     <g id="line2d_9">
      <g>
       <use xlink:href="#md5cee5ee76" x="618.3" y="128.16" style="stroke: #000000; stroke-width: 0.8"/>
      </g>
     </g>
     <g id="text_9">
      <!-- 100256 -->
      <g transform="translate(621.059375 173.335) rotate(-90) scale(0.1 -0.1)">
       <use xlink:href="#DejaVuSans-31"/>
       <use xlink:href="#DejaVuSans-30" transform="translate(63.623047 0)"/>
       <use xlink:href="#DejaVuSans-30" transform="translate(127.246094 0)"/>
       <use xlink:href="#DejaVuSans-32" transform="translate(190.869141 0)"/>
       <use xlink:href="#DejaVuSans-35" transform="translate(254.492188 0)"/>
       <use xlink:href="#DejaVuSans-36" transform="translate(318.115234 0)"/>
      </g>
     </g>
    </g>
    <g id="xtick_10">
     <g id="line2d_10">
      <g>
       <use xlink:href="#md5cee5ee76" x="674.1" y="128.16" style="stroke: #000000; stroke-width: 0.8"/>
      </g>
     </g>
     <g id="text_10">
      <!-- 100257 -->
      <g transform="translate(676.859375 173.335) rotate(-90) scale(0.1 -0.1)">
       <use xlink:href="#DejaVuSans-31"/>
       <use xlink:href="#DejaVuSans-30" transform="translate(63.623047 0)"/>
       <use xlink:href="#DejaVuSans-30" transform="translate(127.246094 0)"/>
       <use xlink:href="#DejaVuSans-32" transform="translate(190.869141 0)"/>
       <use xlink:href="#DejaVuSans-35" transform="translate(254.492188 0)"/>
       <use xlink:href="#DejaVuSans-37" transform="translate(318.115234 0)"/>
      </g>
     </g>
    </g>
    <g id="xtick_11">
     <g id="line2d_11">
      <g>
       <use xlink:href="#md5cee5ee76" x="729.9" y="128.16" style="stroke: #000000; stroke-width: 0.8"/>
      </g>
     </g>
     <g id="text_11">
      <!-- 100261 -->
      <g transform="translate(732.659375 173.335) rotate(-90) scale(0.1 -0.1)">
       <use xlink:href="#DejaVuSans-31"/>
       <use xlink:href="#DejaVuSans-30" transform="translate(63.623047 0)"/>
       <use xlink:href="#DejaVuSans-30" transform="translate(127.246094 0)"/>
       <use xlink:href="#DejaVuSans-32" transform="translate(190.869141 0)"/>
       <use xlink:href="#DejaVuSans-36" transform="translate(254.492188 0)"/>
       <use xlink:href="#DejaVuSans-31" transform="translate(318.115234 0)"/>
      </g>
     </g>
    </g>
    <g id="xtick_12">
     <g id="line2d_12">
      <g>
       <use xlink:href="#md5cee5ee76" x="785.7" y="128.16" style="stroke: #000000; stroke-width: 0.8"/>
      </g>
     </g>
     <g id="text_12">
      <!-- 100267 -->
      <g transform="translate(788.459375 173.335) rotate(-90) scale(0.1 -0.1)">
       <use xlink:href="#DejaVuSans-31"/>
       <use xlink:href="#DejaVuSans-30" transform="translate(63.623047 0)"/>
       <use xlink:href="#DejaVuSans-30" transform="translate(127.246094 0)"/>
       <use xlink:href="#DejaVuSans-32" transform="translate(190.869141 0)"/>
       <use xlink:href="#DejaVuSans-36" transform="translate(254.492188 0)"/>
       <use xlink:href="#DejaVuSans-37" transform="translate(318.115234 0)"/>
      </g>
     </g>
    </g>
    <g id="xtick_13">
     <g id="line2d_13">
      <g>
       <use xlink:href="#md5cee5ee76" x="841.5" y="128.16" style="stroke: #000000; stroke-width: 0.8"/>
      </g>
     </g>
     <g id="text_13">
      <!-- 100306 -->
      <g transform="translate(844.259375 173.335) rotate(-90) scale(0.1 -0.1)">
       <use xlink:href="#DejaVuSans-31"/>
       <use xlink:href="#DejaVuSans-30" transform="translate(63.623047 0)"/>
       <use xlink:href="#DejaVuSans-30" transform="translate(127.246094 0)"/>
       <use xlink:href="#DejaVuSans-33" transform="translate(190.869141 0)"/>
       <use xlink:href="#DejaVuSans-30" transform="translate(254.492188 0)"/>
       <use xlink:href="#DejaVuSans-36" transform="translate(318.115234 0)"/>
      </g>
     </g>
    </g>
    <g id="xtick_14">
     <g id="line2d_14">
      <g>
       <use xlink:href="#md5cee5ee76" x="897.3" y="128.16" style="stroke: #000000; stroke-width: 0.8"/>
      </g>
     </g>
     <g id="text_14">
      <!-- 100337 -->
      <g transform="translate(900.059375 173.335) rotate(-90) scale(0.1 -0.1)">
       <use xlink:href="#DejaVuSans-31"/>
       <use xlink:href="#DejaVuSans-30" transform="translate(63.623047 0)"/>
       <use xlink:href="#DejaVuSans-30" transform="translate(127.246094 0)"/>
       <use xlink:href="#DejaVuSans-33" transform="translate(190.869141 0)"/>
       <use xlink:href="#DejaVuSans-33" transform="translate(254.492188 0)"/>
       <use xlink:href="#DejaVuSans-37" transform="translate(318.115234 0)"/>
      </g>
     </g>
    </g>
    <g id="xtick_15">
     <g id="line2d_15">
      <g>
       <use xlink:href="#md5cee5ee76" x="981" y="128.16" style="stroke: #000000; stroke-width: 0.8"/>
      </g>
     </g>
     <g id="text_15">
      <!-- Water -->
      <g transform="translate(983.759375 164.7225) rotate(-90) scale(0.1 -0.1)">
       <defs>
        <path id="DejaVuSans-57" d="M 213 4666 
L 850 4666 
L 1831 722 
L 2809 4666 
L 3519 4666 
L 4500 722 
L 5478 4666 
L 6119 4666 
L 4947 0 
L 4153 0 
L 3169 4050 
L 2175 0 
L 1381 0 
L 213 4666 
z
" transform="scale(0.015625)"/>
        <path id="DejaVuSans-61" d="M 2194 1759 
Q 1497 1759 1228 1600 
Q 959 1441 959 1056 
Q 959 750 1161 570 
Q 1363 391 1709 391 
Q 2188 391 2477 730 
Q 2766 1069 2766 1631 
L 2766 1759 
L 2194 1759 
z
M 3341 1997 
L 3341 0 
L 2766 0 
L 2766 531 
Q 2569 213 2275 61 
Q 1981 -91 1556 -91 
Q 1019 -91 701 211 
Q 384 513 384 1019 
Q 384 1609 779 1909 
Q 1175 2209 1959 2209 
L 2766 2209 
L 2766 2266 
Q 2766 2663 2505 2880 
Q 2244 3097 1772 3097 
Q 1472 3097 1187 3025 
Q 903 2953 641 2809 
L 641 3341 
Q 956 3463 1253 3523 
Q 1550 3584 1831 3584 
Q 2591 3584 2966 3190 
Q 3341 2797 3341 1997 
z
" transform="scale(0.015625)"/>
        <path id="DejaVuSans-74" d="M 1172 4494 
L 1172 3500 
L 2356 3500 
L 2356 3053 
L 1172 3053 
L 1172 1153 
Q 1172 725 1289 603 
Q 1406 481 1766 481 
L 2356 481 
L 2356 0 
L 1766 0 
Q 1100 0 847 248 
Q 594 497 594 1153 
L 594 3053 
L 172 3053 
L 172 3500 
L 594 3500 
L 594 4494 
L 1172 4494 
z
" transform="scale(0.015625)"/>
        <path id="DejaVuSans-65" d="M 3597 1894 
L 3597 1613 
L 953 1613 
Q 991 1019 1311 708 
Q 1631 397 2203 397 
Q 2534 397 2845 478 
Q 3156 559 3463 722 
L 3463 178 
Q 3153 47 2828 -22 
Q 2503 -91 2169 -91 
Q 1331 -91 842 396 
Q 353 884 353 1716 
Q 353 2575 817 3079 
Q 1281 3584 2069 3584 
Q 2775 3584 3186 3129 
Q 3597 2675 3597 1894 
z
M 3022 2063 
Q 3016 2534 2758 2815 
Q 2500 3097 2075 3097 
Q 1594 3097 1305 2825 
Q 1016 2553 972 2059 
L 3022 2063 
z
" transform="scale(0.015625)"/>
        <path id="DejaVuSans-72" d="M 2631 2963 
Q 2534 3019 2420 3045 
Q 2306 3072 2169 3072 
Q 1681 3072 1420 2755 
Q 1159 2438 1159 1844 
L 1159 0 
L 581 0 
L 581 3500 
L 1159 3500 
L 1159 2956 
Q 1341 3275 1631 3429 
Q 1922 3584 2338 3584 
Q 2397 3584 2469 3576 
Q 2541 3569 2628 3553 
L 2631 2963 
z
" transform="scale(0.015625)"/>
       </defs>
       <use xlink:href="#DejaVuSans-57"/>
       <use xlink:href="#DejaVuSans-61" transform="translate(92.501953 0)"/>
       <use xlink:href="#DejaVuSans-74" transform="translate(153.78125 0)"/>
       <use xlink:href="#DejaVuSans-65" transform="translate(192.990234 0)"/>
       <use xlink:href="#DejaVuSans-72" transform="translate(254.513672 0)"/>
      </g>
     </g>
    </g>
   </g>
   <g id="matplotlib.axis_2">
    <g id="ytick_1">
     <g id="line2d_16">
      <defs>
       <path id="mbf2227c3ea" d="M 0 0 
L -3.5 0 
" style="stroke: #000000; stroke-width: 0.8"/>
      </defs>
      <g>
       <use xlink:href="#mbf2227c3ea" x="144" y="128.16" style="stroke: #000000; stroke-width: 0.8"/>
      </g>
     </g>
     <g id="text_16">
      <!-- 0 -->
      <g transform="translate(130.6375 131.959219) scale(0.1 -0.1)">
       <use xlink:href="#DejaVuSans-30"/>
      </g>
     </g>
    </g>
    <g id="ytick_2">
     <g id="line2d_17">
      <g>
       <use xlink:href="#mbf2227c3ea" x="144" y="101.76" style="stroke: #000000; stroke-width: 0.8"/>
      </g>
     </g>
     <g id="text_17">
      <!-- 25 -->
      <g transform="translate(124.275 105.559219) scale(0.1 -0.1)">
       <use xlink:href="#DejaVuSans-32"/>
       <use xlink:href="#DejaVuSans-35" transform="translate(63.623047 0)"/>
      </g>
     </g>
    </g>
    <g id="ytick_3">
     <g id="line2d_18">
      <g>
       <use xlink:href="#mbf2227c3ea" x="144" y="75.36" style="stroke: #000000; stroke-width: 0.8"/>
      </g>
     </g>
     <g id="text_18">
      <!-- 50 -->
      <g transform="translate(124.275 79.159219) scale(0.1 -0.1)">
       <use xlink:href="#DejaVuSans-35"/>
       <use xlink:href="#DejaVuSans-30" transform="translate(63.623047 0)"/>
      </g>
     </g>
    </g>
    <g id="ytick_4">
     <g id="line2d_19">
      <g>
       <use xlink:href="#mbf2227c3ea" x="144" y="48.96" style="stroke: #000000; stroke-width: 0.8"/>
      </g>
     </g>
     <g id="text_19">
      <!-- 75 -->
      <g transform="translate(124.275 52.759219) scale(0.1 -0.1)">
       <use xlink:href="#DejaVuSans-37"/>
       <use xlink:href="#DejaVuSans-35" transform="translate(63.623047 0)"/>
      </g>
     </g>
    </g>
    <g id="ytick_5">
     <g id="line2d_20">
      <g>
       <use xlink:href="#mbf2227c3ea" x="144" y="22.56" style="stroke: #000000; stroke-width: 0.8"/>
      </g>
     </g>
     <g id="text_20">
      <!-- 100 -->
      <g transform="translate(117.9125 26.359219) scale(0.1 -0.1)">
       <use xlink:href="#DejaVuSans-31"/>
       <use xlink:href="#DejaVuSans-30" transform="translate(63.623047 0)"/>
       <use xlink:href="#DejaVuSans-30" transform="translate(127.246094 0)"/>
      </g>
     </g>
    </g>
   </g>
   <g id="patch_58">
    <path d="M 144 128.16 
L 144 17.28 
" style="fill: none; stroke: #000000; stroke-width: 0.8; stroke-linejoin: miter; stroke-linecap: square"/>
   </g>
   <g id="patch_59">
    <path d="M 144 128.16 
L 1036.8 128.16 
" style="fill: none; stroke: #000000; stroke-width: 0.8; stroke-linejoin: miter; stroke-linecap: square"/>
   </g>
  </g>
 </g>
 <defs>
  <clipPath id="p395e7a35e5">
   <rect x="144" y="17.28" width="892.8" height="110.88"/>
  </clipPath>
 </defs>
</svg>
